%FSLAX35Y35*%
%MOIN*%
%IN18=Loetstoppmaskeoben(X.StopTop)*%
%ADD10C,0.00591*%
%ADD11C,0.00354*%
%ADD12C,0.00443*%
%ADD13C,0.00787*%
%ADD14C,0.00800*%
%ADD15C,0.01181*%
%ADD16C,0.01575*%
%ADD17C,0.01772*%
%ADD18C,0.01969*%
%ADD19C,0.02362*%
%ADD20C,0.03543*%
%ADD21C,0.11811*%
%ADD22C,0.12598*%
%ADD23C,0.14173*%
%AMR_24*21,1,0.01772,0.05118,0,0,270.000*%
%ADD24R_24*%
%AMR_25*21,1,0.01969,0.04724,0,0,90.000*%
%ADD25R_25*%
%AMR_26*21,1,0.02362,0.09843,0,0,180.000*%
%ADD26R_26*%
%AMR_27*21,1,0.03937,0.03937,0,0,180.000*%
%ADD27R_27*%
%AMR_28*21,1,0.03937,0.06299,0,0,90.000*%
%ADD28R_28*%
%AMR_29*21,1,0.03937,0.06299,0,0,270.000*%
%ADD29R_29*%
%AMR_30*21,1,0.04331,0.04331,0,0,0.000*%
%ADD30R_30*%
%AMR_31*21,1,0.04331,0.04331,0,0,180.000*%
%ADD31R_31*%
%AMR_32*21,1,0.04331,0.04331,0,0,270.000*%
%ADD32R_32*%
%AMR_33*21,1,0.05118,0.01772,0,0,270.000*%
%ADD33R_33*%
%AMR_34*21,1,0.05512,0.03937,0,0,0.000*%
%ADD34R_34*%
%AMR_35*21,1,0.05512,0.03937,0,0,180.000*%
%ADD35R_35*%
%AMR_36*21,1,0.05512,0.03937,0,0,270.000*%
%ADD36R_36*%
%AMR_37*21,1,0.05512,0.05512,0,0,180.000*%
%ADD37R_37*%
%AMR_38*21,1,0.05512,0.05512,0,0,270.000*%
%ADD38R_38*%
%AMR_39*21,1,0.05906,0.05906,0,0,0.000*%
%ADD39R_39*%
%AMR_40*21,1,0.06299,0.03937,0,0,0.000*%
%ADD40R_40*%
%AMR_41*21,1,0.06299,0.03937,0,0,180.000*%
%ADD41R_41*%
%AMR_42*21,1,0.06299,0.03937,0,0,270.000*%
%ADD42R_42*%
%AMR_43*21,1,0.07087,0.07087,0,0,0.000*%
%ADD43R_43*%
%AMR_44*21,1,0.07087,0.07087,0,0,90.000*%
%ADD44R_44*%
%AMR_45*21,1,0.07874,0.06299,0,0,90.000*%
%ADD45R_45*%
%AMR_46*21,1,0.07874,0.09843,0,0,180.000*%
%ADD46R_46*%
%AMR_47*21,1,0.08661,0.04724,0,0,0.000*%
%ADD47R_47*%
%AMR_48*21,1,0.19685,0.18750,0,0,0.000*%
%ADD48R_48*%
%AMR_49*21,1,0.19685,0.19685,0,0,0.000*%
%ADD49R_49*%
%AMR_50*21,1,0.23622,0.23622,0,0,0.000*%
%ADD50R_50*%
%AMOCT_51*4,1,8,0.029528,0.014764,0.014764,0.029528,-0.014764,0.029528,-0.029528,0.014764,-0.029528,-0.014764,-0.014764,-0.029528,0.014764,-0.029528,0.029528,-0.014764,0.029528,0.014764,270.000*%
%ADD51OCT_51*%
%AMOCT_52*4,1,8,0.031496,0.015748,0.015748,0.031496,-0.015748,0.031496,-0.031496,0.015748,-0.031496,-0.015748,-0.015748,-0.031496,0.015748,-0.031496,0.031496,-0.015748,0.031496,0.015748,90.000*%
%ADD52OCT_52*%
%AMOCT_53*4,1,8,0.039370,0.019685,0.019685,0.039370,-0.019685,0.039370,-0.039370,0.019685,-0.039370,-0.019685,-0.019685,-0.039370,0.019685,-0.039370,0.039370,-0.019685,0.039370,0.019685,180.000*%
%ADD53OCT_53*%
G54D20*
X127500Y146250D03*
X124901Y127500D03*
X142224Y127500D03*
X158523Y146250D03*
X290000Y59685D03*
X286250Y92500D03*
X383750Y46062D03*
X383750Y26062D03*
X35000Y22500D03*
X236250Y117500D03*
X236250Y130000D03*
X207500Y137500D03*
X256250Y146250D03*
X163750Y40000D03*
X201250Y55000D03*
X177775Y87224D03*
X195000Y102500D03*
X107500Y65000D03*
X290000Y51811D03*
X115000Y65000D03*
X281250Y46250D03*
X120000Y60000D03*
X290000Y43937D03*
X132775Y92500D03*
X160000Y112500D03*
X90000Y56250D03*
X90000Y127500D03*
X90000Y146250D03*
X127500Y168750D03*
X132500Y190000D03*
X212500Y112500D03*
X276250Y73750D03*
X185000Y152500D03*
X216250Y127490D03*
X195000Y122500D03*
X197500Y40000D03*
X227500Y40000D03*
X290000Y20314D03*
X162500Y96250D03*
X107500Y76250D03*
X276250Y56250D03*
G54D24*
X119783Y93523D03*
X119783Y90374D03*
X119783Y87224D03*
X119783Y84074D03*
X119783Y80925D03*
X119783Y77775D03*
X119783Y74625D03*
X119783Y71476D03*
X155216Y71476D03*
X155216Y74625D03*
X155216Y77775D03*
X155216Y80925D03*
X155216Y84074D03*
X155216Y87224D03*
X155216Y90374D03*
X155216Y93523D03*
G54D25*
X229527Y120009D03*
X229527Y123750D03*
X229527Y127490D03*
X220472Y127490D03*
X220472Y120009D03*
G54D26*
X129625Y115000D03*
X124901Y115000D03*
X120177Y115000D03*
G54D27*
X159055Y39114D03*
X150944Y39114D03*
X155000Y30885D03*
G54D28*
X286250Y87746D03*
X286250Y74753D03*
G54D29*
X127500Y151594D03*
X127500Y163405D03*
G54D30*
X160000Y103750D03*
G54D31*
X181102Y55000D03*
X173228Y55000D03*
X188976Y55000D03*
X157480Y55000D03*
X149606Y55000D03*
X165354Y55000D03*
G54D32*
X96250Y74625D03*
X96250Y82500D03*
G54D33*
X148523Y100216D03*
X145374Y100216D03*
X142224Y100216D03*
X139074Y100216D03*
X135925Y100216D03*
X132775Y100216D03*
X129625Y100216D03*
X126476Y100216D03*
X126476Y64783D03*
X129625Y64783D03*
X132775Y64783D03*
X135925Y64783D03*
X139074Y64783D03*
X142224Y64783D03*
X145374Y64783D03*
X148523Y64783D03*
G54D34*
X276250Y69330D03*
X276250Y60669D03*
G54D35*
X195000Y108169D03*
X195000Y116830D03*
X207500Y123169D03*
X207500Y131830D03*
G54D36*
X191830Y40000D03*
X183169Y40000D03*
G54D37*
X227500Y10000D03*
X217500Y10000D03*
X207500Y10000D03*
X197500Y10000D03*
X187500Y10000D03*
X177500Y10000D03*
X242500Y105000D03*
X232500Y105000D03*
X222500Y105000D03*
X212500Y105000D03*
G54D38*
X115000Y30000D03*
X125000Y30000D03*
X115000Y20000D03*
X125000Y20000D03*
X115000Y10000D03*
X125000Y10000D03*
G54D39*
X158523Y152224D03*
X176476Y152224D03*
X347500Y147500D03*
X337500Y147500D03*
X372500Y147500D03*
G54D40*
X134675Y51500D03*
X134675Y43500D03*
X170000Y39000D03*
X170000Y31000D03*
X90000Y51500D03*
X90000Y43500D03*
G54D41*
X60000Y43500D03*
X60000Y51500D03*
G54D42*
X155250Y112500D03*
X147250Y112500D03*
X255250Y123750D03*
X247250Y123750D03*
G54D43*
X392500Y36062D03*
G54D44*
X256250Y153838D03*
X256250Y171161D03*
G54D45*
X35000Y33120D03*
X35000Y60629D03*
G54D46*
X264517Y192500D03*
X247982Y192500D03*
G54D47*
X300098Y67559D03*
X300098Y59685D03*
X300098Y51811D03*
X300098Y43937D03*
X300098Y36062D03*
X300098Y28188D03*
X300098Y20314D03*
X300098Y12440D03*
X374901Y26062D03*
X374901Y36062D03*
X374901Y46062D03*
G54D50*
X167500Y180925D03*
G54D51*
X105000Y172500D03*
X105000Y182500D03*
X225000Y172500D03*
X225000Y182500D03*
X60000Y32500D03*
X60000Y22500D03*
X90000Y32500D03*
X90000Y22500D03*
G54D52*
X333031Y167874D03*
X343031Y167874D03*
X348031Y157874D03*
X323031Y167874D03*
X328031Y157874D03*
X338031Y157874D03*
G54D53*
X297500Y172500D03*
X277500Y172500D03*
G36*
X135000Y170000D02*
X135000Y200000D01*
X200000Y200000D01*
X200000Y170000D01*
X135000Y170000D01*
D02*G37*
M02*
