%FSLAX35Y35*%
%MOIN*%
%IN2=KupferuntenL1(X.Bot)*%
%ADD10C,0.00591*%
%ADD11C,0.00354*%
%ADD12C,0.00443*%
%ADD13C,0.00787*%
%ADD14C,0.00800*%
%ADD15C,0.01181*%
%ADD16C,0.01575*%
%ADD17C,0.01772*%
%ADD18C,0.01969*%
%ADD19C,0.02362*%
%ADD20C,0.03543*%
%ADD21C,0.11811*%
%ADD22C,0.12598*%
%ADD23C,0.14173*%
%AMR_24*21,1,0.01772,0.05118,0,0,270.000*%
%ADD24R_24*%
%AMR_25*21,1,0.01969,0.04724,0,0,90.000*%
%ADD25R_25*%
%AMR_26*21,1,0.02362,0.09843,0,0,180.000*%
%ADD26R_26*%
%AMR_27*21,1,0.03937,0.03937,0,0,180.000*%
%ADD27R_27*%
%AMR_28*21,1,0.03937,0.06299,0,0,90.000*%
%ADD28R_28*%
%AMR_29*21,1,0.03937,0.06299,0,0,270.000*%
%ADD29R_29*%
%AMR_30*21,1,0.04331,0.04331,0,0,0.000*%
%ADD30R_30*%
%AMR_31*21,1,0.04331,0.04331,0,0,180.000*%
%ADD31R_31*%
%AMR_32*21,1,0.04331,0.04331,0,0,270.000*%
%ADD32R_32*%
%AMR_33*21,1,0.05118,0.01772,0,0,270.000*%
%ADD33R_33*%
%AMR_34*21,1,0.05512,0.03937,0,0,0.000*%
%ADD34R_34*%
%AMR_35*21,1,0.05512,0.03937,0,0,180.000*%
%ADD35R_35*%
%AMR_36*21,1,0.05512,0.03937,0,0,270.000*%
%ADD36R_36*%
%AMR_37*21,1,0.05512,0.05512,0,0,180.000*%
%ADD37R_37*%
%AMR_38*21,1,0.05512,0.05512,0,0,270.000*%
%ADD38R_38*%
%AMR_39*21,1,0.05906,0.05906,0,0,0.000*%
%ADD39R_39*%
%AMR_40*21,1,0.06299,0.03937,0,0,0.000*%
%ADD40R_40*%
%AMR_41*21,1,0.06299,0.03937,0,0,180.000*%
%ADD41R_41*%
%AMR_42*21,1,0.06299,0.03937,0,0,270.000*%
%ADD42R_42*%
%AMR_43*21,1,0.07087,0.07087,0,0,0.000*%
%ADD43R_43*%
%AMR_44*21,1,0.07087,0.07087,0,0,90.000*%
%ADD44R_44*%
%AMR_45*21,1,0.07874,0.06299,0,0,90.000*%
%ADD45R_45*%
%AMR_46*21,1,0.07874,0.09843,0,0,180.000*%
%ADD46R_46*%
%AMR_47*21,1,0.08661,0.04724,0,0,0.000*%
%ADD47R_47*%
%AMR_48*21,1,0.19685,0.18750,0,0,0.000*%
%ADD48R_48*%
%AMR_49*21,1,0.19685,0.19685,0,0,0.000*%
%ADD49R_49*%
%AMR_50*21,1,0.23622,0.23622,0,0,0.000*%
%ADD50R_50*%
%AMOCT_51*4,1,8,0.029528,0.014764,0.014764,0.029528,-0.014764,0.029528,-0.029528,0.014764,-0.029528,-0.014764,-0.014764,-0.029528,0.014764,-0.029528,0.029528,-0.014764,0.029528,0.014764,270.000*%
%ADD51OCT_51*%
%AMOCT_52*4,1,8,0.031496,0.015748,0.015748,0.031496,-0.015748,0.031496,-0.031496,0.015748,-0.031496,-0.015748,-0.015748,-0.031496,0.015748,-0.031496,0.031496,-0.015748,0.031496,0.015748,90.000*%
%ADD52OCT_52*%
%AMOCT_53*4,1,8,0.039370,0.019685,0.019685,0.039370,-0.019685,0.039370,-0.039370,0.019685,-0.039370,-0.019685,-0.019685,-0.039370,0.019685,-0.039370,0.039370,-0.019685,0.039370,0.019685,180.000*%
%ADD53OCT_53*%
G54D13*
X135582Y194571D02*
X134311Y195039D01*
X133563Y195315D01*
X131436Y195315D01*
X129417Y194571D02*
X130688Y195039D01*
X131436Y195315D01*
X127928Y193082D02*
X128468Y193622D01*
X129176Y194331D01*
X129417Y194571D01*
X127184Y191063D02*
X127344Y191496D01*
X127605Y192205D01*
X127866Y192913D01*
X127928Y193082D01*
X127184Y190948D02*
X127184Y191063D01*
X123165Y186929D02*
X123480Y187244D01*
X124188Y187953D01*
X124897Y188661D01*
X125606Y189370D01*
X126314Y190079D01*
X127023Y190787D01*
X127184Y190948D01*
X123165Y186929D02*
X110011Y186929D01*
X109696Y187244D01*
X108987Y187953D01*
X108278Y188661D01*
X107944Y188996D01*
X102055Y188996D01*
X99988Y186929D02*
X100303Y187244D01*
X101012Y187953D01*
X101721Y188661D01*
X102055Y188996D01*
X99988Y186929D02*
X93165Y186929D01*
X89936Y183701D02*
X90645Y184409D01*
X91354Y185118D01*
X92062Y185827D01*
X92771Y186535D01*
X93165Y186929D01*
X85570Y179334D02*
X85684Y179449D01*
X86393Y180157D01*
X87102Y180866D01*
X87810Y181575D01*
X88519Y182283D01*
X89228Y182992D01*
X89936Y183701D01*
X85570Y175197D02*
X85570Y175905D01*
X85570Y176614D01*
X85570Y177323D01*
X85570Y178031D01*
X85570Y178740D01*
X85570Y179334D01*
X85570Y149474D02*
X85570Y149685D01*
X85570Y150394D01*
X85570Y151102D01*
X85570Y151811D01*
X85570Y152520D01*
X85570Y153228D01*
X85570Y153937D01*
X85570Y154646D01*
X85570Y155354D01*
X85570Y156063D01*
X85570Y156772D01*
X85570Y157480D01*
X85570Y158189D01*
X85570Y158898D01*
X85570Y159606D01*
X85570Y160315D01*
X85570Y161024D01*
X85570Y161732D01*
X85570Y162441D01*
X85570Y163150D01*
X85570Y163858D01*
X85570Y164567D01*
X85570Y165275D01*
X85570Y165984D01*
X85570Y166693D01*
X85570Y167401D01*
X85570Y168110D01*
X85570Y168819D01*
X85570Y169527D01*
X85570Y170236D01*
X85570Y170945D01*
X85570Y171653D01*
X85570Y172362D01*
X85570Y173071D01*
X85570Y173779D01*
X85570Y174488D01*
X85570Y175197D01*
X85428Y149332D02*
X85570Y149474D01*
X84684Y147313D02*
X84775Y147559D01*
X85036Y148268D01*
X85297Y148976D01*
X85428Y149332D01*
X84684Y145186D02*
X84684Y145433D01*
X84684Y146142D01*
X84684Y146850D01*
X84684Y147313D01*
X85428Y143167D02*
X85377Y143307D01*
X85115Y144016D01*
X84854Y144724D01*
X84684Y145186D01*
X86917Y141678D02*
X86705Y141890D01*
X85997Y142598D01*
X85428Y143167D01*
X88936Y140934D02*
X88266Y141181D01*
X86917Y141678D01*
X88936Y140934D02*
X91063Y140934D01*
X91733Y141181D01*
X93082Y141678D01*
X93294Y141890D01*
X94002Y142598D01*
X94571Y143167D01*
X94622Y143307D01*
X94884Y144016D01*
X95145Y144724D01*
X95315Y145186D01*
X95315Y145433D01*
X95315Y146142D01*
X95315Y146850D01*
X95315Y147313D01*
X95224Y147559D01*
X94963Y148268D01*
X94702Y148976D01*
X94571Y149332D01*
X94429Y149474D01*
X94429Y149685D01*
X94429Y150394D01*
X94429Y151102D01*
X94429Y151811D01*
X94429Y152520D01*
X94429Y153228D01*
X94429Y153937D01*
X94429Y154646D01*
X94429Y155354D01*
X94429Y156063D01*
X94429Y156772D01*
X94429Y157480D01*
X94429Y158189D01*
X94429Y158898D01*
X94429Y159606D01*
X94429Y160315D01*
X94429Y161024D01*
X94429Y161732D01*
X94429Y162441D01*
X94429Y163150D01*
X94429Y163858D01*
X94429Y164567D01*
X94429Y165275D01*
X94429Y165984D01*
X94429Y166693D01*
X94429Y167401D01*
X94429Y168110D01*
X94429Y168819D01*
X94429Y169527D01*
X94429Y170236D01*
X94429Y170945D01*
X94429Y171653D01*
X94429Y172362D01*
X94429Y173071D01*
X94429Y173779D01*
X94429Y174488D01*
X94429Y175197D01*
X94429Y175665D01*
X94670Y175905D01*
X95378Y176614D01*
X96087Y177323D01*
X96796Y178031D01*
X96834Y178070D01*
X99988Y178070D01*
X100559Y177500D02*
X100027Y178031D01*
X99988Y178070D01*
X98503Y175444D02*
X98965Y175905D01*
X99673Y176614D01*
X100382Y177323D01*
X100559Y177500D01*
X98503Y169555D02*
X98503Y170236D01*
X98503Y170945D01*
X98503Y171653D01*
X98503Y172362D01*
X98503Y173071D01*
X98503Y173779D01*
X98503Y174488D01*
X98503Y175197D01*
X98503Y175444D01*
X102055Y166003D02*
X101366Y166693D01*
X100657Y167401D01*
X99948Y168110D01*
X99240Y168819D01*
X98531Y169527D01*
X98503Y169555D01*
X105000Y166003D02*
X107944Y166003D01*
X108633Y166693D01*
X109342Y167401D01*
X110051Y168110D01*
X110759Y168819D01*
X111468Y169527D01*
X111496Y169555D01*
X111496Y170236D01*
X111496Y170945D01*
X111496Y171653D01*
X111496Y172362D01*
X111496Y173071D01*
X111496Y173779D01*
X111496Y174488D01*
X111496Y175197D01*
X111496Y175444D01*
X111034Y175905D01*
X110326Y176614D01*
X109617Y177323D01*
X109440Y177500D01*
X109972Y178031D01*
X110011Y178070D01*
X123070Y178070D01*
X123070Y171974D02*
X123070Y172362D01*
X123070Y173071D01*
X123070Y173779D01*
X123070Y174488D01*
X123070Y175197D01*
X123070Y175905D01*
X123070Y176614D01*
X123070Y177323D01*
X123070Y178031D01*
X123070Y178070D01*
X122928Y171832D02*
X123070Y171974D01*
X122184Y169813D02*
X122340Y170236D01*
X122601Y170945D01*
X122862Y171653D01*
X122928Y171832D01*
X122184Y167686D02*
X122184Y168110D01*
X122184Y168819D01*
X122184Y169527D01*
X122184Y169813D01*
X122928Y165667D02*
X122811Y165984D01*
X122550Y166693D01*
X122289Y167401D01*
X122184Y167686D01*
X124417Y164178D02*
X124028Y164567D01*
X123319Y165275D01*
X122928Y165667D01*
X126436Y163434D02*
X125286Y163858D01*
X124417Y164178D01*
X126436Y163434D02*
X128563Y163434D01*
X129713Y163858D01*
X130582Y164178D01*
X130971Y164567D01*
X131680Y165275D01*
X132071Y165667D01*
X132188Y165984D01*
X132449Y166693D01*
X132710Y167401D01*
X132815Y167686D01*
X132815Y168110D01*
X132815Y168819D01*
X132815Y169527D01*
X132815Y169813D01*
X132659Y170236D01*
X132398Y170945D01*
X132137Y171653D01*
X132071Y171832D01*
X131929Y171974D01*
X131929Y172362D01*
X131929Y173071D01*
X131929Y173779D01*
X131929Y174488D01*
X131929Y175197D01*
X131929Y175905D01*
X131929Y176614D01*
X131929Y177323D01*
X131929Y178031D01*
X131929Y178740D01*
X131929Y179449D01*
X131929Y180157D01*
X131929Y180866D01*
X131929Y181575D01*
X131929Y182283D01*
X131929Y182992D01*
X131929Y183165D01*
X132465Y183701D01*
X133174Y184409D01*
X133448Y184684D01*
X133563Y184684D01*
X134740Y185118D01*
X135582Y185428D01*
X135981Y185827D01*
X136689Y186535D01*
X137071Y186917D01*
X137191Y187244D01*
X137452Y187953D01*
X137713Y188661D01*
X137815Y188936D01*
X137815Y189370D01*
X137815Y190079D01*
X137815Y190787D01*
X137815Y191063D01*
X137655Y191496D01*
X137394Y192205D01*
X137133Y192913D01*
X137071Y193082D01*
X136531Y193622D01*
X135823Y194331D01*
X135582Y194571D01*
X231496Y185444D02*
X231113Y185827D01*
X230404Y186535D01*
X229696Y187244D01*
X228987Y187953D01*
X228278Y188661D01*
X227944Y188996D01*
X222055Y188996D01*
X219988Y186929D02*
X220303Y187244D01*
X221012Y187953D01*
X221721Y188661D01*
X222055Y188996D01*
X219988Y186929D02*
X213165Y186929D01*
X209936Y183701D02*
X210645Y184409D01*
X211354Y185118D01*
X212062Y185827D01*
X212771Y186535D01*
X213165Y186929D01*
X184051Y157815D02*
X184425Y158189D01*
X185133Y158898D01*
X185842Y159606D01*
X186551Y160315D01*
X187259Y161024D01*
X187968Y161732D01*
X188677Y162441D01*
X189385Y163150D01*
X190094Y163858D01*
X190803Y164567D01*
X191511Y165275D01*
X192220Y165984D01*
X192929Y166693D01*
X193637Y167401D01*
X194346Y168110D01*
X195054Y168819D01*
X195763Y169527D01*
X196472Y170236D01*
X197180Y170945D01*
X197889Y171653D01*
X198598Y172362D01*
X199306Y173071D01*
X200015Y173779D01*
X200724Y174488D01*
X201432Y175197D01*
X202141Y175905D01*
X202850Y176614D01*
X203558Y177323D01*
X204267Y178031D01*
X204976Y178740D01*
X205684Y179449D01*
X206393Y180157D01*
X207102Y180866D01*
X207810Y181575D01*
X208519Y182283D01*
X209228Y182992D01*
X209936Y183701D01*
X184051Y157815D02*
X183936Y157815D01*
X181917Y157071D02*
X183028Y157480D01*
X183936Y157815D01*
X180428Y155582D02*
X180909Y156063D01*
X181617Y156772D01*
X181917Y157071D01*
X179684Y153563D02*
X179822Y153937D01*
X180083Y154646D01*
X180344Y155354D01*
X180428Y155582D01*
X179684Y151436D02*
X179684Y151811D01*
X179684Y152520D01*
X179684Y153228D01*
X179684Y153563D01*
X180428Y149417D02*
X180329Y149685D01*
X180068Y150394D01*
X179807Y151102D01*
X179684Y151436D01*
X181917Y147928D02*
X181577Y148268D01*
X180869Y148976D01*
X180428Y149417D01*
X183936Y147184D02*
X182919Y147559D01*
X181917Y147928D01*
X183936Y147184D02*
X186063Y147184D01*
X187080Y147559D01*
X188082Y147928D01*
X188422Y148268D01*
X189130Y148976D01*
X189571Y149417D01*
X189670Y149685D01*
X189931Y150394D01*
X190192Y151102D01*
X190315Y151436D01*
X190315Y151551D01*
X190575Y151811D01*
X191284Y152520D01*
X191993Y153228D01*
X192701Y153937D01*
X193410Y154646D01*
X194119Y155354D01*
X194827Y156063D01*
X195536Y156772D01*
X196245Y157480D01*
X196953Y158189D01*
X197662Y158898D01*
X198370Y159606D01*
X199079Y160315D01*
X199788Y161024D01*
X200496Y161732D01*
X201205Y162441D01*
X201914Y163150D01*
X202622Y163858D01*
X203331Y164567D01*
X204040Y165275D01*
X204748Y165984D01*
X205457Y166693D01*
X206166Y167401D01*
X206874Y168110D01*
X207583Y168819D01*
X208292Y169527D01*
X209000Y170236D01*
X209709Y170945D01*
X210418Y171653D01*
X211126Y172362D01*
X211835Y173071D01*
X212544Y173779D01*
X213252Y174488D01*
X213961Y175197D01*
X214670Y175905D01*
X215378Y176614D01*
X216087Y177323D01*
X216796Y178031D01*
X216834Y178070D01*
X219988Y178070D01*
X220559Y177500D02*
X220027Y178031D01*
X219988Y178070D01*
X218503Y175444D02*
X218965Y175905D01*
X219673Y176614D01*
X220382Y177323D01*
X220559Y177500D01*
X218503Y169555D02*
X218503Y170236D01*
X218503Y170945D01*
X218503Y171653D01*
X218503Y172362D01*
X218503Y173071D01*
X218503Y173779D01*
X218503Y174488D01*
X218503Y175197D01*
X218503Y175444D01*
X222055Y166003D02*
X221366Y166693D01*
X220657Y167401D01*
X219948Y168110D01*
X219240Y168819D01*
X218531Y169527D01*
X218503Y169555D01*
X225000Y166003D02*
X227944Y166003D01*
X228633Y166693D01*
X229342Y167401D01*
X230051Y168110D01*
X230759Y168819D01*
X231468Y169527D01*
X231496Y169555D01*
X231496Y170236D01*
X231496Y170945D01*
X231496Y171653D01*
X231496Y172362D01*
X231496Y173071D01*
X231496Y173779D01*
X231496Y174488D01*
X231496Y175197D01*
X231496Y175444D01*
X231034Y175905D01*
X230326Y176614D01*
X229617Y177323D01*
X229440Y177500D01*
X229972Y178031D01*
X230681Y178740D01*
X231389Y179449D01*
X231496Y179555D01*
X231496Y180157D01*
X231496Y180866D01*
X231496Y181575D01*
X231496Y182283D01*
X231496Y182992D01*
X231496Y183701D01*
X231496Y184409D01*
X231496Y185118D01*
X231496Y185444D01*
X397128Y176628D02*
X395669Y176772D01*
X394209Y176628D02*
X395669Y176772D01*
X392806Y176202D02*
X394164Y176614D01*
X394209Y176628D01*
X391513Y175511D02*
X392251Y175905D01*
X392806Y176202D01*
X390379Y174581D02*
X391130Y175197D01*
X391513Y175511D01*
X389449Y173447D02*
X389722Y173779D01*
X390303Y174488D01*
X390379Y174581D01*
X388758Y172154D02*
X388869Y172362D01*
X389248Y173071D01*
X389449Y173447D01*
X388332Y170750D02*
X388391Y170945D01*
X388606Y171653D01*
X388758Y172154D01*
X388188Y169291D02*
X388211Y169527D01*
X388281Y170236D01*
X388332Y170750D01*
X388332Y167831D02*
X388304Y168110D01*
X388235Y168819D01*
X388188Y169291D01*
X388758Y166428D02*
X388677Y166693D01*
X388462Y167401D01*
X388332Y167831D01*
X389449Y165135D02*
X389374Y165275D01*
X388995Y165984D01*
X388758Y166428D01*
X390379Y164001D02*
X389915Y164567D01*
X389449Y165135D01*
X391513Y163071D02*
X391417Y163150D01*
X390553Y163858D01*
X390379Y164001D01*
X392806Y162380D02*
X392691Y162441D01*
X391513Y163071D01*
X394209Y161954D02*
X392806Y162380D01*
X395669Y161810D02*
X394209Y161954D01*
X395669Y161810D02*
X397128Y161954D01*
X398532Y162380D01*
X398646Y162441D01*
X399825Y163071D01*
X399921Y163150D01*
X400784Y163858D01*
X400958Y164001D01*
X401423Y164567D01*
X401889Y165135D01*
X401964Y165275D01*
X402343Y165984D01*
X402580Y166428D01*
X402660Y166693D01*
X402875Y167401D01*
X403006Y167831D01*
X403033Y168110D01*
X403103Y168819D01*
X403150Y169291D01*
X403126Y169527D01*
X403056Y170236D01*
X403006Y170750D01*
X402947Y170945D01*
X402732Y171653D01*
X402580Y172154D01*
X402469Y172362D01*
X402090Y173071D01*
X401889Y173447D01*
X401616Y173779D01*
X401034Y174488D01*
X400958Y174581D01*
X400208Y175197D01*
X399825Y175511D01*
X399087Y175905D01*
X398532Y176202D01*
X397174Y176614D01*
X397128Y176628D01*
X15238Y176628D02*
X13779Y176772D01*
X12320Y176628D02*
X13779Y176772D01*
X10916Y176202D02*
X12274Y176614D01*
X12320Y176628D01*
X9623Y175511D02*
X10361Y175905D01*
X10916Y176202D01*
X8489Y174581D02*
X9240Y175197D01*
X9623Y175511D01*
X7559Y173447D02*
X7832Y173779D01*
X8414Y174488D01*
X8489Y174581D01*
X6868Y172154D02*
X6979Y172362D01*
X7358Y173071D01*
X7559Y173447D01*
X6442Y170750D02*
X6501Y170945D01*
X6716Y171653D01*
X6868Y172154D01*
X6298Y169291D02*
X6322Y169527D01*
X6391Y170236D01*
X6442Y170750D01*
X6442Y167831D02*
X6415Y168110D01*
X6345Y168819D01*
X6298Y169291D01*
X6868Y166428D02*
X6787Y166693D01*
X6572Y167401D01*
X6442Y167831D01*
X7559Y165135D02*
X7484Y165275D01*
X7105Y165984D01*
X6868Y166428D01*
X8489Y164001D02*
X8025Y164567D01*
X7559Y165135D01*
X9623Y163071D02*
X9527Y163150D01*
X8664Y163858D01*
X8489Y164001D01*
X10916Y162380D02*
X10802Y162441D01*
X9623Y163071D01*
X12320Y161954D02*
X10916Y162380D01*
X13779Y161810D02*
X12320Y161954D01*
X13779Y161810D02*
X15238Y161954D01*
X16642Y162380D01*
X16756Y162441D01*
X17935Y163071D01*
X18031Y163150D01*
X18894Y163858D01*
X19069Y164001D01*
X19533Y164567D01*
X19999Y165135D01*
X20074Y165275D01*
X20453Y165984D01*
X20690Y166428D01*
X20771Y166693D01*
X20986Y167401D01*
X21116Y167831D01*
X21143Y168110D01*
X21213Y168819D01*
X21260Y169291D01*
X21236Y169527D01*
X21167Y170236D01*
X21116Y170750D01*
X21057Y170945D01*
X20842Y171653D01*
X20690Y172154D01*
X20579Y172362D01*
X20200Y173071D01*
X19999Y173447D01*
X19726Y173779D01*
X19145Y174488D01*
X19069Y174581D01*
X18318Y175197D01*
X17935Y175511D01*
X17197Y175905D01*
X16642Y176202D01*
X15284Y176614D01*
X15238Y176628D01*
X93082Y132071D02*
X91437Y132677D01*
X91063Y132815D01*
X88936Y132815D01*
X86917Y132071D02*
X88562Y132677D01*
X88936Y132815D01*
X85428Y130582D02*
X86106Y131260D01*
X86814Y131968D01*
X86917Y132071D01*
X84684Y128563D02*
X84895Y129134D01*
X85156Y129842D01*
X85417Y130551D01*
X85428Y130582D01*
X84684Y126436D02*
X84684Y127008D01*
X84684Y127716D01*
X84684Y128425D01*
X84684Y128563D01*
X85428Y124417D02*
X85257Y124882D01*
X84996Y125590D01*
X84735Y126299D01*
X84684Y126436D01*
X85570Y124275D02*
X85428Y124417D01*
X85570Y59474D02*
X85570Y59685D01*
X85570Y60394D01*
X85570Y61102D01*
X85570Y61811D01*
X85570Y62520D01*
X85570Y63228D01*
X85570Y63937D01*
X85570Y64646D01*
X85570Y65354D01*
X85570Y66063D01*
X85570Y66772D01*
X85570Y67480D01*
X85570Y68189D01*
X85570Y68898D01*
X85570Y69606D01*
X85570Y70315D01*
X85570Y71024D01*
X85570Y71732D01*
X85570Y72441D01*
X85570Y73150D01*
X85570Y73858D01*
X85570Y74567D01*
X85570Y75275D01*
X85570Y75984D01*
X85570Y76693D01*
X85570Y77401D01*
X85570Y78110D01*
X85570Y78819D01*
X85570Y79527D01*
X85570Y80236D01*
X85570Y80945D01*
X85570Y81653D01*
X85570Y82362D01*
X85570Y83071D01*
X85570Y83779D01*
X85570Y84488D01*
X85570Y85197D01*
X85570Y85905D01*
X85570Y86614D01*
X85570Y87323D01*
X85570Y88031D01*
X85570Y88740D01*
X85570Y89449D01*
X85570Y90157D01*
X85570Y90866D01*
X85570Y91575D01*
X85570Y92283D01*
X85570Y92992D01*
X85570Y93701D01*
X85570Y94409D01*
X85570Y95118D01*
X85570Y95827D01*
X85570Y96535D01*
X85570Y97244D01*
X85570Y97953D01*
X85570Y98661D01*
X85570Y99370D01*
X85570Y100079D01*
X85570Y100787D01*
X85570Y101496D01*
X85570Y102205D01*
X85570Y102913D01*
X85570Y103622D01*
X85570Y104331D01*
X85570Y105039D01*
X85570Y105748D01*
X85570Y106457D01*
X85570Y107165D01*
X85570Y107874D01*
X85570Y108583D01*
X85570Y109291D01*
X85570Y110000D01*
X85570Y110709D01*
X85570Y111417D01*
X85570Y112126D01*
X85570Y112835D01*
X85570Y113543D01*
X85570Y114252D01*
X85570Y114961D01*
X85570Y115669D01*
X85570Y116378D01*
X85570Y117087D01*
X85570Y117795D01*
X85570Y118504D01*
X85570Y119212D01*
X85570Y119921D01*
X85570Y120630D01*
X85570Y121338D01*
X85570Y122047D01*
X85570Y122756D01*
X85570Y123464D01*
X85570Y124173D01*
X85570Y124275D01*
X85428Y59332D02*
X85570Y59474D01*
X84684Y57313D02*
X84775Y57559D01*
X85036Y58268D01*
X85297Y58976D01*
X85428Y59332D01*
X84684Y55186D02*
X84684Y55433D01*
X84684Y56142D01*
X84684Y56850D01*
X84684Y57313D01*
X85428Y53167D02*
X85377Y53307D01*
X85115Y54016D01*
X84854Y54724D01*
X84684Y55186D01*
X86917Y51678D02*
X86705Y51890D01*
X85997Y52598D01*
X85428Y53167D01*
X88936Y50934D02*
X88266Y51181D01*
X86917Y51678D01*
X88936Y50934D02*
X91063Y50934D01*
X91733Y51181D01*
X93082Y51678D01*
X93224Y51820D01*
X106915Y51820D01*
X120570Y38165D02*
X120310Y38425D01*
X119601Y39134D01*
X118892Y39842D01*
X118184Y40551D01*
X117475Y41260D01*
X116766Y41968D01*
X116058Y42677D01*
X115349Y43386D01*
X114640Y44094D01*
X113932Y44803D01*
X113223Y45512D01*
X112514Y46220D01*
X111806Y46929D01*
X111097Y47638D01*
X110388Y48346D01*
X109680Y49055D01*
X108971Y49764D01*
X108262Y50472D01*
X107554Y51181D01*
X106915Y51820D01*
X120570Y36093D02*
X120570Y36299D01*
X120570Y37008D01*
X120570Y37716D01*
X120570Y38165D01*
X120000Y35523D02*
X120067Y35590D01*
X120570Y36093D01*
X120000Y35523D02*
X119932Y35590D01*
X119223Y36299D01*
X110776Y36299D01*
X108700Y34223D02*
X109358Y34882D01*
X110067Y35590D01*
X110776Y36299D01*
X108700Y25776D02*
X108700Y26378D01*
X108700Y27087D01*
X108700Y27795D01*
X108700Y28504D01*
X108700Y29212D01*
X108700Y29921D01*
X108700Y30630D01*
X108700Y31338D01*
X108700Y32047D01*
X108700Y32756D01*
X108700Y33464D01*
X108700Y34173D01*
X108700Y34223D01*
X109476Y25000D02*
X108806Y25669D01*
X108700Y25776D01*
X108700Y24223D02*
X108729Y24252D01*
X109437Y24961D01*
X109476Y25000D01*
X108700Y15776D02*
X108700Y16457D01*
X108700Y17165D01*
X108700Y17874D01*
X108700Y18583D01*
X108700Y19291D01*
X108700Y20000D01*
X108700Y20709D01*
X108700Y21417D01*
X108700Y22126D01*
X108700Y22835D01*
X108700Y23543D01*
X108700Y24223D01*
X109476Y15000D02*
X109436Y15039D01*
X108728Y15748D01*
X108700Y15776D01*
X108700Y14223D02*
X108807Y14331D01*
X109476Y15000D01*
X108700Y5776D02*
X108700Y5827D01*
X108700Y6535D01*
X108700Y7244D01*
X108700Y7953D01*
X108700Y8661D01*
X108700Y9370D01*
X108700Y10079D01*
X108700Y10787D01*
X108700Y11496D01*
X108700Y12205D01*
X108700Y12913D01*
X108700Y13622D01*
X108700Y14223D01*
X110776Y3700D02*
X110775Y3701D01*
X110066Y4409D01*
X109358Y5118D01*
X108700Y5776D01*
X110776Y3700D02*
X119223Y3700D01*
X119224Y3701D01*
X119933Y4409D01*
X120000Y4476D01*
X120776Y3700D02*
X120775Y3701D01*
X120066Y4409D01*
X120000Y4476D01*
X125000Y3700D02*
X129223Y3700D01*
X129224Y3701D01*
X129933Y4409D01*
X130641Y5118D01*
X131299Y5776D01*
X131299Y5827D01*
X131299Y6535D01*
X131299Y7244D01*
X131299Y7953D01*
X131299Y8661D01*
X131299Y9370D01*
X131299Y10079D01*
X131299Y10668D01*
X140544Y10668D01*
X140662Y10787D01*
X141371Y11496D01*
X142080Y12205D01*
X142788Y12913D01*
X143497Y13622D01*
X144206Y14331D01*
X144914Y15039D01*
X145623Y15748D01*
X146332Y16457D01*
X147040Y17165D01*
X147749Y17874D01*
X148458Y18583D01*
X149166Y19291D01*
X149875Y20000D01*
X150584Y20709D01*
X151292Y21417D01*
X152001Y22126D01*
X152710Y22835D01*
X153418Y23543D01*
X154127Y24252D01*
X154836Y24961D01*
X155544Y25669D01*
X156253Y26378D01*
X156962Y27087D01*
X157670Y27795D01*
X158379Y28504D01*
X159088Y29212D01*
X159796Y29921D01*
X160505Y30630D01*
X161214Y31338D01*
X161922Y32047D01*
X162631Y32756D01*
X163340Y33464D01*
X164048Y34173D01*
X164559Y34684D01*
X164813Y34684D01*
X165349Y34882D01*
X166832Y35428D01*
X166995Y35590D01*
X167703Y36299D01*
X168321Y36917D01*
X168354Y37008D01*
X168615Y37716D01*
X168876Y38425D01*
X169065Y38936D01*
X169065Y39134D01*
X169065Y39190D01*
X169718Y39842D01*
X170426Y40551D01*
X171135Y41260D01*
X171794Y41918D01*
X192499Y41918D01*
X192184Y41063D02*
X192257Y41260D01*
X192499Y41918D01*
X192184Y38936D02*
X192184Y39134D01*
X192184Y39842D01*
X192184Y40551D01*
X192184Y41063D01*
X192928Y36917D02*
X192895Y37008D01*
X192634Y37716D01*
X192373Y38425D01*
X192184Y38936D01*
X194417Y35428D02*
X194254Y35590D01*
X193546Y36299D01*
X192928Y36917D01*
X196436Y34684D02*
X195900Y34882D01*
X194417Y35428D01*
X196436Y34684D02*
X198563Y34684D01*
X199099Y34882D01*
X200582Y35428D01*
X200745Y35590D01*
X200823Y35668D01*
X224176Y35668D01*
X224417Y35428D02*
X224254Y35590D01*
X224176Y35668D01*
X226436Y34684D02*
X225900Y34882D01*
X224417Y35428D01*
X226436Y34684D02*
X228563Y34684D01*
X229099Y34882D01*
X230582Y35428D01*
X230745Y35590D01*
X231453Y36299D01*
X232071Y36917D01*
X232104Y37008D01*
X232365Y37716D01*
X232626Y38425D01*
X232815Y38936D01*
X232815Y39134D01*
X232815Y39842D01*
X232815Y40551D01*
X232815Y41063D01*
X232742Y41260D01*
X232481Y41968D01*
X232220Y42677D01*
X232071Y43082D01*
X231767Y43386D01*
X231059Y44094D01*
X230582Y44571D01*
X229952Y44803D01*
X228563Y45315D01*
X226436Y45315D01*
X224417Y44571D02*
X225047Y44803D01*
X226436Y45315D01*
X224176Y44331D02*
X224417Y44571D01*
X224176Y44331D02*
X200823Y44331D01*
X200582Y44571D01*
X199952Y44803D01*
X198563Y45315D01*
X197690Y45315D01*
X197887Y45512D01*
X198595Y46220D01*
X199304Y46929D01*
X200013Y47638D01*
X200721Y48346D01*
X201430Y49055D01*
X202059Y49684D01*
X202313Y49684D01*
X202528Y49764D01*
X204332Y50428D01*
X204376Y50472D01*
X205085Y51181D01*
X205794Y51890D01*
X205821Y51917D01*
X206072Y52598D01*
X206333Y53307D01*
X206565Y53936D01*
X206565Y54016D01*
X206565Y54724D01*
X206565Y55433D01*
X206565Y56063D01*
X206536Y56142D01*
X206275Y56850D01*
X206014Y57559D01*
X205821Y58082D01*
X205636Y58268D01*
X204927Y58976D01*
X204332Y59571D01*
X204022Y59685D01*
X202313Y60315D01*
X200186Y60315D01*
X198167Y59571D02*
X198477Y59685D01*
X200186Y60315D01*
X196678Y58082D02*
X196864Y58268D01*
X197572Y58976D01*
X198167Y59571D01*
X195934Y56063D02*
X195963Y56142D01*
X196224Y56850D01*
X196485Y57559D01*
X196678Y58082D01*
X195934Y55809D02*
X195934Y56063D01*
X194685Y54560D02*
X194849Y54724D01*
X195558Y55433D01*
X195934Y55809D01*
X194685Y54560D02*
X194685Y54724D01*
X194685Y55433D01*
X194685Y56142D01*
X194685Y56850D01*
X194685Y57559D01*
X194685Y58268D01*
X194685Y58633D01*
X194341Y58976D01*
X193633Y59685D01*
X192924Y60394D01*
X192609Y60709D01*
X185343Y60709D01*
X185039Y60405D02*
X185343Y60709D01*
X185039Y60405D02*
X184735Y60709D01*
X177469Y60709D01*
X177165Y60405D02*
X177469Y60709D01*
X177165Y60405D02*
X176861Y60709D01*
X169595Y60709D01*
X169291Y60405D02*
X169595Y60709D01*
X169291Y60405D02*
X168987Y60709D01*
X161721Y60709D01*
X161417Y60405D02*
X161721Y60709D01*
X161417Y60405D02*
X161113Y60709D01*
X153847Y60709D01*
X153543Y60405D02*
X153847Y60709D01*
X153543Y60405D02*
X153239Y60709D01*
X145973Y60709D01*
X143897Y58633D02*
X144240Y58976D01*
X144949Y59685D01*
X145658Y60394D01*
X145973Y60709D01*
X143897Y51366D02*
X143897Y51890D01*
X143897Y52598D01*
X143897Y53307D01*
X143897Y54016D01*
X143897Y54724D01*
X143897Y55433D01*
X143897Y56142D01*
X143897Y56850D01*
X143897Y57559D01*
X143897Y58268D01*
X143897Y58633D01*
X145973Y49290D02*
X145499Y49764D01*
X144791Y50472D01*
X144082Y51181D01*
X143897Y51366D01*
X145973Y49290D02*
X153239Y49290D01*
X153543Y49594D01*
X153847Y49290D02*
X153543Y49594D01*
X153847Y49290D02*
X161113Y49290D01*
X161417Y49594D01*
X161721Y49290D02*
X161417Y49594D01*
X161721Y49290D02*
X166915Y49290D01*
X165263Y47638D02*
X165971Y48346D01*
X166680Y49055D01*
X166915Y49290D01*
X162940Y45315D02*
X163137Y45512D01*
X163845Y46220D01*
X164554Y46929D01*
X165263Y47638D01*
X162940Y45315D02*
X162686Y45315D01*
X160667Y44571D02*
X161297Y44803D01*
X162686Y45315D01*
X159178Y43082D02*
X159482Y43386D01*
X160190Y44094D01*
X160667Y44571D01*
X158434Y41063D02*
X158507Y41260D01*
X158768Y41968D01*
X159029Y42677D01*
X159178Y43082D01*
X158434Y40809D02*
X158434Y41063D01*
X136956Y19331D02*
X137625Y20000D01*
X138333Y20709D01*
X139042Y21417D01*
X139751Y22126D01*
X140459Y22835D01*
X141168Y23543D01*
X141877Y24252D01*
X142585Y24961D01*
X143294Y25669D01*
X144003Y26378D01*
X144711Y27087D01*
X145420Y27795D01*
X146129Y28504D01*
X146837Y29212D01*
X147546Y29921D01*
X148255Y30630D01*
X148963Y31338D01*
X149672Y32047D01*
X150381Y32756D01*
X151089Y33464D01*
X151798Y34173D01*
X152507Y34882D01*
X153215Y35590D01*
X153924Y36299D01*
X154633Y37008D01*
X155341Y37716D01*
X156050Y38425D01*
X156759Y39134D01*
X157467Y39842D01*
X158176Y40551D01*
X158434Y40809D01*
X136956Y19331D02*
X131299Y19331D01*
X131299Y20000D01*
X131299Y20709D01*
X131299Y21417D01*
X131299Y22126D01*
X131299Y22835D01*
X131299Y23543D01*
X131299Y24223D01*
X131271Y24252D01*
X130562Y24961D01*
X130523Y25000D01*
X131193Y25669D01*
X131299Y25776D01*
X131299Y26378D01*
X131299Y27087D01*
X131299Y27795D01*
X131299Y28504D01*
X131299Y29212D01*
X131299Y29921D01*
X131299Y30630D01*
X131299Y31338D01*
X131299Y32047D01*
X131299Y32756D01*
X131299Y33464D01*
X131299Y34173D01*
X131299Y34223D01*
X130641Y34882D01*
X129932Y35590D01*
X129429Y36093D01*
X129429Y36299D01*
X129429Y37008D01*
X129429Y37716D01*
X129429Y38425D01*
X129429Y39134D01*
X129429Y39842D01*
X129429Y40551D01*
X129429Y41260D01*
X129429Y41834D01*
X129295Y41968D01*
X128586Y42677D01*
X127878Y43386D01*
X127169Y44094D01*
X126460Y44803D01*
X125752Y45512D01*
X125043Y46220D01*
X124334Y46929D01*
X123626Y47638D01*
X122917Y48346D01*
X122208Y49055D01*
X121500Y49764D01*
X120791Y50472D01*
X120082Y51181D01*
X119374Y51890D01*
X118665Y52598D01*
X117956Y53307D01*
X117248Y54016D01*
X116539Y54724D01*
X115830Y55433D01*
X115122Y56142D01*
X114413Y56850D01*
X113704Y57559D01*
X112996Y58268D01*
X112287Y58976D01*
X111578Y59685D01*
X110870Y60394D01*
X110709Y60555D01*
X111250Y61095D01*
X111917Y60428D02*
X111250Y61095D01*
X113936Y59684D02*
X113934Y59685D01*
X112011Y60394D01*
X111917Y60428D01*
X113936Y59684D02*
X114684Y59684D01*
X114684Y58936D02*
X114684Y58976D01*
X114684Y59684D01*
X115428Y56917D02*
X115192Y57559D01*
X114931Y58268D01*
X114684Y58936D01*
X116917Y55428D02*
X116912Y55433D01*
X116203Y56142D01*
X115495Y56850D01*
X115428Y56917D01*
X118936Y54684D02*
X118827Y54724D01*
X116917Y55428D01*
X118936Y54684D02*
X121063Y54684D01*
X121172Y54724D01*
X123082Y55428D01*
X123087Y55433D01*
X123796Y56142D01*
X124504Y56850D01*
X124571Y56917D01*
X124807Y57559D01*
X125068Y58268D01*
X125315Y58936D01*
X125315Y58976D01*
X125315Y59190D01*
X125810Y59685D01*
X126519Y60394D01*
X127227Y61102D01*
X127936Y61811D01*
X128645Y62520D01*
X129294Y63168D01*
X215706Y63168D01*
X236906Y41968D02*
X236197Y42677D01*
X235488Y43386D01*
X234780Y44094D01*
X234071Y44803D01*
X233362Y45512D01*
X232654Y46220D01*
X231945Y46929D01*
X231236Y47638D01*
X230528Y48346D01*
X229819Y49055D01*
X229110Y49764D01*
X228402Y50472D01*
X227693Y51181D01*
X226984Y51890D01*
X226276Y52598D01*
X225567Y53307D01*
X224858Y54016D01*
X224150Y54724D01*
X223441Y55433D01*
X222732Y56142D01*
X222024Y56850D01*
X221315Y57559D01*
X220606Y58268D01*
X219898Y58976D01*
X219189Y59685D01*
X218480Y60394D01*
X217772Y61102D01*
X217063Y61811D01*
X216354Y62520D01*
X215706Y63168D01*
X239740Y39134D02*
X239031Y39842D01*
X238323Y40551D01*
X237614Y41260D01*
X236906Y41968D01*
X241956Y36918D02*
X241866Y37008D01*
X241157Y37716D01*
X240449Y38425D01*
X239740Y39134D01*
X241956Y36918D02*
X289294Y36918D01*
X289383Y37008D01*
X290092Y37716D01*
X290800Y38425D01*
X290996Y38621D01*
X291063Y38621D01*
X292454Y39134D01*
X293082Y39365D01*
X293560Y39842D01*
X294268Y40551D01*
X294571Y40854D01*
X294720Y41260D01*
X294981Y41968D01*
X295243Y42677D01*
X295315Y42873D01*
X295315Y43386D01*
X295315Y44094D01*
X295315Y44803D01*
X295315Y45000D01*
X295126Y45512D01*
X294865Y46220D01*
X294604Y46929D01*
X294571Y47019D01*
X293952Y47638D01*
X293717Y47874D01*
X294189Y48346D01*
X294571Y48728D01*
X294691Y49055D01*
X294952Y49764D01*
X295213Y50472D01*
X295315Y50747D01*
X295315Y51181D01*
X295315Y51890D01*
X295315Y52598D01*
X295315Y52874D01*
X295155Y53307D01*
X294894Y54016D01*
X294633Y54724D01*
X294571Y54893D01*
X294031Y55433D01*
X293323Y56142D01*
X293082Y56382D01*
X291811Y56850D01*
X291063Y57126D01*
X288936Y57126D01*
X286917Y56382D02*
X288188Y56850D01*
X288936Y57126D01*
X286676Y56142D02*
X286917Y56382D01*
X286676Y56142D02*
X281565Y56142D01*
X281565Y56850D01*
X281565Y57313D01*
X281474Y57559D01*
X281213Y58268D01*
X280952Y58976D01*
X280821Y59332D01*
X280468Y59685D01*
X279760Y60394D01*
X279485Y60668D01*
X301956Y60668D01*
X303168Y59456D02*
X302939Y59685D01*
X302230Y60394D01*
X301956Y60668D01*
X303168Y26794D02*
X303168Y27087D01*
X303168Y27795D01*
X303168Y28504D01*
X303168Y29212D01*
X303168Y29921D01*
X303168Y30630D01*
X303168Y31338D01*
X303168Y32047D01*
X303168Y32756D01*
X303168Y33464D01*
X303168Y34173D01*
X303168Y34882D01*
X303168Y35590D01*
X303168Y36299D01*
X303168Y37008D01*
X303168Y37716D01*
X303168Y38425D01*
X303168Y39134D01*
X303168Y39842D01*
X303168Y40551D01*
X303168Y41260D01*
X303168Y41968D01*
X303168Y42677D01*
X303168Y43386D01*
X303168Y44094D01*
X303168Y44803D01*
X303168Y45512D01*
X303168Y46220D01*
X303168Y46929D01*
X303168Y47638D01*
X303168Y48346D01*
X303168Y49055D01*
X303168Y49764D01*
X303168Y50472D01*
X303168Y51181D01*
X303168Y51890D01*
X303168Y52598D01*
X303168Y53307D01*
X303168Y54016D01*
X303168Y54724D01*
X303168Y55433D01*
X303168Y56142D01*
X303168Y56850D01*
X303168Y57559D01*
X303168Y58268D01*
X303168Y58976D01*
X303168Y59456D01*
X301020Y24646D02*
X301335Y24961D01*
X302044Y25669D01*
X302753Y26378D01*
X303168Y26794D01*
X301020Y24646D02*
X293323Y24646D01*
X293082Y24886D01*
X292879Y24961D01*
X291063Y25630D01*
X288936Y25630D01*
X286917Y24886D02*
X287120Y24961D01*
X288936Y25630D01*
X285428Y23397D02*
X285574Y23543D01*
X286283Y24252D01*
X286917Y24886D01*
X284684Y21378D02*
X284699Y21417D01*
X284960Y22126D01*
X285221Y22835D01*
X285428Y23397D01*
X284684Y19251D02*
X284684Y19291D01*
X284684Y20000D01*
X284684Y20709D01*
X284684Y21378D01*
X285428Y17232D02*
X285192Y17874D01*
X284931Y18583D01*
X284684Y19251D01*
X286917Y15743D02*
X286912Y15748D01*
X286203Y16457D01*
X285495Y17165D01*
X285428Y17232D01*
X288936Y14999D02*
X288827Y15039D01*
X286917Y15743D01*
X288936Y14999D02*
X291063Y14999D01*
X291172Y15039D01*
X293082Y15743D01*
X293087Y15748D01*
X293323Y15983D01*
X304608Y15983D01*
X305082Y16457D01*
X305790Y17165D01*
X306499Y17874D01*
X307208Y18583D01*
X307916Y19291D01*
X308625Y20000D01*
X309334Y20709D01*
X310042Y21417D01*
X310751Y22126D01*
X311460Y22835D01*
X311831Y23206D01*
X311831Y23543D01*
X311831Y24252D01*
X311831Y24961D01*
X311831Y25669D01*
X311831Y26378D01*
X311831Y27087D01*
X311831Y27795D01*
X311831Y28504D01*
X311831Y29212D01*
X311831Y29921D01*
X311831Y30630D01*
X311831Y31338D01*
X311831Y32047D01*
X311831Y32756D01*
X311831Y33464D01*
X311831Y34173D01*
X311831Y34882D01*
X311831Y35590D01*
X311831Y36299D01*
X311831Y37008D01*
X311831Y37716D01*
X311831Y38425D01*
X311831Y39134D01*
X311831Y39842D01*
X311831Y40551D01*
X311831Y41260D01*
X311831Y41968D01*
X311831Y42677D01*
X311831Y43386D01*
X311831Y44094D01*
X311831Y44803D01*
X311831Y45512D01*
X311831Y46220D01*
X311831Y46929D01*
X311831Y47638D01*
X311831Y48346D01*
X311831Y49055D01*
X311831Y49764D01*
X311831Y50472D01*
X311831Y51181D01*
X311831Y51890D01*
X311831Y52598D01*
X311831Y53307D01*
X311831Y54016D01*
X311831Y54724D01*
X311831Y55433D01*
X311831Y56142D01*
X311831Y56850D01*
X311831Y57559D01*
X311831Y58268D01*
X311831Y58976D01*
X311831Y59685D01*
X311831Y60394D01*
X311831Y61102D01*
X311831Y61811D01*
X311831Y62520D01*
X311831Y63044D01*
X311646Y63228D01*
X310937Y63937D01*
X310229Y64646D01*
X309520Y65354D01*
X308811Y66063D01*
X308103Y66772D01*
X307394Y67480D01*
X306685Y68189D01*
X305977Y68898D01*
X305544Y69331D01*
X279485Y69331D01*
X279760Y69606D01*
X280469Y70315D01*
X280821Y70667D01*
X280952Y71024D01*
X281213Y71732D01*
X281474Y72441D01*
X281565Y72686D01*
X281565Y73150D01*
X281565Y73858D01*
X281565Y74567D01*
X281565Y74813D01*
X281394Y75275D01*
X281133Y75984D01*
X280872Y76693D01*
X280821Y76832D01*
X280252Y77401D01*
X279543Y78110D01*
X279332Y78321D01*
X277980Y78819D01*
X277313Y79065D01*
X277198Y79065D01*
X276736Y79527D01*
X276027Y80236D01*
X275319Y80945D01*
X274610Y81653D01*
X273901Y82362D01*
X273193Y83071D01*
X272484Y83779D01*
X271775Y84488D01*
X271067Y85197D01*
X270358Y85905D01*
X269649Y86614D01*
X268941Y87323D01*
X268232Y88031D01*
X267523Y88740D01*
X266815Y89449D01*
X266106Y90157D01*
X265397Y90866D01*
X264689Y91575D01*
X264334Y91929D01*
X221834Y91929D01*
X221480Y92283D01*
X220771Y92992D01*
X220063Y93701D01*
X219354Y94409D01*
X218645Y95118D01*
X217937Y95827D01*
X217228Y96535D01*
X216929Y96834D01*
X216929Y97244D01*
X216929Y97953D01*
X216929Y98661D01*
X216929Y98906D01*
X217393Y99370D01*
X217500Y99476D01*
X218276Y98700D02*
X217606Y99370D01*
X217500Y99476D01*
X218276Y98700D02*
X226723Y98700D01*
X227393Y99370D01*
X227500Y99476D01*
X228276Y98700D02*
X227606Y99370D01*
X227500Y99476D01*
X228276Y98700D02*
X236723Y98700D01*
X237393Y99370D01*
X237500Y99476D01*
X238276Y98700D02*
X237606Y99370D01*
X237500Y99476D01*
X238276Y98700D02*
X246723Y98700D01*
X247393Y99370D01*
X248102Y100079D01*
X248799Y100776D01*
X248799Y100787D01*
X248799Y101496D01*
X248799Y102205D01*
X248799Y102913D01*
X248799Y103622D01*
X248799Y104331D01*
X248799Y105039D01*
X248799Y105748D01*
X248799Y106457D01*
X248799Y107165D01*
X248799Y107874D01*
X248799Y108583D01*
X248799Y109223D01*
X248731Y109291D01*
X248022Y110000D01*
X247314Y110709D01*
X246723Y111299D01*
X238276Y111299D01*
X237500Y110523D02*
X237685Y110709D01*
X238276Y111299D01*
X237500Y110523D02*
X237314Y110709D01*
X236723Y111299D01*
X232500Y111299D02*
X228276Y111299D01*
X227500Y110523D02*
X227685Y110709D01*
X228276Y111299D01*
X227500Y110523D02*
X227314Y110709D01*
X226831Y111192D01*
X226831Y111417D01*
X226831Y112126D01*
X226831Y112835D01*
X226831Y113543D01*
X226831Y114252D01*
X226831Y114961D01*
X226831Y115669D01*
X226831Y116378D01*
X226831Y117087D01*
X226831Y117795D01*
X226831Y118044D01*
X226370Y118504D01*
X225662Y119212D01*
X224953Y119921D01*
X224244Y120630D01*
X223536Y121338D01*
X222827Y122047D01*
X222118Y122756D01*
X221410Y123464D01*
X220701Y124173D01*
X220644Y124230D01*
X220821Y124407D01*
X220996Y124882D01*
X221257Y125590D01*
X221518Y126299D01*
X221565Y126427D01*
X221565Y127008D01*
X221565Y127716D01*
X221565Y128425D01*
X221565Y128553D01*
X221351Y129134D01*
X221090Y129842D01*
X220829Y130551D01*
X220821Y130573D01*
X220134Y131260D01*
X219425Y131968D01*
X219332Y132061D01*
X217660Y132677D01*
X217313Y132805D01*
X215186Y132805D01*
X213167Y132061D02*
X214839Y132677D01*
X215186Y132805D01*
X211678Y130573D02*
X212365Y131260D01*
X213074Y131968D01*
X213167Y132061D01*
X210934Y128553D02*
X211148Y129134D01*
X211409Y129842D01*
X211670Y130551D01*
X211678Y130573D01*
X210934Y126831D02*
X210934Y127008D01*
X210934Y127716D01*
X210934Y128425D01*
X210934Y128553D01*
X210934Y126831D02*
X198323Y126831D01*
X198145Y127008D01*
X198082Y127071D01*
X196330Y127716D01*
X196063Y127815D01*
X193936Y127815D01*
X191917Y127071D02*
X193669Y127716D01*
X193936Y127815D01*
X190428Y125582D02*
X190436Y125590D01*
X191145Y126299D01*
X191854Y127008D01*
X191917Y127071D01*
X189684Y123563D02*
X189909Y124173D01*
X190170Y124882D01*
X190428Y125582D01*
X189684Y121436D02*
X189684Y122047D01*
X189684Y122756D01*
X189684Y123464D01*
X189684Y123563D01*
X190428Y119417D02*
X190242Y119921D01*
X189981Y120630D01*
X189720Y121338D01*
X189684Y121436D01*
X191917Y117928D02*
X191341Y118504D01*
X190632Y119212D01*
X190428Y119417D01*
X193936Y117184D02*
X192278Y117795D01*
X191917Y117928D01*
X193936Y117184D02*
X196063Y117184D01*
X197721Y117795D01*
X198082Y117928D01*
X198323Y118168D01*
X214456Y118168D01*
X215536Y117088D02*
X214829Y117795D01*
X214456Y118168D01*
X215536Y117088D02*
X213616Y117795D01*
X213563Y117815D01*
X211436Y117815D01*
X209417Y117071D02*
X209459Y117087D01*
X211383Y117795D01*
X211436Y117815D01*
X209275Y116929D02*
X209417Y117071D01*
X209275Y116929D02*
X163224Y116929D01*
X163082Y117071D01*
X163040Y117087D01*
X161116Y117795D01*
X161063Y117815D01*
X158936Y117815D01*
X156917Y117071D02*
X156959Y117087D01*
X158883Y117795D01*
X158936Y117815D01*
X156775Y116929D02*
X156917Y117071D01*
X156775Y116929D02*
X143165Y116929D01*
X140488Y114252D02*
X141196Y114961D01*
X141905Y115669D01*
X142614Y116378D01*
X143165Y116929D01*
X128346Y102110D02*
X128440Y102205D01*
X129149Y102913D01*
X129858Y103622D01*
X130566Y104331D01*
X131275Y105039D01*
X131984Y105748D01*
X132692Y106457D01*
X133401Y107165D01*
X134110Y107874D01*
X134818Y108583D01*
X135527Y109291D01*
X136236Y110000D01*
X136944Y110709D01*
X137653Y111417D01*
X138362Y112126D01*
X139070Y112835D01*
X139779Y113543D01*
X140488Y114252D01*
X128346Y97953D02*
X128346Y98661D01*
X128346Y99370D01*
X128346Y100079D01*
X128346Y100787D01*
X128346Y101496D01*
X128346Y102110D01*
X128346Y95724D02*
X128346Y95827D01*
X128346Y96535D01*
X128346Y97244D01*
X128346Y97953D01*
X128204Y95582D02*
X128346Y95724D01*
X127460Y93563D02*
X127511Y93701D01*
X127772Y94409D01*
X128033Y95118D01*
X128204Y95582D01*
X127460Y91436D02*
X127460Y91575D01*
X127460Y92283D01*
X127460Y92992D01*
X127460Y93563D01*
X128204Y89417D02*
X128192Y89449D01*
X127931Y90157D01*
X127670Y90866D01*
X127460Y91436D01*
X129692Y87928D02*
X129589Y88031D01*
X128880Y88740D01*
X128204Y89417D01*
X131712Y87184D02*
X131336Y87323D01*
X129692Y87928D01*
X131712Y87184D02*
X133838Y87184D01*
X134214Y87323D01*
X135858Y87928D01*
X135961Y88031D01*
X136670Y88740D01*
X137346Y89417D01*
X137358Y89449D01*
X137619Y90157D01*
X137880Y90866D01*
X138090Y91436D01*
X138090Y91575D01*
X138090Y92283D01*
X138090Y92992D01*
X138090Y93563D01*
X138040Y93701D01*
X137778Y94409D01*
X137517Y95118D01*
X137346Y95582D01*
X137205Y95724D01*
X137205Y95827D01*
X137205Y96535D01*
X137205Y97244D01*
X137205Y97953D01*
X137205Y98440D01*
X137426Y98661D01*
X138134Y99370D01*
X138843Y100079D01*
X139552Y100787D01*
X140260Y101496D01*
X140969Y102205D01*
X141678Y102913D01*
X142386Y103622D01*
X143095Y104331D01*
X143804Y105039D01*
X144512Y105748D01*
X145221Y106457D01*
X145930Y107165D01*
X146638Y107874D01*
X146834Y108070D01*
X154978Y108070D01*
X154290Y107383D02*
X154782Y107874D01*
X154978Y108070D01*
X154290Y100116D02*
X154290Y100787D01*
X154290Y101496D01*
X154290Y102205D01*
X154290Y102913D01*
X154290Y103622D01*
X154290Y104331D01*
X154290Y105039D01*
X154290Y105748D01*
X154290Y106457D01*
X154290Y107165D01*
X154290Y107383D01*
X156366Y98040D02*
X155745Y98661D01*
X155037Y99370D01*
X154328Y100079D01*
X154290Y100116D01*
X156366Y98040D02*
X157452Y98040D01*
X157184Y97313D02*
X157420Y97953D01*
X157452Y98040D01*
X157184Y95186D02*
X157184Y95827D01*
X157184Y96535D01*
X157184Y97244D01*
X157184Y97313D01*
X157928Y93167D02*
X157732Y93701D01*
X157470Y94409D01*
X157209Y95118D01*
X157184Y95186D01*
X158168Y92926D02*
X158103Y92992D01*
X157928Y93167D01*
X158168Y88740D02*
X158168Y89449D01*
X158168Y90157D01*
X158168Y90866D01*
X158168Y91575D01*
X158168Y92283D01*
X158168Y92926D01*
X158168Y85706D02*
X158168Y85905D01*
X158168Y86614D01*
X158168Y87323D01*
X158168Y88031D01*
X158168Y88740D01*
X160793Y83081D02*
X160094Y83779D01*
X159386Y84488D01*
X158677Y85197D01*
X158168Y85706D01*
X160793Y83081D02*
X108206Y83081D01*
X106690Y81565D02*
X106778Y81653D01*
X107487Y82362D01*
X108196Y83071D01*
X108206Y83081D01*
X106690Y81565D02*
X106436Y81565D01*
X104417Y80821D02*
X104753Y80945D01*
X106436Y81565D01*
X102928Y79332D02*
X103123Y79527D01*
X103832Y80236D01*
X104417Y80821D01*
X102184Y77313D02*
X102217Y77401D01*
X102478Y78110D01*
X102739Y78819D01*
X102928Y79332D01*
X102184Y75186D02*
X102184Y75275D01*
X102184Y75984D01*
X102184Y76693D01*
X102184Y77313D01*
X102928Y73167D02*
X102674Y73858D01*
X102412Y74567D01*
X102184Y75186D01*
X104417Y71678D02*
X104363Y71732D01*
X103654Y72441D01*
X102945Y73150D01*
X102928Y73167D01*
X106436Y70934D02*
X106194Y71024D01*
X104417Y71678D01*
X106436Y70934D02*
X107309Y70934D01*
X106690Y70315D02*
X107309Y70934D01*
X106690Y70315D02*
X106436Y70315D01*
X104417Y69571D02*
X104513Y69606D01*
X106436Y70315D01*
X102928Y68082D02*
X103035Y68189D01*
X103743Y68898D01*
X104417Y69571D01*
X102184Y66063D02*
X102184Y66063D01*
X102445Y66772D01*
X102706Y67480D01*
X102928Y68082D01*
X102184Y63936D02*
X102184Y63937D01*
X102184Y64646D01*
X102184Y65354D01*
X102184Y66063D01*
X102928Y61917D02*
X102706Y62520D01*
X102445Y63228D01*
X102184Y63936D01*
X104166Y60679D02*
X103743Y61102D01*
X103034Y61811D01*
X102928Y61917D01*
X104166Y60679D02*
X94429Y60679D01*
X94429Y61102D01*
X94429Y61811D01*
X94429Y62520D01*
X94429Y63228D01*
X94429Y63937D01*
X94429Y64646D01*
X94429Y65354D01*
X94429Y66063D01*
X94429Y66772D01*
X94429Y67480D01*
X94429Y68189D01*
X94429Y68898D01*
X94429Y68916D01*
X99883Y68916D01*
X100572Y69606D01*
X101281Y70315D01*
X101959Y70992D01*
X101959Y71024D01*
X101959Y71732D01*
X101959Y72441D01*
X101959Y73150D01*
X101959Y73858D01*
X101959Y74567D01*
X101959Y75275D01*
X101959Y75984D01*
X101959Y76693D01*
X101959Y77401D01*
X101959Y78110D01*
X101959Y78259D01*
X101655Y78562D01*
X101911Y78819D01*
X101959Y78866D01*
X101959Y79527D01*
X101959Y80236D01*
X101959Y80945D01*
X101959Y81653D01*
X101959Y82362D01*
X101959Y83071D01*
X101959Y83779D01*
X101959Y84488D01*
X101959Y85197D01*
X101959Y85905D01*
X101959Y86133D01*
X101477Y86614D01*
X100769Y87323D01*
X100060Y88031D01*
X99883Y88209D01*
X94429Y88209D01*
X94429Y88740D01*
X94429Y89449D01*
X94429Y90157D01*
X94429Y90866D01*
X94429Y91575D01*
X94429Y92283D01*
X94429Y92992D01*
X94429Y93701D01*
X94429Y94409D01*
X94429Y95118D01*
X94429Y95827D01*
X94429Y96535D01*
X94429Y97244D01*
X94429Y97953D01*
X94429Y98661D01*
X94429Y99370D01*
X94429Y100079D01*
X94429Y100787D01*
X94429Y101496D01*
X94429Y102205D01*
X94429Y102913D01*
X94429Y103622D01*
X94429Y104331D01*
X94429Y105039D01*
X94429Y105748D01*
X94429Y106457D01*
X94429Y107165D01*
X94429Y107874D01*
X94429Y108583D01*
X94429Y109291D01*
X94429Y110000D01*
X94429Y110709D01*
X94429Y111417D01*
X94429Y112126D01*
X94429Y112835D01*
X94429Y113543D01*
X94429Y114252D01*
X94429Y114961D01*
X94429Y115669D01*
X94429Y116378D01*
X94429Y117087D01*
X94429Y117795D01*
X94429Y118504D01*
X94429Y119212D01*
X94429Y119921D01*
X94429Y120630D01*
X94429Y121338D01*
X94429Y122047D01*
X94429Y122756D01*
X94429Y123464D01*
X94429Y124173D01*
X94429Y124275D01*
X94571Y124417D01*
X94742Y124882D01*
X95003Y125590D01*
X95264Y126299D01*
X95315Y126436D01*
X95315Y127008D01*
X95315Y127716D01*
X95315Y128425D01*
X95315Y128563D01*
X95104Y129134D01*
X94843Y129842D01*
X94582Y130551D01*
X94571Y130582D01*
X93893Y131260D01*
X93185Y131968D01*
X93082Y132071D01*
X399587Y41074D02*
X399400Y41260D01*
X398692Y41968D01*
X397983Y42677D01*
X397511Y43150D01*
X387488Y43150D01*
X385412Y41074D02*
X385599Y41260D01*
X386307Y41968D01*
X387016Y42677D01*
X387488Y43150D01*
X385412Y31051D02*
X385412Y31338D01*
X385412Y32047D01*
X385412Y32756D01*
X385412Y33464D01*
X385412Y34173D01*
X385412Y34882D01*
X385412Y35590D01*
X385412Y36299D01*
X385412Y37008D01*
X385412Y37716D01*
X385412Y38425D01*
X385412Y39134D01*
X385412Y39842D01*
X385412Y40551D01*
X385412Y41074D01*
X387488Y28975D02*
X387251Y29212D01*
X386543Y29921D01*
X385834Y30630D01*
X385412Y31051D01*
X387488Y28975D02*
X397511Y28975D01*
X397748Y29212D01*
X398456Y29921D01*
X399165Y30630D01*
X399587Y31051D01*
X399587Y31338D01*
X399587Y32047D01*
X399587Y32756D01*
X399587Y33464D01*
X399587Y34173D01*
X399587Y34882D01*
X399587Y35590D01*
X399587Y36299D01*
X399587Y37008D01*
X399587Y37716D01*
X399587Y38425D01*
X399587Y39134D01*
X399587Y39842D01*
X399587Y40551D01*
X399587Y41074D01*
X96496Y35444D02*
X96349Y35590D01*
X95641Y36299D01*
X94932Y37008D01*
X94223Y37716D01*
X93515Y38425D01*
X92944Y38996D01*
X87055Y38996D01*
X83503Y35444D02*
X83650Y35590D01*
X84358Y36299D01*
X85067Y37008D01*
X85776Y37716D01*
X86484Y38425D01*
X87055Y38996D01*
X83503Y29555D02*
X83503Y29921D01*
X83503Y30630D01*
X83503Y31338D01*
X83503Y32047D01*
X83503Y32756D01*
X83503Y33464D01*
X83503Y34173D01*
X83503Y34882D01*
X83503Y35444D01*
X85559Y27500D02*
X85263Y27795D01*
X84554Y28504D01*
X83846Y29212D01*
X83503Y29555D01*
X83503Y25444D02*
X83729Y25669D01*
X84437Y26378D01*
X85146Y27087D01*
X85559Y27500D01*
X83503Y19555D02*
X83503Y20000D01*
X83503Y20709D01*
X83503Y21417D01*
X83503Y22126D01*
X83503Y22835D01*
X83503Y23543D01*
X83503Y24252D01*
X83503Y24961D01*
X83503Y25444D01*
X87055Y16003D02*
X86602Y16457D01*
X85893Y17165D01*
X85184Y17874D01*
X84476Y18583D01*
X83767Y19291D01*
X83503Y19555D01*
X90000Y16003D02*
X92944Y16003D01*
X93397Y16457D01*
X94106Y17165D01*
X94815Y17874D01*
X95523Y18583D01*
X96232Y19291D01*
X96496Y19555D01*
X96496Y20000D01*
X96496Y20709D01*
X96496Y21417D01*
X96496Y22126D01*
X96496Y22835D01*
X96496Y23543D01*
X96496Y24252D01*
X96496Y24961D01*
X96496Y25444D01*
X96271Y25669D01*
X95562Y26378D01*
X94853Y27087D01*
X94440Y27500D01*
X94736Y27795D01*
X95445Y28504D01*
X96153Y29212D01*
X96496Y29555D01*
X96496Y29921D01*
X96496Y30630D01*
X96496Y31338D01*
X96496Y32047D01*
X96496Y32756D01*
X96496Y33464D01*
X96496Y34173D01*
X96496Y34882D01*
X96496Y35444D01*
X66496Y35444D02*
X66349Y35590D01*
X65641Y36299D01*
X64932Y37008D01*
X64223Y37716D01*
X63515Y38425D01*
X62944Y38996D01*
X57055Y38996D01*
X53503Y35444D02*
X53650Y35590D01*
X54358Y36299D01*
X55067Y37008D01*
X55776Y37716D01*
X56484Y38425D01*
X57055Y38996D01*
X53503Y29555D02*
X53503Y29921D01*
X53503Y30630D01*
X53503Y31338D01*
X53503Y32047D01*
X53503Y32756D01*
X53503Y33464D01*
X53503Y34173D01*
X53503Y34882D01*
X53503Y35444D01*
X55559Y27500D02*
X55263Y27795D01*
X54554Y28504D01*
X53846Y29212D01*
X53503Y29555D01*
X53503Y25444D02*
X53729Y25669D01*
X54437Y26378D01*
X55146Y27087D01*
X55559Y27500D01*
X53503Y19555D02*
X53503Y20000D01*
X53503Y20709D01*
X53503Y21417D01*
X53503Y22126D01*
X53503Y22835D01*
X53503Y23543D01*
X53503Y24252D01*
X53503Y24961D01*
X53503Y25444D01*
X57055Y16003D02*
X56602Y16457D01*
X55893Y17165D01*
X55184Y17874D01*
X54476Y18583D01*
X53767Y19291D01*
X53503Y19555D01*
X60000Y16003D02*
X62944Y16003D01*
X63397Y16457D01*
X64106Y17165D01*
X64815Y17874D01*
X65523Y18583D01*
X66232Y19291D01*
X66496Y19555D01*
X66496Y20000D01*
X66496Y20709D01*
X66496Y21417D01*
X66496Y22126D01*
X66496Y22835D01*
X66496Y23543D01*
X66496Y24252D01*
X66496Y24961D01*
X66496Y25444D01*
X66271Y25669D01*
X65562Y26378D01*
X64853Y27087D01*
X64440Y27500D01*
X64736Y27795D01*
X65445Y28504D01*
X66153Y29212D01*
X66496Y29555D01*
X66496Y29921D01*
X66496Y30630D01*
X66496Y31338D01*
X66496Y32047D01*
X66496Y32756D01*
X66496Y33464D01*
X66496Y34173D01*
X66496Y34882D01*
X66496Y35444D01*
X233799Y14223D02*
X233692Y14331D01*
X232983Y15039D01*
X232274Y15748D01*
X231723Y16299D01*
X223276Y16299D01*
X222500Y15523D02*
X222725Y15748D01*
X223276Y16299D01*
X222500Y15523D02*
X222274Y15748D01*
X221723Y16299D01*
X213276Y16299D01*
X212500Y15523D02*
X212725Y15748D01*
X213276Y16299D01*
X212500Y15523D02*
X212274Y15748D01*
X211723Y16299D01*
X203276Y16299D01*
X202500Y15523D02*
X202725Y15748D01*
X203276Y16299D01*
X202500Y15523D02*
X202274Y15748D01*
X201723Y16299D01*
X193276Y16299D01*
X192500Y15523D02*
X192725Y15748D01*
X193276Y16299D01*
X192500Y15523D02*
X192274Y15748D01*
X191723Y16299D01*
X183276Y16299D01*
X182500Y15523D02*
X182725Y15748D01*
X183276Y16299D01*
X182500Y15523D02*
X182274Y15748D01*
X181723Y16299D01*
X173276Y16299D01*
X171200Y14223D02*
X171307Y14331D01*
X172016Y15039D01*
X172725Y15748D01*
X173276Y16299D01*
X171200Y5776D02*
X171200Y5827D01*
X171200Y6535D01*
X171200Y7244D01*
X171200Y7953D01*
X171200Y8661D01*
X171200Y9370D01*
X171200Y10079D01*
X171200Y10787D01*
X171200Y11496D01*
X171200Y12205D01*
X171200Y12913D01*
X171200Y13622D01*
X171200Y14223D01*
X173276Y3700D02*
X173275Y3701D01*
X172566Y4409D01*
X171858Y5118D01*
X171200Y5776D01*
X177500Y3700D02*
X181723Y3700D01*
X181724Y3701D01*
X182433Y4409D01*
X182500Y4476D01*
X183276Y3700D02*
X183275Y3701D01*
X182566Y4409D01*
X182500Y4476D01*
X187500Y3700D02*
X191723Y3700D01*
X191724Y3701D01*
X192433Y4409D01*
X192500Y4476D01*
X193276Y3700D02*
X193275Y3701D01*
X192566Y4409D01*
X192500Y4476D01*
X193276Y3700D02*
X201723Y3700D01*
X201724Y3701D01*
X202433Y4409D01*
X202500Y4476D01*
X203276Y3700D02*
X203275Y3701D01*
X202566Y4409D01*
X202500Y4476D01*
X203276Y3700D02*
X211723Y3700D01*
X211724Y3701D01*
X212433Y4409D01*
X212500Y4476D01*
X213276Y3700D02*
X213275Y3701D01*
X212566Y4409D01*
X212500Y4476D01*
X213276Y3700D02*
X221723Y3700D01*
X221724Y3701D01*
X222433Y4409D01*
X222500Y4476D01*
X223276Y3700D02*
X223275Y3701D01*
X222566Y4409D01*
X222500Y4476D01*
X223276Y3700D02*
X231723Y3700D01*
X231724Y3701D01*
X232433Y4409D01*
X233141Y5118D01*
X233799Y5776D01*
X233799Y5827D01*
X233799Y6535D01*
X233799Y7244D01*
X233799Y7953D01*
X233799Y8661D01*
X233799Y9370D01*
X233799Y10079D01*
X233799Y10787D01*
X233799Y11496D01*
X233799Y12205D01*
X233799Y12913D01*
X233799Y13622D01*
X233799Y14223D01*
X397128Y23085D02*
X395669Y23228D01*
X394209Y23085D02*
X395669Y23228D01*
X392806Y22659D02*
X393385Y22835D01*
X394209Y23085D01*
X391513Y21968D02*
X391809Y22126D01*
X392806Y22659D01*
X390379Y21037D02*
X390842Y21417D01*
X391513Y21968D01*
X389449Y19904D02*
X389528Y20000D01*
X390109Y20709D01*
X390379Y21037D01*
X388758Y18610D02*
X389122Y19291D01*
X389449Y19904D01*
X388332Y17207D02*
X388534Y17874D01*
X388749Y18583D01*
X388758Y18610D01*
X388188Y15748D02*
X388188Y15748D01*
X388258Y16457D01*
X388328Y17165D01*
X388332Y17207D01*
X388332Y14288D02*
X388328Y14331D01*
X388258Y15039D01*
X388188Y15748D01*
X388758Y12885D02*
X388749Y12913D01*
X388534Y13622D01*
X388332Y14288D01*
X389449Y11591D02*
X389121Y12205D01*
X388758Y12885D01*
X390379Y10458D02*
X390109Y10787D01*
X389527Y11496D01*
X389449Y11591D01*
X391513Y9528D02*
X390841Y10079D01*
X390379Y10458D01*
X392806Y8836D02*
X391808Y9370D01*
X391513Y9528D01*
X394209Y8411D02*
X393383Y8661D01*
X392806Y8836D01*
X395669Y8267D02*
X394209Y8411D01*
X395669Y8267D02*
X397128Y8411D01*
X397955Y8661D01*
X398532Y8836D01*
X399530Y9370D01*
X399825Y9528D01*
X400496Y10079D01*
X400958Y10458D01*
X401229Y10787D01*
X401810Y11496D01*
X401889Y11591D01*
X402217Y12205D01*
X402580Y12885D01*
X402589Y12913D01*
X402804Y13622D01*
X403006Y14288D01*
X403010Y14331D01*
X403080Y15039D01*
X403150Y15748D01*
X403149Y15748D01*
X403080Y16457D01*
X403010Y17165D01*
X403006Y17207D01*
X402803Y17874D01*
X402588Y18583D01*
X402580Y18610D01*
X402216Y19291D01*
X401889Y19904D01*
X401810Y20000D01*
X401228Y20709D01*
X400958Y21037D01*
X400495Y21417D01*
X399825Y21968D01*
X399529Y22126D01*
X398532Y22659D01*
X397952Y22835D01*
X397128Y23085D01*
X15238Y23085D02*
X13779Y23228D01*
X12320Y23085D02*
X13779Y23228D01*
X10916Y22659D02*
X11496Y22835D01*
X12320Y23085D01*
X9623Y21968D02*
X9919Y22126D01*
X10916Y22659D01*
X8489Y21037D02*
X8952Y21417D01*
X9623Y21968D01*
X7559Y19904D02*
X7638Y20000D01*
X8220Y20709D01*
X8489Y21037D01*
X6868Y18610D02*
X7232Y19291D01*
X7559Y19904D01*
X6442Y17207D02*
X6644Y17874D01*
X6859Y18583D01*
X6868Y18610D01*
X6298Y15748D02*
X6298Y15748D01*
X6368Y16457D01*
X6438Y17165D01*
X6442Y17207D01*
X6442Y14288D02*
X6438Y14331D01*
X6368Y15039D01*
X6298Y15748D01*
X6868Y12885D02*
X6859Y12913D01*
X6644Y13622D01*
X6442Y14288D01*
X7559Y11591D02*
X7231Y12205D01*
X6868Y12885D01*
X8489Y10458D02*
X8219Y10787D01*
X7637Y11496D01*
X7559Y11591D01*
X9623Y9528D02*
X8951Y10079D01*
X8489Y10458D01*
X10916Y8836D02*
X9918Y9370D01*
X9623Y9528D01*
X12320Y8411D02*
X11493Y8661D01*
X10916Y8836D01*
X13779Y8267D02*
X12320Y8411D01*
X13779Y8267D02*
X15238Y8411D01*
X16065Y8661D01*
X16642Y8836D01*
X17640Y9370D01*
X17935Y9528D01*
X18607Y10079D01*
X19069Y10458D01*
X19339Y10787D01*
X19921Y11496D01*
X19999Y11591D01*
X20327Y12205D01*
X20690Y12885D01*
X20699Y12913D01*
X20914Y13622D01*
X21116Y14288D01*
X21120Y14331D01*
X21190Y15039D01*
X21260Y15748D01*
X21260Y15748D01*
X21190Y16457D01*
X21120Y17165D01*
X21116Y17207D01*
X20914Y17874D01*
X20699Y18583D01*
X20690Y18610D01*
X20326Y19291D01*
X19999Y19904D01*
X19920Y20000D01*
X19338Y20709D01*
X19069Y21037D01*
X18606Y21417D01*
X17935Y21968D01*
X17639Y22126D01*
X16642Y22659D01*
X16062Y22835D01*
X15238Y23085D01*
X267105Y139605D02*
X267105Y139764D01*
X267105Y140472D01*
X267105Y141181D01*
X267105Y141890D01*
X267105Y142598D01*
X267105Y143307D01*
X267105Y144016D01*
X267105Y144724D01*
X267105Y145433D01*
X267105Y146142D01*
X267105Y146850D01*
X267105Y147559D01*
X267105Y148268D01*
X267105Y148976D01*
X267105Y149685D01*
X267105Y150394D01*
X267105Y151102D01*
X267105Y151811D01*
X267105Y152520D01*
X267105Y153228D01*
X267105Y153937D01*
X267105Y154646D01*
X267105Y155354D01*
X267105Y156063D01*
X267105Y156772D01*
X267105Y157480D01*
X267105Y158189D01*
X267105Y158898D01*
X267105Y159606D01*
X267105Y160315D01*
X267105Y161024D01*
X267105Y161732D01*
X267105Y162441D01*
X267105Y163150D01*
X267105Y163858D01*
X267105Y164567D01*
X267105Y165275D01*
X267105Y165984D01*
X267105Y166693D01*
X267105Y167401D01*
X267105Y168110D01*
X267105Y168819D01*
X267105Y169527D01*
X267105Y170236D01*
X267105Y170945D01*
X267105Y171653D01*
X267105Y172362D01*
X267105Y173071D01*
X267105Y173779D01*
X267105Y174488D01*
X267105Y175197D01*
X267105Y175905D01*
X267105Y176614D01*
X267105Y177323D01*
X267105Y178031D01*
X267105Y178740D01*
X267105Y179449D01*
X267105Y180157D01*
X267105Y180866D01*
X267105Y181575D01*
X267105Y182283D01*
X267105Y182992D01*
X267105Y183701D01*
X267105Y184409D01*
X267105Y185118D01*
X267105Y185827D01*
X267105Y186535D01*
X267105Y187244D01*
X267105Y187953D01*
X267105Y188661D01*
X267105Y189370D01*
X267105Y190079D01*
X267105Y190787D01*
X267105Y191496D01*
X267105Y192205D01*
X267105Y192913D01*
X267105Y193622D01*
X267105Y194331D01*
X267105Y195039D01*
X267105Y195748D01*
X267105Y196457D01*
X267105Y197165D01*
X267105Y197874D01*
X267105Y198583D01*
X267105Y199291D01*
X267105Y200000D01*
X267105Y200709D01*
X267105Y201180D01*
X360000Y139605D02*
X382894Y139605D01*
X382894Y139764D01*
X382894Y140472D01*
X382894Y141181D01*
X382894Y141890D01*
X382894Y142598D01*
X382894Y143307D01*
X382894Y144016D01*
X382894Y144724D01*
X382894Y145433D01*
X382894Y146142D01*
X382894Y146850D01*
X382894Y147559D01*
X382894Y148268D01*
X382894Y148976D01*
X382894Y149685D01*
X382894Y150394D01*
X382894Y151102D01*
X382894Y151811D01*
X382894Y152520D01*
X382894Y153228D01*
X382894Y153937D01*
X382894Y154646D01*
X382894Y155354D01*
X382894Y156063D01*
X382894Y156772D01*
X382894Y157480D01*
X382894Y158189D01*
X382894Y158898D01*
X382894Y159606D01*
X382894Y160315D01*
X382894Y161024D01*
X382894Y161732D01*
X382894Y162441D01*
X382894Y163150D01*
X382894Y163858D01*
X382894Y164567D01*
X382894Y165275D01*
X382894Y165984D01*
X382894Y166693D01*
X382894Y167401D01*
X382894Y168110D01*
X382894Y168819D01*
X382894Y169527D01*
X382894Y170236D01*
X382894Y170945D01*
X382894Y171653D01*
X382894Y172362D01*
X382894Y173071D01*
X382894Y173779D01*
X382894Y174488D01*
X382894Y175197D01*
X382894Y175905D01*
X382894Y176614D01*
X382894Y177323D01*
X382894Y178031D01*
X382894Y178740D01*
X382894Y179449D01*
X382894Y180157D01*
X382894Y180866D01*
X382894Y181575D01*
X382894Y182283D01*
X382894Y182992D01*
X382894Y183464D01*
X407873Y183464D01*
X407873Y1575D02*
X407873Y2283D01*
X407873Y2992D01*
X407873Y3701D01*
X407873Y4409D01*
X407873Y5118D01*
X407873Y5827D01*
X407873Y6535D01*
X407873Y7244D01*
X407873Y7953D01*
X407873Y8661D01*
X407873Y9370D01*
X407873Y10079D01*
X407873Y10787D01*
X407873Y11496D01*
X407873Y12205D01*
X407873Y12913D01*
X407873Y13622D01*
X407873Y14331D01*
X407873Y15039D01*
X407873Y15748D01*
X407873Y16457D01*
X407873Y17165D01*
X407873Y17874D01*
X407873Y18583D01*
X407873Y19291D01*
X407873Y20000D01*
X407873Y20709D01*
X407873Y21417D01*
X407873Y22126D01*
X407873Y22835D01*
X407873Y23543D01*
X407873Y24252D01*
X407873Y24961D01*
X407873Y25669D01*
X407873Y26378D01*
X407873Y27087D01*
X407873Y27795D01*
X407873Y28504D01*
X407873Y29212D01*
X407873Y29921D01*
X407873Y30630D01*
X407873Y31338D01*
X407873Y32047D01*
X407873Y32756D01*
X407873Y33464D01*
X407873Y34173D01*
X407873Y34882D01*
X407873Y35590D01*
X407873Y36299D01*
X407873Y37008D01*
X407873Y37716D01*
X407873Y38425D01*
X407873Y39134D01*
X407873Y39842D01*
X407873Y40551D01*
X407873Y41260D01*
X407873Y41968D01*
X407873Y42677D01*
X407873Y43386D01*
X407873Y44094D01*
X407873Y44803D01*
X407873Y45512D01*
X407873Y46220D01*
X407873Y46929D01*
X407873Y47638D01*
X407873Y48346D01*
X407873Y49055D01*
X407873Y49764D01*
X407873Y50472D01*
X407873Y51181D01*
X407873Y51890D01*
X407873Y52598D01*
X407873Y53307D01*
X407873Y54016D01*
X407873Y54724D01*
X407873Y55433D01*
X407873Y56142D01*
X407873Y56850D01*
X407873Y57559D01*
X407873Y58268D01*
X407873Y58976D01*
X407873Y59685D01*
X407873Y60394D01*
X407873Y61102D01*
X407873Y61811D01*
X407873Y62520D01*
X407873Y63228D01*
X407873Y63937D01*
X407873Y64646D01*
X407873Y65354D01*
X407873Y66063D01*
X407873Y66772D01*
X407873Y67480D01*
X407873Y68189D01*
X407873Y68898D01*
X407873Y69606D01*
X407873Y70315D01*
X407873Y71024D01*
X407873Y71732D01*
X407873Y72441D01*
X407873Y73150D01*
X407873Y73858D01*
X407873Y74567D01*
X407873Y75275D01*
X407873Y75984D01*
X407873Y76693D01*
X407873Y77401D01*
X407873Y78110D01*
X407873Y78819D01*
X407873Y79527D01*
X407873Y80236D01*
X407873Y80945D01*
X407873Y81653D01*
X407873Y82362D01*
X407873Y83071D01*
X407873Y83779D01*
X407873Y84488D01*
X407873Y85197D01*
X407873Y85905D01*
X407873Y86614D01*
X407873Y87323D01*
X407873Y88031D01*
X407873Y88740D01*
X407873Y89449D01*
X407873Y90157D01*
X407873Y90866D01*
X407873Y91575D01*
X407873Y92283D01*
X407873Y92992D01*
X407873Y93701D01*
X407873Y94409D01*
X407873Y95118D01*
X407873Y95827D01*
X407873Y96535D01*
X407873Y97244D01*
X407873Y97953D01*
X407873Y98661D01*
X407873Y99370D01*
X407873Y100079D01*
X407873Y100787D01*
X407873Y101496D01*
X407873Y102205D01*
X407873Y102913D01*
X407873Y103622D01*
X407873Y104331D01*
X407873Y105039D01*
X407873Y105748D01*
X407873Y106457D01*
X407873Y107165D01*
X407873Y107874D01*
X407873Y108583D01*
X407873Y109291D01*
X407873Y110000D01*
X407873Y110709D01*
X407873Y111417D01*
X407873Y112126D01*
X407873Y112835D01*
X407873Y113543D01*
X407873Y114252D01*
X407873Y114961D01*
X407873Y115669D01*
X407873Y116378D01*
X407873Y117087D01*
X407873Y117795D01*
X407873Y118504D01*
X407873Y119212D01*
X407873Y119921D01*
X407873Y120630D01*
X407873Y121338D01*
X407873Y122047D01*
X407873Y122756D01*
X407873Y123464D01*
X407873Y124173D01*
X407873Y124882D01*
X407873Y125590D01*
X407873Y126299D01*
X407873Y127008D01*
X407873Y127716D01*
X407873Y128425D01*
X407873Y129134D01*
X407873Y129842D01*
X407873Y130551D01*
X407873Y131260D01*
X407873Y131968D01*
X407873Y132677D01*
X407873Y133386D01*
X407873Y134094D01*
X407873Y134803D01*
X407873Y135512D01*
X407873Y136220D01*
X407873Y136929D01*
X407873Y137638D01*
X407873Y138346D01*
X407873Y139055D01*
X407873Y139764D01*
X407873Y140472D01*
X407873Y141181D01*
X407873Y141890D01*
X407873Y142598D01*
X407873Y143307D01*
X407873Y144016D01*
X407873Y144724D01*
X407873Y145433D01*
X407873Y146142D01*
X407873Y146850D01*
X407873Y147559D01*
X407873Y148268D01*
X407873Y148976D01*
X407873Y149685D01*
X407873Y150394D01*
X407873Y151102D01*
X407873Y151811D01*
X407873Y152520D01*
X407873Y153228D01*
X407873Y153937D01*
X407873Y154646D01*
X407873Y155354D01*
X407873Y156063D01*
X407873Y156772D01*
X407873Y157480D01*
X407873Y158189D01*
X407873Y158898D01*
X407873Y159606D01*
X407873Y160315D01*
X407873Y161024D01*
X407873Y161732D01*
X407873Y162441D01*
X407873Y163150D01*
X407873Y163858D01*
X407873Y164567D01*
X407873Y165275D01*
X407873Y165984D01*
X407873Y166693D01*
X407873Y167401D01*
X407873Y168110D01*
X407873Y168819D01*
X407873Y169527D01*
X407873Y170236D01*
X407873Y170945D01*
X407873Y171653D01*
X407873Y172362D01*
X407873Y173071D01*
X407873Y173779D01*
X407873Y174488D01*
X407873Y175197D01*
X407873Y175905D01*
X407873Y176614D01*
X407873Y177323D01*
X407873Y178031D01*
X407873Y178740D01*
X407873Y179449D01*
X407873Y180157D01*
X407873Y180866D01*
X407873Y181575D01*
X407873Y182283D01*
X407873Y182992D01*
X407873Y183464D01*
X407873Y1575D02*
X1575Y1575D01*
X1575Y2283D01*
X1575Y2992D01*
X1575Y3701D01*
X1575Y4409D01*
X1575Y5118D01*
X1575Y5827D01*
X1575Y6535D01*
X1575Y7244D01*
X1575Y7953D01*
X1575Y8661D01*
X1575Y9370D01*
X1575Y10079D01*
X1575Y10787D01*
X1575Y11496D01*
X1575Y12205D01*
X1575Y12913D01*
X1575Y13622D01*
X1575Y14331D01*
X1575Y15039D01*
X1575Y15748D01*
X1575Y16457D01*
X1575Y17165D01*
X1575Y17874D01*
X1575Y18583D01*
X1575Y19291D01*
X1575Y20000D01*
X1575Y20709D01*
X1575Y21417D01*
X1575Y22126D01*
X1575Y22835D01*
X1575Y23543D01*
X1575Y24252D01*
X1575Y24961D01*
X1575Y25669D01*
X1575Y26378D01*
X1575Y27087D01*
X1575Y27795D01*
X1575Y28504D01*
X1575Y29212D01*
X1575Y29921D01*
X1575Y30630D01*
X1575Y31338D01*
X1575Y32047D01*
X1575Y32756D01*
X1575Y33464D01*
X1575Y34173D01*
X1575Y34882D01*
X1575Y35590D01*
X1575Y36299D01*
X1575Y37008D01*
X1575Y37716D01*
X1575Y38425D01*
X1575Y39134D01*
X1575Y39842D01*
X1575Y40551D01*
X1575Y41260D01*
X1575Y41968D01*
X1575Y42677D01*
X1575Y43386D01*
X1575Y44094D01*
X1575Y44803D01*
X1575Y45512D01*
X1575Y46220D01*
X1575Y46929D01*
X1575Y47638D01*
X1575Y48346D01*
X1575Y49055D01*
X1575Y49764D01*
X1575Y50472D01*
X1575Y51181D01*
X1575Y51890D01*
X1575Y52598D01*
X1575Y53307D01*
X1575Y54016D01*
X1575Y54724D01*
X1575Y55433D01*
X1575Y56142D01*
X1575Y56850D01*
X1575Y57559D01*
X1575Y58268D01*
X1575Y58976D01*
X1575Y59685D01*
X1575Y60394D01*
X1575Y61102D01*
X1575Y61811D01*
X1575Y62520D01*
X1575Y63228D01*
X1575Y63937D01*
X1575Y64646D01*
X1575Y65354D01*
X1575Y66063D01*
X1575Y66772D01*
X1575Y67480D01*
X1575Y68189D01*
X1575Y68898D01*
X1575Y69606D01*
X1575Y70315D01*
X1575Y71024D01*
X1575Y71732D01*
X1575Y72441D01*
X1575Y73150D01*
X1575Y73858D01*
X1575Y74567D01*
X1575Y75275D01*
X1575Y75984D01*
X1575Y76693D01*
X1575Y77401D01*
X1575Y78110D01*
X1575Y78819D01*
X1575Y79527D01*
X1575Y80236D01*
X1575Y80945D01*
X1575Y81653D01*
X1575Y82362D01*
X1575Y83071D01*
X1575Y83779D01*
X1575Y84488D01*
X1575Y85197D01*
X1575Y85905D01*
X1575Y86614D01*
X1575Y87323D01*
X1575Y88031D01*
X1575Y88740D01*
X1575Y89449D01*
X1575Y90157D01*
X1575Y90866D01*
X1575Y91575D01*
X1575Y92283D01*
X1575Y92992D01*
X1575Y93701D01*
X1575Y94409D01*
X1575Y95118D01*
X1575Y95827D01*
X1575Y96535D01*
X1575Y97244D01*
X1575Y97953D01*
X1575Y98661D01*
X1575Y99370D01*
X1575Y100079D01*
X1575Y100787D01*
X1575Y101496D01*
X1575Y102205D01*
X1575Y102913D01*
X1575Y103622D01*
X1575Y104331D01*
X1575Y105039D01*
X1575Y105748D01*
X1575Y106457D01*
X1575Y107165D01*
X1575Y107874D01*
X1575Y108583D01*
X1575Y109291D01*
X1575Y110000D01*
X1575Y110709D01*
X1575Y111417D01*
X1575Y112126D01*
X1575Y112835D01*
X1575Y113543D01*
X1575Y114252D01*
X1575Y114961D01*
X1575Y115669D01*
X1575Y116378D01*
X1575Y117087D01*
X1575Y117795D01*
X1575Y118504D01*
X1575Y119212D01*
X1575Y119921D01*
X1575Y120630D01*
X1575Y121338D01*
X1575Y122047D01*
X1575Y122756D01*
X1575Y123464D01*
X1575Y124173D01*
X1575Y124882D01*
X1575Y125590D01*
X1575Y126299D01*
X1575Y127008D01*
X1575Y127716D01*
X1575Y128425D01*
X1575Y129134D01*
X1575Y129842D01*
X1575Y130551D01*
X1575Y131260D01*
X1575Y131968D01*
X1575Y132677D01*
X1575Y133386D01*
X1575Y134094D01*
X1575Y134803D01*
X1575Y135512D01*
X1575Y136220D01*
X1575Y136929D01*
X1575Y137638D01*
X1575Y138346D01*
X1575Y139055D01*
X1575Y139764D01*
X1575Y140472D01*
X1575Y141181D01*
X1575Y141890D01*
X1575Y142598D01*
X1575Y143307D01*
X1575Y144016D01*
X1575Y144724D01*
X1575Y145433D01*
X1575Y146142D01*
X1575Y146850D01*
X1575Y147559D01*
X1575Y148268D01*
X1575Y148976D01*
X1575Y149685D01*
X1575Y150394D01*
X1575Y151102D01*
X1575Y151811D01*
X1575Y152520D01*
X1575Y153228D01*
X1575Y153937D01*
X1575Y154646D01*
X1575Y155354D01*
X1575Y156063D01*
X1575Y156772D01*
X1575Y157480D01*
X1575Y158189D01*
X1575Y158898D01*
X1575Y159606D01*
X1575Y160315D01*
X1575Y161024D01*
X1575Y161732D01*
X1575Y162441D01*
X1575Y163150D01*
X1575Y163858D01*
X1575Y164567D01*
X1575Y165275D01*
X1575Y165984D01*
X1575Y166693D01*
X1575Y167401D01*
X1575Y168110D01*
X1575Y168819D01*
X1575Y169527D01*
X1575Y170236D01*
X1575Y170945D01*
X1575Y171653D01*
X1575Y172362D01*
X1575Y173071D01*
X1575Y173779D01*
X1575Y174488D01*
X1575Y175197D01*
X1575Y175905D01*
X1575Y176614D01*
X1575Y177323D01*
X1575Y178031D01*
X1575Y178740D01*
X1575Y179449D01*
X1575Y180157D01*
X1575Y180866D01*
X1575Y181575D01*
X1575Y182283D01*
X1575Y182992D01*
X1575Y183464D01*
X40022Y183464D01*
X40259Y183701D01*
X40945Y184386D01*
X40945Y184409D01*
X40945Y185118D01*
X40945Y185827D01*
X40945Y186535D01*
X40945Y187244D01*
X40945Y187953D01*
X40945Y188661D01*
X40945Y189370D01*
X40945Y190079D01*
X40945Y190787D01*
X40945Y191496D01*
X40945Y192205D01*
X40945Y192913D01*
X40945Y193622D01*
X40945Y194331D01*
X40945Y195039D01*
X40945Y195748D01*
X40945Y196457D01*
X40945Y197165D01*
X40945Y197874D01*
X40945Y198583D01*
X40945Y199291D01*
X40945Y200000D01*
X40945Y200709D01*
X40945Y201180D01*
X267105Y201180D01*
X280000Y2283D02*
X407873Y2283D01*
X406250Y2992D02*
X407873Y2992D01*
X35000Y3701D02*
X110775Y3701D01*
X119224Y3701D02*
X120775Y3701D01*
X129224Y3701D02*
X173275Y3701D01*
X181724Y3701D02*
X183275Y3701D01*
X191724Y3701D02*
X193275Y3701D01*
X201724Y3701D02*
X203275Y3701D01*
X211724Y3701D02*
X213275Y3701D01*
X221724Y3701D02*
X223275Y3701D01*
X280000Y3701D02*
X407873Y3701D01*
X1575Y4409D02*
X110066Y4409D01*
X119933Y4409D02*
X120066Y4409D01*
X129933Y4409D02*
X172566Y4409D01*
X182433Y4409D02*
X182566Y4409D01*
X192433Y4409D02*
X192566Y4409D01*
X202433Y4409D02*
X202566Y4409D01*
X212433Y4409D02*
X212566Y4409D01*
X222433Y4409D02*
X222566Y4409D01*
X232433Y4409D02*
X407873Y4409D01*
X1575Y5118D02*
X109358Y5118D01*
X130641Y5118D02*
X171858Y5118D01*
X233141Y5118D02*
X407873Y5118D01*
X1575Y5827D02*
X108700Y5827D01*
X131299Y5827D02*
X171200Y5827D01*
X233799Y5827D02*
X407873Y5827D01*
X1575Y6535D02*
X108700Y6535D01*
X131299Y6535D02*
X171200Y6535D01*
X233799Y6535D02*
X407873Y6535D01*
X1575Y7244D02*
X108700Y7244D01*
X131299Y7244D02*
X171200Y7244D01*
X233799Y7244D02*
X407873Y7244D01*
X1575Y7953D02*
X108700Y7953D01*
X131299Y7953D02*
X171200Y7953D01*
X233799Y7953D02*
X407873Y7953D01*
X1575Y8661D02*
X11493Y8661D01*
X16065Y8661D02*
X108700Y8661D01*
X131299Y8661D02*
X171200Y8661D01*
X233799Y8661D02*
X393383Y8661D01*
X397955Y8661D02*
X407873Y8661D01*
X1575Y9370D02*
X9918Y9370D01*
X17640Y9370D02*
X108700Y9370D01*
X131299Y9370D02*
X171200Y9370D01*
X233799Y9370D02*
X391808Y9370D01*
X399530Y9370D02*
X407873Y9370D01*
X1575Y10079D02*
X8951Y10079D01*
X18607Y10079D02*
X108700Y10079D01*
X131299Y10079D02*
X171200Y10079D01*
X233799Y10079D02*
X390841Y10079D01*
X400496Y10079D02*
X407873Y10079D01*
X1575Y10787D02*
X8219Y10787D01*
X19339Y10787D02*
X108700Y10787D01*
X140662Y10787D02*
X171200Y10787D01*
X233799Y10787D02*
X390109Y10787D01*
X401229Y10787D02*
X407873Y10787D01*
X1575Y11496D02*
X7637Y11496D01*
X19921Y11496D02*
X108700Y11496D01*
X141371Y11496D02*
X171200Y11496D01*
X233799Y11496D02*
X389527Y11496D01*
X401810Y11496D02*
X407873Y11496D01*
X1575Y12205D02*
X7231Y12205D01*
X20327Y12205D02*
X108700Y12205D01*
X142080Y12205D02*
X171200Y12205D01*
X233799Y12205D02*
X389121Y12205D01*
X402217Y12205D02*
X407873Y12205D01*
X1575Y12913D02*
X6859Y12913D01*
X20699Y12913D02*
X108700Y12913D01*
X142788Y12913D02*
X171200Y12913D01*
X233799Y12913D02*
X388749Y12913D01*
X402589Y12913D02*
X407873Y12913D01*
X1575Y13622D02*
X6644Y13622D01*
X20914Y13622D02*
X108700Y13622D01*
X143497Y13622D02*
X171200Y13622D01*
X233799Y13622D02*
X388534Y13622D01*
X402804Y13622D02*
X407873Y13622D01*
X1575Y14331D02*
X6438Y14331D01*
X21120Y14331D02*
X108807Y14331D01*
X144206Y14331D02*
X171307Y14331D01*
X233692Y14331D02*
X388328Y14331D01*
X403010Y14331D02*
X407873Y14331D01*
X1575Y15039D02*
X6368Y15039D01*
X21190Y15039D02*
X109436Y15039D01*
X144914Y15039D02*
X172016Y15039D01*
X232983Y15039D02*
X288827Y15039D01*
X291172Y15039D02*
X388258Y15039D01*
X403080Y15039D02*
X407873Y15039D01*
X1575Y15748D02*
X6298Y15748D01*
X21260Y15748D02*
X108728Y15748D01*
X145623Y15748D02*
X172725Y15748D01*
X182274Y15748D02*
X182725Y15748D01*
X192274Y15748D02*
X192725Y15748D01*
X202274Y15748D02*
X202725Y15748D01*
X212274Y15748D02*
X212725Y15748D01*
X222274Y15748D02*
X222725Y15748D01*
X232274Y15748D02*
X286912Y15748D01*
X293087Y15748D02*
X388188Y15748D01*
X403149Y15748D02*
X407873Y15748D01*
X1575Y16457D02*
X6368Y16457D01*
X21190Y16457D02*
X56602Y16457D01*
X63397Y16457D02*
X86602Y16457D01*
X93397Y16457D02*
X108700Y16457D01*
X146332Y16457D02*
X286203Y16457D01*
X305082Y16457D02*
X388258Y16457D01*
X403080Y16457D02*
X407873Y16457D01*
X1575Y17165D02*
X6438Y17165D01*
X21120Y17165D02*
X55893Y17165D01*
X64106Y17165D02*
X85893Y17165D01*
X94106Y17165D02*
X108700Y17165D01*
X147040Y17165D02*
X285495Y17165D01*
X305790Y17165D02*
X388328Y17165D01*
X403010Y17165D02*
X407873Y17165D01*
X1575Y17874D02*
X6644Y17874D01*
X20914Y17874D02*
X55184Y17874D01*
X64815Y17874D02*
X85184Y17874D01*
X94815Y17874D02*
X108700Y17874D01*
X147749Y17874D02*
X285192Y17874D01*
X306499Y17874D02*
X388534Y17874D01*
X402803Y17874D02*
X407873Y17874D01*
X1575Y18583D02*
X6859Y18583D01*
X20699Y18583D02*
X54476Y18583D01*
X65523Y18583D02*
X84476Y18583D01*
X95523Y18583D02*
X108700Y18583D01*
X148458Y18583D02*
X284931Y18583D01*
X307208Y18583D02*
X388749Y18583D01*
X402588Y18583D02*
X407873Y18583D01*
X1575Y19291D02*
X7232Y19291D01*
X20326Y19291D02*
X53767Y19291D01*
X66232Y19291D02*
X83767Y19291D01*
X96232Y19291D02*
X108700Y19291D01*
X149166Y19291D02*
X284684Y19291D01*
X307916Y19291D02*
X389122Y19291D01*
X402216Y19291D02*
X407873Y19291D01*
X1575Y20000D02*
X7638Y20000D01*
X19920Y20000D02*
X53503Y20000D01*
X66496Y20000D02*
X83503Y20000D01*
X96496Y20000D02*
X108700Y20000D01*
X131299Y20000D02*
X137625Y20000D01*
X149875Y20000D02*
X284684Y20000D01*
X308625Y20000D02*
X389528Y20000D01*
X401810Y20000D02*
X407873Y20000D01*
X1575Y20709D02*
X8220Y20709D01*
X19338Y20709D02*
X53503Y20709D01*
X66496Y20709D02*
X83503Y20709D01*
X96496Y20709D02*
X108700Y20709D01*
X131299Y20709D02*
X138333Y20709D01*
X150584Y20709D02*
X284684Y20709D01*
X309334Y20709D02*
X390109Y20709D01*
X401228Y20709D02*
X407873Y20709D01*
X1575Y21417D02*
X8952Y21417D01*
X18606Y21417D02*
X53503Y21417D01*
X66496Y21417D02*
X83503Y21417D01*
X96496Y21417D02*
X108700Y21417D01*
X131299Y21417D02*
X139042Y21417D01*
X151292Y21417D02*
X284699Y21417D01*
X310042Y21417D02*
X390842Y21417D01*
X400495Y21417D02*
X407873Y21417D01*
X1575Y22126D02*
X9919Y22126D01*
X17639Y22126D02*
X53503Y22126D01*
X66496Y22126D02*
X83503Y22126D01*
X96496Y22126D02*
X108700Y22126D01*
X131299Y22126D02*
X139751Y22126D01*
X152001Y22126D02*
X284960Y22126D01*
X310751Y22126D02*
X391809Y22126D01*
X399529Y22126D02*
X407873Y22126D01*
X1575Y22835D02*
X11496Y22835D01*
X35000Y22835D02*
X53503Y22835D01*
X66496Y22835D02*
X83503Y22835D01*
X96496Y22835D02*
X108700Y22835D01*
X131299Y22835D02*
X140459Y22835D01*
X152710Y22835D02*
X285221Y22835D01*
X311460Y22835D02*
X393385Y22835D01*
X397952Y22835D02*
X407873Y22835D01*
X1575Y23543D02*
X53503Y23543D01*
X66496Y23543D02*
X83503Y23543D01*
X96496Y23543D02*
X108700Y23543D01*
X131299Y23543D02*
X141168Y23543D01*
X153418Y23543D02*
X285574Y23543D01*
X311831Y23543D02*
X407873Y23543D01*
X1575Y24252D02*
X53503Y24252D01*
X66496Y24252D02*
X83503Y24252D01*
X96496Y24252D02*
X108729Y24252D01*
X131271Y24252D02*
X141877Y24252D01*
X154127Y24252D02*
X286283Y24252D01*
X311831Y24252D02*
X407873Y24252D01*
X1575Y24961D02*
X53503Y24961D01*
X66496Y24961D02*
X83503Y24961D01*
X96496Y24961D02*
X109437Y24961D01*
X130562Y24961D02*
X142585Y24961D01*
X154836Y24961D02*
X287120Y24961D01*
X292879Y24961D02*
X301335Y24961D01*
X311831Y24961D02*
X407873Y24961D01*
X1575Y25669D02*
X53729Y25669D01*
X66271Y25669D02*
X83729Y25669D01*
X96271Y25669D02*
X108806Y25669D01*
X131193Y25669D02*
X143294Y25669D01*
X155544Y25669D02*
X302044Y25669D01*
X311831Y25669D02*
X407873Y25669D01*
X1575Y26378D02*
X54437Y26378D01*
X65562Y26378D02*
X84437Y26378D01*
X95562Y26378D02*
X108700Y26378D01*
X131299Y26378D02*
X144003Y26378D01*
X156253Y26378D02*
X302753Y26378D01*
X406250Y26378D02*
X407873Y26378D01*
X1575Y27087D02*
X55146Y27087D01*
X64853Y27087D02*
X85146Y27087D01*
X94853Y27087D02*
X108700Y27087D01*
X131299Y27087D02*
X144711Y27087D01*
X156962Y27087D02*
X303168Y27087D01*
X311831Y27087D02*
X407873Y27087D01*
X1575Y27795D02*
X55263Y27795D01*
X64736Y27795D02*
X85263Y27795D01*
X94736Y27795D02*
X108700Y27795D01*
X131299Y27795D02*
X145420Y27795D01*
X300000Y27795D02*
X303168Y27795D01*
X311831Y27795D02*
X407873Y27795D01*
X1575Y28504D02*
X54554Y28504D01*
X65445Y28504D02*
X84554Y28504D01*
X95445Y28504D02*
X108700Y28504D01*
X131299Y28504D02*
X146129Y28504D01*
X158379Y28504D02*
X303168Y28504D01*
X311831Y28504D02*
X407873Y28504D01*
X1575Y29212D02*
X53846Y29212D01*
X66153Y29212D02*
X83846Y29212D01*
X96153Y29212D02*
X108700Y29212D01*
X131299Y29212D02*
X146837Y29212D01*
X159088Y29212D02*
X303168Y29212D01*
X311831Y29212D02*
X387251Y29212D01*
X397748Y29212D02*
X407873Y29212D01*
X1575Y29921D02*
X53503Y29921D01*
X66496Y29921D02*
X83503Y29921D01*
X96496Y29921D02*
X108700Y29921D01*
X131299Y29921D02*
X147546Y29921D01*
X159796Y29921D02*
X303168Y29921D01*
X311831Y29921D02*
X386543Y29921D01*
X398456Y29921D02*
X407873Y29921D01*
X1575Y30630D02*
X53503Y30630D01*
X66496Y30630D02*
X83503Y30630D01*
X96496Y30630D02*
X108700Y30630D01*
X131299Y30630D02*
X148255Y30630D01*
X160505Y30630D02*
X303168Y30630D01*
X311831Y30630D02*
X385834Y30630D01*
X399165Y30630D02*
X407873Y30630D01*
X1575Y31338D02*
X53503Y31338D01*
X66496Y31338D02*
X83503Y31338D01*
X96496Y31338D02*
X108700Y31338D01*
X131299Y31338D02*
X148963Y31338D01*
X161214Y31338D02*
X303168Y31338D01*
X311831Y31338D02*
X385412Y31338D01*
X399587Y31338D02*
X407873Y31338D01*
X1575Y32047D02*
X53503Y32047D01*
X66496Y32047D02*
X83503Y32047D01*
X96496Y32047D02*
X108700Y32047D01*
X131299Y32047D02*
X149672Y32047D01*
X161922Y32047D02*
X303168Y32047D01*
X311831Y32047D02*
X385412Y32047D01*
X399587Y32047D02*
X407873Y32047D01*
X1575Y32756D02*
X53503Y32756D01*
X66496Y32756D02*
X83503Y32756D01*
X96496Y32756D02*
X108700Y32756D01*
X131299Y32756D02*
X150381Y32756D01*
X162631Y32756D02*
X303168Y32756D01*
X311831Y32756D02*
X385412Y32756D01*
X399587Y32756D02*
X407873Y32756D01*
X1575Y33464D02*
X53503Y33464D01*
X66496Y33464D02*
X83503Y33464D01*
X96496Y33464D02*
X108700Y33464D01*
X131299Y33464D02*
X151089Y33464D01*
X163340Y33464D02*
X303168Y33464D01*
X311831Y33464D02*
X385412Y33464D01*
X399587Y33464D02*
X407873Y33464D01*
X1575Y34173D02*
X53503Y34173D01*
X66496Y34173D02*
X83503Y34173D01*
X96496Y34173D02*
X108700Y34173D01*
X131299Y34173D02*
X151798Y34173D01*
X164048Y34173D02*
X303168Y34173D01*
X311831Y34173D02*
X385412Y34173D01*
X399587Y34173D02*
X407873Y34173D01*
X1575Y34882D02*
X53503Y34882D01*
X66496Y34882D02*
X83503Y34882D01*
X96496Y34882D02*
X109358Y34882D01*
X130641Y34882D02*
X152507Y34882D01*
X165349Y34882D02*
X195900Y34882D01*
X199099Y34882D02*
X225900Y34882D01*
X229099Y34882D02*
X303168Y34882D01*
X311831Y34882D02*
X385412Y34882D01*
X399587Y34882D02*
X407873Y34882D01*
X1575Y35590D02*
X53650Y35590D01*
X66349Y35590D02*
X83650Y35590D01*
X96349Y35590D02*
X110067Y35590D01*
X119932Y35590D02*
X120067Y35590D01*
X129932Y35590D02*
X153215Y35590D01*
X166995Y35590D02*
X194254Y35590D01*
X200745Y35590D02*
X224254Y35590D01*
X230745Y35590D02*
X303168Y35590D01*
X311831Y35590D02*
X385412Y35590D01*
X399587Y35590D02*
X407873Y35590D01*
X1575Y36299D02*
X54358Y36299D01*
X65641Y36299D02*
X84358Y36299D01*
X95641Y36299D02*
X110776Y36299D01*
X119223Y36299D02*
X120570Y36299D01*
X129429Y36299D02*
X153924Y36299D01*
X167703Y36299D02*
X193546Y36299D01*
X231453Y36299D02*
X303168Y36299D01*
X311831Y36299D02*
X385412Y36299D01*
X399587Y36299D02*
X407873Y36299D01*
X1575Y37008D02*
X55067Y37008D01*
X64932Y37008D02*
X85067Y37008D01*
X94932Y37008D02*
X120570Y37008D01*
X129429Y37008D02*
X154633Y37008D01*
X168354Y37008D02*
X192895Y37008D01*
X232104Y37008D02*
X241866Y37008D01*
X289383Y37008D02*
X303168Y37008D01*
X311831Y37008D02*
X385412Y37008D01*
X399587Y37008D02*
X407873Y37008D01*
X1575Y37716D02*
X55776Y37716D01*
X64223Y37716D02*
X85776Y37716D01*
X94223Y37716D02*
X120570Y37716D01*
X129429Y37716D02*
X155341Y37716D01*
X168615Y37716D02*
X192634Y37716D01*
X232365Y37716D02*
X241157Y37716D01*
X290092Y37716D02*
X303168Y37716D01*
X311831Y37716D02*
X385412Y37716D01*
X399587Y37716D02*
X407873Y37716D01*
X1575Y38425D02*
X56484Y38425D01*
X63515Y38425D02*
X86484Y38425D01*
X93515Y38425D02*
X120310Y38425D01*
X129429Y38425D02*
X156050Y38425D01*
X168876Y38425D02*
X192373Y38425D01*
X232626Y38425D02*
X240449Y38425D01*
X290800Y38425D02*
X303168Y38425D01*
X311831Y38425D02*
X385412Y38425D01*
X399587Y38425D02*
X407873Y38425D01*
X1575Y39134D02*
X119601Y39134D01*
X129429Y39134D02*
X156759Y39134D01*
X169065Y39134D02*
X192184Y39134D01*
X232815Y39134D02*
X239740Y39134D01*
X292454Y39134D02*
X303168Y39134D01*
X311831Y39134D02*
X385412Y39134D01*
X399587Y39134D02*
X407873Y39134D01*
X1575Y39842D02*
X118892Y39842D01*
X129429Y39842D02*
X157467Y39842D01*
X169718Y39842D02*
X192184Y39842D01*
X232815Y39842D02*
X239031Y39842D01*
X293560Y39842D02*
X303168Y39842D01*
X311831Y39842D02*
X385412Y39842D01*
X399587Y39842D02*
X407873Y39842D01*
X1575Y40551D02*
X118184Y40551D01*
X129429Y40551D02*
X158176Y40551D01*
X170426Y40551D02*
X192184Y40551D01*
X232815Y40551D02*
X238323Y40551D01*
X294268Y40551D02*
X303168Y40551D01*
X311831Y40551D02*
X385412Y40551D01*
X399587Y40551D02*
X407873Y40551D01*
X1575Y41260D02*
X117475Y41260D01*
X129429Y41260D02*
X158507Y41260D01*
X171135Y41260D02*
X192257Y41260D01*
X232742Y41260D02*
X237614Y41260D01*
X294720Y41260D02*
X303168Y41260D01*
X311831Y41260D02*
X385599Y41260D01*
X399400Y41260D02*
X407873Y41260D01*
X1575Y41968D02*
X116766Y41968D01*
X129295Y41968D02*
X158768Y41968D01*
X232481Y41968D02*
X236906Y41968D01*
X294981Y41968D02*
X303168Y41968D01*
X311831Y41968D02*
X386307Y41968D01*
X398692Y41968D02*
X407873Y41968D01*
X1575Y42677D02*
X116058Y42677D01*
X128586Y42677D02*
X159029Y42677D01*
X232220Y42677D02*
X236197Y42677D01*
X295243Y42677D02*
X303168Y42677D01*
X311831Y42677D02*
X387016Y42677D01*
X397983Y42677D02*
X407873Y42677D01*
X1575Y43386D02*
X115349Y43386D01*
X127878Y43386D02*
X159482Y43386D01*
X231767Y43386D02*
X235488Y43386D01*
X295315Y43386D02*
X303168Y43386D01*
X311831Y43386D02*
X407873Y43386D01*
X1575Y44094D02*
X114640Y44094D01*
X127169Y44094D02*
X160190Y44094D01*
X231059Y44094D02*
X234780Y44094D01*
X295315Y44094D02*
X303168Y44094D01*
X311831Y44094D02*
X407873Y44094D01*
X1575Y44803D02*
X113932Y44803D01*
X126460Y44803D02*
X161297Y44803D01*
X199952Y44803D02*
X225047Y44803D01*
X229952Y44803D02*
X234071Y44803D01*
X295315Y44803D02*
X303168Y44803D01*
X311831Y44803D02*
X407873Y44803D01*
X1575Y45512D02*
X113223Y45512D01*
X125752Y45512D02*
X163137Y45512D01*
X197887Y45512D02*
X233362Y45512D01*
X295126Y45512D02*
X303168Y45512D01*
X311831Y45512D02*
X407873Y45512D01*
X1575Y46220D02*
X112514Y46220D01*
X125043Y46220D02*
X163845Y46220D01*
X198595Y46220D02*
X232654Y46220D01*
X294865Y46220D02*
X303168Y46220D01*
X406250Y46220D02*
X407873Y46220D01*
X1575Y46929D02*
X111806Y46929D01*
X124334Y46929D02*
X164554Y46929D01*
X199304Y46929D02*
X231945Y46929D01*
X294604Y46929D02*
X303168Y46929D01*
X311831Y46929D02*
X407873Y46929D01*
X1575Y47638D02*
X111097Y47638D01*
X123626Y47638D02*
X165263Y47638D01*
X200013Y47638D02*
X231236Y47638D01*
X293952Y47638D02*
X303168Y47638D01*
X311831Y47638D02*
X407873Y47638D01*
X1575Y48346D02*
X110388Y48346D01*
X122917Y48346D02*
X165971Y48346D01*
X200721Y48346D02*
X230528Y48346D01*
X294189Y48346D02*
X303168Y48346D01*
X311831Y48346D02*
X407873Y48346D01*
X1575Y49055D02*
X109680Y49055D01*
X122208Y49055D02*
X166680Y49055D01*
X201430Y49055D02*
X229819Y49055D01*
X294691Y49055D02*
X303168Y49055D01*
X311831Y49055D02*
X407873Y49055D01*
X1575Y49764D02*
X108971Y49764D01*
X121500Y49764D02*
X145499Y49764D01*
X202528Y49764D02*
X229110Y49764D01*
X294952Y49764D02*
X303168Y49764D01*
X311831Y49764D02*
X407873Y49764D01*
X1575Y50472D02*
X108262Y50472D01*
X120791Y50472D02*
X144791Y50472D01*
X204376Y50472D02*
X228402Y50472D01*
X295213Y50472D02*
X303168Y50472D01*
X311831Y50472D02*
X407873Y50472D01*
X1575Y51181D02*
X88266Y51181D01*
X91733Y51181D02*
X107554Y51181D01*
X120082Y51181D02*
X144082Y51181D01*
X205085Y51181D02*
X227693Y51181D01*
X295315Y51181D02*
X303168Y51181D01*
X311831Y51181D02*
X407873Y51181D01*
X1575Y51890D02*
X86705Y51890D01*
X119374Y51890D02*
X143897Y51890D01*
X205794Y51890D02*
X226984Y51890D01*
X295315Y51890D02*
X303168Y51890D01*
X311831Y51890D02*
X407873Y51890D01*
X1575Y52598D02*
X85997Y52598D01*
X118665Y52598D02*
X143897Y52598D01*
X206072Y52598D02*
X226276Y52598D01*
X295315Y52598D02*
X303168Y52598D01*
X311831Y52598D02*
X407873Y52598D01*
X1575Y53307D02*
X85377Y53307D01*
X117956Y53307D02*
X143897Y53307D01*
X206333Y53307D02*
X225567Y53307D01*
X295155Y53307D02*
X303168Y53307D01*
X311831Y53307D02*
X407873Y53307D01*
X1575Y54016D02*
X85115Y54016D01*
X117248Y54016D02*
X143897Y54016D01*
X206565Y54016D02*
X224858Y54016D01*
X294894Y54016D02*
X303168Y54016D01*
X311831Y54016D02*
X407873Y54016D01*
X1575Y54724D02*
X84854Y54724D01*
X116539Y54724D02*
X118827Y54724D01*
X121172Y54724D02*
X143897Y54724D01*
X194685Y54724D02*
X194849Y54724D01*
X206565Y54724D02*
X224150Y54724D01*
X294633Y54724D02*
X303168Y54724D01*
X311831Y54724D02*
X407873Y54724D01*
X1575Y55433D02*
X84684Y55433D01*
X115830Y55433D02*
X116912Y55433D01*
X123087Y55433D02*
X143897Y55433D01*
X194685Y55433D02*
X195558Y55433D01*
X206565Y55433D02*
X223441Y55433D01*
X294031Y55433D02*
X303168Y55433D01*
X311831Y55433D02*
X407873Y55433D01*
X1575Y56142D02*
X84684Y56142D01*
X115122Y56142D02*
X116203Y56142D01*
X123796Y56142D02*
X143897Y56142D01*
X194685Y56142D02*
X195963Y56142D01*
X206536Y56142D02*
X222732Y56142D01*
X293323Y56142D02*
X303168Y56142D01*
X311831Y56142D02*
X407873Y56142D01*
X1575Y56850D02*
X84684Y56850D01*
X114413Y56850D02*
X115495Y56850D01*
X124504Y56850D02*
X143897Y56850D01*
X194685Y56850D02*
X196224Y56850D01*
X206275Y56850D02*
X222024Y56850D01*
X281565Y56850D02*
X288188Y56850D01*
X291811Y56850D02*
X303168Y56850D01*
X311831Y56850D02*
X407873Y56850D01*
X1575Y57559D02*
X84775Y57559D01*
X113704Y57559D02*
X115192Y57559D01*
X124807Y57559D02*
X143897Y57559D01*
X194685Y57559D02*
X196485Y57559D01*
X206014Y57559D02*
X221315Y57559D01*
X281474Y57559D02*
X303168Y57559D01*
X311831Y57559D02*
X407873Y57559D01*
X1575Y58268D02*
X85036Y58268D01*
X112996Y58268D02*
X114931Y58268D01*
X125068Y58268D02*
X143897Y58268D01*
X194685Y58268D02*
X196864Y58268D01*
X205636Y58268D02*
X220606Y58268D01*
X281213Y58268D02*
X303168Y58268D01*
X311831Y58268D02*
X407873Y58268D01*
X1575Y58976D02*
X85297Y58976D01*
X112287Y58976D02*
X114684Y58976D01*
X125315Y58976D02*
X144240Y58976D01*
X194341Y58976D02*
X197572Y58976D01*
X204927Y58976D02*
X219898Y58976D01*
X280952Y58976D02*
X303168Y58976D01*
X311831Y58976D02*
X407873Y58976D01*
X1575Y59685D02*
X85570Y59685D01*
X111578Y59685D02*
X113934Y59685D01*
X125810Y59685D02*
X144949Y59685D01*
X193633Y59685D02*
X198477Y59685D01*
X204022Y59685D02*
X219189Y59685D01*
X290000Y59685D02*
X302939Y59685D01*
X311831Y59685D02*
X407873Y59685D01*
X1575Y60394D02*
X85570Y60394D01*
X110870Y60394D02*
X112011Y60394D01*
X126519Y60394D02*
X145658Y60394D01*
X192924Y60394D02*
X218480Y60394D01*
X279760Y60394D02*
X302230Y60394D01*
X311831Y60394D02*
X407873Y60394D01*
X1575Y61102D02*
X85570Y61102D01*
X94429Y61102D02*
X103743Y61102D01*
X127227Y61102D02*
X217772Y61102D01*
X311831Y61102D02*
X407873Y61102D01*
X1575Y61811D02*
X85570Y61811D01*
X94429Y61811D02*
X103034Y61811D01*
X127936Y61811D02*
X217063Y61811D01*
X311831Y61811D02*
X407873Y61811D01*
X1575Y62520D02*
X85570Y62520D01*
X94429Y62520D02*
X102706Y62520D01*
X128645Y62520D02*
X216354Y62520D01*
X311831Y62520D02*
X407873Y62520D01*
X1575Y63228D02*
X85570Y63228D01*
X94429Y63228D02*
X102445Y63228D01*
X311646Y63228D02*
X407873Y63228D01*
X1575Y63937D02*
X85570Y63937D01*
X94429Y63937D02*
X102184Y63937D01*
X310937Y63937D02*
X407873Y63937D01*
X1575Y64646D02*
X85570Y64646D01*
X94429Y64646D02*
X102184Y64646D01*
X310229Y64646D02*
X407873Y64646D01*
X1575Y65354D02*
X85570Y65354D01*
X94429Y65354D02*
X102184Y65354D01*
X309520Y65354D02*
X407873Y65354D01*
X1575Y66063D02*
X85570Y66063D01*
X94429Y66063D02*
X102184Y66063D01*
X308811Y66063D02*
X407873Y66063D01*
X1575Y66772D02*
X85570Y66772D01*
X94429Y66772D02*
X102445Y66772D01*
X308103Y66772D02*
X407873Y66772D01*
X1575Y67480D02*
X85570Y67480D01*
X94429Y67480D02*
X102706Y67480D01*
X307394Y67480D02*
X407873Y67480D01*
X1575Y68189D02*
X85570Y68189D01*
X94429Y68189D02*
X103035Y68189D01*
X306685Y68189D02*
X407873Y68189D01*
X1575Y68898D02*
X85570Y68898D01*
X94429Y68898D02*
X103743Y68898D01*
X305977Y68898D02*
X407873Y68898D01*
X1575Y69606D02*
X85570Y69606D01*
X100572Y69606D02*
X104513Y69606D01*
X279760Y69606D02*
X407873Y69606D01*
X1575Y70315D02*
X85570Y70315D01*
X101281Y70315D02*
X106436Y70315D01*
X280469Y70315D02*
X407873Y70315D01*
X1575Y71024D02*
X85570Y71024D01*
X101959Y71024D02*
X106194Y71024D01*
X280952Y71024D02*
X407873Y71024D01*
X1575Y71732D02*
X85570Y71732D01*
X101959Y71732D02*
X104363Y71732D01*
X281213Y71732D02*
X407873Y71732D01*
X1575Y72441D02*
X85570Y72441D01*
X101959Y72441D02*
X103654Y72441D01*
X281474Y72441D02*
X407873Y72441D01*
X1575Y73150D02*
X85570Y73150D01*
X101959Y73150D02*
X102945Y73150D01*
X281565Y73150D02*
X407873Y73150D01*
X1575Y73858D02*
X85570Y73858D01*
X101959Y73858D02*
X102674Y73858D01*
X281565Y73858D02*
X407873Y73858D01*
X1575Y74567D02*
X85570Y74567D01*
X101959Y74567D02*
X102412Y74567D01*
X281565Y74567D02*
X407873Y74567D01*
X1575Y75275D02*
X85570Y75275D01*
X101959Y75275D02*
X102184Y75275D01*
X281394Y75275D02*
X407873Y75275D01*
X1575Y75984D02*
X85570Y75984D01*
X101959Y75984D02*
X102184Y75984D01*
X281133Y75984D02*
X407873Y75984D01*
X1575Y76693D02*
X85570Y76693D01*
X101959Y76693D02*
X102184Y76693D01*
X280872Y76693D02*
X407873Y76693D01*
X1575Y77401D02*
X85570Y77401D01*
X101959Y77401D02*
X102217Y77401D01*
X280252Y77401D02*
X407873Y77401D01*
X1575Y78110D02*
X85570Y78110D01*
X101959Y78110D02*
X102478Y78110D01*
X279543Y78110D02*
X407873Y78110D01*
X1575Y78819D02*
X85570Y78819D01*
X101911Y78819D02*
X102739Y78819D01*
X277980Y78819D02*
X407873Y78819D01*
X1575Y79527D02*
X85570Y79527D01*
X101959Y79527D02*
X103123Y79527D01*
X276736Y79527D02*
X407873Y79527D01*
X1575Y80236D02*
X85570Y80236D01*
X101959Y80236D02*
X103832Y80236D01*
X276027Y80236D02*
X407873Y80236D01*
X1575Y80945D02*
X85570Y80945D01*
X101959Y80945D02*
X104753Y80945D01*
X275319Y80945D02*
X407873Y80945D01*
X1575Y81653D02*
X85570Y81653D01*
X101959Y81653D02*
X106778Y81653D01*
X274610Y81653D02*
X407873Y81653D01*
X1575Y82362D02*
X85570Y82362D01*
X101959Y82362D02*
X107487Y82362D01*
X273901Y82362D02*
X407873Y82362D01*
X1575Y83071D02*
X85570Y83071D01*
X101959Y83071D02*
X108196Y83071D01*
X273193Y83071D02*
X407873Y83071D01*
X1575Y83779D02*
X85570Y83779D01*
X101959Y83779D02*
X160094Y83779D01*
X272484Y83779D02*
X407873Y83779D01*
X1575Y84488D02*
X85570Y84488D01*
X101959Y84488D02*
X159386Y84488D01*
X271775Y84488D02*
X407873Y84488D01*
X1575Y85197D02*
X85570Y85197D01*
X101959Y85197D02*
X158677Y85197D01*
X271067Y85197D02*
X407873Y85197D01*
X1575Y85905D02*
X85570Y85905D01*
X101959Y85905D02*
X158168Y85905D01*
X270358Y85905D02*
X407873Y85905D01*
X1575Y86614D02*
X85570Y86614D01*
X101477Y86614D02*
X158168Y86614D01*
X269649Y86614D02*
X407873Y86614D01*
X1575Y87323D02*
X85570Y87323D01*
X100769Y87323D02*
X131336Y87323D01*
X134214Y87323D02*
X158168Y87323D01*
X268941Y87323D02*
X407873Y87323D01*
X1575Y88031D02*
X85570Y88031D01*
X100060Y88031D02*
X129589Y88031D01*
X135961Y88031D02*
X158168Y88031D01*
X268232Y88031D02*
X407873Y88031D01*
X1575Y88740D02*
X85570Y88740D01*
X94429Y88740D02*
X128880Y88740D01*
X136670Y88740D02*
X158168Y88740D01*
X267523Y88740D02*
X407873Y88740D01*
X1575Y89449D02*
X85570Y89449D01*
X94429Y89449D02*
X128192Y89449D01*
X137358Y89449D02*
X158168Y89449D01*
X266815Y89449D02*
X407873Y89449D01*
X1575Y90157D02*
X85570Y90157D01*
X94429Y90157D02*
X127931Y90157D01*
X137619Y90157D02*
X158168Y90157D01*
X266106Y90157D02*
X407873Y90157D01*
X1575Y90866D02*
X85570Y90866D01*
X94429Y90866D02*
X127670Y90866D01*
X137880Y90866D02*
X158168Y90866D01*
X265397Y90866D02*
X407873Y90866D01*
X1575Y91575D02*
X85570Y91575D01*
X94429Y91575D02*
X127460Y91575D01*
X138090Y91575D02*
X158168Y91575D01*
X264689Y91575D02*
X407873Y91575D01*
X1575Y92283D02*
X85570Y92283D01*
X94429Y92283D02*
X127460Y92283D01*
X138090Y92283D02*
X158168Y92283D01*
X286250Y92283D02*
X407873Y92283D01*
X1575Y92992D02*
X85570Y92992D01*
X94429Y92992D02*
X127460Y92992D01*
X138090Y92992D02*
X158103Y92992D01*
X286250Y92992D02*
X407873Y92992D01*
X1575Y93701D02*
X85570Y93701D01*
X94429Y93701D02*
X127511Y93701D01*
X138040Y93701D02*
X157732Y93701D01*
X220063Y93701D02*
X407873Y93701D01*
X1575Y94409D02*
X85570Y94409D01*
X94429Y94409D02*
X127772Y94409D01*
X137778Y94409D02*
X157470Y94409D01*
X219354Y94409D02*
X407873Y94409D01*
X1575Y95118D02*
X85570Y95118D01*
X94429Y95118D02*
X128033Y95118D01*
X137517Y95118D02*
X157209Y95118D01*
X218645Y95118D02*
X407873Y95118D01*
X1575Y95827D02*
X85570Y95827D01*
X94429Y95827D02*
X128346Y95827D01*
X137205Y95827D02*
X157184Y95827D01*
X217937Y95827D02*
X407873Y95827D01*
X1575Y96535D02*
X85570Y96535D01*
X94429Y96535D02*
X128346Y96535D01*
X137205Y96535D02*
X157184Y96535D01*
X217228Y96535D02*
X407873Y96535D01*
X1575Y97244D02*
X85570Y97244D01*
X94429Y97244D02*
X128346Y97244D01*
X137205Y97244D02*
X157184Y97244D01*
X216929Y97244D02*
X407873Y97244D01*
X1575Y97953D02*
X85570Y97953D01*
X94429Y97953D02*
X128346Y97953D01*
X137205Y97953D02*
X157420Y97953D01*
X216929Y97953D02*
X407873Y97953D01*
X1575Y98661D02*
X85570Y98661D01*
X94429Y98661D02*
X128346Y98661D01*
X137426Y98661D02*
X155745Y98661D01*
X216929Y98661D02*
X407873Y98661D01*
X1575Y99370D02*
X85570Y99370D01*
X94429Y99370D02*
X128346Y99370D01*
X138134Y99370D02*
X155037Y99370D01*
X217393Y99370D02*
X217606Y99370D01*
X227393Y99370D02*
X227606Y99370D01*
X237393Y99370D02*
X237606Y99370D01*
X247393Y99370D02*
X407873Y99370D01*
X1575Y100079D02*
X85570Y100079D01*
X94429Y100079D02*
X128346Y100079D01*
X138843Y100079D02*
X154328Y100079D01*
X248102Y100079D02*
X407873Y100079D01*
X1575Y100787D02*
X85570Y100787D01*
X94429Y100787D02*
X128346Y100787D01*
X139552Y100787D02*
X154290Y100787D01*
X248799Y100787D02*
X407873Y100787D01*
X1575Y101496D02*
X85570Y101496D01*
X94429Y101496D02*
X128346Y101496D01*
X140260Y101496D02*
X154290Y101496D01*
X248799Y101496D02*
X407873Y101496D01*
X1575Y102205D02*
X85570Y102205D01*
X94429Y102205D02*
X128440Y102205D01*
X140969Y102205D02*
X154290Y102205D01*
X248799Y102205D02*
X407873Y102205D01*
X1575Y102913D02*
X85570Y102913D01*
X94429Y102913D02*
X129149Y102913D01*
X141678Y102913D02*
X154290Y102913D01*
X248799Y102913D02*
X407873Y102913D01*
X1575Y103622D02*
X85570Y103622D01*
X94429Y103622D02*
X129858Y103622D01*
X142386Y103622D02*
X154290Y103622D01*
X248799Y103622D02*
X407873Y103622D01*
X1575Y104331D02*
X85570Y104331D01*
X94429Y104331D02*
X130566Y104331D01*
X143095Y104331D02*
X154290Y104331D01*
X248799Y104331D02*
X407873Y104331D01*
X1575Y105039D02*
X85570Y105039D01*
X94429Y105039D02*
X131275Y105039D01*
X143804Y105039D02*
X154290Y105039D01*
X248799Y105039D02*
X407873Y105039D01*
X1575Y105748D02*
X85570Y105748D01*
X94429Y105748D02*
X131984Y105748D01*
X144512Y105748D02*
X154290Y105748D01*
X248799Y105748D02*
X407873Y105748D01*
X1575Y106457D02*
X85570Y106457D01*
X94429Y106457D02*
X132692Y106457D01*
X145221Y106457D02*
X154290Y106457D01*
X248799Y106457D02*
X407873Y106457D01*
X1575Y107165D02*
X85570Y107165D01*
X94429Y107165D02*
X133401Y107165D01*
X145930Y107165D02*
X154290Y107165D01*
X248799Y107165D02*
X407873Y107165D01*
X1575Y107874D02*
X85570Y107874D01*
X94429Y107874D02*
X134110Y107874D01*
X146638Y107874D02*
X154782Y107874D01*
X248799Y107874D02*
X407873Y107874D01*
X1575Y108583D02*
X85570Y108583D01*
X94429Y108583D02*
X134818Y108583D01*
X248799Y108583D02*
X407873Y108583D01*
X1575Y109291D02*
X85570Y109291D01*
X94429Y109291D02*
X135527Y109291D01*
X248731Y109291D02*
X407873Y109291D01*
X1575Y110000D02*
X85570Y110000D01*
X94429Y110000D02*
X136236Y110000D01*
X248022Y110000D02*
X407873Y110000D01*
X1575Y110709D02*
X85570Y110709D01*
X94429Y110709D02*
X136944Y110709D01*
X227314Y110709D02*
X227685Y110709D01*
X237314Y110709D02*
X237685Y110709D01*
X247314Y110709D02*
X407873Y110709D01*
X1575Y111417D02*
X85570Y111417D01*
X94429Y111417D02*
X137653Y111417D01*
X226831Y111417D02*
X407873Y111417D01*
X1575Y112126D02*
X85570Y112126D01*
X94429Y112126D02*
X138362Y112126D01*
X226831Y112126D02*
X407873Y112126D01*
X1575Y112835D02*
X85570Y112835D01*
X94429Y112835D02*
X139070Y112835D01*
X226831Y112835D02*
X407873Y112835D01*
X1575Y113543D02*
X85570Y113543D01*
X94429Y113543D02*
X139779Y113543D01*
X226831Y113543D02*
X407873Y113543D01*
X1575Y114252D02*
X85570Y114252D01*
X94429Y114252D02*
X140488Y114252D01*
X226831Y114252D02*
X407873Y114252D01*
X1575Y114961D02*
X85570Y114961D01*
X94429Y114961D02*
X141196Y114961D01*
X226831Y114961D02*
X407873Y114961D01*
X1575Y115669D02*
X85570Y115669D01*
X94429Y115669D02*
X141905Y115669D01*
X226831Y115669D02*
X407873Y115669D01*
X1575Y116378D02*
X85570Y116378D01*
X94429Y116378D02*
X142614Y116378D01*
X226831Y116378D02*
X407873Y116378D01*
X1575Y117087D02*
X85570Y117087D01*
X94429Y117087D02*
X156959Y117087D01*
X163040Y117087D02*
X209459Y117087D01*
X226831Y117087D02*
X407873Y117087D01*
X1575Y117795D02*
X85570Y117795D01*
X94429Y117795D02*
X158883Y117795D01*
X161116Y117795D02*
X192278Y117795D01*
X197721Y117795D02*
X211383Y117795D01*
X213616Y117795D02*
X214829Y117795D01*
X236250Y117795D02*
X407873Y117795D01*
X1575Y118504D02*
X85570Y118504D01*
X94429Y118504D02*
X191341Y118504D01*
X226370Y118504D02*
X407873Y118504D01*
X1575Y119212D02*
X85570Y119212D01*
X94429Y119212D02*
X190632Y119212D01*
X225662Y119212D02*
X407873Y119212D01*
X1575Y119921D02*
X85570Y119921D01*
X94429Y119921D02*
X190242Y119921D01*
X224953Y119921D02*
X407873Y119921D01*
X1575Y120630D02*
X85570Y120630D01*
X94429Y120630D02*
X189981Y120630D01*
X224244Y120630D02*
X407873Y120630D01*
X1575Y121338D02*
X85570Y121338D01*
X94429Y121338D02*
X189720Y121338D01*
X223536Y121338D02*
X407873Y121338D01*
X1575Y122047D02*
X85570Y122047D01*
X94429Y122047D02*
X189684Y122047D01*
X222827Y122047D02*
X407873Y122047D01*
X1575Y122756D02*
X85570Y122756D01*
X94429Y122756D02*
X189684Y122756D01*
X222118Y122756D02*
X407873Y122756D01*
X1575Y123464D02*
X85570Y123464D01*
X94429Y123464D02*
X189684Y123464D01*
X221410Y123464D02*
X407873Y123464D01*
X1575Y124173D02*
X85570Y124173D01*
X94429Y124173D02*
X189909Y124173D01*
X220701Y124173D02*
X407873Y124173D01*
X1575Y124882D02*
X85257Y124882D01*
X94742Y124882D02*
X190170Y124882D01*
X220996Y124882D02*
X407873Y124882D01*
X1575Y125590D02*
X84996Y125590D01*
X95003Y125590D02*
X190436Y125590D01*
X221257Y125590D02*
X407873Y125590D01*
X1575Y126299D02*
X84735Y126299D01*
X95264Y126299D02*
X191145Y126299D01*
X221518Y126299D02*
X407873Y126299D01*
X1575Y127008D02*
X84684Y127008D01*
X95315Y127008D02*
X191854Y127008D01*
X198145Y127008D02*
X210934Y127008D01*
X221565Y127008D02*
X407873Y127008D01*
X1575Y127716D02*
X84684Y127716D01*
X142224Y127716D02*
X193669Y127716D01*
X196330Y127716D02*
X210934Y127716D01*
X221565Y127716D02*
X407873Y127716D01*
X1575Y128425D02*
X84684Y128425D01*
X124901Y128425D02*
X210934Y128425D01*
X221565Y128425D02*
X407873Y128425D01*
X1575Y129134D02*
X84895Y129134D01*
X95104Y129134D02*
X211148Y129134D01*
X221351Y129134D02*
X407873Y129134D01*
X1575Y129842D02*
X85156Y129842D01*
X94843Y129842D02*
X211409Y129842D01*
X236250Y129842D02*
X407873Y129842D01*
X1575Y130551D02*
X85417Y130551D01*
X94582Y130551D02*
X211670Y130551D01*
X236250Y130551D02*
X407873Y130551D01*
X1575Y131260D02*
X86106Y131260D01*
X93893Y131260D02*
X212365Y131260D01*
X220134Y131260D02*
X407873Y131260D01*
X1575Y131968D02*
X86814Y131968D01*
X93185Y131968D02*
X213074Y131968D01*
X219425Y131968D02*
X407873Y131968D01*
X1575Y132677D02*
X88562Y132677D01*
X91437Y132677D02*
X214839Y132677D01*
X217660Y132677D02*
X407873Y132677D01*
X1575Y133386D02*
X407873Y133386D01*
X1575Y134094D02*
X407873Y134094D01*
X1575Y134803D02*
X407873Y134803D01*
X1575Y135512D02*
X407873Y135512D01*
X1575Y136220D02*
X407873Y136220D01*
X1575Y136929D02*
X407873Y136929D01*
X360000Y137638D02*
X407873Y137638D01*
X256250Y138346D02*
X407873Y138346D01*
X1575Y139055D02*
X407873Y139055D01*
X1575Y139764D02*
X267105Y139764D01*
X382894Y139764D02*
X407873Y139764D01*
X1575Y140472D02*
X267105Y140472D01*
X382894Y140472D02*
X407873Y140472D01*
X1575Y141181D02*
X88266Y141181D01*
X91733Y141181D02*
X267105Y141181D01*
X382894Y141181D02*
X407873Y141181D01*
X1575Y141890D02*
X86705Y141890D01*
X93294Y141890D02*
X267105Y141890D01*
X382894Y141890D02*
X407873Y141890D01*
X1575Y142598D02*
X85997Y142598D01*
X94002Y142598D02*
X267105Y142598D01*
X382894Y142598D02*
X407873Y142598D01*
X1575Y143307D02*
X85377Y143307D01*
X94622Y143307D02*
X267105Y143307D01*
X382894Y143307D02*
X407873Y143307D01*
X1575Y144016D02*
X85115Y144016D01*
X94884Y144016D02*
X267105Y144016D01*
X382894Y144016D02*
X407873Y144016D01*
X1575Y144724D02*
X84854Y144724D01*
X95145Y144724D02*
X267105Y144724D01*
X382894Y144724D02*
X407873Y144724D01*
X1575Y145433D02*
X84684Y145433D01*
X95315Y145433D02*
X267105Y145433D01*
X382894Y145433D02*
X407873Y145433D01*
X1575Y146142D02*
X84684Y146142D01*
X256250Y146142D02*
X267105Y146142D01*
X382894Y146142D02*
X407873Y146142D01*
X1575Y146850D02*
X84684Y146850D01*
X95315Y146850D02*
X267105Y146850D01*
X382894Y146850D02*
X407873Y146850D01*
X1575Y147559D02*
X84775Y147559D01*
X95224Y147559D02*
X182919Y147559D01*
X187080Y147559D02*
X267105Y147559D01*
X382894Y147559D02*
X407873Y147559D01*
X1575Y148268D02*
X85036Y148268D01*
X94963Y148268D02*
X181577Y148268D01*
X188422Y148268D02*
X267105Y148268D01*
X382894Y148268D02*
X407873Y148268D01*
X1575Y148976D02*
X85297Y148976D01*
X94702Y148976D02*
X180869Y148976D01*
X189130Y148976D02*
X267105Y148976D01*
X382894Y148976D02*
X407873Y148976D01*
X1575Y149685D02*
X85570Y149685D01*
X94429Y149685D02*
X180329Y149685D01*
X189670Y149685D02*
X267105Y149685D01*
X382894Y149685D02*
X407873Y149685D01*
X1575Y150394D02*
X85570Y150394D01*
X94429Y150394D02*
X180068Y150394D01*
X189931Y150394D02*
X267105Y150394D01*
X382894Y150394D02*
X407873Y150394D01*
X1575Y151102D02*
X85570Y151102D01*
X94429Y151102D02*
X179807Y151102D01*
X190192Y151102D02*
X267105Y151102D01*
X382894Y151102D02*
X407873Y151102D01*
X1575Y151811D02*
X85570Y151811D01*
X94429Y151811D02*
X179684Y151811D01*
X190575Y151811D02*
X267105Y151811D01*
X382894Y151811D02*
X407873Y151811D01*
X1575Y152520D02*
X85570Y152520D01*
X94429Y152520D02*
X179684Y152520D01*
X191284Y152520D02*
X267105Y152520D01*
X382894Y152520D02*
X407873Y152520D01*
X1575Y153228D02*
X85570Y153228D01*
X94429Y153228D02*
X179684Y153228D01*
X191993Y153228D02*
X267105Y153228D01*
X382894Y153228D02*
X407873Y153228D01*
X1575Y153937D02*
X85570Y153937D01*
X94429Y153937D02*
X179822Y153937D01*
X192701Y153937D02*
X267105Y153937D01*
X382894Y153937D02*
X407873Y153937D01*
X1575Y154646D02*
X85570Y154646D01*
X94429Y154646D02*
X180083Y154646D01*
X193410Y154646D02*
X267105Y154646D01*
X382894Y154646D02*
X407873Y154646D01*
X1575Y155354D02*
X85570Y155354D01*
X94429Y155354D02*
X180344Y155354D01*
X194119Y155354D02*
X267105Y155354D01*
X382894Y155354D02*
X407873Y155354D01*
X1575Y156063D02*
X85570Y156063D01*
X94429Y156063D02*
X180909Y156063D01*
X194827Y156063D02*
X267105Y156063D01*
X382894Y156063D02*
X407873Y156063D01*
X1575Y156772D02*
X85570Y156772D01*
X94429Y156772D02*
X181617Y156772D01*
X195536Y156772D02*
X267105Y156772D01*
X382894Y156772D02*
X407873Y156772D01*
X1575Y157480D02*
X85570Y157480D01*
X94429Y157480D02*
X183028Y157480D01*
X196245Y157480D02*
X267105Y157480D01*
X382894Y157480D02*
X407873Y157480D01*
X1575Y158189D02*
X85570Y158189D01*
X94429Y158189D02*
X184425Y158189D01*
X196953Y158189D02*
X267105Y158189D01*
X382894Y158189D02*
X407873Y158189D01*
X1575Y158898D02*
X85570Y158898D01*
X94429Y158898D02*
X185133Y158898D01*
X197662Y158898D02*
X267105Y158898D01*
X382894Y158898D02*
X407873Y158898D01*
X1575Y159606D02*
X85570Y159606D01*
X94429Y159606D02*
X185842Y159606D01*
X198370Y159606D02*
X267105Y159606D01*
X382894Y159606D02*
X407873Y159606D01*
X1575Y160315D02*
X85570Y160315D01*
X94429Y160315D02*
X186551Y160315D01*
X199079Y160315D02*
X267105Y160315D01*
X382894Y160315D02*
X407873Y160315D01*
X1575Y161024D02*
X85570Y161024D01*
X94429Y161024D02*
X187259Y161024D01*
X199788Y161024D02*
X267105Y161024D01*
X382894Y161024D02*
X407873Y161024D01*
X1575Y161732D02*
X85570Y161732D01*
X94429Y161732D02*
X187968Y161732D01*
X200496Y161732D02*
X267105Y161732D01*
X382894Y161732D02*
X407873Y161732D01*
X1575Y162441D02*
X10802Y162441D01*
X16756Y162441D02*
X85570Y162441D01*
X94429Y162441D02*
X188677Y162441D01*
X201205Y162441D02*
X267105Y162441D01*
X382894Y162441D02*
X392691Y162441D01*
X398646Y162441D02*
X407873Y162441D01*
X1575Y163150D02*
X9527Y163150D01*
X18031Y163150D02*
X85570Y163150D01*
X94429Y163150D02*
X189385Y163150D01*
X201914Y163150D02*
X267105Y163150D01*
X382894Y163150D02*
X391417Y163150D01*
X399921Y163150D02*
X407873Y163150D01*
X1575Y163858D02*
X8664Y163858D01*
X18894Y163858D02*
X85570Y163858D01*
X94429Y163858D02*
X125286Y163858D01*
X129713Y163858D02*
X190094Y163858D01*
X202622Y163858D02*
X267105Y163858D01*
X382894Y163858D02*
X390553Y163858D01*
X400784Y163858D02*
X407873Y163858D01*
X1575Y164567D02*
X8025Y164567D01*
X19533Y164567D02*
X85570Y164567D01*
X94429Y164567D02*
X124028Y164567D01*
X130971Y164567D02*
X190803Y164567D01*
X203331Y164567D02*
X267105Y164567D01*
X382894Y164567D02*
X389915Y164567D01*
X401423Y164567D02*
X407873Y164567D01*
X1575Y165275D02*
X7484Y165275D01*
X20074Y165275D02*
X85570Y165275D01*
X94429Y165275D02*
X123319Y165275D01*
X131680Y165275D02*
X191511Y165275D01*
X204040Y165275D02*
X267105Y165275D01*
X382894Y165275D02*
X389374Y165275D01*
X401964Y165275D02*
X407873Y165275D01*
X1575Y165984D02*
X7105Y165984D01*
X20453Y165984D02*
X85570Y165984D01*
X94429Y165984D02*
X122811Y165984D01*
X132188Y165984D02*
X192220Y165984D01*
X204748Y165984D02*
X267105Y165984D01*
X382894Y165984D02*
X388995Y165984D01*
X402343Y165984D02*
X407873Y165984D01*
X1575Y166693D02*
X6787Y166693D01*
X20771Y166693D02*
X85570Y166693D01*
X94429Y166693D02*
X101366Y166693D01*
X108633Y166693D02*
X122550Y166693D01*
X132449Y166693D02*
X192929Y166693D01*
X205457Y166693D02*
X221366Y166693D01*
X228633Y166693D02*
X267105Y166693D01*
X382894Y166693D02*
X388677Y166693D01*
X402660Y166693D02*
X407873Y166693D01*
X1575Y167401D02*
X6572Y167401D01*
X20986Y167401D02*
X85570Y167401D01*
X94429Y167401D02*
X100657Y167401D01*
X109342Y167401D02*
X122289Y167401D01*
X132710Y167401D02*
X193637Y167401D01*
X206166Y167401D02*
X220657Y167401D01*
X229342Y167401D02*
X267105Y167401D01*
X382894Y167401D02*
X388462Y167401D01*
X402875Y167401D02*
X407873Y167401D01*
X1575Y168110D02*
X6415Y168110D01*
X21143Y168110D02*
X85570Y168110D01*
X94429Y168110D02*
X99948Y168110D01*
X110051Y168110D02*
X122184Y168110D01*
X132815Y168110D02*
X194346Y168110D01*
X206874Y168110D02*
X219948Y168110D01*
X230051Y168110D02*
X267105Y168110D01*
X382894Y168110D02*
X388304Y168110D01*
X403033Y168110D02*
X407873Y168110D01*
X1575Y168819D02*
X6345Y168819D01*
X21213Y168819D02*
X85570Y168819D01*
X94429Y168819D02*
X99240Y168819D01*
X110759Y168819D02*
X122184Y168819D01*
X132815Y168819D02*
X195054Y168819D01*
X207583Y168819D02*
X219240Y168819D01*
X230759Y168819D02*
X267105Y168819D01*
X382894Y168819D02*
X388235Y168819D01*
X403103Y168819D02*
X407873Y168819D01*
X1575Y169527D02*
X6322Y169527D01*
X21236Y169527D02*
X85570Y169527D01*
X94429Y169527D02*
X98531Y169527D01*
X111468Y169527D02*
X122184Y169527D01*
X132815Y169527D02*
X195763Y169527D01*
X208292Y169527D02*
X218531Y169527D01*
X231468Y169527D02*
X267105Y169527D01*
X382894Y169527D02*
X388211Y169527D01*
X403126Y169527D02*
X407873Y169527D01*
X1575Y170236D02*
X6391Y170236D01*
X21167Y170236D02*
X85570Y170236D01*
X94429Y170236D02*
X98503Y170236D01*
X111496Y170236D02*
X122340Y170236D01*
X132659Y170236D02*
X196472Y170236D01*
X209000Y170236D02*
X218503Y170236D01*
X231496Y170236D02*
X267105Y170236D01*
X382894Y170236D02*
X388281Y170236D01*
X403056Y170236D02*
X407873Y170236D01*
X1575Y170945D02*
X6501Y170945D01*
X21057Y170945D02*
X85570Y170945D01*
X94429Y170945D02*
X98503Y170945D01*
X111496Y170945D02*
X122601Y170945D01*
X132398Y170945D02*
X197180Y170945D01*
X209709Y170945D02*
X218503Y170945D01*
X231496Y170945D02*
X267105Y170945D01*
X382894Y170945D02*
X388391Y170945D01*
X402947Y170945D02*
X407873Y170945D01*
X1575Y171653D02*
X6716Y171653D01*
X20842Y171653D02*
X85570Y171653D01*
X94429Y171653D02*
X98503Y171653D01*
X111496Y171653D02*
X122862Y171653D01*
X132137Y171653D02*
X197889Y171653D01*
X210418Y171653D02*
X218503Y171653D01*
X231496Y171653D02*
X267105Y171653D01*
X382894Y171653D02*
X388606Y171653D01*
X402732Y171653D02*
X407873Y171653D01*
X1575Y172362D02*
X6979Y172362D01*
X20579Y172362D02*
X85570Y172362D01*
X94429Y172362D02*
X98503Y172362D01*
X111496Y172362D02*
X123070Y172362D01*
X131929Y172362D02*
X198598Y172362D01*
X211126Y172362D02*
X218503Y172362D01*
X231496Y172362D02*
X267105Y172362D01*
X382894Y172362D02*
X388869Y172362D01*
X402469Y172362D02*
X407873Y172362D01*
X1575Y173071D02*
X7358Y173071D01*
X20200Y173071D02*
X85570Y173071D01*
X94429Y173071D02*
X98503Y173071D01*
X111496Y173071D02*
X123070Y173071D01*
X131929Y173071D02*
X199306Y173071D01*
X211835Y173071D02*
X218503Y173071D01*
X231496Y173071D02*
X267105Y173071D01*
X382894Y173071D02*
X389248Y173071D01*
X402090Y173071D02*
X407873Y173071D01*
X1575Y173779D02*
X7832Y173779D01*
X19726Y173779D02*
X85570Y173779D01*
X94429Y173779D02*
X98503Y173779D01*
X111496Y173779D02*
X123070Y173779D01*
X131929Y173779D02*
X200015Y173779D01*
X212544Y173779D02*
X218503Y173779D01*
X231496Y173779D02*
X267105Y173779D01*
X382894Y173779D02*
X389722Y173779D01*
X401616Y173779D02*
X407873Y173779D01*
X1575Y174488D02*
X8414Y174488D01*
X19145Y174488D02*
X85570Y174488D01*
X94429Y174488D02*
X98503Y174488D01*
X111496Y174488D02*
X123070Y174488D01*
X131929Y174488D02*
X200724Y174488D01*
X213252Y174488D02*
X218503Y174488D01*
X231496Y174488D02*
X267105Y174488D01*
X382894Y174488D02*
X390303Y174488D01*
X401034Y174488D02*
X407873Y174488D01*
X1575Y175197D02*
X9240Y175197D01*
X18318Y175197D02*
X85570Y175197D01*
X94429Y175197D02*
X98503Y175197D01*
X111496Y175197D02*
X123070Y175197D01*
X131929Y175197D02*
X201432Y175197D01*
X213961Y175197D02*
X218503Y175197D01*
X231496Y175197D02*
X267105Y175197D01*
X382894Y175197D02*
X391130Y175197D01*
X400208Y175197D02*
X407873Y175197D01*
X1575Y175905D02*
X10361Y175905D01*
X17197Y175905D02*
X85570Y175905D01*
X94670Y175905D02*
X98965Y175905D01*
X111034Y175905D02*
X123070Y175905D01*
X131929Y175905D02*
X202141Y175905D01*
X214670Y175905D02*
X218965Y175905D01*
X231034Y175905D02*
X267105Y175905D01*
X382894Y175905D02*
X392251Y175905D01*
X399087Y175905D02*
X407873Y175905D01*
X1575Y176614D02*
X12274Y176614D01*
X15284Y176614D02*
X85570Y176614D01*
X95378Y176614D02*
X99673Y176614D01*
X110326Y176614D02*
X123070Y176614D01*
X131929Y176614D02*
X202850Y176614D01*
X215378Y176614D02*
X219673Y176614D01*
X230326Y176614D02*
X267105Y176614D01*
X382894Y176614D02*
X394164Y176614D01*
X397174Y176614D02*
X407873Y176614D01*
X1575Y177323D02*
X85570Y177323D01*
X96087Y177323D02*
X100382Y177323D01*
X109617Y177323D02*
X123070Y177323D01*
X131929Y177323D02*
X203558Y177323D01*
X216087Y177323D02*
X220382Y177323D01*
X229617Y177323D02*
X267105Y177323D01*
X382894Y177323D02*
X407873Y177323D01*
X1575Y178031D02*
X85570Y178031D01*
X96796Y178031D02*
X100027Y178031D01*
X109972Y178031D02*
X123070Y178031D01*
X131929Y178031D02*
X204267Y178031D01*
X216796Y178031D02*
X220027Y178031D01*
X229972Y178031D02*
X267105Y178031D01*
X382894Y178031D02*
X407873Y178031D01*
X1575Y178740D02*
X85570Y178740D01*
X131929Y178740D02*
X204976Y178740D01*
X230681Y178740D02*
X267105Y178740D01*
X382894Y178740D02*
X407873Y178740D01*
X1575Y179449D02*
X85684Y179449D01*
X131929Y179449D02*
X205684Y179449D01*
X231389Y179449D02*
X267105Y179449D01*
X382894Y179449D02*
X407873Y179449D01*
X1575Y180157D02*
X86393Y180157D01*
X131929Y180157D02*
X206393Y180157D01*
X231496Y180157D02*
X267105Y180157D01*
X382894Y180157D02*
X407873Y180157D01*
X1575Y180866D02*
X87102Y180866D01*
X131929Y180866D02*
X207102Y180866D01*
X231496Y180866D02*
X267105Y180866D01*
X382894Y180866D02*
X407873Y180866D01*
X1575Y181575D02*
X87810Y181575D01*
X131929Y181575D02*
X207810Y181575D01*
X231496Y181575D02*
X267105Y181575D01*
X382894Y181575D02*
X407873Y181575D01*
X1575Y182283D02*
X88519Y182283D01*
X131929Y182283D02*
X208519Y182283D01*
X231496Y182283D02*
X267105Y182283D01*
X382894Y182283D02*
X407873Y182283D01*
X1575Y182992D02*
X89228Y182992D01*
X131929Y182992D02*
X209228Y182992D01*
X231496Y182992D02*
X267105Y182992D01*
X382894Y182992D02*
X407873Y182992D01*
X40259Y183701D02*
X89936Y183701D01*
X132465Y183701D02*
X209936Y183701D01*
X231496Y183701D02*
X267105Y183701D01*
X40945Y184409D02*
X90645Y184409D01*
X133174Y184409D02*
X210645Y184409D01*
X231496Y184409D02*
X267105Y184409D01*
X40945Y185118D02*
X91354Y185118D01*
X134740Y185118D02*
X211354Y185118D01*
X231496Y185118D02*
X267105Y185118D01*
X40945Y185827D02*
X92062Y185827D01*
X135981Y185827D02*
X212062Y185827D01*
X231113Y185827D02*
X267105Y185827D01*
X40945Y186535D02*
X92771Y186535D01*
X136689Y186535D02*
X212771Y186535D01*
X230404Y186535D02*
X267105Y186535D01*
X40945Y187244D02*
X100303Y187244D01*
X109696Y187244D02*
X123480Y187244D01*
X137191Y187244D02*
X220303Y187244D01*
X229696Y187244D02*
X267105Y187244D01*
X40945Y187953D02*
X101012Y187953D01*
X108987Y187953D02*
X124188Y187953D01*
X137452Y187953D02*
X221012Y187953D01*
X228987Y187953D02*
X267105Y187953D01*
X40945Y188661D02*
X101721Y188661D01*
X108278Y188661D02*
X124897Y188661D01*
X137713Y188661D02*
X221721Y188661D01*
X228278Y188661D02*
X267105Y188661D01*
X40945Y189370D02*
X125606Y189370D01*
X137815Y189370D02*
X267105Y189370D01*
X40945Y190079D02*
X126314Y190079D01*
X137815Y190079D02*
X267105Y190079D01*
X40945Y190787D02*
X127023Y190787D01*
X137815Y190787D02*
X267105Y190787D01*
X40945Y191496D02*
X127344Y191496D01*
X137655Y191496D02*
X267105Y191496D01*
X40945Y192205D02*
X127605Y192205D01*
X137394Y192205D02*
X267105Y192205D01*
X40945Y192913D02*
X127866Y192913D01*
X137133Y192913D02*
X267105Y192913D01*
X40945Y193622D02*
X128468Y193622D01*
X136531Y193622D02*
X267105Y193622D01*
X40945Y194331D02*
X129176Y194331D01*
X135823Y194331D02*
X267105Y194331D01*
X40945Y195039D02*
X130688Y195039D01*
X134311Y195039D02*
X267105Y195039D01*
X40945Y195748D02*
X267105Y195748D01*
X40945Y196457D02*
X267105Y196457D01*
X40945Y197165D02*
X267105Y197165D01*
X40945Y197874D02*
X267105Y197874D01*
X40945Y198583D02*
X267105Y198583D01*
X40945Y199291D02*
X267105Y199291D01*
X40945Y200000D02*
X267105Y200000D01*
X40945Y200709D02*
X267105Y200709D01*
X267105Y139605D02*
X360000Y139605D01*
X236250Y137638D02*
X286250Y137638D01*
X286250Y137500D01*
X286250Y137638D02*
X360000Y137638D01*
X360000Y137500D01*
X1575Y2283D02*
X3750Y2283D01*
X3750Y2500D01*
X3750Y2283D02*
X35000Y2283D01*
X35000Y2500D01*
X120776Y3700D02*
X125000Y3700D01*
X90000Y2283D02*
X125000Y2283D01*
X125000Y2500D01*
X125000Y2283D02*
X177500Y2283D01*
X177500Y2500D01*
X173276Y3700D02*
X177500Y3700D01*
X183276Y3700D02*
X187500Y3700D01*
X177500Y2283D02*
X187500Y2283D01*
X187500Y2500D01*
X187500Y2283D02*
X280000Y2283D01*
X280000Y2500D01*
X1575Y2992D02*
X406250Y2992D01*
X1575Y3701D02*
X3750Y3701D01*
X95315Y146142D02*
X127500Y146142D01*
X127500Y146250D01*
X102055Y166003D02*
X105000Y166003D01*
X1575Y137638D02*
X3750Y137638D01*
X3750Y137500D01*
X3750Y137638D02*
X105000Y137638D01*
X105000Y137500D01*
X1575Y138346D02*
X127500Y138346D01*
X124901Y137638D02*
X127500Y137638D01*
X127500Y137500D01*
X105000Y137638D02*
X124901Y137638D01*
X124901Y137500D01*
X222055Y166003D02*
X225000Y166003D01*
X87055Y16003D02*
X90000Y16003D01*
X57055Y16003D02*
X60000Y16003D01*
X35000Y2283D02*
X60000Y2283D01*
X60000Y2500D01*
X60000Y2283D02*
X90000Y2283D01*
X90000Y2500D01*
X127500Y137638D02*
X142224Y137638D01*
X142224Y137500D01*
X142224Y137638D02*
X158523Y137638D01*
X158523Y137500D01*
X95315Y127716D02*
X124901Y127716D01*
X124901Y127500D01*
X124901Y127716D02*
X142224Y127716D01*
X142224Y127500D01*
X127500Y146142D02*
X158523Y146142D01*
X158523Y146250D01*
X127500Y138346D02*
X158523Y138346D01*
X280468Y59685D02*
X290000Y59685D01*
X290000Y59685D01*
X280000Y27795D02*
X300000Y27795D01*
X300000Y27500D01*
X157670Y27795D02*
X280000Y27795D01*
X280000Y27500D01*
X231724Y3701D02*
X280000Y3701D01*
X221480Y92283D02*
X286250Y92283D01*
X286250Y92500D01*
X220771Y92992D02*
X286250Y92992D01*
X311831Y46220D02*
X383750Y46220D01*
X383750Y46062D01*
X311831Y26378D02*
X383750Y26378D01*
X383750Y26062D01*
X383750Y46220D02*
X406250Y46220D01*
X16062Y22835D02*
X35000Y22835D01*
X35000Y22500D01*
X3750Y3701D02*
X35000Y3701D01*
X226831Y117795D02*
X236250Y117795D01*
X236250Y117500D01*
X221090Y129842D02*
X236250Y129842D01*
X236250Y130000D01*
X220829Y130551D02*
X236250Y130551D01*
X225000Y137638D02*
X236250Y137638D01*
X236250Y137500D01*
X207500Y137638D02*
X225000Y137638D01*
X225000Y137500D01*
X158523Y137638D02*
X207500Y137638D01*
X207500Y137500D01*
X236723Y111299D02*
X232500Y111299D01*
X95315Y128425D02*
X124901Y128425D01*
X158523Y146142D02*
X256250Y146142D01*
X256250Y146250D01*
X158523Y138346D02*
X256250Y138346D01*
X383750Y26378D02*
X406250Y26378D01*
G54D16*
X115000Y10000D02*
X120000Y15000D01*
X138750Y15000D01*
X163750Y40000D01*
X170000Y46250D01*
X192500Y46250D01*
X201250Y55000D01*
X177775Y87224D02*
X184724Y87224D01*
X195000Y97500D01*
X195000Y102500D01*
X117500Y75000D02*
X227500Y75000D01*
X117500Y75000D02*
X107500Y65000D01*
X290000Y51811D02*
X250688Y51811D01*
X227500Y75000D01*
X121250Y71250D02*
X222500Y71250D01*
X121250Y71250D02*
X115000Y65000D01*
X281250Y46250D02*
X247500Y46250D01*
X222500Y71250D01*
X120000Y60000D02*
X127500Y67500D01*
X217500Y67500D01*
X243750Y41250D02*
X217500Y67500D01*
X290000Y43750D02*
X287500Y41250D01*
X290000Y43750D02*
X290000Y43937D01*
X287500Y41250D02*
X243750Y41250D01*
X348031Y157874D02*
X348031Y148031D01*
X347500Y147500D01*
X348031Y148031D02*
X347500Y147500D01*
X348031Y148031D02*
X347500Y147500D01*
X348031Y148031D01*
X347500Y147500D02*
X348031Y148031D01*
X338031Y157874D02*
X338031Y148031D01*
X337500Y147500D01*
X338031Y148031D02*
X337500Y147500D01*
X338031Y148031D02*
X337500Y147500D01*
X338031Y148031D01*
X337500Y147500D02*
X338031Y148031D01*
X333031Y167874D02*
X333031Y175531D01*
X335000Y177500D01*
X362500Y177500D01*
X372500Y167500D01*
X372500Y147500D01*
X216250Y122500D02*
X195000Y122500D01*
X216250Y122500D02*
X222500Y116250D01*
X222500Y105000D01*
X216250Y122500D02*
X216250Y127490D01*
X197500Y40000D02*
X227500Y40000D01*
X302814Y20314D02*
X307500Y25000D01*
X290000Y20314D02*
X302814Y20314D01*
X162500Y87500D02*
X167500Y82500D01*
X162500Y96250D02*
X162500Y87500D01*
X237500Y82500D02*
X255000Y65000D01*
X237500Y82500D02*
X167500Y82500D01*
X303750Y65000D02*
X255000Y65000D01*
X303750Y65000D02*
X307500Y61250D01*
X307500Y25000D01*
X255000Y56250D02*
X276250Y56250D01*
X232500Y78750D02*
X255000Y56250D01*
X232500Y78750D02*
X110000Y78750D01*
X107500Y76250D01*
G54D17*
X343031Y167874D02*
X354625Y167874D01*
X360000Y162500D01*
X360000Y139605D02*
X360000Y162500D01*
X286250Y137500D02*
X360000Y137500D01*
X3750Y2500D02*
X35000Y2500D01*
X125000Y3700D02*
X125000Y2500D01*
X177500Y2500D01*
X177500Y3700D02*
X177500Y2500D01*
X187500Y2500D01*
X187500Y3700D02*
X187500Y2500D01*
X280000Y2500D01*
X406250Y2992D02*
X406250Y26062D01*
X406250Y137500D02*
X360000Y137500D01*
X3750Y3701D02*
X3750Y137500D01*
X105000Y166003D02*
X105000Y137500D01*
X3750Y137500D02*
X105000Y137500D01*
X127500Y138346D02*
X127500Y137500D01*
X124901Y137500D01*
X225000Y166003D02*
X225000Y137500D01*
X90000Y16003D02*
X90000Y2500D01*
X125000Y2500D01*
X60000Y16003D02*
X60000Y2500D01*
X90000Y2500D01*
X127500Y137500D02*
X142224Y137500D01*
X158523Y137500D01*
X142224Y127716D02*
X142224Y137500D01*
X158523Y138346D02*
X158523Y137500D01*
X207500Y137500D01*
X300000Y27500D02*
X280000Y27500D01*
X280000Y3701D02*
X280000Y2500D01*
X406250Y2500D01*
X290000Y59685D02*
X300000Y59685D01*
X300000Y27795D02*
X300000Y27500D01*
X286250Y92992D02*
X286250Y137500D01*
X256250Y137500D01*
X406250Y46062D02*
X383750Y46062D01*
X406250Y46220D02*
X406250Y137500D01*
X35000Y3701D02*
X35000Y2500D01*
X60000Y2500D01*
X236250Y117795D02*
X236250Y130000D01*
X236250Y130551D02*
X236250Y137500D01*
X225000Y137500D01*
X207500Y137500D02*
X225000Y137500D01*
X236250Y117500D02*
X232500Y117500D01*
X232500Y111299D02*
X232500Y105000D01*
X124901Y128425D02*
X124901Y137500D01*
X105000Y137500D01*
X256250Y138346D02*
X256250Y137500D01*
X236250Y137500D01*
X383750Y26062D02*
X406250Y26062D01*
X406250Y26378D02*
X406250Y46062D01*
X360000Y137500D02*
X360000Y139605D01*
X125000Y10000D02*
X125000Y3700D01*
X177500Y10000D02*
X177500Y3700D01*
X187500Y10000D02*
X187500Y3700D01*
X406250Y2500D02*
X406250Y2992D01*
X3750Y2500D02*
X3750Y3701D01*
X105000Y172500D02*
X105000Y166003D01*
X127500Y146250D02*
X127500Y138346D01*
X225000Y172500D02*
X225000Y166003D01*
X90000Y22500D02*
X90000Y16003D01*
X60000Y22500D02*
X60000Y16003D01*
X142224Y127500D02*
X142224Y127716D01*
X158523Y146250D02*
X158523Y138346D01*
X280000Y27500D02*
X280000Y3701D01*
X300000Y59685D02*
X300000Y27795D01*
X286250Y92500D02*
X286250Y92992D01*
X406250Y46062D02*
X406250Y46220D01*
X35000Y22500D02*
X35000Y3701D01*
X236250Y117500D02*
X236250Y117795D01*
X236250Y130000D02*
X236250Y130551D01*
X232500Y117500D02*
X232500Y111299D01*
X124901Y127500D02*
X124901Y128425D01*
X256250Y146250D02*
X256250Y138346D01*
X406250Y26062D02*
X406250Y26378D01*
X125000Y30000D02*
X125000Y40000D01*
X108750Y56250D01*
X90000Y56250D01*
X90000Y127500D01*
X90000Y146250D02*
X90000Y177500D01*
X95000Y182500D01*
X105000Y182500D01*
X127500Y182500D01*
X127500Y168750D01*
X132500Y190000D02*
X127500Y185000D01*
X127500Y182500D01*
X160000Y112500D02*
X212500Y112500D01*
X160000Y112500D02*
X145000Y112500D01*
X132775Y100275D01*
X132775Y92500D01*
X212500Y112500D02*
X212500Y105000D01*
X212500Y95000D01*
X220000Y87500D01*
X262500Y87500D01*
X276250Y73750D01*
X185000Y152500D02*
X215000Y182500D01*
X225000Y182500D01*
X328031Y157874D02*
X312125Y157874D01*
X297500Y172500D01*
G54D20*
X127500Y146250D03*
X124901Y127500D03*
X142224Y127500D03*
X158523Y146250D03*
X290000Y59685D03*
X286250Y92500D03*
X383750Y46062D03*
X383750Y26062D03*
X35000Y22500D03*
X236250Y117500D03*
X236250Y130000D03*
X207500Y137500D03*
X256250Y146250D03*
X163750Y40000D03*
X201250Y55000D03*
X177775Y87224D03*
X195000Y102500D03*
X107500Y65000D03*
X290000Y51811D03*
X115000Y65000D03*
X281250Y46250D03*
X120000Y60000D03*
X290000Y43937D03*
X132775Y92500D03*
X160000Y112500D03*
X90000Y56250D03*
X90000Y127500D03*
X90000Y146250D03*
X127500Y168750D03*
X132500Y190000D03*
X212500Y112500D03*
X276250Y73750D03*
X185000Y152500D03*
X216250Y127490D03*
X195000Y122500D03*
X197500Y40000D03*
X227500Y40000D03*
X290000Y20314D03*
X162500Y96250D03*
X107500Y76250D03*
X276250Y56250D03*
G54D30*
X160000Y103750D03*
G54D31*
X181102Y55000D03*
X173228Y55000D03*
X188976Y55000D03*
X157480Y55000D03*
X149606Y55000D03*
X165354Y55000D03*
G54D32*
X96250Y74625D03*
X96250Y82500D03*
G54D37*
X227500Y10000D03*
X217500Y10000D03*
X207500Y10000D03*
X197500Y10000D03*
X187500Y10000D03*
X177500Y10000D03*
X242500Y105000D03*
X232500Y105000D03*
X222500Y105000D03*
X212500Y105000D03*
G54D38*
X115000Y30000D03*
X125000Y30000D03*
X115000Y20000D03*
X125000Y20000D03*
X115000Y10000D03*
X125000Y10000D03*
G54D39*
X347500Y147500D03*
X337500Y147500D03*
X372500Y147500D03*
G54D43*
X392500Y36062D03*
G54D51*
X105000Y172500D03*
X105000Y182500D03*
X225000Y172500D03*
X225000Y182500D03*
X60000Y32500D03*
X60000Y22500D03*
X90000Y32500D03*
X90000Y22500D03*
G54D52*
X333031Y167874D03*
X343031Y167874D03*
X348031Y157874D03*
X323031Y167874D03*
X328031Y157874D03*
X338031Y157874D03*
G54D53*
X297500Y172500D03*
X277500Y172500D03*
M02*
