%FSLAX35Y35*%
%MOIN*%
%IN16=KupferobenL2(X.Top)*%
%ADD10C,0.00591*%
%ADD11C,0.00354*%
%ADD12C,0.00443*%
%ADD13C,0.00787*%
%ADD14C,0.00800*%
%ADD15C,0.01181*%
%ADD16C,0.01575*%
%ADD17C,0.01772*%
%ADD18C,0.01969*%
%ADD19C,0.02362*%
%ADD20C,0.03543*%
%ADD21C,0.11811*%
%ADD22C,0.12598*%
%ADD23C,0.14173*%
%AMR_24*21,1,0.01772,0.05118,0,0,270.000*%
%ADD24R_24*%
%AMR_25*21,1,0.01969,0.04724,0,0,90.000*%
%ADD25R_25*%
%AMR_26*21,1,0.02362,0.09843,0,0,180.000*%
%ADD26R_26*%
%AMR_27*21,1,0.03937,0.03937,0,0,180.000*%
%ADD27R_27*%
%AMR_28*21,1,0.03937,0.06299,0,0,90.000*%
%ADD28R_28*%
%AMR_29*21,1,0.03937,0.06299,0,0,270.000*%
%ADD29R_29*%
%AMR_30*21,1,0.04331,0.04331,0,0,0.000*%
%ADD30R_30*%
%AMR_31*21,1,0.04331,0.04331,0,0,180.000*%
%ADD31R_31*%
%AMR_32*21,1,0.04331,0.04331,0,0,270.000*%
%ADD32R_32*%
%AMR_33*21,1,0.05118,0.01772,0,0,270.000*%
%ADD33R_33*%
%AMR_34*21,1,0.05512,0.03937,0,0,0.000*%
%ADD34R_34*%
%AMR_35*21,1,0.05512,0.03937,0,0,180.000*%
%ADD35R_35*%
%AMR_36*21,1,0.05512,0.03937,0,0,270.000*%
%ADD36R_36*%
%AMR_37*21,1,0.05512,0.05512,0,0,180.000*%
%ADD37R_37*%
%AMR_38*21,1,0.05512,0.05512,0,0,270.000*%
%ADD38R_38*%
%AMR_39*21,1,0.05906,0.05906,0,0,0.000*%
%ADD39R_39*%
%AMR_40*21,1,0.06299,0.03937,0,0,0.000*%
%ADD40R_40*%
%AMR_41*21,1,0.06299,0.03937,0,0,180.000*%
%ADD41R_41*%
%AMR_42*21,1,0.06299,0.03937,0,0,270.000*%
%ADD42R_42*%
%AMR_43*21,1,0.07087,0.07087,0,0,0.000*%
%ADD43R_43*%
%AMR_44*21,1,0.07087,0.07087,0,0,90.000*%
%ADD44R_44*%
%AMR_45*21,1,0.07874,0.06299,0,0,90.000*%
%ADD45R_45*%
%AMR_46*21,1,0.07874,0.09843,0,0,180.000*%
%ADD46R_46*%
%AMR_47*21,1,0.08661,0.04724,0,0,0.000*%
%ADD47R_47*%
%AMR_48*21,1,0.19685,0.18750,0,0,0.000*%
%ADD48R_48*%
%AMR_49*21,1,0.19685,0.19685,0,0,0.000*%
%ADD49R_49*%
%AMR_50*21,1,0.23622,0.23622,0,0,0.000*%
%ADD50R_50*%
%AMOCT_51*4,1,8,0.029528,0.014764,0.014764,0.029528,-0.014764,0.029528,-0.029528,0.014764,-0.029528,-0.014764,-0.014764,-0.029528,0.014764,-0.029528,0.029528,-0.014764,0.029528,0.014764,270.000*%
%ADD51OCT_51*%
%AMOCT_52*4,1,8,0.031496,0.015748,0.015748,0.031496,-0.015748,0.031496,-0.031496,0.015748,-0.031496,-0.015748,-0.015748,-0.031496,0.015748,-0.031496,0.031496,-0.015748,0.031496,0.015748,90.000*%
%ADD52OCT_52*%
%AMOCT_53*4,1,8,0.039370,0.019685,0.019685,0.039370,-0.019685,0.039370,-0.039370,0.019685,-0.039370,-0.019685,-0.019685,-0.039370,0.019685,-0.039370,0.039370,-0.019685,0.039370,0.019685,180.000*%
%ADD53OCT_53*%
G54D16*
X159055Y39114D02*
X159055Y40000D01*
X170000Y40000D02*
X163750Y40000D01*
X170000Y40000D02*
X170000Y39000D01*
X158750Y40000D02*
X159055Y40000D01*
X158750Y40000D02*
X159055Y39114D01*
X163750Y40000D02*
X159055Y40000D01*
X170000Y40000D02*
X183169Y40000D01*
X159055Y40000D02*
X158750Y40000D01*
X155216Y84074D02*
X172175Y84074D01*
X201250Y55000D01*
X155216Y90374D02*
X166624Y90374D01*
X168750Y92500D01*
X182500Y92500D01*
X217500Y57500D01*
X217500Y10000D01*
X155216Y87224D02*
X177775Y87224D01*
X195000Y108169D02*
X195000Y102500D01*
X177775Y87224D02*
X207500Y57500D01*
X207500Y10000D01*
X135925Y64783D02*
X135925Y57175D01*
X134675Y55925D01*
X134675Y51500D01*
X113375Y74625D02*
X119783Y74625D01*
X107500Y68750D02*
X113375Y74625D01*
X107500Y68750D02*
X107500Y65000D01*
X107500Y17500D02*
X107500Y65000D01*
X107500Y17500D02*
X110000Y15000D01*
X120000Y15000D01*
X125000Y20000D01*
X290000Y51811D02*
X300098Y51811D01*
X119783Y71476D02*
X116476Y71476D01*
X115000Y70000D01*
X115000Y65000D01*
X115000Y30000D01*
X281250Y46250D02*
X281250Y40000D01*
X285187Y36062D01*
X300098Y36062D01*
X115000Y20000D02*
X120000Y25000D01*
X120000Y60000D01*
X126476Y64783D02*
X126476Y61476D01*
X125000Y60000D01*
X120000Y60000D01*
X290000Y43937D02*
X300098Y43937D01*
X60000Y32500D02*
X60000Y43500D01*
X255250Y123750D02*
X278907Y123750D01*
X323031Y167874D01*
X220472Y127490D02*
X216250Y127490D01*
X195000Y116830D02*
X195000Y122500D01*
X90000Y32500D02*
X90000Y43500D01*
X191830Y40000D02*
X197500Y40000D01*
X227500Y40000D02*
X227500Y10000D01*
X126476Y100216D02*
X126476Y102273D01*
X120177Y108572D01*
X120177Y115000D01*
X129625Y100216D02*
X129625Y115000D01*
X145374Y64783D02*
X145374Y59232D01*
X149606Y55000D01*
X148523Y64783D02*
X148523Y61476D01*
X150000Y60000D01*
X156250Y60000D01*
X157480Y58769D01*
X157480Y55000D01*
X159773Y71476D02*
X155216Y71476D01*
X159773Y71476D02*
X165354Y65895D01*
X165354Y55000D01*
X155216Y74625D02*
X162874Y74625D01*
X173228Y64271D01*
X173228Y55000D01*
X165974Y77775D02*
X155216Y77775D01*
X165974Y77775D02*
X181102Y62647D01*
X181102Y55000D01*
X155216Y80925D02*
X169074Y80925D01*
X188976Y61023D01*
X188976Y55000D01*
X290000Y20314D02*
X300098Y20314D01*
X159773Y93523D02*
X162500Y96250D01*
X155216Y93523D02*
X159773Y93523D01*
X276250Y22500D02*
X286309Y12440D01*
X276250Y56250D02*
X276250Y22500D01*
X286309Y12440D02*
X300098Y12440D01*
X119783Y77775D02*
X109025Y77775D01*
X107500Y76250D01*
X276250Y56250D02*
X276250Y60669D01*
X60000Y65000D02*
X60000Y51500D01*
X82224Y87224D02*
X60000Y65000D01*
X119783Y87224D02*
X82224Y87224D01*
X35000Y70000D02*
X35000Y60629D01*
X58523Y93523D02*
X35000Y70000D01*
X119783Y93523D02*
X58523Y93523D01*
X148523Y100216D02*
X148523Y101023D01*
X151250Y103750D01*
X160000Y103750D01*
X96250Y82500D02*
X101250Y82500D01*
X102824Y84074D01*
X119783Y84074D01*
X96250Y74625D02*
X99625Y74625D01*
X105925Y80925D01*
X119783Y80925D01*
X229527Y123750D02*
X242500Y123750D01*
X242500Y105000D02*
X242500Y123750D01*
X247250Y123750D01*
G54D17*
X135925Y100216D02*
X135925Y105925D01*
X137500Y107500D01*
X142224Y100216D02*
X142224Y95275D01*
X145000Y92500D01*
X142224Y100216D02*
X142224Y107224D01*
X137500Y107500D02*
X141948Y107500D01*
X142224Y107224D01*
X141948Y107500D02*
X142224Y107224D01*
X141948Y107500D02*
X142224Y107224D01*
X141948Y107500D02*
X142224Y107224D01*
X141948Y107500D02*
X142224Y107224D01*
X141948Y107500D01*
X142224Y107224D02*
X141948Y107500D01*
X142224Y107224D02*
X141948Y107500D01*
X139074Y58425D02*
X139074Y64783D01*
X143750Y53750D02*
X139074Y58425D01*
X143750Y53750D02*
X143750Y39114D01*
X145000Y92500D02*
X145000Y87500D01*
X139074Y81574D01*
X139074Y64783D02*
X139074Y81574D01*
X127500Y151594D02*
X127500Y146250D01*
X142224Y107224D02*
X141948Y107500D01*
X142224Y107224D02*
X141948Y107500D01*
X142224Y107224D02*
X141948Y107500D01*
X142224Y107224D02*
X141948Y107500D01*
X142224Y107224D02*
X141948Y107500D01*
X142224Y107224D02*
X141948Y107500D01*
X142224Y107224D02*
X142224Y112500D01*
X147250Y112500D02*
X142224Y112500D01*
X142224Y127500D01*
X158523Y152224D02*
X158523Y146250D01*
X158750Y146250D02*
X158523Y146250D01*
X290000Y59685D02*
X300098Y59685D01*
X286250Y87746D02*
X286250Y92500D01*
X374901Y46062D02*
X383750Y46062D01*
X374901Y26062D02*
X383750Y26062D01*
X35000Y33120D02*
X35000Y22500D01*
X150944Y39114D02*
X143750Y39114D01*
X135885Y39114D02*
X134675Y40324D01*
X134675Y43500D01*
X143750Y39114D02*
X135885Y39114D01*
X229527Y120009D02*
X233740Y120009D01*
X236250Y117500D01*
X229527Y127490D02*
X233740Y127490D01*
X236250Y130000D01*
X207500Y131830D02*
X207500Y137500D01*
X124901Y115000D02*
X124901Y127500D01*
X256250Y153838D02*
X256250Y146250D01*
X132775Y100216D02*
X132775Y92500D01*
X137500Y92500D01*
X139074Y94074D01*
X139074Y100216D01*
X167500Y180925D02*
X167500Y190000D01*
X127500Y163405D02*
X127500Y168750D01*
X129625Y58375D02*
X129625Y64783D01*
X129625Y58375D02*
X125000Y53750D01*
X125000Y30000D01*
X155000Y30885D02*
X155000Y25000D01*
X170000Y31000D02*
X170000Y25000D01*
X155000Y25000D02*
X170000Y25000D01*
X155250Y112500D02*
X160000Y112500D01*
X90000Y51500D02*
X90000Y56250D01*
X90000Y127500D02*
X90000Y146250D01*
X132500Y190000D02*
X167500Y190000D01*
X129625Y64783D02*
X129625Y89350D01*
X132775Y92500D01*
X125000Y30000D02*
X133750Y30000D01*
X138750Y25000D01*
X155000Y25000D01*
X207500Y123169D02*
X210659Y120009D01*
X212500Y120009D01*
X212500Y112500D02*
X212500Y120009D01*
X220472Y120009D01*
X276250Y69330D02*
X276250Y73750D01*
X286250Y73750D01*
X286250Y74753D01*
X300098Y67559D02*
X297440Y67559D01*
X291250Y73750D01*
X286250Y73750D01*
X225000Y182500D02*
X235000Y192500D01*
X247982Y192500D01*
X176476Y152224D02*
X185000Y152224D01*
X185000Y152500D02*
X185000Y152224D01*
X277500Y172500D02*
X277500Y187500D01*
X272500Y192500D01*
X264517Y192500D01*
X256250Y172500D02*
X277500Y172500D01*
X256250Y172500D02*
X256250Y171161D01*
G54D18*
X374901Y36062D02*
X392500Y36062D01*
G54D20*
X127500Y146250D03*
X124901Y127500D03*
X142224Y127500D03*
X158523Y146250D03*
X290000Y59685D03*
X286250Y92500D03*
X383750Y46062D03*
X383750Y26062D03*
X35000Y22500D03*
X236250Y117500D03*
X236250Y130000D03*
X207500Y137500D03*
X256250Y146250D03*
X163750Y40000D03*
X201250Y55000D03*
X177775Y87224D03*
X195000Y102500D03*
X107500Y65000D03*
X290000Y51811D03*
X115000Y65000D03*
X281250Y46250D03*
X120000Y60000D03*
X290000Y43937D03*
X132775Y92500D03*
X160000Y112500D03*
X90000Y56250D03*
X90000Y127500D03*
X90000Y146250D03*
X127500Y168750D03*
X132500Y190000D03*
X212500Y112500D03*
X276250Y73750D03*
X185000Y152500D03*
X216250Y127490D03*
X195000Y122500D03*
X197500Y40000D03*
X227500Y40000D03*
X290000Y20314D03*
X162500Y96250D03*
X107500Y76250D03*
X276250Y56250D03*
G54D24*
X119783Y93523D03*
X119783Y90374D03*
X119783Y87224D03*
X119783Y84074D03*
X119783Y80925D03*
X119783Y77775D03*
X119783Y74625D03*
X119783Y71476D03*
X155216Y71476D03*
X155216Y74625D03*
X155216Y77775D03*
X155216Y80925D03*
X155216Y84074D03*
X155216Y87224D03*
X155216Y90374D03*
X155216Y93523D03*
G54D25*
X229527Y120009D03*
X229527Y123750D03*
X229527Y127490D03*
X220472Y127490D03*
X220472Y120009D03*
G54D26*
X129625Y115000D03*
X124901Y115000D03*
X120177Y115000D03*
G54D27*
X159055Y39114D03*
X150944Y39114D03*
X155000Y30885D03*
G54D28*
X286250Y87746D03*
X286250Y74753D03*
G54D29*
X127500Y151594D03*
X127500Y163405D03*
G54D30*
X160000Y103750D03*
G54D31*
X181102Y55000D03*
X173228Y55000D03*
X188976Y55000D03*
X157480Y55000D03*
X149606Y55000D03*
X165354Y55000D03*
G54D32*
X96250Y74625D03*
X96250Y82500D03*
G54D33*
X148523Y100216D03*
X145374Y100216D03*
X142224Y100216D03*
X139074Y100216D03*
X135925Y100216D03*
X132775Y100216D03*
X129625Y100216D03*
X126476Y100216D03*
X126476Y64783D03*
X129625Y64783D03*
X132775Y64783D03*
X135925Y64783D03*
X139074Y64783D03*
X142224Y64783D03*
X145374Y64783D03*
X148523Y64783D03*
G54D34*
X276250Y69330D03*
X276250Y60669D03*
G54D35*
X195000Y108169D03*
X195000Y116830D03*
X207500Y123169D03*
X207500Y131830D03*
G54D36*
X191830Y40000D03*
X183169Y40000D03*
G54D37*
X227500Y10000D03*
X217500Y10000D03*
X207500Y10000D03*
X197500Y10000D03*
X187500Y10000D03*
X177500Y10000D03*
X242500Y105000D03*
X232500Y105000D03*
X222500Y105000D03*
X212500Y105000D03*
G54D38*
X115000Y30000D03*
X125000Y30000D03*
X115000Y20000D03*
X125000Y20000D03*
X115000Y10000D03*
X125000Y10000D03*
G54D39*
X158523Y152224D03*
X176476Y152224D03*
X347500Y147500D03*
X337500Y147500D03*
X372500Y147500D03*
G54D40*
X134675Y51500D03*
X134675Y43500D03*
X170000Y39000D03*
X170000Y31000D03*
X90000Y51500D03*
X90000Y43500D03*
G54D41*
X60000Y43500D03*
X60000Y51500D03*
G54D42*
X155250Y112500D03*
X147250Y112500D03*
X255250Y123750D03*
X247250Y123750D03*
G54D43*
X392500Y36062D03*
G54D44*
X256250Y153838D03*
X256250Y171161D03*
G54D45*
X35000Y33120D03*
X35000Y60629D03*
G54D46*
X264517Y192500D03*
X247982Y192500D03*
G54D47*
X300098Y67559D03*
X300098Y59685D03*
X300098Y51811D03*
X300098Y43937D03*
X300098Y36062D03*
X300098Y28188D03*
X300098Y20314D03*
X300098Y12440D03*
X374901Y26062D03*
X374901Y36062D03*
X374901Y46062D03*
G54D50*
X167500Y180925D03*
G54D51*
X105000Y172500D03*
X105000Y182500D03*
X225000Y172500D03*
X225000Y182500D03*
X60000Y32500D03*
X60000Y22500D03*
X90000Y32500D03*
X90000Y22500D03*
G54D52*
X333031Y167874D03*
X343031Y167874D03*
X348031Y157874D03*
X323031Y167874D03*
X328031Y157874D03*
X338031Y157874D03*
G54D53*
X297500Y172500D03*
X277500Y172500D03*
G36*
X135000Y170000D02*
X135000Y200000D01*
X200000Y200000D01*
X200000Y170000D01*
X135000Y170000D01*
D02*G37*
M02*
