%FSLAX35Y35*%
%MOIN*%
%IN32=Bauteilnamenoben(extrainDatei:X.NamesTop)*%
%ADD10C,0.00591*%
%ADD11C,0.00354*%
%ADD12C,0.00443*%
%ADD13C,0.00787*%
%ADD14C,0.00800*%
%ADD15C,0.01181*%
%ADD16C,0.01575*%
%ADD17C,0.01772*%
%ADD18C,0.01969*%
%ADD19C,0.02362*%
%ADD20C,0.03543*%
%ADD21C,0.11811*%
%ADD22C,0.12598*%
%ADD23C,0.14173*%
%AMR_24*21,1,0.01772,0.05118,0,0,270.000*%
%ADD24R_24*%
%AMR_25*21,1,0.01969,0.04724,0,0,90.000*%
%ADD25R_25*%
%AMR_26*21,1,0.02362,0.09843,0,0,180.000*%
%ADD26R_26*%
%AMR_27*21,1,0.03937,0.03937,0,0,180.000*%
%ADD27R_27*%
%AMR_28*21,1,0.03937,0.06299,0,0,90.000*%
%ADD28R_28*%
%AMR_29*21,1,0.03937,0.06299,0,0,270.000*%
%ADD29R_29*%
%AMR_30*21,1,0.04331,0.04331,0,0,0.000*%
%ADD30R_30*%
%AMR_31*21,1,0.04331,0.04331,0,0,180.000*%
%ADD31R_31*%
%AMR_32*21,1,0.04331,0.04331,0,0,270.000*%
%ADD32R_32*%
%AMR_33*21,1,0.05118,0.01772,0,0,270.000*%
%ADD33R_33*%
%AMR_34*21,1,0.05512,0.03937,0,0,0.000*%
%ADD34R_34*%
%AMR_35*21,1,0.05512,0.03937,0,0,180.000*%
%ADD35R_35*%
%AMR_36*21,1,0.05512,0.03937,0,0,270.000*%
%ADD36R_36*%
%AMR_37*21,1,0.05512,0.05512,0,0,180.000*%
%ADD37R_37*%
%AMR_38*21,1,0.05512,0.05512,0,0,270.000*%
%ADD38R_38*%
%AMR_39*21,1,0.05906,0.05906,0,0,0.000*%
%ADD39R_39*%
%AMR_40*21,1,0.06299,0.03937,0,0,0.000*%
%ADD40R_40*%
%AMR_41*21,1,0.06299,0.03937,0,0,180.000*%
%ADD41R_41*%
%AMR_42*21,1,0.06299,0.03937,0,0,270.000*%
%ADD42R_42*%
%AMR_43*21,1,0.07087,0.07087,0,0,0.000*%
%ADD43R_43*%
%AMR_44*21,1,0.07087,0.07087,0,0,90.000*%
%ADD44R_44*%
%AMR_45*21,1,0.07874,0.06299,0,0,90.000*%
%ADD45R_45*%
%AMR_46*21,1,0.07874,0.09843,0,0,180.000*%
%ADD46R_46*%
%AMR_47*21,1,0.08661,0.04724,0,0,0.000*%
%ADD47R_47*%
%AMR_48*21,1,0.19685,0.18750,0,0,0.000*%
%ADD48R_48*%
%AMR_49*21,1,0.19685,0.19685,0,0,0.000*%
%ADD49R_49*%
%AMR_50*21,1,0.23622,0.23622,0,0,0.000*%
%ADD50R_50*%
%AMOCT_51*4,1,8,0.029528,0.014764,0.014764,0.029528,-0.014764,0.029528,-0.029528,0.014764,-0.029528,-0.014764,-0.014764,-0.029528,0.014764,-0.029528,0.029528,-0.014764,0.029528,0.014764,270.000*%
%ADD51OCT_51*%
%AMOCT_52*4,1,8,0.031496,0.015748,0.015748,0.031496,-0.015748,0.031496,-0.031496,0.015748,-0.031496,-0.015748,-0.015748,-0.031496,0.015748,-0.031496,0.031496,-0.015748,0.031496,0.015748,90.000*%
%ADD52OCT_52*%
%AMOCT_53*4,1,8,0.039370,0.019685,0.019685,0.039370,-0.019685,0.039370,-0.039370,0.019685,-0.039370,-0.019685,-0.019685,-0.039370,0.019685,-0.039370,0.039370,-0.019685,0.039370,0.019685,180.000*%
%ADD53OCT_53*%
G54D10*
X108750Y97500D02*
X111702Y97500D01*
X110226Y97500D02*
X110226Y101437D01*
X108750Y101437D02*
X111702Y101437D01*
X114256Y97500D02*
X114995Y97828D01*
X115364Y98484D01*
X114256Y97500D02*
X113518Y97500D01*
X112780Y97828D01*
X112411Y98484D01*
X112411Y100452D01*
X112780Y101108D01*
X113518Y101437D01*
X114256Y101437D01*
X114995Y101108D01*
X115364Y100452D01*
X116441Y101108D02*
X117180Y101437D01*
X117918Y101437D01*
X118656Y101108D01*
X119025Y100452D01*
X119025Y100124D01*
X118656Y99468D01*
X116441Y97828D02*
X117180Y97500D01*
X117918Y97500D01*
X118656Y97828D01*
X119025Y98484D01*
X119025Y98812D01*
X118656Y99468D01*
X118287Y99468D02*
X118656Y99468D01*
X149369Y118110D02*
X150107Y118438D01*
X150476Y119094D01*
X149369Y118110D02*
X148630Y118110D01*
X147892Y118438D01*
X147523Y119094D01*
X147523Y121062D01*
X147892Y121719D01*
X148630Y122047D01*
X149369Y122047D01*
X150107Y121719D01*
X150476Y121062D01*
X151185Y118438D02*
X151923Y118110D01*
X153030Y118110D01*
X153768Y118438D01*
X154137Y119094D01*
X154137Y119422D01*
X153768Y120078D01*
X153030Y120406D01*
X151185Y120406D01*
X151185Y122047D01*
X153768Y122047D01*
X134044Y33110D02*
X134782Y33438D01*
X135151Y34094D01*
X134044Y33110D02*
X133306Y33110D01*
X132567Y33438D01*
X132198Y34094D01*
X132198Y36062D01*
X132567Y36719D01*
X133306Y37047D01*
X134044Y37047D01*
X134782Y36719D01*
X135151Y36062D01*
X138443Y37047D02*
X136967Y37047D01*
X136229Y36719D01*
X135860Y36062D01*
X135860Y34094D01*
X136229Y33438D01*
X136967Y33110D01*
X137705Y33110D01*
X138443Y33438D01*
X138812Y34094D01*
X138812Y34422D01*
X138443Y35078D01*
X137705Y35406D01*
X136967Y35406D01*
X136229Y35078D01*
X135860Y34422D01*
X175596Y34389D02*
X175596Y30452D01*
X175596Y32421D02*
X177441Y32421D01*
X178180Y32749D01*
X178549Y33405D01*
X178180Y34061D01*
X177441Y34389D01*
X175596Y34389D01*
X177072Y32421D02*
X178549Y30452D01*
X182210Y30452D02*
X179257Y30452D01*
X179626Y34061D02*
X180365Y34389D01*
X181103Y34389D01*
X181841Y34061D01*
X182210Y33405D01*
X182210Y33077D01*
X181841Y32421D01*
X179257Y30452D02*
X181841Y32421D01*
X179626Y34061D02*
X179257Y33405D01*
X149312Y18390D02*
X152265Y18390D01*
X150789Y18390D02*
X150789Y22327D01*
X149312Y22327D02*
X152265Y22327D01*
X154819Y18390D02*
X155557Y18718D01*
X155926Y19374D01*
X154819Y18390D02*
X154081Y18390D01*
X153343Y18718D01*
X152974Y19374D01*
X152974Y21343D01*
X153343Y21999D01*
X154081Y22327D01*
X154819Y22327D01*
X155557Y21999D01*
X155926Y21343D01*
X157004Y22327D02*
X156635Y20358D01*
X159588Y20358D01*
X158480Y21343D02*
X158480Y18390D01*
X183750Y161250D02*
X186702Y161250D01*
X185226Y161250D02*
X185226Y165187D01*
X183750Y165187D02*
X186702Y165187D01*
X189256Y161250D02*
X189995Y161578D01*
X190364Y162234D01*
X189256Y161250D02*
X188518Y161250D01*
X187780Y161578D01*
X187411Y162234D01*
X187411Y164202D01*
X187780Y164858D01*
X188518Y165187D01*
X189256Y165187D01*
X189995Y164858D01*
X190364Y164202D01*
X191072Y161578D02*
X191811Y161250D01*
X192918Y161250D01*
X193656Y161578D01*
X194025Y162234D01*
X194025Y162562D01*
X193656Y163218D01*
X192918Y163546D01*
X191072Y163546D01*
X191072Y165187D01*
X193656Y165187D01*
X135652Y155974D02*
X136390Y156302D01*
X136759Y156958D01*
X135652Y155974D02*
X134914Y155974D01*
X134176Y156302D01*
X133807Y156958D01*
X133807Y158927D01*
X134176Y159583D01*
X134914Y159911D01*
X135652Y159911D01*
X136390Y159583D01*
X136759Y158927D01*
X137837Y159911D02*
X137468Y157942D01*
X140421Y157942D01*
X139313Y158927D02*
X139313Y155974D01*
X255078Y184281D02*
X255078Y180344D01*
X256924Y180344D01*
X257662Y180672D01*
X258031Y181328D01*
X258031Y183297D01*
X257662Y183953D01*
X256924Y184281D01*
X255078Y184281D01*
X261692Y180344D02*
X258740Y180344D01*
X259109Y183953D02*
X259847Y184281D01*
X260585Y184281D01*
X261323Y183953D01*
X261692Y183297D01*
X261692Y182969D01*
X261323Y182312D01*
X258740Y180344D02*
X261323Y182312D01*
X259109Y183953D02*
X258740Y183297D01*
X47316Y49547D02*
X47316Y45610D01*
X47316Y47578D02*
X49162Y47578D01*
X49900Y47906D01*
X50269Y48562D01*
X49900Y49219D01*
X49162Y49547D01*
X47316Y49547D01*
X48793Y47578D02*
X50269Y45610D01*
X50978Y45938D02*
X51716Y45610D01*
X52823Y45610D01*
X53562Y45938D01*
X53931Y46594D01*
X53931Y46922D01*
X53562Y47578D01*
X52823Y47906D01*
X50978Y47906D01*
X50978Y49547D01*
X53562Y49547D01*
X282618Y196062D02*
X282618Y192125D01*
X282618Y196062D02*
X285570Y196062D01*
X282618Y194094D02*
X284094Y194094D01*
X286279Y192125D02*
X289232Y192125D01*
X287755Y192125D02*
X287755Y196062D01*
X286648Y195078D02*
X287755Y196062D01*
X87672Y192500D02*
X88410Y192828D01*
X88779Y193484D01*
X87672Y192500D02*
X86934Y192500D01*
X86195Y192828D01*
X85826Y193484D01*
X85826Y195452D01*
X86195Y196108D01*
X86934Y196437D01*
X87672Y196437D01*
X88410Y196108D01*
X88779Y195452D01*
X90226Y192500D02*
X92440Y196437D01*
X89488Y196437D01*
X92071Y194468D02*
X90595Y194468D01*
X212258Y195000D02*
X212997Y195328D01*
X213366Y195984D01*
X212258Y195000D02*
X211520Y195000D01*
X210782Y195328D01*
X210413Y195984D01*
X210413Y197952D01*
X210782Y198608D01*
X211520Y198937D01*
X212258Y198937D01*
X212997Y198608D01*
X213366Y197952D01*
X214443Y198608D02*
X215182Y198937D01*
X215920Y198937D01*
X216658Y198608D01*
X217027Y197952D01*
X217027Y197624D01*
X216658Y196968D01*
X214443Y195328D02*
X215182Y195000D01*
X215920Y195000D01*
X216658Y195328D01*
X217027Y195984D01*
X217027Y196312D01*
X216658Y196968D01*
X216289Y196968D02*
X216658Y196968D01*
X133336Y11624D02*
X133336Y7687D01*
X133336Y8999D02*
X136289Y11624D01*
X134443Y9983D02*
X136289Y7687D01*
X137367Y11295D02*
X138105Y11624D01*
X138843Y11624D01*
X139581Y11295D01*
X139950Y10639D01*
X139950Y10311D01*
X139581Y9655D01*
X137367Y8015D02*
X138105Y7687D01*
X138843Y7687D01*
X139581Y8015D01*
X139950Y8671D01*
X139950Y8999D01*
X139581Y9655D01*
X139212Y9655D02*
X139581Y9655D01*
X331874Y200511D02*
X331874Y196574D01*
X331874Y197887D02*
X334826Y200511D01*
X332981Y198871D02*
X334826Y196574D01*
X335535Y196574D02*
X338488Y196574D01*
X337011Y196574D02*
X337011Y200511D01*
X335904Y199527D02*
X337011Y200511D01*
X344700Y141137D02*
X344700Y137200D01*
X344700Y138513D02*
X347653Y141137D01*
X345808Y139497D02*
X347653Y137200D01*
X348731Y141137D02*
X348362Y139169D01*
X351314Y139169D01*
X350207Y140153D02*
X350207Y137200D01*
X334700Y141137D02*
X334700Y137200D01*
X334700Y138513D02*
X337653Y141137D01*
X335808Y139497D02*
X337653Y137200D01*
X338362Y137528D02*
X339100Y137200D01*
X340207Y137200D01*
X340945Y137528D01*
X341314Y138185D01*
X341314Y138513D01*
X340945Y139169D01*
X340207Y139497D01*
X338362Y139497D01*
X338362Y141137D01*
X340945Y141137D01*
X369700Y141137D02*
X369700Y137200D01*
X369700Y138513D02*
X372653Y141137D01*
X370808Y139497D02*
X372653Y137200D01*
X374100Y137200D02*
X376314Y141137D01*
X373362Y141137D01*
X375945Y139169D02*
X374469Y139169D01*
X44980Y29655D02*
X44980Y25718D01*
X46825Y25718D01*
X47563Y26046D01*
X47933Y26702D01*
X47933Y28671D01*
X47563Y29327D01*
X46825Y29655D01*
X44980Y29655D01*
X48641Y25718D02*
X51594Y25718D01*
X50118Y25718D02*
X50118Y29655D01*
X49010Y28671D02*
X50118Y29655D01*
X74980Y29655D02*
X74980Y25718D01*
X76825Y25718D01*
X77563Y26046D01*
X77933Y26702D01*
X77933Y28671D01*
X77563Y29327D01*
X76825Y29655D01*
X74980Y29655D01*
X79010Y29327D02*
X79749Y29655D01*
X80487Y29655D01*
X81225Y29327D01*
X81594Y28671D01*
X81594Y28343D01*
X81225Y27687D01*
X79010Y26046D02*
X79749Y25718D01*
X80487Y25718D01*
X81225Y26046D01*
X81594Y26702D01*
X81594Y27030D01*
X81225Y27687D01*
X80856Y27687D02*
X81225Y27687D01*
X78096Y49389D02*
X78096Y45452D01*
X78096Y47421D02*
X79941Y47421D01*
X80680Y47749D01*
X81049Y48405D01*
X80680Y49061D01*
X79941Y49389D01*
X78096Y49389D01*
X79572Y47421D02*
X81049Y45452D01*
X81757Y45452D02*
X84710Y45452D01*
X83234Y45452D02*
X83234Y49389D01*
X82126Y48405D02*
X83234Y49389D01*
X247316Y133297D02*
X247316Y129360D01*
X247316Y131328D02*
X249162Y131328D01*
X249900Y131656D01*
X250269Y132312D01*
X249900Y132969D01*
X249162Y133297D01*
X247316Y133297D01*
X248793Y131328D02*
X250269Y129360D01*
X253562Y133297D02*
X252085Y133297D01*
X251347Y132969D01*
X250978Y132312D01*
X250978Y130344D01*
X251347Y129688D01*
X252085Y129360D01*
X252823Y129360D01*
X253562Y129688D01*
X253931Y130344D01*
X253931Y130672D01*
X253562Y131328D01*
X252823Y131656D01*
X252085Y131656D01*
X251347Y131328D01*
X250978Y130672D01*
X219015Y132312D02*
X221968Y132312D01*
X220492Y132312D02*
X220492Y136250D01*
X219015Y136250D02*
X221968Y136250D01*
X224522Y132312D02*
X225260Y132641D01*
X225629Y133297D01*
X224522Y132312D02*
X223784Y132312D01*
X223046Y132641D01*
X222677Y133297D01*
X222677Y135265D01*
X223046Y135921D01*
X223784Y136250D01*
X224522Y136250D01*
X225260Y135921D01*
X225629Y135265D01*
X226338Y132312D02*
X229291Y132312D01*
X227814Y132312D02*
X227814Y136250D01*
X226707Y135265D02*
X227814Y136250D01*
X275715Y80088D02*
X276453Y80416D01*
X276822Y81072D01*
X275715Y80088D02*
X274977Y80088D01*
X274239Y80416D01*
X273870Y81072D01*
X273870Y83041D01*
X274239Y83697D01*
X274977Y84025D01*
X275715Y84025D01*
X276453Y83697D01*
X276822Y83041D01*
X277531Y80088D02*
X280484Y80088D01*
X279007Y80088D02*
X279007Y84025D01*
X277900Y83041D02*
X279007Y84025D01*
X262860Y66889D02*
X262860Y62952D01*
X262860Y64921D02*
X264705Y64921D01*
X265443Y65249D01*
X265812Y65905D01*
X265443Y66561D01*
X264705Y66889D01*
X262860Y66889D01*
X264336Y64921D02*
X265812Y62952D01*
X266890Y66561D02*
X267628Y66889D01*
X268367Y66889D01*
X269105Y66561D01*
X269474Y65905D01*
X269474Y65577D01*
X269105Y64921D01*
X266890Y63280D02*
X267628Y62952D01*
X268367Y62952D01*
X269105Y63280D01*
X269474Y63937D01*
X269474Y64265D01*
X269105Y64921D01*
X268736Y64921D02*
X269105Y64921D01*
X300000Y76250D02*
X302952Y76250D01*
X301476Y76250D02*
X301476Y80187D01*
X300000Y80187D02*
X302952Y80187D01*
X305506Y76250D02*
X306245Y76578D01*
X306614Y77234D01*
X305506Y76250D02*
X304768Y76250D01*
X304030Y76578D01*
X303661Y77234D01*
X303661Y79202D01*
X304030Y79858D01*
X304768Y80187D01*
X305506Y80187D01*
X306245Y79858D01*
X306614Y79202D01*
X310275Y76250D02*
X307322Y76250D01*
X307691Y79858D02*
X308430Y80187D01*
X309168Y80187D01*
X309906Y79858D01*
X310275Y79202D01*
X310275Y78874D01*
X309906Y78218D01*
X307322Y76250D02*
X309906Y78218D01*
X307691Y79858D02*
X307322Y79202D01*
X235299Y12612D02*
X235299Y8675D01*
X235299Y9987D02*
X238251Y12612D01*
X236406Y10971D02*
X238251Y8675D01*
X241544Y12612D02*
X240067Y12612D01*
X239329Y12284D01*
X238960Y11627D01*
X238960Y9659D01*
X239329Y9003D01*
X240067Y8675D01*
X240806Y8675D01*
X241544Y9003D01*
X241913Y9659D01*
X241913Y9987D01*
X241544Y10643D01*
X240806Y10971D01*
X240067Y10971D01*
X239329Y10643D01*
X238960Y9987D01*
X190412Y30610D02*
X191150Y30938D01*
X191519Y31594D01*
X190412Y30610D02*
X189674Y30610D01*
X188936Y30938D01*
X188566Y31594D01*
X188566Y33562D01*
X188936Y34219D01*
X189674Y34547D01*
X190412Y34547D01*
X191150Y34219D01*
X191519Y33562D01*
X195181Y30610D02*
X192228Y30610D01*
X192597Y34219D02*
X193335Y34547D01*
X194073Y34547D01*
X194812Y34219D01*
X195181Y33562D01*
X195181Y33234D01*
X194812Y32578D01*
X192228Y30610D02*
X194812Y32578D01*
X192597Y34219D02*
X192228Y33562D01*
X183330Y114547D02*
X183330Y110610D01*
X183330Y112578D02*
X185176Y112578D01*
X185914Y112906D01*
X186283Y113562D01*
X185914Y114219D01*
X185176Y114547D01*
X183330Y114547D01*
X184807Y112578D02*
X186283Y110610D01*
X187361Y114547D02*
X186992Y112578D01*
X189944Y112578D01*
X188837Y113562D02*
X188837Y110610D01*
X111008Y118937D02*
X110270Y118608D01*
X109901Y117952D01*
X109901Y115984D01*
X110270Y115328D01*
X111008Y115000D01*
X111747Y115000D01*
X112485Y115328D01*
X112854Y115984D01*
X112854Y117952D01*
X112485Y118608D01*
X111747Y118937D01*
X111008Y118937D01*
X111747Y115984D02*
X112854Y115000D01*
X113562Y115000D02*
X116515Y115000D01*
X115039Y115000D02*
X115039Y118937D01*
X113932Y117952D02*
X115039Y118937D01*
X16250Y48937D02*
X19202Y48937D01*
X17726Y48937D02*
X17726Y45000D01*
X19911Y45656D02*
X20649Y45000D01*
X22125Y45000D01*
X22864Y45656D01*
X19911Y45656D02*
X19911Y46640D01*
X20649Y47296D01*
X22125Y47296D01*
X22864Y46640D01*
X22864Y45000D01*
X23572Y45000D02*
X26525Y45000D01*
X25049Y45000D02*
X25049Y48937D01*
X23941Y47952D02*
X25049Y48937D01*
X185175Y48503D02*
X185175Y44566D01*
X185175Y45879D02*
X188127Y48503D01*
X186282Y46863D02*
X188127Y44566D01*
X188836Y45223D02*
X189574Y44566D01*
X191051Y44566D01*
X191789Y45223D01*
X191789Y45879D01*
X188836Y47191D01*
X188836Y47847D01*
X189574Y48503D01*
X191051Y48503D01*
X191789Y47847D01*
X191789Y47191D01*
X188836Y45879D01*
X188836Y45223D01*
X161553Y48503D02*
X161553Y44566D01*
X161553Y45879D02*
X164505Y48503D01*
X162660Y46863D02*
X164505Y44566D01*
X165583Y44566D02*
X167060Y44566D01*
X167798Y44895D01*
X168167Y45551D01*
X168167Y47519D01*
X167798Y48175D01*
X167060Y48503D01*
X166321Y48503D01*
X165583Y48175D01*
X165214Y47519D01*
X165214Y47191D01*
X165583Y46535D01*
X166321Y46207D01*
X167060Y46207D01*
X167798Y46535D01*
X168167Y47191D01*
X78653Y76683D02*
X78653Y72746D01*
X78653Y74058D02*
X81606Y76683D01*
X79760Y75042D02*
X81606Y72746D01*
X82314Y72746D02*
X85267Y72746D01*
X83791Y72746D02*
X83791Y76683D01*
X82684Y75698D02*
X83791Y76683D01*
X87083Y76683D02*
X86345Y76354D01*
X85976Y75698D01*
X85976Y73730D01*
X86345Y73074D01*
X87083Y72746D01*
X87821Y72746D01*
X88560Y73074D01*
X88929Y73730D01*
X88929Y75698D01*
X88560Y76354D01*
X87821Y76683D01*
X87083Y76683D01*
X86345Y73074D02*
X88560Y76354D01*
X167127Y107746D02*
X167127Y103809D01*
X167127Y105121D02*
X170080Y107746D01*
X168235Y106105D02*
X170080Y103809D01*
X170789Y103809D02*
X173742Y103809D01*
X172265Y103809D02*
X172265Y107746D01*
X171158Y106761D02*
X172265Y107746D01*
X174450Y103809D02*
X177403Y103809D01*
X175927Y103809D02*
X175927Y107746D01*
X174819Y106761D02*
X175927Y107746D01*
X237070Y97612D02*
X237070Y93675D01*
X237070Y94987D02*
X240023Y97612D01*
X238178Y95971D02*
X240023Y93675D01*
X240732Y93675D02*
X243685Y93675D01*
X242208Y93675D02*
X242208Y97612D01*
X241101Y96627D02*
X242208Y97612D01*
X247346Y93675D02*
X244393Y93675D01*
X244762Y97284D02*
X245500Y97612D01*
X246239Y97612D01*
X246977Y97284D01*
X247346Y96627D01*
X247346Y96299D01*
X246977Y95643D01*
X244393Y93675D02*
X246977Y95643D01*
X244762Y97284D02*
X244393Y96627D01*
X197676Y128110D02*
X198414Y128438D01*
X198783Y129094D01*
X197676Y128110D02*
X196937Y128110D01*
X196199Y128438D01*
X195830Y129094D01*
X195830Y131062D01*
X196199Y131719D01*
X196937Y132047D01*
X197676Y132047D01*
X198414Y131719D01*
X198783Y131062D01*
X199492Y128766D02*
X200230Y128110D01*
X201706Y128110D01*
X202444Y128766D01*
X202444Y129422D01*
X199492Y130734D01*
X199492Y131391D01*
X200230Y132047D01*
X201706Y132047D01*
X202444Y131391D01*
X202444Y130734D01*
X199492Y129422D01*
X199492Y128766D01*
X243307Y164377D02*
X243307Y160440D01*
X245152Y160440D01*
X245890Y160769D01*
X246259Y161425D01*
X246259Y163393D01*
X245890Y164049D01*
X245152Y164377D01*
X243307Y164377D01*
X247337Y164377D02*
X246968Y162409D01*
X249921Y162409D01*
X248813Y163393D02*
X248813Y160440D01*
M02*
