M48
METRIC
T1F00S00C0.500
T2F00S00C0.700
T3F00S00C0.800
T4F00S00C0.900
T5F00S00C1.000
T6F00S00C3.000
T7F00S00C3.200
%
M71
T1
X32.3850Y37.1475
X31.7250Y32.3850
X36.1250Y32.3850
X40.2650Y37.1475
X73.6600Y15.1600
X72.7075Y23.4950
X97.4725Y11.7000
X97.4725Y6.6200
X8.8900Y5.7150
X60.0075Y29.8450
X60.0075Y33.0200
X52.7050Y34.9250
X65.0875Y37.1475
X41.5925Y10.1600
X51.1175Y13.9700
X45.1550Y22.1550
X49.5300Y26.0350
X27.3050Y16.5100
X73.6600Y13.1600
X29.2100Y16.5100
X71.4375Y11.7475
X30.4800Y15.2400
X73.6600Y11.1600
X33.7250Y23.4950
X40.6400Y28.5750
X22.8600Y14.2875
X22.8600Y32.3850
X22.8600Y37.1475
X32.3850Y42.8625
X33.6550Y48.2600
X53.9750Y28.5750
X70.1675Y18.7325
X46.9900Y38.7350
X54.9275Y32.3825
X49.5300Y31.1150
X50.1650Y10.1600
X57.7850Y10.1600
X73.6600Y5.1600
X41.2750Y24.4475
X27.3050Y19.3675
X70.1675Y14.2875
T2
X46.0000Y13.9700
X44.0000Y13.9700
X48.0000Y13.9700
X40.0000Y13.9700
X38.0000Y13.9700
X42.0000Y13.9700
X24.4475Y18.9550
X24.4475Y20.9550
X40.6400Y26.3525
T3
X26.6700Y43.8150
X26.6700Y46.3550
X57.1500Y43.8150
X57.1500Y46.3550
X15.2400Y8.2550
X15.2400Y5.7150
X22.8600Y8.2550
X22.8600Y5.7150
T4
X29.2100Y7.6200
X31.7500Y7.6200
X29.2100Y5.0800
X31.7500Y5.0800
X29.2100Y2.5400
X31.7500Y2.5400
X57.7850Y2.5400
X55.2450Y2.5400
X52.7050Y2.5400
X50.1650Y2.5400
X47.6250Y2.5400
X45.0850Y2.5400
X61.5950Y26.6700
X59.0550Y26.6700
X56.5150Y26.6700
X53.9750Y26.6700
T5
X75.5650Y43.8150
X70.4850Y43.8150
X84.5900Y42.6400
X87.1300Y42.6400
X88.4000Y40.1000
X82.0500Y42.6400
X83.3200Y40.1000
X85.8600Y40.1000
X88.2650Y37.4650
X85.7250Y37.4650
X94.6150Y37.4650
X99.6950Y9.1600
T6
X3.5000Y4.0000
X100.5000Y4.0000
X3.5000Y43.0000
X100.5000Y43.0000
T7
X90.3000Y49.0000
X80.1400Y49.0000
M30
