%FSLAX35Y35*%
%MOIN*%
%IN2=KupferuntenL1(X.Bot)*%
%ADD10C,0.00591*%
%ADD11C,0.00004*%
%ADD12C,0.00077*%
%ADD13C,0.00094*%
%ADD14C,0.00154*%
%ADD15C,0.00192*%
%ADD16C,0.00197*%
%ADD17C,0.00200*%
%ADD18C,0.00240*%
%ADD19C,0.00300*%
%ADD20C,0.00394*%
%ADD21C,0.00400*%
%ADD22C,0.00500*%
%ADD23C,0.00600*%
%ADD24C,0.00700*%
%ADD25C,0.00787*%
%ADD26C,0.00800*%
%ADD27C,0.01000*%
%ADD28C,0.01181*%
%ADD29C,0.01200*%
%ADD30C,0.01575*%
%ADD31C,0.01969*%
%ADD32C,0.02362*%
%ADD33C,0.03150*%
%ADD34C,0.05000*%
%ADD35C,0.05118*%
%ADD36C,0.05906*%
%ADD37C,0.07087*%
%ADD38C,0.09843*%
%AMR_39*21,1,0.00591,0.01181,0,0,0.000*%
%ADD39R_39*%
%AMR_40*21,1,0.00787,0.04724,0,0,0.000*%
%ADD40R_40*%
%AMR_41*21,1,0.00788,0.03150,0,0,0.000*%
%ADD41R_41*%
%AMR_42*21,1,0.01000,0.02000,0,0,0.000*%
%ADD42R_42*%
%AMR_43*21,1,0.01181,0.01181,0,0,0.000*%
%ADD43R_43*%
%AMR_44*21,1,0.01250,0.04375,0,0,0.000*%
%ADD44R_44*%
%AMR_45*21,1,0.01400,0.05600,0,0,0.000*%
%ADD45R_45*%
%AMR_46*21,1,0.01574,0.03150,0,0,0.000*%
%ADD46R_46*%
%AMR_47*21,1,0.01574,0.04724,0,0,0.000*%
%ADD47R_47*%
%AMR_48*21,1,0.01800,0.02300,0,0,0.000*%
%ADD48R_48*%
%AMR_49*21,1,0.01890,0.01417,0,0,180.000*%
%ADD49R_49*%
%AMR_50*21,1,0.01969,0.02559,0,0,0.000*%
%ADD50R_50*%
%AMR_51*21,1,0.02000,0.02000,0,0,0.000*%
%ADD51R_51*%
%AMR_52*21,1,0.02165,0.04724,0,0,0.000*%
%ADD52R_52*%
%AMR_53*21,1,0.02200,0.05000,0,0,45.000*%
%ADD53R_53*%
%AMR_54*21,1,0.02362,0.01969,0,0,90.000*%
%ADD54R_54*%
%AMR_55*21,1,0.02362,0.01969,0,0,180.000*%
%ADD55R_55*%
%AMR_56*21,1,0.02559,0.05906,0,0,0.000*%
%ADD56R_56*%
%AMR_57*21,1,0.02953,0.05709,0,0,0.000*%
%ADD57R_57*%
%AMR_58*21,1,0.02953,0.06693,0,0,0.000*%
%ADD58R_58*%
%AMR_59*21,1,0.03150,0.00788,0,0,0.000*%
%ADD59R_59*%
%AMR_60*21,1,0.03150,0.01574,0,0,0.000*%
%ADD60R_60*%
%AMR_61*21,1,0.03750,0.01875,0,0,0.000*%
%ADD61R_61*%
%AMR_62*21,1,0.03839,0.01535,0,0,0.000*%
%ADD62R_62*%
%AMR_63*21,1,0.03937,0.05512,0,0,0.000*%
%ADD63R_63*%
%AMR_64*21,1,0.04000,0.06000,0,0,0.000*%
%ADD64R_64*%
%AMR_65*21,1,0.04600,0.06300,0,0,0.000*%
%ADD65R_65*%
%AMR_66*21,1,0.04600,0.06300,0,0,90.000*%
%ADD66R_66*%
%AMR_67*21,1,0.04600,0.06300,0,0,270.000*%
%ADD67R_67*%
%AMR_68*21,1,0.04724,0.01574,0,0,0.000*%
%ADD68R_68*%
%AMR_69*21,1,0.04724,0.04724,0,0,0.000*%
%ADD69R_69*%
%AMR_70*21,1,0.05000,0.02200,0,0,45.000*%
%ADD70R_70*%
%AMR_71*21,1,0.05000,0.10000,0,0,90.000*%
%ADD71R_71*%
%AMR_72*21,1,0.05118,0.01575,0,0,0.000*%
%ADD72R_72*%
%AMR_73*21,1,0.05118,0.05906,0,0,0.000*%
%ADD73R_73*%
%AMR_74*21,1,0.05118,0.05906,0,0,45.000*%
%ADD74R_74*%
%AMR_75*21,1,0.05118,0.05906,0,0,90.000*%
%ADD75R_75*%
%AMR_76*21,1,0.05118,0.05906,0,0,270.000*%
%ADD76R_76*%
%AMR_77*21,1,0.05118,0.05906,0,0,315.000*%
%ADD77R_77*%
%AMR_78*21,1,0.05118,0.06299,0,0,0.000*%
%ADD78R_78*%
%AMR_79*21,1,0.05118,0.06299,0,0,90.000*%
%ADD79R_79*%
%AMR_80*21,1,0.05118,0.06299,0,0,180.000*%
%ADD80R_80*%
%AMR_81*21,1,0.05118,0.06299,0,0,270.000*%
%ADD81R_81*%
%AMR_82*21,1,0.05315,0.02362,0,0,0.000*%
%ADD82R_82*%
%AMR_83*21,1,0.05512,0.02795,0,0,90.000*%
%ADD83R_83*%
%AMR_84*21,1,0.05600,0.01400,0,0,0.000*%
%ADD84R_84*%
%AMR_85*21,1,0.05709,0.02953,0,0,0.000*%
%ADD85R_85*%
%AMR_86*21,1,0.06299,0.05512,0,0,0.000*%
%ADD86R_86*%
%AMR_87*21,1,0.06299,0.05512,0,0,180.000*%
%ADD87R_87*%
%AMR_88*21,1,0.06299,0.07087,0,0,180.000*%
%ADD88R_88*%
%AMR_89*21,1,0.06299,0.07087,0,0,270.000*%
%ADD89R_89*%
%AMR_90*21,1,0.06693,0.02953,0,0,0.000*%
%ADD90R_90*%
%AMR_91*21,1,0.07087,0.14173,0,0,90.000*%
%ADD91R_91*%
%AMR_92*21,1,0.07200,0.00600,0,0,0.000*%
%ADD92R_92*%
%AMR_93*21,1,0.07874,0.03938,0,0,0.000*%
%ADD93R_93*%
%AMR_94*21,1,0.07874,0.06299,0,0,90.000*%
%ADD94R_94*%
%AMR_95*21,1,0.10625,0.01875,0,0,0.000*%
%ADD95R_95*%
%AMR_96*21,1,0.11875,0.19685,0,0,0.000*%
%ADD96R_96*%
%AMR_97*21,1,0.19685,0.19685,0,0,0.000*%
%ADD97R_97*%
%AMOCT_98*4,1,8,0.031496,0.015748,0.015748,0.031496,-0.015748,0.031496,-0.031496,0.015748,-0.031496,-0.015748,-0.015748,-0.031496,0.015748,-0.031496,0.031496,-0.015748,0.031496,0.015748,0.000*%
%ADD98OCT_98*%
%ADD99C,0.05906*%
%AMRR_100*21,1,0.01969,0.01102,0,0,0.000*21,1,0.01693,0.01378,0,0,0.000*1,1,0.00276,0.00846,0.00551*1,1,0.00276,-0.00846,-0.00551*1,1,0.00276,0.00846,-0.00551*1,1,0.00276,-0.00846,0.00551*%
%ADD100RR_100*%
G54D25*
X211718Y113776D02*
X211711Y113779D01*
X209788Y114488D01*
X209773Y114493D01*
X207726Y114493D01*
X205781Y113776D02*
X205788Y113779D01*
X207711Y114488D01*
X207726Y114493D01*
X204348Y112343D02*
X204366Y112362D01*
X205075Y113070D01*
X205781Y113776D01*
X203631Y110398D02*
X203832Y110944D01*
X204093Y111653D01*
X204348Y112343D01*
X203631Y108351D02*
X203631Y108818D01*
X203631Y109527D01*
X203631Y110236D01*
X203631Y110398D01*
X204348Y106406D02*
X204242Y106692D01*
X203981Y107401D01*
X203720Y108110D01*
X203631Y108351D01*
X205781Y104973D02*
X205478Y105275D01*
X204770Y105984D01*
X204348Y106406D01*
X207726Y104256D02*
X206883Y104566D01*
X205781Y104973D01*
X207726Y104256D02*
X209773Y104256D01*
X210616Y104566D01*
X211718Y104973D01*
X212021Y105275D01*
X212729Y105984D01*
X213151Y106406D01*
X213257Y106692D01*
X213518Y107401D01*
X213779Y108110D01*
X213868Y108351D01*
X213868Y108818D01*
X213868Y109527D01*
X213868Y110236D01*
X213868Y110398D01*
X213667Y110944D01*
X213406Y111653D01*
X213151Y112343D01*
X213133Y112362D01*
X212424Y113070D01*
X211718Y113776D01*
X216718Y100651D02*
X215709Y101023D01*
X214773Y101368D01*
X212726Y101368D01*
X210781Y100651D02*
X211790Y101023D01*
X212726Y101368D01*
X209348Y99218D02*
X209735Y99606D01*
X210444Y100314D01*
X210781Y100651D01*
X208631Y97273D02*
X208707Y97480D01*
X208968Y98188D01*
X209229Y98897D01*
X209348Y99218D01*
X208631Y95226D02*
X208631Y95354D01*
X208631Y96062D01*
X208631Y96771D01*
X208631Y97273D01*
X209348Y93281D02*
X209106Y93937D01*
X208845Y94645D01*
X208631Y95226D01*
X210781Y91848D02*
X210109Y92519D01*
X209401Y93228D01*
X209348Y93281D01*
X212726Y91131D02*
X210881Y91811D01*
X210781Y91848D01*
X212726Y91131D02*
X214773Y91131D01*
X216618Y91811D01*
X216718Y91848D01*
X217390Y92519D01*
X218098Y93228D01*
X218151Y93281D01*
X218393Y93937D01*
X218654Y94645D01*
X218868Y95226D01*
X218868Y95354D01*
X218868Y96062D01*
X218868Y96771D01*
X218868Y97273D01*
X218792Y97480D01*
X218531Y98188D01*
X218270Y98897D01*
X218151Y99218D01*
X217764Y99606D01*
X217055Y100314D01*
X216718Y100651D01*
X203563Y95769D02*
X202765Y96062D01*
X201843Y96402D01*
X200937Y96402D02*
X200031Y96402D01*
X198311Y95769D02*
X199109Y96062D01*
X200031Y96402D01*
X197043Y94501D02*
X197187Y94645D01*
X197896Y95354D01*
X198311Y95769D01*
X196409Y92780D02*
X196574Y93228D01*
X196835Y93937D01*
X197043Y94501D01*
X196409Y90969D02*
X196409Y91102D01*
X196409Y91811D01*
X196409Y92519D01*
X196409Y92780D01*
X197043Y89248D02*
X196882Y89685D01*
X196621Y90393D01*
X196409Y90969D01*
X198311Y87980D02*
X198024Y88267D01*
X197315Y88976D01*
X197043Y89248D01*
X200031Y87347D02*
X199456Y87559D01*
X198311Y87980D01*
X200937Y87347D02*
X201843Y87347D01*
X202418Y87559D01*
X203563Y87980D01*
X203850Y88267D01*
X204559Y88976D01*
X204831Y89248D01*
X204992Y89685D01*
X205253Y90393D01*
X205465Y90969D01*
X205465Y91102D01*
X205465Y91811D01*
X205465Y92519D01*
X205465Y92780D01*
X205300Y93228D01*
X205039Y93937D01*
X204831Y94501D01*
X204687Y94645D01*
X203978Y95354D01*
X203563Y95769D01*
X196056Y110202D02*
X196022Y110236D01*
X195313Y110944D01*
X194605Y111653D01*
X193896Y112362D01*
X193327Y112931D01*
X188547Y112931D01*
X185819Y110202D02*
X185852Y110236D01*
X186561Y110944D01*
X187269Y111653D01*
X187978Y112362D01*
X188547Y112931D01*
X185819Y105422D02*
X185819Y105984D01*
X185819Y106692D01*
X185819Y107401D01*
X185819Y108110D01*
X185819Y108818D01*
X185819Y109527D01*
X185819Y110202D01*
X187984Y103256D02*
X187382Y103858D01*
X186674Y104566D01*
X185965Y105275D01*
X185819Y105422D01*
X187984Y95442D02*
X187984Y96062D01*
X187984Y96771D01*
X187984Y97480D01*
X187984Y98188D01*
X187984Y98897D01*
X187984Y99606D01*
X187984Y100314D01*
X187984Y101023D01*
X187984Y101732D01*
X187984Y102440D01*
X187984Y103149D01*
X187984Y103256D01*
X187043Y94501D02*
X187187Y94645D01*
X187896Y95354D01*
X187984Y95442D01*
X186409Y92780D02*
X186574Y93228D01*
X186835Y93937D01*
X187043Y94501D01*
X186409Y90969D02*
X186409Y91102D01*
X186409Y91811D01*
X186409Y92519D01*
X186409Y92780D01*
X187043Y89248D02*
X186882Y89685D01*
X186621Y90393D01*
X186409Y90969D01*
X188311Y87980D02*
X188024Y88267D01*
X187315Y88976D01*
X187043Y89248D01*
X190031Y87347D02*
X189456Y87559D01*
X188311Y87980D01*
X190031Y87347D02*
X191843Y87347D01*
X192418Y87559D01*
X193563Y87980D01*
X193850Y88267D01*
X194559Y88976D01*
X194831Y89248D01*
X194992Y89685D01*
X195253Y90393D01*
X195465Y90969D01*
X195465Y91102D01*
X195465Y91811D01*
X195465Y92519D01*
X195465Y92780D01*
X195300Y93228D01*
X195039Y93937D01*
X194831Y94501D01*
X194687Y94645D01*
X193978Y95354D01*
X193890Y95442D01*
X193890Y96062D01*
X193890Y96771D01*
X193890Y97480D01*
X193890Y98188D01*
X193890Y98897D01*
X193890Y99606D01*
X193890Y100314D01*
X193890Y101023D01*
X193890Y101732D01*
X193890Y102440D01*
X193890Y103149D01*
X193890Y103256D01*
X194492Y103858D01*
X195200Y104566D01*
X195909Y105275D01*
X196056Y105422D01*
X196056Y105984D01*
X196056Y106692D01*
X196056Y107401D01*
X196056Y108110D01*
X196056Y108818D01*
X196056Y109527D01*
X196056Y110202D01*
X183563Y95769D02*
X182765Y96062D01*
X181843Y96402D01*
X180937Y96402D02*
X180031Y96402D01*
X178311Y95769D02*
X179109Y96062D01*
X180031Y96402D01*
X177043Y94501D02*
X177187Y94645D01*
X177896Y95354D01*
X178311Y95769D01*
X176409Y92780D02*
X176574Y93228D01*
X176835Y93937D01*
X177043Y94501D01*
X176409Y90969D02*
X176409Y91102D01*
X176409Y91811D01*
X176409Y92519D01*
X176409Y92780D01*
X177043Y89248D02*
X176882Y89685D01*
X176621Y90393D01*
X176409Y90969D01*
X178311Y87980D02*
X178024Y88267D01*
X177315Y88976D01*
X177043Y89248D01*
X180031Y87347D02*
X179456Y87559D01*
X178311Y87980D01*
X180937Y87347D02*
X181843Y87347D01*
X182418Y87559D01*
X183563Y87980D01*
X183850Y88267D01*
X184559Y88976D01*
X184831Y89248D01*
X184992Y89685D01*
X185253Y90393D01*
X185465Y90969D01*
X185465Y91102D01*
X185465Y91811D01*
X185465Y92519D01*
X185465Y92780D01*
X185300Y93228D01*
X185039Y93937D01*
X184831Y94501D01*
X184687Y94645D01*
X183978Y95354D01*
X183563Y95769D01*
X108065Y95189D02*
X107901Y95354D01*
X107192Y96062D01*
X106483Y96771D01*
X106439Y96815D01*
X108065Y86141D02*
X108065Y86850D01*
X108065Y87559D01*
X108065Y88267D01*
X108065Y88976D01*
X108065Y89685D01*
X108065Y90393D01*
X108065Y91102D01*
X108065Y91811D01*
X108065Y92519D01*
X108065Y93228D01*
X108065Y93937D01*
X108065Y94645D01*
X108065Y95189D01*
X108065Y84564D02*
X108065Y84724D01*
X108065Y85433D01*
X108065Y86141D01*
X109940Y82689D02*
X109323Y83307D01*
X108614Y84015D01*
X108065Y84564D01*
X111439Y81190D02*
X110740Y81889D01*
X110031Y82598D01*
X109940Y82689D01*
X111439Y81190D02*
X123706Y81190D01*
X124194Y80702D02*
X123715Y81181D01*
X123706Y81190D01*
X124243Y80684D02*
X124194Y80702D01*
X124243Y80684D02*
X89564Y80684D01*
X87935Y79055D02*
X88644Y79763D01*
X89352Y80472D01*
X89564Y80684D01*
X86841Y77961D02*
X87226Y78346D01*
X87935Y79055D01*
X86841Y77961D02*
X86609Y78046D01*
X84640Y78046D01*
X82770Y77357D02*
X83530Y77637D01*
X84640Y78046D01*
X81392Y75979D02*
X81633Y76220D01*
X82341Y76929D01*
X82770Y77357D01*
X80703Y74109D02*
X80958Y74803D01*
X81220Y75511D01*
X81392Y75979D01*
X80703Y72140D02*
X80703Y72677D01*
X80703Y73385D01*
X80703Y74094D01*
X80703Y74109D01*
X81239Y70684D02*
X81027Y71259D01*
X80766Y71968D01*
X80703Y72140D01*
X81239Y70684D02*
X80010Y70684D01*
X80222Y71259D01*
X80483Y71968D01*
X80546Y72140D01*
X80546Y72677D01*
X80546Y73385D01*
X80546Y74094D01*
X80546Y74109D01*
X80291Y74803D01*
X80029Y75511D01*
X79857Y75979D01*
X79616Y76220D01*
X78908Y76929D01*
X78479Y77357D01*
X77719Y77637D01*
X76609Y78046D01*
X74640Y78046D01*
X73184Y77510D02*
X73530Y77637D01*
X74640Y78046D01*
X73184Y77510D02*
X73184Y77637D01*
X73184Y78346D01*
X73184Y78939D01*
X73299Y79055D01*
X74008Y79763D01*
X74717Y80472D01*
X75425Y81181D01*
X76134Y81889D01*
X76843Y82598D01*
X77551Y83307D01*
X78260Y84015D01*
X78969Y84724D01*
X79677Y85433D01*
X80386Y86141D01*
X80435Y86190D01*
X90435Y86190D01*
X91095Y86850D01*
X91803Y87559D01*
X92512Y88267D01*
X93220Y88976D01*
X93929Y89685D01*
X94638Y90393D01*
X95346Y91102D01*
X96055Y91811D01*
X96764Y92519D01*
X97472Y93228D01*
X98181Y93937D01*
X98890Y94645D01*
X99598Y95354D01*
X100075Y95831D01*
X100708Y95831D01*
X101337Y96062D01*
X102055Y96327D01*
X102499Y96771D01*
X102543Y96815D01*
X106439Y96815D01*
X212707Y114283D02*
X211147Y114488D01*
X210548Y114566D01*
X214701Y113555D02*
X214087Y113779D01*
X212707Y114283D01*
X216489Y112408D02*
X215456Y113070D01*
X214701Y113555D01*
X217982Y110898D02*
X217937Y110944D01*
X217235Y111653D01*
X216534Y112362D01*
X216489Y112408D01*
X219110Y109099D02*
X218842Y109527D01*
X218397Y110236D01*
X217982Y110898D01*
X219818Y107097D02*
X219710Y107401D01*
X219460Y108110D01*
X219209Y108818D01*
X219110Y109099D01*
X220078Y104929D02*
X220036Y105275D01*
X219951Y105984D01*
X219866Y106692D01*
X219818Y107097D01*
X220078Y10698D02*
X220078Y11023D01*
X220078Y11732D01*
X220078Y12440D01*
X220078Y13149D01*
X220078Y13858D01*
X220078Y14566D01*
X220078Y15275D01*
X220078Y15984D01*
X220078Y16692D01*
X220078Y17401D01*
X220078Y18110D01*
X220078Y18818D01*
X220078Y19527D01*
X220078Y20236D01*
X220078Y20944D01*
X220078Y21653D01*
X220078Y22362D01*
X220078Y23070D01*
X220078Y23779D01*
X220078Y24488D01*
X220078Y25196D01*
X220078Y25905D01*
X220078Y26614D01*
X220078Y27322D01*
X220078Y28031D01*
X220078Y28740D01*
X220078Y29448D01*
X220078Y30157D01*
X220078Y30866D01*
X220078Y31574D01*
X220078Y32283D01*
X220078Y32992D01*
X220078Y33700D01*
X220078Y34409D01*
X220078Y35118D01*
X220078Y35826D01*
X220078Y36535D01*
X220078Y37244D01*
X220078Y37952D01*
X220078Y38661D01*
X220078Y39370D01*
X220078Y40078D01*
X220078Y40787D01*
X220078Y41496D01*
X220078Y42204D01*
X220078Y42913D01*
X220078Y43622D01*
X220078Y44330D01*
X220078Y45039D01*
X220078Y45748D01*
X220078Y46456D01*
X220078Y47165D01*
X220078Y47874D01*
X220078Y48582D01*
X220078Y49291D01*
X220078Y50000D01*
X220078Y50708D01*
X220078Y51417D01*
X220078Y52125D01*
X220078Y52834D01*
X220078Y53543D01*
X220078Y54251D01*
X220078Y54960D01*
X220078Y55669D01*
X220078Y56377D01*
X220078Y57086D01*
X220078Y57795D01*
X220078Y58503D01*
X220078Y59212D01*
X220078Y59921D01*
X220078Y60629D01*
X220078Y61338D01*
X220078Y62047D01*
X220078Y62755D01*
X220078Y63464D01*
X220078Y64173D01*
X220078Y64881D01*
X220078Y65590D01*
X220078Y66299D01*
X220078Y67007D01*
X220078Y67716D01*
X220078Y68425D01*
X220078Y69133D01*
X220078Y69842D01*
X220078Y70551D01*
X220078Y71259D01*
X220078Y71968D01*
X220078Y72677D01*
X220078Y73385D01*
X220078Y74094D01*
X220078Y74803D01*
X220078Y75511D01*
X220078Y76220D01*
X220078Y76929D01*
X220078Y77637D01*
X220078Y78346D01*
X220078Y79055D01*
X220078Y79763D01*
X220078Y80472D01*
X220078Y81181D01*
X220078Y81889D01*
X220078Y82598D01*
X220078Y83307D01*
X220078Y84015D01*
X220078Y84724D01*
X220078Y85433D01*
X220078Y86141D01*
X220078Y86850D01*
X220078Y87559D01*
X220078Y88267D01*
X220078Y88976D01*
X220078Y89685D01*
X220078Y90393D01*
X220078Y91102D01*
X220078Y91811D01*
X220078Y92519D01*
X220078Y93228D01*
X220078Y93937D01*
X220078Y94645D01*
X220078Y95354D01*
X220078Y96062D01*
X220078Y96771D01*
X220078Y97480D01*
X220078Y98188D01*
X220078Y98897D01*
X220078Y99606D01*
X220078Y100314D01*
X220078Y101023D01*
X220078Y101732D01*
X220078Y102440D01*
X220078Y103149D01*
X220078Y103858D01*
X220078Y104566D01*
X220078Y104929D01*
X219807Y8549D02*
X219851Y8897D01*
X219940Y9606D01*
X220030Y10314D01*
X220078Y10698D01*
X219093Y6564D02*
X219167Y6771D01*
X219422Y7480D01*
X219677Y8188D01*
X219807Y8549D01*
X217962Y4783D02*
X218324Y5354D01*
X218774Y6062D01*
X219093Y6564D01*
X216470Y3292D02*
X217115Y3937D01*
X217824Y4645D01*
X217962Y4783D01*
X214687Y2163D02*
X215250Y2519D01*
X216369Y3228D01*
X216470Y3292D01*
X212702Y1450D02*
X213707Y1811D01*
X214687Y2163D01*
X210552Y1181D02*
X212702Y1450D01*
X210552Y1181D02*
X10699Y1181D01*
X8550Y1451D01*
X7548Y1811D01*
X6565Y2164D01*
X6005Y2519D01*
X4887Y3228D01*
X4784Y3293D01*
X4141Y3937D01*
X3432Y4645D01*
X3293Y4784D01*
X2932Y5354D01*
X2483Y6062D01*
X2164Y6565D01*
X2090Y6771D01*
X1835Y7480D01*
X1580Y8188D01*
X1451Y8550D01*
X1407Y8897D01*
X1318Y9606D01*
X1229Y10314D01*
X1181Y10699D01*
X1181Y11023D01*
X1181Y11732D01*
X1181Y12440D01*
X1181Y13149D01*
X1181Y13858D01*
X1181Y14566D01*
X1181Y15275D01*
X1181Y15984D01*
X1181Y16692D01*
X1181Y17401D01*
X1181Y18110D01*
X1181Y18818D01*
X1181Y19527D01*
X1181Y20236D01*
X1181Y20944D01*
X1181Y21653D01*
X1181Y22362D01*
X1181Y23070D01*
X1181Y23779D01*
X1181Y24488D01*
X1181Y25196D01*
X1181Y25905D01*
X1181Y26614D01*
X1181Y27322D01*
X1181Y28031D01*
X1181Y28740D01*
X1181Y29448D01*
X1181Y30157D01*
X1181Y30866D01*
X1181Y31574D01*
X1181Y32283D01*
X1181Y32992D01*
X1181Y33700D01*
X1181Y34409D01*
X1181Y35118D01*
X1181Y35826D01*
X1181Y36535D01*
X1181Y37244D01*
X1181Y37952D01*
X1181Y38661D01*
X1181Y39370D01*
X1181Y40078D01*
X1181Y40787D01*
X1181Y41496D01*
X1181Y42204D01*
X1181Y42913D01*
X1181Y43184D01*
X2609Y41756D02*
X2161Y42204D01*
X1452Y42913D01*
X1181Y43184D01*
X2609Y41756D02*
X5857Y41756D01*
X4873Y41394D02*
X5150Y41496D01*
X5857Y41756D01*
X3605Y40126D02*
X4267Y40787D01*
X4873Y41394D01*
X2972Y38405D02*
X3066Y38661D01*
X3327Y39370D01*
X3588Y40078D01*
X3605Y40126D01*
X2972Y36594D02*
X2972Y37244D01*
X2972Y37500D02*
X2972Y37952D01*
X2972Y38405D01*
X3605Y34873D02*
X3515Y35118D01*
X3254Y35826D01*
X2993Y36535D01*
X2972Y36594D01*
X4873Y33605D02*
X4778Y33700D01*
X4070Y34409D01*
X3605Y34873D01*
X6594Y32972D02*
X6539Y32992D01*
X4873Y33605D01*
X6594Y32972D02*
X8405Y32972D01*
X8460Y32992D01*
X10126Y33605D01*
X10221Y33700D01*
X10929Y34409D01*
X11394Y34873D01*
X11484Y35118D01*
X11745Y35826D01*
X12006Y36535D01*
X12027Y36594D01*
X12027Y37244D01*
X12027Y37500D02*
X12027Y37952D01*
X12027Y38405D01*
X11933Y38661D01*
X11672Y39370D01*
X11411Y40078D01*
X11394Y40126D01*
X10732Y40787D01*
X10126Y41394D01*
X9849Y41496D01*
X8405Y42027D01*
X7661Y42027D01*
X7838Y42204D01*
X8547Y42913D01*
X9255Y43622D01*
X9964Y44330D01*
X10118Y44484D01*
X10118Y45039D01*
X10118Y45748D01*
X10118Y46456D01*
X10118Y47165D01*
X10118Y47874D01*
X10118Y48582D01*
X10118Y49265D01*
X10092Y49291D01*
X9383Y50000D01*
X8675Y50708D01*
X7966Y51417D01*
X7390Y51993D01*
X2609Y51993D01*
X1181Y50565D02*
X1324Y50708D01*
X2033Y51417D01*
X2609Y51993D01*
X1181Y50565D02*
X1181Y50708D01*
X1181Y51417D01*
X1181Y52125D01*
X1181Y52834D01*
X1181Y53543D01*
X1181Y54251D01*
X1181Y54960D01*
X1181Y55669D01*
X1181Y56377D01*
X1181Y57086D01*
X1181Y57795D01*
X1181Y58503D01*
X1181Y59212D01*
X1181Y59921D01*
X1181Y60629D01*
X1181Y61338D01*
X1181Y62047D01*
X1181Y62755D01*
X1181Y63184D01*
X2609Y61756D02*
X2318Y62047D01*
X1610Y62755D01*
X1181Y63184D01*
X2609Y61756D02*
X7390Y61756D01*
X7681Y62047D01*
X8389Y62755D01*
X9098Y63464D01*
X9807Y64173D01*
X10118Y64484D01*
X10118Y64881D01*
X10118Y65590D01*
X10118Y66299D01*
X10118Y66875D02*
X10118Y67007D01*
X10118Y67716D01*
X10118Y68425D01*
X10118Y69133D01*
X10118Y69265D01*
X9541Y69842D01*
X8832Y70551D01*
X8124Y71259D01*
X7415Y71968D01*
X7390Y71993D01*
X2609Y71993D01*
X1181Y70565D02*
X1875Y71259D01*
X2584Y71968D01*
X2609Y71993D01*
X1181Y70565D02*
X1181Y71259D01*
X1181Y71968D01*
X1181Y72677D01*
X1181Y73385D01*
X1181Y74094D01*
X1181Y74803D01*
X1181Y75511D01*
X1181Y76220D01*
X1181Y76929D01*
X1181Y77637D01*
X1181Y78346D01*
X1181Y78355D01*
X13065Y78355D01*
X13065Y77466D02*
X13065Y77637D01*
X13065Y78346D01*
X13065Y78355D01*
X12770Y77357D02*
X13065Y77466D01*
X11392Y75979D02*
X11633Y76220D01*
X12341Y76929D01*
X12770Y77357D01*
X10703Y74109D02*
X10958Y74803D01*
X11220Y75511D01*
X11392Y75979D01*
X10703Y72140D02*
X10703Y72677D01*
X10703Y73385D01*
X10703Y74094D01*
X10703Y74109D01*
X11392Y70270D02*
X11288Y70551D01*
X11027Y71259D01*
X10766Y71968D01*
X10703Y72140D01*
X12770Y68892D02*
X12528Y69133D01*
X11820Y69842D01*
X11392Y70270D01*
X14640Y68203D02*
X14038Y68425D01*
X12770Y68892D01*
X14640Y68203D02*
X16609Y68203D01*
X17211Y68425D01*
X18479Y68892D01*
X18721Y69133D01*
X19429Y69842D01*
X19857Y70270D01*
X19961Y70551D01*
X20222Y71259D01*
X20483Y71968D01*
X20546Y72140D01*
X20546Y72677D01*
X20546Y73385D01*
X20546Y74094D01*
X20546Y74109D01*
X20291Y74803D01*
X20029Y75511D01*
X19857Y75979D01*
X19616Y76220D01*
X18908Y76929D01*
X18479Y77357D01*
X18184Y77466D01*
X18184Y77637D01*
X18184Y78346D01*
X18184Y78355D01*
X28065Y78355D01*
X28065Y77510D02*
X28065Y77637D01*
X28065Y78346D01*
X28065Y78355D01*
X28065Y77510D02*
X27719Y77637D01*
X26609Y78046D01*
X24640Y78046D01*
X22770Y77357D02*
X23530Y77637D01*
X24640Y78046D01*
X21392Y75979D02*
X21633Y76220D01*
X22341Y76929D01*
X22770Y77357D01*
X20703Y74109D02*
X20958Y74803D01*
X21220Y75511D01*
X21392Y75979D01*
X20703Y72140D02*
X20703Y72677D01*
X20703Y73385D01*
X20703Y74094D01*
X20703Y74109D01*
X21392Y70270D02*
X21288Y70551D01*
X21027Y71259D01*
X20766Y71968D01*
X20703Y72140D01*
X22770Y68892D02*
X22528Y69133D01*
X21820Y69842D01*
X21392Y70270D01*
X24640Y68203D02*
X24038Y68425D01*
X22770Y68892D01*
X25625Y68203D02*
X26609Y68203D01*
X27211Y68425D01*
X28065Y68739D01*
X28065Y67935D02*
X28065Y68425D01*
X28065Y68739D01*
X13065Y52935D02*
X13673Y53543D01*
X14382Y54251D01*
X15091Y54960D01*
X15799Y55669D01*
X16508Y56377D01*
X17217Y57086D01*
X17925Y57795D01*
X18634Y58503D01*
X19342Y59212D01*
X20051Y59921D01*
X20760Y60629D01*
X21468Y61338D01*
X22177Y62047D01*
X22886Y62755D01*
X23594Y63464D01*
X24303Y64173D01*
X25012Y64881D01*
X25720Y65590D01*
X26429Y66299D01*
X27138Y67007D01*
X27846Y67716D01*
X28065Y67935D01*
X13065Y50708D02*
X13065Y51417D01*
X13065Y52125D01*
X13065Y52834D01*
X13065Y52935D01*
X13065Y38661D02*
X13065Y39370D01*
X13065Y40078D01*
X13065Y40787D01*
X13065Y41496D01*
X13065Y42204D01*
X13065Y42913D01*
X13065Y43622D01*
X13065Y44330D01*
X13065Y45039D01*
X13065Y45748D01*
X13065Y46456D01*
X13065Y47165D01*
X13065Y47874D01*
X13065Y48582D01*
X13065Y49291D01*
X13065Y50000D01*
X13065Y50708D01*
X13065Y36535D02*
X13065Y37244D01*
X13065Y37952D01*
X13065Y38661D01*
X13065Y23184D02*
X13065Y23779D01*
X13065Y24488D01*
X13065Y25196D01*
X13065Y25905D01*
X13065Y26614D01*
X13065Y27322D01*
X13065Y28031D01*
X13065Y28740D01*
X13065Y29448D01*
X13065Y30157D01*
X13065Y30866D01*
X13065Y31574D01*
X13065Y32283D01*
X13065Y32992D01*
X13065Y33700D01*
X13065Y34409D01*
X13065Y35118D01*
X13065Y35826D01*
X13065Y36535D01*
X13065Y23184D02*
X9564Y23184D01*
X8407Y22027D02*
X8742Y22362D01*
X9451Y23070D01*
X9564Y23184D01*
X8407Y22027D02*
X8405Y22027D01*
X6594Y22027D01*
X4873Y21394D02*
X5578Y21653D01*
X6594Y22027D01*
X3605Y20126D02*
X3715Y20236D01*
X4424Y20944D01*
X4873Y21394D01*
X2972Y18405D02*
X3124Y18818D01*
X3385Y19527D01*
X3605Y20126D01*
X2972Y16594D02*
X2972Y16692D01*
X2972Y17401D01*
X2972Y18110D01*
X2972Y18405D01*
X3605Y14873D02*
X3457Y15275D01*
X3196Y15984D01*
X2972Y16594D01*
X4873Y13605D02*
X4621Y13858D01*
X3912Y14566D01*
X3605Y14873D01*
X4940Y13581D02*
X4873Y13605D01*
X4940Y11023D02*
X4940Y11732D01*
X4940Y12440D01*
X4940Y13149D01*
X4940Y13581D01*
X4940Y8939D02*
X4940Y9606D01*
X4940Y10314D01*
X4940Y11023D01*
X5831Y8049D02*
X5691Y8188D01*
X4982Y8897D01*
X4940Y8939D01*
X5831Y7416D02*
X5831Y7480D01*
X5831Y8049D01*
X6327Y6069D02*
X6068Y6771D01*
X5831Y7416D01*
X7319Y5077D02*
X7042Y5354D01*
X6334Y6062D01*
X6327Y6069D01*
X8666Y4581D02*
X8491Y4645D01*
X7319Y5077D01*
X8666Y4581D02*
X10083Y4581D01*
X10258Y4645D01*
X11430Y5077D01*
X11707Y5354D01*
X12415Y6062D01*
X12422Y6069D01*
X12681Y6771D01*
X12918Y7416D01*
X12918Y7480D01*
X12918Y8188D01*
X12918Y8833D01*
X12916Y8838D01*
X14640Y8203D02*
X12916Y8838D01*
X14640Y8203D02*
X16609Y8203D01*
X18479Y8892D01*
X18484Y8897D01*
X19193Y9606D01*
X19857Y10270D01*
X19874Y10314D01*
X20135Y11023D01*
X20396Y11732D01*
X20546Y12140D01*
X20546Y12440D01*
X20546Y13149D01*
X20546Y13858D01*
X20546Y14109D01*
X20378Y14566D01*
X20116Y15275D01*
X19857Y15979D01*
X19852Y15984D01*
X19144Y16692D01*
X18479Y17357D01*
X18360Y17401D01*
X16609Y18046D01*
X14640Y18046D01*
X12770Y17357D02*
X12889Y17401D01*
X14640Y18046D01*
X12027Y16615D02*
X12105Y16692D01*
X12770Y17357D01*
X12027Y16615D02*
X12027Y16692D01*
X12027Y17401D01*
X12027Y18065D01*
X18706Y18065D01*
X19194Y17577D02*
X18706Y18065D01*
X20541Y17081D02*
X19671Y17401D01*
X19194Y17577D01*
X20541Y17081D02*
X21958Y17081D01*
X22828Y17401D01*
X23305Y17577D01*
X23793Y18065D01*
X48314Y18065D01*
X49564Y16815D02*
X48978Y17401D01*
X48314Y18065D01*
X49564Y16815D02*
X52228Y16815D01*
X51392Y15979D02*
X51397Y15984D01*
X52105Y16692D01*
X52228Y16815D01*
X50703Y14109D02*
X50871Y14566D01*
X51133Y15275D01*
X51392Y15979D01*
X50703Y12140D02*
X50703Y12440D01*
X50703Y13149D01*
X50703Y13858D01*
X50703Y14109D01*
X51392Y10270D02*
X51375Y10314D01*
X51114Y11023D01*
X50853Y11732D01*
X50703Y12140D01*
X52770Y8892D02*
X52765Y8897D01*
X52056Y9606D01*
X51392Y10270D01*
X53065Y8783D02*
X52770Y8892D01*
X53065Y7310D02*
X53065Y7480D01*
X53065Y8188D01*
X53065Y8783D01*
X53065Y7310D02*
X53065Y7310D01*
X53065Y5189D02*
X53065Y5354D01*
X53065Y6062D01*
X53065Y6771D01*
X53065Y7310D01*
X55189Y3065D02*
X55027Y3228D01*
X54318Y3937D01*
X53609Y4645D01*
X53065Y5189D01*
X55189Y3065D02*
X57310Y3065D01*
X57310Y3065D01*
X206060Y3065D01*
X206222Y3228D01*
X206931Y3937D01*
X207622Y4628D01*
X207640Y4645D01*
X208348Y5354D01*
X209057Y6062D01*
X209121Y6127D01*
X209121Y6771D01*
X209121Y7480D01*
X209121Y8188D01*
X209121Y8897D01*
X209121Y9606D01*
X209121Y10314D01*
X209121Y11023D01*
X209121Y11706D01*
X209188Y11730D01*
X209190Y11732D01*
X209898Y12440D01*
X210456Y12998D01*
X210468Y13031D01*
X210480Y12998D02*
X210468Y13031D01*
X211748Y11730D02*
X211747Y11732D01*
X211038Y12440D01*
X210480Y12998D01*
X213469Y11097D02*
X211748Y11730D01*
X213469Y11097D02*
X215280Y11097D01*
X217001Y11730D01*
X217002Y11732D01*
X217711Y12440D01*
X218269Y12998D01*
X218324Y13149D01*
X218585Y13858D01*
X218750Y14304D02*
X218846Y14566D01*
X218902Y14719D01*
X218902Y15275D01*
X218902Y15984D01*
X218902Y16530D01*
X218843Y16692D01*
X218582Y17401D01*
X218320Y18110D01*
X218269Y18251D01*
X217701Y18818D01*
X217001Y19519D01*
X216978Y19527D01*
X216934Y19543D01*
X216934Y20236D01*
X216934Y20944D01*
X216934Y21060D01*
X216341Y21653D01*
X215632Y22362D01*
X214923Y23070D01*
X214215Y23779D01*
X213506Y24488D01*
X212797Y25196D01*
X212310Y25684D01*
X151060Y25684D01*
X150839Y25905D01*
X150130Y26614D01*
X149421Y27322D01*
X148713Y28031D01*
X148004Y28740D01*
X147295Y29448D01*
X146587Y30157D01*
X145878Y30866D01*
X145169Y31574D01*
X144461Y32283D01*
X143752Y32992D01*
X143043Y33700D01*
X142335Y34409D01*
X141626Y35118D01*
X140917Y35826D01*
X140209Y36535D01*
X139500Y37244D01*
X139434Y37310D01*
X139434Y37952D01*
X139434Y38661D01*
X139434Y39370D01*
X139434Y40078D01*
X139434Y40787D01*
X139434Y41496D01*
X139434Y42204D01*
X139434Y42913D01*
X139434Y43622D01*
X139434Y44330D01*
X139434Y45039D01*
X139434Y45748D01*
X139434Y46456D01*
X139434Y47165D01*
X139434Y47874D01*
X139434Y48582D01*
X139434Y49291D01*
X139434Y50000D01*
X139434Y50708D01*
X139434Y51417D01*
X139434Y52125D01*
X139434Y52834D01*
X139434Y53543D01*
X139434Y54251D01*
X139434Y54960D01*
X139434Y55669D01*
X139434Y56377D01*
X139434Y57086D01*
X139434Y57795D01*
X139434Y58503D01*
X139434Y58560D01*
X138782Y59212D01*
X138073Y59921D01*
X137364Y60629D01*
X136656Y61338D01*
X135947Y62047D01*
X135238Y62755D01*
X134530Y63464D01*
X134165Y63828D01*
X135101Y64173D01*
X135180Y64202D01*
X135859Y64881D01*
X136172Y65194D01*
X136318Y65590D01*
X136579Y66299D01*
X136668Y66541D01*
X136668Y67007D01*
X136668Y67174D01*
X137211Y67716D01*
X137919Y68425D01*
X138628Y69133D01*
X139337Y69842D01*
X140045Y70551D01*
X140754Y71259D01*
X141463Y71968D01*
X142171Y72677D01*
X142880Y73385D01*
X143589Y74094D01*
X144297Y74803D01*
X145006Y75511D01*
X145715Y76220D01*
X146423Y76929D01*
X147132Y77637D01*
X147841Y78346D01*
X148549Y79055D01*
X149258Y79763D01*
X149967Y80472D01*
X150675Y81181D01*
X151384Y81889D01*
X152093Y82598D01*
X152801Y83307D01*
X153510Y84015D01*
X153809Y84314D01*
X153809Y84724D01*
X153809Y85433D01*
X153809Y86141D01*
X153809Y86850D01*
X153809Y87559D01*
X153809Y88267D01*
X153809Y88976D01*
X153809Y89685D01*
X153809Y90393D01*
X153809Y91102D01*
X153809Y91811D01*
X153809Y92519D01*
X153809Y93228D01*
X153809Y93937D01*
X153809Y94645D01*
X153809Y95354D01*
X153809Y96062D01*
X153809Y96771D01*
X153809Y97480D01*
X153809Y98188D01*
X153809Y98897D01*
X153809Y99606D01*
X153809Y100314D01*
X153809Y101023D01*
X153809Y101732D01*
X153809Y102440D01*
X153809Y103149D01*
X153809Y103858D01*
X153809Y104566D01*
X153809Y105275D01*
X153809Y105984D01*
X153809Y106692D01*
X153809Y107401D01*
X153809Y108110D01*
X153809Y108560D01*
X153550Y108818D01*
X152842Y109527D01*
X152133Y110236D01*
X151424Y110944D01*
X150716Y111653D01*
X150007Y112362D01*
X149298Y113070D01*
X149185Y113184D01*
X41644Y113184D01*
X41644Y113779D01*
X41644Y114488D01*
X41644Y114566D01*
X210548Y114566D01*
X48065Y67466D02*
X48065Y67716D01*
X48065Y68425D01*
X48065Y68739D01*
X47770Y67357D02*
X48065Y67466D01*
X46392Y65979D02*
X46712Y66299D01*
X47420Y67007D01*
X47770Y67357D01*
X45703Y64109D02*
X45726Y64173D01*
X45987Y64881D01*
X46249Y65590D01*
X46392Y65979D01*
X45703Y62140D02*
X45703Y62755D01*
X45703Y63464D01*
X45703Y64109D01*
X46392Y60270D02*
X46259Y60629D01*
X45998Y61338D01*
X45737Y62047D01*
X45703Y62140D01*
X47770Y58892D02*
X47450Y59212D01*
X46741Y59921D01*
X46392Y60270D01*
X48065Y58783D02*
X47770Y58892D01*
X48065Y57689D02*
X48065Y57795D01*
X48065Y58503D01*
X48065Y58783D01*
X49940Y55814D02*
X49377Y56377D01*
X48668Y57086D01*
X48065Y57689D01*
X51439Y54315D02*
X50794Y54960D01*
X50086Y55669D01*
X49940Y55814D01*
X51439Y54315D02*
X66685Y54315D01*
X67330Y54960D01*
X68038Y55669D01*
X68747Y56377D01*
X69456Y57086D01*
X70164Y57795D01*
X70873Y58503D01*
X71190Y58820D01*
X71190Y57086D02*
X71190Y57795D01*
X71190Y58503D01*
X71190Y58820D01*
X71190Y39929D02*
X71190Y40078D01*
X71190Y40787D01*
X71190Y41496D01*
X71190Y42204D01*
X71190Y42913D01*
X71190Y43622D01*
X71190Y44330D01*
X71190Y45039D01*
X71190Y45748D01*
X71190Y46456D01*
X71190Y47165D01*
X71190Y47874D01*
X71190Y48582D01*
X71190Y49291D01*
X71190Y50000D01*
X71190Y50708D01*
X71190Y51417D01*
X71190Y52125D01*
X71190Y52834D01*
X71190Y53543D01*
X71190Y54251D01*
X71190Y54960D01*
X71190Y55669D01*
X71190Y56377D01*
X71190Y57086D01*
X71190Y39929D02*
X71040Y40078D01*
X70418Y40700D01*
X70418Y40787D01*
X70418Y41333D01*
X70358Y41496D01*
X70097Y42204D01*
X69922Y42680D01*
X69689Y42913D01*
X68980Y43622D01*
X68930Y43672D01*
X67583Y44168D01*
X66166Y44168D01*
X64819Y43672D02*
X66166Y44168D01*
X63827Y42680D02*
X64060Y42913D01*
X64769Y43622D01*
X64819Y43672D01*
X63331Y41333D02*
X63391Y41496D01*
X63652Y42204D01*
X63827Y42680D01*
X63331Y39916D02*
X63331Y40078D01*
X63331Y40787D01*
X63331Y41333D01*
X63827Y38569D02*
X63793Y38661D01*
X63532Y39370D01*
X63331Y39916D01*
X64819Y37577D02*
X64444Y37952D01*
X63827Y38569D01*
X66166Y37081D02*
X65724Y37244D01*
X64819Y37577D01*
X66166Y37081D02*
X66799Y37081D01*
X73065Y30814D02*
X73014Y30866D01*
X72305Y31574D01*
X71596Y32283D01*
X70888Y32992D01*
X70179Y33700D01*
X69470Y34409D01*
X68762Y35118D01*
X68053Y35826D01*
X67344Y36535D01*
X66799Y37081D01*
X73065Y17466D02*
X73065Y18110D01*
X73065Y18818D01*
X73065Y19527D01*
X73065Y20236D01*
X73065Y20944D01*
X73065Y21653D01*
X73065Y22362D01*
X73065Y23070D01*
X73065Y23779D01*
X73065Y24488D01*
X73065Y25196D01*
X73065Y25905D01*
X73065Y26614D01*
X73065Y27322D01*
X73065Y28031D01*
X73065Y28740D01*
X73065Y29448D01*
X73065Y30157D01*
X73065Y30814D01*
X72770Y17357D02*
X72889Y17401D01*
X73065Y17466D01*
X71392Y15979D02*
X71397Y15984D01*
X72105Y16692D01*
X72770Y17357D01*
X70703Y14109D02*
X70871Y14566D01*
X71133Y15275D01*
X71392Y15979D01*
X70703Y12140D02*
X70703Y12440D01*
X70703Y13149D01*
X70703Y13858D01*
X70703Y14109D01*
X71392Y10270D02*
X71375Y10314D01*
X71114Y11023D01*
X70853Y11732D01*
X70703Y12140D01*
X72770Y8892D02*
X72765Y8897D01*
X72056Y9606D01*
X71392Y10270D01*
X74640Y8203D02*
X72770Y8892D01*
X74640Y8203D02*
X76609Y8203D01*
X78479Y8892D01*
X78484Y8897D01*
X79193Y9606D01*
X79857Y10270D01*
X79874Y10314D01*
X80135Y11023D01*
X80396Y11732D01*
X80546Y12140D01*
X80546Y12440D01*
X80546Y13149D01*
X80546Y13858D01*
X80546Y14109D01*
X80378Y14566D01*
X80116Y15275D01*
X79857Y15979D01*
X79852Y15984D01*
X79144Y16692D01*
X78479Y17357D01*
X78360Y17401D01*
X78184Y17466D01*
X78184Y18110D01*
X78184Y18818D01*
X78184Y19527D01*
X78184Y20236D01*
X78184Y20944D01*
X78184Y21653D01*
X78184Y22362D01*
X78184Y23070D01*
X78184Y23779D01*
X78184Y24488D01*
X78184Y25196D01*
X78184Y25905D01*
X78184Y26614D01*
X78184Y27322D01*
X78184Y28031D01*
X78184Y28740D01*
X78184Y29448D01*
X78184Y30157D01*
X78184Y30695D01*
X86518Y22362D02*
X85809Y23070D01*
X85100Y23779D01*
X84392Y24488D01*
X83683Y25196D01*
X82974Y25905D01*
X82266Y26614D01*
X81557Y27322D01*
X80848Y28031D01*
X80140Y28740D01*
X79431Y29448D01*
X78722Y30157D01*
X78184Y30695D01*
X87439Y21440D02*
X87226Y21653D01*
X86518Y22362D01*
X87439Y21440D02*
X117081Y21440D01*
X117569Y20952D02*
X117081Y21440D01*
X118916Y20456D02*
X117590Y20944D01*
X117569Y20952D01*
X118916Y20456D02*
X120333Y20456D01*
X121659Y20944D01*
X121680Y20952D01*
X122312Y21584D01*
X122944Y20952D02*
X122312Y21584D01*
X124291Y20456D02*
X122965Y20944D01*
X122944Y20952D01*
X124291Y20456D02*
X125708Y20456D01*
X127034Y20944D01*
X127055Y20952D01*
X127756Y21653D01*
X128047Y21944D01*
X128201Y22362D01*
X128462Y23070D01*
X128543Y23291D01*
X128543Y23779D01*
X128543Y24488D01*
X128543Y24708D01*
X128363Y25196D01*
X128253Y25496D02*
X128102Y25905D01*
X128047Y26055D01*
X127488Y26614D01*
X127055Y27047D01*
X126308Y27322D01*
X125708Y27543D01*
X125075Y27543D01*
X124588Y28031D01*
X123879Y28740D01*
X123170Y29448D01*
X122462Y30157D01*
X121935Y30684D01*
X89185Y30684D01*
X89003Y30866D01*
X88294Y31574D01*
X87586Y32283D01*
X86877Y32992D01*
X86168Y33700D01*
X85460Y34409D01*
X84751Y35118D01*
X84042Y35826D01*
X83334Y36535D01*
X82625Y37244D01*
X81916Y37952D01*
X81208Y38661D01*
X80499Y39370D01*
X79790Y40078D01*
X79082Y40787D01*
X78809Y41060D01*
X78809Y41496D01*
X78809Y42204D01*
X78809Y42913D01*
X78809Y43622D01*
X78809Y44330D01*
X78809Y45039D01*
X78809Y45748D01*
X78809Y46456D01*
X78809Y47165D01*
X78809Y47874D01*
X78809Y48582D01*
X78809Y49291D01*
X78809Y50000D01*
X78809Y50708D01*
X78809Y51417D01*
X78809Y52125D01*
X78809Y52834D01*
X78809Y53543D01*
X78809Y54251D01*
X78809Y54960D01*
X78809Y55669D01*
X78809Y55814D01*
X79372Y56377D01*
X80081Y57086D01*
X80789Y57795D01*
X81498Y58503D01*
X82207Y59212D01*
X82381Y59386D01*
X82381Y57086D02*
X82381Y57795D01*
X82381Y58503D01*
X82381Y59212D01*
X82381Y59386D01*
X82381Y51384D02*
X82381Y51417D01*
X82381Y52125D01*
X82381Y52834D01*
X82381Y53543D01*
X82381Y54251D01*
X82381Y54960D01*
X82381Y55669D01*
X82381Y56377D01*
X82381Y57086D01*
X83534Y50231D02*
X83056Y50708D01*
X82381Y51384D01*
X83534Y50231D02*
X91315Y50231D01*
X91315Y43918D02*
X91315Y44330D01*
X91315Y45039D01*
X91315Y45748D01*
X91315Y46456D01*
X91315Y47165D01*
X91315Y47874D01*
X91315Y48582D01*
X91315Y49291D01*
X91315Y50000D01*
X91315Y50231D01*
X90827Y43430D02*
X91019Y43622D01*
X91315Y43918D01*
X90331Y42083D02*
X90375Y42204D01*
X90636Y42913D01*
X90827Y43430D01*
X90331Y41413D02*
X90331Y41496D01*
X90331Y42083D01*
X90331Y41413D02*
X90248Y41496D01*
X89539Y42204D01*
X89048Y42695D01*
X89266Y42913D01*
X89297Y42944D01*
X89547Y43622D01*
X89793Y44291D01*
X89793Y44330D01*
X89793Y45039D01*
X89793Y45708D01*
X89779Y45748D01*
X89518Y46456D01*
X89297Y47055D01*
X89187Y47165D01*
X88478Y47874D01*
X88305Y48047D01*
X86958Y48543D01*
X85541Y48543D01*
X84194Y48047D02*
X85541Y48543D01*
X83202Y47055D02*
X83312Y47165D01*
X84021Y47874D01*
X84194Y48047D01*
X82706Y45708D02*
X82720Y45748D01*
X82981Y46456D01*
X83202Y47055D01*
X82706Y44291D02*
X82706Y44330D01*
X82706Y45039D01*
X82706Y45708D01*
X83202Y42944D02*
X82952Y43622D01*
X82706Y44291D01*
X83690Y42456D02*
X83233Y42913D01*
X83202Y42944D01*
X83690Y40814D02*
X83690Y41496D01*
X83690Y42204D01*
X83690Y42456D01*
X85843Y38661D02*
X85135Y39370D01*
X84426Y40078D01*
X83718Y40787D01*
X83690Y40814D01*
X87969Y36535D02*
X87261Y37244D01*
X86552Y37952D01*
X85843Y38661D01*
X88939Y35565D02*
X88678Y35826D01*
X87969Y36535D01*
X88939Y35565D02*
X104185Y35565D01*
X104446Y35826D01*
X105155Y36535D01*
X105435Y36815D01*
X106206Y36815D01*
X106694Y36327D02*
X106486Y36535D01*
X106206Y36815D01*
X108041Y35831D02*
X106694Y36327D01*
X108041Y35831D02*
X109458Y35831D01*
X110805Y36327D01*
X111013Y36535D01*
X111722Y37244D01*
X111797Y37319D01*
X112030Y37952D01*
X112291Y38661D01*
X112293Y38666D01*
X112293Y39370D01*
X112293Y40078D01*
X112293Y40083D01*
X112034Y40787D01*
X111797Y41430D01*
X111731Y41496D01*
X111023Y42204D01*
X110805Y42422D01*
X109473Y42913D01*
X109458Y42918D01*
X108041Y42918D01*
X106694Y42422D02*
X108026Y42913D01*
X108041Y42918D01*
X106206Y41934D02*
X106476Y42204D01*
X106694Y42422D01*
X106206Y41934D02*
X103314Y41934D01*
X102064Y40684D02*
X102167Y40787D01*
X102876Y41496D01*
X103314Y41934D01*
X102064Y40684D02*
X97418Y40684D01*
X97418Y40787D01*
X97418Y41496D01*
X97418Y42083D01*
X97374Y42204D01*
X97113Y42913D01*
X96922Y43430D01*
X96730Y43622D01*
X96434Y43918D01*
X96434Y44330D01*
X96434Y45039D01*
X96434Y45748D01*
X96434Y46456D01*
X96434Y47165D01*
X96434Y47874D01*
X96434Y48582D01*
X96434Y49291D01*
X96434Y50000D01*
X96434Y50708D01*
X96434Y51417D01*
X96434Y51910D01*
X97666Y51456D02*
X96434Y51910D01*
X97666Y51456D02*
X99083Y51456D01*
X100430Y51952D01*
X100603Y52125D01*
X100918Y52440D01*
X105435Y52440D01*
X105829Y52834D01*
X106537Y53543D01*
X107246Y54251D01*
X107955Y54960D01*
X108663Y55669D01*
X109372Y56377D01*
X110081Y57086D01*
X110789Y57795D01*
X111498Y58503D01*
X111950Y58956D01*
X112583Y58956D01*
X113279Y59212D01*
X113930Y59452D01*
X114399Y59921D01*
X114922Y60444D01*
X114990Y60629D01*
X115027Y60728D01*
X124315Y51439D02*
X123629Y52125D01*
X122920Y52834D01*
X122212Y53543D01*
X121503Y54251D01*
X120794Y54960D01*
X120086Y55669D01*
X119377Y56377D01*
X118668Y57086D01*
X117960Y57795D01*
X117251Y58503D01*
X116542Y59212D01*
X115834Y59921D01*
X115125Y60629D01*
X115027Y60728D01*
X124315Y48809D02*
X124315Y49291D01*
X124315Y50000D01*
X124315Y50708D01*
X124315Y51417D01*
X124315Y51439D01*
X124315Y48809D02*
X105668Y48809D01*
X105186Y49291D01*
X105180Y49297D01*
X103833Y49793D01*
X102416Y49793D01*
X101069Y49297D02*
X102416Y49793D01*
X100077Y48305D02*
X100354Y48582D01*
X101063Y49291D01*
X101069Y49297D01*
X99581Y46958D02*
X99657Y47165D01*
X99918Y47874D01*
X100077Y48305D01*
X99581Y45541D02*
X99581Y45748D01*
X99581Y46456D01*
X99581Y46958D01*
X100077Y44194D02*
X100027Y44330D01*
X99766Y45039D01*
X99581Y45541D01*
X101069Y43202D02*
X100650Y43622D01*
X100077Y44194D01*
X102416Y42706D02*
X101854Y42913D01*
X101069Y43202D01*
X102416Y42706D02*
X103833Y42706D01*
X104395Y42913D01*
X105180Y43202D01*
X105599Y43622D01*
X105668Y43690D01*
X124315Y43690D01*
X124315Y32283D02*
X124315Y32992D01*
X124315Y33700D01*
X124315Y34409D01*
X124315Y35118D01*
X124315Y35826D01*
X124315Y36535D01*
X124315Y37244D01*
X124315Y37952D01*
X124315Y38661D01*
X124315Y39370D01*
X124315Y40078D01*
X124315Y40787D01*
X124315Y41496D01*
X124315Y42204D01*
X124315Y42913D01*
X124315Y43622D01*
X124315Y43690D01*
X124315Y30189D02*
X124315Y30866D01*
X124315Y31574D01*
X124315Y32283D01*
X126473Y28031D02*
X125765Y28740D01*
X125056Y29448D01*
X124347Y30157D01*
X124315Y30189D01*
X146320Y8184D02*
X146316Y8188D01*
X145607Y8897D01*
X144899Y9606D01*
X144190Y10314D01*
X143481Y11023D01*
X142773Y11732D01*
X142064Y12440D01*
X141355Y13149D01*
X140647Y13858D01*
X139938Y14566D01*
X139229Y15275D01*
X138521Y15984D01*
X137812Y16692D01*
X137103Y17401D01*
X136395Y18110D01*
X135686Y18818D01*
X134977Y19527D01*
X134269Y20236D01*
X133560Y20944D01*
X132851Y21653D01*
X132143Y22362D01*
X131434Y23070D01*
X130725Y23779D01*
X130017Y24488D01*
X129308Y25196D01*
X128599Y25905D01*
X127891Y26614D01*
X127182Y27322D01*
X126473Y28031D01*
X146320Y8184D02*
X58184Y8184D01*
X58184Y8188D01*
X58184Y8783D01*
X58479Y8892D01*
X58484Y8897D01*
X59193Y9606D01*
X59857Y10270D01*
X59874Y10314D01*
X60135Y11023D01*
X60396Y11732D01*
X60546Y12140D01*
X60546Y12440D01*
X60546Y13149D01*
X60546Y13858D01*
X60546Y14109D01*
X60378Y14566D01*
X60116Y15275D01*
X59857Y15979D01*
X59852Y15984D01*
X59144Y16692D01*
X58907Y16929D01*
X59297Y17319D01*
X59327Y17401D01*
X59588Y18110D01*
X59793Y18666D01*
X59793Y18818D01*
X59793Y19527D01*
X59793Y20083D01*
X59737Y20236D01*
X59476Y20944D01*
X59297Y21430D01*
X59074Y21653D01*
X58365Y22362D01*
X58305Y22422D01*
X56958Y22918D01*
X55541Y22918D01*
X54194Y22422D02*
X55541Y22918D01*
X53706Y21934D02*
X54134Y22362D01*
X54194Y22422D01*
X53706Y21934D02*
X51685Y21934D01*
X51257Y22362D01*
X50554Y23065D01*
X60814Y23065D01*
X63065Y20814D02*
X62935Y20944D01*
X62226Y21653D01*
X61518Y22362D01*
X60814Y23065D01*
X63065Y17466D02*
X63065Y18110D01*
X63065Y18818D01*
X63065Y19527D01*
X63065Y20236D01*
X63065Y20814D01*
X62770Y17357D02*
X62889Y17401D01*
X63065Y17466D01*
X61392Y15979D02*
X61397Y15984D01*
X62105Y16692D01*
X62770Y17357D01*
X60703Y14109D02*
X60871Y14566D01*
X61133Y15275D01*
X61392Y15979D01*
X60703Y12140D02*
X60703Y12440D01*
X60703Y13149D01*
X60703Y13858D01*
X60703Y14109D01*
X61392Y10270D02*
X61375Y10314D01*
X61114Y11023D01*
X60853Y11732D01*
X60703Y12140D01*
X62770Y8892D02*
X62765Y8897D01*
X62056Y9606D01*
X61392Y10270D01*
X64640Y8203D02*
X62770Y8892D01*
X64640Y8203D02*
X66609Y8203D01*
X68479Y8892D01*
X68484Y8897D01*
X69193Y9606D01*
X69857Y10270D01*
X69874Y10314D01*
X70135Y11023D01*
X70396Y11732D01*
X70546Y12140D01*
X70546Y12440D01*
X70546Y13149D01*
X70546Y13858D01*
X70546Y14109D01*
X70378Y14566D01*
X70116Y15275D01*
X69857Y15979D01*
X69852Y15984D01*
X69144Y16692D01*
X68479Y17357D01*
X68360Y17401D01*
X68184Y17466D01*
X68184Y18110D01*
X68184Y18818D01*
X68184Y19527D01*
X68184Y20236D01*
X68184Y20944D01*
X68184Y21653D01*
X68184Y22362D01*
X68184Y22935D01*
X68048Y23070D01*
X67340Y23779D01*
X66631Y24488D01*
X65922Y25196D01*
X65214Y25905D01*
X64505Y26614D01*
X63796Y27322D01*
X63088Y28031D01*
X62935Y28184D01*
X50043Y28184D01*
X49555Y28672D01*
X49371Y28740D01*
X48208Y29168D01*
X46791Y29168D01*
X45444Y28672D02*
X45628Y28740D01*
X46791Y29168D01*
X44956Y28184D02*
X45444Y28672D01*
X44956Y28184D02*
X25668Y28184D01*
X25180Y28672D01*
X24996Y28740D01*
X23833Y29168D01*
X22416Y29168D01*
X21069Y28672D02*
X21253Y28740D01*
X22416Y29168D01*
X20077Y27680D02*
X20428Y28031D01*
X21069Y28672D01*
X19581Y26333D02*
X19684Y26614D01*
X19945Y27322D01*
X20077Y27680D01*
X19581Y24916D02*
X19581Y25196D01*
X19581Y25905D01*
X19581Y26333D01*
X19938Y23946D02*
X19739Y24488D01*
X19581Y24916D01*
X19194Y23672D02*
X19484Y23779D01*
X19938Y23946D01*
X18706Y23184D02*
X19194Y23672D01*
X18706Y23184D02*
X18184Y23184D01*
X18184Y23779D01*
X18184Y24488D01*
X18184Y25196D01*
X18184Y25905D01*
X18184Y26614D01*
X18184Y27322D01*
X18184Y28031D01*
X18184Y28740D01*
X18184Y29448D01*
X18184Y30157D01*
X18184Y30866D01*
X18184Y31574D01*
X18184Y32283D01*
X18184Y32992D01*
X18184Y33700D01*
X18184Y34409D01*
X18184Y35118D01*
X18184Y35565D01*
X44009Y35565D01*
X44271Y35826D01*
X44979Y36535D01*
X45075Y36631D01*
X45708Y36631D01*
X47055Y37127D01*
X47171Y37244D01*
X47880Y37952D01*
X48047Y38119D01*
X48247Y38661D01*
X48508Y39370D01*
X48543Y39466D01*
X48543Y40078D01*
X48543Y40787D01*
X48543Y40883D01*
X48318Y41496D01*
X48057Y42204D01*
X48047Y42230D01*
X47364Y42913D01*
X47055Y43222D01*
X45971Y43622D01*
X45708Y43718D01*
X44291Y43718D01*
X42944Y43222D02*
X44028Y43622D01*
X44291Y43718D01*
X41952Y42230D02*
X42635Y42913D01*
X42944Y43222D01*
X41456Y40883D02*
X41681Y41496D01*
X41942Y42204D01*
X41952Y42230D01*
X41456Y40684D02*
X41456Y40787D01*
X41456Y40883D01*
X41456Y40684D02*
X34434Y40684D01*
X34434Y40787D01*
X34434Y41496D01*
X34434Y42204D01*
X34434Y42913D01*
X34434Y43622D01*
X34434Y44330D01*
X34434Y45039D01*
X34434Y45748D01*
X34434Y46456D01*
X34434Y47165D01*
X34434Y47874D01*
X34434Y48582D01*
X34434Y49291D01*
X34434Y50000D01*
X34434Y50708D01*
X34434Y51417D01*
X34434Y52125D01*
X34434Y52460D01*
X36232Y50663D02*
X36186Y50708D01*
X35477Y51417D01*
X34769Y52125D01*
X34434Y52460D01*
X38700Y49753D02*
X38031Y50000D01*
X36232Y50663D01*
X38700Y49753D02*
X41299Y49753D01*
X41968Y50000D01*
X43767Y50663D01*
X43813Y50708D01*
X44522Y51417D01*
X45230Y52125D01*
X45586Y52482D01*
X45716Y52834D01*
X45977Y53543D01*
X46239Y54251D01*
X46496Y54950D01*
X46496Y54960D01*
X46496Y55669D01*
X46496Y56377D01*
X46496Y57086D01*
X46496Y57549D01*
X46405Y57795D01*
X46144Y58503D01*
X45883Y59212D01*
X45622Y59921D01*
X45586Y60017D01*
X44974Y60629D01*
X44266Y61338D01*
X43767Y61836D01*
X43197Y62047D01*
X41299Y62746D01*
X38866Y62746D01*
X38875Y62755D01*
X39584Y63464D01*
X40292Y64173D01*
X41001Y64881D01*
X41710Y65590D01*
X42418Y66299D01*
X43127Y67007D01*
X43836Y67716D01*
X44408Y68288D01*
X44640Y68203D02*
X44408Y68288D01*
X44640Y68203D02*
X46609Y68203D01*
X47211Y68425D01*
X48065Y68739D01*
X10126Y31394D02*
X9635Y31574D01*
X8405Y32027D01*
X6594Y32027D01*
X4873Y31394D02*
X5364Y31574D01*
X6594Y32027D01*
X3605Y30126D02*
X3637Y30157D01*
X4345Y30866D01*
X4873Y31394D01*
X2972Y28405D02*
X3095Y28740D01*
X3356Y29448D01*
X3605Y30126D01*
X2972Y26594D02*
X2972Y26614D01*
X2972Y27322D01*
X2972Y28031D01*
X2972Y28405D01*
X3605Y24873D02*
X3486Y25196D01*
X3225Y25905D01*
X2972Y26594D01*
X4873Y23605D02*
X4700Y23779D01*
X3991Y24488D01*
X3605Y24873D01*
X6594Y22972D02*
X6326Y23070D01*
X4873Y23605D01*
X6594Y22972D02*
X8405Y22972D01*
X8673Y23070D01*
X10126Y23605D01*
X10299Y23779D01*
X11008Y24488D01*
X11394Y24873D01*
X11513Y25196D01*
X11774Y25905D01*
X12027Y26594D01*
X12027Y26614D01*
X12027Y27322D01*
X12027Y28031D01*
X12027Y28405D01*
X11904Y28740D01*
X11643Y29448D01*
X11394Y30126D01*
X11362Y30157D01*
X10654Y30866D01*
X10126Y31394D01*
X128479Y17357D02*
X128360Y17401D01*
X126609Y18046D01*
X124640Y18046D01*
X122770Y17357D02*
X122889Y17401D01*
X124640Y18046D01*
X121392Y15979D02*
X121397Y15984D01*
X122105Y16692D01*
X122770Y17357D01*
X120703Y14109D02*
X120871Y14566D01*
X121133Y15275D01*
X121392Y15979D01*
X120703Y12140D02*
X120703Y12440D01*
X120703Y13149D01*
X120703Y13858D01*
X120703Y14109D01*
X121392Y10270D02*
X121375Y10314D01*
X121114Y11023D01*
X120853Y11732D01*
X120703Y12140D01*
X122770Y8892D02*
X122765Y8897D01*
X122056Y9606D01*
X121392Y10270D01*
X124640Y8203D02*
X122770Y8892D01*
X124640Y8203D02*
X126609Y8203D01*
X128479Y8892D01*
X128484Y8897D01*
X129193Y9606D01*
X129857Y10270D01*
X129874Y10314D01*
X130135Y11023D01*
X130396Y11732D01*
X130546Y12140D01*
X130546Y12440D01*
X130546Y13149D01*
X130546Y13858D01*
X130546Y14109D01*
X130378Y14566D01*
X130116Y15275D01*
X129857Y15979D01*
X129852Y15984D01*
X129144Y16692D01*
X128479Y17357D01*
X118479Y17357D02*
X118360Y17401D01*
X116609Y18046D01*
X114640Y18046D01*
X112770Y17357D02*
X112889Y17401D01*
X114640Y18046D01*
X111392Y15979D02*
X111397Y15984D01*
X112105Y16692D01*
X112770Y17357D01*
X110703Y14109D02*
X110871Y14566D01*
X111133Y15275D01*
X111392Y15979D01*
X110703Y12140D02*
X110703Y12440D01*
X110703Y13149D01*
X110703Y13858D01*
X110703Y14109D01*
X111392Y10270D02*
X111375Y10314D01*
X111114Y11023D01*
X110853Y11732D01*
X110703Y12140D01*
X112770Y8892D02*
X112765Y8897D01*
X112056Y9606D01*
X111392Y10270D01*
X114640Y8203D02*
X112770Y8892D01*
X114640Y8203D02*
X116609Y8203D01*
X118479Y8892D01*
X118484Y8897D01*
X119193Y9606D01*
X119857Y10270D01*
X119874Y10314D01*
X120135Y11023D01*
X120396Y11732D01*
X120546Y12140D01*
X120546Y12440D01*
X120546Y13149D01*
X120546Y13858D01*
X120546Y14109D01*
X120378Y14566D01*
X120116Y15275D01*
X119857Y15979D01*
X119852Y15984D01*
X119144Y16692D01*
X118479Y17357D01*
X108479Y17357D02*
X108360Y17401D01*
X106609Y18046D01*
X104640Y18046D01*
X102770Y17357D02*
X102889Y17401D01*
X104640Y18046D01*
X101392Y15979D02*
X101397Y15984D01*
X102105Y16692D01*
X102770Y17357D01*
X100703Y14109D02*
X100871Y14566D01*
X101133Y15275D01*
X101392Y15979D01*
X100703Y12140D02*
X100703Y12440D01*
X100703Y13149D01*
X100703Y13858D01*
X100703Y14109D01*
X101392Y10270D02*
X101375Y10314D01*
X101114Y11023D01*
X100853Y11732D01*
X100703Y12140D01*
X102770Y8892D02*
X102765Y8897D01*
X102056Y9606D01*
X101392Y10270D01*
X104640Y8203D02*
X102770Y8892D01*
X104640Y8203D02*
X106609Y8203D01*
X108479Y8892D01*
X108484Y8897D01*
X109193Y9606D01*
X109857Y10270D01*
X109874Y10314D01*
X110135Y11023D01*
X110396Y11732D01*
X110546Y12140D01*
X110546Y12440D01*
X110546Y13149D01*
X110546Y13858D01*
X110546Y14109D01*
X110378Y14566D01*
X110116Y15275D01*
X109857Y15979D01*
X109852Y15984D01*
X109144Y16692D01*
X108479Y17357D01*
X98479Y17357D02*
X98360Y17401D01*
X96609Y18046D01*
X94640Y18046D01*
X92770Y17357D02*
X92889Y17401D01*
X94640Y18046D01*
X91392Y15979D02*
X91397Y15984D01*
X92105Y16692D01*
X92770Y17357D01*
X90703Y14109D02*
X90871Y14566D01*
X91133Y15275D01*
X91392Y15979D01*
X90703Y12140D02*
X90703Y12440D01*
X90703Y13149D01*
X90703Y13858D01*
X90703Y14109D01*
X91392Y10270D02*
X91375Y10314D01*
X91114Y11023D01*
X90853Y11732D01*
X90703Y12140D01*
X92770Y8892D02*
X92765Y8897D01*
X92056Y9606D01*
X91392Y10270D01*
X94640Y8203D02*
X92770Y8892D01*
X94640Y8203D02*
X96609Y8203D01*
X98479Y8892D01*
X98484Y8897D01*
X99193Y9606D01*
X99857Y10270D01*
X99874Y10314D01*
X100135Y11023D01*
X100396Y11732D01*
X100546Y12140D01*
X100546Y12440D01*
X100546Y13149D01*
X100546Y13858D01*
X100546Y14109D01*
X100378Y14566D01*
X100116Y15275D01*
X99857Y15979D01*
X99852Y15984D01*
X99144Y16692D01*
X98479Y17357D01*
X88479Y17357D02*
X88360Y17401D01*
X86609Y18046D01*
X84640Y18046D01*
X82770Y17357D02*
X82889Y17401D01*
X84640Y18046D01*
X81392Y15979D02*
X81397Y15984D01*
X82105Y16692D01*
X82770Y17357D01*
X80703Y14109D02*
X80871Y14566D01*
X81133Y15275D01*
X81392Y15979D01*
X80703Y12140D02*
X80703Y12440D01*
X80703Y13149D01*
X80703Y13858D01*
X80703Y14109D01*
X81392Y10270D02*
X81375Y10314D01*
X81114Y11023D01*
X80853Y11732D01*
X80703Y12140D01*
X82770Y8892D02*
X82765Y8897D01*
X82056Y9606D01*
X81392Y10270D01*
X84640Y8203D02*
X82770Y8892D01*
X84640Y8203D02*
X86609Y8203D01*
X88479Y8892D01*
X88484Y8897D01*
X89193Y9606D01*
X89857Y10270D01*
X89874Y10314D01*
X90135Y11023D01*
X90396Y11732D01*
X90546Y12140D01*
X90546Y12440D01*
X90546Y13149D01*
X90546Y13858D01*
X90546Y14109D01*
X90378Y14566D01*
X90116Y15275D01*
X89857Y15979D01*
X89852Y15984D01*
X89144Y16692D01*
X88479Y17357D01*
X48479Y17357D02*
X48360Y17401D01*
X46609Y18046D01*
X44640Y18046D01*
X42770Y17357D02*
X42889Y17401D01*
X44640Y18046D01*
X41392Y15979D02*
X41397Y15984D01*
X42105Y16692D01*
X42770Y17357D01*
X40703Y14109D02*
X40871Y14566D01*
X41133Y15275D01*
X41392Y15979D01*
X40703Y12140D02*
X40703Y12440D01*
X40703Y13149D01*
X40703Y13858D01*
X40703Y14109D01*
X41392Y10270D02*
X41375Y10314D01*
X41114Y11023D01*
X40853Y11732D01*
X40703Y12140D01*
X42770Y8892D02*
X42765Y8897D01*
X42056Y9606D01*
X41392Y10270D01*
X44640Y8203D02*
X42770Y8892D01*
X45625Y8203D02*
X46609Y8203D01*
X48479Y8892D01*
X48484Y8897D01*
X49193Y9606D01*
X49857Y10270D01*
X49874Y10314D01*
X50135Y11023D01*
X50396Y11732D01*
X50546Y12140D01*
X50546Y12440D01*
X50546Y13149D01*
X50546Y13858D01*
X50546Y14109D01*
X50378Y14566D01*
X50116Y15275D01*
X49857Y15979D01*
X49852Y15984D01*
X49144Y16692D01*
X48479Y17357D01*
X38479Y17357D02*
X38360Y17401D01*
X36609Y18046D01*
X34640Y18046D01*
X32770Y17357D02*
X32889Y17401D01*
X34640Y18046D01*
X31392Y15979D02*
X31397Y15984D01*
X32105Y16692D01*
X32770Y17357D01*
X30703Y14109D02*
X30871Y14566D01*
X31133Y15275D01*
X31392Y15979D01*
X30703Y12140D02*
X30703Y12440D01*
X30703Y13149D01*
X30703Y13858D01*
X30703Y14109D01*
X31392Y10270D02*
X31375Y10314D01*
X31114Y11023D01*
X30853Y11732D01*
X30703Y12140D01*
X32770Y8892D02*
X32765Y8897D01*
X32056Y9606D01*
X31392Y10270D01*
X34640Y8203D02*
X32770Y8892D01*
X34640Y8203D02*
X36609Y8203D01*
X38479Y8892D01*
X38484Y8897D01*
X39193Y9606D01*
X39857Y10270D01*
X39874Y10314D01*
X40135Y11023D01*
X40396Y11732D01*
X40546Y12140D01*
X40546Y12440D01*
X40546Y13149D01*
X40546Y13858D01*
X40546Y14109D01*
X40378Y14566D01*
X40116Y15275D01*
X39857Y15979D01*
X39852Y15984D01*
X39144Y16692D01*
X38479Y17357D01*
X28479Y17357D02*
X28360Y17401D01*
X26609Y18046D01*
X24640Y18046D01*
X22770Y17357D02*
X22889Y17401D01*
X24640Y18046D01*
X21392Y15979D02*
X21397Y15984D01*
X22105Y16692D01*
X22770Y17357D01*
X20703Y14109D02*
X20871Y14566D01*
X21133Y15275D01*
X21392Y15979D01*
X20703Y12140D02*
X20703Y12440D01*
X20703Y13149D01*
X20703Y13858D01*
X20703Y14109D01*
X21392Y10270D02*
X21375Y10314D01*
X21114Y11023D01*
X20853Y11732D01*
X20703Y12140D01*
X22770Y8892D02*
X22765Y8897D01*
X22056Y9606D01*
X21392Y10270D01*
X24640Y8203D02*
X22770Y8892D01*
X24640Y8203D02*
X26609Y8203D01*
X28479Y8892D01*
X28484Y8897D01*
X29193Y9606D01*
X29857Y10270D01*
X29874Y10314D01*
X30135Y11023D01*
X30396Y11732D01*
X30546Y12140D01*
X30546Y12440D01*
X30546Y13149D01*
X30546Y13858D01*
X30546Y14109D01*
X30378Y14566D01*
X30116Y15275D01*
X29857Y15979D01*
X29852Y15984D01*
X29144Y16692D01*
X28479Y17357D01*
X7548Y1811D02*
X213707Y1811D01*
X211894Y2519D02*
X215250Y2519D01*
X8021Y3228D02*
X55027Y3228D01*
X206222Y3228D02*
X216369Y3228D01*
X4141Y3937D02*
X54318Y3937D01*
X206931Y3937D02*
X217115Y3937D01*
X3432Y4645D02*
X8491Y4645D01*
X10258Y4645D02*
X53609Y4645D01*
X207640Y4645D02*
X217824Y4645D01*
X2932Y5354D02*
X7042Y5354D01*
X11707Y5354D02*
X53065Y5354D01*
X208348Y5354D02*
X218324Y5354D01*
X2483Y6062D02*
X6334Y6062D01*
X12415Y6062D02*
X53065Y6062D01*
X209057Y6062D02*
X218774Y6062D01*
X2090Y6771D02*
X6068Y6771D01*
X12681Y6771D02*
X53065Y6771D01*
X209121Y6771D02*
X219167Y6771D01*
X1835Y7480D02*
X5831Y7480D01*
X12918Y7480D02*
X53065Y7480D01*
X209121Y7480D02*
X219422Y7480D01*
X1580Y8188D02*
X5691Y8188D01*
X12918Y8188D02*
X53065Y8188D01*
X58184Y8188D02*
X146316Y8188D01*
X209121Y8188D02*
X219677Y8188D01*
X1407Y8897D02*
X4982Y8897D01*
X18484Y8897D02*
X22765Y8897D01*
X28484Y8897D02*
X32765Y8897D01*
X38484Y8897D02*
X42765Y8897D01*
X48484Y8897D02*
X52765Y8897D01*
X58484Y8897D02*
X62765Y8897D01*
X68484Y8897D02*
X72765Y8897D01*
X78484Y8897D02*
X82765Y8897D01*
X88484Y8897D02*
X92765Y8897D01*
X98484Y8897D02*
X102765Y8897D01*
X108484Y8897D02*
X112765Y8897D01*
X118484Y8897D02*
X122765Y8897D01*
X128484Y8897D02*
X145607Y8897D01*
X209121Y8897D02*
X219851Y8897D01*
X1875Y9606D02*
X4940Y9606D01*
X19193Y9606D02*
X22056Y9606D01*
X29193Y9606D02*
X32056Y9606D01*
X39193Y9606D02*
X42056Y9606D01*
X49193Y9606D02*
X52056Y9606D01*
X59193Y9606D02*
X62056Y9606D01*
X69193Y9606D02*
X72056Y9606D01*
X79193Y9606D02*
X82056Y9606D01*
X89193Y9606D02*
X92056Y9606D01*
X99193Y9606D02*
X102056Y9606D01*
X109193Y9606D02*
X112056Y9606D01*
X119193Y9606D02*
X122056Y9606D01*
X129193Y9606D02*
X144899Y9606D01*
X209121Y9606D02*
X219940Y9606D01*
X1229Y10314D02*
X4940Y10314D01*
X19874Y10314D02*
X21375Y10314D01*
X29874Y10314D02*
X31375Y10314D01*
X39874Y10314D02*
X41375Y10314D01*
X49874Y10314D02*
X51375Y10314D01*
X59874Y10314D02*
X61375Y10314D01*
X69874Y10314D02*
X71375Y10314D01*
X79874Y10314D02*
X81375Y10314D01*
X89874Y10314D02*
X91375Y10314D01*
X99874Y10314D02*
X101375Y10314D01*
X109874Y10314D02*
X111375Y10314D01*
X119874Y10314D02*
X121375Y10314D01*
X129874Y10314D02*
X144190Y10314D01*
X209121Y10314D02*
X220030Y10314D01*
X1181Y11023D02*
X4940Y11023D01*
X20135Y11023D02*
X21114Y11023D01*
X30135Y11023D02*
X31114Y11023D01*
X40135Y11023D02*
X41114Y11023D01*
X50135Y11023D02*
X51114Y11023D01*
X60135Y11023D02*
X61114Y11023D01*
X70135Y11023D02*
X71114Y11023D01*
X80135Y11023D02*
X81114Y11023D01*
X90135Y11023D02*
X91114Y11023D01*
X100135Y11023D02*
X101114Y11023D01*
X110135Y11023D02*
X111114Y11023D01*
X120135Y11023D02*
X121114Y11023D01*
X130135Y11023D02*
X143481Y11023D01*
X209121Y11023D02*
X220078Y11023D01*
X1181Y11732D02*
X4940Y11732D01*
X20396Y11732D02*
X20853Y11732D01*
X30396Y11732D02*
X30853Y11732D01*
X40396Y11732D02*
X40853Y11732D01*
X50396Y11732D02*
X50853Y11732D01*
X60396Y11732D02*
X60853Y11732D01*
X70396Y11732D02*
X70853Y11732D01*
X80396Y11732D02*
X80853Y11732D01*
X90396Y11732D02*
X90853Y11732D01*
X100396Y11732D02*
X100853Y11732D01*
X110396Y11732D02*
X110853Y11732D01*
X120396Y11732D02*
X120853Y11732D01*
X130396Y11732D02*
X142773Y11732D01*
X209190Y11732D02*
X211747Y11732D01*
X217002Y11732D02*
X220078Y11732D01*
X1181Y12440D02*
X4940Y12440D01*
X20546Y12440D02*
X20703Y12440D01*
X30546Y12440D02*
X30703Y12440D01*
X40546Y12440D02*
X40703Y12440D01*
X50546Y12440D02*
X50703Y12440D01*
X60546Y12440D02*
X60703Y12440D01*
X70546Y12440D02*
X70703Y12440D01*
X80546Y12440D02*
X80703Y12440D01*
X90546Y12440D02*
X90703Y12440D01*
X100546Y12440D02*
X100703Y12440D01*
X110546Y12440D02*
X110703Y12440D01*
X120546Y12440D02*
X120703Y12440D01*
X130546Y12440D02*
X142064Y12440D01*
X209898Y12440D02*
X211038Y12440D01*
X217711Y12440D02*
X220078Y12440D01*
X1181Y13149D02*
X4940Y13149D01*
X20546Y13149D02*
X20703Y13149D01*
X30546Y13149D02*
X30703Y13149D01*
X40546Y13149D02*
X40703Y13149D01*
X50546Y13149D02*
X50703Y13149D01*
X60546Y13149D02*
X60703Y13149D01*
X70546Y13149D02*
X70703Y13149D01*
X80546Y13149D02*
X80703Y13149D01*
X90546Y13149D02*
X90703Y13149D01*
X100546Y13149D02*
X100703Y13149D01*
X110546Y13149D02*
X110703Y13149D01*
X120546Y13149D02*
X120703Y13149D01*
X137500Y13149D02*
X141355Y13149D01*
X218324Y13149D02*
X220078Y13149D01*
X1181Y13858D02*
X4621Y13858D01*
X20546Y13858D02*
X20703Y13858D01*
X30546Y13858D02*
X30703Y13858D01*
X40546Y13858D02*
X40703Y13858D01*
X50546Y13858D02*
X50703Y13858D01*
X60546Y13858D02*
X60703Y13858D01*
X70546Y13858D02*
X70703Y13858D01*
X80546Y13858D02*
X80703Y13858D01*
X90546Y13858D02*
X90703Y13858D01*
X100546Y13858D02*
X100703Y13858D01*
X110546Y13858D02*
X110703Y13858D01*
X120546Y13858D02*
X120703Y13858D01*
X130546Y13858D02*
X140647Y13858D01*
X218585Y13858D02*
X220078Y13858D01*
X1181Y14566D02*
X3912Y14566D01*
X20378Y14566D02*
X20871Y14566D01*
X30378Y14566D02*
X30871Y14566D01*
X40378Y14566D02*
X40871Y14566D01*
X50378Y14566D02*
X50871Y14566D01*
X60378Y14566D02*
X60871Y14566D01*
X70378Y14566D02*
X70871Y14566D01*
X80378Y14566D02*
X80871Y14566D01*
X90378Y14566D02*
X90871Y14566D01*
X100378Y14566D02*
X100871Y14566D01*
X110378Y14566D02*
X110871Y14566D01*
X120378Y14566D02*
X120871Y14566D01*
X130378Y14566D02*
X139938Y14566D01*
X218846Y14566D02*
X220078Y14566D01*
X1181Y15275D02*
X3457Y15275D01*
X20116Y15275D02*
X21133Y15275D01*
X30116Y15275D02*
X31133Y15275D01*
X40116Y15275D02*
X41133Y15275D01*
X50116Y15275D02*
X51133Y15275D01*
X60116Y15275D02*
X61133Y15275D01*
X70116Y15275D02*
X71133Y15275D01*
X80116Y15275D02*
X81133Y15275D01*
X90116Y15275D02*
X91133Y15275D01*
X100116Y15275D02*
X101133Y15275D01*
X110116Y15275D02*
X111133Y15275D01*
X120116Y15275D02*
X121133Y15275D01*
X130116Y15275D02*
X139229Y15275D01*
X218902Y15275D02*
X220078Y15275D01*
X1181Y15984D02*
X3196Y15984D01*
X19852Y15984D02*
X21397Y15984D01*
X29852Y15984D02*
X31397Y15984D01*
X39852Y15984D02*
X41397Y15984D01*
X49852Y15984D02*
X51397Y15984D01*
X59852Y15984D02*
X61397Y15984D01*
X69852Y15984D02*
X71397Y15984D01*
X79852Y15984D02*
X81397Y15984D01*
X89852Y15984D02*
X91397Y15984D01*
X99852Y15984D02*
X101397Y15984D01*
X109852Y15984D02*
X111397Y15984D01*
X119852Y15984D02*
X121397Y15984D01*
X129852Y15984D02*
X138521Y15984D01*
X218902Y15984D02*
X220078Y15984D01*
X1181Y16692D02*
X2972Y16692D01*
X12027Y16692D02*
X12105Y16692D01*
X19144Y16692D02*
X22105Y16692D01*
X29144Y16692D02*
X32105Y16692D01*
X39144Y16692D02*
X42105Y16692D01*
X49144Y16692D02*
X52105Y16692D01*
X59144Y16692D02*
X62105Y16692D01*
X69144Y16692D02*
X72105Y16692D01*
X79144Y16692D02*
X82105Y16692D01*
X89144Y16692D02*
X92105Y16692D01*
X99144Y16692D02*
X102105Y16692D01*
X109144Y16692D02*
X112105Y16692D01*
X119144Y16692D02*
X122105Y16692D01*
X129144Y16692D02*
X137812Y16692D01*
X218843Y16692D02*
X220078Y16692D01*
X1181Y17401D02*
X2972Y17401D01*
X12027Y17401D02*
X12889Y17401D01*
X18360Y17401D02*
X19671Y17401D01*
X22828Y17401D02*
X22889Y17401D01*
X28360Y17401D02*
X32889Y17401D01*
X38360Y17401D02*
X42889Y17401D01*
X48360Y17401D02*
X48978Y17401D01*
X59327Y17401D02*
X62889Y17401D01*
X68360Y17401D02*
X72889Y17401D01*
X78360Y17401D02*
X82889Y17401D01*
X88360Y17401D02*
X92889Y17401D01*
X98360Y17401D02*
X102889Y17401D01*
X108360Y17401D02*
X112889Y17401D01*
X118360Y17401D02*
X122889Y17401D01*
X128360Y17401D02*
X137103Y17401D01*
X218582Y17401D02*
X220078Y17401D01*
X1181Y18110D02*
X2972Y18110D01*
X59588Y18110D02*
X63065Y18110D01*
X68184Y18110D02*
X73065Y18110D01*
X78184Y18110D02*
X136395Y18110D01*
X218320Y18110D02*
X220078Y18110D01*
X1181Y18818D02*
X3124Y18818D01*
X59793Y18818D02*
X63065Y18818D01*
X68184Y18818D02*
X73065Y18818D01*
X78184Y18818D02*
X135686Y18818D01*
X217701Y18818D02*
X220078Y18818D01*
X1181Y19527D02*
X3385Y19527D01*
X59793Y19527D02*
X63065Y19527D01*
X68184Y19527D02*
X73065Y19527D01*
X78184Y19527D02*
X134977Y19527D01*
X216978Y19527D02*
X220078Y19527D01*
X1181Y20236D02*
X3715Y20236D01*
X59737Y20236D02*
X63065Y20236D01*
X68184Y20236D02*
X73065Y20236D01*
X78184Y20236D02*
X134269Y20236D01*
X216934Y20236D02*
X220078Y20236D01*
X1181Y20944D02*
X4424Y20944D01*
X59476Y20944D02*
X62935Y20944D01*
X68184Y20944D02*
X73065Y20944D01*
X78184Y20944D02*
X117590Y20944D01*
X121659Y20944D02*
X122965Y20944D01*
X127034Y20944D02*
X133560Y20944D01*
X216934Y20944D02*
X220078Y20944D01*
X1181Y21653D02*
X5578Y21653D01*
X59074Y21653D02*
X62226Y21653D01*
X68184Y21653D02*
X73065Y21653D01*
X78184Y21653D02*
X87226Y21653D01*
X127756Y21653D02*
X132851Y21653D01*
X216341Y21653D02*
X220078Y21653D01*
X1181Y22362D02*
X8742Y22362D01*
X51257Y22362D02*
X54134Y22362D01*
X58365Y22362D02*
X61518Y22362D01*
X68184Y22362D02*
X73065Y22362D01*
X78184Y22362D02*
X86518Y22362D01*
X128201Y22362D02*
X132143Y22362D01*
X215632Y22362D02*
X220078Y22362D01*
X1181Y23070D02*
X6326Y23070D01*
X8673Y23070D02*
X9451Y23070D01*
X68048Y23070D02*
X73065Y23070D01*
X78184Y23070D02*
X85809Y23070D01*
X128462Y23070D02*
X131434Y23070D01*
X214923Y23070D02*
X220078Y23070D01*
X1181Y23779D02*
X4700Y23779D01*
X10299Y23779D02*
X13065Y23779D01*
X18184Y23779D02*
X19484Y23779D01*
X67340Y23779D02*
X73065Y23779D01*
X78184Y23779D02*
X85100Y23779D01*
X128543Y23779D02*
X130725Y23779D01*
X214215Y23779D02*
X220078Y23779D01*
X1181Y24488D02*
X3991Y24488D01*
X11008Y24488D02*
X13065Y24488D01*
X18184Y24488D02*
X19739Y24488D01*
X66631Y24488D02*
X73065Y24488D01*
X78184Y24488D02*
X84392Y24488D01*
X128543Y24488D02*
X130017Y24488D01*
X213506Y24488D02*
X220078Y24488D01*
X1181Y25196D02*
X3486Y25196D01*
X11513Y25196D02*
X13065Y25196D01*
X18184Y25196D02*
X19581Y25196D01*
X65922Y25196D02*
X73065Y25196D01*
X78184Y25196D02*
X83683Y25196D01*
X128363Y25196D02*
X129308Y25196D01*
X212797Y25196D02*
X220078Y25196D01*
X1181Y25905D02*
X3225Y25905D01*
X11774Y25905D02*
X13065Y25905D01*
X18184Y25905D02*
X19581Y25905D01*
X65214Y25905D02*
X73065Y25905D01*
X78184Y25905D02*
X82974Y25905D01*
X128102Y25905D02*
X128599Y25905D01*
X150839Y25905D02*
X220078Y25905D01*
X1181Y26614D02*
X2972Y26614D01*
X12027Y26614D02*
X13065Y26614D01*
X18184Y26614D02*
X19684Y26614D01*
X64505Y26614D02*
X73065Y26614D01*
X78184Y26614D02*
X82266Y26614D01*
X127488Y26614D02*
X127891Y26614D01*
X150130Y26614D02*
X220078Y26614D01*
X1181Y27322D02*
X2972Y27322D01*
X12027Y27322D02*
X13065Y27322D01*
X18184Y27322D02*
X19945Y27322D01*
X63796Y27322D02*
X73065Y27322D01*
X78184Y27322D02*
X81557Y27322D01*
X126308Y27322D02*
X127182Y27322D01*
X149421Y27322D02*
X220078Y27322D01*
X1181Y28031D02*
X2972Y28031D01*
X12027Y28031D02*
X13065Y28031D01*
X18184Y28031D02*
X20428Y28031D01*
X63088Y28031D02*
X73065Y28031D01*
X78184Y28031D02*
X80848Y28031D01*
X124588Y28031D02*
X126473Y28031D01*
X148713Y28031D02*
X220078Y28031D01*
X1181Y28740D02*
X3095Y28740D01*
X11904Y28740D02*
X13065Y28740D01*
X18184Y28740D02*
X21253Y28740D01*
X24996Y28740D02*
X45628Y28740D01*
X49371Y28740D02*
X73065Y28740D01*
X78184Y28740D02*
X80140Y28740D01*
X123879Y28740D02*
X125765Y28740D01*
X148004Y28740D02*
X220078Y28740D01*
X1181Y29448D02*
X3356Y29448D01*
X11643Y29448D02*
X13065Y29448D01*
X18184Y29448D02*
X73065Y29448D01*
X78184Y29448D02*
X79431Y29448D01*
X123170Y29448D02*
X125056Y29448D01*
X147295Y29448D02*
X220078Y29448D01*
X1181Y30157D02*
X3637Y30157D01*
X11362Y30157D02*
X13065Y30157D01*
X52500Y30157D02*
X73065Y30157D01*
X78184Y30157D02*
X78722Y30157D01*
X122462Y30157D02*
X124347Y30157D01*
X146587Y30157D02*
X220078Y30157D01*
X1181Y30866D02*
X4345Y30866D01*
X10654Y30866D02*
X13065Y30866D01*
X18184Y30866D02*
X73014Y30866D01*
X89003Y30866D02*
X124315Y30866D01*
X145878Y30866D02*
X220078Y30866D01*
X1181Y31574D02*
X5364Y31574D01*
X9635Y31574D02*
X13065Y31574D01*
X18184Y31574D02*
X72305Y31574D01*
X88294Y31574D02*
X124315Y31574D01*
X145169Y31574D02*
X220078Y31574D01*
X1181Y32283D02*
X13065Y32283D01*
X18184Y32283D02*
X71596Y32283D01*
X87586Y32283D02*
X124315Y32283D01*
X144461Y32283D02*
X220078Y32283D01*
X1181Y32992D02*
X6539Y32992D01*
X8460Y32992D02*
X13065Y32992D01*
X18184Y32992D02*
X70888Y32992D01*
X86877Y32992D02*
X124315Y32992D01*
X143752Y32992D02*
X220078Y32992D01*
X1181Y33700D02*
X4778Y33700D01*
X10221Y33700D02*
X13065Y33700D01*
X18184Y33700D02*
X70179Y33700D01*
X86168Y33700D02*
X124315Y33700D01*
X143043Y33700D02*
X220078Y33700D01*
X1181Y34409D02*
X4070Y34409D01*
X10929Y34409D02*
X13065Y34409D01*
X18184Y34409D02*
X69470Y34409D01*
X106250Y34409D02*
X124315Y34409D01*
X142335Y34409D02*
X220078Y34409D01*
X1181Y35118D02*
X3515Y35118D01*
X11484Y35118D02*
X13065Y35118D01*
X18184Y35118D02*
X68762Y35118D01*
X87381Y35118D02*
X124315Y35118D01*
X141626Y35118D02*
X220078Y35118D01*
X1181Y35826D02*
X3254Y35826D01*
X11745Y35826D02*
X13065Y35826D01*
X44271Y35826D02*
X68053Y35826D01*
X84042Y35826D02*
X88678Y35826D01*
X104446Y35826D02*
X124315Y35826D01*
X140917Y35826D02*
X220078Y35826D01*
X1181Y36535D02*
X2993Y36535D01*
X12006Y36535D02*
X13065Y36535D01*
X44979Y36535D02*
X67344Y36535D01*
X83334Y36535D02*
X87969Y36535D01*
X105155Y36535D02*
X106486Y36535D01*
X111013Y36535D02*
X124315Y36535D01*
X140209Y36535D02*
X220078Y36535D01*
X1181Y37244D02*
X2972Y37244D01*
X12027Y37244D02*
X13065Y37244D01*
X47171Y37244D02*
X65724Y37244D01*
X82625Y37244D02*
X87261Y37244D01*
X111722Y37244D02*
X124315Y37244D01*
X139500Y37244D02*
X220078Y37244D01*
X1181Y37952D02*
X2972Y37952D01*
X12500Y37952D02*
X13065Y37952D01*
X47880Y37952D02*
X64444Y37952D01*
X81916Y37952D02*
X86552Y37952D01*
X112030Y37952D02*
X124315Y37952D01*
X139434Y37952D02*
X220078Y37952D01*
X1181Y38661D02*
X3066Y38661D01*
X11933Y38661D02*
X13065Y38661D01*
X48247Y38661D02*
X63793Y38661D01*
X81208Y38661D02*
X85843Y38661D01*
X112291Y38661D02*
X124315Y38661D01*
X139434Y38661D02*
X220078Y38661D01*
X1181Y39370D02*
X3327Y39370D01*
X11672Y39370D02*
X13065Y39370D01*
X48508Y39370D02*
X63532Y39370D01*
X80499Y39370D02*
X85135Y39370D01*
X112293Y39370D02*
X124315Y39370D01*
X139434Y39370D02*
X220078Y39370D01*
X1181Y40078D02*
X3588Y40078D01*
X11411Y40078D02*
X13065Y40078D01*
X48543Y40078D02*
X63331Y40078D01*
X71040Y40078D02*
X71190Y40078D01*
X79790Y40078D02*
X84426Y40078D01*
X112293Y40078D02*
X124315Y40078D01*
X139434Y40078D02*
X220078Y40078D01*
X1181Y40787D02*
X4267Y40787D01*
X10732Y40787D02*
X13065Y40787D01*
X34434Y40787D02*
X41456Y40787D01*
X48543Y40787D02*
X63331Y40787D01*
X70418Y40787D02*
X71190Y40787D01*
X79082Y40787D02*
X83718Y40787D01*
X97418Y40787D02*
X102167Y40787D01*
X112034Y40787D02*
X124315Y40787D01*
X139434Y40787D02*
X220078Y40787D01*
X1181Y41496D02*
X5150Y41496D01*
X9849Y41496D02*
X13065Y41496D01*
X34434Y41496D02*
X41681Y41496D01*
X48318Y41496D02*
X63391Y41496D01*
X70358Y41496D02*
X71190Y41496D01*
X78809Y41496D02*
X83690Y41496D01*
X90248Y41496D02*
X90331Y41496D01*
X97418Y41496D02*
X102876Y41496D01*
X111731Y41496D02*
X124315Y41496D01*
X139434Y41496D02*
X220078Y41496D01*
X1181Y42204D02*
X2161Y42204D01*
X7838Y42204D02*
X13065Y42204D01*
X34434Y42204D02*
X41942Y42204D01*
X48057Y42204D02*
X63652Y42204D01*
X70097Y42204D02*
X71190Y42204D01*
X80625Y42204D02*
X83690Y42204D01*
X89539Y42204D02*
X90375Y42204D01*
X97374Y42204D02*
X106476Y42204D01*
X111023Y42204D02*
X124315Y42204D01*
X139434Y42204D02*
X220078Y42204D01*
X1181Y42913D02*
X1452Y42913D01*
X8547Y42913D02*
X13065Y42913D01*
X34434Y42913D02*
X42635Y42913D01*
X47364Y42913D02*
X64060Y42913D01*
X69689Y42913D02*
X71190Y42913D01*
X78809Y42913D02*
X83233Y42913D01*
X89266Y42913D02*
X90636Y42913D01*
X97113Y42913D02*
X101854Y42913D01*
X104395Y42913D02*
X108026Y42913D01*
X109473Y42913D02*
X124315Y42913D01*
X139434Y42913D02*
X220078Y42913D01*
X9255Y43622D02*
X13065Y43622D01*
X34434Y43622D02*
X44028Y43622D01*
X45971Y43622D02*
X64769Y43622D01*
X68980Y43622D02*
X71190Y43622D01*
X78809Y43622D02*
X82952Y43622D01*
X89547Y43622D02*
X91019Y43622D01*
X96730Y43622D02*
X100650Y43622D01*
X105599Y43622D02*
X124315Y43622D01*
X139434Y43622D02*
X220078Y43622D01*
X9964Y44330D02*
X13065Y44330D01*
X34434Y44330D02*
X71190Y44330D01*
X78809Y44330D02*
X82706Y44330D01*
X89793Y44330D02*
X91315Y44330D01*
X96434Y44330D02*
X100027Y44330D01*
X139434Y44330D02*
X220078Y44330D01*
X10118Y45039D02*
X13065Y45039D01*
X69375Y45039D02*
X71190Y45039D01*
X78809Y45039D02*
X82706Y45039D01*
X89793Y45039D02*
X91315Y45039D01*
X96434Y45039D02*
X99766Y45039D01*
X139434Y45039D02*
X220078Y45039D01*
X10118Y45748D02*
X13065Y45748D01*
X52500Y45748D02*
X71190Y45748D01*
X78809Y45748D02*
X82720Y45748D01*
X89779Y45748D02*
X91315Y45748D01*
X96434Y45748D02*
X99581Y45748D01*
X139434Y45748D02*
X220078Y45748D01*
X10118Y46456D02*
X13065Y46456D01*
X34434Y46456D02*
X71190Y46456D01*
X78809Y46456D02*
X82981Y46456D01*
X89518Y46456D02*
X91315Y46456D01*
X96434Y46456D02*
X99581Y46456D01*
X139434Y46456D02*
X220078Y46456D01*
X10118Y47165D02*
X13065Y47165D01*
X34434Y47165D02*
X71190Y47165D01*
X78809Y47165D02*
X83312Y47165D01*
X89187Y47165D02*
X91315Y47165D01*
X96434Y47165D02*
X99657Y47165D01*
X139434Y47165D02*
X220078Y47165D01*
X10118Y47874D02*
X13065Y47874D01*
X34434Y47874D02*
X71190Y47874D01*
X78809Y47874D02*
X84021Y47874D01*
X88478Y47874D02*
X91315Y47874D01*
X96434Y47874D02*
X99918Y47874D01*
X139434Y47874D02*
X220078Y47874D01*
X10118Y48582D02*
X13065Y48582D01*
X34434Y48582D02*
X71190Y48582D01*
X78809Y48582D02*
X91315Y48582D01*
X96434Y48582D02*
X100354Y48582D01*
X139434Y48582D02*
X220078Y48582D01*
X10092Y49291D02*
X13065Y49291D01*
X34434Y49291D02*
X71190Y49291D01*
X78809Y49291D02*
X91315Y49291D01*
X96434Y49291D02*
X101063Y49291D01*
X105186Y49291D02*
X124315Y49291D01*
X139434Y49291D02*
X220078Y49291D01*
X9383Y50000D02*
X13065Y50000D01*
X34434Y50000D02*
X38031Y50000D01*
X41968Y50000D02*
X71190Y50000D01*
X78809Y50000D02*
X91315Y50000D01*
X96434Y50000D02*
X124315Y50000D01*
X139434Y50000D02*
X220078Y50000D01*
X1181Y50708D02*
X1324Y50708D01*
X8675Y50708D02*
X13065Y50708D01*
X34434Y50708D02*
X36186Y50708D01*
X43813Y50708D02*
X71190Y50708D01*
X78809Y50708D02*
X83056Y50708D01*
X96434Y50708D02*
X124315Y50708D01*
X139434Y50708D02*
X220078Y50708D01*
X1181Y51417D02*
X2033Y51417D01*
X7966Y51417D02*
X13065Y51417D01*
X34434Y51417D02*
X35477Y51417D01*
X44522Y51417D02*
X71190Y51417D01*
X78809Y51417D02*
X82381Y51417D01*
X96434Y51417D02*
X124315Y51417D01*
X139434Y51417D02*
X220078Y51417D01*
X1181Y52125D02*
X13065Y52125D01*
X34434Y52125D02*
X34769Y52125D01*
X45230Y52125D02*
X71190Y52125D01*
X78809Y52125D02*
X82381Y52125D01*
X100603Y52125D02*
X123629Y52125D01*
X139434Y52125D02*
X220078Y52125D01*
X1181Y52834D02*
X13065Y52834D01*
X45716Y52834D02*
X71190Y52834D01*
X78809Y52834D02*
X82381Y52834D01*
X105829Y52834D02*
X122920Y52834D01*
X139434Y52834D02*
X220078Y52834D01*
X1181Y53543D02*
X13673Y53543D01*
X45977Y53543D02*
X71190Y53543D01*
X78809Y53543D02*
X82381Y53543D01*
X106537Y53543D02*
X122212Y53543D01*
X139434Y53543D02*
X220078Y53543D01*
X1181Y54251D02*
X14382Y54251D01*
X46239Y54251D02*
X71190Y54251D01*
X78809Y54251D02*
X82381Y54251D01*
X107246Y54251D02*
X121503Y54251D01*
X139434Y54251D02*
X220078Y54251D01*
X1181Y54960D02*
X15091Y54960D01*
X46496Y54960D02*
X50794Y54960D01*
X67330Y54960D02*
X71190Y54960D01*
X78809Y54960D02*
X82381Y54960D01*
X107955Y54960D02*
X120794Y54960D01*
X139434Y54960D02*
X220078Y54960D01*
X1181Y55669D02*
X15799Y55669D01*
X46496Y55669D02*
X50086Y55669D01*
X68038Y55669D02*
X71190Y55669D01*
X78809Y55669D02*
X82381Y55669D01*
X108663Y55669D02*
X120086Y55669D01*
X139434Y55669D02*
X220078Y55669D01*
X1181Y56377D02*
X16508Y56377D01*
X46496Y56377D02*
X49377Y56377D01*
X68747Y56377D02*
X71190Y56377D01*
X79372Y56377D02*
X82381Y56377D01*
X109372Y56377D02*
X119377Y56377D01*
X139434Y56377D02*
X220078Y56377D01*
X1181Y57086D02*
X17217Y57086D01*
X46496Y57086D02*
X48668Y57086D01*
X69456Y57086D02*
X71190Y57086D01*
X80081Y57086D02*
X82381Y57086D01*
X110081Y57086D02*
X118668Y57086D01*
X139434Y57086D02*
X220078Y57086D01*
X1181Y57795D02*
X17925Y57795D01*
X46405Y57795D02*
X48065Y57795D01*
X70164Y57795D02*
X71190Y57795D01*
X80789Y57795D02*
X82381Y57795D01*
X110789Y57795D02*
X117960Y57795D01*
X139434Y57795D02*
X220078Y57795D01*
X1181Y58503D02*
X18634Y58503D01*
X46144Y58503D02*
X48065Y58503D01*
X70873Y58503D02*
X71190Y58503D01*
X81498Y58503D02*
X82381Y58503D01*
X111498Y58503D02*
X117251Y58503D01*
X139434Y58503D02*
X220078Y58503D01*
X1181Y59212D02*
X19342Y59212D01*
X45883Y59212D02*
X47450Y59212D01*
X82207Y59212D02*
X82381Y59212D01*
X113279Y59212D02*
X116542Y59212D01*
X138782Y59212D02*
X220078Y59212D01*
X1181Y59921D02*
X20051Y59921D01*
X45622Y59921D02*
X46741Y59921D01*
X114399Y59921D02*
X115834Y59921D01*
X138073Y59921D02*
X220078Y59921D01*
X1181Y60629D02*
X20760Y60629D01*
X44974Y60629D02*
X46259Y60629D01*
X114990Y60629D02*
X115125Y60629D01*
X137364Y60629D02*
X220078Y60629D01*
X1181Y61338D02*
X21468Y61338D01*
X44266Y61338D02*
X45998Y61338D01*
X136656Y61338D02*
X220078Y61338D01*
X1181Y62047D02*
X2318Y62047D01*
X7681Y62047D02*
X22177Y62047D01*
X43197Y62047D02*
X45737Y62047D01*
X135947Y62047D02*
X220078Y62047D01*
X1181Y62755D02*
X1610Y62755D01*
X8389Y62755D02*
X22886Y62755D01*
X38875Y62755D02*
X45703Y62755D01*
X135238Y62755D02*
X220078Y62755D01*
X9098Y63464D02*
X23594Y63464D01*
X39584Y63464D02*
X45703Y63464D01*
X134530Y63464D02*
X220078Y63464D01*
X9807Y64173D02*
X24303Y64173D01*
X40292Y64173D02*
X45726Y64173D01*
X135101Y64173D02*
X220078Y64173D01*
X10118Y64881D02*
X25012Y64881D01*
X41001Y64881D02*
X45987Y64881D01*
X135859Y64881D02*
X220078Y64881D01*
X10118Y65590D02*
X25720Y65590D01*
X41710Y65590D02*
X46249Y65590D01*
X136318Y65590D02*
X220078Y65590D01*
X10118Y66299D02*
X26429Y66299D01*
X42418Y66299D02*
X46712Y66299D01*
X136579Y66299D02*
X220078Y66299D01*
X25625Y67007D02*
X27138Y67007D01*
X43127Y67007D02*
X47420Y67007D01*
X136668Y67007D02*
X220078Y67007D01*
X10118Y67716D02*
X27846Y67716D01*
X43836Y67716D02*
X48065Y67716D01*
X200937Y67716D02*
X220078Y67716D01*
X10118Y68425D02*
X14038Y68425D01*
X17211Y68425D02*
X24038Y68425D01*
X27211Y68425D02*
X28065Y68425D01*
X47211Y68425D02*
X48065Y68425D01*
X137919Y68425D02*
X220078Y68425D01*
X10118Y69133D02*
X12528Y69133D01*
X18721Y69133D02*
X22528Y69133D01*
X138628Y69133D02*
X220078Y69133D01*
X9541Y69842D02*
X11820Y69842D01*
X19429Y69842D02*
X21820Y69842D01*
X139337Y69842D02*
X220078Y69842D01*
X8832Y70551D02*
X11288Y70551D01*
X19961Y70551D02*
X21288Y70551D01*
X140045Y70551D02*
X220078Y70551D01*
X1181Y71259D02*
X1875Y71259D01*
X8124Y71259D02*
X11027Y71259D01*
X20222Y71259D02*
X21027Y71259D01*
X80222Y71259D02*
X81027Y71259D01*
X140754Y71259D02*
X220078Y71259D01*
X1181Y71968D02*
X2584Y71968D01*
X7415Y71968D02*
X10766Y71968D01*
X20483Y71968D02*
X20766Y71968D01*
X80483Y71968D02*
X80766Y71968D01*
X141463Y71968D02*
X220078Y71968D01*
X1181Y72677D02*
X10703Y72677D01*
X20546Y72677D02*
X20703Y72677D01*
X80546Y72677D02*
X80703Y72677D01*
X142171Y72677D02*
X220078Y72677D01*
X1181Y73385D02*
X10703Y73385D01*
X20546Y73385D02*
X20703Y73385D01*
X80546Y73385D02*
X80703Y73385D01*
X142880Y73385D02*
X220078Y73385D01*
X1181Y74094D02*
X10703Y74094D01*
X20546Y74094D02*
X20703Y74094D01*
X80546Y74094D02*
X80703Y74094D01*
X143589Y74094D02*
X220078Y74094D01*
X1181Y74803D02*
X10958Y74803D01*
X20291Y74803D02*
X20958Y74803D01*
X80291Y74803D02*
X80958Y74803D01*
X144297Y74803D02*
X220078Y74803D01*
X1181Y75511D02*
X11220Y75511D01*
X20029Y75511D02*
X21220Y75511D01*
X80029Y75511D02*
X81220Y75511D01*
X145006Y75511D02*
X220078Y75511D01*
X1181Y76220D02*
X11633Y76220D01*
X19616Y76220D02*
X21633Y76220D01*
X79616Y76220D02*
X81633Y76220D01*
X145715Y76220D02*
X220078Y76220D01*
X1181Y76929D02*
X12341Y76929D01*
X18908Y76929D02*
X22341Y76929D01*
X78908Y76929D02*
X82341Y76929D01*
X146423Y76929D02*
X220078Y76929D01*
X1181Y77637D02*
X13065Y77637D01*
X18184Y77637D02*
X23530Y77637D01*
X27719Y77637D02*
X28065Y77637D01*
X73184Y77637D02*
X73530Y77637D01*
X77719Y77637D02*
X83530Y77637D01*
X147132Y77637D02*
X220078Y77637D01*
X1181Y78346D02*
X13065Y78346D01*
X18184Y78346D02*
X28065Y78346D01*
X73184Y78346D02*
X87226Y78346D01*
X147841Y78346D02*
X220078Y78346D01*
X73299Y79055D02*
X87935Y79055D01*
X148549Y79055D02*
X220078Y79055D01*
X74008Y79763D02*
X88644Y79763D01*
X149258Y79763D02*
X220078Y79763D01*
X74717Y80472D02*
X89352Y80472D01*
X149967Y80472D02*
X220078Y80472D01*
X75425Y81181D02*
X123715Y81181D01*
X150675Y81181D02*
X220078Y81181D01*
X100875Y81889D02*
X110740Y81889D01*
X151384Y81889D02*
X220078Y81889D01*
X100875Y82598D02*
X110031Y82598D01*
X152093Y82598D02*
X220078Y82598D01*
X77551Y83307D02*
X109323Y83307D01*
X152801Y83307D02*
X220078Y83307D01*
X78260Y84015D02*
X108614Y84015D01*
X153510Y84015D02*
X220078Y84015D01*
X78969Y84724D02*
X108065Y84724D01*
X153809Y84724D02*
X220078Y84724D01*
X79677Y85433D02*
X108065Y85433D01*
X153809Y85433D02*
X220078Y85433D01*
X80386Y86141D02*
X108065Y86141D01*
X153809Y86141D02*
X220078Y86141D01*
X91095Y86850D02*
X108065Y86850D01*
X153809Y86850D02*
X220078Y86850D01*
X91803Y87559D02*
X108065Y87559D01*
X153809Y87559D02*
X179456Y87559D01*
X182418Y87559D02*
X189456Y87559D01*
X192418Y87559D02*
X199456Y87559D01*
X202418Y87559D02*
X220078Y87559D01*
X92512Y88267D02*
X108065Y88267D01*
X153809Y88267D02*
X178024Y88267D01*
X183850Y88267D02*
X188024Y88267D01*
X193850Y88267D02*
X198024Y88267D01*
X203850Y88267D02*
X220078Y88267D01*
X101476Y88976D02*
X108065Y88976D01*
X153809Y88976D02*
X177315Y88976D01*
X184559Y88976D02*
X187315Y88976D01*
X194559Y88976D02*
X197315Y88976D01*
X204559Y88976D02*
X220078Y88976D01*
X93929Y89685D02*
X108065Y89685D01*
X153809Y89685D02*
X176882Y89685D01*
X184992Y89685D02*
X186882Y89685D01*
X194992Y89685D02*
X196882Y89685D01*
X204992Y89685D02*
X220078Y89685D01*
X94638Y90393D02*
X108065Y90393D01*
X153809Y90393D02*
X176621Y90393D01*
X185253Y90393D02*
X186621Y90393D01*
X195253Y90393D02*
X196621Y90393D01*
X205253Y90393D02*
X220078Y90393D01*
X95346Y91102D02*
X108065Y91102D01*
X153809Y91102D02*
X176409Y91102D01*
X185465Y91102D02*
X186409Y91102D01*
X195465Y91102D02*
X196409Y91102D01*
X205465Y91102D02*
X220078Y91102D01*
X104375Y91811D02*
X108065Y91811D01*
X153809Y91811D02*
X176409Y91811D01*
X185465Y91811D02*
X186409Y91811D01*
X195465Y91811D02*
X196409Y91811D01*
X205465Y91811D02*
X210881Y91811D01*
X216618Y91811D02*
X220078Y91811D01*
X96764Y92519D02*
X108065Y92519D01*
X153809Y92519D02*
X176409Y92519D01*
X185465Y92519D02*
X186409Y92519D01*
X195465Y92519D02*
X196409Y92519D01*
X205465Y92519D02*
X210109Y92519D01*
X217390Y92519D02*
X220078Y92519D01*
X97472Y93228D02*
X108065Y93228D01*
X153809Y93228D02*
X176574Y93228D01*
X185300Y93228D02*
X186574Y93228D01*
X195300Y93228D02*
X196574Y93228D01*
X205300Y93228D02*
X209401Y93228D01*
X218098Y93228D02*
X220078Y93228D01*
X98181Y93937D02*
X108065Y93937D01*
X153809Y93937D02*
X176835Y93937D01*
X185039Y93937D02*
X186835Y93937D01*
X195039Y93937D02*
X196835Y93937D01*
X205039Y93937D02*
X209106Y93937D01*
X218393Y93937D02*
X220078Y93937D01*
X98890Y94645D02*
X108065Y94645D01*
X153809Y94645D02*
X177187Y94645D01*
X184687Y94645D02*
X187187Y94645D01*
X194687Y94645D02*
X197187Y94645D01*
X204687Y94645D02*
X208845Y94645D01*
X218654Y94645D02*
X220078Y94645D01*
X99598Y95354D02*
X107901Y95354D01*
X153809Y95354D02*
X177896Y95354D01*
X183978Y95354D02*
X187896Y95354D01*
X193978Y95354D02*
X197896Y95354D01*
X203978Y95354D02*
X208631Y95354D01*
X218868Y95354D02*
X220078Y95354D01*
X101337Y96062D02*
X107192Y96062D01*
X153809Y96062D02*
X179109Y96062D01*
X182765Y96062D02*
X187984Y96062D01*
X193890Y96062D02*
X199109Y96062D01*
X202765Y96062D02*
X208631Y96062D01*
X218868Y96062D02*
X220078Y96062D01*
X102499Y96771D02*
X106483Y96771D01*
X153809Y96771D02*
X187984Y96771D01*
X193890Y96771D02*
X208631Y96771D01*
X218868Y96771D02*
X220078Y96771D01*
X153809Y97480D02*
X187984Y97480D01*
X193890Y97480D02*
X208707Y97480D01*
X218792Y97480D02*
X220078Y97480D01*
X153809Y98188D02*
X187984Y98188D01*
X193890Y98188D02*
X208968Y98188D01*
X218531Y98188D02*
X220078Y98188D01*
X153809Y98897D02*
X187984Y98897D01*
X193890Y98897D02*
X209229Y98897D01*
X218270Y98897D02*
X220078Y98897D01*
X153809Y99606D02*
X187984Y99606D01*
X193890Y99606D02*
X209735Y99606D01*
X217764Y99606D02*
X220078Y99606D01*
X153809Y100314D02*
X187984Y100314D01*
X193890Y100314D02*
X210444Y100314D01*
X217055Y100314D02*
X220078Y100314D01*
X153809Y101023D02*
X187984Y101023D01*
X193890Y101023D02*
X211790Y101023D01*
X215709Y101023D02*
X220078Y101023D01*
X153809Y101732D02*
X187984Y101732D01*
X193890Y101732D02*
X220078Y101732D01*
X153809Y102440D02*
X187984Y102440D01*
X193890Y102440D02*
X220078Y102440D01*
X153809Y103149D02*
X187984Y103149D01*
X193890Y103149D02*
X220078Y103149D01*
X153809Y103858D02*
X187382Y103858D01*
X194492Y103858D02*
X220078Y103858D01*
X153809Y104566D02*
X186674Y104566D01*
X195200Y104566D02*
X206883Y104566D01*
X210616Y104566D02*
X220078Y104566D01*
X153809Y105275D02*
X185965Y105275D01*
X195909Y105275D02*
X205478Y105275D01*
X212021Y105275D02*
X220036Y105275D01*
X153809Y105984D02*
X185819Y105984D01*
X196056Y105984D02*
X204770Y105984D01*
X212729Y105984D02*
X219951Y105984D01*
X153809Y106692D02*
X185819Y106692D01*
X196056Y106692D02*
X204242Y106692D01*
X213257Y106692D02*
X219866Y106692D01*
X153809Y107401D02*
X185819Y107401D01*
X196056Y107401D02*
X203981Y107401D01*
X213518Y107401D02*
X219710Y107401D01*
X153809Y108110D02*
X185819Y108110D01*
X196056Y108110D02*
X203720Y108110D01*
X213779Y108110D02*
X219460Y108110D01*
X153550Y108818D02*
X185819Y108818D01*
X196056Y108818D02*
X203631Y108818D01*
X213868Y108818D02*
X219209Y108818D01*
X152842Y109527D02*
X185819Y109527D01*
X196056Y109527D02*
X203631Y109527D01*
X213868Y109527D02*
X218842Y109527D01*
X152133Y110236D02*
X185852Y110236D01*
X196022Y110236D02*
X203631Y110236D01*
X213868Y110236D02*
X218397Y110236D01*
X151424Y110944D02*
X186561Y110944D01*
X195313Y110944D02*
X203832Y110944D01*
X213667Y110944D02*
X217937Y110944D01*
X150716Y111653D02*
X187269Y111653D01*
X194605Y111653D02*
X204093Y111653D01*
X213406Y111653D02*
X217235Y111653D01*
X150007Y112362D02*
X187978Y112362D01*
X193896Y112362D02*
X204366Y112362D01*
X213133Y112362D02*
X216534Y112362D01*
X149298Y113070D02*
X205075Y113070D01*
X212424Y113070D02*
X215456Y113070D01*
X41644Y113779D02*
X205788Y113779D01*
X211711Y113779D02*
X214087Y113779D01*
X41644Y114488D02*
X207711Y114488D01*
X209788Y114488D02*
X211147Y114488D01*
X96055Y91811D02*
X104375Y91811D01*
X104375Y91875D01*
X76134Y81889D02*
X100875Y81889D01*
X100875Y82125D01*
X85460Y34409D02*
X106250Y34409D01*
X106250Y34625D01*
X78809Y42204D02*
X80625Y42204D01*
X80625Y41875D01*
X10118Y66299D02*
X10118Y66875D01*
X93220Y88976D02*
X101476Y88976D01*
X76843Y82598D02*
X100875Y82598D01*
X84751Y35118D02*
X87381Y35118D01*
X180031Y87347D02*
X180937Y87347D01*
X181033Y67716D02*
X181250Y67716D01*
X181250Y67500D01*
X181250Y67716D02*
X200937Y67716D01*
X200937Y67500D01*
X137211Y67716D02*
X181033Y67716D01*
X200031Y87347D02*
X200937Y87347D01*
X218585Y13858D02*
X218750Y14304D01*
X1318Y9606D02*
X1875Y9606D01*
X2972Y37244D02*
X2972Y37500D01*
X12027Y37952D02*
X12500Y37952D01*
X12027Y37244D02*
X12027Y37500D01*
X24640Y68203D02*
X25625Y68203D01*
X181843Y96402D02*
X180937Y96402D01*
X201843Y96402D02*
X200937Y96402D01*
X6005Y2519D02*
X167500Y2519D01*
X167500Y2500D01*
X167500Y2519D02*
X211894Y2519D01*
X4887Y3228D02*
X8021Y3228D01*
X44640Y8203D02*
X45625Y8203D01*
X10118Y67007D02*
X12500Y67007D01*
X12500Y66875D01*
X12500Y67007D02*
X25625Y67007D01*
X25625Y66875D01*
X52500Y45039D02*
X69375Y45039D01*
X69375Y45000D01*
X34434Y45748D02*
X52500Y45748D01*
X36250Y45039D02*
X52500Y45039D01*
X52500Y45000D01*
X34434Y45039D02*
X36250Y45039D01*
X36250Y45000D01*
X18184Y30157D02*
X52500Y30157D01*
X128363Y25196D02*
X128253Y25496D01*
X130546Y13149D02*
X137500Y13149D01*
G54D28*
X10118Y66875D02*
X12500Y66875D01*
X101476Y88976D02*
X100875Y88375D01*
X100875Y82598D02*
X100875Y82125D01*
X106250Y34625D02*
X87875Y34625D01*
X87381Y35118D02*
X80625Y41875D01*
X180937Y87347D02*
X180937Y67812D01*
X181250Y67500D02*
X200937Y67500D01*
X181033Y67716D02*
X180937Y67812D01*
X200937Y87347D02*
X200937Y67500D01*
X218750Y67500D01*
X218750Y14304D02*
X218750Y9375D01*
X1875Y9606D02*
X1875Y37500D01*
X2972Y37500D02*
X7500Y37500D01*
X12500Y37952D02*
X12500Y37500D01*
X12027Y37500D02*
X7500Y37500D01*
X25625Y68203D02*
X25625Y66875D01*
X180937Y96402D02*
X180937Y97500D01*
X200937Y96402D02*
X200937Y91875D01*
X167500Y2500D02*
X211875Y2500D01*
X211894Y2519D02*
X218750Y9375D01*
X167500Y2500D02*
X8750Y2500D01*
X8021Y3228D02*
X1875Y9375D01*
X45625Y8203D02*
X45625Y3125D01*
X12500Y66875D02*
X25625Y66875D01*
X69375Y45000D02*
X52500Y45000D01*
X52500Y45748D02*
X52500Y52500D01*
X52500Y45000D02*
X36250Y45000D01*
X52500Y30157D02*
X52500Y30000D01*
X106250Y34625D02*
X119125Y34625D01*
X128253Y25496D02*
X137500Y16250D01*
X137500Y13149D02*
X137500Y12500D01*
X5000Y66875D02*
X10118Y66875D01*
X104375Y91875D02*
X101476Y88976D01*
X100875Y88375D02*
X100875Y82598D01*
X87875Y34625D02*
X87381Y35118D01*
X180937Y91875D02*
X180937Y87347D01*
X181250Y67500D02*
X181033Y67716D01*
X200937Y91875D02*
X200937Y87347D01*
X218750Y67500D02*
X218750Y14304D01*
X1875Y9375D02*
X1875Y9606D01*
X1875Y37500D02*
X2972Y37500D01*
X12500Y66875D02*
X12500Y37952D01*
X12500Y37500D02*
X12027Y37500D01*
X25625Y73125D02*
X25625Y68203D01*
X180937Y91875D02*
X180937Y96402D01*
X200937Y97500D02*
X200937Y96402D01*
X211875Y2500D02*
X211894Y2519D01*
X8750Y2500D02*
X8021Y3228D01*
X45625Y13125D02*
X45625Y8203D01*
X52500Y45000D02*
X52500Y45748D01*
X52500Y45000D02*
X52500Y30157D01*
X119125Y34625D02*
X128253Y25496D01*
X137500Y16250D02*
X137500Y13149D01*
X133125Y55625D02*
X133125Y34375D01*
X133125Y55625D02*
X115625Y73125D01*
X146875Y20625D02*
X133125Y34375D01*
X174375Y20625D02*
X146875Y20625D01*
X174375Y20625D02*
X175312Y19687D01*
X175312Y15625D01*
X130000Y53125D02*
X130000Y32500D01*
X179218Y12500D02*
X179218Y19843D01*
X151875Y10625D02*
X130000Y32500D01*
X115000Y68125D02*
X130000Y53125D01*
X115000Y68125D02*
X110625Y68125D01*
X105625Y73125D01*
X151875Y10625D02*
X177343Y10625D01*
X179218Y12500D01*
X179218Y19843D02*
X180000Y20625D01*
X190000Y20625D01*
X190937Y19687D01*
X190937Y15625D01*
X126875Y46250D02*
X103125Y46250D01*
X113750Y65625D02*
X103125Y65625D01*
X95625Y73125D01*
X113750Y65625D02*
X126875Y52500D01*
X126875Y46250D01*
X126875Y31250D01*
X150000Y8125D01*
X181250Y8125D01*
X183125Y10000D01*
X183125Y15625D01*
X55625Y13125D02*
X55625Y6250D01*
X56250Y5625D02*
X55625Y6250D01*
X205000Y5625D02*
X56250Y5625D01*
X205000Y5625D02*
X206562Y7187D01*
X206562Y15625D01*
X86250Y45000D02*
X86250Y41875D01*
X90000Y38125D01*
X103125Y38125D01*
X104375Y39375D01*
X108750Y39375D01*
X25000Y56875D02*
X35625Y67500D01*
X35625Y73125D01*
X25000Y56875D02*
X25000Y43125D01*
X136875Y57500D02*
X136875Y36250D01*
X136875Y57500D02*
X125625Y68750D01*
X150000Y23125D02*
X136875Y36250D01*
X214375Y20000D02*
X214375Y15625D01*
X211250Y23125D02*
X214375Y20000D01*
X211250Y23125D02*
X150000Y23125D01*
X125625Y68750D02*
X125625Y73125D01*
X66875Y40625D02*
X75625Y31875D01*
X75625Y13125D01*
X60625Y63125D02*
X60625Y90500D01*
X41125Y90500D01*
X35625Y85000D01*
X100000Y99375D02*
X107500Y99375D01*
X110625Y96250D01*
X70625Y61875D02*
X70625Y80000D01*
X136000Y104000D02*
X132500Y107500D01*
X87500Y107500D01*
X72500Y102500D02*
X77500Y107500D01*
X87500Y99375D02*
X87500Y107500D01*
X77500Y107500D01*
X100000Y99375D02*
X89375Y88750D01*
X50625Y63125D02*
X50625Y58750D01*
X52500Y56875D01*
X65625Y56875D01*
X70625Y61875D02*
X65625Y56875D01*
X70625Y80000D02*
X79375Y88750D01*
X89375Y88750D01*
X50625Y63125D02*
X50625Y80000D01*
X45625Y85000D01*
X126250Y83750D02*
X112500Y83750D01*
X110625Y85625D01*
X110625Y96250D01*
X135000Y81250D02*
X131875Y78125D01*
X135000Y81250D02*
X135000Y92500D01*
X131875Y78125D02*
X90625Y78125D01*
X85625Y73125D01*
X98375Y55000D02*
X97750Y55000D01*
X87500Y55000D02*
X93875Y55000D01*
X87500Y55000D02*
X87500Y54500D01*
X98375Y55000D02*
X104375Y55000D01*
X111875Y62500D01*
X93875Y41375D02*
X93875Y55000D01*
X98375Y55000D01*
X76250Y40000D02*
X88125Y28125D01*
X76250Y56875D02*
X76250Y40000D01*
X76250Y56875D02*
X80000Y60625D01*
X80000Y64375D01*
X125000Y24000D02*
X120875Y28125D01*
X88125Y28125D01*
X151250Y107500D02*
X148125Y110625D01*
X15625Y73125D02*
X15625Y97500D01*
X151250Y107500D02*
X151250Y85375D01*
X133125Y67250D01*
X28750Y110625D02*
X15625Y97500D01*
X28750Y110625D02*
X148125Y110625D01*
X143500Y100000D02*
X117500Y100000D01*
X15625Y51875D02*
X30625Y66875D01*
X30625Y94375D01*
X97875Y103500D02*
X103500Y103500D01*
X52500Y95000D02*
X52500Y98750D01*
X35000Y98750D01*
X52500Y98750D02*
X65625Y98750D01*
X80625Y98750D02*
X66625Y98750D01*
X80625Y98750D02*
X83750Y95625D01*
X90000Y95625D01*
X97875Y103500D01*
X35000Y106250D02*
X35000Y98750D01*
X30625Y94375D02*
X35000Y98750D01*
X15625Y51875D02*
X15625Y38125D01*
X45625Y73125D02*
X31875Y59375D01*
X31875Y38125D01*
X9375Y8125D02*
X7500Y10000D01*
X7500Y17500D01*
X45000Y40175D02*
X42949Y38125D01*
X31875Y38125D01*
X15625Y38125D01*
X7500Y17500D02*
X10625Y20625D01*
X15625Y20625D01*
X15625Y38125D02*
X15625Y20625D01*
X21250Y20625D01*
X49375Y20625D01*
X50625Y19375D01*
X56250Y19375D01*
X66625Y107000D02*
X66625Y98750D01*
X65625Y85000D02*
X65625Y98750D01*
X66625Y98750D01*
X103500Y103500D02*
X114000Y103500D01*
X117500Y100000D01*
X117500Y86875D02*
X117500Y100000D01*
X23125Y25625D02*
X47500Y25625D01*
X61875Y25625D01*
X65625Y21875D01*
X65625Y13125D01*
X119625Y24000D02*
X88500Y24000D01*
X75000Y65000D02*
X75000Y60000D01*
X75000Y65000D02*
X78125Y68125D01*
X87500Y68125D01*
X89375Y68125D02*
X97875Y59625D01*
X101625Y59625D01*
X87500Y60500D02*
X87500Y68125D01*
X89375Y68125D01*
X73750Y58750D02*
X73750Y38750D01*
X73750Y58750D02*
X75000Y60000D01*
X73750Y38750D02*
X88500Y24000D01*
X130000Y88125D02*
X130000Y92500D01*
X129000Y92500D01*
X141000Y92500D02*
X145000Y92500D01*
X147500Y95000D01*
X147500Y102500D01*
X143000Y107000D01*
X140000Y107000D01*
G54D31*
X190937Y91875D02*
X190937Y107812D01*
G54D33*
X104375Y91875D03*
X100875Y82125D03*
X106250Y34625D03*
X80625Y41875D03*
X167500Y2500D03*
X69375Y45000D03*
X103125Y46250D03*
X86250Y45000D03*
X108750Y39375D03*
X25000Y43125D03*
X66875Y40625D03*
X60625Y90500D03*
X100000Y99375D03*
X126250Y83750D03*
X72500Y102500D03*
X87500Y99375D03*
X136000Y104000D03*
X93875Y41375D03*
X98375Y55000D03*
X111875Y62500D03*
X125000Y24000D03*
X80000Y64375D03*
X133125Y67250D03*
X143500Y100000D03*
X117500Y86875D03*
X45000Y40175D03*
X56250Y19375D03*
X9375Y8125D03*
X35000Y106250D03*
X52500Y95000D03*
X66625Y107000D03*
X21250Y20625D03*
X103500Y103500D03*
X23125Y25625D03*
X47500Y25625D03*
X119625Y24000D03*
X101625Y59625D03*
X130000Y88125D03*
X140000Y107000D03*
G54D35*
X214375Y15625D03*
X206562Y15625D03*
X198750Y15625D03*
X190937Y15625D03*
X183125Y15625D03*
X175312Y15625D03*
X167500Y15625D03*
X159687Y15625D03*
X190937Y91875D03*
X180937Y91875D03*
X200937Y91875D03*
X7500Y17500D03*
X7500Y37500D03*
X7500Y27500D03*
G54D36*
X15625Y73125D03*
X25625Y73125D03*
X35625Y73125D03*
X45625Y73125D03*
X55625Y73125D03*
X65625Y73125D03*
X75625Y73125D03*
X85625Y73125D03*
X95625Y73125D03*
X105625Y73125D03*
X115625Y73125D03*
X125625Y73125D03*
X125625Y13125D03*
X115625Y13125D03*
X105625Y13125D03*
X95625Y13125D03*
X85625Y13125D03*
X75625Y13125D03*
X65625Y13125D03*
X55625Y13125D03*
X45625Y13125D03*
X35625Y13125D03*
X25625Y13125D03*
X15625Y13125D03*
X60625Y63125D03*
X50625Y63125D03*
G54D65*
X129000Y92500D03*
X135000Y92500D03*
X141000Y92500D03*
G54D67*
X87500Y60500D03*
X87500Y54500D03*
G54D98*
X190937Y107812D03*
X5000Y46875D03*
X5000Y66875D03*
G54D99*
X65625Y85000D03*
X55625Y85000D03*
X45625Y85000D03*
X35625Y85000D03*
M02*
