%FSLAX35Y35*%
%MOIN*%
%IN16=KupferobenL2(X.Top)*%
%ADD10C,0.00591*%
%ADD11C,0.00004*%
%ADD12C,0.00077*%
%ADD13C,0.00094*%
%ADD14C,0.00154*%
%ADD15C,0.00192*%
%ADD16C,0.00197*%
%ADD17C,0.00200*%
%ADD18C,0.00240*%
%ADD19C,0.00300*%
%ADD20C,0.00394*%
%ADD21C,0.00400*%
%ADD22C,0.00500*%
%ADD23C,0.00600*%
%ADD24C,0.00700*%
%ADD25C,0.00787*%
%ADD26C,0.00800*%
%ADD27C,0.01000*%
%ADD28C,0.01181*%
%ADD29C,0.01200*%
%ADD30C,0.01575*%
%ADD31C,0.01969*%
%ADD32C,0.02362*%
%ADD33C,0.03150*%
%ADD34C,0.05000*%
%ADD35C,0.05118*%
%ADD36C,0.05906*%
%ADD37C,0.07087*%
%ADD38C,0.09843*%
%AMR_39*21,1,0.00591,0.01181,0,0,0.000*%
%ADD39R_39*%
%AMR_40*21,1,0.00787,0.04724,0,0,0.000*%
%ADD40R_40*%
%AMR_41*21,1,0.00788,0.03150,0,0,0.000*%
%ADD41R_41*%
%AMR_42*21,1,0.01000,0.02000,0,0,0.000*%
%ADD42R_42*%
%AMR_43*21,1,0.01181,0.01181,0,0,0.000*%
%ADD43R_43*%
%AMR_44*21,1,0.01250,0.04375,0,0,0.000*%
%ADD44R_44*%
%AMR_45*21,1,0.01400,0.05600,0,0,0.000*%
%ADD45R_45*%
%AMR_46*21,1,0.01574,0.03150,0,0,0.000*%
%ADD46R_46*%
%AMR_47*21,1,0.01574,0.04724,0,0,0.000*%
%ADD47R_47*%
%AMR_48*21,1,0.01800,0.02300,0,0,0.000*%
%ADD48R_48*%
%AMR_49*21,1,0.01890,0.01417,0,0,180.000*%
%ADD49R_49*%
%AMR_50*21,1,0.01969,0.02559,0,0,0.000*%
%ADD50R_50*%
%AMR_51*21,1,0.02000,0.02000,0,0,0.000*%
%ADD51R_51*%
%AMR_52*21,1,0.02165,0.04724,0,0,0.000*%
%ADD52R_52*%
%AMR_53*21,1,0.02200,0.05000,0,0,45.000*%
%ADD53R_53*%
%AMR_54*21,1,0.02362,0.01969,0,0,90.000*%
%ADD54R_54*%
%AMR_55*21,1,0.02362,0.01969,0,0,180.000*%
%ADD55R_55*%
%AMR_56*21,1,0.02559,0.05906,0,0,0.000*%
%ADD56R_56*%
%AMR_57*21,1,0.02953,0.05709,0,0,0.000*%
%ADD57R_57*%
%AMR_58*21,1,0.02953,0.06693,0,0,0.000*%
%ADD58R_58*%
%AMR_59*21,1,0.03150,0.00788,0,0,0.000*%
%ADD59R_59*%
%AMR_60*21,1,0.03150,0.01574,0,0,0.000*%
%ADD60R_60*%
%AMR_61*21,1,0.03750,0.01875,0,0,0.000*%
%ADD61R_61*%
%AMR_62*21,1,0.03839,0.01535,0,0,0.000*%
%ADD62R_62*%
%AMR_63*21,1,0.03937,0.05512,0,0,0.000*%
%ADD63R_63*%
%AMR_64*21,1,0.04000,0.06000,0,0,0.000*%
%ADD64R_64*%
%AMR_65*21,1,0.04600,0.06300,0,0,0.000*%
%ADD65R_65*%
%AMR_66*21,1,0.04600,0.06300,0,0,90.000*%
%ADD66R_66*%
%AMR_67*21,1,0.04600,0.06300,0,0,270.000*%
%ADD67R_67*%
%AMR_68*21,1,0.04724,0.01574,0,0,0.000*%
%ADD68R_68*%
%AMR_69*21,1,0.04724,0.04724,0,0,0.000*%
%ADD69R_69*%
%AMR_70*21,1,0.05000,0.02200,0,0,45.000*%
%ADD70R_70*%
%AMR_71*21,1,0.05000,0.10000,0,0,90.000*%
%ADD71R_71*%
%AMR_72*21,1,0.05118,0.01575,0,0,0.000*%
%ADD72R_72*%
%AMR_73*21,1,0.05118,0.05906,0,0,0.000*%
%ADD73R_73*%
%AMR_74*21,1,0.05118,0.05906,0,0,45.000*%
%ADD74R_74*%
%AMR_75*21,1,0.05118,0.05906,0,0,90.000*%
%ADD75R_75*%
%AMR_76*21,1,0.05118,0.05906,0,0,270.000*%
%ADD76R_76*%
%AMR_77*21,1,0.05118,0.05906,0,0,315.000*%
%ADD77R_77*%
%AMR_78*21,1,0.05118,0.06299,0,0,0.000*%
%ADD78R_78*%
%AMR_79*21,1,0.05118,0.06299,0,0,90.000*%
%ADD79R_79*%
%AMR_80*21,1,0.05118,0.06299,0,0,180.000*%
%ADD80R_80*%
%AMR_81*21,1,0.05118,0.06299,0,0,270.000*%
%ADD81R_81*%
%AMR_82*21,1,0.05315,0.02362,0,0,0.000*%
%ADD82R_82*%
%AMR_83*21,1,0.05512,0.02795,0,0,90.000*%
%ADD83R_83*%
%AMR_84*21,1,0.05600,0.01400,0,0,0.000*%
%ADD84R_84*%
%AMR_85*21,1,0.05709,0.02953,0,0,0.000*%
%ADD85R_85*%
%AMR_86*21,1,0.06299,0.05512,0,0,0.000*%
%ADD86R_86*%
%AMR_87*21,1,0.06299,0.05512,0,0,180.000*%
%ADD87R_87*%
%AMR_88*21,1,0.06299,0.07087,0,0,180.000*%
%ADD88R_88*%
%AMR_89*21,1,0.06299,0.07087,0,0,270.000*%
%ADD89R_89*%
%AMR_90*21,1,0.06693,0.02953,0,0,0.000*%
%ADD90R_90*%
%AMR_91*21,1,0.07087,0.14173,0,0,90.000*%
%ADD91R_91*%
%AMR_92*21,1,0.07200,0.00600,0,0,0.000*%
%ADD92R_92*%
%AMR_93*21,1,0.07874,0.03938,0,0,0.000*%
%ADD93R_93*%
%AMR_94*21,1,0.07874,0.06299,0,0,90.000*%
%ADD94R_94*%
%AMR_95*21,1,0.10625,0.01875,0,0,0.000*%
%ADD95R_95*%
%AMR_96*21,1,0.11875,0.19685,0,0,0.000*%
%ADD96R_96*%
%AMR_97*21,1,0.19685,0.19685,0,0,0.000*%
%ADD97R_97*%
%AMOCT_98*4,1,8,0.031496,0.015748,0.015748,0.031496,-0.015748,0.031496,-0.031496,0.015748,-0.031496,-0.015748,-0.015748,-0.031496,0.015748,-0.031496,0.031496,-0.015748,0.031496,0.015748,0.000*%
%ADD98OCT_98*%
%ADD99C,0.05906*%
%AMRR_100*21,1,0.01969,0.01102,0,0,0.000*21,1,0.01693,0.01378,0,0,0.000*1,1,0.00276,0.00846,0.00551*1,1,0.00276,-0.00846,-0.00551*1,1,0.00276,0.00846,-0.00551*1,1,0.00276,-0.00846,0.00551*%
%ADD100RR_100*%
G54D28*
X104375Y91875D02*
X104375Y91250D01*
X63611Y32836D02*
X67725Y36950D01*
X69987Y36950D01*
X71312Y35625D01*
X72196Y34741D01*
X72196Y32514D01*
X68065Y28382D02*
X72196Y32514D01*
X89738Y54509D02*
X78864Y43635D01*
X74801Y39573D01*
X71312Y36084D02*
X71312Y35625D01*
X89738Y54509D02*
X94178Y58949D01*
X87500Y107500D02*
X88750Y106250D01*
X88750Y103602D01*
X87500Y107500D02*
X78750Y107500D01*
X100875Y82125D02*
X96875Y78125D01*
X90625Y78125D01*
X80625Y41875D02*
X80624Y41875D01*
X78864Y43635D01*
X24375Y83006D02*
X24375Y74375D01*
X25625Y73125D01*
X125625Y78750D02*
X122125Y82250D01*
X122125Y87875D01*
X5000Y66875D02*
X5000Y68750D01*
X6250Y69375D01*
X122125Y87875D02*
X117500Y92500D01*
X121299Y92500D01*
X121358Y92440D01*
X117500Y92500D02*
X117500Y94500D01*
X118000Y95000D01*
X121358Y95000D01*
X117500Y92500D02*
X111240Y92500D01*
X110000Y91884D01*
X121358Y95000D02*
X125000Y95000D01*
X121850Y105000D02*
X117500Y105000D01*
X117000Y104500D01*
X117000Y103000D01*
X117500Y102500D01*
X121791Y102500D01*
X116875Y53759D02*
X114709Y53759D01*
X109330Y53759D02*
X109990Y53169D01*
X104375Y41875D02*
X110000Y47500D01*
X113385Y47500D01*
X138750Y43129D02*
X138750Y74758D01*
X133125Y78750D02*
X125625Y78750D01*
X69375Y79375D02*
X71250Y81250D01*
X71250Y83134D01*
X76875Y83134D02*
X71250Y83134D01*
X71250Y94375D02*
X71250Y83134D01*
X138750Y43129D02*
X141250Y43129D01*
X144375Y74758D02*
X138750Y74758D01*
X137116Y74758D02*
X133125Y78750D01*
X138750Y74758D02*
X137116Y74758D01*
X114709Y46800D02*
X114709Y53759D01*
X109330Y53759D01*
X121791Y102500D02*
X121791Y101333D01*
X121791Y102500D02*
X121850Y102440D01*
X121791Y101333D02*
X125000Y98125D01*
X125000Y95000D01*
X58750Y108275D02*
X58750Y103838D01*
X55964Y96161D02*
X58750Y96161D01*
X58750Y93750D01*
X55964Y101279D02*
X58750Y101279D01*
X58750Y96161D01*
X64035Y103838D02*
X58750Y103838D01*
X58750Y101279D01*
X71250Y94375D02*
X77500Y100625D01*
X77500Y106250D01*
X78750Y107500D01*
X106250Y34625D02*
X104375Y36500D01*
X104375Y41875D01*
X93928Y60633D02*
X90625Y63936D01*
X90625Y78125D01*
X63611Y32836D02*
X58437Y27662D01*
X63611Y32836D02*
X63611Y32836D01*
X58437Y27662D02*
X55820Y27662D01*
X45625Y17467D01*
X45625Y13125D01*
X55625Y85000D02*
X55625Y90625D01*
X58750Y93750D01*
X55625Y79375D02*
X69375Y79375D01*
X85634Y83125D02*
X85634Y79365D01*
X86875Y78125D01*
X90625Y78125D01*
X6594Y108125D02*
X6594Y112219D01*
X8125Y113750D01*
X26250Y113750D01*
X27500Y111761D01*
X46875Y111761D01*
X55263Y111761D02*
X58750Y108275D01*
X46875Y103740D02*
X46875Y111761D01*
X55263Y111761D01*
X167490Y2500D02*
X167490Y7500D01*
X167490Y2500D02*
X167500Y2500D01*
X167500Y7500D02*
X167500Y15625D01*
X167500Y7500D02*
X167490Y7500D01*
X55625Y79375D02*
X55625Y85000D01*
X55625Y79375D02*
X31875Y79375D01*
X25625Y73125D01*
X25625Y61250D01*
X26136Y61250D01*
X110000Y91875D02*
X104375Y91875D01*
X110000Y91875D02*
X110000Y91884D01*
X76875Y83125D02*
X85634Y83125D01*
X76875Y83125D02*
X76875Y83134D01*
X69375Y45000D02*
X74801Y39573D01*
X71312Y36084D01*
X96419Y35063D02*
X103108Y28375D01*
X115250Y28375D01*
X122250Y35375D02*
X115250Y28375D01*
X122250Y46625D02*
X122250Y35375D01*
X122250Y46625D02*
X125000Y49375D01*
X125000Y65625D02*
X125000Y49375D01*
X118750Y70000D02*
X115625Y73125D01*
X120625Y70000D02*
X118750Y70000D01*
X120625Y70000D02*
X125000Y65625D01*
X98646Y37290D02*
X104687Y31250D01*
X114375Y31250D01*
X111875Y66875D02*
X105625Y73125D01*
X114375Y31250D02*
X120000Y36875D01*
X120000Y48125D02*
X120000Y36875D01*
X120000Y48125D02*
X122500Y50625D01*
X122500Y63750D01*
X119375Y66875D02*
X122500Y63750D01*
X119375Y66875D02*
X111875Y66875D01*
X99295Y46250D02*
X103125Y46250D01*
X99295Y46250D02*
X98646Y45601D01*
X40625Y27069D02*
X52500Y38944D01*
X40625Y27069D02*
X40625Y8750D01*
X42500Y6875D02*
X40625Y8750D01*
X42500Y6875D02*
X53750Y6875D01*
X55625Y8750D01*
X55625Y13125D01*
X59156Y45601D02*
X57883Y46875D01*
X55625Y46875D01*
X52500Y43750D01*
X52500Y38944D01*
X114709Y39320D02*
X108750Y39320D01*
X86250Y45000D02*
X88125Y46875D01*
X88125Y48442D01*
X91965Y52282D01*
X108750Y39320D02*
X108750Y39375D01*
X65838Y52282D02*
X62495Y55625D01*
X51250Y55625D01*
X41875Y65000D01*
X38125Y65000D01*
X35625Y67500D01*
X35625Y73125D01*
X35625Y29365D02*
X33759Y29365D01*
X25000Y38125D01*
X25000Y40000D01*
X31936Y40000D02*
X25000Y40000D01*
X31936Y40000D02*
X32111Y40175D01*
X25000Y40000D02*
X25000Y43125D01*
X21250Y36875D02*
X21250Y45625D01*
X21250Y36875D02*
X30625Y27500D01*
X30625Y9375D01*
X28125Y6875D02*
X30625Y9375D01*
X21250Y45625D02*
X23125Y47500D01*
X31875Y47500D02*
X23125Y47500D01*
X46250Y46250D02*
X50625Y50625D01*
X58587Y50625D01*
X61383Y47828D01*
X31875Y47500D02*
X33125Y46250D01*
X46250Y46250D01*
X28125Y6875D02*
X21875Y6875D01*
X15625Y13125D01*
X18750Y35625D02*
X18750Y46875D01*
X18750Y35625D02*
X27500Y26875D01*
X33125Y50000D02*
X21875Y50000D01*
X18750Y46875D02*
X21875Y50000D01*
X45000Y48750D02*
X49375Y53125D01*
X60541Y53125D01*
X63611Y50055D01*
X33125Y50000D02*
X34375Y48750D01*
X45000Y48750D01*
X25625Y13125D02*
X25625Y20000D01*
X27500Y21875D01*
X27500Y26875D01*
X101404Y25625D02*
X94192Y32836D01*
X116250Y25625D02*
X101404Y25625D01*
X116250Y25625D02*
X124500Y33875D01*
X124500Y44500D01*
X127500Y47500D01*
X127500Y66875D01*
X125625Y68750D01*
X125625Y73125D01*
X116875Y7500D02*
X115625Y8750D01*
X115625Y13125D01*
X97495Y20625D02*
X89738Y28382D01*
X97495Y20625D02*
X108125Y20625D01*
X115625Y13125D01*
X116875Y7500D02*
X140000Y7500D01*
X141250Y8750D01*
X141250Y15620D01*
X144375Y59990D02*
X144375Y66491D01*
X61383Y35063D02*
X62633Y36383D01*
X66875Y40625D01*
X146875Y9375D02*
X142500Y5000D01*
X77500Y5000D01*
X75625Y6875D01*
X75625Y13125D01*
X146875Y9375D02*
X146875Y52509D01*
X144375Y52509D01*
X128149Y107559D02*
X129434Y107559D01*
X131250Y109375D01*
X131250Y111250D01*
X94375Y111250D01*
X94375Y103489D02*
X94375Y111250D01*
X94375Y103489D02*
X94458Y103405D01*
X60625Y63125D02*
X63904Y63125D01*
X70292Y56736D01*
X142500Y111250D02*
X131250Y111250D01*
X142500Y111250D02*
X144375Y109375D01*
X144375Y106250D01*
X138759Y100634D01*
X138759Y97559D01*
X128641Y97559D02*
X138759Y97559D01*
X138759Y92500D01*
X64035Y98720D02*
X66845Y98720D01*
X69375Y101250D01*
X69375Y105000D02*
X69375Y101250D01*
X69375Y105000D02*
X75625Y111250D01*
X94375Y111250D01*
X64035Y98720D02*
X61845Y98720D01*
X61250Y98125D01*
X61250Y90500D01*
X60625Y90500D01*
X134000Y84375D02*
X138759Y84375D01*
X94458Y97500D02*
X98125Y97500D01*
X100000Y99375D01*
X128641Y95000D02*
X132500Y95000D01*
X134000Y93500D01*
X134000Y84375D01*
X64450Y58125D02*
X68065Y54509D01*
X64450Y58125D02*
X55625Y58125D01*
X50625Y63125D01*
X128149Y102440D02*
X134440Y102440D01*
X136000Y104000D01*
X64035Y96161D02*
X68661Y96161D01*
X72500Y100000D01*
X72500Y102500D01*
X94458Y97500D02*
X89375Y97500D01*
X87500Y99375D01*
X126250Y83750D02*
X133375Y83750D01*
X134000Y84375D01*
X85284Y58964D02*
X87500Y61179D01*
X87500Y66875D01*
X85625Y68750D01*
X85625Y73125D01*
X83057Y21701D02*
X85625Y19133D01*
X85625Y13125D01*
X85284Y23928D02*
X95625Y13587D01*
X95625Y13125D01*
X99450Y23125D02*
X91965Y30609D01*
X111250Y23125D02*
X99450Y23125D01*
X111250Y23125D02*
X115875Y18500D01*
X120250Y18500D01*
X125625Y13125D01*
X95541Y18125D02*
X87511Y26155D01*
X95541Y18125D02*
X100625Y18125D01*
X105625Y13125D01*
X87511Y26155D02*
X87511Y26488D01*
X111875Y62500D02*
X116875Y62500D01*
X116875Y61240D01*
X98375Y55000D02*
X102509Y55000D01*
X102509Y53169D01*
X84375Y29291D02*
X87511Y26155D01*
X87511Y26155D01*
X84375Y29291D02*
X84375Y31875D01*
X93875Y41375D01*
X131884Y41240D02*
X136875Y36250D01*
X131884Y41240D02*
X130625Y41240D01*
X136875Y28750D02*
X136875Y36250D01*
X131884Y41240D02*
X131884Y53759D01*
X133125Y53759D01*
X80000Y64375D02*
X75625Y68750D01*
X75625Y73125D01*
X132125Y24000D02*
X125000Y24000D01*
X132125Y24000D02*
X136875Y28750D01*
X83057Y61191D02*
X84375Y62509D01*
X84375Y64375D01*
X83750Y65000D01*
X80000Y65000D01*
X80000Y64375D01*
X74746Y61191D02*
X74746Y60878D01*
X69375Y66562D02*
X74746Y61191D01*
X69375Y66562D02*
X69375Y69375D01*
X65625Y73125D01*
X72519Y58964D02*
X63358Y68125D01*
X60625Y68125D01*
X55625Y73125D01*
X35625Y21884D02*
X35625Y13125D01*
X9375Y99124D02*
X19625Y99124D01*
X20634Y98115D01*
X20634Y93243D01*
X20634Y83006D02*
X15000Y83006D01*
X14375Y83006D01*
X11619Y83006D01*
X9375Y83375D01*
X21250Y87500D02*
X28125Y87500D01*
X28125Y83016D02*
X28115Y83006D01*
X28115Y87490D01*
X28125Y87500D01*
X15625Y82381D02*
X15000Y83006D01*
X15625Y73125D02*
X15625Y81756D01*
X14375Y83006D01*
X5000Y46875D02*
X5000Y45625D01*
X6250Y44375D01*
X133125Y61240D02*
X133125Y67250D01*
X20634Y83006D02*
X20634Y86884D01*
X21250Y87500D01*
X36375Y94500D02*
X29375Y87500D01*
X36375Y94500D02*
X36875Y94500D01*
X28125Y87500D02*
X29375Y87500D01*
X5000Y46875D02*
X15113Y56988D01*
X15113Y61250D01*
X15625Y73125D02*
X15625Y61250D01*
X15113Y61250D01*
X83041Y97500D02*
X83041Y94375D01*
X99217Y65922D02*
X99467Y66342D01*
X100625Y67500D01*
X146240Y92500D02*
X146240Y84375D01*
X93115Y83125D02*
X96250Y83125D01*
X100000Y86875D01*
X108750Y86875D01*
X100000Y93750D02*
X100000Y86875D01*
X100625Y67500D02*
X100625Y75625D01*
X9375Y8125D02*
X15000Y2500D01*
X144375Y2500D02*
X15000Y2500D01*
X66500Y106500D02*
X66625Y107000D01*
X107559Y107559D02*
X103500Y103500D01*
X121358Y97559D02*
X121299Y97500D01*
X121850Y107559D02*
X107559Y107559D01*
X76875Y90615D02*
X80634Y94375D01*
X83041Y94375D01*
X83041Y91594D01*
X100625Y75625D02*
X108750Y83750D01*
X108750Y86875D01*
X117500Y86875D01*
X100000Y93750D02*
X105615Y99365D01*
X110000Y99365D01*
X115634Y99365D01*
X117500Y97500D01*
X121299Y97500D01*
X91875Y84365D02*
X91875Y87500D01*
X91875Y84365D02*
X93115Y83125D01*
X91875Y87500D02*
X85000Y94375D01*
X83041Y94375D01*
X93591Y45000D02*
X96419Y47828D01*
X78750Y31875D02*
X91875Y45000D01*
X93591Y45000D01*
X146240Y92500D02*
X146240Y97259D01*
X143500Y100000D01*
X39592Y40175D02*
X45000Y40175D01*
X64035Y101279D02*
X65654Y101279D01*
X66625Y102250D01*
X66625Y107000D01*
X61109Y22373D02*
X66510Y22373D01*
X70292Y26155D01*
X65838Y30609D02*
X63125Y27896D01*
X63125Y26250D01*
X61109Y24234D01*
X61109Y22373D01*
X56250Y19375D02*
X59248Y22373D01*
X61109Y22373D01*
X15000Y22509D02*
X16884Y20625D01*
X21250Y20625D01*
X55964Y103838D02*
X53838Y103838D01*
X52500Y102500D01*
X52500Y98750D01*
X55935Y98750D02*
X52500Y98750D01*
X55935Y98750D02*
X55964Y98720D01*
X52500Y98750D02*
X52500Y95000D01*
X46875Y95000D01*
X46875Y96259D01*
X28115Y100123D02*
X28115Y93243D01*
X36636Y100738D02*
X35000Y100738D01*
X36636Y100738D02*
X36875Y100500D01*
X35000Y106250D02*
X35000Y100738D01*
X27500Y100738D01*
X35000Y100500D02*
X36875Y100500D01*
X35000Y100500D02*
X35000Y100738D01*
X19375Y108125D02*
X24375Y103125D01*
X19375Y108125D02*
X18405Y108125D01*
X24375Y103125D02*
X27500Y103125D01*
X27500Y100738D01*
X144375Y2500D02*
X149375Y7500D01*
X159687Y7500D01*
X159687Y15625D01*
X159687Y7500D02*
X160009Y7500D01*
X159687Y7500D02*
X160009Y7500D01*
X70292Y26155D02*
X76011Y31875D01*
X78750Y31875D01*
X7500Y27500D02*
X9990Y29990D01*
X15000Y29990D01*
X59156Y37290D02*
X47500Y25634D01*
X47500Y25625D01*
X23125Y25625D02*
X18759Y29990D01*
X15000Y29990D01*
X129384Y33759D02*
X119625Y24000D01*
X129384Y33759D02*
X130625Y33759D01*
X101625Y59750D02*
X103705Y61830D01*
X101625Y59750D02*
X101625Y59625D01*
X103705Y61830D02*
X106250Y61830D01*
X128641Y92440D02*
X130000Y91082D01*
X130000Y88125D01*
X128149Y105000D02*
X131875Y105000D01*
X134375Y107500D01*
X140000Y107500D01*
X140000Y107000D01*
G54D33*
X104375Y91875D03*
X100875Y82125D03*
X106250Y34625D03*
X80625Y41875D03*
X167500Y2500D03*
X69375Y45000D03*
X103125Y46250D03*
X86250Y45000D03*
X108750Y39375D03*
X25000Y43125D03*
X66875Y40625D03*
X60625Y90500D03*
X100000Y99375D03*
X126250Y83750D03*
X72500Y102500D03*
X87500Y99375D03*
X136000Y104000D03*
X93875Y41375D03*
X98375Y55000D03*
X111875Y62500D03*
X125000Y24000D03*
X80000Y64375D03*
X133125Y67250D03*
X143500Y100000D03*
X117500Y86875D03*
X45000Y40175D03*
X56250Y19375D03*
X9375Y8125D03*
X35000Y106250D03*
X52500Y95000D03*
X66625Y107000D03*
X21250Y20625D03*
X103500Y103500D03*
X23125Y25625D03*
X47500Y25625D03*
X119625Y24000D03*
X101625Y59625D03*
X130000Y88125D03*
X140000Y107000D03*
G54D35*
X214375Y15625D03*
X206562Y15625D03*
X198750Y15625D03*
X190937Y15625D03*
X183125Y15625D03*
X175312Y15625D03*
X167500Y15625D03*
X159687Y15625D03*
X190937Y91875D03*
X180937Y91875D03*
X200937Y91875D03*
X7500Y17500D03*
X7500Y37500D03*
X7500Y27500D03*
G54D36*
X15625Y73125D03*
X25625Y73125D03*
X35625Y73125D03*
X45625Y73125D03*
X55625Y73125D03*
X65625Y73125D03*
X75625Y73125D03*
X85625Y73125D03*
X95625Y73125D03*
X105625Y73125D03*
X115625Y73125D03*
X125625Y73125D03*
X125625Y13125D03*
X115625Y13125D03*
X105625Y13125D03*
X95625Y13125D03*
X85625Y13125D03*
X75625Y13125D03*
X65625Y13125D03*
X55625Y13125D03*
X45625Y13125D03*
X35625Y13125D03*
X25625Y13125D03*
X15625Y13125D03*
X60625Y63125D03*
X50625Y63125D03*
G54D49*
X121358Y97559D03*
X121358Y95000D03*
X121358Y92440D03*
X128641Y92440D03*
X128641Y95000D03*
X128641Y97559D03*
G54D52*
X20634Y83006D03*
X24375Y83006D03*
X28115Y83006D03*
X28115Y93243D03*
X20634Y93243D03*
G54D53*
X83057Y21701D03*
X85284Y23928D03*
X87511Y26155D03*
X89738Y28382D03*
X91965Y30609D03*
X94192Y32836D03*
X96419Y35063D03*
X98646Y37290D03*
X74746Y61191D03*
X72519Y58964D03*
X70292Y56736D03*
X68065Y54509D03*
X65838Y52282D03*
X63611Y50055D03*
X61383Y47828D03*
X59156Y45601D03*
G54D54*
X83041Y91594D03*
X83041Y97500D03*
X83041Y103405D03*
X94458Y103405D03*
X94458Y97500D03*
X94458Y91594D03*
G54D55*
X88750Y103602D03*
G54D63*
X106250Y61830D03*
X109990Y53169D03*
X102509Y53169D03*
G54D66*
X36875Y94500D03*
X36875Y100500D03*
G54D69*
X144375Y74758D03*
X144375Y66491D03*
G54D70*
X59156Y37290D03*
X61383Y35063D03*
X63611Y32836D03*
X65838Y30609D03*
X68065Y28382D03*
X70292Y26155D03*
X72519Y23928D03*
X74746Y21701D03*
X98646Y45601D03*
X96419Y47828D03*
X94192Y50055D03*
X91965Y52282D03*
X89738Y54509D03*
X87511Y56736D03*
X85284Y58964D03*
X83057Y61191D03*
G54D71*
X6250Y44375D03*
X6250Y69375D03*
G54D72*
X121850Y105000D03*
X128149Y102440D03*
X128149Y107559D03*
X128149Y105000D03*
X121850Y107559D03*
X121850Y102440D03*
G54D73*
X85634Y83125D03*
X93115Y83125D03*
X160009Y7500D03*
X167490Y7500D03*
G54D74*
X93928Y60633D03*
X99217Y65922D03*
G54D75*
X110000Y91884D03*
X110000Y99365D03*
X76875Y83134D03*
X76875Y90615D03*
X46875Y96259D03*
X46875Y103740D03*
G54D76*
X114709Y46800D03*
X114709Y39320D03*
X35625Y29365D03*
X35625Y21884D03*
G54D77*
X55820Y27662D03*
X61109Y22373D03*
G54D78*
X138759Y92500D03*
X146240Y92500D03*
X138759Y84375D03*
X146240Y84375D03*
G54D79*
X144375Y52509D03*
X144375Y59990D03*
X15000Y22509D03*
X15000Y29990D03*
G54D80*
X39592Y40175D03*
X32111Y40175D03*
G54D81*
X133125Y61240D03*
X133125Y53759D03*
X130625Y41240D03*
X130625Y33759D03*
X116875Y61240D03*
X116875Y53759D03*
G54D83*
X125000Y95000D03*
G54D86*
X6594Y108125D03*
G54D87*
X18405Y108125D03*
G54D88*
X26136Y61250D03*
X15113Y61250D03*
G54D89*
X27500Y111761D03*
X27500Y100738D03*
G54D91*
X9375Y83375D03*
X9375Y99124D03*
G54D94*
X141250Y15620D03*
X141250Y43129D03*
G54D98*
X190937Y107812D03*
X5000Y46875D03*
X5000Y66875D03*
G54D99*
X65625Y85000D03*
X55625Y85000D03*
X45625Y85000D03*
X35625Y85000D03*
G54D100*
X64035Y103838D03*
X64035Y101279D03*
X64035Y98720D03*
X64035Y96161D03*
X55964Y96161D03*
X55964Y98720D03*
X55964Y101279D03*
X55964Y103838D03*
M02*
