%FSLAX35Y35*%
%MOIN*%
%IN29=Bauteilnamenunten(extrainDatei:X.NamesBot)*%
%ADD10C,0.00591*%
%ADD11C,0.00004*%
%ADD12C,0.00200*%
%ADD13C,0.00240*%
%ADD14C,0.00300*%
%ADD15C,0.00384*%
%ADD16C,0.00400*%
%ADD17C,0.00413*%
%ADD18C,0.00535*%
%ADD19C,0.00600*%
%ADD20C,0.00748*%
%ADD21C,0.00768*%
%ADD22C,0.00787*%
%ADD23C,0.00800*%
%ADD24C,0.00886*%
%ADD25C,0.01024*%
%ADD26C,0.01181*%
%ADD27C,0.01575*%
%ADD28C,0.01969*%
%ADD29C,0.02362*%
%ADD30C,0.03150*%
%ADD31C,0.03536*%
%ADD32C,0.05000*%
%ADD33C,0.05906*%
%ADD34C,0.09843*%
%AMR_35*21,1,0.00600,0.07200,0,0,0.000*%
%ADD35R_35*%
%AMR_36*21,1,0.00788,0.03150,0,0,0.000*%
%ADD36R_36*%
%AMR_37*21,1,0.01181,0.00591,0,0,0.000*%
%ADD37R_37*%
%AMR_38*21,1,0.01181,0.01181,0,0,0.000*%
%ADD38R_38*%
%AMR_39*21,1,0.01250,0.04375,0,0,0.000*%
%ADD39R_39*%
%AMR_40*21,1,0.01400,0.05600,0,0,0.000*%
%ADD40R_40*%
%AMR_41*21,1,0.01574,0.04724,0,0,0.000*%
%ADD41R_41*%
%AMR_42*21,1,0.01969,0.05118,0,0,180.000*%
%ADD42R_42*%
%AMR_43*21,1,0.02300,0.01800,0,0,0.000*%
%ADD43R_43*%
%AMR_44*21,1,0.02362,0.05315,0,0,0.000*%
%ADD44R_44*%
%AMR_45*21,1,0.02756,0.11024,0,0,270.000*%
%ADD45R_45*%
%AMR_46*21,1,0.02953,0.05709,0,0,0.000*%
%ADD46R_46*%
%AMR_47*21,1,0.03150,0.00788,0,0,0.000*%
%ADD47R_47*%
%AMR_48*21,1,0.03750,0.01875,0,0,0.000*%
%ADD48R_48*%
%AMR_49*21,1,0.03750,0.13125,0,0,0.000*%
%ADD49R_49*%
%AMR_50*21,1,0.03937,0.05512,0,0,270.000*%
%ADD50R_50*%
%AMR_51*21,1,0.04600,0.05512,0,0,0.000*%
%ADD51R_51*%
%AMR_52*21,1,0.04724,0.01574,0,0,0.000*%
%ADD52R_52*%
%AMR_53*21,1,0.04724,0.04724,0,0,0.000*%
%ADD53R_53*%
%AMR_54*21,1,0.04724,0.04724,0,0,90.000*%
%ADD54R_54*%
%AMR_55*21,1,0.05118,0.01969,0,0,180.000*%
%ADD55R_55*%
%AMR_56*21,1,0.05118,0.05906,0,0,0.000*%
%ADD56R_56*%
%AMR_57*21,1,0.05118,0.05906,0,0,90.000*%
%ADD57R_57*%
%AMR_58*21,1,0.05118,0.05906,0,0,180.000*%
%ADD58R_58*%
%AMR_59*21,1,0.05118,0.06299,0,0,90.000*%
%ADD59R_59*%
%AMR_60*21,1,0.05118,0.06299,0,0,180.000*%
%ADD60R_60*%
%AMR_61*21,1,0.05118,0.06299,0,0,270.000*%
%ADD61R_61*%
%AMR_62*21,1,0.05512,0.05512,0,0,0.000*%
%ADD62R_62*%
%AMR_63*21,1,0.05512,0.05512,0,0,90.000*%
%ADD63R_63*%
%AMR_64*21,1,0.05512,0.05512,0,0,180.000*%
%ADD64R_64*%
%AMR_65*21,1,0.05512,0.05512,0,0,270.000*%
%ADD65R_65*%
%AMR_66*21,1,0.05600,0.01400,0,0,0.000*%
%ADD66R_66*%
%AMR_67*21,1,0.05709,0.02953,0,0,0.000*%
%ADD67R_67*%
%AMR_68*21,1,0.06299,0.06299,0,0,0.000*%
%ADD68R_68*%
%AMR_69*21,1,0.07087,0.07087,0,0,270.000*%
%ADD69R_69*%
%AMR_70*21,1,0.07087,0.11811,0,0,0.000*%
%ADD70R_70*%
%AMR_71*21,1,0.07874,0.06299,0,0,90.000*%
%ADD71R_71*%
%AMR_72*21,1,0.08661,0.04724,0,0,270.000*%
%ADD72R_72*%
%AMR_73*21,1,0.08661,0.08661,0,0,0.000*%
%ADD73R_73*%
%AMR_74*21,1,0.09843,0.19685,0,0,0.000*%
%ADD74R_74*%
%AMR_75*21,1,0.10000,0.01875,0,0,0.000*%
%ADD75R_75*%
%AMR_76*21,1,0.10625,0.01875,0,0,0.000*%
%ADD76R_76*%
%AMR_77*21,1,0.10625,0.19685,0,0,0.000*%
%ADD77R_77*%
%AMR_78*21,1,0.19685,0.09843,0,0,0.000*%
%ADD78R_78*%
%AMR_79*21,1,0.19685,0.19685,0,0,0.000*%
%ADD79R_79*%
%AMOCT_80*4,1,8,0.049213,0.024606,0.024606,0.049213,-0.024606,0.049213,-0.049213,0.024606,-0.049213,-0.024606,-0.024606,-0.049213,0.024606,-0.049213,0.049213,-0.024606,0.049213,0.024606,0.000*%
%ADD80OCT_80*%
G54D31*
X225231Y136481D03*
G36*
X237507Y129266D02*
X237310Y129777D01*
X236720Y129620D01*
X236838Y129266D01*
X236995Y128951D01*
X237153Y128714D01*
X237389Y128478D01*
X237664Y128321D01*
X237940Y128163D01*
X238255Y128124D01*
X238570Y128084D01*
X239239Y128163D01*
X239515Y128242D01*
X239751Y128399D01*
X240184Y128754D01*
X240460Y129266D01*
X240617Y129856D01*
X240696Y130486D01*
X240617Y131155D01*
X240420Y131707D01*
X240105Y132179D01*
X239672Y132533D01*
X239160Y132730D01*
X238609Y132809D01*
X238255Y132769D01*
X237979Y132730D01*
X237704Y132612D01*
X237468Y132455D01*
X237074Y132021D01*
X236838Y131470D01*
X237428Y131313D01*
X237625Y131746D01*
X237861Y132021D01*
X238216Y132179D01*
X238609Y132258D01*
X239082Y132179D01*
X239475Y132021D01*
X239790Y131707D01*
X239948Y131352D01*
X240066Y130919D01*
X240105Y130486D01*
X240066Y129935D01*
X239948Y129462D01*
X239712Y129108D01*
X239397Y128832D01*
X239042Y128675D01*
X238649Y128636D01*
X238176Y128714D01*
X237782Y128911D01*
X237507Y129266D01*
D02*G37*
G36*
X235538Y128714D02*
X233373Y128714D01*
X233373Y128163D01*
X236286Y128163D01*
X236208Y128557D01*
X236090Y128872D01*
X235893Y129187D01*
X235578Y129502D01*
X235184Y129856D01*
X234869Y130171D01*
X234594Y130407D01*
X234357Y130644D01*
X234200Y130840D01*
X234042Y131155D01*
X233964Y131510D01*
X234003Y131785D01*
X234200Y132021D01*
X234475Y132218D01*
X234790Y132258D01*
X235145Y132179D01*
X235420Y132021D01*
X235578Y131746D01*
X235657Y131392D01*
X236208Y131470D01*
X236050Y132021D01*
X235775Y132415D01*
X235578Y132533D01*
X235342Y132651D01*
X235066Y132691D01*
X234790Y132730D01*
X234475Y132691D01*
X234200Y132651D01*
X233964Y132533D01*
X233767Y132376D01*
X233609Y132179D01*
X233491Y131943D01*
X233452Y131707D01*
X233412Y131470D01*
X233452Y131195D01*
X233531Y130919D01*
X233649Y130644D01*
X233845Y130368D01*
X234003Y130210D01*
X234160Y130014D01*
X234397Y129817D01*
X234672Y129581D01*
X234908Y129384D01*
X235066Y129226D01*
X235223Y129108D01*
X235302Y129029D01*
X235538Y128714D01*
D02*G37*
G36*
X154162Y120668D02*
X153965Y121179D01*
X153375Y121022D01*
X153493Y120668D01*
X153650Y120353D01*
X153808Y120116D01*
X154044Y119880D01*
X154320Y119723D01*
X154595Y119565D01*
X154910Y119526D01*
X155225Y119487D01*
X155894Y119565D01*
X156170Y119644D01*
X156406Y119802D01*
X156839Y120156D01*
X157115Y120668D01*
X157272Y121258D01*
X157351Y121888D01*
X157272Y122557D01*
X157076Y123109D01*
X156761Y123581D01*
X156328Y123935D01*
X155816Y124132D01*
X155265Y124211D01*
X154910Y124172D01*
X154635Y124132D01*
X154359Y124014D01*
X154123Y123857D01*
X153729Y123424D01*
X153493Y122872D01*
X154083Y122715D01*
X154280Y123148D01*
X154517Y123424D01*
X154871Y123581D01*
X155265Y123660D01*
X155737Y123581D01*
X156131Y123424D01*
X156446Y123109D01*
X156603Y122754D01*
X156721Y122321D01*
X156761Y121888D01*
X156721Y121337D01*
X156603Y120865D01*
X156367Y120510D01*
X156052Y120235D01*
X155698Y120077D01*
X155304Y120038D01*
X154831Y120116D01*
X154438Y120313D01*
X154162Y120668D01*
D02*G37*
G36*
X151091Y123187D02*
X150973Y124132D01*
X150540Y124132D01*
D02*G37*
G36*
X150540Y121219D02*
X151091Y123187D01*
X150540Y124132D01*
D02*G37*
G36*
X151092Y121219D02*
X151091Y123187D01*
X150540Y121219D01*
D02*G37*
G36*
X152509Y121219D02*
X150973Y124132D01*
X151091Y123187D01*
D02*G37*
G36*
X153060Y121219D02*
X150973Y124132D01*
X152509Y121219D01*
D02*G37*
G36*
X149950Y120668D02*
X153060Y121219D01*
X149950Y121219D01*
D02*G37*
G36*
X150540Y120668D02*
X153060Y121219D01*
X149950Y120668D01*
D02*G37*
G36*
X151091Y120668D02*
X153060Y121219D01*
X150540Y120668D01*
D02*G37*
G36*
X153060Y120668D02*
X153060Y121219D01*
X151091Y120668D01*
D02*G37*
G36*
X150540Y119565D02*
X151091Y120668D01*
X150540Y120668D01*
D02*G37*
G36*
X151091Y119565D02*
X151091Y120668D01*
X150540Y119565D01*
D02*G37*
G36*
X154319Y111069D02*
X154122Y111581D01*
X153532Y111423D01*
X153650Y111069D01*
X153808Y110754D01*
X153965Y110518D01*
X154201Y110281D01*
X154477Y110124D01*
X154752Y109966D01*
X155067Y109927D01*
X155382Y109888D01*
X156052Y109966D01*
X156327Y110045D01*
X156563Y110203D01*
X156997Y110557D01*
X157272Y111069D01*
X157430Y111659D01*
X157508Y112289D01*
X157430Y112959D01*
X157233Y113510D01*
X156918Y113982D01*
X156485Y114337D01*
X155973Y114533D01*
X155422Y114612D01*
X155067Y114573D01*
X154792Y114533D01*
X154516Y114415D01*
X154280Y114258D01*
X153886Y113825D01*
X153650Y113274D01*
X154241Y113116D01*
X154437Y113549D01*
X154674Y113825D01*
X155028Y113982D01*
X155422Y114061D01*
X155894Y113982D01*
X156288Y113825D01*
X156603Y113510D01*
X156760Y113155D01*
X156878Y112722D01*
X156918Y112289D01*
X156878Y111738D01*
X156760Y111266D01*
X156524Y110911D01*
X156209Y110636D01*
X155855Y110478D01*
X155461Y110439D01*
X154989Y110518D01*
X154595Y110715D01*
X154319Y111069D01*
D02*G37*
G36*
X152981Y110872D02*
X153020Y111148D01*
X152469Y111226D01*
X152351Y110833D01*
X152154Y110557D01*
X151918Y110400D01*
X151603Y110360D01*
X151209Y110439D01*
X150934Y110636D01*
X150737Y110951D01*
X150658Y111305D01*
X150737Y111659D01*
X150894Y111935D01*
X151170Y112132D01*
X151524Y112211D01*
X151721Y112171D01*
X151918Y112132D01*
X151878Y112683D01*
X151800Y112683D01*
X151445Y112722D01*
X151170Y112840D01*
X150973Y113077D01*
X150894Y113392D01*
X150934Y113667D01*
X151091Y113864D01*
X151327Y114022D01*
X151642Y114061D01*
X151918Y114022D01*
X152154Y113864D01*
X152311Y113628D01*
X152430Y113274D01*
X152981Y113352D01*
X152823Y113864D01*
X152508Y114218D01*
X152115Y114455D01*
X151642Y114533D01*
X151288Y114494D01*
X150973Y114376D01*
X150697Y114179D01*
X150500Y113943D01*
X150382Y113667D01*
X150343Y113392D01*
X150382Y113116D01*
X150500Y112840D01*
X150697Y112644D01*
X150973Y112486D01*
X150619Y112329D01*
X150343Y112092D01*
X150146Y111738D01*
X150107Y111344D01*
X150146Y111029D01*
X150225Y110793D01*
X150343Y110518D01*
X150540Y110321D01*
X150776Y110124D01*
X151012Y110006D01*
X151288Y109927D01*
X151603Y109888D01*
X151878Y109927D01*
X152154Y109966D01*
X152390Y110085D01*
X152587Y110242D01*
X152745Y110439D01*
X152863Y110636D01*
X152981Y110872D01*
D02*G37*
G36*
X85935Y125058D02*
X88454Y125098D01*
X86486Y125098D01*
D02*G37*
G36*
X85541Y124980D02*
X88454Y125098D01*
X85935Y125058D01*
D02*G37*
G36*
X85265Y124783D02*
X88454Y125098D01*
X85541Y124980D01*
D02*G37*
G36*
X85068Y124547D02*
X88454Y125098D01*
X85265Y124783D01*
D02*G37*
G36*
X86446Y124547D02*
X88454Y125098D01*
X85068Y124547D01*
D02*G37*
G36*
X87864Y124547D02*
X88454Y125098D01*
X86446Y124547D01*
D02*G37*
G36*
X86013Y124507D02*
X86446Y124547D01*
X85068Y124547D01*
D02*G37*
G36*
X85698Y124350D02*
X86013Y124507D01*
X85068Y124547D01*
D02*G37*
G36*
X84911Y124192D02*
X85698Y124350D01*
X85068Y124547D01*
D02*G37*
G36*
X85501Y124113D02*
X85698Y124350D01*
X84911Y124192D01*
D02*G37*
G36*
X84872Y123838D02*
X85501Y124113D01*
X84911Y124192D01*
D02*G37*
G36*
X85462Y123838D02*
X85501Y124113D01*
X84872Y123838D01*
D02*G37*
G36*
X85501Y123641D02*
X85462Y123838D01*
X84872Y123838D01*
D02*G37*
G36*
X85580Y123444D02*
X85501Y123641D01*
X84872Y123838D01*
D02*G37*
G36*
X84950Y123405D02*
X85580Y123444D01*
X84872Y123838D01*
D02*G37*
G36*
X85738Y123326D02*
X85580Y123444D01*
X84950Y123405D01*
D02*G37*
G36*
X85935Y123208D02*
X85738Y123326D01*
X84950Y123405D01*
D02*G37*
G36*
X86210Y123129D02*
X85935Y123208D01*
X84950Y123405D01*
D02*G37*
G36*
X87865Y123129D02*
X88454Y125098D01*
X87864Y124547D01*
D02*G37*
G36*
X85187Y123050D02*
X86210Y123129D01*
X84950Y123405D01*
D02*G37*
G36*
X85187Y123050D02*
X87865Y123129D01*
X86210Y123129D01*
D02*G37*
G36*
X85344Y122893D02*
X87865Y123129D01*
X85187Y123050D01*
D02*G37*
G36*
X85816Y122657D02*
X87865Y123129D01*
X85344Y122893D01*
D02*G37*
G36*
X86131Y122617D02*
X87865Y123129D01*
X85816Y122657D01*
D02*G37*
G36*
X86958Y122578D02*
X87865Y123129D01*
X86131Y122617D01*
D02*G37*
G36*
X87864Y122578D02*
X87865Y123129D01*
X86958Y122578D01*
D02*G37*
G36*
X87864Y122578D02*
X88454Y125098D01*
X87865Y123129D01*
D02*G37*
G36*
X86840Y122539D02*
X86958Y122578D01*
X86131Y122617D01*
D02*G37*
G36*
X85935Y122499D02*
X86840Y122539D01*
X86131Y122617D01*
D02*G37*
G36*
X86564Y122421D02*
X86840Y122539D01*
X85935Y122499D01*
D02*G37*
G36*
X85777Y122381D02*
X86564Y122421D01*
X85935Y122499D01*
D02*G37*
G36*
X86446Y122302D02*
X86564Y122421D01*
X85777Y122381D01*
D02*G37*
G36*
X85541Y122106D02*
X86446Y122302D01*
X85777Y122381D01*
D02*G37*
G36*
X86289Y122106D02*
X86446Y122302D01*
X85541Y122106D01*
D02*G37*
G36*
X86092Y121830D02*
X86289Y122106D01*
X85541Y122106D01*
D02*G37*
G36*
X85305Y121791D02*
X86092Y121830D01*
X85541Y122106D01*
D02*G37*
G36*
X85856Y121476D02*
X86092Y121830D01*
X85305Y121791D01*
D02*G37*
G36*
X84557Y120531D02*
X85856Y121476D01*
X85305Y121791D01*
D02*G37*
G36*
X85265Y120531D02*
X85856Y121476D01*
X84557Y120531D01*
D02*G37*
G36*
X87864Y120531D02*
X88454Y125098D01*
X87864Y122578D01*
D02*G37*
G36*
X88454Y120531D02*
X88454Y125098D01*
X87864Y120531D01*
D02*G37*
G36*
X83494Y121082D02*
X81328Y121082D01*
X81328Y120531D01*
X84242Y120531D01*
X84163Y120925D01*
X84045Y121239D01*
X83848Y121554D01*
X83533Y121869D01*
X83139Y122224D01*
X82824Y122539D01*
X82549Y122775D01*
X82312Y123011D01*
X82155Y123208D01*
X81998Y123523D01*
X81919Y123877D01*
X81958Y124153D01*
X82155Y124389D01*
X82431Y124586D01*
X82746Y124625D01*
X83100Y124547D01*
X83375Y124389D01*
X83533Y124113D01*
X83612Y123759D01*
X84163Y123838D01*
X84005Y124389D01*
X83730Y124783D01*
X83533Y124901D01*
X83297Y125019D01*
X83021Y125058D01*
X82746Y125098D01*
X82431Y125058D01*
X82155Y125019D01*
X81919Y124901D01*
X81722Y124743D01*
X81564Y124547D01*
X81446Y124310D01*
X81407Y124074D01*
X81368Y123838D01*
X81407Y123562D01*
X81486Y123287D01*
X81604Y123011D01*
X81801Y122736D01*
X81958Y122578D01*
X82116Y122381D01*
X82352Y122184D01*
X82627Y121948D01*
X82864Y121751D01*
X83021Y121594D01*
X83179Y121476D01*
X83257Y121397D01*
X83494Y121082D01*
D02*G37*
G36*
X86185Y145058D02*
X88704Y145098D01*
X86736Y145098D01*
D02*G37*
G36*
X85791Y144980D02*
X88704Y145098D01*
X86185Y145058D01*
D02*G37*
G36*
X85515Y144783D02*
X88704Y145098D01*
X85791Y144980D01*
D02*G37*
G36*
X85318Y144547D02*
X88704Y145098D01*
X85515Y144783D01*
D02*G37*
G36*
X86696Y144547D02*
X88704Y145098D01*
X85318Y144547D01*
D02*G37*
G36*
X88114Y144547D02*
X88704Y145098D01*
X86696Y144547D01*
D02*G37*
G36*
X86263Y144507D02*
X86696Y144547D01*
X85318Y144547D01*
D02*G37*
G36*
X85948Y144350D02*
X86263Y144507D01*
X85318Y144547D01*
D02*G37*
G36*
X85161Y144192D02*
X85948Y144350D01*
X85318Y144547D01*
D02*G37*
G36*
X85751Y144113D02*
X85948Y144350D01*
X85161Y144192D01*
D02*G37*
G36*
X85122Y143838D02*
X85751Y144113D01*
X85161Y144192D01*
D02*G37*
G36*
X85712Y143838D02*
X85751Y144113D01*
X85122Y143838D01*
D02*G37*
G36*
X85751Y143641D02*
X85712Y143838D01*
X85122Y143838D01*
D02*G37*
G36*
X85830Y143444D02*
X85751Y143641D01*
X85122Y143838D01*
D02*G37*
G36*
X85200Y143405D02*
X85830Y143444D01*
X85122Y143838D01*
D02*G37*
G36*
X85988Y143326D02*
X85830Y143444D01*
X85200Y143405D01*
D02*G37*
G36*
X86185Y143208D02*
X85988Y143326D01*
X85200Y143405D01*
D02*G37*
G36*
X86460Y143129D02*
X86185Y143208D01*
X85200Y143405D01*
D02*G37*
G36*
X88115Y143129D02*
X88704Y145098D01*
X88114Y144547D01*
D02*G37*
G36*
X85437Y143050D02*
X86460Y143129D01*
X85200Y143405D01*
D02*G37*
G36*
X85437Y143050D02*
X88115Y143129D01*
X86460Y143129D01*
D02*G37*
G36*
X85594Y142893D02*
X88115Y143129D01*
X85437Y143050D01*
D02*G37*
G36*
X86066Y142657D02*
X88115Y143129D01*
X85594Y142893D01*
D02*G37*
G36*
X86381Y142617D02*
X88115Y143129D01*
X86066Y142657D01*
D02*G37*
G36*
X87208Y142578D02*
X88115Y143129D01*
X86381Y142617D01*
D02*G37*
G36*
X88114Y142578D02*
X88115Y143129D01*
X87208Y142578D01*
D02*G37*
G36*
X88114Y142578D02*
X88704Y145098D01*
X88115Y143129D01*
D02*G37*
G36*
X87090Y142539D02*
X87208Y142578D01*
X86381Y142617D01*
D02*G37*
G36*
X86185Y142499D02*
X87090Y142539D01*
X86381Y142617D01*
D02*G37*
G36*
X86814Y142421D02*
X87090Y142539D01*
X86185Y142499D01*
D02*G37*
G36*
X86027Y142381D02*
X86814Y142421D01*
X86185Y142499D01*
D02*G37*
G36*
X86696Y142302D02*
X86814Y142421D01*
X86027Y142381D01*
D02*G37*
G36*
X85791Y142106D02*
X86696Y142302D01*
X86027Y142381D01*
D02*G37*
G36*
X86539Y142106D02*
X86696Y142302D01*
X85791Y142106D01*
D02*G37*
G36*
X86342Y141830D02*
X86539Y142106D01*
X85791Y142106D01*
D02*G37*
G36*
X85555Y141791D02*
X86342Y141830D01*
X85791Y142106D01*
D02*G37*
G36*
X86106Y141476D02*
X86342Y141830D01*
X85555Y141791D01*
D02*G37*
G36*
X84807Y140531D02*
X86106Y141476D01*
X85555Y141791D01*
D02*G37*
G36*
X85515Y140531D02*
X86106Y141476D01*
X84807Y140531D01*
D02*G37*
G36*
X88114Y140531D02*
X88704Y145098D01*
X88114Y142578D01*
D02*G37*
G36*
X88704Y140531D02*
X88704Y145098D01*
X88114Y140531D01*
D02*G37*
G36*
X84374Y141436D02*
X84413Y141712D01*
X83862Y141791D01*
X83744Y141397D01*
X83547Y141121D01*
X83311Y140964D01*
X82996Y140925D01*
X82602Y141003D01*
X82326Y141200D01*
X82129Y141515D01*
X82051Y141869D01*
X82129Y142224D01*
X82287Y142499D01*
X82562Y142696D01*
X82917Y142775D01*
X83114Y142736D01*
X83311Y142696D01*
X83271Y143247D01*
X83192Y143247D01*
X82838Y143287D01*
X82562Y143405D01*
X82366Y143641D01*
X82287Y143956D01*
X82326Y144232D01*
X82484Y144428D01*
X82720Y144586D01*
X83035Y144625D01*
X83311Y144586D01*
X83547Y144428D01*
X83704Y144192D01*
X83822Y143838D01*
X84374Y143917D01*
X84216Y144428D01*
X83901Y144783D01*
X83507Y145019D01*
X83035Y145098D01*
X82681Y145058D01*
X82366Y144940D01*
X82090Y144743D01*
X81893Y144507D01*
X81775Y144232D01*
X81736Y143956D01*
X81775Y143680D01*
X81893Y143405D01*
X82090Y143208D01*
X82366Y143050D01*
X82011Y142893D01*
X81736Y142657D01*
X81539Y142302D01*
X81500Y141909D01*
X81539Y141594D01*
X81618Y141358D01*
X81736Y141082D01*
X81933Y140885D01*
X82169Y140688D01*
X82405Y140570D01*
X82681Y140491D01*
X82996Y140452D01*
X83271Y140491D01*
X83547Y140531D01*
X83783Y140649D01*
X83980Y140806D01*
X84137Y141003D01*
X84255Y141200D01*
X84374Y141436D01*
D02*G37*
G36*
X136102Y237583D02*
X135905Y238095D01*
X135314Y237937D01*
X135433Y237583D01*
X135590Y237268D01*
X135748Y237032D01*
X135984Y236796D01*
X136259Y236638D01*
X136535Y236481D01*
X136850Y236441D01*
X137165Y236402D01*
X137834Y236481D01*
X138110Y236560D01*
X138346Y236717D01*
X138779Y237071D01*
X139055Y237583D01*
X139212Y238174D01*
X139291Y238804D01*
X139212Y239473D01*
X139015Y240024D01*
X138700Y240497D01*
X138267Y240851D01*
X137755Y241048D01*
X137204Y241126D01*
X136850Y241087D01*
X136574Y241048D01*
X136299Y240930D01*
X136062Y240772D01*
X135669Y240339D01*
X135433Y239788D01*
X136023Y239630D01*
X136220Y240063D01*
X136456Y240339D01*
X136811Y240497D01*
X137204Y240575D01*
X137677Y240497D01*
X138070Y240339D01*
X138385Y240024D01*
X138543Y239670D01*
X138661Y239237D01*
X138700Y238804D01*
X138661Y238252D01*
X138543Y237780D01*
X138307Y237426D01*
X137992Y237150D01*
X137637Y236993D01*
X137244Y236953D01*
X136771Y237032D01*
X136377Y237229D01*
X136102Y237583D01*
D02*G37*
G36*
X132755Y240969D02*
X133582Y241008D01*
X133267Y241048D01*
D02*G37*
G36*
X133897Y240930D02*
X133582Y241008D01*
X132755Y240969D01*
D02*G37*
G36*
X132362Y240733D02*
X133897Y240930D01*
X132755Y240969D01*
D02*G37*
G36*
X134173Y240733D02*
X133897Y240930D01*
X132362Y240733D01*
D02*G37*
G36*
X133307Y240575D02*
X134173Y240733D01*
X132362Y240733D01*
D02*G37*
G36*
X133543Y240536D02*
X134173Y240733D01*
X133307Y240575D01*
D02*G37*
G36*
X134409Y240536D02*
X134173Y240733D01*
X133543Y240536D01*
D02*G37*
G36*
X132992Y240497D02*
X133307Y240575D01*
X132362Y240733D01*
D02*G37*
G36*
X133779Y240418D02*
X134409Y240536D01*
X133543Y240536D01*
D02*G37*
G36*
X132086Y240339D02*
X132992Y240497D01*
X132362Y240733D01*
D02*G37*
G36*
X132716Y240339D02*
X132992Y240497D01*
X132086Y240339D01*
D02*G37*
G36*
X133976Y240182D02*
X134409Y240536D01*
X133779Y240418D01*
D02*G37*
G36*
X134606Y240182D02*
X134409Y240536D01*
X133976Y240182D01*
D02*G37*
G36*
X132598Y240103D02*
X132716Y240339D01*
X132086Y240339D01*
D02*G37*
G36*
X131968Y239867D02*
X132598Y240103D01*
X132086Y240339D01*
D02*G37*
G36*
X134173Y239867D02*
X134606Y240182D01*
X133976Y240182D01*
D02*G37*
G36*
X132519Y239827D02*
X132598Y240103D01*
X131968Y239867D01*
D02*G37*
G36*
X134763Y239749D02*
X134606Y240182D01*
X134173Y239867D01*
D02*G37*
G36*
X134251Y239670D02*
X134763Y239749D01*
X134173Y239867D01*
D02*G37*
G36*
X134291Y239434D02*
X134763Y239749D01*
X134251Y239670D01*
D02*G37*
G36*
X133543Y239394D02*
X133228Y239434D01*
X132952Y239394D01*
D02*G37*
G36*
X132716Y239315D02*
X133543Y239394D01*
X132952Y239394D01*
D02*G37*
G36*
X133818Y239276D02*
X133543Y239394D01*
X132716Y239315D01*
D02*G37*
G36*
X134842Y239237D02*
X134763Y239749D01*
X134291Y239434D01*
D02*G37*
G36*
X132480Y239197D02*
X133818Y239276D01*
X132716Y239315D01*
D02*G37*
G36*
X134094Y239079D02*
X133818Y239276D01*
X132480Y239197D01*
D02*G37*
G36*
X132283Y239000D02*
X134094Y239079D01*
X132480Y239197D01*
D02*G37*
G36*
X133346Y238882D02*
X134094Y239079D01*
X132283Y239000D01*
D02*G37*
G36*
X134330Y238843D02*
X134094Y239079D01*
X133346Y238882D01*
D02*G37*
G36*
X134330Y238843D02*
X134842Y239237D01*
X134291Y239434D01*
D02*G37*
G36*
X132125Y238804D02*
X133346Y238882D01*
X132283Y239000D01*
D02*G37*
G36*
X132992Y238804D02*
X133346Y238882D01*
X132125Y238804D01*
D02*G37*
G36*
X133700Y238804D02*
X134330Y238843D01*
X133346Y238882D01*
D02*G37*
G36*
X132677Y238607D02*
X132992Y238804D01*
X132125Y238804D01*
D02*G37*
G36*
X134015Y238607D02*
X134330Y238843D01*
X133700Y238804D01*
D02*G37*
G36*
X134881Y238607D02*
X134842Y239237D01*
X134330Y238843D01*
D02*G37*
G36*
X134881Y238607D02*
X134330Y238843D01*
X134015Y238607D01*
D02*G37*
G36*
X131968Y238528D02*
X132677Y238607D01*
X132125Y238804D01*
D02*G37*
G36*
X132519Y238292D02*
X132677Y238607D01*
X131968Y238528D01*
D02*G37*
G36*
X134212Y238292D02*
X134881Y238607D01*
X134015Y238607D01*
D02*G37*
G36*
X131929Y238252D02*
X132519Y238292D01*
X131968Y238528D01*
D02*G37*
G36*
X134842Y238056D02*
X134881Y238607D01*
X134212Y238292D01*
D02*G37*
G36*
X131889Y237937D02*
X132519Y238292D01*
X131929Y238252D01*
D02*G37*
G36*
X134292Y237937D02*
X134842Y238056D01*
X134212Y238292D01*
D02*G37*
G36*
X132440Y237898D02*
X132519Y238292D01*
X131889Y237937D01*
D02*G37*
G36*
X134251Y237662D02*
X134842Y238056D01*
X134292Y237937D01*
D02*G37*
G36*
X134763Y237583D02*
X134842Y238056D01*
X134251Y237662D01*
D02*G37*
G36*
X131929Y237544D02*
X132440Y237898D01*
X131889Y237937D01*
D02*G37*
G36*
X132519Y237465D02*
X132440Y237898D01*
X131929Y237544D01*
D02*G37*
G36*
X134173Y237386D02*
X134763Y237583D01*
X134251Y237662D01*
D02*G37*
G36*
X134645Y237229D02*
X134763Y237583D01*
X134173Y237386D01*
D02*G37*
G36*
X132086Y237150D02*
X132519Y237465D01*
X131929Y237544D01*
D02*G37*
G36*
X132677Y237150D02*
X132519Y237465D01*
X132086Y237150D01*
D02*G37*
G36*
X134015Y237150D02*
X134645Y237229D01*
X134173Y237386D01*
D02*G37*
G36*
X133818Y236993D02*
X134645Y237229D01*
X134015Y237150D01*
D02*G37*
G36*
X132992Y236953D02*
X132677Y237150D01*
X132086Y237150D01*
D02*G37*
G36*
X133582Y236914D02*
X134645Y237229D01*
X133818Y236993D01*
D02*G37*
G36*
X134448Y236914D02*
X134645Y237229D01*
X133582Y236914D01*
D02*G37*
G36*
X133346Y236875D02*
X132992Y236953D01*
X132086Y237150D01*
D02*G37*
G36*
X133346Y236875D02*
X134448Y236914D01*
X133582Y236914D01*
D02*G37*
G36*
X132283Y236835D02*
X133346Y236875D01*
X132086Y237150D01*
D02*G37*
G36*
X132283Y236835D02*
X134448Y236914D01*
X133346Y236875D01*
D02*G37*
G36*
X134212Y236678D02*
X134448Y236914D01*
X132283Y236835D01*
D02*G37*
G36*
X132559Y236599D02*
X134212Y236678D01*
X132283Y236835D01*
D02*G37*
G36*
X133937Y236520D02*
X134212Y236678D01*
X132559Y236599D01*
D02*G37*
G36*
X132913Y236441D02*
X133937Y236520D01*
X132559Y236599D01*
D02*G37*
G36*
X133622Y236441D02*
X133937Y236520D01*
X132913Y236441D01*
D02*G37*
G36*
X133307Y236402D02*
X133622Y236441D01*
X132913Y236441D01*
D02*G37*
G36*
X109637Y104508D02*
X109440Y105020D01*
X108850Y104862D01*
X108968Y104508D01*
X109125Y104193D01*
X109283Y103957D01*
X109519Y103721D01*
X109795Y103563D01*
X110070Y103406D01*
X110385Y103366D01*
X110700Y103327D01*
X111370Y103406D01*
X111645Y103485D01*
X111881Y103642D01*
X112314Y103996D01*
X112590Y104508D01*
X112748Y105099D01*
X112826Y105729D01*
X112748Y106398D01*
X112551Y106949D01*
X112236Y107422D01*
X111803Y107776D01*
X111291Y107973D01*
X110740Y108051D01*
X110385Y108012D01*
X110110Y107973D01*
X109834Y107855D01*
X109598Y107697D01*
X109204Y107264D01*
X108968Y106713D01*
X109559Y106555D01*
X109755Y106988D01*
X109992Y107264D01*
X110346Y107422D01*
X110740Y107500D01*
X111212Y107422D01*
X111606Y107264D01*
X111921Y106949D01*
X112078Y106595D01*
X112196Y106162D01*
X112236Y105729D01*
X112196Y105177D01*
X112078Y104705D01*
X111842Y104351D01*
X111527Y104075D01*
X111173Y103918D01*
X110779Y103878D01*
X110307Y103957D01*
X109913Y104154D01*
X109637Y104508D01*
D02*G37*
G36*
X106370Y107894D02*
X107196Y107933D01*
X106921Y107973D01*
D02*G37*
G36*
X107433Y107894D02*
X107196Y107933D01*
X106370Y107894D01*
D02*G37*
G36*
X106173Y107776D02*
X107433Y107894D01*
X106370Y107894D01*
D02*G37*
G36*
X107629Y107776D02*
X107433Y107894D01*
X106173Y107776D01*
D02*G37*
G36*
X105976Y107618D02*
X107629Y107776D01*
X106173Y107776D01*
D02*G37*
G36*
X107826Y107618D02*
X107629Y107776D01*
X105976Y107618D01*
D02*G37*
G36*
X106881Y107500D02*
X107826Y107618D01*
X105976Y107618D01*
D02*G37*
G36*
X106606Y107461D02*
X106881Y107500D01*
X105976Y107618D01*
D02*G37*
G36*
X107196Y107461D02*
X107826Y107618D01*
X106881Y107500D01*
D02*G37*
G36*
X107984Y107461D02*
X107826Y107618D01*
X107196Y107461D01*
D02*G37*
G36*
X105818Y107422D02*
X106606Y107461D01*
X105976Y107618D01*
D02*G37*
G36*
X106370Y107303D02*
X106606Y107461D01*
X105818Y107422D01*
D02*G37*
G36*
X107433Y107303D02*
X107984Y107461D01*
X107196Y107461D01*
D02*G37*
G36*
X108102Y107264D02*
X107984Y107461D01*
X107433Y107303D01*
D02*G37*
G36*
X105700Y107225D02*
X106370Y107303D01*
X105818Y107422D01*
D02*G37*
G36*
X106212Y107067D02*
X106370Y107303D01*
X105700Y107225D01*
D02*G37*
G36*
X107590Y107067D02*
X108102Y107264D01*
X107433Y107303D01*
D02*G37*
G36*
X105661Y107028D02*
X106212Y107067D01*
X105700Y107225D01*
D02*G37*
G36*
X105622Y106792D02*
X106212Y107067D01*
X105661Y107028D01*
D02*G37*
G36*
X106173Y106792D02*
X106212Y107067D01*
X105622Y106792D01*
D02*G37*
G36*
X107630Y106792D02*
X108102Y107264D01*
X107590Y107067D01*
D02*G37*
G36*
X108181Y106792D02*
X108102Y107264D01*
X107630Y106792D01*
D02*G37*
G36*
X106212Y106516D02*
X106173Y106792D01*
X105622Y106792D01*
D02*G37*
G36*
X107590Y106516D02*
X108181Y106792D01*
X107630Y106792D01*
D02*G37*
G36*
X105661Y106477D02*
X106212Y106516D01*
X105622Y106792D01*
D02*G37*
G36*
X108141Y106477D02*
X108181Y106792D01*
X107590Y106516D01*
D02*G37*
G36*
X106370Y106280D02*
X106212Y106516D01*
X105661Y106477D01*
D02*G37*
G36*
X107433Y106280D02*
X108141Y106477D01*
X107590Y106516D01*
D02*G37*
G36*
X105779Y106240D02*
X106370Y106280D01*
X105661Y106477D01*
D02*G37*
G36*
X108023Y106240D02*
X108141Y106477D01*
X107433Y106280D01*
D02*G37*
G36*
X106606Y106122D02*
X106370Y106280D01*
X105779Y106240D01*
D02*G37*
G36*
X107196Y106122D02*
X108023Y106240D01*
X107433Y106280D01*
D02*G37*
G36*
X105976Y106004D02*
X106881Y106083D01*
X105779Y106240D01*
D02*G37*
G36*
X107826Y106004D02*
X108023Y106240D01*
X107196Y106122D01*
D02*G37*
G36*
X107826Y106004D02*
X107196Y106122D01*
X106881Y106083D01*
D02*G37*
G36*
X107826Y106004D02*
X106881Y106083D01*
X105976Y106004D01*
D02*G37*
G36*
X106251Y105847D02*
X107826Y106004D01*
X105976Y106004D01*
D02*G37*
G36*
X107511Y105847D02*
X107826Y106004D01*
X106251Y105847D01*
D02*G37*
G36*
X105937Y105689D02*
X107511Y105847D01*
X106251Y105847D01*
D02*G37*
G36*
X107866Y105689D02*
X107511Y105847D01*
X105937Y105689D01*
D02*G37*
G36*
X106921Y105611D02*
X107866Y105689D01*
X105937Y105689D01*
D02*G37*
G36*
X106566Y105532D02*
X106921Y105611D01*
X105937Y105689D01*
D02*G37*
G36*
X107275Y105532D02*
X107866Y105689D01*
X106921Y105611D01*
D02*G37*
G36*
X108141Y105453D02*
X107866Y105689D01*
X107275Y105532D01*
D02*G37*
G36*
X105661Y105414D02*
X106566Y105532D01*
X105937Y105689D01*
D02*G37*
G36*
X106251Y105335D02*
X106566Y105532D01*
X105661Y105414D01*
D02*G37*
G36*
X107551Y105335D02*
X108141Y105453D01*
X107275Y105532D01*
D02*G37*
G36*
X105503Y105099D02*
X106251Y105335D01*
X105661Y105414D01*
D02*G37*
G36*
X108299Y105099D02*
X108141Y105453D01*
X107551Y105335D01*
D02*G37*
G36*
X106094Y105059D02*
X106251Y105335D01*
X105503Y105099D01*
D02*G37*
G36*
X107708Y105059D02*
X108299Y105099D01*
X107551Y105335D01*
D02*G37*
G36*
X105464Y104705D02*
X106094Y105059D01*
X105503Y105099D01*
D02*G37*
G36*
X106015Y104705D02*
X106094Y105059D01*
X105464Y104705D01*
D02*G37*
G36*
X107788Y104705D02*
X108299Y105099D01*
X107708Y105059D01*
D02*G37*
G36*
X108338Y104705D02*
X108299Y105099D01*
X107788Y104705D01*
D02*G37*
G36*
X107748Y104469D02*
X108338Y104705D01*
X107788Y104705D01*
D02*G37*
G36*
X108299Y104429D02*
X108338Y104705D01*
X107748Y104469D01*
D02*G37*
G36*
X106055Y104351D02*
X106015Y104705D01*
X105464Y104705D01*
D02*G37*
G36*
X107669Y104272D02*
X108299Y104429D01*
X107748Y104469D01*
D02*G37*
G36*
X105543Y104154D02*
X106055Y104351D01*
X105464Y104705D01*
D02*G37*
G36*
X108220Y104154D02*
X108299Y104429D01*
X107669Y104272D01*
D02*G37*
G36*
X107551Y104075D02*
X108220Y104154D01*
X107669Y104272D01*
D02*G37*
G36*
X106251Y104036D02*
X106055Y104351D01*
X105543Y104154D01*
D02*G37*
G36*
X105700Y103918D02*
X106251Y104036D01*
X105543Y104154D01*
D02*G37*
G36*
X107354Y103918D02*
X108220Y104154D01*
X107551Y104075D01*
D02*G37*
G36*
X108102Y103918D02*
X108220Y104154D01*
X107354Y103918D01*
D02*G37*
G36*
X106527Y103878D02*
X106251Y104036D01*
X105700Y103918D01*
D02*G37*
G36*
X107118Y103839D02*
X108102Y103918D01*
X107354Y103918D01*
D02*G37*
G36*
X106881Y103800D02*
X106527Y103878D01*
X105700Y103918D01*
D02*G37*
G36*
X106881Y103800D02*
X108102Y103918D01*
X107118Y103839D01*
D02*G37*
G36*
X105858Y103721D02*
X106881Y103800D01*
X105700Y103918D01*
D02*G37*
G36*
X107944Y103721D02*
X108102Y103918D01*
X106881Y103800D01*
D02*G37*
G36*
X107944Y103721D02*
X106881Y103800D01*
X105858Y103721D01*
D02*G37*
G36*
X106055Y103563D02*
X107944Y103721D01*
X105858Y103721D01*
D02*G37*
G36*
X106330Y103406D02*
X107944Y103721D01*
X106055Y103563D01*
D02*G37*
G36*
X107472Y103406D02*
X107944Y103721D01*
X106330Y103406D01*
D02*G37*
G36*
X107196Y103366D02*
X107472Y103406D01*
X106330Y103406D01*
D02*G37*
G36*
X106881Y103327D02*
X107196Y103366D01*
X106330Y103406D01*
D02*G37*
G36*
X105105Y149156D02*
X105695Y149156D01*
X105695Y153172D01*
X107191Y153172D01*
X107191Y153723D01*
X103609Y153723D01*
X103609Y153172D01*
X105105Y153172D01*
X105105Y149156D01*
D02*G37*
G36*
X101207Y153723D02*
X101207Y149156D01*
X101758Y149156D01*
X101758Y152699D01*
X101995Y152502D01*
X102270Y152345D01*
X102546Y152148D01*
X102821Y152030D01*
X102821Y152581D01*
X102388Y152817D01*
X102034Y153093D01*
X101758Y153408D01*
X101562Y153723D01*
X101207Y153723D01*
D02*G37*
G36*
X136824Y147196D02*
X139344Y147235D01*
X137375Y147235D01*
D02*G37*
G36*
X136431Y147117D02*
X139344Y147235D01*
X136824Y147196D01*
D02*G37*
G36*
X136155Y146920D02*
X139344Y147235D01*
X136431Y147117D01*
D02*G37*
G36*
X135958Y146684D02*
X139344Y147235D01*
X136155Y146920D01*
D02*G37*
G36*
X137336Y146684D02*
X139344Y147235D01*
X135958Y146684D01*
D02*G37*
G36*
X138753Y146684D02*
X139344Y147235D01*
X137336Y146684D01*
D02*G37*
G36*
X136903Y146645D02*
X137336Y146684D01*
X135958Y146684D01*
D02*G37*
G36*
X136588Y146487D02*
X136903Y146645D01*
X135958Y146684D01*
D02*G37*
G36*
X135801Y146330D02*
X136588Y146487D01*
X135958Y146684D01*
D02*G37*
G36*
X136391Y146251D02*
X136588Y146487D01*
X135801Y146330D01*
D02*G37*
G36*
X135761Y145975D02*
X136391Y146251D01*
X135801Y146330D01*
D02*G37*
G36*
X136352Y145975D02*
X136391Y146251D01*
X135761Y145975D01*
D02*G37*
G36*
X136391Y145779D02*
X136352Y145975D01*
X135761Y145975D01*
D02*G37*
G36*
X136470Y145582D02*
X136391Y145779D01*
X135761Y145975D01*
D02*G37*
G36*
X135840Y145542D02*
X136470Y145582D01*
X135761Y145975D01*
D02*G37*
G36*
X136627Y145464D02*
X136470Y145582D01*
X135840Y145542D01*
D02*G37*
G36*
X136824Y145345D02*
X136627Y145464D01*
X135840Y145542D01*
D02*G37*
G36*
X137100Y145267D02*
X136824Y145345D01*
X135840Y145542D01*
D02*G37*
G36*
X138754Y145267D02*
X139344Y147235D01*
X138753Y146684D01*
D02*G37*
G36*
X136076Y145188D02*
X137100Y145267D01*
X135840Y145542D01*
D02*G37*
G36*
X136076Y145188D02*
X138754Y145267D01*
X137100Y145267D01*
D02*G37*
G36*
X136234Y145031D02*
X138754Y145267D01*
X136076Y145188D01*
D02*G37*
G36*
X136706Y144794D02*
X138754Y145267D01*
X136234Y145031D01*
D02*G37*
G36*
X137021Y144755D02*
X138754Y145267D01*
X136706Y144794D01*
D02*G37*
G36*
X137848Y144716D02*
X138754Y145267D01*
X137021Y144755D01*
D02*G37*
G36*
X138753Y144716D02*
X138754Y145267D01*
X137848Y144716D01*
D02*G37*
G36*
X138753Y144716D02*
X139344Y147235D01*
X138754Y145267D01*
D02*G37*
G36*
X137730Y144676D02*
X137848Y144716D01*
X137021Y144755D01*
D02*G37*
G36*
X136824Y144637D02*
X137730Y144676D01*
X137021Y144755D01*
D02*G37*
G36*
X137454Y144558D02*
X137730Y144676D01*
X136824Y144637D01*
D02*G37*
G36*
X136667Y144519D02*
X137454Y144558D01*
X136824Y144637D01*
D02*G37*
G36*
X137336Y144440D02*
X137454Y144558D01*
X136667Y144519D01*
D02*G37*
G36*
X136431Y144243D02*
X137336Y144440D01*
X136667Y144519D01*
D02*G37*
G36*
X137179Y144243D02*
X137336Y144440D01*
X136431Y144243D01*
D02*G37*
G36*
X136982Y143968D02*
X137179Y144243D01*
X136431Y144243D01*
D02*G37*
G36*
X136194Y143928D02*
X136982Y143968D01*
X136431Y144243D01*
D02*G37*
G36*
X136746Y143613D02*
X136982Y143968D01*
X136194Y143928D01*
D02*G37*
G36*
X135446Y142668D02*
X136746Y143613D01*
X136194Y143928D01*
D02*G37*
G36*
X136155Y142668D02*
X136746Y143613D01*
X135446Y142668D01*
D02*G37*
G36*
X138753Y142668D02*
X139344Y147235D01*
X138753Y144716D01*
D02*G37*
G36*
X139344Y142668D02*
X139344Y147235D01*
X138753Y142668D01*
D02*G37*
G36*
X133281Y146290D02*
X133163Y147235D01*
X132730Y147235D01*
D02*G37*
G36*
X132730Y144322D02*
X133281Y146290D01*
X132730Y147235D01*
D02*G37*
G36*
X133282Y144322D02*
X133281Y146290D01*
X132730Y144322D01*
D02*G37*
G36*
X134698Y144322D02*
X133163Y147235D01*
X133281Y146290D01*
D02*G37*
G36*
X135250Y144322D02*
X133163Y147235D01*
X134698Y144322D01*
D02*G37*
G36*
X132139Y143771D02*
X135250Y144322D01*
X132139Y144322D01*
D02*G37*
G36*
X132730Y143771D02*
X135250Y144322D01*
X132139Y143771D01*
D02*G37*
G36*
X133281Y143771D02*
X135250Y144322D01*
X132730Y143771D01*
D02*G37*
G36*
X135250Y143771D02*
X135250Y144322D01*
X133281Y143771D01*
D02*G37*
G36*
X132730Y142668D02*
X133281Y143771D01*
X132730Y143771D01*
D02*G37*
G36*
X133281Y142668D02*
X133281Y143771D01*
X132730Y142668D01*
D02*G37*
G36*
X136087Y192508D02*
X135890Y193020D01*
X135300Y192862D01*
X135418Y192508D01*
X135575Y192193D01*
X135733Y191957D01*
X135969Y191721D01*
X136245Y191563D01*
X136520Y191406D01*
X136835Y191366D01*
X137150Y191327D01*
X137819Y191406D01*
X138095Y191485D01*
X138331Y191642D01*
X138764Y191996D01*
X139040Y192508D01*
X139197Y193099D01*
X139276Y193729D01*
X139197Y194398D01*
X139000Y194949D01*
X138686Y195422D01*
X138252Y195776D01*
X137741Y195973D01*
X137189Y196051D01*
X136835Y196012D01*
X136560Y195973D01*
X136284Y195855D01*
X136048Y195697D01*
X135654Y195264D01*
X135418Y194713D01*
X136008Y194555D01*
X136205Y194988D01*
X136441Y195264D01*
X136796Y195422D01*
X137189Y195500D01*
X137662Y195422D01*
X138056Y195264D01*
X138371Y194949D01*
X138528Y194595D01*
X138646Y194162D01*
X138686Y193729D01*
X138646Y193177D01*
X138528Y192705D01*
X138292Y192351D01*
X137977Y192075D01*
X137623Y191918D01*
X137229Y191878D01*
X136756Y191957D01*
X136363Y192154D01*
X136087Y192508D01*
D02*G37*
G36*
X134749Y192311D02*
X134788Y192587D01*
X134237Y192626D01*
X134119Y192272D01*
X133961Y191996D01*
X133686Y191839D01*
X133371Y191800D01*
X132977Y191878D01*
X132701Y192075D01*
X132504Y192429D01*
X132426Y192862D01*
X132504Y193296D01*
X132662Y193611D01*
X132977Y193807D01*
X133371Y193886D01*
X133607Y193847D01*
X133843Y193768D01*
X134000Y193650D01*
X134158Y193492D01*
X134709Y193571D01*
X134237Y195894D01*
X132111Y195894D01*
X132111Y195343D01*
X133804Y195343D01*
X134040Y194122D01*
X133843Y194240D01*
X133607Y194359D01*
X133213Y194437D01*
X132937Y194398D01*
X132701Y194319D01*
X132465Y194201D01*
X132268Y194004D01*
X132071Y193807D01*
X131953Y193532D01*
X131914Y193256D01*
X131875Y192941D01*
X131914Y192666D01*
X131953Y192390D01*
X132071Y192114D01*
X132229Y191878D01*
X132465Y191642D01*
X132741Y191445D01*
X133016Y191366D01*
X133371Y191327D01*
X133646Y191327D01*
X133922Y191406D01*
X134158Y191524D01*
X134355Y191681D01*
X134512Y191839D01*
X134670Y192075D01*
X134749Y192311D01*
D02*G37*
G36*
X164935Y95683D02*
X167454Y95723D01*
X165486Y95723D01*
D02*G37*
G36*
X164541Y95605D02*
X167454Y95723D01*
X164935Y95683D01*
D02*G37*
G36*
X164265Y95408D02*
X167454Y95723D01*
X164541Y95605D01*
D02*G37*
G36*
X164068Y95172D02*
X167454Y95723D01*
X164265Y95408D01*
D02*G37*
G36*
X165446Y95172D02*
X167454Y95723D01*
X164068Y95172D01*
D02*G37*
G36*
X166864Y95172D02*
X167454Y95723D01*
X165446Y95172D01*
D02*G37*
G36*
X165013Y95132D02*
X165446Y95172D01*
X164068Y95172D01*
D02*G37*
G36*
X164698Y94975D02*
X165013Y95132D01*
X164068Y95172D01*
D02*G37*
G36*
X163911Y94817D02*
X164698Y94975D01*
X164068Y95172D01*
D02*G37*
G36*
X164501Y94738D02*
X164698Y94975D01*
X163911Y94817D01*
D02*G37*
G36*
X163872Y94463D02*
X164501Y94738D01*
X163911Y94817D01*
D02*G37*
G36*
X164462Y94463D02*
X164501Y94738D01*
X163872Y94463D01*
D02*G37*
G36*
X164501Y94266D02*
X164462Y94463D01*
X163872Y94463D01*
D02*G37*
G36*
X164580Y94069D02*
X164501Y94266D01*
X163872Y94463D01*
D02*G37*
G36*
X163950Y94030D02*
X164580Y94069D01*
X163872Y94463D01*
D02*G37*
G36*
X164738Y93951D02*
X164580Y94069D01*
X163950Y94030D01*
D02*G37*
G36*
X164935Y93833D02*
X164738Y93951D01*
X163950Y94030D01*
D02*G37*
G36*
X165210Y93754D02*
X164935Y93833D01*
X163950Y94030D01*
D02*G37*
G36*
X166865Y93754D02*
X167454Y95723D01*
X166864Y95172D01*
D02*G37*
G36*
X164187Y93675D02*
X165210Y93754D01*
X163950Y94030D01*
D02*G37*
G36*
X164187Y93675D02*
X166865Y93754D01*
X165210Y93754D01*
D02*G37*
G36*
X164344Y93518D02*
X166865Y93754D01*
X164187Y93675D01*
D02*G37*
G36*
X164816Y93282D02*
X166865Y93754D01*
X164344Y93518D01*
D02*G37*
G36*
X165131Y93242D02*
X166865Y93754D01*
X164816Y93282D01*
D02*G37*
G36*
X165958Y93203D02*
X166865Y93754D01*
X165131Y93242D01*
D02*G37*
G36*
X166864Y93203D02*
X166865Y93754D01*
X165958Y93203D01*
D02*G37*
G36*
X166864Y93203D02*
X167454Y95723D01*
X166865Y93754D01*
D02*G37*
G36*
X165840Y93164D02*
X165958Y93203D01*
X165131Y93242D01*
D02*G37*
G36*
X164935Y93124D02*
X165840Y93164D01*
X165131Y93242D01*
D02*G37*
G36*
X165564Y93046D02*
X165840Y93164D01*
X164935Y93124D01*
D02*G37*
G36*
X164777Y93006D02*
X165564Y93046D01*
X164935Y93124D01*
D02*G37*
G36*
X165446Y92927D02*
X165564Y93046D01*
X164777Y93006D01*
D02*G37*
G36*
X164541Y92731D02*
X165446Y92927D01*
X164777Y93006D01*
D02*G37*
G36*
X165289Y92731D02*
X165446Y92927D01*
X164541Y92731D01*
D02*G37*
G36*
X165092Y92455D02*
X165289Y92731D01*
X164541Y92731D01*
D02*G37*
G36*
X164305Y92416D02*
X165092Y92455D01*
X164541Y92731D01*
D02*G37*
G36*
X164856Y92101D02*
X165092Y92455D01*
X164305Y92416D01*
D02*G37*
G36*
X163557Y91156D02*
X164856Y92101D01*
X164305Y92416D01*
D02*G37*
G36*
X164265Y91156D02*
X164856Y92101D01*
X163557Y91156D01*
D02*G37*
G36*
X166864Y91156D02*
X167454Y95723D01*
X166864Y93203D01*
D02*G37*
G36*
X167454Y91156D02*
X167454Y95723D01*
X166864Y91156D01*
D02*G37*
G36*
X161352Y95644D02*
X162061Y95683D01*
X161785Y95723D01*
D02*G37*
G36*
X162297Y95605D02*
X162061Y95683D01*
X161352Y95644D01*
D02*G37*
G36*
X160998Y95487D02*
X162297Y95605D01*
X161352Y95644D01*
D02*G37*
G36*
X162533Y95487D02*
X162297Y95605D01*
X160998Y95487D01*
D02*G37*
G36*
X162769Y95290D02*
X162533Y95487D01*
X160998Y95487D01*
D02*G37*
G36*
X161706Y95250D02*
X162769Y95290D01*
X160998Y95487D01*
D02*G37*
G36*
X160643Y95172D02*
X161706Y95250D01*
X160998Y95487D01*
D02*G37*
G36*
X161352Y95172D02*
X161706Y95250D01*
X160643Y95172D01*
D02*G37*
G36*
X162061Y95172D02*
X162769Y95290D01*
X161706Y95250D01*
D02*G37*
G36*
X162927Y95053D02*
X162769Y95290D01*
X162061Y95172D01*
D02*G37*
G36*
X161076Y94975D02*
X161352Y95172D01*
X160643Y95172D01*
D02*G37*
G36*
X162336Y94935D02*
X162927Y95053D01*
X162061Y95172D01*
D02*G37*
G36*
X160446Y94817D02*
X161076Y94975D01*
X160643Y95172D01*
D02*G37*
G36*
X163045Y94817D02*
X162927Y95053D01*
X162336Y94935D01*
D02*G37*
G36*
X160919Y94660D02*
X161076Y94975D01*
X160446Y94817D01*
D02*G37*
G36*
X162533Y94620D02*
X163045Y94817D01*
X162336Y94935D01*
D02*G37*
G36*
X163124Y94502D02*
X163045Y94817D01*
X162533Y94620D01*
D02*G37*
G36*
X160289Y94266D02*
X160919Y94660D01*
X160446Y94817D01*
D02*G37*
G36*
X160841Y94227D02*
X160919Y94660D01*
X160289Y94266D01*
D02*G37*
G36*
X162612Y94187D02*
X163124Y94502D01*
X162533Y94620D01*
D02*G37*
G36*
X163163Y94187D02*
X163124Y94502D01*
X162612Y94187D01*
D02*G37*
G36*
X160250Y93912D02*
X160841Y94227D01*
X160289Y94266D01*
D02*G37*
G36*
X160919Y93833D02*
X160841Y94227D01*
X160250Y93912D01*
D02*G37*
G36*
X162533Y93794D02*
X163163Y94187D01*
X162612Y94187D01*
D02*G37*
G36*
X163084Y93557D02*
X163163Y94187D01*
X162533Y93794D01*
D02*G37*
G36*
X161076Y93518D02*
X160919Y93833D01*
X160250Y93912D01*
D02*G37*
G36*
X162375Y93518D02*
X163084Y93557D01*
X162533Y93794D01*
D02*G37*
G36*
X161352Y93321D02*
X161076Y93518D01*
X160250Y93912D01*
D02*G37*
G36*
X162061Y93321D02*
X163084Y93557D01*
X162375Y93518D01*
D02*G37*
G36*
X162966Y93321D02*
X163084Y93557D01*
X162061Y93321D01*
D02*G37*
G36*
X160801Y93282D02*
X161352Y93321D01*
X160250Y93912D01*
D02*G37*
G36*
X161706Y93242D02*
X161352Y93321D01*
X160801Y93282D01*
D02*G37*
G36*
X161706Y93242D02*
X162966Y93321D01*
X162061Y93321D01*
D02*G37*
G36*
X160250Y93085D02*
X160801Y93282D01*
X160250Y93912D01*
D02*G37*
G36*
X162769Y93085D02*
X162966Y93321D01*
X161706Y93242D01*
D02*G37*
G36*
X162769Y93085D02*
X161706Y93242D01*
X160801Y93282D01*
D02*G37*
G36*
X160998Y93046D02*
X162769Y93085D01*
X160801Y93282D01*
D02*G37*
G36*
X162572Y92927D02*
X162769Y93085D01*
X160998Y93046D01*
D02*G37*
G36*
X160801Y92849D02*
X160801Y93282D01*
X160250Y93085D01*
D02*G37*
G36*
X161234Y92849D02*
X162572Y92927D01*
X160998Y93046D01*
D02*G37*
G36*
X162375Y92809D02*
X162572Y92927D01*
X161234Y92849D01*
D02*G37*
G36*
X160289Y92731D02*
X160801Y92849D01*
X160250Y93085D01*
D02*G37*
G36*
X161549Y92731D02*
X162375Y92809D01*
X161234Y92849D01*
D02*G37*
G36*
X162100Y92731D02*
X162375Y92809D01*
X161549Y92731D01*
D02*G37*
G36*
X161864Y92691D02*
X162100Y92731D01*
X161549Y92731D01*
D02*G37*
G36*
X160879Y92494D02*
X160801Y92849D01*
X160289Y92731D01*
D02*G37*
G36*
X160368Y92416D02*
X160879Y92494D01*
X160289Y92731D01*
D02*G37*
G36*
X160958Y92179D02*
X160879Y92494D01*
X160368Y92416D01*
D02*G37*
G36*
X160446Y92140D02*
X160958Y92179D01*
X160368Y92416D01*
D02*G37*
G36*
X162454Y91943D02*
X163084Y92258D01*
X162533Y92298D01*
D02*G37*
G36*
X161194Y91786D02*
X160958Y92179D01*
X160446Y92140D01*
D02*G37*
G36*
X162966Y91746D02*
X163084Y92258D01*
X162454Y91943D01*
D02*G37*
G36*
X162297Y91707D02*
X162966Y91746D01*
X162454Y91943D01*
D02*G37*
G36*
X160643Y91668D02*
X161194Y91786D01*
X160446Y92140D01*
D02*G37*
G36*
X161352Y91668D02*
X161194Y91786D01*
X160643Y91668D01*
D02*G37*
G36*
X161588Y91589D02*
X161352Y91668D01*
X160643Y91668D01*
D02*G37*
G36*
X162061Y91589D02*
X162966Y91746D01*
X162297Y91707D01*
D02*G37*
G36*
X161824Y91550D02*
X161588Y91589D01*
X160643Y91668D01*
D02*G37*
G36*
X162690Y91392D02*
X162966Y91746D01*
X162061Y91589D01*
D02*G37*
G36*
X162690Y91392D02*
X162061Y91589D01*
X161824Y91550D01*
D02*G37*
G36*
X162690Y91392D02*
X161824Y91550D01*
X160643Y91668D01*
D02*G37*
G36*
X160998Y91353D02*
X162690Y91392D01*
X160643Y91668D01*
D02*G37*
G36*
X162494Y91235D02*
X162690Y91392D01*
X160998Y91353D01*
D02*G37*
G36*
X161391Y91156D02*
X162494Y91235D01*
X160998Y91353D01*
D02*G37*
G36*
X162297Y91156D02*
X162494Y91235D01*
X161391Y91156D01*
D02*G37*
G36*
X161824Y91077D02*
X162297Y91156D01*
X161391Y91156D01*
D02*G37*
G36*
X239938Y101048D02*
X239347Y101126D01*
X238796Y101048D01*
D02*G37*
G36*
X240449Y100851D02*
X239938Y101048D01*
X238796Y101048D01*
D02*G37*
G36*
X238245Y100812D02*
X240449Y100851D01*
X238796Y101048D01*
D02*G37*
G36*
X239347Y100575D02*
X240449Y100851D01*
X238245Y100812D01*
D02*G37*
G36*
X239662Y100536D02*
X240449Y100851D01*
X239347Y100575D01*
D02*G37*
G36*
X238953Y100497D02*
X239347Y100575D01*
X238245Y100812D01*
D02*G37*
G36*
X237812Y100457D02*
X238953Y100497D01*
X238245Y100812D01*
D02*G37*
G36*
X239977Y100457D02*
X240449Y100851D01*
X239662Y100536D01*
D02*G37*
G36*
X240882Y100457D02*
X240449Y100851D01*
X239977Y100457D01*
D02*G37*
G36*
X238560Y100339D02*
X238953Y100497D01*
X237812Y100457D01*
D02*G37*
G36*
X240213Y100300D02*
X240882Y100457D01*
X239977Y100457D01*
D02*G37*
G36*
X240449Y100103D02*
X240882Y100457D01*
X240213Y100300D01*
D02*G37*
G36*
X238245Y100063D02*
X238560Y100339D01*
X237812Y100457D01*
D02*G37*
G36*
X237497Y99985D02*
X238245Y100063D01*
X237812Y100457D01*
D02*G37*
G36*
X241197Y99985D02*
X240882Y100457D01*
X240449Y100103D01*
D02*G37*
G36*
X240646Y99867D02*
X241197Y99985D01*
X240449Y100103D01*
D02*G37*
G36*
X238048Y99709D02*
X238245Y100063D01*
X237497Y99985D01*
D02*G37*
G36*
X240764Y99552D02*
X241197Y99985D01*
X240646Y99867D01*
D02*G37*
G36*
X237339Y99434D02*
X238048Y99709D01*
X237497Y99985D01*
D02*G37*
G36*
X241394Y99394D02*
X241197Y99985D01*
X240764Y99552D01*
D02*G37*
G36*
X237890Y99276D02*
X238048Y99709D01*
X237339Y99434D01*
D02*G37*
G36*
X240843Y99197D02*
X241394Y99394D01*
X240764Y99552D01*
D02*G37*
G36*
X237260Y98764D02*
X237890Y99276D01*
X237339Y99434D01*
D02*G37*
G36*
X237851Y98764D02*
X237890Y99276D01*
X237260Y98764D01*
D02*G37*
G36*
X240882Y98764D02*
X241394Y99394D01*
X240843Y99197D01*
D02*G37*
G36*
X241473Y98764D02*
X241394Y99394D01*
X240882Y98764D01*
D02*G37*
G36*
X237890Y98331D02*
X237851Y98764D01*
X237260Y98764D01*
D02*G37*
G36*
X240843Y98331D02*
X241473Y98764D01*
X240882Y98764D01*
D02*G37*
G36*
X237300Y98252D02*
X237890Y98331D01*
X237260Y98764D01*
D02*G37*
G36*
X241394Y98095D02*
X241473Y98764D01*
X240843Y98331D01*
D02*G37*
G36*
X240764Y97977D02*
X241394Y98095D01*
X240843Y98331D01*
D02*G37*
G36*
X237969Y97937D02*
X237890Y98331D01*
X237300Y98252D01*
D02*G37*
G36*
X237418Y97780D02*
X237969Y97937D01*
X237300Y98252D01*
D02*G37*
G36*
X240646Y97662D02*
X241394Y98095D01*
X240764Y97977D01*
D02*G37*
G36*
X238127Y97583D02*
X237969Y97937D01*
X237418Y97780D01*
D02*G37*
G36*
X241197Y97544D02*
X241394Y98095D01*
X240646Y97662D01*
D02*G37*
G36*
X240449Y97426D02*
X241197Y97544D01*
X240646Y97662D01*
D02*G37*
G36*
X237615Y97347D02*
X238127Y97583D01*
X237418Y97780D01*
D02*G37*
G36*
X238363Y97347D02*
X238127Y97583D01*
X237615Y97347D01*
D02*G37*
G36*
X238363Y97347D02*
X239191Y97780D01*
X238757Y97583D01*
D02*G37*
G36*
X239347Y97347D02*
X239191Y97780D01*
X238363Y97347D01*
D02*G37*
G36*
X239032Y97229D02*
X239347Y97347D01*
X237615Y97347D01*
D02*G37*
G36*
X240213Y97229D02*
X241197Y97544D01*
X240449Y97426D01*
D02*G37*
G36*
X238757Y97071D02*
X239032Y97229D01*
X237615Y97347D01*
D02*G37*
G36*
X239977Y97071D02*
X241197Y97544D01*
X240213Y97229D01*
D02*G37*
G36*
X240882Y97071D02*
X241197Y97544D01*
X239977Y97071D01*
D02*G37*
G36*
X237930Y96993D02*
X238757Y97071D01*
X237615Y97347D01*
D02*G37*
G36*
X239071Y96993D02*
X238757Y97071D01*
X237930Y96993D01*
D02*G37*
G36*
X239662Y96993D02*
X240882Y97071D01*
X239977Y97071D01*
D02*G37*
G36*
X239347Y96953D02*
X239071Y96993D01*
X237930Y96993D01*
D02*G37*
G36*
X239347Y96953D02*
X240882Y97071D01*
X239662Y96993D01*
D02*G37*
G36*
X237497Y96717D02*
X239347Y96953D01*
X237930Y96993D01*
D02*G37*
G36*
X237497Y96717D02*
X240882Y97071D01*
X239347Y96953D01*
D02*G37*
G36*
X238284Y96717D02*
X240882Y97071D01*
X237497Y96717D01*
D02*G37*
G36*
X240449Y96717D02*
X240882Y97071D01*
X238284Y96717D01*
D02*G37*
G36*
X237142Y96560D02*
X238284Y96717D01*
X237497Y96717D01*
D02*G37*
G36*
X238520Y96560D02*
X240449Y96717D01*
X238284Y96717D01*
D02*G37*
G36*
X240213Y96560D02*
X240449Y96717D01*
X238520Y96560D01*
D02*G37*
G36*
X238796Y96481D02*
X240213Y96560D01*
X238520Y96560D01*
D02*G37*
G36*
X239938Y96481D02*
X240213Y96560D01*
X238796Y96481D01*
D02*G37*
G36*
X239386Y96402D02*
X239938Y96481D01*
X238796Y96481D01*
D02*G37*
G36*
X237812Y96363D02*
X238284Y96717D01*
X237142Y96560D01*
D02*G37*
G36*
X237339Y96126D02*
X237812Y96363D01*
X237142Y96560D01*
D02*G37*
G36*
X234623Y101048D02*
X234623Y96481D01*
X235174Y96481D01*
X235174Y100024D01*
X235410Y99827D01*
X235686Y99670D01*
X235961Y99473D01*
X236237Y99355D01*
X236237Y99906D01*
X235804Y100142D01*
X235449Y100418D01*
X235174Y100733D01*
X234977Y101048D01*
X234623Y101048D01*
D02*G37*
G36*
X84261Y89606D02*
X84852Y89606D01*
X84852Y94173D01*
X84261Y94173D01*
X84261Y89606D01*
D02*G37*
G36*
X80167Y90708D02*
X79970Y91220D01*
X79379Y91062D01*
X79498Y90708D01*
X79655Y90393D01*
X79812Y90157D01*
X80049Y89921D01*
X80324Y89763D01*
X80600Y89606D01*
X80915Y89566D01*
X81230Y89527D01*
X81899Y89606D01*
X82175Y89685D01*
X82411Y89842D01*
X82844Y90196D01*
X83120Y90708D01*
X83277Y91299D01*
X83356Y91929D01*
X83277Y92598D01*
X83080Y93149D01*
X82765Y93622D01*
X82332Y93976D01*
X81820Y94173D01*
X81269Y94251D01*
X80915Y94212D01*
X80639Y94173D01*
X80364Y94055D01*
X80127Y93897D01*
X79734Y93464D01*
X79498Y92913D01*
X80088Y92755D01*
X80285Y93188D01*
X80521Y93464D01*
X80875Y93622D01*
X81269Y93700D01*
X81742Y93622D01*
X82135Y93464D01*
X82450Y93149D01*
X82608Y92795D01*
X82726Y92362D01*
X82765Y91929D01*
X82726Y91377D01*
X82608Y90905D01*
X82372Y90551D01*
X82057Y90275D01*
X81702Y90118D01*
X81309Y90078D01*
X80836Y90157D01*
X80442Y90354D01*
X80167Y90708D01*
D02*G37*
G36*
X78198Y90157D02*
X76033Y90157D01*
X76033Y89606D01*
X78946Y89606D01*
X78868Y90000D01*
X78750Y90314D01*
X78553Y90629D01*
X78238Y90944D01*
X77844Y91299D01*
X77529Y91614D01*
X77253Y91850D01*
X77017Y92086D01*
X76860Y92283D01*
X76702Y92598D01*
X76624Y92952D01*
X76663Y93228D01*
X76860Y93464D01*
X77135Y93661D01*
X77450Y93700D01*
X77805Y93622D01*
X78080Y93464D01*
X78238Y93188D01*
X78316Y92834D01*
X78868Y92913D01*
X78710Y93464D01*
X78435Y93858D01*
X78238Y93976D01*
X78001Y94094D01*
X77726Y94133D01*
X77450Y94173D01*
X77135Y94133D01*
X76860Y94094D01*
X76624Y93976D01*
X76427Y93818D01*
X76269Y93622D01*
X76151Y93385D01*
X76112Y93149D01*
X76072Y92913D01*
X76112Y92637D01*
X76190Y92362D01*
X76309Y92086D01*
X76505Y91811D01*
X76663Y91653D01*
X76820Y91456D01*
X77057Y91259D01*
X77332Y91023D01*
X77568Y90826D01*
X77726Y90669D01*
X77883Y90551D01*
X77962Y90472D01*
X78198Y90157D01*
D02*G37*
G36*
X195845Y165383D02*
X198365Y165423D01*
X196396Y165423D01*
D02*G37*
G36*
X195451Y165305D02*
X198365Y165423D01*
X195845Y165383D01*
D02*G37*
G36*
X195176Y165108D02*
X198365Y165423D01*
X195451Y165305D01*
D02*G37*
G36*
X194979Y164872D02*
X198365Y165423D01*
X195176Y165108D01*
D02*G37*
G36*
X196357Y164872D02*
X198365Y165423D01*
X194979Y164872D01*
D02*G37*
G36*
X197774Y164872D02*
X198365Y165423D01*
X196357Y164872D01*
D02*G37*
G36*
X195924Y164832D02*
X196357Y164872D01*
X194979Y164872D01*
D02*G37*
G36*
X195609Y164675D02*
X195924Y164832D01*
X194979Y164872D01*
D02*G37*
G36*
X194821Y164517D02*
X195609Y164675D01*
X194979Y164872D01*
D02*G37*
G36*
X195412Y164438D02*
X195609Y164675D01*
X194821Y164517D01*
D02*G37*
G36*
X194782Y164163D02*
X195412Y164438D01*
X194821Y164517D01*
D02*G37*
G36*
X195373Y164163D02*
X195412Y164438D01*
X194782Y164163D01*
D02*G37*
G36*
X195412Y163966D02*
X195373Y164163D01*
X194782Y164163D01*
D02*G37*
G36*
X195491Y163769D02*
X195412Y163966D01*
X194782Y164163D01*
D02*G37*
G36*
X194861Y163730D02*
X195491Y163769D01*
X194782Y164163D01*
D02*G37*
G36*
X195648Y163651D02*
X195491Y163769D01*
X194861Y163730D01*
D02*G37*
G36*
X195845Y163533D02*
X195648Y163651D01*
X194861Y163730D01*
D02*G37*
G36*
X196121Y163454D02*
X195845Y163533D01*
X194861Y163730D01*
D02*G37*
G36*
X197775Y163454D02*
X198365Y165423D01*
X197774Y164872D01*
D02*G37*
G36*
X195097Y163375D02*
X196121Y163454D01*
X194861Y163730D01*
D02*G37*
G36*
X195097Y163375D02*
X197775Y163454D01*
X196121Y163454D01*
D02*G37*
G36*
X195254Y163218D02*
X197775Y163454D01*
X195097Y163375D01*
D02*G37*
G36*
X195727Y162982D02*
X197775Y163454D01*
X195254Y163218D01*
D02*G37*
G36*
X196042Y162942D02*
X197775Y163454D01*
X195727Y162982D01*
D02*G37*
G36*
X196869Y162903D02*
X197775Y163454D01*
X196042Y162942D01*
D02*G37*
G36*
X197774Y162903D02*
X197775Y163454D01*
X196869Y162903D01*
D02*G37*
G36*
X197774Y162903D02*
X198365Y165423D01*
X197775Y163454D01*
D02*G37*
G36*
X196750Y162864D02*
X196869Y162903D01*
X196042Y162942D01*
D02*G37*
G36*
X195845Y162824D02*
X196750Y162864D01*
X196042Y162942D01*
D02*G37*
G36*
X196475Y162746D02*
X196750Y162864D01*
X195845Y162824D01*
D02*G37*
G36*
X195687Y162706D02*
X196475Y162746D01*
X195845Y162824D01*
D02*G37*
G36*
X196357Y162627D02*
X196475Y162746D01*
X195687Y162706D01*
D02*G37*
G36*
X195451Y162431D02*
X196357Y162627D01*
X195687Y162706D01*
D02*G37*
G36*
X196199Y162431D02*
X196357Y162627D01*
X195451Y162431D01*
D02*G37*
G36*
X196002Y162155D02*
X196199Y162431D01*
X195451Y162431D01*
D02*G37*
G36*
X195215Y162116D02*
X196002Y162155D01*
X195451Y162431D01*
D02*G37*
G36*
X195766Y161801D02*
X196002Y162155D01*
X195215Y162116D01*
D02*G37*
G36*
X194467Y160856D02*
X195766Y161801D01*
X195215Y162116D01*
D02*G37*
G36*
X195176Y160856D02*
X195766Y161801D01*
X194467Y160856D01*
D02*G37*
G36*
X197774Y160856D02*
X198365Y165423D01*
X197774Y162903D01*
D02*G37*
G36*
X198365Y160856D02*
X198365Y165423D01*
X197774Y160856D01*
D02*G37*
G36*
X192065Y165423D02*
X192065Y160856D01*
X192617Y160856D01*
X192617Y164399D01*
X192853Y164202D01*
X193128Y164045D01*
X193404Y163848D01*
X193680Y163730D01*
X193680Y164281D01*
X193247Y164517D01*
X192892Y164793D01*
X192617Y165108D01*
X192420Y165423D01*
X192065Y165423D01*
D02*G37*
G36*
X59852Y214458D02*
X59655Y214970D01*
X59064Y214812D01*
X59183Y214458D01*
X59340Y214143D01*
X59498Y213907D01*
X59734Y213671D01*
X60009Y213513D01*
X60285Y213356D01*
X60600Y213316D01*
X60915Y213277D01*
X61584Y213356D01*
X61860Y213435D01*
X62096Y213592D01*
X62529Y213946D01*
X62805Y214458D01*
X62962Y215049D01*
X63041Y215679D01*
X62962Y216348D01*
X62765Y216899D01*
X62450Y217372D01*
X62017Y217726D01*
X61505Y217923D01*
X60954Y218001D01*
X60600Y217962D01*
X60324Y217923D01*
X60049Y217805D01*
X59812Y217647D01*
X59419Y217214D01*
X59183Y216663D01*
X59773Y216505D01*
X59970Y216938D01*
X60206Y217214D01*
X60561Y217372D01*
X60954Y217450D01*
X61427Y217372D01*
X61820Y217214D01*
X62135Y216899D01*
X62293Y216545D01*
X62411Y216112D01*
X62450Y215679D01*
X62411Y215127D01*
X62293Y214655D01*
X62057Y214301D01*
X61742Y214025D01*
X61387Y213868D01*
X60994Y213828D01*
X60521Y213907D01*
X60127Y214104D01*
X59852Y214458D01*
D02*G37*
G36*
X56348Y217293D02*
X58513Y217293D01*
X58513Y217844D01*
X55639Y217844D01*
X55639Y217411D01*
X56033Y216860D01*
X56466Y216151D01*
X56820Y215403D01*
X57096Y214616D01*
X57214Y213986D01*
X57293Y213356D01*
X57844Y213356D01*
X57805Y213946D01*
X57647Y214655D01*
X57411Y215403D01*
X57096Y216112D01*
X56742Y216742D01*
X56348Y217293D01*
D02*G37*
G36*
X109646Y2383D02*
X109725Y2856D01*
X109134Y2856D01*
X109056Y2541D01*
X108937Y2265D01*
X108780Y2068D01*
X108544Y1911D01*
X108229Y1793D01*
X107875Y1753D01*
X107560Y1793D01*
X107284Y1871D01*
X107087Y1989D01*
X106930Y2147D01*
X106851Y2344D01*
X106812Y2541D01*
X106851Y2737D01*
X106930Y2895D01*
X107087Y3052D01*
X107323Y3171D01*
X107441Y3210D01*
X107599Y3249D01*
X107796Y3328D01*
X108071Y3367D01*
X108347Y3446D01*
X108583Y3525D01*
X108780Y3604D01*
X108937Y3682D01*
X109213Y3840D01*
X109410Y4076D01*
X109528Y4352D01*
X109567Y4667D01*
X109528Y4982D01*
X109371Y5297D01*
X109134Y5572D01*
X108819Y5769D01*
X108426Y5887D01*
X107993Y5926D01*
X107560Y5887D01*
X107126Y5769D01*
X106812Y5533D01*
X106575Y5257D01*
X106418Y4942D01*
X106339Y4549D01*
X106930Y4549D01*
X107008Y4903D01*
X107245Y5178D01*
X107560Y5336D01*
X107993Y5375D01*
X108426Y5336D01*
X108741Y5178D01*
X108898Y4942D01*
X108977Y4706D01*
X108937Y4470D01*
X108819Y4273D01*
X108701Y4194D01*
X108504Y4115D01*
X108268Y4037D01*
X107953Y3958D01*
X107638Y3879D01*
X107363Y3800D01*
X107126Y3722D01*
X106969Y3682D01*
X106654Y3486D01*
X106418Y3210D01*
X106260Y2895D01*
X106221Y2580D01*
X106260Y2226D01*
X106418Y1871D01*
X106654Y1596D01*
X107008Y1360D01*
X107402Y1241D01*
X107835Y1202D01*
X108386Y1241D01*
X108859Y1399D01*
X109213Y1635D01*
X109489Y1989D01*
X109646Y2383D01*
D02*G37*
G36*
X105670Y2265D02*
X105670Y2580D01*
X105119Y2659D01*
X105079Y2423D01*
X105079Y2226D01*
X105000Y2068D01*
X104922Y1950D01*
X104725Y1793D01*
X104489Y1753D01*
X104252Y1793D01*
X104095Y1871D01*
X103977Y1989D01*
X103859Y2147D01*
X103819Y2383D01*
X103819Y2698D01*
X103819Y5848D01*
X103229Y5848D01*
X103229Y2737D01*
X103268Y2226D01*
X103347Y1832D01*
X103544Y1556D01*
X103780Y1360D01*
X104095Y1241D01*
X104489Y1202D01*
X104764Y1241D01*
X105000Y1281D01*
X105197Y1399D01*
X105355Y1556D01*
X105512Y1753D01*
X105591Y1989D01*
X105670Y2265D01*
D02*G37*
G36*
X100434Y5848D02*
X100434Y1281D01*
X100985Y1281D01*
X100985Y4824D01*
X101221Y4627D01*
X101497Y4470D01*
X101772Y4273D01*
X102048Y4155D01*
X102048Y4706D01*
X101615Y4942D01*
X101260Y5218D01*
X100985Y5533D01*
X100788Y5848D01*
X100434Y5848D01*
D02*G37*
G36*
X184822Y84173D02*
X184822Y79606D01*
X185374Y79606D01*
X185374Y83149D01*
X185610Y82952D01*
X185885Y82795D01*
X186161Y82598D01*
X186437Y82480D01*
X186437Y83031D01*
X186003Y83267D01*
X185649Y83543D01*
X185374Y83858D01*
X185177Y84173D01*
X184822Y84173D01*
D02*G37*
M02*
