%FSLAX35Y35*%
%MOIN*%
%IN4=Loetstoppmaskeunten(X.StopBot)*%
%ADD10C,0.00591*%
%ADD11C,0.00004*%
%ADD12C,0.00200*%
%ADD13C,0.00240*%
%ADD14C,0.00300*%
%ADD15C,0.00384*%
%ADD16C,0.00400*%
%ADD17C,0.00413*%
%ADD18C,0.00535*%
%ADD19C,0.00600*%
%ADD20C,0.00748*%
%ADD21C,0.00768*%
%ADD22C,0.00787*%
%ADD23C,0.00800*%
%ADD24C,0.00886*%
%ADD25C,0.01024*%
%ADD26C,0.01181*%
%ADD27C,0.01575*%
%ADD28C,0.01969*%
%ADD29C,0.02362*%
%ADD30C,0.03150*%
%ADD31C,0.03536*%
%ADD32C,0.05000*%
%ADD33C,0.05906*%
%ADD34C,0.09843*%
%AMR_35*21,1,0.00600,0.07200,0,0,0.000*%
%ADD35R_35*%
%AMR_36*21,1,0.00788,0.03150,0,0,0.000*%
%ADD36R_36*%
%AMR_37*21,1,0.01181,0.00591,0,0,0.000*%
%ADD37R_37*%
%AMR_38*21,1,0.01181,0.01181,0,0,0.000*%
%ADD38R_38*%
%AMR_39*21,1,0.01250,0.04375,0,0,0.000*%
%ADD39R_39*%
%AMR_40*21,1,0.01400,0.05600,0,0,0.000*%
%ADD40R_40*%
%AMR_41*21,1,0.01574,0.04724,0,0,0.000*%
%ADD41R_41*%
%AMR_42*21,1,0.01969,0.05118,0,0,180.000*%
%ADD42R_42*%
%AMR_43*21,1,0.02300,0.01800,0,0,0.000*%
%ADD43R_43*%
%AMR_44*21,1,0.02362,0.05315,0,0,0.000*%
%ADD44R_44*%
%AMR_45*21,1,0.02756,0.11024,0,0,270.000*%
%ADD45R_45*%
%AMR_46*21,1,0.02953,0.05709,0,0,0.000*%
%ADD46R_46*%
%AMR_47*21,1,0.03150,0.00788,0,0,0.000*%
%ADD47R_47*%
%AMR_48*21,1,0.03750,0.01875,0,0,0.000*%
%ADD48R_48*%
%AMR_49*21,1,0.03750,0.13125,0,0,0.000*%
%ADD49R_49*%
%AMR_50*21,1,0.03937,0.05512,0,0,270.000*%
%ADD50R_50*%
%AMR_51*21,1,0.04600,0.05512,0,0,0.000*%
%ADD51R_51*%
%AMR_52*21,1,0.04724,0.01574,0,0,0.000*%
%ADD52R_52*%
%AMR_53*21,1,0.04724,0.04724,0,0,0.000*%
%ADD53R_53*%
%AMR_54*21,1,0.04724,0.04724,0,0,90.000*%
%ADD54R_54*%
%AMR_55*21,1,0.05118,0.01969,0,0,180.000*%
%ADD55R_55*%
%AMR_56*21,1,0.05118,0.05906,0,0,0.000*%
%ADD56R_56*%
%AMR_57*21,1,0.05118,0.05906,0,0,90.000*%
%ADD57R_57*%
%AMR_58*21,1,0.05118,0.05906,0,0,180.000*%
%ADD58R_58*%
%AMR_59*21,1,0.05118,0.06299,0,0,90.000*%
%ADD59R_59*%
%AMR_60*21,1,0.05118,0.06299,0,0,180.000*%
%ADD60R_60*%
%AMR_61*21,1,0.05118,0.06299,0,0,270.000*%
%ADD61R_61*%
%AMR_62*21,1,0.05512,0.05512,0,0,0.000*%
%ADD62R_62*%
%AMR_63*21,1,0.05512,0.05512,0,0,90.000*%
%ADD63R_63*%
%AMR_64*21,1,0.05512,0.05512,0,0,180.000*%
%ADD64R_64*%
%AMR_65*21,1,0.05512,0.05512,0,0,270.000*%
%ADD65R_65*%
%AMR_66*21,1,0.05600,0.01400,0,0,0.000*%
%ADD66R_66*%
%AMR_67*21,1,0.05709,0.02953,0,0,0.000*%
%ADD67R_67*%
%AMR_68*21,1,0.06299,0.06299,0,0,0.000*%
%ADD68R_68*%
%AMR_69*21,1,0.07087,0.07087,0,0,270.000*%
%ADD69R_69*%
%AMR_70*21,1,0.07087,0.11811,0,0,0.000*%
%ADD70R_70*%
%AMR_71*21,1,0.07874,0.06299,0,0,90.000*%
%ADD71R_71*%
%AMR_72*21,1,0.08661,0.04724,0,0,270.000*%
%ADD72R_72*%
%AMR_73*21,1,0.08661,0.08661,0,0,0.000*%
%ADD73R_73*%
%AMR_74*21,1,0.09843,0.19685,0,0,0.000*%
%ADD74R_74*%
%AMR_75*21,1,0.10000,0.01875,0,0,0.000*%
%ADD75R_75*%
%AMR_76*21,1,0.10625,0.01875,0,0,0.000*%
%ADD76R_76*%
%AMR_77*21,1,0.10625,0.19685,0,0,0.000*%
%ADD77R_77*%
%AMR_78*21,1,0.19685,0.09843,0,0,0.000*%
%ADD78R_78*%
%AMR_79*21,1,0.19685,0.19685,0,0,0.000*%
%ADD79R_79*%
%AMOCT_80*4,1,8,0.049213,0.024606,0.024606,0.049213,-0.024606,0.049213,-0.049213,0.024606,-0.049213,-0.024606,-0.024606,-0.049213,0.024606,-0.049213,0.049213,-0.024606,0.049213,0.024606,0.000*%
%ADD80OCT_80*%
G54D30*
X225231Y170856D03*
X44606Y167106D03*
X214606Y229606D03*
X125590Y93882D03*
X191278Y91481D03*
X125590Y78981D03*
X215856Y144606D03*
X149606Y128356D03*
X205856Y132106D03*
X215856Y182106D03*
X211481Y192106D03*
X149212Y93882D03*
X182106Y97106D03*
X214606Y197106D03*
X232106Y87106D03*
X229606Y149606D03*
X110856Y168356D03*
X110856Y213356D03*
X105856Y178356D03*
X105856Y223356D03*
X193356Y127731D03*
X215231Y96481D03*
X202731Y111481D03*
X183981Y143356D03*
X218981Y92731D03*
X93981Y132106D03*
X178981Y135856D03*
X73356Y153356D03*
X58356Y153356D03*
X78981Y167106D03*
X203876Y172106D03*
X115856Y198356D03*
X115856Y243356D03*
X169606Y106481D03*
X93981Y112731D03*
X146481Y68981D03*
X225856Y135856D03*
G54D33*
X142106Y4606D03*
G54D34*
X34055Y9055D03*
X217125Y9055D03*
X217125Y242125D03*
X34055Y242125D03*
G54D42*
X213325Y103979D03*
X210176Y103979D03*
X207026Y103979D03*
X203876Y103979D03*
X200727Y103979D03*
X197577Y103979D03*
X194428Y103979D03*
X191278Y103979D03*
X191278Y139412D03*
X194428Y139412D03*
X197577Y139412D03*
X200727Y139412D03*
X203876Y139412D03*
X207026Y139412D03*
X210176Y139412D03*
X213325Y139412D03*
G54D45*
X238356Y113821D03*
X238356Y109097D03*
X238356Y104372D03*
G54D50*
X106525Y144606D03*
X115187Y140866D03*
X115187Y148346D03*
G54D51*
X101606Y10231D03*
X107606Y10231D03*
G54D55*
X220018Y132719D03*
X220018Y129569D03*
X220018Y126420D03*
X220018Y123270D03*
X220018Y120120D03*
X220018Y116971D03*
X220018Y113821D03*
X220018Y110672D03*
X184585Y110672D03*
X184585Y113821D03*
X184585Y116971D03*
X184585Y120120D03*
X184585Y123270D03*
X184585Y126420D03*
X184585Y129569D03*
X184585Y132719D03*
G54D56*
X160866Y122106D03*
X168346Y122106D03*
X160866Y112106D03*
X168346Y112106D03*
X94291Y105856D03*
X101771Y105856D03*
G54D57*
X127731Y234616D03*
X127731Y242096D03*
X127731Y189616D03*
X127731Y197096D03*
X203876Y158366D03*
X203876Y165846D03*
X50856Y212116D03*
X50856Y219596D03*
G54D58*
X241868Y123270D03*
X234388Y123270D03*
G54D59*
X93981Y118366D03*
X93981Y125846D03*
X93981Y138366D03*
X93981Y145846D03*
G54D60*
X168346Y100231D03*
X160866Y100231D03*
G54D61*
X127418Y148346D03*
X127418Y140866D03*
G54D62*
X191278Y78981D03*
X191278Y68981D03*
X201278Y78193D03*
X201278Y68193D03*
X211278Y78981D03*
X211278Y68981D03*
G54D63*
X237731Y172106D03*
X238518Y182106D03*
X237731Y192106D03*
X238518Y202106D03*
X237731Y212106D03*
X238518Y222106D03*
G54D64*
X204606Y17106D03*
X194606Y17106D03*
X184606Y17106D03*
X174606Y17106D03*
X164606Y17106D03*
X154606Y17106D03*
G54D65*
X13356Y161732D03*
X13356Y177480D03*
X13356Y169606D03*
G54D68*
X125590Y8043D03*
G54D69*
X96850Y243356D03*
X96850Y233356D03*
X96850Y223356D03*
X96850Y213356D03*
X96850Y198356D03*
X96850Y188356D03*
X96850Y178356D03*
X96850Y168356D03*
X159606Y243356D03*
X159606Y233356D03*
X159606Y223356D03*
X159606Y213356D03*
X159606Y198356D03*
X159606Y188356D03*
X159606Y178356D03*
X159606Y168356D03*
X34606Y220856D03*
X34606Y210856D03*
X34606Y200856D03*
X34606Y190856D03*
X34606Y180231D03*
X34606Y230856D03*
G54D70*
X4606Y119758D03*
X4606Y60703D03*
G54D72*
X94094Y93882D03*
X101968Y93882D03*
X109842Y93882D03*
X117716Y93882D03*
X125590Y93882D03*
X133464Y93882D03*
X141338Y93882D03*
X149212Y93882D03*
X135590Y19079D03*
X125590Y19079D03*
X115590Y19079D03*
G54D73*
X24025Y119758D03*
X24025Y60703D03*
G54D80*
X128356Y119758D03*
G36*
X104306Y6631D02*
X104306Y13831D01*
X104906Y13831D01*
X104906Y6631D01*
X104306Y6631D01*
D02*G37*
M02*
