M48
METRIC
T1F00S00C0.400
T2F00S00C0.800
T3F00S00C0.900
T4F00S00C1.000
T5F00S00C1.500
T6F00S00C2.500
%
M71
T1
X31.9000Y23.8463
X37.9000Y23.8463
X57.2088Y43.3975
X11.3300Y42.4450
X54.5100Y58.3200
X31.9000Y23.8463
X48.5848Y23.2363
X31.9000Y20.0613
X54.8275Y36.7300
X38.0000Y32.6025
X52.2875Y33.5550
X54.8275Y46.2550
X53.7163Y48.7950
X37.9000Y23.8463
X46.2550Y24.6650
X54.5100Y50.0650
X58.9550Y22.1250
X58.3200Y38.0000
X28.1575Y42.7625
X28.1575Y54.1925
X26.8875Y45.3025
X26.8875Y56.7325
X49.1125Y32.4438
X54.6688Y24.5063
X51.4938Y28.3163
X46.7313Y36.4125
X55.6213Y23.5538
X23.8713Y33.5550
X45.4613Y34.5075
X18.6325Y38.9525
X14.8225Y38.9525
X20.0613Y42.4450
X51.7848Y43.7150
X29.4275Y50.3825
X29.4275Y61.8125
X43.0800Y27.0463
X23.8713Y28.6338
X37.2063Y17.5213
X57.3675Y34.5075
T2
X3.3925Y41.0800
X3.3925Y45.0800
X3.3925Y43.0800
T3
X60.3838Y43.7150
X60.5838Y46.2550
X60.3838Y48.7950
X60.5838Y51.3350
X60.3838Y53.8750
X60.5838Y56.4150
X48.5848Y20.0613
X48.5848Y17.5213
X51.1248Y19.8613
X51.1248Y17.3213
X53.6648Y20.0613
X53.6648Y17.5213
X51.9700Y4.3450
X49.4300Y4.3450
X46.8900Y4.3450
X44.3500Y4.3450
X41.8100Y4.3450
X39.2700Y4.3450
T4
X31.9000Y2.0431
X24.6000Y61.8125
X24.6000Y59.2725
X24.6000Y56.7325
X24.6000Y54.1925
X24.6000Y50.3825
X24.6000Y47.8425
X24.6000Y45.3025
X24.6000Y42.7625
X40.5400Y61.8125
X40.5400Y59.2725
X40.5400Y56.7325
X40.5400Y54.1925
X40.5400Y50.3825
X40.5400Y47.8425
X40.5400Y45.3025
X40.5400Y42.7625
X1.1700Y30.4188
X1.1700Y15.4188
X8.7900Y56.0975
X8.7900Y53.5575
X8.7900Y51.0175
X8.7900Y48.4775
X6.1025Y30.4188
X6.1025Y15.4188
X8.7900Y45.7788
X8.7900Y58.6375
T5
X36.0950Y1.1700
T6
X32.6025Y30.4188
X8.6500Y2.3000
X55.1500Y2.3000
X55.1500Y61.5000
X8.6500Y61.5000
M30
