%FSLAX35Y35*%
%MOIN*%
%IN16=KupferobenL2(X.Top)*%
%ADD10C,0.00591*%
%ADD11C,0.00004*%
%ADD12C,0.00200*%
%ADD13C,0.00240*%
%ADD14C,0.00300*%
%ADD15C,0.00384*%
%ADD16C,0.00400*%
%ADD17C,0.00413*%
%ADD18C,0.00535*%
%ADD19C,0.00600*%
%ADD20C,0.00748*%
%ADD21C,0.00768*%
%ADD22C,0.00787*%
%ADD23C,0.00800*%
%ADD24C,0.00886*%
%ADD25C,0.01024*%
%ADD26C,0.01181*%
%ADD27C,0.01575*%
%ADD28C,0.01969*%
%ADD29C,0.02362*%
%ADD30C,0.03150*%
%ADD31C,0.03536*%
%ADD32C,0.05000*%
%ADD33C,0.05906*%
%ADD34C,0.09843*%
%AMR_35*21,1,0.00600,0.07200,0,0,0.000*%
%ADD35R_35*%
%AMR_36*21,1,0.00788,0.03150,0,0,0.000*%
%ADD36R_36*%
%AMR_37*21,1,0.01181,0.00591,0,0,0.000*%
%ADD37R_37*%
%AMR_38*21,1,0.01181,0.01181,0,0,0.000*%
%ADD38R_38*%
%AMR_39*21,1,0.01250,0.04375,0,0,0.000*%
%ADD39R_39*%
%AMR_40*21,1,0.01400,0.05600,0,0,0.000*%
%ADD40R_40*%
%AMR_41*21,1,0.01574,0.04724,0,0,0.000*%
%ADD41R_41*%
%AMR_42*21,1,0.01969,0.05118,0,0,180.000*%
%ADD42R_42*%
%AMR_43*21,1,0.02300,0.01800,0,0,0.000*%
%ADD43R_43*%
%AMR_44*21,1,0.02362,0.05315,0,0,0.000*%
%ADD44R_44*%
%AMR_45*21,1,0.02756,0.11024,0,0,270.000*%
%ADD45R_45*%
%AMR_46*21,1,0.02953,0.05709,0,0,0.000*%
%ADD46R_46*%
%AMR_47*21,1,0.03150,0.00788,0,0,0.000*%
%ADD47R_47*%
%AMR_48*21,1,0.03750,0.01875,0,0,0.000*%
%ADD48R_48*%
%AMR_49*21,1,0.03750,0.13125,0,0,0.000*%
%ADD49R_49*%
%AMR_50*21,1,0.03937,0.05512,0,0,270.000*%
%ADD50R_50*%
%AMR_51*21,1,0.04600,0.05512,0,0,0.000*%
%ADD51R_51*%
%AMR_52*21,1,0.04724,0.01574,0,0,0.000*%
%ADD52R_52*%
%AMR_53*21,1,0.04724,0.04724,0,0,0.000*%
%ADD53R_53*%
%AMR_54*21,1,0.04724,0.04724,0,0,90.000*%
%ADD54R_54*%
%AMR_55*21,1,0.05118,0.01969,0,0,180.000*%
%ADD55R_55*%
%AMR_56*21,1,0.05118,0.05906,0,0,0.000*%
%ADD56R_56*%
%AMR_57*21,1,0.05118,0.05906,0,0,90.000*%
%ADD57R_57*%
%AMR_58*21,1,0.05118,0.05906,0,0,180.000*%
%ADD58R_58*%
%AMR_59*21,1,0.05118,0.06299,0,0,90.000*%
%ADD59R_59*%
%AMR_60*21,1,0.05118,0.06299,0,0,180.000*%
%ADD60R_60*%
%AMR_61*21,1,0.05118,0.06299,0,0,270.000*%
%ADD61R_61*%
%AMR_62*21,1,0.05512,0.05512,0,0,0.000*%
%ADD62R_62*%
%AMR_63*21,1,0.05512,0.05512,0,0,90.000*%
%ADD63R_63*%
%AMR_64*21,1,0.05512,0.05512,0,0,180.000*%
%ADD64R_64*%
%AMR_65*21,1,0.05512,0.05512,0,0,270.000*%
%ADD65R_65*%
%AMR_66*21,1,0.05600,0.01400,0,0,0.000*%
%ADD66R_66*%
%AMR_67*21,1,0.05709,0.02953,0,0,0.000*%
%ADD67R_67*%
%AMR_68*21,1,0.06299,0.06299,0,0,0.000*%
%ADD68R_68*%
%AMR_69*21,1,0.07087,0.07087,0,0,270.000*%
%ADD69R_69*%
%AMR_70*21,1,0.07087,0.11811,0,0,0.000*%
%ADD70R_70*%
%AMR_71*21,1,0.07874,0.06299,0,0,90.000*%
%ADD71R_71*%
%AMR_72*21,1,0.08661,0.04724,0,0,270.000*%
%ADD72R_72*%
%AMR_73*21,1,0.08661,0.08661,0,0,0.000*%
%ADD73R_73*%
%AMR_74*21,1,0.09843,0.19685,0,0,0.000*%
%ADD74R_74*%
%AMR_75*21,1,0.10000,0.01875,0,0,0.000*%
%ADD75R_75*%
%AMR_76*21,1,0.10625,0.01875,0,0,0.000*%
%ADD76R_76*%
%AMR_77*21,1,0.10625,0.19685,0,0,0.000*%
%ADD77R_77*%
%AMR_78*21,1,0.19685,0.09843,0,0,0.000*%
%ADD78R_78*%
%AMR_79*21,1,0.19685,0.19685,0,0,0.000*%
%ADD79R_79*%
%AMOCT_80*4,1,8,0.049213,0.024606,0.024606,0.049213,-0.024606,0.049213,-0.049213,0.024606,-0.049213,-0.024606,-0.024606,-0.049213,0.024606,-0.049213,0.049213,-0.024606,0.049213,0.024606,0.000*%
%ADD80OCT_80*%
G54D27*
X220356Y170856D02*
X225231Y170856D01*
X220356Y170856D02*
X220356Y169562D01*
X49222Y167106D02*
X44606Y167106D01*
X219606Y227111D02*
X219606Y229606D01*
X214606Y229606D01*
X125590Y93882D02*
X125590Y78981D01*
X191278Y91481D02*
X191278Y78981D01*
X149606Y128356D02*
X182106Y128356D01*
X184606Y130856D01*
X184606Y136481D01*
X178981Y142106D01*
X178981Y146481D01*
X180856Y148356D01*
X212106Y148356D01*
X215856Y144606D01*
X205856Y132106D02*
X211278Y132106D01*
X211278Y78981D01*
X230196Y160900D02*
X225231Y160900D01*
X230196Y160900D02*
X230241Y160856D01*
X225231Y160900D02*
X225231Y146059D01*
X225231Y160900D02*
X220356Y160900D01*
X225231Y146059D02*
X211278Y132106D01*
X215856Y182106D02*
X238518Y182106D01*
X211481Y192106D02*
X237731Y192106D01*
X149212Y93882D02*
X165757Y93882D01*
X168981Y97106D01*
X182106Y97106D01*
X219606Y199601D02*
X219606Y197106D01*
X214606Y197106D01*
X232106Y87106D02*
X232106Y139606D01*
X229606Y149606D02*
X229606Y142106D01*
X232106Y139606D01*
X57490Y167106D02*
X66491Y167106D01*
X88356Y168356D02*
X96850Y168356D01*
X88356Y168356D02*
X65856Y190856D01*
X34606Y190856D01*
X18346Y190856D02*
X34606Y190856D01*
X110856Y168356D02*
X110856Y213356D01*
X84606Y178356D02*
X96850Y178356D01*
X84606Y178356D02*
X62106Y200856D01*
X34606Y200856D01*
X18346Y200856D02*
X34606Y200856D01*
X105856Y178356D02*
X105856Y223356D01*
X164606Y17106D02*
X164606Y25856D01*
X182106Y43356D01*
X182106Y89606D01*
X193356Y100856D01*
X193356Y127731D01*
X194606Y34606D02*
X194606Y17106D01*
X194606Y34606D02*
X223356Y63356D01*
X223356Y94606D01*
X221481Y96481D01*
X215231Y96481D01*
X183981Y143356D02*
X202731Y124606D01*
X202731Y111481D01*
X184606Y17106D02*
X184606Y29606D01*
X218981Y63981D01*
X218981Y92731D01*
X178981Y135856D02*
X97731Y135856D01*
X93981Y132106D01*
X73356Y153356D02*
X58356Y153356D01*
X13356Y169606D02*
X29606Y169606D01*
X29606Y168346D01*
X73971Y167106D02*
X78981Y167106D01*
X210856Y165231D02*
X205856Y165231D01*
X2106Y190856D02*
X10866Y190856D01*
X34606Y220856D02*
X4606Y220856D01*
X10866Y200856D02*
X2106Y200856D01*
X2106Y190856D02*
X2106Y200856D01*
X2106Y218356D01*
X4606Y220856D01*
X2106Y218356D02*
X2106Y200856D01*
X115856Y198356D02*
X115856Y243356D01*
X22106Y159606D02*
X28356Y159606D01*
X29606Y160866D01*
X22106Y159606D02*
X19980Y161732D01*
X13356Y161732D01*
X34606Y220856D02*
X60856Y220856D01*
X83356Y243356D01*
X96850Y243356D01*
X169606Y106481D02*
X163981Y100856D01*
X142106Y100856D01*
X146481Y68981D02*
X142106Y73356D01*
X142106Y100856D01*
X174606Y17106D02*
X174606Y28981D01*
X191278Y45653D01*
X191278Y68981D01*
X205856Y165231D02*
X203876Y167210D01*
X203876Y172106D01*
X13356Y161732D02*
X4980Y161732D01*
X2106Y164606D01*
X2106Y190856D01*
X24025Y119758D02*
X86953Y119758D01*
X93981Y112731D01*
X105856Y100856D01*
X142106Y100856D01*
X237731Y172106D02*
X237731Y160856D01*
X237721Y160856D01*
X227731Y98356D02*
X227731Y62731D01*
X204606Y39606D02*
X227731Y62731D01*
X204606Y17106D02*
X204606Y39606D01*
X227731Y98356D02*
X225856Y100231D01*
X225856Y135856D01*
G54D30*
X225231Y170856D03*
X44606Y167106D03*
X214606Y229606D03*
X125590Y93882D03*
X191278Y91481D03*
X125590Y78981D03*
X215856Y144606D03*
X149606Y128356D03*
X205856Y132106D03*
X215856Y182106D03*
X211481Y192106D03*
X149212Y93882D03*
X182106Y97106D03*
X214606Y197106D03*
X232106Y87106D03*
X229606Y149606D03*
X110856Y168356D03*
X110856Y213356D03*
X105856Y178356D03*
X105856Y223356D03*
X193356Y127731D03*
X215231Y96481D03*
X202731Y111481D03*
X183981Y143356D03*
X218981Y92731D03*
X93981Y132106D03*
X178981Y135856D03*
X73356Y153356D03*
X58356Y153356D03*
X78981Y167106D03*
X203876Y172106D03*
X115856Y198356D03*
X115856Y243356D03*
X169606Y106481D03*
X93981Y112731D03*
X146481Y68981D03*
X225856Y135856D03*
G54D53*
X220356Y160900D03*
X220356Y169562D03*
X210856Y165231D03*
G54D54*
X49222Y167106D03*
X57490Y167106D03*
G54D58*
X237721Y160856D03*
X230241Y160856D03*
G54D59*
X29606Y160866D03*
X29606Y168346D03*
G54D60*
X73971Y167106D03*
X66491Y167106D03*
X18346Y190856D03*
X10866Y190856D03*
X18346Y200856D03*
X10866Y200856D03*
G54D62*
X191278Y78981D03*
X191278Y68981D03*
X201278Y78193D03*
X201278Y68193D03*
X211278Y78981D03*
X211278Y68981D03*
G54D63*
X237731Y172106D03*
X238518Y182106D03*
X237731Y192106D03*
X238518Y202106D03*
X237731Y212106D03*
X238518Y222106D03*
G54D64*
X204606Y17106D03*
X194606Y17106D03*
X184606Y17106D03*
X174606Y17106D03*
X164606Y17106D03*
X154606Y17106D03*
G54D65*
X13356Y161732D03*
X13356Y177480D03*
X13356Y169606D03*
G54D68*
X125590Y8043D03*
G54D69*
X96850Y243356D03*
X96850Y233356D03*
X96850Y223356D03*
X96850Y213356D03*
X96850Y198356D03*
X96850Y188356D03*
X96850Y178356D03*
X96850Y168356D03*
X159606Y243356D03*
X159606Y233356D03*
X159606Y223356D03*
X159606Y213356D03*
X159606Y198356D03*
X159606Y188356D03*
X159606Y178356D03*
X159606Y168356D03*
X34606Y220856D03*
X34606Y210856D03*
X34606Y200856D03*
X34606Y190856D03*
X34606Y180231D03*
X34606Y230856D03*
G54D70*
X4606Y119758D03*
X4606Y60703D03*
G54D71*
X219606Y199601D03*
X219606Y227111D03*
G54D73*
X24025Y119758D03*
X24025Y60703D03*
G36*
X45797Y4438D02*
X45206Y4438D01*
X44655Y5147D01*
X44222Y5935D01*
X44064Y6368D01*
X43946Y6801D01*
X43868Y7234D01*
X43828Y7706D01*
X43907Y8494D01*
X44143Y9242D01*
X44301Y9635D01*
X44576Y10068D01*
X44852Y10501D01*
X45206Y10935D01*
X45797Y10935D01*
X45600Y10580D01*
X45403Y10265D01*
X45285Y10029D01*
X45167Y9872D01*
X44970Y9399D01*
X44812Y8927D01*
X44694Y8336D01*
X44655Y7706D01*
X44734Y6919D01*
X44931Y6092D01*
X45285Y5265D01*
X45797Y4438D01*
D02*G37*
G36*
X50285Y7431D02*
X50364Y7746D01*
X51230Y7509D01*
X51072Y7116D01*
X50915Y6761D01*
X50679Y6446D01*
X50403Y6210D01*
X50088Y6013D01*
X49734Y5895D01*
X49340Y5816D01*
X48907Y5777D01*
X48513Y5777D01*
X48120Y5856D01*
X47765Y5974D01*
X47450Y6092D01*
X46978Y6525D01*
X46584Y7076D01*
X46387Y7706D01*
X46309Y8415D01*
X46348Y8769D01*
X46387Y9124D01*
X46505Y9438D01*
X46624Y9753D01*
X47017Y10265D01*
X47568Y10620D01*
X48198Y10856D01*
X48907Y10935D01*
X49301Y10895D01*
X49694Y10816D01*
X50009Y10698D01*
X50324Y10541D01*
X50600Y10305D01*
X50797Y10068D01*
X50994Y9753D01*
X51112Y9399D01*
X50285Y9242D01*
X50167Y9478D01*
X50049Y9675D01*
X49891Y9872D01*
X49734Y9990D01*
X49340Y10147D01*
X48868Y10226D01*
X48356Y10147D01*
X47883Y9990D01*
X47568Y9675D01*
X47332Y9281D01*
X47214Y8848D01*
X47175Y8415D01*
X47214Y7824D01*
X47372Y7352D01*
X47608Y6958D01*
X47962Y6683D01*
X48395Y6525D01*
X48868Y6486D01*
X49379Y6564D01*
X49812Y6761D01*
X50009Y6958D01*
X50167Y7155D01*
X50285Y7431D01*
D02*G37*
G36*
X53080Y5147D02*
X52529Y4438D01*
X51938Y4438D01*
X52450Y5265D01*
X52805Y6092D01*
X53001Y6919D01*
X53080Y7706D01*
X53041Y8297D01*
X52923Y8927D01*
X52765Y9399D01*
X52568Y9872D01*
X52450Y10029D01*
X52332Y10265D01*
X52175Y10580D01*
X51938Y10935D01*
X52529Y10935D01*
X52883Y10501D01*
X53159Y10068D01*
X53435Y9635D01*
X53592Y9242D01*
X53828Y8494D01*
X53907Y7706D01*
X53868Y7273D01*
X53828Y6801D01*
X53671Y6368D01*
X53513Y5935D01*
X53080Y5147D01*
D02*G37*
G36*
X57529Y6564D02*
X60167Y6564D01*
X60167Y5856D01*
X56505Y5856D01*
X56505Y6131D01*
X56584Y6368D01*
X56742Y6722D01*
X57017Y7037D01*
X57372Y7391D01*
X57844Y7785D01*
X58238Y8100D01*
X58553Y8375D01*
X58828Y8612D01*
X58986Y8809D01*
X59222Y9163D01*
X59301Y9478D01*
X59222Y9753D01*
X59064Y9990D01*
X58750Y10187D01*
X58395Y10226D01*
X57962Y10147D01*
X57687Y9990D01*
X57490Y9714D01*
X57411Y9281D01*
X56584Y9360D01*
X56663Y9714D01*
X56742Y10029D01*
X56899Y10265D01*
X57135Y10501D01*
X57372Y10659D01*
X57687Y10777D01*
X58001Y10816D01*
X58395Y10856D01*
X58789Y10816D01*
X59104Y10738D01*
X59419Y10620D01*
X59655Y10462D01*
X59852Y10226D01*
X60009Y9990D01*
X60088Y9753D01*
X60127Y9478D01*
X60088Y9163D01*
X60009Y8848D01*
X59812Y8572D01*
X59576Y8257D01*
X59379Y8061D01*
X59183Y7864D01*
X58907Y7627D01*
X58592Y7391D01*
X58316Y7194D01*
X58120Y7037D01*
X57923Y6879D01*
X57805Y6801D01*
X57647Y6643D01*
X57529Y6564D01*
D02*G37*
G36*
X61743Y8336D02*
X60915Y8336D01*
X60915Y8730D01*
X60954Y9124D01*
X61033Y9438D01*
X61112Y9714D01*
X61348Y10226D01*
X61702Y10580D01*
X62175Y10777D01*
X62726Y10856D01*
X63159Y10816D01*
X63513Y10698D01*
X63868Y10462D01*
X64104Y10226D01*
X64261Y9872D01*
X64419Y9478D01*
X64498Y8966D01*
X64537Y8336D01*
X64537Y7903D01*
X64498Y7549D01*
X64419Y7194D01*
X64340Y6919D01*
X64104Y6407D01*
X63750Y6053D01*
X63277Y5856D01*
X62726Y5777D01*
X62332Y5816D01*
X62017Y5895D01*
X61702Y6092D01*
X61427Y6289D01*
X61230Y6683D01*
X61033Y7116D01*
X60954Y7667D01*
X60916Y8336D01*
X61742Y8336D01*
X61742Y7785D01*
X61820Y7352D01*
X61899Y6998D01*
X62017Y6761D01*
X62175Y6604D01*
X62372Y6486D01*
X62529Y6446D01*
X62726Y6407D01*
X62923Y6446D01*
X63080Y6486D01*
X63277Y6604D01*
X63435Y6761D01*
X63553Y6998D01*
X63631Y7352D01*
X63710Y7785D01*
X63710Y8336D01*
X63710Y8848D01*
X63631Y9281D01*
X63553Y9635D01*
X63435Y9872D01*
X63277Y10029D01*
X63120Y10147D01*
X62923Y10187D01*
X62726Y10226D01*
X62332Y10147D01*
X62057Y9911D01*
X61938Y9675D01*
X61820Y9320D01*
X61781Y8848D01*
X61743Y8336D01*
D02*G37*
G36*
X67805Y10856D02*
X67805Y5856D01*
X66978Y5856D01*
X66978Y9675D01*
X66781Y9478D01*
X66466Y9242D01*
X66072Y9084D01*
X65679Y8927D01*
X65679Y9596D01*
X66190Y9872D01*
X66663Y10187D01*
X66978Y10501D01*
X67253Y10856D01*
X67805Y10856D01*
D02*G37*
G36*
X71742Y10777D02*
X71230Y10856D01*
X70875Y10816D01*
D02*G37*
G36*
X70561Y10738D02*
X71742Y10777D01*
X70875Y10816D01*
D02*G37*
G36*
X70246Y10580D02*
X71742Y10777D01*
X70561Y10738D01*
D02*G37*
G36*
X72214Y10580D02*
X71742Y10777D01*
X70246Y10580D01*
D02*G37*
G36*
X69970Y10383D02*
X72214Y10580D01*
X70246Y10580D01*
D02*G37*
G36*
X72608Y10265D02*
X72214Y10580D01*
X69970Y10383D01*
D02*G37*
G36*
X71309Y10226D02*
X72608Y10265D01*
X69970Y10383D01*
D02*G37*
G36*
X69773Y10147D02*
X71309Y10226D01*
X69970Y10383D01*
D02*G37*
G36*
X70915Y10147D02*
X71309Y10226D01*
X69773Y10147D01*
D02*G37*
G36*
X71702Y10147D02*
X72608Y10265D01*
X71309Y10226D01*
D02*G37*
G36*
X70600Y9950D02*
X70915Y10147D01*
X69773Y10147D01*
D02*G37*
G36*
X71978Y9950D02*
X72608Y10265D01*
X71702Y10147D01*
D02*G37*
G36*
X69616Y9832D02*
X70600Y9950D01*
X69773Y10147D01*
D02*G37*
G36*
X72883Y9832D02*
X72608Y10265D01*
X71978Y9950D01*
D02*G37*
G36*
X72175Y9635D02*
X72883Y9832D01*
X71978Y9950D01*
D02*G37*
G36*
X70403Y9596D02*
X70600Y9950D01*
X69616Y9832D01*
D02*G37*
G36*
X73001Y9557D02*
X72883Y9832D01*
X72175Y9635D01*
D02*G37*
G36*
X69537Y9517D02*
X70403Y9596D01*
X69616Y9832D01*
D02*G37*
G36*
X72254Y9242D02*
X73001Y9557D01*
X72175Y9635D01*
D02*G37*
G36*
X73080Y9242D02*
X73001Y9557D01*
X72254Y9242D01*
D02*G37*
G36*
X69498Y9163D02*
X70403Y9596D01*
X69537Y9517D01*
D02*G37*
G36*
X70324Y9163D02*
X70403Y9596D01*
X69498Y9163D01*
D02*G37*
G36*
X73120Y8887D02*
X73080Y9242D01*
X72254Y9242D01*
D02*G37*
G36*
X69537Y8809D02*
X70324Y9163D01*
X69498Y9163D01*
D02*G37*
G36*
X72175Y8809D02*
X73120Y8887D01*
X72254Y9242D01*
D02*G37*
G36*
X70403Y8769D02*
X70324Y9163D01*
X69537Y8809D01*
D02*G37*
G36*
X69616Y8494D02*
X70403Y8769D01*
X69537Y8809D01*
D02*G37*
G36*
X70600Y8494D02*
X70403Y8769D01*
X69616Y8494D01*
D02*G37*
G36*
X71978Y8494D02*
X73120Y8887D01*
X72175Y8809D01*
D02*G37*
G36*
X70915Y8297D02*
X70600Y8494D01*
X69616Y8494D01*
D02*G37*
G36*
X71663Y8297D02*
X73120Y8887D01*
X71978Y8494D01*
D02*G37*
G36*
X69773Y8218D02*
X70915Y8297D01*
X69616Y8494D01*
D02*G37*
G36*
X71309Y8218D02*
X70915Y8297D01*
X69773Y8218D01*
D02*G37*
G36*
X72293Y8100D02*
X73120Y8887D01*
X71663Y8297D01*
D02*G37*
G36*
X72293Y8100D02*
X71663Y8297D01*
X71309Y8218D01*
D02*G37*
G36*
X72293Y8100D02*
X71309Y8218D01*
X69773Y8218D01*
D02*G37*
G36*
X73120Y8021D02*
X73120Y8887D01*
X72293Y8100D01*
D02*G37*
G36*
X69970Y7982D02*
X72293Y8100D01*
X69773Y8218D01*
D02*G37*
G36*
X72175Y7903D02*
X72293Y8100D01*
X69970Y7982D01*
D02*G37*
G36*
X70206Y7746D02*
X72175Y7903D01*
X69970Y7982D01*
D02*G37*
G36*
X72293Y7746D02*
X73120Y8021D01*
X72293Y8100D01*
D02*G37*
G36*
X71899Y7706D02*
X72175Y7903D01*
X70206Y7746D01*
D02*G37*
G36*
X70482Y7627D02*
X71899Y7706D01*
X70206Y7746D01*
D02*G37*
G36*
X73080Y7627D02*
X73120Y8021D01*
X72293Y7746D01*
D02*G37*
G36*
X70797Y7549D02*
X71899Y7706D01*
X70482Y7627D01*
D02*G37*
G36*
X71505Y7549D02*
X71899Y7706D01*
X70797Y7549D01*
D02*G37*
G36*
X71112Y7509D02*
X71505Y7549D01*
X70797Y7549D01*
D02*G37*
G36*
X72214Y7391D02*
X73080Y7627D01*
X72293Y7746D01*
D02*G37*
G36*
X73001Y7273D02*
X73080Y7627D01*
X72214Y7391D01*
D02*G37*
G36*
X72096Y7076D02*
X73001Y7273D01*
X72214Y7391D01*
D02*G37*
G36*
X72883Y6958D02*
X73001Y7273D01*
X72096Y7076D01*
D02*G37*
G36*
X71978Y6840D02*
X72883Y6958D01*
X72096Y7076D01*
D02*G37*
G36*
X69655Y6801D02*
X70403Y7194D01*
X69576Y7116D01*
D02*G37*
G36*
X70521Y6801D02*
X70403Y7194D01*
X69655Y6801D01*
D02*G37*
G36*
X71820Y6643D02*
X72883Y6958D01*
X71978Y6840D01*
D02*G37*
G36*
X70679Y6564D02*
X70521Y6801D01*
X69655Y6801D01*
D02*G37*
G36*
X69734Y6525D02*
X70679Y6564D01*
X69655Y6801D01*
D02*G37*
G36*
X71663Y6525D02*
X72883Y6958D01*
X71820Y6643D01*
D02*G37*
G36*
X70915Y6446D02*
X70679Y6564D01*
X69734Y6525D01*
D02*G37*
G36*
X72608Y6446D02*
X72883Y6958D01*
X71663Y6525D01*
D02*G37*
G36*
X72608Y6446D02*
X71663Y6525D01*
X71427Y6446D01*
D02*G37*
G36*
X71190Y6407D02*
X70915Y6446D01*
X69734Y6525D01*
D02*G37*
G36*
X71190Y6407D02*
X72608Y6446D01*
X71427Y6446D01*
D02*G37*
G36*
X69891Y6289D02*
X71190Y6407D01*
X69734Y6525D01*
D02*G37*
G36*
X69891Y6289D02*
X72608Y6446D01*
X71190Y6407D01*
D02*G37*
G36*
X72214Y6092D02*
X72608Y6446D01*
X69891Y6289D01*
D02*G37*
G36*
X70285Y5974D02*
X72214Y6092D01*
X69891Y6289D01*
D02*G37*
G36*
X71978Y5935D02*
X72214Y6092D01*
X70285Y5974D01*
D02*G37*
G36*
X70561Y5856D02*
X71978Y5935D01*
X70285Y5974D01*
D02*G37*
G36*
X71702Y5856D02*
X71978Y5935D01*
X70561Y5856D01*
D02*G37*
G36*
X70836Y5777D02*
X71702Y5856D01*
X70561Y5856D01*
D02*G37*
G36*
X71151Y5777D02*
X71702Y5856D01*
X70836Y5777D01*
D02*G37*
G36*
X78435Y5856D02*
X77568Y5856D01*
X77568Y10147D01*
X75797Y10147D01*
X75797Y10856D01*
X80206Y10856D01*
X80206Y10147D01*
X78435Y10147D01*
X78435Y5856D01*
D02*G37*
G36*
X81467Y7706D02*
X80639Y7706D01*
X80679Y8179D01*
X80797Y8572D01*
X80994Y8927D01*
X81269Y9202D01*
X81505Y9360D01*
X81820Y9478D01*
X82135Y9557D01*
X82490Y9596D01*
X82883Y9557D01*
X83238Y9478D01*
X83553Y9320D01*
X83828Y9084D01*
X84064Y8809D01*
X84222Y8494D01*
X84301Y8139D01*
X84340Y7746D01*
X84301Y7116D01*
X84104Y6643D01*
X83828Y6289D01*
X83435Y6013D01*
X83001Y5816D01*
X82490Y5777D01*
X82096Y5816D01*
X81742Y5895D01*
X81427Y6053D01*
X81151Y6289D01*
X80915Y6564D01*
X80757Y6879D01*
X80679Y7273D01*
X80640Y7706D01*
X81466Y7706D01*
X81505Y7391D01*
X81545Y7116D01*
X81624Y6919D01*
X81781Y6722D01*
X81938Y6564D01*
X82096Y6486D01*
X82293Y6407D01*
X82490Y6407D01*
X82687Y6407D01*
X82883Y6486D01*
X83041Y6564D01*
X83198Y6722D01*
X83356Y6919D01*
X83435Y7116D01*
X83513Y7391D01*
X83513Y7706D01*
X83435Y8257D01*
X83238Y8651D01*
X82883Y8887D01*
X82490Y8966D01*
X82096Y8887D01*
X81742Y8651D01*
X81624Y8494D01*
X81545Y8257D01*
X81466Y8021D01*
X81467Y7706D01*
D02*G37*
G36*
X85954Y5856D02*
X85127Y5856D01*
X85127Y9517D01*
X85954Y9517D01*
X85954Y9084D01*
X86033Y9242D01*
X86269Y9438D01*
X86624Y9557D01*
X87017Y9596D01*
X87411Y9557D01*
X87765Y9399D01*
X88001Y9242D01*
X88120Y9005D01*
X88316Y9281D01*
X88592Y9438D01*
X88907Y9557D01*
X89301Y9596D01*
X89852Y9517D01*
X90246Y9281D01*
X90403Y9124D01*
X90482Y8887D01*
X90561Y8651D01*
X90600Y8375D01*
X90600Y5856D01*
X89773Y5856D01*
X89773Y8179D01*
X89734Y8454D01*
X89694Y8651D01*
X89616Y8769D01*
X89498Y8887D01*
X89340Y8927D01*
X89143Y8966D01*
X88789Y8887D01*
X88513Y8730D01*
X88316Y8454D01*
X88277Y7982D01*
X88277Y5856D01*
X87450Y5856D01*
X87450Y8257D01*
X87411Y8572D01*
X87293Y8769D01*
X87096Y8927D01*
X86820Y8966D01*
X86584Y8927D01*
X86348Y8848D01*
X86151Y8690D01*
X86033Y8494D01*
X85954Y8179D01*
X85954Y7785D01*
X85954Y5856D01*
D02*G37*
G36*
X94616Y5856D02*
X93750Y5856D01*
X93750Y10856D01*
X94931Y10856D01*
X96269Y7391D01*
X96348Y7155D01*
X96387Y6958D01*
X96427Y6840D01*
X96466Y6722D01*
X96466Y6840D01*
X96505Y6998D01*
X96584Y7194D01*
X96663Y7431D01*
X98001Y10856D01*
X99104Y10856D01*
X99104Y5856D01*
X98238Y5856D01*
X98238Y9950D01*
X96781Y5856D01*
X96033Y5856D01*
X94616Y9990D01*
X94616Y5856D01*
D02*G37*
G36*
X102332Y9557D02*
X101860Y9596D01*
X101348Y9557D01*
D02*G37*
G36*
X100915Y9478D02*
X102332Y9557D01*
X101348Y9557D01*
D02*G37*
G36*
X102687Y9478D02*
X102332Y9557D01*
X100915Y9478D01*
D02*G37*
G36*
X103001Y9360D02*
X102687Y9478D01*
X100915Y9478D01*
D02*G37*
G36*
X100561Y9281D02*
X103001Y9360D01*
X100915Y9478D01*
D02*G37*
G36*
X103198Y9202D02*
X103001Y9360D01*
X100561Y9281D01*
D02*G37*
G36*
X100324Y9084D02*
X103198Y9202D01*
X100561Y9281D01*
D02*G37*
G36*
X103316Y9005D02*
X103198Y9202D01*
X100324Y9084D01*
D02*G37*
G36*
X101742Y8966D02*
X103316Y9005D01*
X100324Y9084D01*
D02*G37*
G36*
X101387Y8927D02*
X101742Y8966D01*
X100324Y9084D01*
D02*G37*
G36*
X102135Y8927D02*
X103316Y9005D01*
X101742Y8966D01*
D02*G37*
G36*
X101112Y8848D02*
X101387Y8927D01*
X100324Y9084D01*
D02*G37*
G36*
X100127Y8769D02*
X101112Y8848D01*
X100324Y9084D01*
D02*G37*
G36*
X102411Y8769D02*
X103316Y9005D01*
X102135Y8927D01*
D02*G37*
G36*
X103395Y8769D02*
X103316Y9005D01*
X102411Y8769D01*
D02*G37*
G36*
X100954Y8612D02*
X101112Y8848D01*
X100127Y8769D01*
D02*G37*
G36*
X102529Y8612D02*
X103395Y8769D01*
X102411Y8769D01*
D02*G37*
G36*
X103435Y8533D02*
X103395Y8769D01*
X102529Y8612D01*
D02*G37*
G36*
X100009Y8375D02*
X100954Y8612D01*
X100127Y8769D01*
D02*G37*
G36*
X102568Y8336D02*
X103435Y8533D01*
X102529Y8612D01*
D02*G37*
G36*
X100797Y8297D02*
X100954Y8612D01*
X100009Y8375D01*
D02*G37*
G36*
X102568Y8179D02*
X103435Y8533D01*
X102568Y8336D01*
D02*G37*
G36*
X101151Y7942D02*
X101860Y8061D01*
X101505Y8021D01*
D02*G37*
G36*
X101151Y7942D02*
X102135Y8100D01*
X101860Y8061D01*
D02*G37*
G36*
X100915Y7903D02*
X102135Y8100D01*
X101151Y7942D01*
D02*G37*
G36*
X100403Y7706D02*
X102135Y8100D01*
X100915Y7903D01*
D02*G37*
G36*
X100403Y7706D02*
X102372Y8139D01*
X102135Y8100D01*
D02*G37*
G36*
X100403Y7706D02*
X102568Y8179D01*
X102372Y8139D01*
D02*G37*
G36*
X102569Y7627D02*
X103435Y8533D01*
X102568Y8179D01*
D02*G37*
G36*
X102569Y7627D02*
X102568Y8179D01*
X100403Y7706D01*
D02*G37*
G36*
X100206Y7549D02*
X102569Y7627D01*
X100403Y7706D01*
D02*G37*
G36*
X102411Y7549D02*
X102569Y7627D01*
X100206Y7549D01*
D02*G37*
G36*
X102214Y7509D02*
X102411Y7549D01*
X100206Y7549D01*
D02*G37*
G36*
X102568Y7470D02*
X103435Y8533D01*
X102569Y7627D01*
D02*G37*
G36*
X101938Y7431D02*
X102214Y7509D01*
X100206Y7549D01*
D02*G37*
G36*
X101584Y7391D02*
X101938Y7431D01*
X100206Y7549D01*
D02*G37*
G36*
X100049Y7352D02*
X101584Y7391D01*
X100206Y7549D01*
D02*G37*
G36*
X101269Y7352D02*
X101584Y7391D01*
X100049Y7352D01*
D02*G37*
G36*
X101072Y7273D02*
X101269Y7352D01*
X100049Y7352D01*
D02*G37*
G36*
X100915Y7194D02*
X101072Y7273D01*
X100049Y7352D01*
D02*G37*
G36*
X102529Y7155D02*
X103435Y8533D01*
X102568Y7470D01*
D02*G37*
G36*
X99970Y7116D02*
X100915Y7194D01*
X100049Y7352D01*
D02*G37*
G36*
X100836Y7116D02*
X100915Y7194D01*
X99970Y7116D01*
D02*G37*
G36*
X102450Y6919D02*
X103435Y8533D01*
X102529Y7155D01*
D02*G37*
G36*
X99931Y6879D02*
X100836Y7116D01*
X99970Y7116D01*
D02*G37*
G36*
X100757Y6879D02*
X100836Y7116D01*
X99931Y6879D01*
D02*G37*
G36*
X103435Y6722D02*
X103435Y8533D01*
X102450Y6919D01*
D02*G37*
G36*
X100797Y6683D02*
X100757Y6879D01*
X99931Y6879D01*
D02*G37*
G36*
X102293Y6683D02*
X103435Y6722D01*
X102450Y6919D01*
D02*G37*
G36*
X99970Y6643D02*
X100797Y6683D01*
X99931Y6879D01*
D02*G37*
G36*
X100915Y6525D02*
X100797Y6683D01*
X99970Y6643D01*
D02*G37*
G36*
X103474Y6525D02*
X103435Y6722D01*
X102293Y6683D01*
D02*G37*
G36*
X102057Y6486D02*
X103474Y6525D01*
X102293Y6683D01*
D02*G37*
G36*
X100009Y6446D02*
X100915Y6525D01*
X99970Y6643D01*
D02*G37*
G36*
X101151Y6407D02*
X100915Y6525D01*
X100009Y6446D01*
D02*G37*
G36*
X101781Y6407D02*
X103474Y6525D01*
X102057Y6486D01*
D02*G37*
G36*
X101466Y6368D02*
X101151Y6407D01*
X100009Y6446D01*
D02*G37*
G36*
X101466Y6368D02*
X103474Y6525D01*
X101781Y6407D01*
D02*G37*
G36*
X103474Y6368D02*
X103474Y6525D01*
X101466Y6368D01*
D02*G37*
G36*
X102647Y6289D02*
X103474Y6368D01*
X101466Y6368D01*
D02*G37*
G36*
X102647Y6289D02*
X101466Y6368D01*
X100009Y6446D01*
D02*G37*
G36*
X100127Y6250D02*
X102647Y6289D01*
X100009Y6446D01*
D02*G37*
G36*
X103553Y6131D02*
X103474Y6368D01*
X102647Y6289D01*
D02*G37*
G36*
X100285Y6092D02*
X102647Y6289D01*
X100127Y6250D01*
D02*G37*
G36*
X102687Y6092D02*
X103553Y6131D01*
X102647Y6289D01*
D02*G37*
G36*
X102372Y6053D02*
X102647Y6289D01*
X100285Y6092D01*
D02*G37*
G36*
X100482Y5935D02*
X102372Y6053D01*
X100285Y6092D01*
D02*G37*
G36*
X102057Y5895D02*
X102372Y6053D01*
X100482Y5935D01*
D02*G37*
G36*
X100718Y5856D02*
X102057Y5895D01*
X100482Y5935D01*
D02*G37*
G36*
X102844Y5856D02*
X103553Y6131D01*
X102687Y6092D01*
D02*G37*
G36*
X103631Y5856D02*
X103553Y6131D01*
X102844Y5856D01*
D02*G37*
G36*
X101702Y5816D02*
X102057Y5895D01*
X100718Y5856D01*
D02*G37*
G36*
X101309Y5777D02*
X101702Y5816D01*
X100718Y5856D01*
D02*G37*
G36*
X105246Y10108D02*
X104419Y10108D01*
X104419Y10856D01*
X105246Y10856D01*
X105246Y10108D01*
D02*G37*
G36*
X103868Y4478D02*
X103553Y4517D01*
X103710Y5226D01*
X103946Y5147D01*
X104104Y5147D01*
X104222Y5187D01*
X104301Y5265D01*
X104340Y5305D01*
X104379Y5423D01*
X104379Y5620D01*
X104419Y5816D01*
X104419Y9517D01*
X105246Y9517D01*
X105246Y5738D01*
X105206Y5423D01*
X105167Y5187D01*
X105127Y4950D01*
X105009Y4793D01*
X104852Y4635D01*
X104694Y4517D01*
X104458Y4478D01*
X104143Y4438D01*
X103868Y4478D01*
D02*G37*
G36*
X106782Y7706D02*
X105954Y7706D01*
X105994Y8179D01*
X106112Y8572D01*
X106309Y8927D01*
X106584Y9202D01*
X106820Y9360D01*
X107135Y9478D01*
X107450Y9557D01*
X107805Y9596D01*
X108198Y9557D01*
X108553Y9478D01*
X108868Y9320D01*
X109143Y9084D01*
X109379Y8809D01*
X109537Y8494D01*
X109616Y8139D01*
X109655Y7746D01*
X109616Y7116D01*
X109419Y6643D01*
X109143Y6289D01*
X108750Y6013D01*
X108316Y5816D01*
X107805Y5777D01*
X107411Y5816D01*
X107057Y5895D01*
X106742Y6053D01*
X106466Y6289D01*
X106230Y6564D01*
X106072Y6879D01*
X105994Y7273D01*
X105955Y7706D01*
X106781Y7706D01*
X106820Y7391D01*
X106860Y7116D01*
X106938Y6919D01*
X107096Y6722D01*
X107253Y6564D01*
X107411Y6486D01*
X107608Y6407D01*
X107805Y6407D01*
X108001Y6407D01*
X108198Y6486D01*
X108356Y6564D01*
X108513Y6722D01*
X108671Y6919D01*
X108750Y7116D01*
X108828Y7391D01*
X108828Y7706D01*
X108750Y8257D01*
X108553Y8651D01*
X108198Y8887D01*
X107805Y8966D01*
X107411Y8887D01*
X107057Y8651D01*
X106938Y8494D01*
X106860Y8257D01*
X106781Y8021D01*
X106782Y7706D01*
D02*G37*
G36*
X111269Y5856D02*
X110442Y5856D01*
X110442Y9517D01*
X111190Y9517D01*
X111190Y9045D01*
X111309Y9281D01*
X111466Y9478D01*
X111702Y9557D01*
X111938Y9596D01*
X112293Y9557D01*
X112687Y9360D01*
X112411Y8730D01*
X112135Y8848D01*
X111899Y8887D01*
X111742Y8848D01*
X111584Y8769D01*
X111466Y8651D01*
X111387Y8494D01*
X111309Y8179D01*
X111269Y7824D01*
X111269Y5856D01*
D02*G37*
G36*
X44812Y15856D02*
X43946Y15856D01*
X43946Y20856D01*
X44812Y20856D01*
X44812Y18848D01*
X47490Y18848D01*
X47490Y20856D01*
X48356Y20856D01*
X48356Y15856D01*
X47490Y15856D01*
X47490Y18139D01*
X44812Y18139D01*
X44812Y15856D01*
D02*G37*
G36*
X52135Y20816D02*
X51584Y20856D01*
X49458Y20856D01*
D02*G37*
G36*
X52608Y20698D02*
X52135Y20816D01*
X49458Y20856D01*
D02*G37*
G36*
X52962Y20501D02*
X52608Y20698D01*
X49458Y20856D01*
D02*G37*
G36*
X53198Y20226D02*
X52962Y20501D01*
X49458Y20856D01*
D02*G37*
G36*
X50324Y20147D02*
X53198Y20226D01*
X49458Y20856D01*
D02*G37*
G36*
X51820Y20147D02*
X53198Y20226D01*
X50324Y20147D01*
D02*G37*
G36*
X52135Y20068D02*
X53198Y20226D01*
X51820Y20147D01*
D02*G37*
G36*
X52332Y19990D02*
X53198Y20226D01*
X52135Y20068D01*
D02*G37*
G36*
X53395Y19911D02*
X53198Y20226D01*
X52332Y19990D01*
D02*G37*
G36*
X52450Y19872D02*
X53395Y19911D01*
X52332Y19990D01*
D02*G37*
G36*
X52529Y19675D02*
X53395Y19911D01*
X52450Y19872D01*
D02*G37*
G36*
X53435Y19557D02*
X53395Y19911D01*
X52529Y19675D01*
D02*G37*
G36*
X52568Y19478D02*
X53435Y19557D01*
X52529Y19675D01*
D02*G37*
G36*
X52529Y19242D02*
X53435Y19557D01*
X52568Y19478D01*
D02*G37*
G36*
X53395Y19242D02*
X53435Y19557D01*
X52529Y19242D01*
D02*G37*
G36*
X52450Y19084D02*
X53395Y19242D01*
X52529Y19242D01*
D02*G37*
G36*
X52293Y18927D02*
X53395Y19242D01*
X52450Y19084D01*
D02*G37*
G36*
X53238Y18927D02*
X53395Y19242D01*
X52293Y18927D01*
D02*G37*
G36*
X52096Y18848D02*
X53238Y18927D01*
X52293Y18927D01*
D02*G37*
G36*
X50325Y18809D02*
X50324Y20147D01*
X49458Y20856D01*
D02*G37*
G36*
X51820Y18809D02*
X53238Y18927D01*
X52096Y18848D01*
D02*G37*
G36*
X53001Y18690D02*
X53238Y18927D01*
X51820Y18809D01*
D02*G37*
G36*
X53001Y18690D02*
X51820Y18809D01*
X50325Y18809D01*
D02*G37*
G36*
X52687Y18533D02*
X53001Y18690D01*
X50325Y18809D01*
D02*G37*
G36*
X53120Y18375D02*
X52687Y18533D01*
X50325Y18809D01*
D02*G37*
G36*
X50324Y18100D02*
X53120Y18375D01*
X50325Y18809D01*
D02*G37*
G36*
X50324Y18100D02*
X50325Y18809D01*
X49458Y20856D01*
D02*G37*
G36*
X51505Y18100D02*
X53120Y18375D01*
X50324Y18100D01*
D02*G37*
G36*
X53435Y18100D02*
X53120Y18375D01*
X51505Y18100D01*
D02*G37*
G36*
X51938Y18061D02*
X53435Y18100D01*
X51505Y18100D01*
D02*G37*
G36*
X52253Y18021D02*
X53435Y18100D01*
X51938Y18061D01*
D02*G37*
G36*
X52490Y17903D02*
X53435Y18100D01*
X52253Y18021D01*
D02*G37*
G36*
X52687Y17746D02*
X53435Y18100D01*
X52490Y17903D01*
D02*G37*
G36*
X53631Y17746D02*
X53435Y18100D01*
X52687Y17746D01*
D02*G37*
G36*
X52805Y17588D02*
X53631Y17746D01*
X52687Y17746D01*
D02*G37*
G36*
X52844Y17352D02*
X53631Y17746D01*
X52805Y17588D01*
D02*G37*
G36*
X53710Y17352D02*
X53631Y17746D01*
X52844Y17352D01*
D02*G37*
G36*
X52805Y17155D02*
X53710Y17352D01*
X52844Y17352D01*
D02*G37*
G36*
X53671Y16998D02*
X53710Y17352D01*
X52805Y17155D01*
D02*G37*
G36*
X52726Y16958D02*
X53671Y16998D01*
X52805Y17155D01*
D02*G37*
G36*
X52608Y16801D02*
X53671Y16998D01*
X52726Y16958D01*
D02*G37*
G36*
X52490Y16683D02*
X53671Y16998D01*
X52608Y16801D01*
D02*G37*
G36*
X53553Y16683D02*
X53671Y16998D01*
X52490Y16683D01*
D02*G37*
G36*
X50325Y16564D02*
X50324Y18100D01*
X49458Y20856D01*
D02*G37*
G36*
X51899Y16564D02*
X53553Y16683D01*
X52490Y16683D01*
D02*G37*
G36*
X53356Y16407D02*
X53553Y16683D01*
X51899Y16564D01*
D02*G37*
G36*
X53356Y16407D02*
X51899Y16564D01*
X50325Y16564D01*
D02*G37*
G36*
X53120Y16171D02*
X53356Y16407D01*
X50325Y16564D01*
D02*G37*
G36*
X52844Y16053D02*
X53120Y16171D01*
X50325Y16564D01*
D02*G37*
G36*
X52490Y15935D02*
X52844Y16053D01*
X50325Y16564D01*
D02*G37*
G36*
X49458Y15856D02*
X50325Y16564D01*
X49458Y20856D01*
D02*G37*
G36*
X49458Y15856D02*
X52490Y15935D01*
X50325Y16564D01*
D02*G37*
G36*
X52096Y15856D02*
X52490Y15935D01*
X49458Y15856D01*
D02*G37*
G36*
X56505Y17312D02*
X54301Y17312D01*
X54301Y18021D01*
X56505Y18021D01*
X56505Y17312D01*
D02*G37*
G36*
X60797Y18021D02*
X60797Y20856D01*
X61663Y20856D01*
X61663Y17982D01*
X61624Y17312D01*
X61466Y16801D01*
X61348Y16564D01*
X61190Y16368D01*
X60757Y16053D01*
X60206Y15856D01*
X59458Y15777D01*
X58750Y15816D01*
X58198Y16013D01*
X57765Y16328D01*
X57490Y16722D01*
X57372Y16998D01*
X57293Y17273D01*
X57253Y17627D01*
X57253Y17982D01*
X57253Y20856D01*
X58120Y20856D01*
X58120Y18021D01*
X58120Y17706D01*
X58159Y17470D01*
X58198Y17234D01*
X58238Y17076D01*
X58435Y16801D01*
X58671Y16643D01*
X59025Y16525D01*
X59419Y16486D01*
X59773Y16486D01*
X60049Y16564D01*
X60285Y16643D01*
X60482Y16801D01*
X60600Y16958D01*
X60718Y17234D01*
X60797Y17588D01*
X60797Y18021D01*
D02*G37*
G36*
X63671Y15856D02*
X62805Y15856D01*
X62805Y20856D01*
X63671Y20856D01*
X66348Y17116D01*
X66348Y20856D01*
X67214Y20856D01*
X67214Y15856D01*
X66348Y15856D01*
X63671Y19635D01*
X63671Y15856D01*
D02*G37*
G36*
X69301Y15856D02*
X68435Y15856D01*
X68435Y20856D01*
X69301Y20856D01*
X69301Y15856D01*
D02*G37*
G36*
X72372Y17312D02*
X70167Y17312D01*
X70167Y18021D01*
X72372Y18021D01*
X72372Y17312D01*
D02*G37*
G36*
X72962Y17037D02*
X72883Y17588D01*
X73750Y17667D01*
X73828Y17273D01*
X73946Y16998D01*
X74183Y16761D01*
X74458Y16604D01*
X74812Y16525D01*
X75206Y16486D01*
X75561Y16525D01*
X75875Y16604D01*
X76112Y16722D01*
X76269Y16879D01*
X76387Y17076D01*
X76427Y17273D01*
X76387Y17470D01*
X76309Y17627D01*
X76151Y17746D01*
X75875Y17864D01*
X75757Y17903D01*
X75561Y17982D01*
X75285Y18021D01*
X74931Y18100D01*
X74616Y18179D01*
X74301Y18257D01*
X74064Y18336D01*
X73907Y18415D01*
X73553Y18612D01*
X73277Y18887D01*
X73120Y19202D01*
X73080Y19557D01*
X73159Y19911D01*
X73316Y20265D01*
X73631Y20541D01*
X74025Y20738D01*
X74537Y20895D01*
X75049Y20935D01*
X75639Y20895D01*
X76151Y20738D01*
X76584Y20541D01*
X76899Y20226D01*
X77096Y19832D01*
X77175Y19360D01*
X76309Y19320D01*
X76190Y19714D01*
X75954Y20029D01*
X75600Y20187D01*
X75088Y20226D01*
X74812Y20226D01*
X74576Y20187D01*
X74379Y20108D01*
X74222Y20029D01*
X74025Y19832D01*
X73946Y19596D01*
X73986Y19360D01*
X74143Y19163D01*
X74261Y19084D01*
X74498Y19005D01*
X74812Y18927D01*
X75167Y18848D01*
X75561Y18730D01*
X75915Y18651D01*
X76151Y18612D01*
X76348Y18533D01*
X76781Y18297D01*
X77057Y18021D01*
X77253Y17667D01*
X77293Y17312D01*
X77214Y16919D01*
X77017Y16525D01*
X76742Y16210D01*
X76309Y15974D01*
X75797Y15816D01*
X75246Y15777D01*
X74537Y15816D01*
X73986Y15974D01*
X73553Y16250D01*
X73198Y16604D01*
X72962Y17037D01*
D02*G37*
G36*
X80285Y19557D02*
X79891Y19596D01*
X79458Y19557D01*
D02*G37*
G36*
X79104Y19478D02*
X80285Y19557D01*
X79458Y19557D01*
D02*G37*
G36*
X80639Y19478D02*
X80285Y19557D01*
X79104Y19478D01*
D02*G37*
G36*
X78789Y19320D02*
X80639Y19478D01*
X79104Y19478D01*
D02*G37*
G36*
X80954Y19320D02*
X80639Y19478D01*
X78789Y19320D01*
D02*G37*
G36*
X78474Y19084D02*
X80954Y19320D01*
X78789Y19320D01*
D02*G37*
G36*
X81230Y19084D02*
X80954Y19320D01*
X78474Y19084D01*
D02*G37*
G36*
X79891Y18966D02*
X81230Y19084D01*
X78474Y19084D01*
D02*G37*
G36*
X79458Y18887D02*
X79891Y18966D01*
X78474Y19084D01*
D02*G37*
G36*
X80324Y18887D02*
X81230Y19084D01*
X79891Y18966D01*
D02*G37*
G36*
X78277Y18809D02*
X79458Y18887D01*
X78474Y19084D01*
D02*G37*
G36*
X81466Y18809D02*
X81230Y19084D01*
X80324Y18887D01*
D02*G37*
G36*
X79104Y18730D02*
X79458Y18887D01*
X78277Y18809D01*
D02*G37*
G36*
X80679Y18651D02*
X81466Y18809D01*
X80324Y18887D01*
D02*G37*
G36*
X81624Y18494D02*
X81466Y18809D01*
X80679Y18651D01*
D02*G37*
G36*
X78080Y18454D02*
X79104Y18730D01*
X78277Y18809D01*
D02*G37*
G36*
X78907Y18415D02*
X79104Y18730D01*
X78080Y18454D01*
D02*G37*
G36*
X80836Y18415D02*
X81624Y18494D01*
X80679Y18651D01*
D02*G37*
G36*
X81702Y18139D02*
X81624Y18494D01*
X80836Y18415D01*
D02*G37*
G36*
X78001Y18100D02*
X78907Y18415D01*
X78080Y18454D01*
D02*G37*
G36*
X78790Y18100D02*
X78907Y18415D01*
X78001Y18100D01*
D02*G37*
G36*
X80915Y18100D02*
X81702Y18139D01*
X80836Y18415D01*
D02*G37*
G36*
X81742Y17706D02*
X81702Y18139D01*
X80915Y18100D01*
D02*G37*
G36*
X81742Y17706D02*
X80915Y18100D01*
X78001Y18100D01*
D02*G37*
G36*
X77962Y17667D02*
X81742Y17706D01*
X78001Y18100D01*
D02*G37*
G36*
X78789Y17470D02*
X81742Y17706D01*
X77962Y17667D01*
D02*G37*
G36*
X81742Y17470D02*
X81742Y17706D01*
X78789Y17470D01*
D02*G37*
G36*
X78001Y17234D02*
X78789Y17470D01*
X77962Y17667D01*
D02*G37*
G36*
X78907Y17037D02*
X78789Y17470D01*
X78001Y17234D01*
D02*G37*
G36*
X78080Y16879D02*
X78907Y17037D01*
X78001Y17234D01*
D02*G37*
G36*
X80757Y16801D02*
X81702Y17037D01*
X80915Y17155D01*
D02*G37*
G36*
X79143Y16683D02*
X78907Y17037D01*
X78080Y16879D01*
D02*G37*
G36*
X78277Y16564D02*
X79143Y16683D01*
X78080Y16879D01*
D02*G37*
G36*
X80521Y16564D02*
X81702Y17037D01*
X80757Y16801D01*
D02*G37*
G36*
X79498Y16486D02*
X79143Y16683D01*
X78277Y16564D01*
D02*G37*
G36*
X81466Y16486D02*
X81702Y17037D01*
X80521Y16564D01*
D02*G37*
G36*
X80246Y16446D02*
X81466Y16486D01*
X80521Y16564D01*
D02*G37*
G36*
X79931Y16407D02*
X79498Y16486D01*
X78277Y16564D01*
D02*G37*
G36*
X79931Y16407D02*
X81466Y16486D01*
X80246Y16446D01*
D02*G37*
G36*
X78474Y16289D02*
X79931Y16407D01*
X78277Y16564D01*
D02*G37*
G36*
X78474Y16289D02*
X81466Y16486D01*
X79931Y16407D01*
D02*G37*
G36*
X81309Y16250D02*
X81466Y16486D01*
X78474Y16289D01*
D02*G37*
G36*
X78789Y16053D02*
X81309Y16250D01*
X78474Y16289D01*
D02*G37*
G36*
X80836Y15935D02*
X81309Y16250D01*
X78789Y16053D01*
D02*G37*
G36*
X79104Y15895D02*
X80836Y15935D01*
X78789Y16053D01*
D02*G37*
G36*
X80561Y15856D02*
X80836Y15935D01*
X79104Y15895D01*
D02*G37*
G36*
X79498Y15816D02*
X80561Y15856D01*
X79104Y15895D01*
D02*G37*
G36*
X79931Y15777D02*
X80561Y15856D01*
X79498Y15816D01*
D02*G37*
G36*
X80246Y15777D02*
X80561Y15856D01*
X79931Y15777D01*
D02*G37*
G36*
X83316Y15856D02*
X82490Y15856D01*
X82490Y19517D01*
X83316Y19517D01*
X83316Y19045D01*
X83474Y19281D01*
X83750Y19438D01*
X84064Y19557D01*
X84419Y19596D01*
X84773Y19557D01*
X85088Y19478D01*
X85364Y19320D01*
X85561Y19163D01*
X85679Y18927D01*
X85757Y18690D01*
X85797Y18454D01*
X85797Y18100D01*
X85797Y15856D01*
X84970Y15856D01*
X84970Y18100D01*
X84970Y18375D01*
X84891Y18612D01*
X84812Y18769D01*
X84655Y18848D01*
X84458Y18927D01*
X84261Y18966D01*
X83907Y18887D01*
X83592Y18730D01*
X83474Y18612D01*
X83395Y18415D01*
X83316Y18179D01*
X83316Y17864D01*
X83316Y15856D01*
D02*G37*
G36*
X86624Y16722D02*
X86545Y17037D01*
X87372Y17155D01*
X87450Y16801D01*
X87647Y16564D01*
X87923Y16446D01*
X88277Y16407D01*
X88671Y16446D01*
X88907Y16564D01*
X89064Y16722D01*
X89104Y16919D01*
X89064Y17037D01*
X88946Y17155D01*
X88828Y17194D01*
X88710Y17234D01*
X88513Y17273D01*
X88277Y17352D01*
X87923Y17431D01*
X87647Y17509D01*
X87450Y17588D01*
X87253Y17627D01*
X86978Y17785D01*
X86781Y18021D01*
X86663Y18257D01*
X86624Y18533D01*
X86663Y18769D01*
X86742Y18966D01*
X86899Y19163D01*
X87096Y19320D01*
X87293Y19438D01*
X87529Y19517D01*
X88159Y19596D01*
X88592Y19557D01*
X88986Y19478D01*
X89301Y19320D01*
X89537Y19124D01*
X89694Y18848D01*
X89773Y18454D01*
X88946Y18375D01*
X88868Y18651D01*
X88710Y18809D01*
X88513Y18927D01*
X88198Y18966D01*
X87844Y18927D01*
X87608Y18848D01*
X87490Y18730D01*
X87450Y18612D01*
X87529Y18415D01*
X87726Y18257D01*
X87805Y18257D01*
X87923Y18218D01*
X88080Y18179D01*
X88277Y18139D01*
X88592Y18061D01*
X88868Y17982D01*
X89104Y17903D01*
X89301Y17824D01*
X89537Y17706D01*
X89773Y17509D01*
X89891Y17273D01*
X89931Y16998D01*
X89891Y16643D01*
X89734Y16368D01*
X89458Y16092D01*
X89143Y15935D01*
X88750Y15816D01*
X88277Y15777D01*
X87923Y15777D01*
X87608Y15856D01*
X87332Y15935D01*
X87096Y16092D01*
X86899Y16250D01*
X86742Y16486D01*
X86624Y16722D01*
D02*G37*
G36*
X91270Y17706D02*
X90442Y17706D01*
X90482Y18179D01*
X90600Y18572D01*
X90797Y18927D01*
X91072Y19202D01*
X91309Y19360D01*
X91624Y19478D01*
X91938Y19557D01*
X92293Y19596D01*
X92687Y19557D01*
X93041Y19478D01*
X93356Y19320D01*
X93631Y19084D01*
X93868Y18809D01*
X94025Y18494D01*
X94104Y18139D01*
X94143Y17746D01*
X94104Y17116D01*
X93907Y16643D01*
X93631Y16289D01*
X93238Y16013D01*
X92805Y15816D01*
X92293Y15777D01*
X91899Y15816D01*
X91545Y15895D01*
X91230Y16053D01*
X90954Y16289D01*
X90718Y16564D01*
X90561Y16879D01*
X90482Y17273D01*
X90443Y17706D01*
X91269Y17706D01*
X91309Y17391D01*
X91348Y17116D01*
X91427Y16919D01*
X91584Y16722D01*
X91742Y16564D01*
X91899Y16486D01*
X92096Y16407D01*
X92293Y16407D01*
X92490Y16407D01*
X92687Y16486D01*
X92844Y16564D01*
X93001Y16722D01*
X93159Y16919D01*
X93238Y17116D01*
X93316Y17391D01*
X93316Y17706D01*
X93238Y18257D01*
X93041Y18651D01*
X92687Y18887D01*
X92293Y18966D01*
X91899Y18887D01*
X91545Y18651D01*
X91427Y18494D01*
X91348Y18257D01*
X91269Y18021D01*
X91270Y17706D01*
D02*G37*
G36*
X95757Y15856D02*
X94931Y15856D01*
X94931Y19517D01*
X95679Y19517D01*
X95679Y19045D01*
X95797Y19281D01*
X95954Y19478D01*
X96190Y19557D01*
X96427Y19596D01*
X96781Y19557D01*
X97175Y19360D01*
X96899Y18730D01*
X96624Y18848D01*
X96387Y18887D01*
X96230Y18848D01*
X96072Y18769D01*
X95954Y18651D01*
X95875Y18494D01*
X95797Y18179D01*
X95757Y17824D01*
X95757Y15856D01*
D02*G37*
G36*
X99970Y20856D02*
X99970Y15856D01*
X99143Y15856D01*
X99143Y19675D01*
X98946Y19478D01*
X98631Y19242D01*
X98238Y19084D01*
X97844Y18927D01*
X97844Y19596D01*
X98356Y19872D01*
X98828Y20187D01*
X99143Y20501D01*
X99419Y20856D01*
X99970Y20856D01*
D02*G37*
G36*
X106505Y15856D02*
X105639Y15856D01*
X103553Y20856D01*
X104458Y20856D01*
X105836Y17312D01*
X105994Y16919D01*
X106072Y16564D01*
X106151Y16919D01*
X106269Y17312D01*
X107765Y20856D01*
X108671Y20856D01*
X106505Y15856D01*
D02*G37*
G36*
X112135Y20108D02*
X111309Y20108D01*
X111309Y20856D01*
X112135Y20856D01*
X112135Y20108D01*
D02*G37*
G36*
X112135Y15856D02*
X111309Y15856D01*
X111309Y19517D01*
X112135Y19517D01*
X112135Y15856D01*
D02*G37*
G36*
X113789Y16564D02*
X116427Y16564D01*
X116427Y15856D01*
X112765Y15856D01*
X112765Y16131D01*
X112844Y16368D01*
X113001Y16722D01*
X113277Y17037D01*
X113631Y17391D01*
X114104Y17785D01*
X114498Y18100D01*
X114812Y18375D01*
X115088Y18612D01*
X115246Y18809D01*
X115482Y19163D01*
X115561Y19478D01*
X115482Y19753D01*
X115324Y19990D01*
X115009Y20187D01*
X114655Y20226D01*
X114222Y20147D01*
X113946Y19990D01*
X113750Y19714D01*
X113671Y19281D01*
X112844Y19360D01*
X112923Y19714D01*
X113001Y20029D01*
X113159Y20265D01*
X113395Y20501D01*
X113631Y20659D01*
X113946Y20777D01*
X114261Y20816D01*
X114655Y20856D01*
X115049Y20816D01*
X115364Y20738D01*
X115679Y20620D01*
X115915Y20462D01*
X116112Y20226D01*
X116269Y19990D01*
X116348Y19753D01*
X116387Y19478D01*
X116348Y19163D01*
X116269Y18848D01*
X116072Y18572D01*
X115836Y18257D01*
X115639Y18061D01*
X115442Y17864D01*
X115167Y17627D01*
X114852Y17391D01*
X114576Y17194D01*
X114379Y17037D01*
X114183Y16879D01*
X114064Y16801D01*
X113907Y16643D01*
X113789Y16564D01*
D02*G37*
G36*
X118356Y15856D02*
X117490Y15856D01*
X117490Y16604D01*
X118356Y16604D01*
X118356Y15856D01*
D02*G37*
G36*
X120246Y16564D02*
X122883Y16564D01*
X122883Y15856D01*
X119222Y15856D01*
X119222Y16131D01*
X119301Y16368D01*
X119458Y16722D01*
X119734Y17037D01*
X120088Y17391D01*
X120561Y17785D01*
X120954Y18100D01*
X121269Y18375D01*
X121545Y18612D01*
X121702Y18809D01*
X121938Y19163D01*
X122017Y19478D01*
X121938Y19753D01*
X121781Y19990D01*
X121466Y20187D01*
X121112Y20226D01*
X120679Y20147D01*
X120403Y19990D01*
X120206Y19714D01*
X120127Y19281D01*
X119301Y19360D01*
X119379Y19714D01*
X119458Y20029D01*
X119616Y20265D01*
X119852Y20501D01*
X120088Y20659D01*
X120403Y20777D01*
X120718Y20816D01*
X121112Y20856D01*
X121505Y20816D01*
X121820Y20738D01*
X122135Y20620D01*
X122372Y20462D01*
X122568Y20226D01*
X122726Y19990D01*
X122805Y19753D01*
X122844Y19478D01*
X122805Y19163D01*
X122726Y18848D01*
X122529Y18572D01*
X122293Y18257D01*
X122096Y18061D01*
X121899Y17864D01*
X121624Y17627D01*
X121309Y17391D01*
X121033Y17194D01*
X120836Y17037D01*
X120639Y16879D01*
X120521Y16801D01*
X120364Y16643D01*
X120246Y16564D01*
D02*G37*
G36*
X124459Y18336D02*
X123631Y18336D01*
X123631Y18730D01*
X123671Y19124D01*
X123750Y19438D01*
X123828Y19714D01*
X124064Y20226D01*
X124419Y20580D01*
X124891Y20777D01*
X125442Y20856D01*
X125875Y20816D01*
X126230Y20698D01*
X126584Y20462D01*
X126820Y20226D01*
X126978Y19872D01*
X127135Y19478D01*
X127214Y18966D01*
X127253Y18336D01*
X127253Y17903D01*
X127214Y17549D01*
X127135Y17194D01*
X127057Y16919D01*
X126820Y16407D01*
X126466Y16053D01*
X125994Y15856D01*
X125442Y15777D01*
X125049Y15816D01*
X124734Y15895D01*
X124419Y16092D01*
X124143Y16289D01*
X123946Y16683D01*
X123750Y17116D01*
X123671Y17667D01*
X123632Y18336D01*
X124458Y18336D01*
X124458Y17785D01*
X124537Y17352D01*
X124616Y16998D01*
X124734Y16761D01*
X124891Y16604D01*
X125088Y16486D01*
X125246Y16446D01*
X125442Y16407D01*
X125639Y16446D01*
X125797Y16486D01*
X125994Y16604D01*
X126151Y16761D01*
X126269Y16998D01*
X126348Y17352D01*
X126427Y17785D01*
X126427Y18336D01*
X126427Y18848D01*
X126348Y19281D01*
X126269Y19635D01*
X126151Y19872D01*
X125994Y20029D01*
X125836Y20147D01*
X125639Y20187D01*
X125442Y20226D01*
X125049Y20147D01*
X124773Y19911D01*
X124655Y19675D01*
X124537Y19320D01*
X124498Y18848D01*
X124459Y18336D01*
D02*G37*
M02*
