%FSLAX35Y35*%
%MOIN*%
%IN31=Bauteilnamenoben(extrainDatei:X.NamesTop)*%
%ADD10C,0.00591*%
%ADD11C,0.00004*%
%ADD12C,0.00200*%
%ADD13C,0.00240*%
%ADD14C,0.00300*%
%ADD15C,0.00384*%
%ADD16C,0.00400*%
%ADD17C,0.00413*%
%ADD18C,0.00535*%
%ADD19C,0.00600*%
%ADD20C,0.00748*%
%ADD21C,0.00768*%
%ADD22C,0.00787*%
%ADD23C,0.00800*%
%ADD24C,0.00886*%
%ADD25C,0.01024*%
%ADD26C,0.01181*%
%ADD27C,0.01575*%
%ADD28C,0.01969*%
%ADD29C,0.02362*%
%ADD30C,0.03150*%
%ADD31C,0.03536*%
%ADD32C,0.05000*%
%ADD33C,0.05906*%
%ADD34C,0.09843*%
%AMR_35*21,1,0.00600,0.07200,0,0,0.000*%
%ADD35R_35*%
%AMR_36*21,1,0.00788,0.03150,0,0,0.000*%
%ADD36R_36*%
%AMR_37*21,1,0.01181,0.00591,0,0,0.000*%
%ADD37R_37*%
%AMR_38*21,1,0.01181,0.01181,0,0,0.000*%
%ADD38R_38*%
%AMR_39*21,1,0.01250,0.04375,0,0,0.000*%
%ADD39R_39*%
%AMR_40*21,1,0.01400,0.05600,0,0,0.000*%
%ADD40R_40*%
%AMR_41*21,1,0.01574,0.04724,0,0,0.000*%
%ADD41R_41*%
%AMR_42*21,1,0.01969,0.05118,0,0,180.000*%
%ADD42R_42*%
%AMR_43*21,1,0.02300,0.01800,0,0,0.000*%
%ADD43R_43*%
%AMR_44*21,1,0.02362,0.05315,0,0,0.000*%
%ADD44R_44*%
%AMR_45*21,1,0.02756,0.11024,0,0,270.000*%
%ADD45R_45*%
%AMR_46*21,1,0.02953,0.05709,0,0,0.000*%
%ADD46R_46*%
%AMR_47*21,1,0.03150,0.00788,0,0,0.000*%
%ADD47R_47*%
%AMR_48*21,1,0.03750,0.01875,0,0,0.000*%
%ADD48R_48*%
%AMR_49*21,1,0.03750,0.13125,0,0,0.000*%
%ADD49R_49*%
%AMR_50*21,1,0.03937,0.05512,0,0,270.000*%
%ADD50R_50*%
%AMR_51*21,1,0.04600,0.05512,0,0,0.000*%
%ADD51R_51*%
%AMR_52*21,1,0.04724,0.01574,0,0,0.000*%
%ADD52R_52*%
%AMR_53*21,1,0.04724,0.04724,0,0,0.000*%
%ADD53R_53*%
%AMR_54*21,1,0.04724,0.04724,0,0,90.000*%
%ADD54R_54*%
%AMR_55*21,1,0.05118,0.01969,0,0,180.000*%
%ADD55R_55*%
%AMR_56*21,1,0.05118,0.05906,0,0,0.000*%
%ADD56R_56*%
%AMR_57*21,1,0.05118,0.05906,0,0,90.000*%
%ADD57R_57*%
%AMR_58*21,1,0.05118,0.05906,0,0,180.000*%
%ADD58R_58*%
%AMR_59*21,1,0.05118,0.06299,0,0,90.000*%
%ADD59R_59*%
%AMR_60*21,1,0.05118,0.06299,0,0,180.000*%
%ADD60R_60*%
%AMR_61*21,1,0.05118,0.06299,0,0,270.000*%
%ADD61R_61*%
%AMR_62*21,1,0.05512,0.05512,0,0,0.000*%
%ADD62R_62*%
%AMR_63*21,1,0.05512,0.05512,0,0,90.000*%
%ADD63R_63*%
%AMR_64*21,1,0.05512,0.05512,0,0,180.000*%
%ADD64R_64*%
%AMR_65*21,1,0.05512,0.05512,0,0,270.000*%
%ADD65R_65*%
%AMR_66*21,1,0.05600,0.01400,0,0,0.000*%
%ADD66R_66*%
%AMR_67*21,1,0.05709,0.02953,0,0,0.000*%
%ADD67R_67*%
%AMR_68*21,1,0.06299,0.06299,0,0,0.000*%
%ADD68R_68*%
%AMR_69*21,1,0.07087,0.07087,0,0,270.000*%
%ADD69R_69*%
%AMR_70*21,1,0.07087,0.11811,0,0,0.000*%
%ADD70R_70*%
%AMR_71*21,1,0.07874,0.06299,0,0,90.000*%
%ADD71R_71*%
%AMR_72*21,1,0.08661,0.04724,0,0,270.000*%
%ADD72R_72*%
%AMR_73*21,1,0.08661,0.08661,0,0,0.000*%
%ADD73R_73*%
%AMR_74*21,1,0.09843,0.19685,0,0,0.000*%
%ADD74R_74*%
%AMR_75*21,1,0.10000,0.01875,0,0,0.000*%
%ADD75R_75*%
%AMR_76*21,1,0.10625,0.01875,0,0,0.000*%
%ADD76R_76*%
%AMR_77*21,1,0.10625,0.19685,0,0,0.000*%
%ADD77R_77*%
%AMR_78*21,1,0.19685,0.09843,0,0,0.000*%
%ADD78R_78*%
%AMR_79*21,1,0.19685,0.19685,0,0,0.000*%
%ADD79R_79*%
%AMOCT_80*4,1,8,0.049213,0.024606,0.024606,0.049213,-0.024606,0.049213,-0.049213,0.024606,-0.049213,-0.024606,-0.024606,-0.049213,0.024606,-0.049213,0.049213,-0.024606,0.049213,0.024606,0.000*%
%ADD80OCT_80*%
G36*
X69777Y162183D02*
X69226Y162223D01*
X67257Y162223D01*
D02*G37*
G36*
X70171Y162105D02*
X69777Y162183D01*
X67257Y162223D01*
D02*G37*
G36*
X70446Y161908D02*
X70171Y162105D01*
X67257Y162223D01*
D02*G37*
G36*
X67848Y161672D02*
X70446Y161908D01*
X67257Y162223D01*
D02*G37*
G36*
X69265Y161672D02*
X70446Y161908D01*
X67848Y161672D01*
D02*G37*
G36*
X70643Y161672D02*
X70446Y161908D01*
X69265Y161672D01*
D02*G37*
G36*
X69698Y161632D02*
X70643Y161672D01*
X69265Y161672D01*
D02*G37*
G36*
X70013Y161475D02*
X70643Y161672D01*
X69698Y161632D01*
D02*G37*
G36*
X70801Y161317D02*
X70643Y161672D01*
X70013Y161475D01*
D02*G37*
G36*
X70210Y161238D02*
X70801Y161317D01*
X70013Y161475D01*
D02*G37*
G36*
X70250Y160963D02*
X70801Y161317D01*
X70210Y161238D01*
D02*G37*
G36*
X70840Y160963D02*
X70801Y161317D01*
X70250Y160963D01*
D02*G37*
G36*
X70210Y160766D02*
X70840Y160963D01*
X70250Y160963D01*
D02*G37*
G36*
X70131Y160569D02*
X70840Y160963D01*
X70210Y160766D01*
D02*G37*
G36*
X70761Y160530D02*
X70840Y160963D01*
X70131Y160569D01*
D02*G37*
G36*
X69974Y160451D02*
X70761Y160530D01*
X70131Y160569D01*
D02*G37*
G36*
X69777Y160333D02*
X70761Y160530D01*
X69974Y160451D01*
D02*G37*
G36*
X67849Y160254D02*
X67848Y161672D01*
X67257Y162223D01*
D02*G37*
G36*
X69501Y160254D02*
X70761Y160530D01*
X69777Y160333D01*
D02*G37*
G36*
X70525Y160175D02*
X70761Y160530D01*
X69501Y160254D01*
D02*G37*
G36*
X70525Y160175D02*
X69501Y160254D01*
X67849Y160254D01*
D02*G37*
G36*
X70368Y160018D02*
X70525Y160175D01*
X67849Y160254D01*
D02*G37*
G36*
X69895Y159782D02*
X70368Y160018D01*
X67849Y160254D01*
D02*G37*
G36*
X69580Y159742D02*
X69895Y159782D01*
X67849Y160254D01*
D02*G37*
G36*
X67848Y159703D02*
X69580Y159742D01*
X67849Y160254D01*
D02*G37*
G36*
X67848Y159703D02*
X67849Y160254D01*
X67257Y162223D01*
D02*G37*
G36*
X68753Y159703D02*
X69580Y159742D01*
X67848Y159703D01*
D02*G37*
G36*
X68872Y159664D02*
X69580Y159742D01*
X68753Y159703D01*
D02*G37*
G36*
X69777Y159624D02*
X69580Y159742D01*
X68872Y159664D01*
D02*G37*
G36*
X69147Y159546D02*
X69777Y159624D01*
X68872Y159664D01*
D02*G37*
G36*
X69935Y159506D02*
X69777Y159624D01*
X69147Y159546D01*
D02*G37*
G36*
X69265Y159427D02*
X69935Y159506D01*
X69147Y159546D01*
D02*G37*
G36*
X69423Y159231D02*
X69935Y159506D01*
X69265Y159427D01*
D02*G37*
G36*
X70171Y159231D02*
X69935Y159506D01*
X69423Y159231D01*
D02*G37*
G36*
X69620Y158955D02*
X70171Y159231D01*
X69423Y159231D01*
D02*G37*
G36*
X70407Y158916D02*
X70171Y159231D01*
X69620Y158955D01*
D02*G37*
G36*
X69856Y158601D02*
X70407Y158916D01*
X69620Y158955D01*
D02*G37*
G36*
X67257Y157656D02*
X67848Y159703D01*
X67257Y162223D01*
D02*G37*
G36*
X67848Y157656D02*
X67848Y159703D01*
X67257Y157656D01*
D02*G37*
G36*
X70446Y157656D02*
X70407Y158916D01*
X69856Y158601D01*
D02*G37*
G36*
X71155Y157656D02*
X70407Y158916D01*
X70446Y157656D01*
D02*G37*
G36*
X73753Y161593D02*
X71588Y161593D01*
X71588Y162144D01*
X74462Y162144D01*
X74462Y161711D01*
X74068Y161160D01*
X73635Y160451D01*
X73281Y159703D01*
X73005Y158916D01*
X72887Y158286D01*
X72809Y157656D01*
X72257Y157656D01*
X72297Y158246D01*
X72454Y158955D01*
X72690Y159703D01*
X73005Y160412D01*
X73360Y161042D01*
X73753Y161593D01*
D02*G37*
G36*
X49389Y157656D02*
X46633Y157656D01*
X46633Y162223D01*
X47224Y162223D01*
X47224Y158207D01*
X49389Y158207D01*
X49389Y157656D01*
D02*G37*
G36*
X53444Y157656D02*
X50137Y157656D01*
X50137Y162223D01*
X53326Y162223D01*
X53326Y161672D01*
X50728Y161672D01*
X50728Y160294D01*
X53169Y160294D01*
X53169Y159742D01*
X50728Y159742D01*
X50728Y158207D01*
X53444Y158207D01*
X53444Y157656D01*
D02*G37*
G36*
X56318Y162183D02*
X55846Y162223D01*
X54311Y162223D01*
D02*G37*
G36*
X56633Y162144D02*
X56318Y162183D01*
X54311Y162223D01*
D02*G37*
G36*
X57027Y162026D02*
X56633Y162144D01*
X54311Y162223D01*
D02*G37*
G36*
X57303Y161829D02*
X57027Y162026D01*
X54311Y162223D01*
D02*G37*
G36*
X54901Y161672D02*
X57303Y161829D01*
X54311Y162223D01*
D02*G37*
G36*
X55846Y161672D02*
X57303Y161829D01*
X54901Y161672D01*
D02*G37*
G36*
X56318Y161632D02*
X57303Y161829D01*
X55846Y161672D01*
D02*G37*
G36*
X56633Y161593D02*
X57303Y161829D01*
X56318Y161632D01*
D02*G37*
G36*
X57618Y161475D02*
X57303Y161829D01*
X56633Y161593D01*
D02*G37*
G36*
X56948Y161396D02*
X57618Y161475D01*
X56633Y161593D01*
D02*G37*
G36*
X57185Y161081D02*
X57618Y161475D01*
X56948Y161396D01*
D02*G37*
G36*
X57854Y161042D02*
X57618Y161475D01*
X57185Y161081D01*
D02*G37*
G36*
X57303Y160845D02*
X57854Y161042D01*
X57185Y161081D01*
D02*G37*
G36*
X57381Y160609D02*
X57854Y161042D01*
X57303Y160845D01*
D02*G37*
G36*
X57972Y160530D02*
X57854Y161042D01*
X57381Y160609D01*
D02*G37*
G36*
X57421Y160294D02*
X57972Y160530D01*
X57381Y160609D01*
D02*G37*
G36*
X57421Y159979D02*
X57972Y160530D01*
X57421Y160294D01*
D02*G37*
G36*
X58011Y159979D02*
X57972Y160530D01*
X57421Y159979D01*
D02*G37*
G36*
X57381Y159506D02*
X58011Y159979D01*
X57421Y159979D01*
D02*G37*
G36*
X57972Y159467D02*
X58011Y159979D01*
X57381Y159506D01*
D02*G37*
G36*
X57303Y159112D02*
X57972Y159467D01*
X57381Y159506D01*
D02*G37*
G36*
X57893Y159034D02*
X57972Y159467D01*
X57303Y159112D01*
D02*G37*
G36*
X57145Y158758D02*
X57893Y159034D01*
X57303Y159112D01*
D02*G37*
G36*
X57775Y158679D02*
X57893Y159034D01*
X57145Y158758D01*
D02*G37*
G36*
X56988Y158522D02*
X57775Y158679D01*
X57145Y158758D01*
D02*G37*
G36*
X56791Y158404D02*
X57775Y158679D01*
X56988Y158522D01*
D02*G37*
G36*
X57578Y158364D02*
X57775Y158679D01*
X56791Y158404D01*
D02*G37*
G36*
X56555Y158286D02*
X57578Y158364D01*
X56791Y158404D01*
D02*G37*
G36*
X54902Y158207D02*
X54901Y161672D01*
X54311Y162223D01*
D02*G37*
G36*
X56279Y158207D02*
X57578Y158364D01*
X56555Y158286D01*
D02*G37*
G36*
X57381Y158128D02*
X57578Y158364D01*
X56279Y158207D01*
D02*G37*
G36*
X57381Y158128D02*
X56279Y158207D01*
X54902Y158207D01*
D02*G37*
G36*
X57185Y157971D02*
X57381Y158128D01*
X54902Y158207D01*
D02*G37*
G36*
X56948Y157813D02*
X57185Y157971D01*
X54902Y158207D01*
D02*G37*
G36*
X54311Y157656D02*
X54902Y158207D01*
X54311Y162223D01*
D02*G37*
G36*
X54311Y157656D02*
X56948Y157813D01*
X54902Y158207D01*
D02*G37*
G36*
X56318Y157656D02*
X56948Y157813D01*
X54311Y157656D01*
D02*G37*
G36*
X60610Y162223D02*
X60610Y157656D01*
X60059Y157656D01*
X60059Y161199D01*
X59822Y161002D01*
X59547Y160845D01*
X59271Y160648D01*
X58996Y160530D01*
X58996Y161081D01*
X59429Y161317D01*
X59783Y161593D01*
X60059Y161908D01*
X60255Y162223D01*
X60610Y162223D01*
D02*G37*
G36*
X131934Y12763D02*
X132249Y13235D01*
X131579Y13235D01*
D02*G37*
G36*
X132091Y12330D02*
X132249Y13235D01*
X131934Y12763D01*
D02*G37*
G36*
X131658Y11897D02*
X131934Y12763D01*
X131579Y13235D01*
D02*G37*
G36*
X132249Y11779D02*
X132249Y13235D01*
X132091Y12330D01*
D02*G37*
G36*
X131187Y10637D02*
X131658Y11897D01*
X131579Y13235D01*
D02*G37*
G36*
X132682Y10637D02*
X132249Y13235D01*
X132249Y11779D01*
D02*G37*
G36*
X130989Y10086D02*
X132682Y10637D01*
X131187Y10637D01*
D02*G37*
G36*
X130989Y10086D02*
X131187Y10637D01*
X131579Y13235D01*
D02*G37*
G36*
X132878Y10086D02*
X132682Y10637D01*
X130989Y10086D01*
D02*G37*
G36*
X132878Y10086D02*
X132249Y13235D01*
X132682Y10637D01*
D02*G37*
G36*
X129886Y8668D02*
X130989Y10086D01*
X131579Y13235D01*
D02*G37*
G36*
X130516Y8668D02*
X130989Y10086D01*
X129886Y8668D01*
D02*G37*
G36*
X133390Y8668D02*
X132249Y13235D01*
X132878Y10086D01*
D02*G37*
G36*
X134020Y8668D02*
X132249Y13235D01*
X133390Y8668D01*
D02*G37*
G36*
X135241Y8668D02*
X134650Y8668D01*
X134650Y13235D01*
X135280Y13235D01*
X137563Y9692D01*
X137563Y13235D01*
X138154Y13235D01*
X138154Y8668D01*
X137524Y8668D01*
X135241Y12172D01*
X135241Y8668D01*
D02*G37*
G36*
X140871Y8668D02*
X140280Y8668D01*
X140280Y12684D01*
X138784Y12684D01*
X138784Y13235D01*
X142367Y13235D01*
X142367Y12684D01*
X140871Y12684D01*
X140871Y8668D01*
D02*G37*
G36*
X13527Y185683D02*
X12976Y185723D01*
X11007Y185723D01*
D02*G37*
G36*
X13921Y185605D02*
X13527Y185683D01*
X11007Y185723D01*
D02*G37*
G36*
X14196Y185408D02*
X13921Y185605D01*
X11007Y185723D01*
D02*G37*
G36*
X11598Y185172D02*
X14196Y185408D01*
X11007Y185723D01*
D02*G37*
G36*
X13015Y185172D02*
X14196Y185408D01*
X11598Y185172D01*
D02*G37*
G36*
X14393Y185172D02*
X14196Y185408D01*
X13015Y185172D01*
D02*G37*
G36*
X13448Y185132D02*
X14393Y185172D01*
X13015Y185172D01*
D02*G37*
G36*
X13763Y184975D02*
X14393Y185172D01*
X13448Y185132D01*
D02*G37*
G36*
X14551Y184817D02*
X14393Y185172D01*
X13763Y184975D01*
D02*G37*
G36*
X13960Y184738D02*
X14551Y184817D01*
X13763Y184975D01*
D02*G37*
G36*
X14000Y184463D02*
X14551Y184817D01*
X13960Y184738D01*
D02*G37*
G36*
X14590Y184463D02*
X14551Y184817D01*
X14000Y184463D01*
D02*G37*
G36*
X13960Y184266D02*
X14590Y184463D01*
X14000Y184463D01*
D02*G37*
G36*
X13881Y184069D02*
X14590Y184463D01*
X13960Y184266D01*
D02*G37*
G36*
X14511Y184030D02*
X14590Y184463D01*
X13881Y184069D01*
D02*G37*
G36*
X13724Y183951D02*
X14511Y184030D01*
X13881Y184069D01*
D02*G37*
G36*
X13527Y183833D02*
X14511Y184030D01*
X13724Y183951D01*
D02*G37*
G36*
X11599Y183754D02*
X11598Y185172D01*
X11007Y185723D01*
D02*G37*
G36*
X13251Y183754D02*
X14511Y184030D01*
X13527Y183833D01*
D02*G37*
G36*
X14275Y183675D02*
X14511Y184030D01*
X13251Y183754D01*
D02*G37*
G36*
X14275Y183675D02*
X13251Y183754D01*
X11599Y183754D01*
D02*G37*
G36*
X14118Y183518D02*
X14275Y183675D01*
X11599Y183754D01*
D02*G37*
G36*
X13645Y183282D02*
X14118Y183518D01*
X11599Y183754D01*
D02*G37*
G36*
X13330Y183242D02*
X13645Y183282D01*
X11599Y183754D01*
D02*G37*
G36*
X11598Y183203D02*
X13330Y183242D01*
X11599Y183754D01*
D02*G37*
G36*
X11598Y183203D02*
X11599Y183754D01*
X11007Y185723D01*
D02*G37*
G36*
X12503Y183203D02*
X13330Y183242D01*
X11598Y183203D01*
D02*G37*
G36*
X12622Y183164D02*
X13330Y183242D01*
X12503Y183203D01*
D02*G37*
G36*
X13527Y183124D02*
X13330Y183242D01*
X12622Y183164D01*
D02*G37*
G36*
X12897Y183046D02*
X13527Y183124D01*
X12622Y183164D01*
D02*G37*
G36*
X13685Y183006D02*
X13527Y183124D01*
X12897Y183046D01*
D02*G37*
G36*
X13015Y182927D02*
X13685Y183006D01*
X12897Y183046D01*
D02*G37*
G36*
X13173Y182731D02*
X13685Y183006D01*
X13015Y182927D01*
D02*G37*
G36*
X13921Y182731D02*
X13685Y183006D01*
X13173Y182731D01*
D02*G37*
G36*
X13370Y182455D02*
X13921Y182731D01*
X13173Y182731D01*
D02*G37*
G36*
X14157Y182416D02*
X13921Y182731D01*
X13370Y182455D01*
D02*G37*
G36*
X13606Y182101D02*
X14157Y182416D01*
X13370Y182455D01*
D02*G37*
G36*
X11007Y181156D02*
X11598Y183203D01*
X11007Y185723D01*
D02*G37*
G36*
X11598Y181156D02*
X11598Y183203D01*
X11007Y181156D01*
D02*G37*
G36*
X14196Y181156D02*
X14157Y182416D01*
X13606Y182101D01*
D02*G37*
G36*
X14905Y181156D02*
X14157Y182416D01*
X14196Y181156D01*
D02*G37*
G36*
X17346Y185644D02*
X16834Y185723D01*
X16519Y185683D01*
D02*G37*
G36*
X16204Y185605D02*
X17346Y185644D01*
X16519Y185683D01*
D02*G37*
G36*
X15929Y185408D02*
X17346Y185644D01*
X16204Y185605D01*
D02*G37*
G36*
X17740Y185408D02*
X17346Y185644D01*
X15929Y185408D01*
D02*G37*
G36*
X16795Y185250D02*
X17740Y185408D01*
X15929Y185408D01*
D02*G37*
G36*
X15692Y185211D02*
X16795Y185250D01*
X15929Y185408D01*
D02*G37*
G36*
X16559Y185211D02*
X16795Y185250D01*
X15692Y185211D01*
D02*G37*
G36*
X17110Y185172D02*
X17740Y185408D01*
X16795Y185250D01*
D02*G37*
G36*
X16322Y185093D02*
X16559Y185211D01*
X15692Y185211D01*
D02*G37*
G36*
X17385Y185014D02*
X17740Y185408D01*
X17110Y185172D01*
D02*G37*
G36*
X18015Y185014D02*
X17740Y185408D01*
X17385Y185014D01*
D02*G37*
G36*
X15496Y184857D02*
X16322Y185093D01*
X15692Y185211D01*
D02*G37*
G36*
X16125Y184857D02*
X16322Y185093D01*
X15496Y184857D01*
D02*G37*
G36*
X17503Y184778D02*
X18015Y185014D01*
X17385Y185014D01*
D02*G37*
G36*
X15929Y184542D02*
X16125Y184857D01*
X15496Y184857D01*
D02*G37*
G36*
X18133Y184542D02*
X18015Y185014D01*
X17503Y184778D01*
D02*G37*
G36*
X17582Y184502D02*
X18133Y184542D01*
X17503Y184778D01*
D02*G37*
G36*
X15338Y184424D02*
X15929Y184542D01*
X15496Y184857D01*
D02*G37*
G36*
X15850Y184345D02*
X15929Y184542D01*
X15338Y184424D01*
D02*G37*
G36*
X15811Y184109D02*
X15850Y184345D01*
X15338Y184424D01*
D02*G37*
G36*
X17149Y184069D02*
X16874Y184109D01*
X16559Y184069D01*
D02*G37*
G36*
X17385Y183990D02*
X17149Y184069D01*
X16559Y184069D01*
D02*G37*
G36*
X16283Y183951D02*
X17385Y183990D01*
X16559Y184069D01*
D02*G37*
G36*
X15259Y183912D02*
X15811Y184109D01*
X15338Y184424D01*
D02*G37*
G36*
X17622Y183872D02*
X17385Y183990D01*
X16283Y183951D01*
D02*G37*
G36*
X16007Y183754D02*
X17622Y183872D01*
X16283Y183951D01*
D02*G37*
G36*
X17818Y183675D02*
X17622Y183872D01*
X16007Y183754D01*
D02*G37*
G36*
X16755Y183557D02*
X17818Y183675D01*
X16007Y183754D01*
D02*G37*
G36*
X15771Y183518D02*
X15811Y184109D01*
X15259Y183912D01*
D02*G37*
G36*
X15771Y183518D02*
X16755Y183557D01*
X16007Y183754D01*
D02*G37*
G36*
X16401Y183479D02*
X16755Y183557D01*
X15771Y183518D01*
D02*G37*
G36*
X17110Y183479D02*
X17818Y183675D01*
X16755Y183557D01*
D02*G37*
G36*
X17976Y183479D02*
X17818Y183675D01*
X17110Y183479D01*
D02*G37*
G36*
X15220Y183282D02*
X15771Y183518D01*
X15259Y183912D01*
D02*G37*
G36*
X15220Y183282D02*
X16401Y183479D01*
X15771Y183518D01*
D02*G37*
G36*
X16086Y183282D02*
X16401Y183479D01*
X15220Y183282D01*
D02*G37*
G36*
X17425Y183282D02*
X17976Y183479D01*
X17110Y183479D01*
D02*G37*
G36*
X18133Y183203D02*
X17976Y183479D01*
X17425Y183282D01*
D02*G37*
G36*
X15889Y182967D02*
X16086Y183282D01*
X15220Y183282D01*
D02*G37*
G36*
X17582Y182967D02*
X18133Y183203D01*
X17425Y183282D01*
D02*G37*
G36*
X18173Y182927D02*
X18133Y183203D01*
X17582Y182967D01*
D02*G37*
G36*
X15259Y182731D02*
X15889Y182967D01*
X15220Y183282D01*
D02*G37*
G36*
X15812Y182612D02*
X15889Y182967D01*
X15259Y182731D01*
D02*G37*
G36*
X18212Y182612D02*
X18173Y182927D01*
X17582Y182967D01*
D02*G37*
G36*
X17661Y182573D02*
X18212Y182612D01*
X17582Y182967D01*
D02*G37*
G36*
X15850Y182337D02*
X15812Y182612D01*
X15259Y182731D01*
D02*G37*
G36*
X15338Y182258D02*
X15850Y182337D01*
X15259Y182731D01*
D02*G37*
G36*
X18173Y182219D02*
X18212Y182612D01*
X17661Y182573D01*
D02*G37*
G36*
X17582Y182140D02*
X18173Y182219D01*
X17661Y182573D01*
D02*G37*
G36*
X15929Y182061D02*
X15850Y182337D01*
X15338Y182258D01*
D02*G37*
G36*
X15456Y181904D02*
X15929Y182061D01*
X15338Y182258D01*
D02*G37*
G36*
X16086Y181825D02*
X15929Y182061D01*
X15456Y181904D01*
D02*G37*
G36*
X17425Y181825D02*
X18173Y182219D01*
X17582Y182140D01*
D02*G37*
G36*
X18015Y181825D02*
X18173Y182219D01*
X17425Y181825D01*
D02*G37*
G36*
X16283Y181668D02*
X16086Y181825D01*
X15456Y181904D01*
D02*G37*
G36*
X17110Y181628D02*
X18015Y181825D01*
X17425Y181825D01*
D02*G37*
G36*
X15653Y181589D02*
X16283Y181668D01*
X15456Y181904D01*
D02*G37*
G36*
X16519Y181589D02*
X16283Y181668D01*
X15653Y181589D01*
D02*G37*
G36*
X16755Y181550D02*
X16519Y181589D01*
X15653Y181589D01*
D02*G37*
G36*
X16755Y181550D02*
X18015Y181825D01*
X17110Y181628D01*
D02*G37*
G36*
X17818Y181510D02*
X18015Y181825D01*
X16755Y181550D01*
D02*G37*
G36*
X17818Y181510D02*
X16755Y181550D01*
X15653Y181589D01*
D02*G37*
G36*
X15889Y181353D02*
X17818Y181510D01*
X15653Y181589D01*
D02*G37*
G36*
X17543Y181274D02*
X17818Y181510D01*
X15889Y181353D01*
D02*G37*
G36*
X16165Y181195D02*
X17543Y181274D01*
X15889Y181353D01*
D02*G37*
G36*
X16480Y181116D02*
X17543Y181274D01*
X16165Y181195D01*
D02*G37*
G36*
X17188Y181116D02*
X17543Y181274D01*
X16480Y181116D01*
D02*G37*
G36*
X16795Y181077D02*
X17188Y181116D01*
X16480Y181116D01*
D02*G37*
G36*
X13527Y210058D02*
X12976Y210098D01*
X11007Y210098D01*
D02*G37*
G36*
X13921Y209980D02*
X13527Y210058D01*
X11007Y210098D01*
D02*G37*
G36*
X14196Y209783D02*
X13921Y209980D01*
X11007Y210098D01*
D02*G37*
G36*
X11598Y209547D02*
X14196Y209783D01*
X11007Y210098D01*
D02*G37*
G36*
X13015Y209547D02*
X14196Y209783D01*
X11598Y209547D01*
D02*G37*
G36*
X14393Y209547D02*
X14196Y209783D01*
X13015Y209547D01*
D02*G37*
G36*
X13448Y209507D02*
X14393Y209547D01*
X13015Y209547D01*
D02*G37*
G36*
X13763Y209350D02*
X14393Y209547D01*
X13448Y209507D01*
D02*G37*
G36*
X14551Y209192D02*
X14393Y209547D01*
X13763Y209350D01*
D02*G37*
G36*
X13960Y209113D02*
X14551Y209192D01*
X13763Y209350D01*
D02*G37*
G36*
X14000Y208838D02*
X14551Y209192D01*
X13960Y209113D01*
D02*G37*
G36*
X14590Y208838D02*
X14551Y209192D01*
X14000Y208838D01*
D02*G37*
G36*
X13960Y208641D02*
X14590Y208838D01*
X14000Y208838D01*
D02*G37*
G36*
X13881Y208444D02*
X14590Y208838D01*
X13960Y208641D01*
D02*G37*
G36*
X14511Y208405D02*
X14590Y208838D01*
X13881Y208444D01*
D02*G37*
G36*
X13724Y208326D02*
X14511Y208405D01*
X13881Y208444D01*
D02*G37*
G36*
X13527Y208208D02*
X14511Y208405D01*
X13724Y208326D01*
D02*G37*
G36*
X11599Y208129D02*
X11598Y209547D01*
X11007Y210098D01*
D02*G37*
G36*
X13251Y208129D02*
X14511Y208405D01*
X13527Y208208D01*
D02*G37*
G36*
X14275Y208050D02*
X14511Y208405D01*
X13251Y208129D01*
D02*G37*
G36*
X14275Y208050D02*
X13251Y208129D01*
X11599Y208129D01*
D02*G37*
G36*
X14118Y207893D02*
X14275Y208050D01*
X11599Y208129D01*
D02*G37*
G36*
X13645Y207657D02*
X14118Y207893D01*
X11599Y208129D01*
D02*G37*
G36*
X13330Y207617D02*
X13645Y207657D01*
X11599Y208129D01*
D02*G37*
G36*
X11598Y207578D02*
X13330Y207617D01*
X11599Y208129D01*
D02*G37*
G36*
X11598Y207578D02*
X11599Y208129D01*
X11007Y210098D01*
D02*G37*
G36*
X12503Y207578D02*
X13330Y207617D01*
X11598Y207578D01*
D02*G37*
G36*
X12622Y207539D02*
X13330Y207617D01*
X12503Y207578D01*
D02*G37*
G36*
X13527Y207499D02*
X13330Y207617D01*
X12622Y207539D01*
D02*G37*
G36*
X12897Y207421D02*
X13527Y207499D01*
X12622Y207539D01*
D02*G37*
G36*
X13685Y207381D02*
X13527Y207499D01*
X12897Y207421D01*
D02*G37*
G36*
X13015Y207302D02*
X13685Y207381D01*
X12897Y207421D01*
D02*G37*
G36*
X13173Y207106D02*
X13685Y207381D01*
X13015Y207302D01*
D02*G37*
G36*
X13921Y207106D02*
X13685Y207381D01*
X13173Y207106D01*
D02*G37*
G36*
X13370Y206830D02*
X13921Y207106D01*
X13173Y207106D01*
D02*G37*
G36*
X14157Y206791D02*
X13921Y207106D01*
X13370Y206830D01*
D02*G37*
G36*
X13606Y206476D02*
X14157Y206791D01*
X13370Y206830D01*
D02*G37*
G36*
X11007Y205531D02*
X11598Y207578D01*
X11007Y210098D01*
D02*G37*
G36*
X11598Y205531D02*
X11598Y207578D01*
X11007Y205531D01*
D02*G37*
G36*
X14196Y205531D02*
X14157Y206791D01*
X13606Y206476D01*
D02*G37*
G36*
X14905Y205531D02*
X14157Y206791D01*
X14196Y205531D01*
D02*G37*
G36*
X15338Y206436D02*
X15299Y206712D01*
X15850Y206751D01*
X15968Y206397D01*
X16125Y206121D01*
X16401Y205964D01*
X16716Y205925D01*
X17110Y206003D01*
X17385Y206200D01*
X17582Y206554D01*
X17661Y206987D01*
X17582Y207421D01*
X17425Y207736D01*
X17110Y207932D01*
X16716Y208011D01*
X16480Y207972D01*
X16244Y207893D01*
X16086Y207775D01*
X15929Y207617D01*
X15377Y207696D01*
X15850Y210019D01*
X17976Y210019D01*
X17976Y209468D01*
X16283Y209468D01*
X16047Y208247D01*
X16244Y208365D01*
X16480Y208484D01*
X16874Y208562D01*
X17149Y208523D01*
X17385Y208444D01*
X17622Y208326D01*
X17818Y208129D01*
X18015Y207932D01*
X18133Y207657D01*
X18173Y207381D01*
X18212Y207066D01*
X18173Y206791D01*
X18133Y206515D01*
X18015Y206239D01*
X17858Y206003D01*
X17622Y205767D01*
X17346Y205570D01*
X17070Y205491D01*
X16716Y205452D01*
X16440Y205452D01*
X16165Y205531D01*
X15929Y205649D01*
X15732Y205806D01*
X15574Y205964D01*
X15417Y206200D01*
X15338Y206436D01*
D02*G37*
G36*
X210128Y205360D02*
X209617Y205557D01*
X209774Y206147D01*
X210128Y206029D01*
X210443Y205872D01*
X210680Y205714D01*
X210916Y205478D01*
X211073Y205202D01*
X211231Y204927D01*
X211270Y204612D01*
X211310Y204297D01*
X211231Y203627D01*
X211152Y203352D01*
X210995Y203116D01*
X210640Y202683D01*
X210128Y202407D01*
X209538Y202250D01*
X208908Y202171D01*
X208239Y202250D01*
X207687Y202446D01*
X207215Y202761D01*
X206861Y203194D01*
X206664Y203706D01*
X206585Y204257D01*
X206625Y204612D01*
X206664Y204887D01*
X206782Y205163D01*
X206939Y205399D01*
X207373Y205793D01*
X207924Y206029D01*
X208081Y205438D01*
X207648Y205242D01*
X207373Y205005D01*
X207215Y204651D01*
X207136Y204257D01*
X207215Y203785D01*
X207373Y203391D01*
X207687Y203076D01*
X208042Y202919D01*
X208475Y202801D01*
X208908Y202761D01*
X209459Y202801D01*
X209932Y202919D01*
X210286Y203155D01*
X210562Y203470D01*
X210719Y203824D01*
X210758Y204218D01*
X210680Y204690D01*
X210483Y205084D01*
X210128Y205360D01*
D02*G37*
G36*
X209617Y210872D02*
X208947Y210950D01*
X208317Y210872D01*
D02*G37*
G36*
X207727Y210675D02*
X209617Y210872D01*
X208317Y210872D01*
D02*G37*
G36*
X210207Y210675D02*
X209617Y210872D01*
X207727Y210675D01*
D02*G37*
G36*
X207254Y210360D02*
X210207Y210675D01*
X207727Y210675D01*
D02*G37*
G36*
X208947Y210360D02*
X210207Y210675D01*
X207254Y210360D01*
D02*G37*
G36*
X210680Y210360D02*
X210207Y210675D01*
X208947Y210360D01*
D02*G37*
G36*
X208436Y210320D02*
X208947Y210360D01*
X207254Y210360D01*
D02*G37*
G36*
X209380Y210320D02*
X210680Y210360D01*
X208947Y210360D01*
D02*G37*
G36*
X209735Y210242D02*
X210680Y210360D01*
X209380Y210320D01*
D02*G37*
G36*
X208002Y210163D02*
X208436Y210320D01*
X207254Y210360D01*
D02*G37*
G36*
X210050Y210124D02*
X210680Y210360D01*
X209735Y210242D01*
D02*G37*
G36*
X207648Y209966D02*
X208002Y210163D01*
X207254Y210360D01*
D02*G37*
G36*
X206900Y209927D02*
X207648Y209966D01*
X207254Y210360D01*
D02*G37*
G36*
X210286Y209927D02*
X210680Y210360D01*
X210050Y210124D01*
D02*G37*
G36*
X211034Y209887D02*
X210680Y210360D01*
X210286Y209927D01*
D02*G37*
G36*
X210483Y209690D02*
X211034Y209887D01*
X210286Y209927D01*
D02*G37*
G36*
X207373Y209651D02*
X207648Y209966D01*
X206900Y209927D01*
D02*G37*
G36*
X206664Y209415D02*
X207373Y209651D01*
X206900Y209927D01*
D02*G37*
G36*
X210640Y209415D02*
X211034Y209887D01*
X210483Y209690D01*
D02*G37*
G36*
X211231Y209375D02*
X211034Y209887D01*
X210640Y209415D01*
D02*G37*
G36*
X207215Y209257D02*
X207373Y209651D01*
X206664Y209415D01*
D02*G37*
G36*
X210719Y209139D02*
X211231Y209375D01*
X210640Y209415D01*
D02*G37*
G36*
X206585Y208824D02*
X207215Y209257D01*
X206664Y209415D01*
D02*G37*
G36*
X207136Y208824D02*
X207215Y209257D01*
X206585Y208824D01*
D02*G37*
G36*
X210758Y208824D02*
X211231Y209375D01*
X210719Y209139D01*
D02*G37*
G36*
X211310Y208824D02*
X211231Y209375D01*
X210758Y208824D01*
D02*G37*
G36*
X207176Y208509D02*
X207136Y208824D01*
X206585Y208824D01*
D02*G37*
G36*
X210719Y208509D02*
X211310Y208824D01*
X210758Y208824D01*
D02*G37*
G36*
X206625Y208391D02*
X207176Y208509D01*
X206585Y208824D01*
D02*G37*
G36*
X207254Y208234D02*
X207176Y208509D01*
X206625Y208391D01*
D02*G37*
G36*
X210640Y208234D02*
X211310Y208824D01*
X210719Y208509D01*
D02*G37*
G36*
X211231Y208234D02*
X211310Y208824D01*
X210640Y208234D01*
D02*G37*
G36*
X207373Y207998D02*
X207254Y208234D01*
X206625Y208391D01*
D02*G37*
G36*
X206743Y207958D02*
X207373Y207998D01*
X206625Y208391D01*
D02*G37*
G36*
X210483Y207958D02*
X211231Y208234D01*
X210640Y208234D01*
D02*G37*
G36*
X211152Y207958D02*
X211231Y208234D01*
X210483Y207958D01*
D02*G37*
G36*
X207569Y207761D02*
X207373Y207998D01*
X206743Y207958D01*
D02*G37*
G36*
X210286Y207722D02*
X211152Y207958D01*
X210483Y207958D01*
D02*G37*
G36*
X210995Y207722D02*
X211152Y207958D01*
X210286Y207722D01*
D02*G37*
G36*
X206939Y207604D02*
X207569Y207761D01*
X206743Y207958D01*
D02*G37*
G36*
X207845Y207564D02*
X207569Y207761D01*
X206939Y207604D01*
D02*G37*
G36*
X210050Y207525D02*
X210995Y207722D01*
X210286Y207722D01*
D02*G37*
G36*
X208160Y207407D02*
X207845Y207564D01*
X206939Y207604D01*
D02*G37*
G36*
X209735Y207407D02*
X210995Y207722D01*
X210050Y207525D01*
D02*G37*
G36*
X208554Y207328D02*
X208160Y207407D01*
X206939Y207604D01*
D02*G37*
G36*
X207215Y207289D02*
X208554Y207328D01*
X206939Y207604D01*
D02*G37*
G36*
X209027Y207289D02*
X208554Y207328D01*
X207215Y207289D01*
D02*G37*
G36*
X210640Y207289D02*
X210995Y207722D01*
X209420Y207328D01*
D02*G37*
G36*
X210640Y207289D02*
X209420Y207328D01*
X209027Y207289D01*
D02*G37*
G36*
X207569Y207053D02*
X210640Y207289D01*
X207215Y207289D01*
D02*G37*
G36*
X210168Y206974D02*
X210640Y207289D01*
X207569Y207053D01*
D02*G37*
G36*
X208002Y206856D02*
X210168Y206974D01*
X207569Y207053D01*
D02*G37*
G36*
X209617Y206777D02*
X210168Y206974D01*
X208002Y206856D01*
D02*G37*
G36*
X208475Y206738D02*
X209617Y206777D01*
X208002Y206856D01*
D02*G37*
G36*
X209026Y206698D02*
X209617Y206777D01*
X208475Y206738D01*
D02*G37*
G36*
X211231Y212368D02*
X211231Y211777D01*
X206664Y211777D01*
X206664Y212407D01*
X210207Y214690D01*
X206664Y214690D01*
X206664Y215281D01*
X211231Y215281D01*
X211231Y214651D01*
X207727Y212368D01*
X211231Y212368D01*
D02*G37*
G36*
X211231Y216895D02*
X211231Y216305D01*
X206664Y216305D01*
X206664Y219297D01*
X207215Y219297D01*
X207215Y216895D01*
X208593Y216895D01*
X208593Y218942D01*
X209144Y218942D01*
X209144Y216895D01*
X211231Y216895D01*
D02*G37*
G36*
X211231Y220753D02*
X211231Y220163D01*
X206664Y220163D01*
X206664Y220753D01*
X211231Y220753D01*
D02*G37*
G36*
X209459Y225242D02*
X209459Y223942D01*
X208908Y223942D01*
X208908Y225832D01*
X210601Y225832D01*
X210916Y225399D01*
X211152Y224927D01*
X211270Y224454D01*
X211310Y223982D01*
X211231Y223312D01*
X211034Y222761D01*
X210680Y222289D01*
X210207Y221935D01*
X209617Y221738D01*
X208987Y221659D01*
X208317Y221738D01*
X207727Y221935D01*
X207215Y222289D01*
X206861Y222722D01*
X206664Y223273D01*
X206585Y223903D01*
X206625Y224375D01*
X206743Y224809D01*
X206939Y225163D01*
X207215Y225438D01*
X207530Y225635D01*
X207963Y225753D01*
X208121Y225202D01*
X207806Y225124D01*
X207569Y224966D01*
X207412Y224769D01*
X207254Y224533D01*
X207176Y224218D01*
X207136Y223903D01*
X207176Y223509D01*
X207254Y223194D01*
X207412Y222919D01*
X207609Y222722D01*
X207806Y222564D01*
X208042Y222407D01*
X208475Y222289D01*
X208947Y222250D01*
X209499Y222289D01*
X209971Y222446D01*
X210325Y222722D01*
X210562Y223076D01*
X210719Y223470D01*
X210758Y223903D01*
X210719Y224297D01*
X210601Y224690D01*
X210443Y225005D01*
X210286Y225242D01*
X209459Y225242D01*
D02*G37*
G36*
X206664Y228509D02*
X211231Y228509D01*
X211231Y227958D01*
X207687Y227958D01*
X207884Y227722D01*
X208042Y227446D01*
X208239Y227171D01*
X208357Y226895D01*
X207806Y226895D01*
X207569Y227328D01*
X207294Y227683D01*
X206979Y227958D01*
X206664Y228155D01*
X206664Y228509D01*
D02*G37*
G36*
X17623Y171856D02*
X17032Y171856D01*
X17032Y176423D01*
X17623Y176423D01*
X17623Y171856D01*
D02*G37*
G36*
X21717Y172958D02*
X21914Y173470D01*
X22504Y173312D01*
X22386Y172958D01*
X22229Y172643D01*
X22071Y172407D01*
X21835Y172171D01*
X21560Y172013D01*
X21284Y171856D01*
X20969Y171816D01*
X20654Y171777D01*
X19985Y171856D01*
X19709Y171935D01*
X19473Y172092D01*
X19040Y172446D01*
X18764Y172958D01*
X18607Y173549D01*
X18528Y174179D01*
X18607Y174848D01*
X18804Y175399D01*
X19119Y175872D01*
X19552Y176226D01*
X20063Y176423D01*
X20615Y176501D01*
X20969Y176462D01*
X21245Y176423D01*
X21520Y176305D01*
X21756Y176147D01*
X22150Y175714D01*
X22386Y175163D01*
X21796Y175005D01*
X21599Y175438D01*
X21363Y175714D01*
X21008Y175872D01*
X20615Y175950D01*
X20142Y175872D01*
X19749Y175714D01*
X19434Y175399D01*
X19276Y175045D01*
X19158Y174612D01*
X19119Y174179D01*
X19158Y173627D01*
X19276Y173155D01*
X19512Y172801D01*
X19827Y172525D01*
X20182Y172368D01*
X20575Y172328D01*
X21048Y172407D01*
X21441Y172604D01*
X21717Y172958D01*
D02*G37*
G36*
X24788Y175478D02*
X25339Y176423D01*
X24906Y176423D01*
D02*G37*
G36*
X22819Y173509D02*
X24788Y175478D01*
X24906Y176423D01*
D02*G37*
G36*
X23371Y173509D02*
X24788Y175478D01*
X22819Y173509D01*
D02*G37*
G36*
X24789Y173509D02*
X25339Y176423D01*
X24788Y175478D01*
D02*G37*
G36*
X25339Y173509D02*
X25339Y176423D01*
X24789Y173509D01*
D02*G37*
G36*
X22819Y172958D02*
X25930Y173509D01*
X22819Y173509D01*
D02*G37*
G36*
X24788Y172958D02*
X25930Y173509D01*
X22819Y172958D01*
D02*G37*
G36*
X25339Y172958D02*
X25930Y173509D01*
X24788Y172958D01*
D02*G37*
G36*
X25930Y172958D02*
X25930Y173509D01*
X25339Y172958D01*
D02*G37*
G36*
X24788Y171856D02*
X25339Y172958D01*
X24788Y172958D01*
D02*G37*
G36*
X25339Y171856D02*
X25339Y172958D01*
X24788Y171856D01*
D02*G37*
G36*
X36777Y167183D02*
X36226Y167223D01*
X34257Y167223D01*
D02*G37*
G36*
X37171Y167105D02*
X36777Y167183D01*
X34257Y167223D01*
D02*G37*
G36*
X37446Y166908D02*
X37171Y167105D01*
X34257Y167223D01*
D02*G37*
G36*
X34848Y166672D02*
X37446Y166908D01*
X34257Y167223D01*
D02*G37*
G36*
X36265Y166672D02*
X37446Y166908D01*
X34848Y166672D01*
D02*G37*
G36*
X37643Y166672D02*
X37446Y166908D01*
X36265Y166672D01*
D02*G37*
G36*
X36698Y166632D02*
X37643Y166672D01*
X36265Y166672D01*
D02*G37*
G36*
X37013Y166475D02*
X37643Y166672D01*
X36698Y166632D01*
D02*G37*
G36*
X37801Y166317D02*
X37643Y166672D01*
X37013Y166475D01*
D02*G37*
G36*
X37210Y166238D02*
X37801Y166317D01*
X37013Y166475D01*
D02*G37*
G36*
X37250Y165963D02*
X37801Y166317D01*
X37210Y166238D01*
D02*G37*
G36*
X37840Y165963D02*
X37801Y166317D01*
X37250Y165963D01*
D02*G37*
G36*
X37210Y165766D02*
X37840Y165963D01*
X37250Y165963D01*
D02*G37*
G36*
X37131Y165569D02*
X37840Y165963D01*
X37210Y165766D01*
D02*G37*
G36*
X37761Y165530D02*
X37840Y165963D01*
X37131Y165569D01*
D02*G37*
G36*
X36974Y165451D02*
X37761Y165530D01*
X37131Y165569D01*
D02*G37*
G36*
X36777Y165333D02*
X37761Y165530D01*
X36974Y165451D01*
D02*G37*
G36*
X34849Y165254D02*
X34848Y166672D01*
X34257Y167223D01*
D02*G37*
G36*
X36501Y165254D02*
X37761Y165530D01*
X36777Y165333D01*
D02*G37*
G36*
X37525Y165175D02*
X37761Y165530D01*
X36501Y165254D01*
D02*G37*
G36*
X37525Y165175D02*
X36501Y165254D01*
X34849Y165254D01*
D02*G37*
G36*
X37368Y165018D02*
X37525Y165175D01*
X34849Y165254D01*
D02*G37*
G36*
X36895Y164782D02*
X37368Y165018D01*
X34849Y165254D01*
D02*G37*
G36*
X36580Y164742D02*
X36895Y164782D01*
X34849Y165254D01*
D02*G37*
G36*
X34848Y164703D02*
X36580Y164742D01*
X34849Y165254D01*
D02*G37*
G36*
X34848Y164703D02*
X34849Y165254D01*
X34257Y167223D01*
D02*G37*
G36*
X35753Y164703D02*
X36580Y164742D01*
X34848Y164703D01*
D02*G37*
G36*
X35872Y164664D02*
X36580Y164742D01*
X35753Y164703D01*
D02*G37*
G36*
X36777Y164624D02*
X36580Y164742D01*
X35872Y164664D01*
D02*G37*
G36*
X36147Y164546D02*
X36777Y164624D01*
X35872Y164664D01*
D02*G37*
G36*
X36935Y164506D02*
X36777Y164624D01*
X36147Y164546D01*
D02*G37*
G36*
X36265Y164427D02*
X36935Y164506D01*
X36147Y164546D01*
D02*G37*
G36*
X36423Y164231D02*
X36935Y164506D01*
X36265Y164427D01*
D02*G37*
G36*
X37171Y164231D02*
X36935Y164506D01*
X36423Y164231D01*
D02*G37*
G36*
X36620Y163955D02*
X37171Y164231D01*
X36423Y164231D01*
D02*G37*
G36*
X37407Y163916D02*
X37171Y164231D01*
X36620Y163955D01*
D02*G37*
G36*
X36856Y163601D02*
X37407Y163916D01*
X36620Y163955D01*
D02*G37*
G36*
X34257Y162656D02*
X34848Y164703D01*
X34257Y167223D01*
D02*G37*
G36*
X34848Y162656D02*
X34848Y164703D01*
X34257Y162656D01*
D02*G37*
G36*
X37446Y162656D02*
X37407Y163916D01*
X36856Y163601D01*
D02*G37*
G36*
X38155Y162656D02*
X37407Y163916D01*
X37446Y162656D01*
D02*G37*
G36*
X39454Y167144D02*
X39966Y167223D01*
X39690Y167183D01*
D02*G37*
G36*
X40517Y167144D02*
X39966Y167223D01*
X39454Y167144D01*
D02*G37*
G36*
X39257Y167026D02*
X40517Y167144D01*
X39454Y167144D01*
D02*G37*
G36*
X40714Y167026D02*
X40517Y167144D01*
X39257Y167026D01*
D02*G37*
G36*
X39061Y166868D02*
X40714Y167026D01*
X39257Y167026D01*
D02*G37*
G36*
X40911Y166868D02*
X40714Y167026D01*
X39061Y166868D01*
D02*G37*
G36*
X40005Y166750D02*
X40911Y166868D01*
X39061Y166868D01*
D02*G37*
G36*
X38903Y166711D02*
X40005Y166750D01*
X39061Y166868D01*
D02*G37*
G36*
X39690Y166711D02*
X40005Y166750D01*
X38903Y166711D01*
D02*G37*
G36*
X40281Y166711D02*
X40911Y166868D01*
X40005Y166750D01*
D02*G37*
G36*
X41068Y166672D02*
X40911Y166868D01*
X40281Y166711D01*
D02*G37*
G36*
X39454Y166553D02*
X39690Y166711D01*
X38903Y166711D01*
D02*G37*
G36*
X40517Y166553D02*
X41068Y166672D01*
X40281Y166711D01*
D02*G37*
G36*
X38785Y166514D02*
X39454Y166553D01*
X38903Y166711D01*
D02*G37*
G36*
X41187Y166475D02*
X41068Y166672D01*
X40517Y166553D01*
D02*G37*
G36*
X39297Y166317D02*
X39454Y166553D01*
X38785Y166514D01*
D02*G37*
G36*
X40675Y166317D02*
X41187Y166475D01*
X40517Y166553D01*
D02*G37*
G36*
X41226Y166278D02*
X41187Y166475D01*
X40675Y166317D01*
D02*G37*
G36*
X38706Y166042D02*
X39297Y166317D01*
X38785Y166514D01*
D02*G37*
G36*
X39258Y166042D02*
X39297Y166317D01*
X38706Y166042D01*
D02*G37*
G36*
X40714Y166042D02*
X41226Y166278D01*
X40675Y166317D01*
D02*G37*
G36*
X41265Y166042D02*
X41226Y166278D01*
X40714Y166042D01*
D02*G37*
G36*
X39297Y165766D02*
X39258Y166042D01*
X38706Y166042D01*
D02*G37*
G36*
X40675Y165766D02*
X41265Y166042D01*
X40714Y166042D01*
D02*G37*
G36*
X38746Y165727D02*
X39297Y165766D01*
X38706Y166042D01*
D02*G37*
G36*
X41226Y165727D02*
X41265Y166042D01*
X40675Y165766D01*
D02*G37*
G36*
X39454Y165530D02*
X39297Y165766D01*
X38746Y165727D01*
D02*G37*
G36*
X40517Y165530D02*
X41226Y165727D01*
X40675Y165766D01*
D02*G37*
G36*
X38864Y165490D02*
X39454Y165530D01*
X38746Y165727D01*
D02*G37*
G36*
X41108Y165490D02*
X41226Y165727D01*
X40517Y165530D01*
D02*G37*
G36*
X39690Y165372D02*
X39454Y165530D01*
X38864Y165490D01*
D02*G37*
G36*
X40281Y165372D02*
X41108Y165490D01*
X40517Y165530D01*
D02*G37*
G36*
X39061Y165254D02*
X39690Y165372D01*
X38864Y165490D01*
D02*G37*
G36*
X39061Y165254D02*
X40005Y165333D01*
X39690Y165372D01*
D02*G37*
G36*
X40911Y165254D02*
X41108Y165490D01*
X40005Y165333D01*
D02*G37*
G36*
X40911Y165254D02*
X40005Y165333D01*
X39061Y165254D01*
D02*G37*
G36*
X39375Y165097D02*
X40911Y165254D01*
X39061Y165254D01*
D02*G37*
G36*
X40635Y165097D02*
X40911Y165254D01*
X39375Y165097D01*
D02*G37*
G36*
X39021Y164939D02*
X40635Y165097D01*
X39375Y165097D01*
D02*G37*
G36*
X40950Y164939D02*
X40635Y165097D01*
X39021Y164939D01*
D02*G37*
G36*
X39966Y164861D02*
X40950Y164939D01*
X39021Y164939D01*
D02*G37*
G36*
X39612Y164782D02*
X39966Y164861D01*
X39021Y164939D01*
D02*G37*
G36*
X40320Y164782D02*
X40950Y164939D01*
X39966Y164861D01*
D02*G37*
G36*
X38746Y164703D02*
X39612Y164782D01*
X39021Y164939D01*
D02*G37*
G36*
X41226Y164664D02*
X40950Y164939D01*
X40320Y164782D01*
D02*G37*
G36*
X39336Y164585D02*
X39612Y164782D01*
X38746Y164703D01*
D02*G37*
G36*
X40635Y164585D02*
X41226Y164664D01*
X40320Y164782D01*
D02*G37*
G36*
X38588Y164349D02*
X39336Y164585D01*
X38746Y164703D01*
D02*G37*
G36*
X41383Y164349D02*
X41226Y164664D01*
X40635Y164585D01*
D02*G37*
G36*
X39179Y164309D02*
X39336Y164585D01*
X38588Y164349D01*
D02*G37*
G36*
X40793Y164309D02*
X41383Y164349D01*
X40635Y164585D01*
D02*G37*
G36*
X38549Y163955D02*
X39179Y164309D01*
X38588Y164349D01*
D02*G37*
G36*
X39101Y163955D02*
X39179Y164309D01*
X38549Y163955D01*
D02*G37*
G36*
X40872Y163955D02*
X41383Y164349D01*
X40793Y164309D01*
D02*G37*
G36*
X41423Y163955D02*
X41383Y164349D01*
X40872Y163955D01*
D02*G37*
G36*
X39139Y163719D02*
X39101Y163955D01*
X38549Y163955D01*
D02*G37*
G36*
X38588Y163679D02*
X39139Y163719D01*
X38549Y163955D01*
D02*G37*
G36*
X40832Y163601D02*
X41423Y163955D01*
X40872Y163955D01*
D02*G37*
G36*
X39218Y163522D02*
X39139Y163719D01*
X38588Y163679D01*
D02*G37*
G36*
X38667Y163404D02*
X39218Y163522D01*
X38588Y163679D01*
D02*G37*
G36*
X41344Y163404D02*
X41423Y163955D01*
X40832Y163601D01*
D02*G37*
G36*
X39336Y163325D02*
X39218Y163522D01*
X38667Y163404D01*
D02*G37*
G36*
X40635Y163286D02*
X41344Y163404D01*
X40832Y163601D01*
D02*G37*
G36*
X38785Y163168D02*
X39336Y163325D01*
X38667Y163404D01*
D02*G37*
G36*
X39533Y163168D02*
X39336Y163325D01*
X38785Y163168D01*
D02*G37*
G36*
X41187Y163168D02*
X41344Y163404D01*
X40635Y163286D01*
D02*G37*
G36*
X40360Y163128D02*
X41187Y163168D01*
X40635Y163286D01*
D02*G37*
G36*
X39769Y163089D02*
X39533Y163168D01*
X38785Y163168D01*
D02*G37*
G36*
X40005Y163050D02*
X39769Y163089D01*
X38785Y163168D01*
D02*G37*
G36*
X40005Y163050D02*
X41187Y163168D01*
X40360Y163128D01*
D02*G37*
G36*
X38942Y162971D02*
X40005Y163050D01*
X38785Y163168D01*
D02*G37*
G36*
X41029Y162971D02*
X41187Y163168D01*
X40005Y163050D01*
D02*G37*
G36*
X41029Y162971D02*
X40005Y163050D01*
X38942Y162971D01*
D02*G37*
G36*
X40832Y162813D02*
X41029Y162971D01*
X38942Y162971D01*
D02*G37*
G36*
X39415Y162656D02*
X40832Y162813D01*
X38942Y162971D01*
D02*G37*
G36*
X40557Y162656D02*
X40832Y162813D01*
X39415Y162656D01*
D02*G37*
G36*
X39690Y162616D02*
X40557Y162656D01*
X39415Y162656D01*
D02*G37*
G36*
X40005Y162577D02*
X40557Y162656D01*
X39690Y162616D01*
D02*G37*
G36*
X81619Y226958D02*
X81540Y227431D01*
X82130Y227431D01*
X82209Y227116D01*
X82327Y226840D01*
X82485Y226643D01*
X82721Y226486D01*
X83036Y226368D01*
X83390Y226328D01*
X83705Y226368D01*
X83981Y226446D01*
X84178Y226564D01*
X84335Y226722D01*
X84414Y226919D01*
X84453Y227116D01*
X84414Y227312D01*
X84335Y227470D01*
X84178Y227627D01*
X83941Y227746D01*
X83823Y227785D01*
X83666Y227824D01*
X83469Y227903D01*
X83193Y227942D01*
X82918Y228021D01*
X82682Y228100D01*
X82485Y228179D01*
X82327Y228257D01*
X82052Y228415D01*
X81855Y228651D01*
X81737Y228927D01*
X81697Y229242D01*
X81737Y229557D01*
X81894Y229872D01*
X82130Y230147D01*
X82445Y230344D01*
X82839Y230462D01*
X83272Y230501D01*
X83705Y230462D01*
X84138Y230344D01*
X84453Y230108D01*
X84689Y229832D01*
X84847Y229517D01*
X84926Y229124D01*
X84335Y229124D01*
X84256Y229478D01*
X84020Y229753D01*
X83705Y229911D01*
X83272Y229950D01*
X82839Y229911D01*
X82524Y229753D01*
X82367Y229517D01*
X82288Y229281D01*
X82327Y229045D01*
X82445Y228848D01*
X82563Y228769D01*
X82760Y228690D01*
X82997Y228612D01*
X83312Y228533D01*
X83626Y228454D01*
X83902Y228375D01*
X84138Y228297D01*
X84296Y228257D01*
X84611Y228061D01*
X84847Y227785D01*
X85004Y227470D01*
X85044Y227155D01*
X85004Y226801D01*
X84847Y226446D01*
X84611Y226171D01*
X84256Y225935D01*
X83863Y225816D01*
X83430Y225777D01*
X82878Y225816D01*
X82406Y225974D01*
X82052Y226210D01*
X81776Y226564D01*
X81619Y226958D01*
D02*G37*
G36*
X87682Y230423D02*
X87682Y225856D01*
X87130Y225856D01*
X87130Y229399D01*
X86894Y229202D01*
X86619Y229045D01*
X86343Y228848D01*
X86067Y228730D01*
X86067Y229281D01*
X86500Y229517D01*
X86855Y229793D01*
X87130Y230108D01*
X87327Y230423D01*
X87682Y230423D01*
D02*G37*
G36*
X80994Y182583D02*
X80915Y183056D01*
X81505Y183056D01*
X81584Y182741D01*
X81702Y182465D01*
X81860Y182268D01*
X82096Y182111D01*
X82411Y181993D01*
X82765Y181953D01*
X83080Y181993D01*
X83356Y182071D01*
X83553Y182189D01*
X83710Y182347D01*
X83789Y182544D01*
X83828Y182741D01*
X83789Y182937D01*
X83710Y183095D01*
X83553Y183252D01*
X83316Y183371D01*
X83198Y183410D01*
X83041Y183449D01*
X82844Y183528D01*
X82568Y183567D01*
X82293Y183646D01*
X82057Y183725D01*
X81860Y183804D01*
X81702Y183882D01*
X81427Y184040D01*
X81230Y184276D01*
X81112Y184552D01*
X81072Y184867D01*
X81112Y185182D01*
X81269Y185497D01*
X81505Y185772D01*
X81820Y185969D01*
X82214Y186087D01*
X82647Y186126D01*
X83080Y186087D01*
X83513Y185969D01*
X83828Y185733D01*
X84064Y185457D01*
X84222Y185142D01*
X84301Y184749D01*
X83710Y184749D01*
X83631Y185103D01*
X83395Y185378D01*
X83080Y185536D01*
X82647Y185575D01*
X82214Y185536D01*
X81899Y185378D01*
X81742Y185142D01*
X81663Y184906D01*
X81702Y184670D01*
X81820Y184473D01*
X81938Y184394D01*
X82135Y184315D01*
X82372Y184237D01*
X82687Y184158D01*
X83001Y184079D01*
X83277Y184000D01*
X83513Y183922D01*
X83671Y183882D01*
X83986Y183686D01*
X84222Y183410D01*
X84379Y183095D01*
X84419Y182780D01*
X84379Y182426D01*
X84222Y182071D01*
X83986Y181796D01*
X83631Y181560D01*
X83238Y181441D01*
X82805Y181402D01*
X82253Y181441D01*
X81781Y181599D01*
X81427Y181835D01*
X81151Y182189D01*
X80994Y182583D01*
D02*G37*
G36*
X85718Y182032D02*
X87883Y182032D01*
X87883Y181481D01*
X84970Y181481D01*
X85049Y181875D01*
X85167Y182189D01*
X85364Y182504D01*
X85679Y182819D01*
X86072Y183174D01*
X86387Y183489D01*
X86663Y183725D01*
X86899Y183961D01*
X87057Y184158D01*
X87214Y184473D01*
X87293Y184827D01*
X87253Y185103D01*
X87057Y185339D01*
X86781Y185536D01*
X86466Y185575D01*
X86112Y185497D01*
X85836Y185339D01*
X85679Y185063D01*
X85600Y184709D01*
X85049Y184788D01*
X85206Y185339D01*
X85482Y185733D01*
X85679Y185851D01*
X85915Y185969D01*
X86190Y186008D01*
X86466Y186048D01*
X86781Y186008D01*
X87057Y185969D01*
X87293Y185851D01*
X87490Y185693D01*
X87647Y185497D01*
X87765Y185260D01*
X87805Y185024D01*
X87844Y184788D01*
X87805Y184512D01*
X87726Y184237D01*
X87608Y183961D01*
X87411Y183686D01*
X87253Y183528D01*
X87096Y183331D01*
X86860Y183134D01*
X86584Y182898D01*
X86348Y182701D01*
X86190Y182544D01*
X86033Y182426D01*
X85954Y182347D01*
X85718Y182032D01*
D02*G37*
G36*
X143750Y227583D02*
X143671Y228056D01*
X144261Y228056D01*
X144340Y227741D01*
X144458Y227465D01*
X144616Y227268D01*
X144852Y227111D01*
X145167Y226993D01*
X145521Y226953D01*
X145836Y226993D01*
X146112Y227071D01*
X146309Y227189D01*
X146466Y227347D01*
X146545Y227544D01*
X146584Y227741D01*
X146545Y227937D01*
X146466Y228095D01*
X146309Y228252D01*
X146072Y228371D01*
X145954Y228410D01*
X145797Y228449D01*
X145600Y228528D01*
X145324Y228567D01*
X145049Y228646D01*
X144812Y228725D01*
X144616Y228804D01*
X144458Y228882D01*
X144183Y229040D01*
X143986Y229276D01*
X143868Y229552D01*
X143828Y229867D01*
X143868Y230182D01*
X144025Y230497D01*
X144261Y230772D01*
X144576Y230969D01*
X144970Y231087D01*
X145403Y231126D01*
X145836Y231087D01*
X146269Y230969D01*
X146584Y230733D01*
X146820Y230457D01*
X146978Y230142D01*
X147057Y229749D01*
X146466Y229749D01*
X146387Y230103D01*
X146151Y230378D01*
X145836Y230536D01*
X145403Y230575D01*
X144970Y230536D01*
X144655Y230378D01*
X144498Y230142D01*
X144419Y229906D01*
X144458Y229670D01*
X144576Y229473D01*
X144694Y229394D01*
X144891Y229315D01*
X145127Y229237D01*
X145442Y229158D01*
X145757Y229079D01*
X146033Y229000D01*
X146269Y228922D01*
X146427Y228882D01*
X146742Y228686D01*
X146978Y228410D01*
X147135Y228095D01*
X147175Y227780D01*
X147135Y227426D01*
X146978Y227071D01*
X146742Y226796D01*
X146387Y226560D01*
X145994Y226441D01*
X145561Y226402D01*
X145009Y226441D01*
X144537Y226599D01*
X144183Y226835D01*
X143907Y227189D01*
X143750Y227583D01*
D02*G37*
G36*
X147844Y227386D02*
X147805Y227662D01*
X148356Y227741D01*
X148474Y227347D01*
X148671Y227071D01*
X148907Y226914D01*
X149222Y226875D01*
X149616Y226953D01*
X149891Y227150D01*
X150088Y227465D01*
X150167Y227819D01*
X150088Y228174D01*
X149931Y228449D01*
X149655Y228646D01*
X149301Y228725D01*
X149104Y228686D01*
X148907Y228646D01*
X148946Y229197D01*
X149025Y229197D01*
X149379Y229237D01*
X149655Y229355D01*
X149852Y229591D01*
X149931Y229906D01*
X149891Y230182D01*
X149734Y230378D01*
X149498Y230536D01*
X149183Y230575D01*
X148907Y230536D01*
X148671Y230378D01*
X148513Y230142D01*
X148395Y229788D01*
X147844Y229867D01*
X148001Y230378D01*
X148316Y230733D01*
X148710Y230969D01*
X149183Y231048D01*
X149537Y231008D01*
X149852Y230890D01*
X150127Y230693D01*
X150324Y230457D01*
X150442Y230182D01*
X150482Y229906D01*
X150442Y229630D01*
X150324Y229355D01*
X150127Y229158D01*
X149852Y229000D01*
X150206Y228843D01*
X150482Y228607D01*
X150679Y228252D01*
X150718Y227859D01*
X150679Y227544D01*
X150600Y227308D01*
X150482Y227032D01*
X150285Y226835D01*
X150049Y226638D01*
X149812Y226520D01*
X149537Y226441D01*
X149222Y226402D01*
X148946Y226441D01*
X148671Y226481D01*
X148435Y226599D01*
X148238Y226756D01*
X148080Y226953D01*
X147962Y227150D01*
X147844Y227386D01*
D02*G37*
G36*
X143750Y181958D02*
X143671Y182431D01*
X144261Y182431D01*
X144340Y182116D01*
X144458Y181840D01*
X144616Y181643D01*
X144852Y181486D01*
X145167Y181368D01*
X145521Y181328D01*
X145836Y181368D01*
X146112Y181446D01*
X146309Y181564D01*
X146466Y181722D01*
X146545Y181919D01*
X146584Y182116D01*
X146545Y182312D01*
X146466Y182470D01*
X146309Y182627D01*
X146072Y182746D01*
X145954Y182785D01*
X145797Y182824D01*
X145600Y182903D01*
X145324Y182942D01*
X145049Y183021D01*
X144812Y183100D01*
X144616Y183179D01*
X144458Y183257D01*
X144183Y183415D01*
X143986Y183651D01*
X143868Y183927D01*
X143828Y184242D01*
X143868Y184557D01*
X144025Y184872D01*
X144261Y185147D01*
X144576Y185344D01*
X144970Y185462D01*
X145403Y185501D01*
X145836Y185462D01*
X146269Y185344D01*
X146584Y185108D01*
X146820Y184832D01*
X146978Y184517D01*
X147057Y184124D01*
X146466Y184124D01*
X146387Y184478D01*
X146151Y184753D01*
X145836Y184911D01*
X145403Y184950D01*
X144970Y184911D01*
X144655Y184753D01*
X144498Y184517D01*
X144419Y184281D01*
X144458Y184045D01*
X144576Y183848D01*
X144694Y183769D01*
X144891Y183690D01*
X145127Y183612D01*
X145442Y183533D01*
X145757Y183454D01*
X146033Y183375D01*
X146269Y183297D01*
X146427Y183257D01*
X146742Y183061D01*
X146978Y182785D01*
X147135Y182470D01*
X147175Y182155D01*
X147135Y181801D01*
X146978Y181446D01*
X146742Y181171D01*
X146387Y180935D01*
X145994Y180816D01*
X145561Y180777D01*
X145009Y180816D01*
X144537Y180974D01*
X144183Y181210D01*
X143907Y181564D01*
X143750Y181958D01*
D02*G37*
G36*
X149576Y184478D02*
X150127Y185423D01*
X149694Y185423D01*
D02*G37*
G36*
X147608Y182509D02*
X149576Y184478D01*
X149694Y185423D01*
D02*G37*
G36*
X148159Y182509D02*
X149576Y184478D01*
X147608Y182509D01*
D02*G37*
G36*
X149577Y182509D02*
X150127Y185423D01*
X149576Y184478D01*
D02*G37*
G36*
X150127Y182509D02*
X150127Y185423D01*
X149577Y182509D01*
D02*G37*
G36*
X147608Y181958D02*
X150718Y182509D01*
X147608Y182509D01*
D02*G37*
G36*
X149576Y181958D02*
X150718Y182509D01*
X147608Y181958D01*
D02*G37*
G36*
X150127Y181958D02*
X150718Y182509D01*
X149576Y181958D01*
D02*G37*
G36*
X150718Y181958D02*
X150718Y182509D01*
X150127Y181958D01*
D02*G37*
G36*
X149576Y180856D02*
X150127Y181958D01*
X149576Y181958D01*
D02*G37*
G36*
X150127Y180856D02*
X150127Y181958D01*
X149576Y180856D01*
D02*G37*
G36*
X227485Y165083D02*
X227682Y165595D01*
X228272Y165437D01*
X228154Y165083D01*
X227997Y164768D01*
X227839Y164532D01*
X227603Y164296D01*
X227327Y164138D01*
X227052Y163981D01*
X226737Y163941D01*
X226422Y163902D01*
X225752Y163981D01*
X225477Y164060D01*
X225241Y164217D01*
X224808Y164571D01*
X224532Y165083D01*
X224375Y165674D01*
X224296Y166304D01*
X224375Y166973D01*
X224571Y167524D01*
X224886Y167997D01*
X225319Y168351D01*
X225831Y168548D01*
X226382Y168626D01*
X226737Y168587D01*
X227012Y168548D01*
X227288Y168430D01*
X227524Y168272D01*
X227918Y167839D01*
X228154Y167288D01*
X227563Y167130D01*
X227367Y167563D01*
X227130Y167839D01*
X226776Y167997D01*
X226382Y168075D01*
X225910Y167997D01*
X225516Y167839D01*
X225201Y167524D01*
X225044Y167170D01*
X224926Y166737D01*
X224886Y166304D01*
X224926Y165752D01*
X225044Y165280D01*
X225280Y164926D01*
X225595Y164650D01*
X225949Y164493D01*
X226343Y164453D01*
X226815Y164532D01*
X227209Y164729D01*
X227485Y165083D01*
D02*G37*
G36*
X230792Y168548D02*
X230792Y163981D01*
X230241Y163981D01*
X230241Y167524D01*
X230004Y167327D01*
X229729Y167170D01*
X229453Y166973D01*
X229178Y166855D01*
X229178Y167406D01*
X229611Y167642D01*
X229965Y167918D01*
X230241Y168233D01*
X230437Y168548D01*
X230792Y168548D01*
D02*G37*
G36*
X210838Y172870D02*
X210248Y172870D01*
X210248Y177437D01*
X210838Y177437D01*
X210838Y172870D01*
D02*G37*
G36*
X214933Y173972D02*
X215129Y174484D01*
X215720Y174326D01*
X215602Y173972D01*
X215444Y173657D01*
X215287Y173421D01*
X215051Y173185D01*
X214775Y173027D01*
X214499Y172870D01*
X214185Y172830D01*
X213870Y172791D01*
X213200Y172870D01*
X212925Y172948D01*
X212688Y173106D01*
X212255Y173460D01*
X211980Y173972D01*
X211822Y174562D01*
X211744Y175192D01*
X211822Y175862D01*
X212019Y176413D01*
X212334Y176885D01*
X212767Y177240D01*
X213279Y177437D01*
X213830Y177515D01*
X214185Y177476D01*
X214460Y177437D01*
X214736Y177318D01*
X214972Y177161D01*
X215366Y176728D01*
X215602Y176177D01*
X215011Y176019D01*
X214814Y176452D01*
X214578Y176728D01*
X214224Y176885D01*
X213830Y176964D01*
X213358Y176885D01*
X212964Y176728D01*
X212649Y176413D01*
X212492Y176059D01*
X212374Y175625D01*
X212334Y175192D01*
X212374Y174641D01*
X212492Y174169D01*
X212728Y173814D01*
X213043Y173539D01*
X213397Y173381D01*
X213791Y173342D01*
X214263Y173421D01*
X214657Y173618D01*
X214933Y173972D01*
D02*G37*
G36*
X216271Y173775D02*
X216232Y174051D01*
X216783Y174129D01*
X216901Y173736D01*
X217098Y173460D01*
X217334Y173303D01*
X217649Y173263D01*
X218043Y173342D01*
X218318Y173539D01*
X218515Y173854D01*
X218594Y174208D01*
X218515Y174562D01*
X218358Y174838D01*
X218082Y175035D01*
X217728Y175114D01*
X217531Y175074D01*
X217334Y175035D01*
X217374Y175586D01*
X217452Y175586D01*
X217807Y175625D01*
X218082Y175744D01*
X218279Y175980D01*
X218358Y176295D01*
X218318Y176570D01*
X218161Y176767D01*
X217925Y176925D01*
X217610Y176964D01*
X217334Y176925D01*
X217098Y176767D01*
X216940Y176531D01*
X216822Y176177D01*
X216271Y176255D01*
X216429Y176767D01*
X216744Y177122D01*
X217137Y177358D01*
X217610Y177437D01*
X217964Y177397D01*
X218279Y177279D01*
X218555Y177082D01*
X218751Y176846D01*
X218870Y176570D01*
X218909Y176295D01*
X218870Y176019D01*
X218751Y175744D01*
X218555Y175547D01*
X218279Y175389D01*
X218633Y175232D01*
X218909Y174996D01*
X219106Y174641D01*
X219145Y174248D01*
X219106Y173933D01*
X219027Y173696D01*
X218909Y173421D01*
X218712Y173224D01*
X218476Y173027D01*
X218240Y172909D01*
X217964Y172830D01*
X217649Y172791D01*
X217374Y172830D01*
X217098Y172870D01*
X216862Y172988D01*
X216665Y173145D01*
X216507Y173342D01*
X216389Y173539D01*
X216271Y173775D01*
D02*G37*
G36*
X18750Y214458D02*
X18671Y214931D01*
X19261Y214931D01*
X19340Y214616D01*
X19458Y214340D01*
X19616Y214143D01*
X19852Y213986D01*
X20167Y213868D01*
X20521Y213828D01*
X20836Y213868D01*
X21112Y213946D01*
X21309Y214064D01*
X21466Y214222D01*
X21545Y214419D01*
X21584Y214616D01*
X21545Y214812D01*
X21466Y214970D01*
X21309Y215127D01*
X21072Y215246D01*
X20954Y215285D01*
X20797Y215324D01*
X20600Y215403D01*
X20324Y215442D01*
X20049Y215521D01*
X19812Y215600D01*
X19616Y215679D01*
X19458Y215757D01*
X19183Y215915D01*
X18986Y216151D01*
X18868Y216427D01*
X18828Y216742D01*
X18868Y217057D01*
X19025Y217372D01*
X19261Y217647D01*
X19576Y217844D01*
X19970Y217962D01*
X20403Y218001D01*
X20836Y217962D01*
X21269Y217844D01*
X21584Y217608D01*
X21820Y217332D01*
X21978Y217017D01*
X22057Y216624D01*
X21466Y216624D01*
X21387Y216978D01*
X21151Y217253D01*
X20836Y217411D01*
X20403Y217450D01*
X19970Y217411D01*
X19655Y217253D01*
X19498Y217017D01*
X19419Y216781D01*
X19458Y216545D01*
X19576Y216348D01*
X19694Y216269D01*
X19891Y216190D01*
X20127Y216112D01*
X20442Y216033D01*
X20757Y215954D01*
X21033Y215875D01*
X21269Y215797D01*
X21427Y215757D01*
X21742Y215561D01*
X21978Y215285D01*
X22135Y214970D01*
X22175Y214655D01*
X22135Y214301D01*
X21978Y213946D01*
X21742Y213671D01*
X21387Y213435D01*
X20994Y213316D01*
X20561Y213277D01*
X20009Y213316D01*
X19537Y213474D01*
X19183Y213710D01*
X18907Y214064D01*
X18750Y214458D01*
D02*G37*
G36*
X22844Y214261D02*
X22805Y214537D01*
X23356Y214576D01*
X23474Y214222D01*
X23631Y213946D01*
X23907Y213789D01*
X24222Y213750D01*
X24616Y213828D01*
X24891Y214025D01*
X25088Y214379D01*
X25167Y214812D01*
X25088Y215246D01*
X24931Y215561D01*
X24616Y215757D01*
X24222Y215836D01*
X23986Y215797D01*
X23750Y215718D01*
X23592Y215600D01*
X23435Y215442D01*
X22883Y215521D01*
X23356Y217844D01*
X25482Y217844D01*
X25482Y217293D01*
X23789Y217293D01*
X23553Y216072D01*
X23750Y216190D01*
X23986Y216309D01*
X24379Y216387D01*
X24655Y216348D01*
X24891Y216269D01*
X25127Y216151D01*
X25324Y215954D01*
X25521Y215757D01*
X25639Y215482D01*
X25679Y215206D01*
X25718Y214891D01*
X25679Y214616D01*
X25639Y214340D01*
X25521Y214064D01*
X25364Y213828D01*
X25127Y213592D01*
X24852Y213395D01*
X24576Y213316D01*
X24222Y213277D01*
X23946Y213277D01*
X23671Y213356D01*
X23435Y213474D01*
X23238Y213631D01*
X23080Y213789D01*
X22923Y214025D01*
X22844Y214261D01*
D02*G37*
G36*
X17908Y89758D02*
X17436Y89798D01*
X15743Y89798D01*
D02*G37*
G36*
X18262Y89640D02*
X17908Y89758D01*
X15743Y89798D01*
D02*G37*
G36*
X18538Y89483D02*
X18262Y89640D01*
X15743Y89798D01*
D02*G37*
G36*
X16333Y89247D02*
X18538Y89483D01*
X15743Y89798D01*
D02*G37*
G36*
X17672Y89247D02*
X18538Y89483D01*
X16333Y89247D01*
D02*G37*
G36*
X18774Y89247D02*
X18538Y89483D01*
X17672Y89247D01*
D02*G37*
G36*
X17908Y89168D02*
X18774Y89247D01*
X17672Y89247D01*
D02*G37*
G36*
X18105Y89089D02*
X18774Y89247D01*
X17908Y89168D01*
D02*G37*
G36*
X18223Y88932D02*
X18774Y89247D01*
X18105Y89089D01*
D02*G37*
G36*
X18892Y88932D02*
X18774Y89247D01*
X18223Y88932D01*
D02*G37*
G36*
X18302Y88774D02*
X18892Y88932D01*
X18223Y88932D01*
D02*G37*
G36*
X18932Y88617D02*
X18892Y88932D01*
X18302Y88774D01*
D02*G37*
G36*
X18341Y88577D02*
X18932Y88617D01*
X18302Y88774D01*
D02*G37*
G36*
X18302Y88341D02*
X18932Y88617D01*
X18341Y88577D01*
D02*G37*
G36*
X18892Y88341D02*
X18932Y88617D01*
X18302Y88341D01*
D02*G37*
G36*
X18223Y88184D02*
X18892Y88341D01*
X18302Y88341D01*
D02*G37*
G36*
X18774Y88065D02*
X18892Y88341D01*
X18223Y88184D01*
D02*G37*
G36*
X18065Y88026D02*
X18774Y88065D01*
X18223Y88184D01*
D02*G37*
G36*
X17869Y87947D02*
X18774Y88065D01*
X18065Y88026D01*
D02*G37*
G36*
X16334Y87908D02*
X16333Y89247D01*
X15743Y89798D01*
D02*G37*
G36*
X17672Y87908D02*
X18774Y88065D01*
X17869Y87947D01*
D02*G37*
G36*
X18577Y87869D02*
X18774Y88065D01*
X17672Y87908D01*
D02*G37*
G36*
X18577Y87869D02*
X17672Y87908D01*
X16334Y87908D01*
D02*G37*
G36*
X18302Y87672D02*
X18577Y87869D01*
X16334Y87908D01*
D02*G37*
G36*
X18656Y87514D02*
X18302Y87672D01*
X16334Y87908D01*
D02*G37*
G36*
X16333Y87357D02*
X18656Y87514D01*
X16334Y87908D01*
D02*G37*
G36*
X16333Y87357D02*
X16334Y87908D01*
X15743Y89798D01*
D02*G37*
G36*
X17396Y87357D02*
X18656Y87514D01*
X16333Y87357D01*
D02*G37*
G36*
X17750Y87317D02*
X18656Y87514D01*
X17396Y87357D01*
D02*G37*
G36*
X18026Y87278D02*
X18656Y87514D01*
X17750Y87317D01*
D02*G37*
G36*
X18892Y87239D02*
X18656Y87514D01*
X18026Y87278D01*
D02*G37*
G36*
X18262Y87160D02*
X18892Y87239D01*
X18026Y87278D01*
D02*G37*
G36*
X18380Y87002D02*
X18892Y87239D01*
X18262Y87160D01*
D02*G37*
G36*
X19050Y86924D02*
X18892Y87239D01*
X18380Y87002D01*
D02*G37*
G36*
X18459Y86806D02*
X19050Y86924D01*
X18380Y87002D01*
D02*G37*
G36*
X18499Y86569D02*
X19050Y86924D01*
X18459Y86806D01*
D02*G37*
G36*
X19089Y86569D02*
X19050Y86924D01*
X18499Y86569D01*
D02*G37*
G36*
X19050Y86254D02*
X19089Y86569D01*
X18499Y86569D01*
D02*G37*
G36*
X18420Y86176D02*
X19050Y86254D01*
X18499Y86569D01*
D02*G37*
G36*
X18302Y86018D02*
X19050Y86254D01*
X18420Y86176D01*
D02*G37*
G36*
X18184Y85939D02*
X19050Y86254D01*
X18302Y86018D01*
D02*G37*
G36*
X18971Y85939D02*
X19050Y86254D01*
X18184Y85939D01*
D02*G37*
G36*
X17829Y85821D02*
X18971Y85939D01*
X18184Y85939D01*
D02*G37*
G36*
X16334Y85782D02*
X16333Y87357D01*
X15743Y89798D01*
D02*G37*
G36*
X17672Y85782D02*
X18971Y85939D01*
X17829Y85821D01*
D02*G37*
G36*
X18813Y85703D02*
X18971Y85939D01*
X17672Y85782D01*
D02*G37*
G36*
X18813Y85703D02*
X17672Y85782D01*
X16334Y85782D01*
D02*G37*
G36*
X18420Y85388D02*
X18813Y85703D01*
X16334Y85782D01*
D02*G37*
G36*
X18144Y85310D02*
X18420Y85388D01*
X16334Y85782D01*
D02*G37*
G36*
X15743Y85231D02*
X16334Y85782D01*
X15743Y89798D01*
D02*G37*
G36*
X15743Y85231D02*
X18144Y85310D01*
X16334Y85782D01*
D02*G37*
G36*
X17829Y85231D02*
X18144Y85310D01*
X15743Y85231D01*
D02*G37*
G36*
X21373Y89325D02*
X21687Y89798D01*
X21018Y89798D01*
D02*G37*
G36*
X21530Y88892D02*
X21687Y89798D01*
X21373Y89325D01*
D02*G37*
G36*
X21097Y88459D02*
X21373Y89325D01*
X21018Y89798D01*
D02*G37*
G36*
X21687Y88341D02*
X21687Y89798D01*
X21530Y88892D01*
D02*G37*
G36*
X20626Y87199D02*
X21097Y88459D01*
X21018Y89798D01*
D02*G37*
G36*
X22121Y87199D02*
X21687Y89798D01*
X21687Y88341D01*
D02*G37*
G36*
X20428Y86648D02*
X22121Y87199D01*
X20626Y87199D01*
D02*G37*
G36*
X20428Y86648D02*
X20626Y87199D01*
X21018Y89798D01*
D02*G37*
G36*
X22317Y86648D02*
X22121Y87199D01*
X20428Y86648D01*
D02*G37*
G36*
X22317Y86648D02*
X21687Y89798D01*
X22121Y87199D01*
D02*G37*
G36*
X19325Y85231D02*
X20428Y86648D01*
X21018Y89798D01*
D02*G37*
G36*
X19955Y85231D02*
X20428Y86648D01*
X19325Y85231D01*
D02*G37*
G36*
X22829Y85231D02*
X21687Y89798D01*
X22317Y86648D01*
D02*G37*
G36*
X23459Y85231D02*
X21687Y89798D01*
X22829Y85231D01*
D02*G37*
G36*
X25782Y85231D02*
X25191Y85231D01*
X25191Y89247D01*
X23695Y89247D01*
X23695Y89798D01*
X27278Y89798D01*
X27278Y89247D01*
X25782Y89247D01*
X25782Y85231D01*
D02*G37*
G36*
X29680Y89798D02*
X29680Y85231D01*
X29128Y85231D01*
X29128Y88774D01*
X28892Y88577D01*
X28617Y88420D01*
X28341Y88223D01*
X28065Y88105D01*
X28065Y88656D01*
X28499Y88892D01*
X28853Y89168D01*
X29128Y89483D01*
X29325Y89798D01*
X29680Y89798D01*
D02*G37*
G36*
X6161Y70639D02*
X2539Y70639D01*
X2539Y71545D01*
X6161Y71545D01*
X6161Y70639D01*
D02*G37*
G36*
X167250Y211958D02*
X167171Y212431D01*
X167762Y212431D01*
X167840Y212116D01*
X167958Y211840D01*
X168116Y211643D01*
X168352Y211486D01*
X168667Y211368D01*
X169021Y211328D01*
X169336Y211368D01*
X169612Y211446D01*
X169809Y211564D01*
X169966Y211722D01*
X170045Y211919D01*
X170084Y212116D01*
X170045Y212312D01*
X169966Y212470D01*
X169809Y212627D01*
X169573Y212746D01*
X169454Y212785D01*
X169297Y212824D01*
X169100Y212903D01*
X168825Y212942D01*
X168549Y213021D01*
X168313Y213100D01*
X168116Y213179D01*
X167958Y213257D01*
X167683Y213415D01*
X167486Y213651D01*
X167368Y213927D01*
X167328Y214242D01*
X167368Y214557D01*
X167525Y214872D01*
X167762Y215147D01*
X168076Y215344D01*
X168470Y215462D01*
X168903Y215501D01*
X169336Y215462D01*
X169769Y215344D01*
X170084Y215108D01*
X170321Y214832D01*
X170478Y214517D01*
X170557Y214124D01*
X169966Y214124D01*
X169887Y214478D01*
X169651Y214753D01*
X169336Y214911D01*
X168903Y214950D01*
X168470Y214911D01*
X168155Y214753D01*
X167998Y214517D01*
X167919Y214281D01*
X167958Y214045D01*
X168076Y213848D01*
X168195Y213769D01*
X168391Y213690D01*
X168628Y213612D01*
X168943Y213533D01*
X169258Y213454D01*
X169533Y213375D01*
X169769Y213297D01*
X169927Y213257D01*
X170242Y213061D01*
X170478Y212785D01*
X170636Y212470D01*
X170675Y212155D01*
X170636Y211801D01*
X170478Y211446D01*
X170242Y211171D01*
X169887Y210935D01*
X169494Y210816D01*
X169061Y210777D01*
X168510Y210816D01*
X168037Y210974D01*
X167683Y211210D01*
X167407Y211564D01*
X167250Y211958D01*
D02*G37*
G36*
X173549Y215383D02*
X173076Y215423D01*
X171541Y215423D01*
D02*G37*
G36*
X173864Y215344D02*
X173549Y215383D01*
X171541Y215423D01*
D02*G37*
G36*
X174258Y215226D02*
X173864Y215344D01*
X171541Y215423D01*
D02*G37*
G36*
X174533Y215029D02*
X174258Y215226D01*
X171541Y215423D01*
D02*G37*
G36*
X172132Y214872D02*
X174533Y215029D01*
X171541Y215423D01*
D02*G37*
G36*
X173076Y214872D02*
X174533Y215029D01*
X172132Y214872D01*
D02*G37*
G36*
X173549Y214832D02*
X174533Y215029D01*
X173076Y214872D01*
D02*G37*
G36*
X173864Y214793D02*
X174533Y215029D01*
X173549Y214832D01*
D02*G37*
G36*
X174848Y214675D02*
X174533Y215029D01*
X173864Y214793D01*
D02*G37*
G36*
X174179Y214596D02*
X174848Y214675D01*
X173864Y214793D01*
D02*G37*
G36*
X174415Y214281D02*
X174848Y214675D01*
X174179Y214596D01*
D02*G37*
G36*
X175084Y214242D02*
X174848Y214675D01*
X174415Y214281D01*
D02*G37*
G36*
X174533Y214045D02*
X175084Y214242D01*
X174415Y214281D01*
D02*G37*
G36*
X174612Y213809D02*
X175084Y214242D01*
X174533Y214045D01*
D02*G37*
G36*
X175202Y213730D02*
X175084Y214242D01*
X174612Y213809D01*
D02*G37*
G36*
X174651Y213494D02*
X175202Y213730D01*
X174612Y213809D01*
D02*G37*
G36*
X174651Y213179D02*
X175202Y213730D01*
X174651Y213494D01*
D02*G37*
G36*
X175242Y213179D02*
X175202Y213730D01*
X174651Y213179D01*
D02*G37*
G36*
X174612Y212706D02*
X175242Y213179D01*
X174651Y213179D01*
D02*G37*
G36*
X175202Y212667D02*
X175242Y213179D01*
X174612Y212706D01*
D02*G37*
G36*
X174533Y212312D02*
X175202Y212667D01*
X174612Y212706D01*
D02*G37*
G36*
X175124Y212234D02*
X175202Y212667D01*
X174533Y212312D01*
D02*G37*
G36*
X174376Y211958D02*
X175124Y212234D01*
X174533Y212312D01*
D02*G37*
G36*
X175006Y211879D02*
X175124Y212234D01*
X174376Y211958D01*
D02*G37*
G36*
X174218Y211722D02*
X175006Y211879D01*
X174376Y211958D01*
D02*G37*
G36*
X174021Y211604D02*
X175006Y211879D01*
X174218Y211722D01*
D02*G37*
G36*
X174809Y211564D02*
X175006Y211879D01*
X174021Y211604D01*
D02*G37*
G36*
X173785Y211486D02*
X174809Y211564D01*
X174021Y211604D01*
D02*G37*
G36*
X172133Y211407D02*
X172132Y214872D01*
X171541Y215423D01*
D02*G37*
G36*
X173510Y211407D02*
X174809Y211564D01*
X173785Y211486D01*
D02*G37*
G36*
X174612Y211328D02*
X174809Y211564D01*
X173510Y211407D01*
D02*G37*
G36*
X174612Y211328D02*
X173510Y211407D01*
X172133Y211407D01*
D02*G37*
G36*
X174415Y211171D02*
X174612Y211328D01*
X172133Y211407D01*
D02*G37*
G36*
X174179Y211013D02*
X174415Y211171D01*
X172133Y211407D01*
D02*G37*
G36*
X171541Y210856D02*
X172133Y211407D01*
X171541Y215423D01*
D02*G37*
G36*
X171541Y210856D02*
X174179Y211013D01*
X172133Y211407D01*
D02*G37*
G36*
X173549Y210856D02*
X174179Y211013D01*
X171541Y210856D01*
D02*G37*
G36*
X177525Y214950D02*
X177840Y215423D01*
X177171Y215423D01*
D02*G37*
G36*
X177683Y214517D02*
X177840Y215423D01*
X177525Y214950D01*
D02*G37*
G36*
X177250Y214084D02*
X177525Y214950D01*
X177171Y215423D01*
D02*G37*
G36*
X177840Y213966D02*
X177840Y215423D01*
X177683Y214517D01*
D02*G37*
G36*
X176778Y212824D02*
X177250Y214084D01*
X177171Y215423D01*
D02*G37*
G36*
X178273Y212824D02*
X177840Y215423D01*
X177840Y213966D01*
D02*G37*
G36*
X176580Y212273D02*
X178273Y212824D01*
X176778Y212824D01*
D02*G37*
G36*
X176580Y212273D02*
X176778Y212824D01*
X177171Y215423D01*
D02*G37*
G36*
X178470Y212273D02*
X178273Y212824D01*
X176580Y212273D01*
D02*G37*
G36*
X178470Y212273D02*
X177840Y215423D01*
X178273Y212824D01*
D02*G37*
G36*
X175478Y210856D02*
X176580Y212273D01*
X177171Y215423D01*
D02*G37*
G36*
X176108Y210856D02*
X176580Y212273D01*
X175478Y210856D01*
D02*G37*
G36*
X178982Y210856D02*
X177840Y215423D01*
X178470Y212273D01*
D02*G37*
G36*
X179612Y210856D02*
X177840Y215423D01*
X178982Y210856D01*
D02*G37*
G36*
X167250Y221958D02*
X167171Y222431D01*
X167762Y222431D01*
X167840Y222116D01*
X167958Y221840D01*
X168116Y221643D01*
X168352Y221486D01*
X168667Y221368D01*
X169021Y221328D01*
X169336Y221368D01*
X169612Y221446D01*
X169809Y221564D01*
X169966Y221722D01*
X170045Y221919D01*
X170084Y222116D01*
X170045Y222312D01*
X169966Y222470D01*
X169809Y222627D01*
X169573Y222746D01*
X169454Y222785D01*
X169297Y222824D01*
X169100Y222903D01*
X168825Y222942D01*
X168549Y223021D01*
X168313Y223100D01*
X168116Y223179D01*
X167958Y223257D01*
X167683Y223415D01*
X167486Y223651D01*
X167368Y223927D01*
X167328Y224242D01*
X167368Y224557D01*
X167525Y224872D01*
X167762Y225147D01*
X168076Y225344D01*
X168470Y225462D01*
X168903Y225501D01*
X169336Y225462D01*
X169769Y225344D01*
X170084Y225108D01*
X170321Y224832D01*
X170478Y224517D01*
X170557Y224124D01*
X169966Y224124D01*
X169887Y224478D01*
X169651Y224753D01*
X169336Y224911D01*
X168903Y224950D01*
X168470Y224911D01*
X168155Y224753D01*
X167998Y224517D01*
X167919Y224281D01*
X167958Y224045D01*
X168076Y223848D01*
X168195Y223769D01*
X168391Y223690D01*
X168628Y223612D01*
X168943Y223533D01*
X169258Y223454D01*
X169533Y223375D01*
X169769Y223297D01*
X169927Y223257D01*
X170242Y223061D01*
X170478Y222785D01*
X170636Y222470D01*
X170675Y222155D01*
X170636Y221801D01*
X170478Y221446D01*
X170242Y221171D01*
X169887Y220935D01*
X169494Y220816D01*
X169061Y220777D01*
X168510Y220816D01*
X168037Y220974D01*
X167683Y221210D01*
X167407Y221564D01*
X167250Y221958D01*
D02*G37*
G36*
X174533Y221958D02*
X174730Y222470D01*
X175321Y222312D01*
X175202Y221958D01*
X175045Y221643D01*
X174887Y221407D01*
X174651Y221171D01*
X174376Y221013D01*
X174100Y220856D01*
X173785Y220816D01*
X173470Y220777D01*
X172801Y220856D01*
X172525Y220935D01*
X172289Y221092D01*
X171856Y221446D01*
X171580Y221958D01*
X171423Y222549D01*
X171344Y223179D01*
X171423Y223848D01*
X171620Y224399D01*
X171935Y224872D01*
X172368Y225226D01*
X172880Y225423D01*
X173431Y225501D01*
X173785Y225462D01*
X174061Y225423D01*
X174336Y225305D01*
X174573Y225147D01*
X174966Y224714D01*
X175202Y224163D01*
X174612Y224005D01*
X174415Y224438D01*
X174179Y224714D01*
X173825Y224872D01*
X173431Y224950D01*
X172958Y224872D01*
X172565Y224714D01*
X172250Y224399D01*
X172092Y224045D01*
X171974Y223612D01*
X171935Y223179D01*
X171974Y222627D01*
X172092Y222155D01*
X172328Y221801D01*
X172643Y221525D01*
X172998Y221368D01*
X173391Y221328D01*
X173864Y221407D01*
X174258Y221604D01*
X174533Y221958D01*
D02*G37*
G36*
X178825Y220856D02*
X176069Y220856D01*
X176069Y225423D01*
X176659Y225423D01*
X176659Y221407D01*
X178825Y221407D01*
X178825Y220856D01*
D02*G37*
G36*
X170754Y232627D02*
X169454Y232627D01*
X169454Y233179D01*
X171344Y233179D01*
X171344Y231486D01*
X170911Y231171D01*
X170439Y230935D01*
X169966Y230816D01*
X169494Y230777D01*
X168825Y230856D01*
X168273Y231053D01*
X167801Y231407D01*
X167447Y231879D01*
X167250Y232470D01*
X167171Y233100D01*
X167250Y233769D01*
X167447Y234360D01*
X167801Y234872D01*
X168234Y235226D01*
X168785Y235423D01*
X169415Y235501D01*
X169887Y235462D01*
X170321Y235344D01*
X170675Y235147D01*
X170950Y234872D01*
X171147Y234557D01*
X171265Y234124D01*
X170714Y233966D01*
X170636Y234281D01*
X170478Y234517D01*
X170281Y234675D01*
X170045Y234832D01*
X169730Y234911D01*
X169415Y234950D01*
X169021Y234911D01*
X168706Y234832D01*
X168431Y234675D01*
X168234Y234478D01*
X168076Y234281D01*
X167919Y234045D01*
X167801Y233612D01*
X167762Y233139D01*
X167801Y232588D01*
X167958Y232116D01*
X168234Y231761D01*
X168588Y231525D01*
X168982Y231368D01*
X169415Y231328D01*
X169809Y231368D01*
X170202Y231486D01*
X170517Y231643D01*
X170754Y231801D01*
X170754Y232627D01*
D02*G37*
G36*
X172840Y230856D02*
X172250Y230856D01*
X172250Y235423D01*
X172880Y235423D01*
X175163Y231879D01*
X175163Y235423D01*
X175754Y235423D01*
X175754Y230856D01*
X175124Y230856D01*
X172840Y234360D01*
X172840Y230856D01*
D02*G37*
G36*
X178785Y235383D02*
X178313Y235423D01*
X176777Y235423D01*
D02*G37*
G36*
X179100Y235344D02*
X178785Y235383D01*
X176777Y235423D01*
D02*G37*
G36*
X179494Y235226D02*
X179100Y235344D01*
X176777Y235423D01*
D02*G37*
G36*
X179769Y235029D02*
X179494Y235226D01*
X176777Y235423D01*
D02*G37*
G36*
X177368Y234872D02*
X179769Y235029D01*
X176777Y235423D01*
D02*G37*
G36*
X178313Y234872D02*
X179769Y235029D01*
X177368Y234872D01*
D02*G37*
G36*
X178785Y234832D02*
X179769Y235029D01*
X178313Y234872D01*
D02*G37*
G36*
X179100Y234793D02*
X179769Y235029D01*
X178785Y234832D01*
D02*G37*
G36*
X180084Y234675D02*
X179769Y235029D01*
X179100Y234793D01*
D02*G37*
G36*
X179415Y234596D02*
X180084Y234675D01*
X179100Y234793D01*
D02*G37*
G36*
X179651Y234281D02*
X180084Y234675D01*
X179415Y234596D01*
D02*G37*
G36*
X180321Y234242D02*
X180084Y234675D01*
X179651Y234281D01*
D02*G37*
G36*
X179769Y234045D02*
X180321Y234242D01*
X179651Y234281D01*
D02*G37*
G36*
X179848Y233809D02*
X180321Y234242D01*
X179769Y234045D01*
D02*G37*
G36*
X180439Y233730D02*
X180321Y234242D01*
X179848Y233809D01*
D02*G37*
G36*
X179887Y233494D02*
X180439Y233730D01*
X179848Y233809D01*
D02*G37*
G36*
X179887Y233179D02*
X180439Y233730D01*
X179887Y233494D01*
D02*G37*
G36*
X180478Y233179D02*
X180439Y233730D01*
X179887Y233179D01*
D02*G37*
G36*
X179848Y232706D02*
X180478Y233179D01*
X179887Y233179D01*
D02*G37*
G36*
X180439Y232667D02*
X180478Y233179D01*
X179848Y232706D01*
D02*G37*
G36*
X179769Y232312D02*
X180439Y232667D01*
X179848Y232706D01*
D02*G37*
G36*
X180360Y232234D02*
X180439Y232667D01*
X179769Y232312D01*
D02*G37*
G36*
X179612Y231958D02*
X180360Y232234D01*
X179769Y232312D01*
D02*G37*
G36*
X180242Y231879D02*
X180360Y232234D01*
X179612Y231958D01*
D02*G37*
G36*
X179454Y231722D02*
X180242Y231879D01*
X179612Y231958D01*
D02*G37*
G36*
X179258Y231604D02*
X180242Y231879D01*
X179454Y231722D01*
D02*G37*
G36*
X180045Y231564D02*
X180242Y231879D01*
X179258Y231604D01*
D02*G37*
G36*
X179021Y231486D02*
X180045Y231564D01*
X179258Y231604D01*
D02*G37*
G36*
X177369Y231407D02*
X177368Y234872D01*
X176777Y235423D01*
D02*G37*
G36*
X178746Y231407D02*
X180045Y231564D01*
X179021Y231486D01*
D02*G37*
G36*
X179848Y231328D02*
X180045Y231564D01*
X178746Y231407D01*
D02*G37*
G36*
X179848Y231328D02*
X178746Y231407D01*
X177369Y231407D01*
D02*G37*
G36*
X179651Y231171D02*
X179848Y231328D01*
X177369Y231407D01*
D02*G37*
G36*
X179415Y231013D02*
X179651Y231171D01*
X177369Y231407D01*
D02*G37*
G36*
X176777Y230856D02*
X177369Y231407D01*
X176777Y235423D01*
D02*G37*
G36*
X176777Y230856D02*
X179415Y231013D01*
X177369Y231407D01*
D02*G37*
G36*
X178785Y230856D02*
X179415Y231013D01*
X176777Y230856D01*
D02*G37*
G36*
X168943Y241525D02*
X168431Y241525D01*
X168431Y242785D01*
X167210Y242785D01*
X167210Y243336D01*
X168431Y243336D01*
X168431Y244596D01*
X168943Y244596D01*
X168943Y243336D01*
X170163Y243336D01*
X170163Y242785D01*
X168943Y242785D01*
X168943Y241525D01*
D02*G37*
G36*
X170832Y241761D02*
X170793Y242037D01*
X171344Y242116D01*
X171462Y241722D01*
X171659Y241446D01*
X171895Y241289D01*
X172210Y241250D01*
X172604Y241328D01*
X172880Y241525D01*
X173076Y241840D01*
X173155Y242194D01*
X173076Y242549D01*
X172919Y242824D01*
X172643Y243021D01*
X172289Y243100D01*
X172092Y243061D01*
X171895Y243021D01*
X171935Y243572D01*
X172013Y243572D01*
X172368Y243612D01*
X172643Y243730D01*
X172840Y243966D01*
X172919Y244281D01*
X172880Y244557D01*
X172722Y244753D01*
X172486Y244911D01*
X172171Y244950D01*
X171895Y244911D01*
X171659Y244753D01*
X171502Y244517D01*
X171384Y244163D01*
X170832Y244242D01*
X170990Y244753D01*
X171305Y245108D01*
X171699Y245344D01*
X172171Y245423D01*
X172525Y245383D01*
X172840Y245265D01*
X173116Y245068D01*
X173313Y244832D01*
X173431Y244557D01*
X173470Y244281D01*
X173431Y244005D01*
X173313Y243730D01*
X173116Y243533D01*
X172840Y243375D01*
X173195Y243218D01*
X173470Y242982D01*
X173667Y242627D01*
X173706Y242234D01*
X173667Y241919D01*
X173588Y241683D01*
X173470Y241407D01*
X173273Y241210D01*
X173037Y241013D01*
X172801Y240895D01*
X172525Y240816D01*
X172210Y240777D01*
X171935Y240816D01*
X171659Y240856D01*
X171423Y240974D01*
X171226Y241131D01*
X171069Y241328D01*
X170950Y241525D01*
X170832Y241761D01*
D02*G37*
G36*
X176462Y240856D02*
X175793Y240856D01*
X174100Y245423D01*
X174730Y245423D01*
X175911Y242116D01*
X176147Y241368D01*
X176384Y242116D01*
X177604Y245423D01*
X178234Y245423D01*
X176462Y240856D01*
D02*G37*
G36*
X167875Y166958D02*
X167796Y167431D01*
X168387Y167431D01*
X168465Y167116D01*
X168583Y166840D01*
X168741Y166643D01*
X168977Y166486D01*
X169292Y166368D01*
X169646Y166328D01*
X169961Y166368D01*
X170237Y166446D01*
X170434Y166564D01*
X170591Y166722D01*
X170670Y166919D01*
X170709Y167116D01*
X170670Y167312D01*
X170591Y167470D01*
X170434Y167627D01*
X170198Y167746D01*
X170079Y167785D01*
X169922Y167824D01*
X169725Y167903D01*
X169450Y167942D01*
X169174Y168021D01*
X168938Y168100D01*
X168741Y168179D01*
X168583Y168257D01*
X168308Y168415D01*
X168111Y168651D01*
X167993Y168927D01*
X167953Y169242D01*
X167993Y169557D01*
X168150Y169872D01*
X168387Y170147D01*
X168701Y170344D01*
X169095Y170462D01*
X169528Y170501D01*
X169961Y170462D01*
X170394Y170344D01*
X170709Y170108D01*
X170946Y169832D01*
X171103Y169517D01*
X171182Y169124D01*
X170591Y169124D01*
X170512Y169478D01*
X170276Y169753D01*
X169961Y169911D01*
X169528Y169950D01*
X169095Y169911D01*
X168780Y169753D01*
X168623Y169517D01*
X168544Y169281D01*
X168583Y169045D01*
X168701Y168848D01*
X168820Y168769D01*
X169016Y168690D01*
X169253Y168612D01*
X169568Y168533D01*
X169883Y168454D01*
X170158Y168375D01*
X170394Y168297D01*
X170552Y168257D01*
X170867Y168061D01*
X171103Y167785D01*
X171261Y167470D01*
X171300Y167155D01*
X171261Y166801D01*
X171103Y166446D01*
X170867Y166171D01*
X170512Y165935D01*
X170119Y165816D01*
X169686Y165777D01*
X169135Y165816D01*
X168662Y165974D01*
X168308Y166210D01*
X168032Y166564D01*
X167875Y166958D01*
D02*G37*
G36*
X174174Y170383D02*
X173701Y170423D01*
X172166Y170423D01*
D02*G37*
G36*
X174489Y170344D02*
X174174Y170383D01*
X172166Y170423D01*
D02*G37*
G36*
X174883Y170226D02*
X174489Y170344D01*
X172166Y170423D01*
D02*G37*
G36*
X175158Y170029D02*
X174883Y170226D01*
X172166Y170423D01*
D02*G37*
G36*
X172757Y169872D02*
X175158Y170029D01*
X172166Y170423D01*
D02*G37*
G36*
X173701Y169872D02*
X175158Y170029D01*
X172757Y169872D01*
D02*G37*
G36*
X174174Y169832D02*
X175158Y170029D01*
X173701Y169872D01*
D02*G37*
G36*
X174489Y169793D02*
X175158Y170029D01*
X174174Y169832D01*
D02*G37*
G36*
X175473Y169675D02*
X175158Y170029D01*
X174489Y169793D01*
D02*G37*
G36*
X174804Y169596D02*
X175473Y169675D01*
X174489Y169793D01*
D02*G37*
G36*
X175040Y169281D02*
X175473Y169675D01*
X174804Y169596D01*
D02*G37*
G36*
X175709Y169242D02*
X175473Y169675D01*
X175040Y169281D01*
D02*G37*
G36*
X175158Y169045D02*
X175709Y169242D01*
X175040Y169281D01*
D02*G37*
G36*
X175237Y168809D02*
X175709Y169242D01*
X175158Y169045D01*
D02*G37*
G36*
X175827Y168730D02*
X175709Y169242D01*
X175237Y168809D01*
D02*G37*
G36*
X175276Y168494D02*
X175827Y168730D01*
X175237Y168809D01*
D02*G37*
G36*
X175276Y168179D02*
X175827Y168730D01*
X175276Y168494D01*
D02*G37*
G36*
X175867Y168179D02*
X175827Y168730D01*
X175276Y168179D01*
D02*G37*
G36*
X175237Y167706D02*
X175867Y168179D01*
X175276Y168179D01*
D02*G37*
G36*
X175827Y167667D02*
X175867Y168179D01*
X175237Y167706D01*
D02*G37*
G36*
X175158Y167312D02*
X175827Y167667D01*
X175237Y167706D01*
D02*G37*
G36*
X175749Y167234D02*
X175827Y167667D01*
X175158Y167312D01*
D02*G37*
G36*
X175001Y166958D02*
X175749Y167234D01*
X175158Y167312D01*
D02*G37*
G36*
X175631Y166879D02*
X175749Y167234D01*
X175001Y166958D01*
D02*G37*
G36*
X174843Y166722D02*
X175631Y166879D01*
X175001Y166958D01*
D02*G37*
G36*
X174646Y166604D02*
X175631Y166879D01*
X174843Y166722D01*
D02*G37*
G36*
X175434Y166564D02*
X175631Y166879D01*
X174646Y166604D01*
D02*G37*
G36*
X174410Y166486D02*
X175434Y166564D01*
X174646Y166604D01*
D02*G37*
G36*
X172758Y166407D02*
X172757Y169872D01*
X172166Y170423D01*
D02*G37*
G36*
X174135Y166407D02*
X175434Y166564D01*
X174410Y166486D01*
D02*G37*
G36*
X175237Y166328D02*
X175434Y166564D01*
X174135Y166407D01*
D02*G37*
G36*
X175237Y166328D02*
X174135Y166407D01*
X172758Y166407D01*
D02*G37*
G36*
X175040Y166171D02*
X175237Y166328D01*
X172758Y166407D01*
D02*G37*
G36*
X174804Y166013D02*
X175040Y166171D01*
X172758Y166407D01*
D02*G37*
G36*
X172166Y165856D02*
X172758Y166407D01*
X172166Y170423D01*
D02*G37*
G36*
X172166Y165856D02*
X174804Y166013D01*
X172758Y166407D01*
D02*G37*
G36*
X174174Y165856D02*
X174804Y166013D01*
X172166Y165856D01*
D02*G37*
G36*
X178150Y169950D02*
X178465Y170423D01*
X177796Y170423D01*
D02*G37*
G36*
X178308Y169517D02*
X178465Y170423D01*
X178150Y169950D01*
D02*G37*
G36*
X177875Y169084D02*
X178150Y169950D01*
X177796Y170423D01*
D02*G37*
G36*
X178465Y168966D02*
X178465Y170423D01*
X178308Y169517D01*
D02*G37*
G36*
X177403Y167824D02*
X177875Y169084D01*
X177796Y170423D01*
D02*G37*
G36*
X178898Y167824D02*
X178465Y170423D01*
X178465Y168966D01*
D02*G37*
G36*
X177205Y167273D02*
X178898Y167824D01*
X177403Y167824D01*
D02*G37*
G36*
X177205Y167273D02*
X177403Y167824D01*
X177796Y170423D01*
D02*G37*
G36*
X179095Y167273D02*
X178898Y167824D01*
X177205Y167273D01*
D02*G37*
G36*
X179095Y167273D02*
X178465Y170423D01*
X178898Y167824D01*
D02*G37*
G36*
X176103Y165856D02*
X177205Y167273D01*
X177796Y170423D01*
D02*G37*
G36*
X176733Y165856D02*
X177205Y167273D01*
X176103Y165856D01*
D02*G37*
G36*
X179607Y165856D02*
X178465Y170423D01*
X179095Y167273D01*
D02*G37*
G36*
X180237Y165856D02*
X178465Y170423D01*
X179607Y165856D01*
D02*G37*
G36*
X167875Y176958D02*
X167796Y177431D01*
X168387Y177431D01*
X168465Y177116D01*
X168583Y176840D01*
X168741Y176643D01*
X168977Y176486D01*
X169292Y176368D01*
X169646Y176328D01*
X169961Y176368D01*
X170237Y176446D01*
X170434Y176564D01*
X170591Y176722D01*
X170670Y176919D01*
X170709Y177116D01*
X170670Y177312D01*
X170591Y177470D01*
X170434Y177627D01*
X170198Y177746D01*
X170079Y177785D01*
X169922Y177824D01*
X169725Y177903D01*
X169450Y177942D01*
X169174Y178021D01*
X168938Y178100D01*
X168741Y178179D01*
X168583Y178257D01*
X168308Y178415D01*
X168111Y178651D01*
X167993Y178927D01*
X167953Y179242D01*
X167993Y179557D01*
X168150Y179872D01*
X168387Y180147D01*
X168701Y180344D01*
X169095Y180462D01*
X169528Y180501D01*
X169961Y180462D01*
X170394Y180344D01*
X170709Y180108D01*
X170946Y179832D01*
X171103Y179517D01*
X171182Y179124D01*
X170591Y179124D01*
X170512Y179478D01*
X170276Y179753D01*
X169961Y179911D01*
X169528Y179950D01*
X169095Y179911D01*
X168780Y179753D01*
X168623Y179517D01*
X168544Y179281D01*
X168583Y179045D01*
X168701Y178848D01*
X168820Y178769D01*
X169016Y178690D01*
X169253Y178612D01*
X169568Y178533D01*
X169883Y178454D01*
X170158Y178375D01*
X170394Y178297D01*
X170552Y178257D01*
X170867Y178061D01*
X171103Y177785D01*
X171261Y177470D01*
X171300Y177155D01*
X171261Y176801D01*
X171103Y176446D01*
X170867Y176171D01*
X170512Y175935D01*
X170119Y175816D01*
X169686Y175777D01*
X169135Y175816D01*
X168662Y175974D01*
X168308Y176210D01*
X168032Y176564D01*
X167875Y176958D01*
D02*G37*
G36*
X175158Y176958D02*
X175355Y177470D01*
X175946Y177312D01*
X175827Y176958D01*
X175670Y176643D01*
X175512Y176407D01*
X175276Y176171D01*
X175001Y176013D01*
X174725Y175856D01*
X174410Y175816D01*
X174095Y175777D01*
X173426Y175856D01*
X173150Y175935D01*
X172914Y176092D01*
X172481Y176446D01*
X172205Y176958D01*
X172048Y177549D01*
X171969Y178179D01*
X172048Y178848D01*
X172245Y179399D01*
X172560Y179872D01*
X172993Y180226D01*
X173505Y180423D01*
X174056Y180501D01*
X174410Y180462D01*
X174686Y180423D01*
X174961Y180305D01*
X175198Y180147D01*
X175591Y179714D01*
X175827Y179163D01*
X175237Y179005D01*
X175040Y179438D01*
X174804Y179714D01*
X174450Y179872D01*
X174056Y179950D01*
X173583Y179872D01*
X173190Y179714D01*
X172875Y179399D01*
X172717Y179045D01*
X172599Y178612D01*
X172560Y178179D01*
X172599Y177627D01*
X172717Y177155D01*
X172953Y176801D01*
X173268Y176525D01*
X173623Y176368D01*
X174016Y176328D01*
X174489Y176407D01*
X174883Y176604D01*
X175158Y176958D01*
D02*G37*
G36*
X179450Y175856D02*
X176694Y175856D01*
X176694Y180423D01*
X177284Y180423D01*
X177284Y176407D01*
X179450Y176407D01*
X179450Y175856D01*
D02*G37*
G36*
X171379Y187627D02*
X170079Y187627D01*
X170079Y188179D01*
X171969Y188179D01*
X171969Y186486D01*
X171536Y186171D01*
X171064Y185935D01*
X170591Y185816D01*
X170119Y185777D01*
X169450Y185856D01*
X168898Y186053D01*
X168426Y186407D01*
X168072Y186879D01*
X167875Y187470D01*
X167796Y188100D01*
X167875Y188769D01*
X168072Y189360D01*
X168426Y189872D01*
X168859Y190226D01*
X169410Y190423D01*
X170040Y190501D01*
X170512Y190462D01*
X170946Y190344D01*
X171300Y190147D01*
X171575Y189872D01*
X171772Y189557D01*
X171890Y189124D01*
X171339Y188966D01*
X171261Y189281D01*
X171103Y189517D01*
X170906Y189675D01*
X170670Y189832D01*
X170355Y189911D01*
X170040Y189950D01*
X169646Y189911D01*
X169331Y189832D01*
X169056Y189675D01*
X168859Y189478D01*
X168701Y189281D01*
X168544Y189045D01*
X168426Y188612D01*
X168387Y188139D01*
X168426Y187588D01*
X168583Y187116D01*
X168859Y186761D01*
X169213Y186525D01*
X169607Y186368D01*
X170040Y186328D01*
X170434Y186368D01*
X170827Y186486D01*
X171142Y186643D01*
X171379Y186801D01*
X171379Y187627D01*
D02*G37*
G36*
X173465Y185856D02*
X172875Y185856D01*
X172875Y190423D01*
X173505Y190423D01*
X175788Y186879D01*
X175788Y190423D01*
X176379Y190423D01*
X176379Y185856D01*
X175749Y185856D01*
X173465Y189360D01*
X173465Y185856D01*
D02*G37*
G36*
X179410Y190383D02*
X178938Y190423D01*
X177402Y190423D01*
D02*G37*
G36*
X179725Y190344D02*
X179410Y190383D01*
X177402Y190423D01*
D02*G37*
G36*
X180119Y190226D02*
X179725Y190344D01*
X177402Y190423D01*
D02*G37*
G36*
X180394Y190029D02*
X180119Y190226D01*
X177402Y190423D01*
D02*G37*
G36*
X177993Y189872D02*
X180394Y190029D01*
X177402Y190423D01*
D02*G37*
G36*
X178938Y189872D02*
X180394Y190029D01*
X177993Y189872D01*
D02*G37*
G36*
X179410Y189832D02*
X180394Y190029D01*
X178938Y189872D01*
D02*G37*
G36*
X179725Y189793D02*
X180394Y190029D01*
X179410Y189832D01*
D02*G37*
G36*
X180709Y189675D02*
X180394Y190029D01*
X179725Y189793D01*
D02*G37*
G36*
X180040Y189596D02*
X180709Y189675D01*
X179725Y189793D01*
D02*G37*
G36*
X180276Y189281D02*
X180709Y189675D01*
X180040Y189596D01*
D02*G37*
G36*
X180946Y189242D02*
X180709Y189675D01*
X180276Y189281D01*
D02*G37*
G36*
X180394Y189045D02*
X180946Y189242D01*
X180276Y189281D01*
D02*G37*
G36*
X180473Y188809D02*
X180946Y189242D01*
X180394Y189045D01*
D02*G37*
G36*
X181064Y188730D02*
X180946Y189242D01*
X180473Y188809D01*
D02*G37*
G36*
X180512Y188494D02*
X181064Y188730D01*
X180473Y188809D01*
D02*G37*
G36*
X180512Y188179D02*
X181064Y188730D01*
X180512Y188494D01*
D02*G37*
G36*
X181103Y188179D02*
X181064Y188730D01*
X180512Y188179D01*
D02*G37*
G36*
X180473Y187706D02*
X181103Y188179D01*
X180512Y188179D01*
D02*G37*
G36*
X181064Y187667D02*
X181103Y188179D01*
X180473Y187706D01*
D02*G37*
G36*
X180394Y187312D02*
X181064Y187667D01*
X180473Y187706D01*
D02*G37*
G36*
X180985Y187234D02*
X181064Y187667D01*
X180394Y187312D01*
D02*G37*
G36*
X180237Y186958D02*
X180985Y187234D01*
X180394Y187312D01*
D02*G37*
G36*
X180867Y186879D02*
X180985Y187234D01*
X180237Y186958D01*
D02*G37*
G36*
X180079Y186722D02*
X180867Y186879D01*
X180237Y186958D01*
D02*G37*
G36*
X179883Y186604D02*
X180867Y186879D01*
X180079Y186722D01*
D02*G37*
G36*
X180670Y186564D02*
X180867Y186879D01*
X179883Y186604D01*
D02*G37*
G36*
X179646Y186486D02*
X180670Y186564D01*
X179883Y186604D01*
D02*G37*
G36*
X177994Y186407D02*
X177993Y189872D01*
X177402Y190423D01*
D02*G37*
G36*
X179371Y186407D02*
X180670Y186564D01*
X179646Y186486D01*
D02*G37*
G36*
X180473Y186328D02*
X180670Y186564D01*
X179371Y186407D01*
D02*G37*
G36*
X180473Y186328D02*
X179371Y186407D01*
X177994Y186407D01*
D02*G37*
G36*
X180276Y186171D02*
X180473Y186328D01*
X177994Y186407D01*
D02*G37*
G36*
X180040Y186013D02*
X180276Y186171D01*
X177994Y186407D01*
D02*G37*
G36*
X177402Y185856D02*
X177994Y186407D01*
X177402Y190423D01*
D02*G37*
G36*
X177402Y185856D02*
X180040Y186013D01*
X177994Y186407D01*
D02*G37*
G36*
X179410Y185856D02*
X180040Y186013D01*
X177402Y185856D01*
D02*G37*
G36*
X169568Y196525D02*
X169056Y196525D01*
X169056Y197785D01*
X167835Y197785D01*
X167835Y198336D01*
X169056Y198336D01*
X169056Y199596D01*
X169568Y199596D01*
X169568Y198336D01*
X170788Y198336D01*
X170788Y197785D01*
X169568Y197785D01*
X169568Y196525D01*
D02*G37*
G36*
X171457Y196761D02*
X171418Y197037D01*
X171969Y197116D01*
X172087Y196722D01*
X172284Y196446D01*
X172520Y196289D01*
X172835Y196250D01*
X173229Y196328D01*
X173505Y196525D01*
X173701Y196840D01*
X173780Y197194D01*
X173701Y197549D01*
X173544Y197824D01*
X173268Y198021D01*
X172914Y198100D01*
X172717Y198061D01*
X172520Y198021D01*
X172560Y198572D01*
X172638Y198572D01*
X172993Y198612D01*
X173268Y198730D01*
X173465Y198966D01*
X173544Y199281D01*
X173505Y199557D01*
X173347Y199753D01*
X173111Y199911D01*
X172796Y199950D01*
X172520Y199911D01*
X172284Y199753D01*
X172127Y199517D01*
X172009Y199163D01*
X171457Y199242D01*
X171615Y199753D01*
X171930Y200108D01*
X172324Y200344D01*
X172796Y200423D01*
X173150Y200383D01*
X173465Y200265D01*
X173741Y200068D01*
X173938Y199832D01*
X174056Y199557D01*
X174095Y199281D01*
X174056Y199005D01*
X173938Y198730D01*
X173741Y198533D01*
X173465Y198375D01*
X173820Y198218D01*
X174095Y197982D01*
X174292Y197627D01*
X174331Y197234D01*
X174292Y196919D01*
X174213Y196683D01*
X174095Y196407D01*
X173898Y196210D01*
X173662Y196013D01*
X173426Y195895D01*
X173150Y195816D01*
X172835Y195777D01*
X172560Y195816D01*
X172284Y195856D01*
X172048Y195974D01*
X171851Y196131D01*
X171694Y196328D01*
X171575Y196525D01*
X171457Y196761D01*
D02*G37*
G36*
X177087Y195856D02*
X176418Y195856D01*
X174725Y200423D01*
X175355Y200423D01*
X176536Y197116D01*
X176772Y196368D01*
X177009Y197116D01*
X178229Y200423D01*
X178859Y200423D01*
X177087Y195856D01*
D02*G37*
G36*
X245610Y169464D02*
X245216Y169504D01*
X244704Y169464D01*
D02*G37*
G36*
X245964Y169386D02*
X245610Y169464D01*
X244704Y169464D01*
D02*G37*
G36*
X244311Y169346D02*
X245964Y169386D01*
X244704Y169464D01*
D02*G37*
G36*
X246279Y169267D02*
X245964Y169386D01*
X244311Y169346D01*
D02*G37*
G36*
X243956Y169149D02*
X246279Y169267D01*
X244311Y169346D01*
D02*G37*
G36*
X246515Y169110D02*
X246279Y169267D01*
X243956Y169149D01*
D02*G37*
G36*
X245177Y168952D02*
X246515Y169110D01*
X243956Y169149D01*
D02*G37*
G36*
X244665Y168913D02*
X245177Y168952D01*
X243956Y169149D01*
D02*G37*
G36*
X245610Y168913D02*
X246515Y169110D01*
X245177Y168952D01*
D02*G37*
G36*
X246712Y168913D02*
X246515Y169110D01*
X245610Y168913D01*
D02*G37*
G36*
X243641Y168834D02*
X244665Y168913D01*
X243956Y169149D01*
D02*G37*
G36*
X245925Y168834D02*
X246712Y168913D01*
X245610Y168913D01*
D02*G37*
G36*
X244271Y168756D02*
X244665Y168913D01*
X243641Y168834D01*
D02*G37*
G36*
X246200Y168716D02*
X246712Y168913D01*
X245925Y168834D01*
D02*G37*
G36*
X246870Y168716D02*
X246712Y168913D01*
X246200Y168716D01*
D02*G37*
G36*
X243484Y168559D02*
X244271Y168756D01*
X243641Y168834D01*
D02*G37*
G36*
X243996Y168519D02*
X244271Y168756D01*
X243484Y168559D01*
D02*G37*
G36*
X246397Y168519D02*
X246870Y168716D01*
X246200Y168716D01*
D02*G37*
G36*
X246948Y168519D02*
X246870Y168716D01*
X246397Y168519D01*
D02*G37*
G36*
X246515Y168362D02*
X246948Y168519D01*
X246397Y168519D01*
D02*G37*
G36*
X243366Y168244D02*
X243996Y168519D01*
X243484Y168559D01*
D02*G37*
G36*
X247027Y168244D02*
X246948Y168519D01*
X246515Y168362D01*
D02*G37*
G36*
X243838Y168204D02*
X243996Y168519D01*
X243366Y168244D01*
D02*G37*
G36*
X246594Y168165D02*
X247027Y168244D01*
X246515Y168362D01*
D02*G37*
G36*
X243326Y167929D02*
X243838Y168204D01*
X243366Y168244D01*
D02*G37*
G36*
X243799Y167929D02*
X243838Y168204D01*
X243326Y167929D01*
D02*G37*
G36*
X247106Y167929D02*
X247027Y168244D01*
X246594Y168165D01*
D02*G37*
G36*
X246673Y167889D02*
X247106Y167929D01*
X246594Y168165D01*
D02*G37*
G36*
X243759Y167496D02*
X243799Y167929D01*
X243326Y167929D01*
D02*G37*
G36*
X243759Y166630D02*
X243759Y167496D01*
X243326Y167929D01*
D02*G37*
G36*
X246674Y166630D02*
X247106Y167929D01*
X246673Y167889D01*
D02*G37*
G36*
X243326Y166078D02*
X243759Y166630D01*
X243326Y167929D01*
D02*G37*
G36*
X243326Y166078D02*
X246674Y166630D01*
X243759Y166630D01*
D02*G37*
G36*
X247106Y166078D02*
X246674Y166630D01*
X243326Y166078D01*
D02*G37*
G36*
X247106Y166078D02*
X247106Y167929D01*
X246674Y166630D01*
D02*G37*
G36*
X247106Y171826D02*
X247106Y171275D01*
X243759Y171275D01*
X243759Y169897D01*
X243326Y169897D01*
X243326Y173204D01*
X243759Y173204D01*
X243759Y171826D01*
X247106Y171826D01*
D02*G37*
G36*
X244704Y176945D02*
X244350Y177023D01*
X244074Y176984D01*
D02*G37*
G36*
X243799Y176866D02*
X244704Y176945D01*
X244074Y176984D01*
D02*G37*
G36*
X245019Y176748D02*
X244704Y176945D01*
X243799Y176866D01*
D02*G37*
G36*
X243562Y176669D02*
X245019Y176748D01*
X243799Y176866D01*
D02*G37*
G36*
X246082Y176630D02*
X247106Y176669D01*
X247106Y177338D01*
D02*G37*
G36*
X244350Y176472D02*
X245019Y176748D01*
X243562Y176669D01*
D02*G37*
G36*
X244114Y176433D02*
X244350Y176472D01*
X243562Y176669D01*
D02*G37*
G36*
X244547Y176433D02*
X245019Y176748D01*
X244350Y176472D01*
D02*G37*
G36*
X245807Y176433D02*
X247106Y176669D01*
X246082Y176630D01*
D02*G37*
G36*
X243444Y176393D02*
X244114Y176433D01*
X243562Y176669D01*
D02*G37*
G36*
X245255Y176393D02*
X245019Y176748D01*
X244547Y176433D01*
D02*G37*
G36*
X244704Y176354D02*
X245255Y176393D01*
X244547Y176433D01*
D02*G37*
G36*
X243917Y176275D02*
X244114Y176433D01*
X243444Y176393D01*
D02*G37*
G36*
X244822Y176236D02*
X245255Y176393D01*
X244704Y176354D01*
D02*G37*
G36*
X245570Y176197D02*
X247106Y176669D01*
X245807Y176433D01*
D02*G37*
G36*
X246318Y176157D02*
X247106Y176669D01*
X245570Y176197D01*
D02*G37*
G36*
X243366Y176078D02*
X243917Y176275D01*
X243444Y176393D01*
D02*G37*
G36*
X245492Y176078D02*
X246318Y176157D01*
X245570Y176197D01*
D02*G37*
G36*
X244901Y176039D02*
X245255Y176393D01*
X244822Y176236D01*
D02*G37*
G36*
X243799Y176000D02*
X243917Y176275D01*
X243366Y176078D01*
D02*G37*
G36*
X246003Y175960D02*
X246318Y176157D01*
X245492Y176078D01*
D02*G37*
G36*
X245374Y175882D02*
X245255Y176393D01*
X244901Y176039D01*
D02*G37*
G36*
X245374Y175882D02*
X246003Y175960D01*
X245492Y176078D01*
D02*G37*
G36*
X244980Y175803D02*
X245374Y175882D01*
X244901Y176039D01*
D02*G37*
G36*
X244980Y175803D02*
X246003Y175960D01*
X245374Y175882D01*
D02*G37*
G36*
X245807Y175763D02*
X246003Y175960D01*
X244980Y175803D01*
D02*G37*
G36*
X245649Y175645D02*
X245807Y175763D01*
X244980Y175803D01*
D02*G37*
G36*
X243326Y175606D02*
X243799Y176000D01*
X243366Y176078D01*
D02*G37*
G36*
X243759Y175606D02*
X243799Y176000D01*
X243326Y175606D01*
D02*G37*
G36*
X245531Y175488D02*
X245649Y175645D01*
X244980Y175803D01*
D02*G37*
G36*
X245413Y175134D02*
X245531Y175488D01*
X244980Y175803D01*
D02*G37*
G36*
X243759Y174346D02*
X243759Y175606D01*
X243326Y175606D01*
D02*G37*
G36*
X244981Y174346D02*
X245413Y175134D01*
X244980Y175803D01*
D02*G37*
G36*
X245413Y174346D02*
X245413Y175134D01*
X244981Y174346D01*
D02*G37*
G36*
X243326Y173795D02*
X243759Y174346D01*
X243326Y175606D01*
D02*G37*
G36*
X243326Y173795D02*
X247106Y174346D01*
X243759Y174346D01*
D02*G37*
G36*
X247106Y173795D02*
X247106Y174346D01*
X243326Y173795D01*
D02*G37*
G36*
X5305Y128912D02*
X4202Y128912D01*
X4202Y130999D01*
X1564Y130999D01*
X1564Y131865D01*
X4202Y131865D01*
X4202Y133951D01*
X5305Y133951D01*
X5305Y131865D01*
X7942Y131865D01*
X7942Y130999D01*
X5305Y130999D01*
X5305Y128912D01*
D02*G37*
G36*
X166313Y4144D02*
X167731Y4656D01*
X167731Y5286D01*
D02*G37*
G36*
X165762Y3948D02*
X166313Y4144D01*
X167731Y5286D01*
D02*G37*
G36*
X163164Y3514D02*
X165762Y3948D01*
X167731Y5286D01*
D02*G37*
G36*
X164621Y3514D02*
X165762Y3948D01*
X163164Y3514D01*
D02*G37*
G36*
X164069Y3357D02*
X164621Y3514D01*
X163164Y3514D01*
D02*G37*
G36*
X163636Y3200D02*
X164069Y3357D01*
X163164Y3514D01*
D02*G37*
G36*
X163164Y2845D02*
X163636Y3200D01*
X163164Y3514D01*
D02*G37*
G36*
X163164Y2845D02*
X164502Y2924D01*
X163636Y3200D01*
D02*G37*
G36*
X165763Y2451D02*
X164502Y2924D01*
X163164Y2845D01*
D02*G37*
G36*
X165763Y2451D02*
X166313Y4144D01*
X165762Y3948D01*
D02*G37*
G36*
X166313Y2255D02*
X166313Y4144D01*
X165763Y2451D01*
D02*G37*
G36*
X166313Y2255D02*
X165763Y2451D01*
X163164Y2845D01*
D02*G37*
G36*
X167731Y1782D02*
X166313Y2255D01*
X163164Y2845D01*
D02*G37*
G36*
X167731Y1152D02*
X167731Y1782D01*
X163164Y2845D01*
D02*G37*
G36*
X166235Y8554D02*
X165487Y8593D01*
X164896Y8554D01*
D02*G37*
G36*
X164424Y8475D02*
X166235Y8554D01*
X164896Y8554D01*
D02*G37*
G36*
X166786Y8436D02*
X166235Y8554D01*
X164424Y8475D01*
D02*G37*
G36*
X164069Y8396D02*
X166786Y8436D01*
X164424Y8475D01*
D02*G37*
G36*
X163754Y8239D02*
X166786Y8436D01*
X164069Y8396D01*
D02*G37*
G36*
X167219Y8239D02*
X166786Y8436D01*
X163754Y8239D01*
D02*G37*
G36*
X163479Y8042D02*
X167219Y8239D01*
X163754Y8239D01*
D02*G37*
G36*
X164975Y8042D02*
X167219Y8239D01*
X163479Y8042D01*
D02*G37*
G36*
X165999Y8042D02*
X167219Y8239D01*
X164975Y8042D01*
D02*G37*
G36*
X164581Y7963D02*
X164975Y8042D01*
X163479Y8042D01*
D02*G37*
G36*
X166432Y7963D02*
X167219Y8239D01*
X165999Y8042D01*
D02*G37*
G36*
X167573Y7963D02*
X167219Y8239D01*
X166432Y7963D01*
D02*G37*
G36*
X164227Y7885D02*
X164581Y7963D01*
X163479Y8042D01*
D02*G37*
G36*
X166747Y7885D02*
X167573Y7963D01*
X166432Y7963D01*
D02*G37*
G36*
X163991Y7806D02*
X164227Y7885D01*
X163479Y8042D01*
D02*G37*
G36*
X163321Y7766D02*
X163991Y7806D01*
X163479Y8042D01*
D02*G37*
G36*
X166983Y7766D02*
X167573Y7963D01*
X166747Y7885D01*
D02*G37*
G36*
X163833Y7648D02*
X163991Y7806D01*
X163321Y7766D01*
D02*G37*
G36*
X167140Y7648D02*
X167573Y7963D01*
X166983Y7766D01*
D02*G37*
G36*
X167731Y7570D02*
X167573Y7963D01*
X167140Y7648D01*
D02*G37*
G36*
X163203Y7491D02*
X163833Y7648D01*
X163321Y7766D01*
D02*G37*
G36*
X163715Y7491D02*
X163833Y7648D01*
X163203Y7491D01*
D02*G37*
G36*
X167258Y7491D02*
X167731Y7570D01*
X167140Y7648D01*
D02*G37*
G36*
X163676Y7333D02*
X163715Y7491D01*
X163203Y7491D01*
D02*G37*
G36*
X167337Y7333D02*
X167731Y7570D01*
X167258Y7491D01*
D02*G37*
G36*
X163164Y7137D02*
X163676Y7333D01*
X163203Y7491D01*
D02*G37*
G36*
X163636Y7137D02*
X163676Y7333D01*
X163164Y7137D01*
D02*G37*
G36*
X167810Y7137D02*
X167731Y7570D01*
X167337Y7333D01*
D02*G37*
G36*
X163676Y6940D02*
X163636Y7137D01*
X163164Y7137D01*
D02*G37*
G36*
X167337Y6940D02*
X167810Y7137D01*
X167337Y7333D01*
D02*G37*
G36*
X167770Y6822D02*
X167810Y7137D01*
X167337Y6940D01*
D02*G37*
G36*
X163715Y6782D02*
X163676Y6940D01*
X163164Y7137D01*
D02*G37*
G36*
X167258Y6782D02*
X167770Y6822D01*
X167337Y6940D01*
D02*G37*
G36*
X163243Y6703D02*
X163715Y6782D01*
X163164Y7137D01*
D02*G37*
G36*
X163833Y6625D02*
X163715Y6782D01*
X163243Y6703D01*
D02*G37*
G36*
X167140Y6625D02*
X167770Y6822D01*
X167258Y6782D01*
D02*G37*
G36*
X167691Y6546D02*
X167770Y6822D01*
X167140Y6625D01*
D02*G37*
G36*
X163951Y6507D02*
X163833Y6625D01*
X163243Y6703D01*
D02*G37*
G36*
X166983Y6507D02*
X167691Y6546D01*
X167140Y6625D01*
D02*G37*
G36*
X164227Y6388D02*
X163951Y6507D01*
X163243Y6703D01*
D02*G37*
G36*
X166747Y6388D02*
X167691Y6546D01*
X166983Y6507D01*
D02*G37*
G36*
X163439Y6310D02*
X164227Y6388D01*
X163243Y6703D01*
D02*G37*
G36*
X164542Y6310D02*
X164227Y6388D01*
X163439Y6310D01*
D02*G37*
G36*
X166432Y6310D02*
X167691Y6546D01*
X166747Y6388D01*
D02*G37*
G36*
X167573Y6310D02*
X167691Y6546D01*
X166432Y6310D01*
D02*G37*
G36*
X164975Y6231D02*
X164542Y6310D01*
X163439Y6310D01*
D02*G37*
G36*
X165999Y6231D02*
X167573Y6310D01*
X166432Y6310D01*
D02*G37*
G36*
X167376Y6113D02*
X167573Y6310D01*
X165999Y6231D01*
D02*G37*
G36*
X167376Y6113D02*
X165999Y6231D01*
X164975Y6231D01*
D02*G37*
G36*
X163754Y6034D02*
X164975Y6231D01*
X163439Y6310D01*
D02*G37*
G36*
X163754Y6034D02*
X167376Y6113D01*
X164975Y6231D01*
D02*G37*
G36*
X167022Y5916D02*
X167376Y6113D01*
X163754Y6034D01*
D02*G37*
G36*
X164187Y5837D02*
X167022Y5916D01*
X163754Y6034D01*
D02*G37*
G36*
X166589Y5798D02*
X167022Y5916D01*
X164187Y5837D01*
D02*G37*
G36*
X164778Y5719D02*
X166589Y5798D01*
X164187Y5837D01*
D02*G37*
G36*
X166077Y5719D02*
X166589Y5798D01*
X164778Y5719D01*
D02*G37*
G36*
X165487Y5680D02*
X166077Y5719D01*
X164778Y5719D01*
D02*G37*
G36*
X177062Y2693D02*
X177062Y2181D01*
X175802Y2181D01*
X175802Y960D01*
X175250Y960D01*
X175250Y2181D01*
X173991Y2181D01*
X173991Y2693D01*
X175250Y2693D01*
X175250Y3913D01*
X175802Y3913D01*
X175802Y2693D01*
X177062Y2693D01*
D02*G37*
G36*
X176825Y4582D02*
X176550Y4543D01*
X176471Y5094D01*
X176865Y5212D01*
X177140Y5409D01*
X177298Y5645D01*
X177337Y5960D01*
X177258Y6354D01*
X177062Y6630D01*
X176747Y6826D01*
X176392Y6905D01*
X176038Y6826D01*
X175762Y6669D01*
X175565Y6393D01*
X175487Y6039D01*
X175526Y5842D01*
X175565Y5645D01*
X175014Y5685D01*
X175014Y5763D01*
X174975Y6118D01*
X174857Y6393D01*
X174621Y6590D01*
X174306Y6669D01*
X174030Y6630D01*
X173833Y6472D01*
X173676Y6236D01*
X173636Y5921D01*
X173676Y5645D01*
X173833Y5409D01*
X174069Y5252D01*
X174424Y5134D01*
X174345Y4582D01*
X173833Y4740D01*
X173479Y5055D01*
X173243Y5449D01*
X173164Y5921D01*
X173203Y6275D01*
X173321Y6590D01*
X173518Y6866D01*
X173754Y7063D01*
X174030Y7181D01*
X174306Y7220D01*
X174581Y7181D01*
X174857Y7063D01*
X175054Y6866D01*
X175211Y6590D01*
X175369Y6945D01*
X175605Y7220D01*
X175959Y7417D01*
X176353Y7456D01*
X176668Y7417D01*
X176904Y7338D01*
X177180Y7220D01*
X177376Y7023D01*
X177573Y6787D01*
X177691Y6551D01*
X177770Y6275D01*
X177810Y5960D01*
X177770Y5685D01*
X177731Y5409D01*
X177613Y5173D01*
X177455Y4976D01*
X177258Y4819D01*
X177062Y4700D01*
X176825Y4582D01*
D02*G37*
G36*
X177731Y10212D02*
X177731Y9543D01*
X173164Y7850D01*
X173164Y8480D01*
X176471Y9661D01*
X177219Y9897D01*
X176471Y10134D01*
X173164Y11354D01*
X173164Y11984D01*
X177731Y10212D01*
D02*G37*
G36*
X185920Y4779D02*
X185408Y4819D01*
X184857Y4779D01*
D02*G37*
G36*
X186353Y4700D02*
X185920Y4779D01*
X184857Y4779D01*
D02*G37*
G36*
X184345Y4661D02*
X186353Y4700D01*
X184857Y4779D01*
D02*G37*
G36*
X186707Y4582D02*
X186353Y4700D01*
X184345Y4661D01*
D02*G37*
G36*
X183912Y4425D02*
X186707Y4582D01*
X184345Y4661D01*
D02*G37*
G36*
X187022Y4386D02*
X186707Y4582D01*
X183912Y4425D01*
D02*G37*
G36*
X185093Y4228D02*
X187022Y4386D01*
X183912Y4425D01*
D02*G37*
G36*
X185408Y4228D02*
X187022Y4386D01*
X185093Y4228D01*
D02*G37*
G36*
X184778Y4189D02*
X185093Y4228D01*
X183912Y4425D01*
D02*G37*
G36*
X185880Y4189D02*
X187022Y4386D01*
X185408Y4228D01*
D02*G37*
G36*
X187258Y4189D02*
X187022Y4386D01*
X185880Y4189D01*
D02*G37*
G36*
X183558Y4110D02*
X184778Y4189D01*
X183912Y4425D01*
D02*G37*
G36*
X184542Y4110D02*
X184778Y4189D01*
X183558Y4110D01*
D02*G37*
G36*
X186274Y4110D02*
X187258Y4189D01*
X185880Y4189D01*
D02*G37*
G36*
X184306Y3992D02*
X184542Y4110D01*
X183558Y4110D01*
D02*G37*
G36*
X187416Y3992D02*
X187258Y4189D01*
X186274Y4110D01*
D02*G37*
G36*
X186628Y3952D02*
X187416Y3992D01*
X186274Y4110D01*
D02*G37*
G36*
X183361Y3834D02*
X184306Y3992D01*
X183558Y4110D01*
D02*G37*
G36*
X186865Y3795D02*
X187416Y3992D01*
X186628Y3952D01*
D02*G37*
G36*
X183991Y3756D02*
X184306Y3992D01*
X183361Y3834D01*
D02*G37*
G36*
X187573Y3756D02*
X187416Y3992D01*
X186865Y3795D01*
D02*G37*
G36*
X186983Y3598D02*
X187573Y3756D01*
X186865Y3795D01*
D02*G37*
G36*
X183243Y3441D02*
X183991Y3756D01*
X183361Y3834D01*
D02*G37*
G36*
X183794Y3441D02*
X183991Y3756D01*
X183243Y3441D01*
D02*G37*
G36*
X187101Y3362D02*
X187573Y3756D01*
X186983Y3598D01*
D02*G37*
G36*
X183203Y3126D02*
X183794Y3441D01*
X183243Y3441D01*
D02*G37*
G36*
X183754Y3126D02*
X183794Y3441D01*
X183203Y3126D01*
D02*G37*
G36*
X187731Y3126D02*
X187573Y3756D01*
X187101Y3362D01*
D02*G37*
G36*
X187180Y3086D02*
X187731Y3126D01*
X187101Y3362D01*
D02*G37*
G36*
X183164Y2653D02*
X183754Y3126D01*
X183203Y3126D01*
D02*G37*
G36*
X183715Y2653D02*
X183754Y3126D01*
X183164Y2653D01*
D02*G37*
G36*
X183715Y1708D02*
X183715Y2653D01*
X183164Y2653D01*
D02*G37*
G36*
X187181Y1708D02*
X187731Y3126D01*
X187180Y3086D01*
D02*G37*
G36*
X183164Y1118D02*
X183715Y1708D01*
X183164Y2653D01*
D02*G37*
G36*
X183164Y1118D02*
X187181Y1708D01*
X183715Y1708D01*
D02*G37*
G36*
X187731Y1118D02*
X187181Y1708D01*
X183164Y1118D01*
D02*G37*
G36*
X187731Y1118D02*
X187731Y3126D01*
X187181Y1708D01*
D02*G37*
G36*
X183794Y7614D02*
X183794Y5449D01*
X183243Y5449D01*
X183243Y8323D01*
X183676Y8323D01*
X184227Y7929D01*
X184936Y7496D01*
X185684Y7141D01*
X186471Y6866D01*
X187101Y6748D01*
X187731Y6669D01*
X187731Y6118D01*
X187140Y6157D01*
X186432Y6315D01*
X185684Y6551D01*
X184975Y6866D01*
X184345Y7220D01*
X183794Y7614D01*
D02*G37*
G36*
X195920Y4779D02*
X195408Y4819D01*
X194857Y4779D01*
D02*G37*
G36*
X196353Y4700D02*
X195920Y4779D01*
X194857Y4779D01*
D02*G37*
G36*
X194345Y4661D02*
X196353Y4700D01*
X194857Y4779D01*
D02*G37*
G36*
X196707Y4582D02*
X196353Y4700D01*
X194345Y4661D01*
D02*G37*
G36*
X193912Y4425D02*
X196707Y4582D01*
X194345Y4661D01*
D02*G37*
G36*
X197022Y4386D02*
X196707Y4582D01*
X193912Y4425D01*
D02*G37*
G36*
X195093Y4228D02*
X197022Y4386D01*
X193912Y4425D01*
D02*G37*
G36*
X195408Y4228D02*
X197022Y4386D01*
X195093Y4228D01*
D02*G37*
G36*
X194778Y4189D02*
X195093Y4228D01*
X193912Y4425D01*
D02*G37*
G36*
X195880Y4189D02*
X197022Y4386D01*
X195408Y4228D01*
D02*G37*
G36*
X197258Y4189D02*
X197022Y4386D01*
X195880Y4189D01*
D02*G37*
G36*
X193558Y4110D02*
X194778Y4189D01*
X193912Y4425D01*
D02*G37*
G36*
X194542Y4110D02*
X194778Y4189D01*
X193558Y4110D01*
D02*G37*
G36*
X196274Y4110D02*
X197258Y4189D01*
X195880Y4189D01*
D02*G37*
G36*
X194306Y3992D02*
X194542Y4110D01*
X193558Y4110D01*
D02*G37*
G36*
X197416Y3992D02*
X197258Y4189D01*
X196274Y4110D01*
D02*G37*
G36*
X196628Y3952D02*
X197416Y3992D01*
X196274Y4110D01*
D02*G37*
G36*
X193361Y3834D02*
X194306Y3992D01*
X193558Y4110D01*
D02*G37*
G36*
X196865Y3795D02*
X197416Y3992D01*
X196628Y3952D01*
D02*G37*
G36*
X193991Y3756D02*
X194306Y3992D01*
X193361Y3834D01*
D02*G37*
G36*
X197573Y3756D02*
X197416Y3992D01*
X196865Y3795D01*
D02*G37*
G36*
X196983Y3598D02*
X197573Y3756D01*
X196865Y3795D01*
D02*G37*
G36*
X193243Y3441D02*
X193991Y3756D01*
X193361Y3834D01*
D02*G37*
G36*
X193794Y3441D02*
X193991Y3756D01*
X193243Y3441D01*
D02*G37*
G36*
X197101Y3362D02*
X197573Y3756D01*
X196983Y3598D01*
D02*G37*
G36*
X193203Y3126D02*
X193794Y3441D01*
X193243Y3441D01*
D02*G37*
G36*
X193754Y3126D02*
X193794Y3441D01*
X193203Y3126D01*
D02*G37*
G36*
X197731Y3126D02*
X197573Y3756D01*
X197101Y3362D01*
D02*G37*
G36*
X197180Y3086D02*
X197731Y3126D01*
X197101Y3362D01*
D02*G37*
G36*
X193164Y2653D02*
X193754Y3126D01*
X193203Y3126D01*
D02*G37*
G36*
X193715Y2653D02*
X193754Y3126D01*
X193164Y2653D01*
D02*G37*
G36*
X193715Y1708D02*
X193715Y2653D01*
X193164Y2653D01*
D02*G37*
G36*
X197181Y1708D02*
X197731Y3126D01*
X197180Y3086D01*
D02*G37*
G36*
X193164Y1118D02*
X193715Y1708D01*
X193164Y2653D01*
D02*G37*
G36*
X193164Y1118D02*
X197181Y1708D01*
X193715Y1708D01*
D02*G37*
G36*
X197731Y1118D02*
X197181Y1708D01*
X193164Y1118D01*
D02*G37*
G36*
X197731Y1118D02*
X197731Y3126D01*
X197181Y1708D01*
D02*G37*
G36*
X196668Y8283D02*
X196274Y8323D01*
X195959Y8283D01*
D02*G37*
G36*
X195684Y8244D02*
X196668Y8283D01*
X195959Y8283D01*
D02*G37*
G36*
X197062Y8126D02*
X196668Y8283D01*
X195684Y8244D01*
D02*G37*
G36*
X195408Y8086D02*
X197062Y8126D01*
X195684Y8244D01*
D02*G37*
G36*
X195211Y7929D02*
X197062Y8126D01*
X195408Y8086D01*
D02*G37*
G36*
X197376Y7929D02*
X197062Y8126D01*
X195211Y7929D01*
D02*G37*
G36*
X193479Y7850D02*
X194345Y8244D01*
X193873Y8126D01*
D02*G37*
G36*
X196313Y7771D02*
X197376Y7929D01*
X195211Y7929D01*
D02*G37*
G36*
X195014Y7732D02*
X196313Y7771D01*
X195211Y7929D01*
D02*G37*
G36*
X194384Y7693D02*
X194345Y8244D01*
X193479Y7850D01*
D02*G37*
G36*
X195920Y7693D02*
X196313Y7771D01*
X195014Y7732D01*
D02*G37*
G36*
X196747Y7693D02*
X197376Y7929D01*
X196313Y7771D01*
D02*G37*
G36*
X197613Y7653D02*
X197376Y7929D01*
X196747Y7693D01*
D02*G37*
G36*
X194109Y7614D02*
X194384Y7693D01*
X193479Y7850D01*
D02*G37*
G36*
X195605Y7535D02*
X195920Y7693D01*
X195014Y7732D01*
D02*G37*
G36*
X197062Y7535D02*
X197613Y7653D01*
X196747Y7693D01*
D02*G37*
G36*
X193873Y7496D02*
X194109Y7614D01*
X193479Y7850D01*
D02*G37*
G36*
X194896Y7496D02*
X195605Y7535D01*
X195014Y7732D01*
D02*G37*
G36*
X193243Y7456D02*
X193873Y7496D01*
X193479Y7850D01*
D02*G37*
G36*
X197770Y7299D02*
X197613Y7653D01*
X197062Y7535D01*
D02*G37*
G36*
X194817Y7260D02*
X195605Y7535D01*
X194896Y7496D01*
D02*G37*
G36*
X193715Y7220D02*
X193873Y7496D01*
X193243Y7456D01*
D02*G37*
G36*
X195408Y7220D02*
X195605Y7535D01*
X194817Y7260D01*
D02*G37*
G36*
X197258Y7220D02*
X197770Y7299D01*
X197062Y7535D01*
D02*G37*
G36*
X194778Y6984D02*
X195408Y7220D01*
X194817Y7260D01*
D02*G37*
G36*
X193164Y6945D02*
X193715Y7220D01*
X193243Y7456D01*
D02*G37*
G36*
X193636Y6905D02*
X193715Y7220D01*
X193164Y6945D01*
D02*G37*
G36*
X197810Y6905D02*
X197770Y7299D01*
X197258Y7220D01*
D02*G37*
G36*
X195329Y6866D02*
X195408Y7220D01*
X194778Y6984D01*
D02*G37*
G36*
X197337Y6866D02*
X197810Y6905D01*
X197258Y7220D01*
D02*G37*
G36*
X193676Y6669D02*
X193636Y6905D01*
X193164Y6945D01*
D02*G37*
G36*
X194817Y6669D02*
X195329Y6866D01*
X194778Y6984D01*
D02*G37*
G36*
X193203Y6630D02*
X193676Y6669D01*
X193164Y6945D01*
D02*G37*
G36*
X197298Y6630D02*
X197810Y6905D01*
X197337Y6866D01*
D02*G37*
G36*
X197770Y6590D02*
X197810Y6905D01*
X197298Y6630D01*
D02*G37*
G36*
X195408Y6512D02*
X195329Y6866D01*
X194817Y6669D01*
D02*G37*
G36*
X193794Y6433D02*
X193676Y6669D01*
X193203Y6630D01*
D02*G37*
G36*
X194936Y6393D02*
X195408Y6512D01*
X194817Y6669D01*
D02*G37*
G36*
X197219Y6393D02*
X197770Y6590D01*
X197298Y6630D01*
D02*G37*
G36*
X193282Y6315D02*
X193794Y6433D01*
X193203Y6630D01*
D02*G37*
G36*
X197691Y6275D02*
X197770Y6590D01*
X197219Y6393D01*
D02*G37*
G36*
X194030Y6236D02*
X193794Y6433D01*
X193282Y6315D01*
D02*G37*
G36*
X195605Y6197D02*
X195408Y6512D01*
X194936Y6393D01*
D02*G37*
G36*
X197062Y6197D02*
X197691Y6275D01*
X197219Y6393D01*
D02*G37*
G36*
X195132Y6118D02*
X195605Y6197D01*
X194936Y6393D01*
D02*G37*
G36*
X193479Y6039D02*
X194030Y6236D01*
X193282Y6315D01*
D02*G37*
G36*
X194345Y6039D02*
X194030Y6236D01*
X193479Y6039D01*
D02*G37*
G36*
X196825Y6039D02*
X197691Y6275D01*
X197062Y6197D01*
D02*G37*
G36*
X195920Y6000D02*
X195605Y6197D01*
X195132Y6118D01*
D02*G37*
G36*
X197534Y6000D02*
X197691Y6275D01*
X196825Y6039D01*
D02*G37*
G36*
X194542Y5960D02*
X194345Y6039D01*
X193479Y6039D01*
D02*G37*
G36*
X196550Y5960D02*
X197534Y6000D01*
X196825Y6039D01*
D02*G37*
G36*
X194778Y5921D02*
X194542Y5960D01*
X193479Y6039D01*
D02*G37*
G36*
X196275Y5921D02*
X195920Y6000D01*
X195132Y6118D01*
D02*G37*
G36*
X196275Y5921D02*
X197534Y6000D01*
X196550Y5960D01*
D02*G37*
G36*
X195369Y5882D02*
X196275Y5921D01*
X195132Y6118D01*
D02*G37*
G36*
X193676Y5803D02*
X194778Y5921D01*
X193479Y6039D01*
D02*G37*
G36*
X193676Y5803D02*
X195369Y5882D01*
X194778Y5921D01*
D02*G37*
G36*
X193676Y5803D02*
X196275Y5921D01*
X195369Y5882D01*
D02*G37*
G36*
X197298Y5763D02*
X197534Y6000D01*
X196275Y5921D01*
D02*G37*
G36*
X197298Y5763D02*
X196275Y5921D01*
X193676Y5803D01*
D02*G37*
G36*
X194030Y5606D02*
X197298Y5763D01*
X193676Y5803D01*
D02*G37*
G36*
X196983Y5567D02*
X197298Y5763D01*
X194030Y5606D01*
D02*G37*
G36*
X194463Y5449D02*
X196983Y5567D01*
X194030Y5606D01*
D02*G37*
G36*
X196628Y5449D02*
X196983Y5567D01*
X194463Y5449D01*
D02*G37*
G36*
X194975Y5370D02*
X196628Y5449D01*
X194463Y5449D01*
D02*G37*
G36*
X196156Y5370D02*
X196628Y5449D01*
X194975Y5370D01*
D02*G37*
G36*
X195605Y5330D02*
X196156Y5370D01*
X194975Y5370D01*
D02*G37*
G36*
X205920Y4779D02*
X205408Y4819D01*
X204857Y4779D01*
D02*G37*
G36*
X206353Y4700D02*
X205920Y4779D01*
X204857Y4779D01*
D02*G37*
G36*
X204345Y4661D02*
X206353Y4700D01*
X204857Y4779D01*
D02*G37*
G36*
X206707Y4582D02*
X206353Y4700D01*
X204345Y4661D01*
D02*G37*
G36*
X203912Y4425D02*
X206707Y4582D01*
X204345Y4661D01*
D02*G37*
G36*
X207022Y4386D02*
X206707Y4582D01*
X203912Y4425D01*
D02*G37*
G36*
X205093Y4228D02*
X207022Y4386D01*
X203912Y4425D01*
D02*G37*
G36*
X205408Y4228D02*
X207022Y4386D01*
X205093Y4228D01*
D02*G37*
G36*
X204778Y4189D02*
X205093Y4228D01*
X203912Y4425D01*
D02*G37*
G36*
X205880Y4189D02*
X207022Y4386D01*
X205408Y4228D01*
D02*G37*
G36*
X207258Y4189D02*
X207022Y4386D01*
X205880Y4189D01*
D02*G37*
G36*
X203558Y4110D02*
X204778Y4189D01*
X203912Y4425D01*
D02*G37*
G36*
X204542Y4110D02*
X204778Y4189D01*
X203558Y4110D01*
D02*G37*
G36*
X206274Y4110D02*
X207258Y4189D01*
X205880Y4189D01*
D02*G37*
G36*
X204306Y3992D02*
X204542Y4110D01*
X203558Y4110D01*
D02*G37*
G36*
X207416Y3992D02*
X207258Y4189D01*
X206274Y4110D01*
D02*G37*
G36*
X206628Y3952D02*
X207416Y3992D01*
X206274Y4110D01*
D02*G37*
G36*
X203361Y3834D02*
X204306Y3992D01*
X203558Y4110D01*
D02*G37*
G36*
X206865Y3795D02*
X207416Y3992D01*
X206628Y3952D01*
D02*G37*
G36*
X203991Y3756D02*
X204306Y3992D01*
X203361Y3834D01*
D02*G37*
G36*
X207573Y3756D02*
X207416Y3992D01*
X206865Y3795D01*
D02*G37*
G36*
X206983Y3598D02*
X207573Y3756D01*
X206865Y3795D01*
D02*G37*
G36*
X203243Y3441D02*
X203991Y3756D01*
X203361Y3834D01*
D02*G37*
G36*
X203794Y3441D02*
X203991Y3756D01*
X203243Y3441D01*
D02*G37*
G36*
X207101Y3362D02*
X207573Y3756D01*
X206983Y3598D01*
D02*G37*
G36*
X203203Y3126D02*
X203794Y3441D01*
X203243Y3441D01*
D02*G37*
G36*
X203754Y3126D02*
X203794Y3441D01*
X203203Y3126D01*
D02*G37*
G36*
X207731Y3126D02*
X207573Y3756D01*
X207101Y3362D01*
D02*G37*
G36*
X207180Y3086D02*
X207731Y3126D01*
X207101Y3362D01*
D02*G37*
G36*
X203164Y2653D02*
X203754Y3126D01*
X203203Y3126D01*
D02*G37*
G36*
X203715Y2653D02*
X203754Y3126D01*
X203164Y2653D01*
D02*G37*
G36*
X203715Y1708D02*
X203715Y2653D01*
X203164Y2653D01*
D02*G37*
G36*
X207181Y1708D02*
X207731Y3126D01*
X207180Y3086D01*
D02*G37*
G36*
X203164Y1118D02*
X203715Y1708D01*
X203164Y2653D01*
D02*G37*
G36*
X203164Y1118D02*
X207181Y1708D01*
X203715Y1708D01*
D02*G37*
G36*
X207731Y1118D02*
X207181Y1708D01*
X203164Y1118D01*
D02*G37*
G36*
X207731Y1118D02*
X207731Y3126D01*
X207181Y1708D01*
D02*G37*
G36*
X206825Y5449D02*
X206550Y5409D01*
X206471Y5960D01*
X206865Y6078D01*
X207140Y6275D01*
X207298Y6512D01*
X207337Y6826D01*
X207258Y7220D01*
X207062Y7496D01*
X206747Y7693D01*
X206392Y7771D01*
X206038Y7693D01*
X205762Y7535D01*
X205565Y7260D01*
X205487Y6905D01*
X205526Y6708D01*
X205565Y6512D01*
X205014Y6551D01*
X205014Y6630D01*
X204975Y6984D01*
X204857Y7260D01*
X204621Y7456D01*
X204306Y7535D01*
X204030Y7496D01*
X203833Y7338D01*
X203676Y7102D01*
X203636Y6787D01*
X203676Y6512D01*
X203833Y6275D01*
X204069Y6118D01*
X204424Y6000D01*
X204345Y5449D01*
X203833Y5606D01*
X203479Y5921D01*
X203243Y6315D01*
X203164Y6787D01*
X203203Y7141D01*
X203321Y7456D01*
X203518Y7732D01*
X203754Y7929D01*
X204030Y8047D01*
X204306Y8086D01*
X204581Y8047D01*
X204857Y7929D01*
X205054Y7732D01*
X205211Y7456D01*
X205369Y7811D01*
X205605Y8086D01*
X205959Y8283D01*
X206353Y8323D01*
X206668Y8283D01*
X206904Y8204D01*
X207180Y8086D01*
X207376Y7889D01*
X207573Y7653D01*
X207691Y7417D01*
X207770Y7141D01*
X207810Y6826D01*
X207770Y6551D01*
X207731Y6275D01*
X207613Y6039D01*
X207455Y5842D01*
X207258Y5685D01*
X207062Y5567D01*
X206825Y5449D01*
D02*G37*
G36*
X155334Y4504D02*
X155334Y3204D01*
X154783Y3204D01*
X154783Y5094D01*
X156476Y5094D01*
X156791Y4661D01*
X157027Y4189D01*
X157145Y3716D01*
X157185Y3244D01*
X157106Y2575D01*
X156909Y2023D01*
X156555Y1551D01*
X156082Y1197D01*
X155492Y1000D01*
X154862Y921D01*
X154192Y1000D01*
X153602Y1197D01*
X153090Y1551D01*
X152736Y1984D01*
X152539Y2535D01*
X152460Y3165D01*
X152500Y3637D01*
X152618Y4071D01*
X152814Y4425D01*
X153090Y4700D01*
X153405Y4897D01*
X153838Y5015D01*
X153996Y4464D01*
X153681Y4386D01*
X153444Y4228D01*
X153287Y4031D01*
X153129Y3795D01*
X153051Y3480D01*
X153011Y3165D01*
X153051Y2771D01*
X153129Y2456D01*
X153287Y2181D01*
X153484Y1984D01*
X153681Y1826D01*
X153917Y1669D01*
X154350Y1551D01*
X154822Y1512D01*
X155374Y1551D01*
X155846Y1708D01*
X156200Y1984D01*
X156437Y2338D01*
X156594Y2732D01*
X156633Y3165D01*
X156594Y3559D01*
X156476Y3952D01*
X156318Y4267D01*
X156161Y4504D01*
X155334Y4504D01*
D02*G37*
G36*
X157106Y6590D02*
X157106Y6000D01*
X152539Y6000D01*
X152539Y6630D01*
X156082Y8913D01*
X152539Y8913D01*
X152539Y9504D01*
X157106Y9504D01*
X157106Y8874D01*
X153602Y6590D01*
X157106Y6590D01*
D02*G37*
G36*
X155295Y14189D02*
X154783Y14228D01*
X154232Y14189D01*
D02*G37*
G36*
X155728Y14110D02*
X155295Y14189D01*
X154232Y14189D01*
D02*G37*
G36*
X153720Y14071D02*
X155728Y14110D01*
X154232Y14189D01*
D02*G37*
G36*
X156082Y13992D02*
X155728Y14110D01*
X153720Y14071D01*
D02*G37*
G36*
X153287Y13834D02*
X156082Y13992D01*
X153720Y14071D01*
D02*G37*
G36*
X156397Y13795D02*
X156082Y13992D01*
X153287Y13834D01*
D02*G37*
G36*
X154468Y13637D02*
X156397Y13795D01*
X153287Y13834D01*
D02*G37*
G36*
X154783Y13637D02*
X156397Y13795D01*
X154468Y13637D01*
D02*G37*
G36*
X154153Y13598D02*
X154468Y13637D01*
X153287Y13834D01*
D02*G37*
G36*
X155255Y13598D02*
X156397Y13795D01*
X154783Y13637D01*
D02*G37*
G36*
X156633Y13598D02*
X156397Y13795D01*
X155255Y13598D01*
D02*G37*
G36*
X152933Y13519D02*
X154153Y13598D01*
X153287Y13834D01*
D02*G37*
G36*
X153917Y13519D02*
X154153Y13598D01*
X152933Y13519D01*
D02*G37*
G36*
X155649Y13519D02*
X156633Y13598D01*
X155255Y13598D01*
D02*G37*
G36*
X153681Y13401D02*
X153917Y13519D01*
X152933Y13519D01*
D02*G37*
G36*
X156791Y13401D02*
X156633Y13598D01*
X155649Y13519D01*
D02*G37*
G36*
X156003Y13362D02*
X156791Y13401D01*
X155649Y13519D01*
D02*G37*
G36*
X152736Y13244D02*
X153681Y13401D01*
X152933Y13519D01*
D02*G37*
G36*
X156240Y13204D02*
X156791Y13401D01*
X156003Y13362D01*
D02*G37*
G36*
X153366Y13165D02*
X153681Y13401D01*
X152736Y13244D01*
D02*G37*
G36*
X156948Y13165D02*
X156791Y13401D01*
X156240Y13204D01*
D02*G37*
G36*
X156358Y13008D02*
X156948Y13165D01*
X156240Y13204D01*
D02*G37*
G36*
X152618Y12850D02*
X153366Y13165D01*
X152736Y13244D01*
D02*G37*
G36*
X153169Y12850D02*
X153366Y13165D01*
X152618Y12850D01*
D02*G37*
G36*
X156476Y12771D02*
X156948Y13165D01*
X156358Y13008D01*
D02*G37*
G36*
X152578Y12535D02*
X153169Y12850D01*
X152618Y12850D01*
D02*G37*
G36*
X153129Y12535D02*
X153169Y12850D01*
X152578Y12535D01*
D02*G37*
G36*
X157106Y12535D02*
X156948Y13165D01*
X156476Y12771D01*
D02*G37*
G36*
X156555Y12496D02*
X157106Y12535D01*
X156476Y12771D01*
D02*G37*
G36*
X152539Y12063D02*
X153129Y12535D01*
X152578Y12535D01*
D02*G37*
G36*
X153090Y12063D02*
X153129Y12535D01*
X152539Y12063D01*
D02*G37*
G36*
X153090Y11118D02*
X153090Y12063D01*
X152539Y12063D01*
D02*G37*
G36*
X156556Y11118D02*
X157106Y12535D01*
X156555Y12496D01*
D02*G37*
G36*
X152539Y10527D02*
X153090Y11118D01*
X152539Y12063D01*
D02*G37*
G36*
X152539Y10527D02*
X156556Y11118D01*
X153090Y11118D01*
D02*G37*
G36*
X157106Y10527D02*
X156556Y11118D01*
X152539Y10527D01*
D02*G37*
G36*
X157106Y10527D02*
X157106Y12535D01*
X156556Y11118D01*
D02*G37*
G36*
X42250Y189458D02*
X42171Y189931D01*
X42762Y189931D01*
X42840Y189616D01*
X42958Y189340D01*
X43116Y189143D01*
X43352Y188986D01*
X43667Y188868D01*
X44021Y188828D01*
X44336Y188868D01*
X44612Y188946D01*
X44809Y189064D01*
X44966Y189222D01*
X45045Y189419D01*
X45084Y189616D01*
X45045Y189812D01*
X44966Y189970D01*
X44809Y190127D01*
X44573Y190246D01*
X44454Y190285D01*
X44297Y190324D01*
X44100Y190403D01*
X43825Y190442D01*
X43549Y190521D01*
X43313Y190600D01*
X43116Y190679D01*
X42958Y190757D01*
X42683Y190915D01*
X42486Y191151D01*
X42368Y191427D01*
X42328Y191742D01*
X42368Y192057D01*
X42525Y192372D01*
X42762Y192647D01*
X43076Y192844D01*
X43470Y192962D01*
X43903Y193001D01*
X44336Y192962D01*
X44769Y192844D01*
X45084Y192608D01*
X45321Y192332D01*
X45478Y192017D01*
X45557Y191624D01*
X44966Y191624D01*
X44887Y191978D01*
X44651Y192253D01*
X44336Y192411D01*
X43903Y192450D01*
X43470Y192411D01*
X43155Y192253D01*
X42998Y192017D01*
X42919Y191781D01*
X42958Y191545D01*
X43076Y191348D01*
X43195Y191269D01*
X43391Y191190D01*
X43628Y191112D01*
X43943Y191033D01*
X44258Y190954D01*
X44533Y190875D01*
X44769Y190797D01*
X44927Y190757D01*
X45242Y190561D01*
X45478Y190285D01*
X45636Y189970D01*
X45675Y189655D01*
X45636Y189301D01*
X45478Y188946D01*
X45242Y188671D01*
X44887Y188435D01*
X44494Y188316D01*
X44061Y188277D01*
X43510Y188316D01*
X43037Y188474D01*
X42683Y188710D01*
X42407Y189064D01*
X42250Y189458D01*
D02*G37*
G36*
X48549Y192883D02*
X48076Y192923D01*
X46541Y192923D01*
D02*G37*
G36*
X48864Y192844D02*
X48549Y192883D01*
X46541Y192923D01*
D02*G37*
G36*
X49258Y192726D02*
X48864Y192844D01*
X46541Y192923D01*
D02*G37*
G36*
X49533Y192529D02*
X49258Y192726D01*
X46541Y192923D01*
D02*G37*
G36*
X47132Y192372D02*
X49533Y192529D01*
X46541Y192923D01*
D02*G37*
G36*
X48076Y192372D02*
X49533Y192529D01*
X47132Y192372D01*
D02*G37*
G36*
X48549Y192332D02*
X49533Y192529D01*
X48076Y192372D01*
D02*G37*
G36*
X48864Y192293D02*
X49533Y192529D01*
X48549Y192332D01*
D02*G37*
G36*
X49848Y192175D02*
X49533Y192529D01*
X48864Y192293D01*
D02*G37*
G36*
X49179Y192096D02*
X49848Y192175D01*
X48864Y192293D01*
D02*G37*
G36*
X49415Y191781D02*
X49848Y192175D01*
X49179Y192096D01*
D02*G37*
G36*
X50084Y191742D02*
X49848Y192175D01*
X49415Y191781D01*
D02*G37*
G36*
X49533Y191545D02*
X50084Y191742D01*
X49415Y191781D01*
D02*G37*
G36*
X49612Y191309D02*
X50084Y191742D01*
X49533Y191545D01*
D02*G37*
G36*
X50202Y191230D02*
X50084Y191742D01*
X49612Y191309D01*
D02*G37*
G36*
X49651Y190994D02*
X50202Y191230D01*
X49612Y191309D01*
D02*G37*
G36*
X49651Y190679D02*
X50202Y191230D01*
X49651Y190994D01*
D02*G37*
G36*
X50242Y190679D02*
X50202Y191230D01*
X49651Y190679D01*
D02*G37*
G36*
X49612Y190206D02*
X50242Y190679D01*
X49651Y190679D01*
D02*G37*
G36*
X50202Y190167D02*
X50242Y190679D01*
X49612Y190206D01*
D02*G37*
G36*
X49533Y189812D02*
X50202Y190167D01*
X49612Y190206D01*
D02*G37*
G36*
X50124Y189734D02*
X50202Y190167D01*
X49533Y189812D01*
D02*G37*
G36*
X49376Y189458D02*
X50124Y189734D01*
X49533Y189812D01*
D02*G37*
G36*
X50006Y189379D02*
X50124Y189734D01*
X49376Y189458D01*
D02*G37*
G36*
X49218Y189222D02*
X50006Y189379D01*
X49376Y189458D01*
D02*G37*
G36*
X49021Y189104D02*
X50006Y189379D01*
X49218Y189222D01*
D02*G37*
G36*
X49809Y189064D02*
X50006Y189379D01*
X49021Y189104D01*
D02*G37*
G36*
X48785Y188986D02*
X49809Y189064D01*
X49021Y189104D01*
D02*G37*
G36*
X47133Y188907D02*
X47132Y192372D01*
X46541Y192923D01*
D02*G37*
G36*
X48510Y188907D02*
X49809Y189064D01*
X48785Y188986D01*
D02*G37*
G36*
X49612Y188828D02*
X49809Y189064D01*
X48510Y188907D01*
D02*G37*
G36*
X49612Y188828D02*
X48510Y188907D01*
X47133Y188907D01*
D02*G37*
G36*
X49415Y188671D02*
X49612Y188828D01*
X47133Y188907D01*
D02*G37*
G36*
X49179Y188513D02*
X49415Y188671D01*
X47133Y188907D01*
D02*G37*
G36*
X46541Y188356D02*
X47133Y188907D01*
X46541Y192923D01*
D02*G37*
G36*
X46541Y188356D02*
X49179Y188513D01*
X47133Y188907D01*
D02*G37*
G36*
X48549Y188356D02*
X49179Y188513D01*
X46541Y188356D01*
D02*G37*
G36*
X52525Y192450D02*
X52840Y192923D01*
X52171Y192923D01*
D02*G37*
G36*
X52683Y192017D02*
X52840Y192923D01*
X52525Y192450D01*
D02*G37*
G36*
X52250Y191584D02*
X52525Y192450D01*
X52171Y192923D01*
D02*G37*
G36*
X52840Y191466D02*
X52840Y192923D01*
X52683Y192017D01*
D02*G37*
G36*
X51778Y190324D02*
X52250Y191584D01*
X52171Y192923D01*
D02*G37*
G36*
X53273Y190324D02*
X52840Y192923D01*
X52840Y191466D01*
D02*G37*
G36*
X51580Y189773D02*
X53273Y190324D01*
X51778Y190324D01*
D02*G37*
G36*
X51580Y189773D02*
X51778Y190324D01*
X52171Y192923D01*
D02*G37*
G36*
X53470Y189773D02*
X53273Y190324D01*
X51580Y189773D01*
D02*G37*
G36*
X53470Y189773D02*
X52840Y192923D01*
X53273Y190324D01*
D02*G37*
G36*
X50478Y188356D02*
X51580Y189773D01*
X52171Y192923D01*
D02*G37*
G36*
X51108Y188356D02*
X51580Y189773D01*
X50478Y188356D01*
D02*G37*
G36*
X53982Y188356D02*
X52840Y192923D01*
X53470Y189773D01*
D02*G37*
G36*
X54612Y188356D02*
X52840Y192923D01*
X53982Y188356D01*
D02*G37*
G36*
X42250Y199458D02*
X42171Y199931D01*
X42762Y199931D01*
X42840Y199616D01*
X42958Y199340D01*
X43116Y199143D01*
X43352Y198986D01*
X43667Y198868D01*
X44021Y198828D01*
X44336Y198868D01*
X44612Y198946D01*
X44809Y199064D01*
X44966Y199222D01*
X45045Y199419D01*
X45084Y199616D01*
X45045Y199812D01*
X44966Y199970D01*
X44809Y200127D01*
X44573Y200246D01*
X44454Y200285D01*
X44297Y200324D01*
X44100Y200403D01*
X43825Y200442D01*
X43549Y200521D01*
X43313Y200600D01*
X43116Y200679D01*
X42958Y200757D01*
X42683Y200915D01*
X42486Y201151D01*
X42368Y201427D01*
X42328Y201742D01*
X42368Y202057D01*
X42525Y202372D01*
X42762Y202647D01*
X43076Y202844D01*
X43470Y202962D01*
X43903Y203001D01*
X44336Y202962D01*
X44769Y202844D01*
X45084Y202608D01*
X45321Y202332D01*
X45478Y202017D01*
X45557Y201624D01*
X44966Y201624D01*
X44887Y201978D01*
X44651Y202253D01*
X44336Y202411D01*
X43903Y202450D01*
X43470Y202411D01*
X43155Y202253D01*
X42998Y202017D01*
X42919Y201781D01*
X42958Y201545D01*
X43076Y201348D01*
X43195Y201269D01*
X43391Y201190D01*
X43628Y201112D01*
X43943Y201033D01*
X44258Y200954D01*
X44533Y200875D01*
X44769Y200797D01*
X44927Y200757D01*
X45242Y200561D01*
X45478Y200285D01*
X45636Y199970D01*
X45675Y199655D01*
X45636Y199301D01*
X45478Y198946D01*
X45242Y198671D01*
X44887Y198435D01*
X44494Y198316D01*
X44061Y198277D01*
X43510Y198316D01*
X43037Y198474D01*
X42683Y198710D01*
X42407Y199064D01*
X42250Y199458D01*
D02*G37*
G36*
X49533Y199458D02*
X49730Y199970D01*
X50321Y199812D01*
X50202Y199458D01*
X50045Y199143D01*
X49887Y198907D01*
X49651Y198671D01*
X49376Y198513D01*
X49100Y198356D01*
X48785Y198316D01*
X48470Y198277D01*
X47801Y198356D01*
X47525Y198435D01*
X47289Y198592D01*
X46856Y198946D01*
X46580Y199458D01*
X46423Y200049D01*
X46344Y200679D01*
X46423Y201348D01*
X46620Y201899D01*
X46935Y202372D01*
X47368Y202726D01*
X47880Y202923D01*
X48431Y203001D01*
X48785Y202962D01*
X49061Y202923D01*
X49336Y202805D01*
X49573Y202647D01*
X49966Y202214D01*
X50202Y201663D01*
X49612Y201505D01*
X49415Y201938D01*
X49179Y202214D01*
X48825Y202372D01*
X48431Y202450D01*
X47958Y202372D01*
X47565Y202214D01*
X47250Y201899D01*
X47092Y201545D01*
X46974Y201112D01*
X46935Y200679D01*
X46974Y200127D01*
X47092Y199655D01*
X47328Y199301D01*
X47643Y199025D01*
X47998Y198868D01*
X48391Y198828D01*
X48864Y198907D01*
X49258Y199104D01*
X49533Y199458D01*
D02*G37*
G36*
X53825Y198356D02*
X51069Y198356D01*
X51069Y202923D01*
X51659Y202923D01*
X51659Y198907D01*
X53825Y198907D01*
X53825Y198356D01*
D02*G37*
G36*
X45754Y210127D02*
X44454Y210127D01*
X44454Y210679D01*
X46344Y210679D01*
X46344Y208986D01*
X45911Y208671D01*
X45439Y208435D01*
X44966Y208316D01*
X44494Y208277D01*
X43825Y208356D01*
X43273Y208553D01*
X42801Y208907D01*
X42447Y209379D01*
X42250Y209970D01*
X42171Y210600D01*
X42250Y211269D01*
X42447Y211860D01*
X42801Y212372D01*
X43234Y212726D01*
X43785Y212923D01*
X44415Y213001D01*
X44887Y212962D01*
X45321Y212844D01*
X45675Y212647D01*
X45950Y212372D01*
X46147Y212057D01*
X46265Y211624D01*
X45714Y211466D01*
X45636Y211781D01*
X45478Y212017D01*
X45281Y212175D01*
X45045Y212332D01*
X44730Y212411D01*
X44415Y212450D01*
X44021Y212411D01*
X43706Y212332D01*
X43431Y212175D01*
X43234Y211978D01*
X43076Y211781D01*
X42919Y211545D01*
X42801Y211112D01*
X42762Y210639D01*
X42801Y210088D01*
X42958Y209616D01*
X43234Y209261D01*
X43588Y209025D01*
X43982Y208868D01*
X44415Y208828D01*
X44809Y208868D01*
X45202Y208986D01*
X45517Y209143D01*
X45754Y209301D01*
X45754Y210127D01*
D02*G37*
G36*
X47840Y208356D02*
X47250Y208356D01*
X47250Y212923D01*
X47880Y212923D01*
X50163Y209379D01*
X50163Y212923D01*
X50754Y212923D01*
X50754Y208356D01*
X50124Y208356D01*
X47840Y211860D01*
X47840Y208356D01*
D02*G37*
G36*
X53785Y212883D02*
X53313Y212923D01*
X51777Y212923D01*
D02*G37*
G36*
X54100Y212844D02*
X53785Y212883D01*
X51777Y212923D01*
D02*G37*
G36*
X54494Y212726D02*
X54100Y212844D01*
X51777Y212923D01*
D02*G37*
G36*
X54769Y212529D02*
X54494Y212726D01*
X51777Y212923D01*
D02*G37*
G36*
X52368Y212372D02*
X54769Y212529D01*
X51777Y212923D01*
D02*G37*
G36*
X53313Y212372D02*
X54769Y212529D01*
X52368Y212372D01*
D02*G37*
G36*
X53785Y212332D02*
X54769Y212529D01*
X53313Y212372D01*
D02*G37*
G36*
X54100Y212293D02*
X54769Y212529D01*
X53785Y212332D01*
D02*G37*
G36*
X55084Y212175D02*
X54769Y212529D01*
X54100Y212293D01*
D02*G37*
G36*
X54415Y212096D02*
X55084Y212175D01*
X54100Y212293D01*
D02*G37*
G36*
X54651Y211781D02*
X55084Y212175D01*
X54415Y212096D01*
D02*G37*
G36*
X55321Y211742D02*
X55084Y212175D01*
X54651Y211781D01*
D02*G37*
G36*
X54769Y211545D02*
X55321Y211742D01*
X54651Y211781D01*
D02*G37*
G36*
X54848Y211309D02*
X55321Y211742D01*
X54769Y211545D01*
D02*G37*
G36*
X55439Y211230D02*
X55321Y211742D01*
X54848Y211309D01*
D02*G37*
G36*
X54887Y210994D02*
X55439Y211230D01*
X54848Y211309D01*
D02*G37*
G36*
X54887Y210679D02*
X55439Y211230D01*
X54887Y210994D01*
D02*G37*
G36*
X55478Y210679D02*
X55439Y211230D01*
X54887Y210679D01*
D02*G37*
G36*
X54848Y210206D02*
X55478Y210679D01*
X54887Y210679D01*
D02*G37*
G36*
X55439Y210167D02*
X55478Y210679D01*
X54848Y210206D01*
D02*G37*
G36*
X54769Y209812D02*
X55439Y210167D01*
X54848Y210206D01*
D02*G37*
G36*
X55360Y209734D02*
X55439Y210167D01*
X54769Y209812D01*
D02*G37*
G36*
X54612Y209458D02*
X55360Y209734D01*
X54769Y209812D01*
D02*G37*
G36*
X55242Y209379D02*
X55360Y209734D01*
X54612Y209458D01*
D02*G37*
G36*
X54454Y209222D02*
X55242Y209379D01*
X54612Y209458D01*
D02*G37*
G36*
X54258Y209104D02*
X55242Y209379D01*
X54454Y209222D01*
D02*G37*
G36*
X55045Y209064D02*
X55242Y209379D01*
X54258Y209104D01*
D02*G37*
G36*
X54021Y208986D02*
X55045Y209064D01*
X54258Y209104D01*
D02*G37*
G36*
X52369Y208907D02*
X52368Y212372D01*
X51777Y212923D01*
D02*G37*
G36*
X53746Y208907D02*
X55045Y209064D01*
X54021Y208986D01*
D02*G37*
G36*
X54848Y208828D02*
X55045Y209064D01*
X53746Y208907D01*
D02*G37*
G36*
X54848Y208828D02*
X53746Y208907D01*
X52369Y208907D01*
D02*G37*
G36*
X54651Y208671D02*
X54848Y208828D01*
X52369Y208907D01*
D02*G37*
G36*
X54415Y208513D02*
X54651Y208671D01*
X52369Y208907D01*
D02*G37*
G36*
X51777Y208356D02*
X52369Y208907D01*
X51777Y212923D01*
D02*G37*
G36*
X51777Y208356D02*
X54415Y208513D01*
X52369Y208907D01*
D02*G37*
G36*
X53785Y208356D02*
X54415Y208513D01*
X51777Y208356D01*
D02*G37*
G36*
X43943Y219025D02*
X43431Y219025D01*
X43431Y220285D01*
X42210Y220285D01*
X42210Y220836D01*
X43431Y220836D01*
X43431Y222096D01*
X43943Y222096D01*
X43943Y220836D01*
X45163Y220836D01*
X45163Y220285D01*
X43943Y220285D01*
X43943Y219025D01*
D02*G37*
G36*
X45832Y219261D02*
X45793Y219537D01*
X46344Y219616D01*
X46462Y219222D01*
X46659Y218946D01*
X46895Y218789D01*
X47210Y218750D01*
X47604Y218828D01*
X47880Y219025D01*
X48076Y219340D01*
X48155Y219694D01*
X48076Y220049D01*
X47919Y220324D01*
X47643Y220521D01*
X47289Y220600D01*
X47092Y220561D01*
X46895Y220521D01*
X46935Y221072D01*
X47013Y221072D01*
X47368Y221112D01*
X47643Y221230D01*
X47840Y221466D01*
X47919Y221781D01*
X47880Y222057D01*
X47722Y222253D01*
X47486Y222411D01*
X47171Y222450D01*
X46895Y222411D01*
X46659Y222253D01*
X46502Y222017D01*
X46384Y221663D01*
X45832Y221742D01*
X45990Y222253D01*
X46305Y222608D01*
X46699Y222844D01*
X47171Y222923D01*
X47525Y222883D01*
X47840Y222765D01*
X48116Y222568D01*
X48313Y222332D01*
X48431Y222057D01*
X48470Y221781D01*
X48431Y221505D01*
X48313Y221230D01*
X48116Y221033D01*
X47840Y220875D01*
X48195Y220718D01*
X48470Y220482D01*
X48667Y220127D01*
X48706Y219734D01*
X48667Y219419D01*
X48588Y219183D01*
X48470Y218907D01*
X48273Y218710D01*
X48037Y218513D01*
X47801Y218395D01*
X47525Y218316D01*
X47210Y218277D01*
X46935Y218316D01*
X46659Y218356D01*
X46423Y218474D01*
X46226Y218631D01*
X46069Y218828D01*
X45950Y219025D01*
X45832Y219261D01*
D02*G37*
G36*
X51462Y218356D02*
X50793Y218356D01*
X49100Y222923D01*
X49730Y222923D01*
X50911Y219616D01*
X51147Y218868D01*
X51384Y219616D01*
X52604Y222923D01*
X53234Y222923D01*
X51462Y218356D01*
D02*G37*
G36*
X249606Y191083D02*
X249606Y190493D01*
X245039Y190493D01*
X245039Y193485D01*
X245590Y193485D01*
X245590Y191083D01*
X246968Y191083D01*
X246968Y193131D01*
X247519Y193131D01*
X247519Y191083D01*
X249606Y191083D01*
D02*G37*
G36*
X249606Y196005D02*
X249606Y195414D01*
X245590Y195414D01*
X245590Y193918D01*
X245039Y193918D01*
X245039Y197501D01*
X245590Y197501D01*
X245590Y196005D01*
X249606Y196005D01*
D02*G37*
G36*
X247795Y201792D02*
X247283Y201831D01*
X246732Y201792D01*
D02*G37*
G36*
X248228Y201713D02*
X247795Y201792D01*
X246732Y201792D01*
D02*G37*
G36*
X246220Y201674D02*
X248228Y201713D01*
X246732Y201792D01*
D02*G37*
G36*
X248582Y201595D02*
X248228Y201713D01*
X246220Y201674D01*
D02*G37*
G36*
X245787Y201438D02*
X248582Y201595D01*
X246220Y201674D01*
D02*G37*
G36*
X248897Y201398D02*
X248582Y201595D01*
X245787Y201438D01*
D02*G37*
G36*
X246968Y201241D02*
X248897Y201398D01*
X245787Y201438D01*
D02*G37*
G36*
X247283Y201241D02*
X248897Y201398D01*
X246968Y201241D01*
D02*G37*
G36*
X246653Y201201D02*
X246968Y201241D01*
X245787Y201438D01*
D02*G37*
G36*
X247755Y201201D02*
X248897Y201398D01*
X247283Y201241D01*
D02*G37*
G36*
X249133Y201201D02*
X248897Y201398D01*
X247755Y201201D01*
D02*G37*
G36*
X245433Y201123D02*
X246653Y201201D01*
X245787Y201438D01*
D02*G37*
G36*
X246417Y201123D02*
X246653Y201201D01*
X245433Y201123D01*
D02*G37*
G36*
X248149Y201123D02*
X249133Y201201D01*
X247755Y201201D01*
D02*G37*
G36*
X246181Y201005D02*
X246417Y201123D01*
X245433Y201123D01*
D02*G37*
G36*
X249291Y201005D02*
X249133Y201201D01*
X248149Y201123D01*
D02*G37*
G36*
X248503Y200965D02*
X249291Y201005D01*
X248149Y201123D01*
D02*G37*
G36*
X245236Y200847D02*
X246181Y201005D01*
X245433Y201123D01*
D02*G37*
G36*
X248740Y200808D02*
X249291Y201005D01*
X248503Y200965D01*
D02*G37*
G36*
X245866Y200768D02*
X246181Y201005D01*
X245236Y200847D01*
D02*G37*
G36*
X249448Y200768D02*
X249291Y201005D01*
X248740Y200808D01*
D02*G37*
G36*
X248858Y200611D02*
X249448Y200768D01*
X248740Y200808D01*
D02*G37*
G36*
X245118Y200453D02*
X245866Y200768D01*
X245236Y200847D01*
D02*G37*
G36*
X245669Y200453D02*
X245866Y200768D01*
X245118Y200453D01*
D02*G37*
G36*
X248976Y200375D02*
X249448Y200768D01*
X248858Y200611D01*
D02*G37*
G36*
X245078Y200138D02*
X245669Y200453D01*
X245118Y200453D01*
D02*G37*
G36*
X245629Y200138D02*
X245669Y200453D01*
X245078Y200138D01*
D02*G37*
G36*
X249606Y200138D02*
X249448Y200768D01*
X248976Y200375D01*
D02*G37*
G36*
X249055Y200099D02*
X249606Y200138D01*
X248976Y200375D01*
D02*G37*
G36*
X245039Y199666D02*
X245629Y200138D01*
X245078Y200138D01*
D02*G37*
G36*
X245590Y199666D02*
X245629Y200138D01*
X245039Y199666D01*
D02*G37*
G36*
X245590Y198721D02*
X245590Y199666D01*
X245039Y199666D01*
D02*G37*
G36*
X249056Y198721D02*
X249606Y200138D01*
X249055Y200099D01*
D02*G37*
G36*
X245039Y198131D02*
X245590Y198721D01*
X245039Y199666D01*
D02*G37*
G36*
X245039Y198131D02*
X249056Y198721D01*
X245590Y198721D01*
D02*G37*
G36*
X249606Y198131D02*
X249056Y198721D01*
X245039Y198131D01*
D02*G37*
G36*
X249606Y198131D02*
X249606Y200138D01*
X249056Y198721D01*
D02*G37*
G36*
X249606Y203288D02*
X249606Y202698D01*
X245039Y202698D01*
X245039Y203288D01*
X249606Y203288D01*
D02*G37*
M02*
