%FSLAX35Y35*%
%MOIN*%
%IN2=KupferuntenL1(X.Bot)*%
%ADD10C,0.00591*%
%ADD11C,0.00004*%
%ADD12C,0.00154*%
%ADD13C,0.00192*%
%ADD14C,0.00197*%
%ADD15C,0.00200*%
%ADD16C,0.00240*%
%ADD17C,0.00288*%
%ADD18C,0.00300*%
%ADD19C,0.00394*%
%ADD20C,0.00400*%
%ADD21C,0.00450*%
%ADD22C,0.00500*%
%ADD23C,0.00600*%
%ADD24C,0.00787*%
%ADD25C,0.00800*%
%ADD26C,0.01000*%
%ADD27C,0.01024*%
%ADD28C,0.01181*%
%ADD29C,0.01575*%
%ADD30C,0.01969*%
%ADD31C,0.02362*%
%ADD32C,0.03150*%
%ADD33C,0.05000*%
%ADD34C,0.05118*%
%ADD35C,0.07087*%
%ADD36C,0.09843*%
%AMR_37*21,1,0.00591,0.01181,0,0,0.000*%
%ADD37R_37*%
%AMR_38*21,1,0.00600,0.07200,0,0,0.000*%
%ADD38R_38*%
%AMR_39*21,1,0.00787,0.04724,0,0,0.000*%
%ADD39R_39*%
%AMR_40*21,1,0.00788,0.03150,0,0,0.000*%
%ADD40R_40*%
%AMR_41*21,1,0.01181,0.01181,0,0,0.000*%
%ADD41R_41*%
%AMR_42*21,1,0.01250,0.04375,0,0,0.000*%
%ADD42R_42*%
%AMR_43*21,1,0.01400,0.05600,0,0,0.000*%
%ADD43R_43*%
%AMR_44*21,1,0.01574,0.03150,0,0,0.000*%
%ADD44R_44*%
%AMR_45*21,1,0.01574,0.04724,0,0,0.000*%
%ADD45R_45*%
%AMR_46*21,1,0.01800,0.02300,0,0,0.000*%
%ADD46R_46*%
%AMR_47*21,1,0.01969,0.02559,0,0,0.000*%
%ADD47R_47*%
%AMR_48*21,1,0.01969,0.05118,0,0,45.000*%
%ADD48R_48*%
%AMR_49*21,1,0.02000,0.02000,0,0,0.000*%
%ADD49R_49*%
%AMR_50*21,1,0.02165,0.04724,0,0,0.000*%
%ADD50R_50*%
%AMR_51*21,1,0.02500,0.02500,0,0,0.000*%
%ADD51R_51*%
%AMR_52*21,1,0.02500,0.05000,0,0,0.000*%
%ADD52R_52*%
%AMR_53*21,1,0.02559,0.05906,0,0,0.000*%
%ADD53R_53*%
%AMR_54*21,1,0.02756,0.09843,0,0,270.000*%
%ADD54R_54*%
%AMR_55*21,1,0.02953,0.05709,0,0,0.000*%
%ADD55R_55*%
%AMR_56*21,1,0.02953,0.06693,0,0,0.000*%
%ADD56R_56*%
%AMR_57*21,1,0.03150,0.00788,0,0,0.000*%
%ADD57R_57*%
%AMR_58*21,1,0.03150,0.01574,0,0,0.000*%
%ADD58R_58*%
%AMR_59*21,1,0.03750,0.01875,0,0,0.000*%
%ADD59R_59*%
%AMR_60*21,1,0.03937,0.01575,0,0,180.000*%
%ADD60R_60*%
%AMR_61*21,1,0.03937,0.05512,0,0,0.000*%
%ADD61R_61*%
%AMR_62*21,1,0.04600,0.05512,0,0,90.000*%
%ADD62R_62*%
%AMR_63*21,1,0.04600,0.05512,0,0,180.000*%
%ADD63R_63*%
%AMR_64*21,1,0.04724,0.01574,0,0,0.000*%
%ADD64R_64*%
%AMR_65*21,1,0.04724,0.04724,0,0,0.000*%
%ADD65R_65*%
%AMR_66*21,1,0.05118,0.01969,0,0,45.000*%
%ADD66R_66*%
%AMR_67*21,1,0.05118,0.05906,0,0,0.000*%
%ADD67R_67*%
%AMR_68*21,1,0.05118,0.05906,0,0,90.000*%
%ADD68R_68*%
%AMR_69*21,1,0.05118,0.05906,0,0,180.000*%
%ADD69R_69*%
%AMR_70*21,1,0.05118,0.05906,0,0,270.000*%
%ADD70R_70*%
%AMR_71*21,1,0.05118,0.06299,0,0,0.000*%
%ADD71R_71*%
%AMR_72*21,1,0.05118,0.06299,0,0,90.000*%
%ADD72R_72*%
%AMR_73*21,1,0.05118,0.06299,0,0,180.000*%
%ADD73R_73*%
%AMR_74*21,1,0.05315,0.02362,0,0,0.000*%
%ADD74R_74*%
%AMR_75*21,1,0.05512,0.02795,0,0,90.000*%
%ADD75R_75*%
%AMR_76*21,1,0.05512,0.05512,0,0,90.000*%
%ADD76R_76*%
%AMR_77*21,1,0.05512,0.05512,0,0,180.000*%
%ADD77R_77*%
%AMR_78*21,1,0.05512,0.05512,0,0,270.000*%
%ADD78R_78*%
%AMR_79*21,1,0.05600,0.01400,0,0,0.000*%
%ADD79R_79*%
%AMR_80*21,1,0.05709,0.02953,0,0,0.000*%
%ADD80R_80*%
%AMR_81*21,1,0.06299,0.05512,0,0,0.000*%
%ADD81R_81*%
%AMR_82*21,1,0.06299,0.05512,0,0,180.000*%
%ADD82R_82*%
%AMR_83*21,1,0.06299,0.06299,0,0,0.000*%
%ADD83R_83*%
%AMR_84*21,1,0.06299,0.07087,0,0,180.000*%
%ADD84R_84*%
%AMR_85*21,1,0.06299,0.07087,0,0,270.000*%
%ADD85R_85*%
%AMR_86*21,1,0.06693,0.02953,0,0,0.000*%
%ADD86R_86*%
%AMR_87*21,1,0.07087,0.11811,0,0,0.000*%
%ADD87R_87*%
%AMR_88*21,1,0.07087,0.14173,0,0,90.000*%
%ADD88R_88*%
%AMR_89*21,1,0.07200,0.00600,0,0,0.000*%
%ADD89R_89*%
%AMR_90*21,1,0.07874,0.06299,0,0,90.000*%
%ADD90R_90*%
%AMR_91*21,1,0.08661,0.04724,0,0,90.000*%
%ADD91R_91*%
%AMR_92*21,1,0.10625,0.01875,0,0,0.000*%
%ADD92R_92*%
%AMR_93*21,1,0.19685,0.19685,0,0,0.000*%
%ADD93R_93*%
%AMRR_94*21,1,0.03937,0.01260,0,0,0.000*21,1,0.03622,0.01575,0,0,0.000*1,1,0.00315,0.01811,0.00630*1,1,0.00315,-0.01811,-0.00630*1,1,0.00315,0.01811,-0.00630*1,1,0.00315,-0.01811,0.00630*%
%ADD94RR_94*%
G54D24*
X211718Y113776D02*
X211496Y113858D01*
X209773Y114493D01*
X207726Y114493D01*
X205781Y113776D02*
X206003Y113858D01*
X207726Y114493D01*
X204348Y112343D02*
X204445Y112441D01*
X205154Y113150D01*
X205781Y113776D01*
X203631Y110398D02*
X203861Y111024D01*
X204122Y111732D01*
X204348Y112343D01*
X203631Y108351D02*
X203631Y108898D01*
X203631Y109606D01*
X203631Y110315D01*
X203631Y110398D01*
X204348Y106406D02*
X204213Y106772D01*
X203952Y107480D01*
X203691Y108189D01*
X203631Y108351D01*
X205781Y104973D02*
X205399Y105354D01*
X204690Y106063D01*
X204348Y106406D01*
X207726Y104256D02*
X206668Y104646D01*
X205781Y104973D01*
X207726Y104256D02*
X209773Y104256D01*
X210831Y104646D01*
X211718Y104973D01*
X212100Y105354D01*
X212809Y106063D01*
X213151Y106406D01*
X213286Y106772D01*
X213547Y107480D01*
X213808Y108189D01*
X213868Y108351D01*
X213868Y108898D01*
X213868Y109606D01*
X213868Y110315D01*
X213868Y110398D01*
X213638Y111024D01*
X213377Y111732D01*
X213151Y112343D01*
X213054Y112441D01*
X212345Y113150D01*
X211718Y113776D01*
X196056Y111777D02*
X195392Y112441D01*
X194902Y112931D01*
X186972Y112931D01*
X185818Y111777D02*
X186482Y112441D01*
X186972Y112931D01*
X185818Y103847D02*
X185818Y103937D01*
X185818Y104646D01*
X185818Y105354D01*
X185818Y106063D01*
X185818Y106772D01*
X185818Y107480D01*
X185818Y108189D01*
X185818Y108898D01*
X185818Y109606D01*
X185818Y110315D01*
X185818Y111024D01*
X185818Y111732D01*
X185818Y111777D01*
X186972Y102693D02*
X186437Y103228D01*
X185818Y103847D01*
X186972Y102693D02*
X194902Y102693D01*
X195437Y103228D01*
X196056Y103847D01*
X196056Y103937D01*
X196056Y104646D01*
X196056Y105354D01*
X196056Y106063D01*
X196056Y106772D01*
X196056Y107480D01*
X196056Y108189D01*
X196056Y108898D01*
X196056Y109606D01*
X196056Y110315D01*
X196056Y111024D01*
X196056Y111732D01*
X196056Y111777D01*
X142069Y96952D02*
X141581Y97440D01*
X143416Y96456D02*
X142345Y96850D01*
X142069Y96952D01*
X143416Y96456D02*
X143461Y96456D01*
X134462Y87456D02*
X134643Y87638D01*
X135352Y88346D01*
X136060Y89055D01*
X136769Y89764D01*
X137478Y90472D01*
X138186Y91181D01*
X138895Y91890D01*
X139604Y92598D01*
X140312Y93307D01*
X141021Y94016D01*
X141730Y94724D01*
X142438Y95433D01*
X143147Y96142D01*
X143461Y96456D01*
X134462Y87456D02*
X133970Y87638D01*
X133208Y87918D01*
X131791Y87918D01*
X130444Y87422D02*
X131029Y87638D01*
X131791Y87918D01*
X129956Y86934D02*
X130444Y87422D01*
X129956Y86934D02*
X127689Y86934D01*
X125814Y85059D02*
X126267Y85512D01*
X126976Y86220D01*
X127684Y86929D01*
X127689Y86934D01*
X125814Y85059D02*
X72064Y85059D01*
X70391Y83386D02*
X71100Y84094D01*
X71808Y84803D01*
X72064Y85059D01*
X70349Y83344D02*
X70391Y83386D01*
X70349Y83344D02*
X70349Y83386D01*
X70349Y84094D01*
X70349Y84803D01*
X70349Y85512D01*
X70349Y86220D01*
X70349Y86929D01*
X70349Y87638D01*
X70349Y88346D01*
X70349Y88571D01*
X69865Y89055D01*
X69196Y89724D01*
X68184Y89724D01*
X68184Y89764D01*
X68184Y90472D01*
X68184Y91181D01*
X68184Y91890D01*
X68184Y92598D01*
X68184Y93307D01*
X68184Y94016D01*
X68184Y94724D01*
X68184Y95433D01*
X68184Y96142D01*
X68184Y96850D01*
X68184Y97440D01*
X97440Y97440D01*
X97440Y91918D02*
X97440Y92598D01*
X97440Y93307D01*
X97440Y94016D01*
X97440Y94724D01*
X97440Y95433D01*
X97440Y96142D01*
X97440Y96850D01*
X97440Y97440D01*
X96952Y91430D02*
X97412Y91890D01*
X97440Y91918D01*
X96456Y90083D02*
X96599Y90472D01*
X96860Y91181D01*
X96952Y91430D01*
X96456Y88666D02*
X96456Y89055D01*
X96456Y89764D01*
X96456Y90083D01*
X96952Y87319D02*
X96835Y87638D01*
X96573Y88346D01*
X96456Y88666D01*
X97944Y86327D02*
X97342Y86929D01*
X96952Y87319D01*
X99291Y85831D02*
X98233Y86220D01*
X97944Y86327D01*
X99291Y85831D02*
X100708Y85831D01*
X101766Y86220D01*
X102055Y86327D01*
X102657Y86929D01*
X103047Y87319D01*
X103164Y87638D01*
X103426Y88346D01*
X103543Y88666D01*
X103543Y89055D01*
X103543Y89764D01*
X103543Y90083D01*
X103400Y90472D01*
X103139Y91181D01*
X103047Y91430D01*
X102587Y91890D01*
X102559Y91918D01*
X102559Y92598D01*
X102559Y93307D01*
X102559Y94016D01*
X102559Y94724D01*
X102559Y95433D01*
X102559Y96142D01*
X102559Y96850D01*
X102559Y97440D01*
X103081Y97440D01*
X103569Y96952D02*
X103081Y97440D01*
X104916Y96456D02*
X103845Y96850D01*
X103569Y96952D01*
X104916Y96456D02*
X106333Y96456D01*
X107404Y96850D01*
X107680Y96952D01*
X108168Y97440D01*
X141581Y97440D01*
X220078Y1181D02*
X220078Y1890D01*
X220078Y2598D01*
X220078Y3307D01*
X220078Y4016D01*
X220078Y4724D01*
X220078Y5433D01*
X220078Y6142D01*
X220078Y6850D01*
X220078Y7559D01*
X220078Y8268D01*
X220078Y8976D01*
X220078Y9685D01*
X220078Y10394D01*
X220078Y11102D01*
X220078Y11811D01*
X220078Y12520D01*
X220078Y13228D01*
X220078Y13937D01*
X220078Y14646D01*
X220078Y15354D01*
X220078Y16063D01*
X220078Y16772D01*
X220078Y17480D01*
X220078Y18189D01*
X220078Y18898D01*
X220078Y19606D01*
X220078Y20315D01*
X220078Y21024D01*
X220078Y21732D01*
X220078Y22441D01*
X220078Y23150D01*
X220078Y23858D01*
X220078Y24567D01*
X220078Y25275D01*
X220078Y25984D01*
X220078Y26693D01*
X220078Y27401D01*
X220078Y28110D01*
X220078Y28819D01*
X220078Y29527D01*
X220078Y30236D01*
X220078Y30945D01*
X220078Y31653D01*
X220078Y32362D01*
X220078Y33071D01*
X220078Y33779D01*
X220078Y34488D01*
X220078Y35197D01*
X220078Y35905D01*
X220078Y36614D01*
X220078Y37323D01*
X220078Y38031D01*
X220078Y38740D01*
X220078Y39449D01*
X220078Y40157D01*
X220078Y40866D01*
X220078Y41575D01*
X220078Y42283D01*
X220078Y42992D01*
X220078Y43701D01*
X220078Y44409D01*
X220078Y45118D01*
X220078Y45827D01*
X220078Y46535D01*
X220078Y47244D01*
X220078Y47953D01*
X220078Y48661D01*
X220078Y49370D01*
X220078Y50079D01*
X220078Y50787D01*
X220078Y51496D01*
X220078Y52205D01*
X220078Y52913D01*
X220078Y53622D01*
X220078Y54331D01*
X220078Y55039D01*
X220078Y55748D01*
X220078Y56457D01*
X220078Y57165D01*
X220078Y57874D01*
X220078Y58583D01*
X220078Y59291D01*
X220078Y60000D01*
X220078Y60709D01*
X220078Y61417D01*
X220078Y62126D01*
X220078Y62835D01*
X220078Y63543D01*
X220078Y64252D01*
X220078Y64961D01*
X220078Y65669D01*
X220078Y66378D01*
X220078Y67087D01*
X220078Y67795D01*
X220078Y68504D01*
X220078Y69212D01*
X220078Y69921D01*
X220078Y70630D01*
X220078Y71338D01*
X220078Y72047D01*
X220078Y72756D01*
X220078Y73464D01*
X220078Y74173D01*
X220078Y74882D01*
X220078Y75590D01*
X220078Y76299D01*
X220078Y77008D01*
X220078Y77716D01*
X220078Y78425D01*
X220078Y79134D01*
X220078Y79842D01*
X220078Y80551D01*
X220078Y81260D01*
X220078Y81968D01*
X220078Y82677D01*
X220078Y83386D01*
X220078Y84094D01*
X220078Y84803D01*
X220078Y85512D01*
X220078Y86220D01*
X220078Y86929D01*
X220078Y87638D01*
X220078Y88346D01*
X220078Y89055D01*
X220078Y89764D01*
X220078Y90472D01*
X220078Y91181D01*
X220078Y91890D01*
X220078Y92598D01*
X220078Y93307D01*
X220078Y94016D01*
X220078Y94724D01*
X220078Y95433D01*
X220078Y96142D01*
X220078Y96850D01*
X220078Y97559D01*
X220078Y98268D01*
X220078Y98976D01*
X220078Y99685D01*
X220078Y100394D01*
X220078Y101102D01*
X220078Y101811D01*
X220078Y102520D01*
X220078Y103228D01*
X220078Y103937D01*
X220078Y104646D01*
X220078Y105354D01*
X220078Y106063D01*
X220078Y106772D01*
X220078Y107480D01*
X220078Y108189D01*
X220078Y108898D01*
X220078Y109606D01*
X220078Y110315D01*
X220078Y111024D01*
X220078Y111732D01*
X220078Y112441D01*
X220078Y113150D01*
X220078Y113858D01*
X220078Y114566D01*
X220078Y1181D02*
X1181Y1181D01*
X1181Y1890D01*
X1181Y2598D01*
X1181Y3307D01*
X1181Y4016D01*
X1181Y4724D01*
X1181Y5433D01*
X1181Y6142D01*
X1181Y6850D01*
X1181Y7559D01*
X1181Y8268D01*
X1181Y8976D01*
X1181Y9685D01*
X1181Y10394D01*
X1181Y11102D01*
X1181Y11811D01*
X1181Y12520D01*
X1181Y13228D01*
X1181Y13937D01*
X1181Y14646D01*
X1181Y15354D01*
X1181Y16063D01*
X1181Y16772D01*
X1181Y17480D01*
X1181Y18189D01*
X1181Y18898D01*
X1181Y19606D01*
X1181Y20315D01*
X1181Y21024D01*
X1181Y21732D01*
X1181Y22441D01*
X1181Y23150D01*
X1181Y23858D01*
X1181Y24567D01*
X1181Y25275D01*
X1181Y25984D01*
X1181Y26693D01*
X1181Y27401D01*
X1181Y28110D01*
X1181Y28819D01*
X1181Y29527D01*
X1181Y30236D01*
X1181Y30945D01*
X1181Y31653D01*
X1181Y32362D01*
X1181Y33071D01*
X1181Y33779D01*
X1181Y34488D01*
X1181Y35197D01*
X1181Y35905D01*
X1181Y36614D01*
X1181Y37323D01*
X1181Y38031D01*
X1181Y38740D01*
X1181Y39000D01*
X4606Y39000D01*
X3605Y38000D02*
X3637Y38031D01*
X4346Y38740D01*
X4606Y39000D01*
X2972Y36279D02*
X3095Y36614D01*
X3356Y37323D01*
X3605Y38000D01*
X2972Y34468D02*
X2972Y34488D01*
X2972Y35197D01*
X2972Y35625D02*
X2972Y35905D01*
X2972Y36279D01*
X3605Y32747D02*
X3486Y33071D01*
X3225Y33779D01*
X2972Y34468D01*
X4873Y31479D02*
X4699Y31653D01*
X3991Y32362D01*
X3605Y32747D01*
X4990Y31437D02*
X4873Y31479D01*
X4873Y31394D02*
X4990Y31437D01*
X3605Y30126D02*
X3716Y30236D01*
X4425Y30945D01*
X4873Y31394D01*
X2972Y28405D02*
X3124Y28819D01*
X3385Y29527D01*
X3605Y30126D01*
X2972Y26594D02*
X2972Y26693D01*
X2972Y27401D01*
X2972Y28110D01*
X2972Y28405D01*
X3605Y24873D02*
X3457Y25275D01*
X3196Y25984D01*
X2972Y26594D01*
X4873Y23605D02*
X4621Y23858D01*
X3912Y24567D01*
X3605Y24873D01*
X4990Y23562D02*
X4873Y23605D01*
X4873Y23520D02*
X4990Y23562D01*
X3605Y22252D02*
X3795Y22441D01*
X4503Y23150D01*
X4873Y23520D01*
X2972Y20531D02*
X3153Y21024D01*
X3414Y21732D01*
X3605Y22252D01*
X2972Y18720D02*
X2972Y18898D01*
X2972Y19606D01*
X2972Y20315D01*
X2972Y20531D01*
X3605Y16999D02*
X3428Y17480D01*
X3167Y18189D01*
X2972Y18720D01*
X4873Y15731D02*
X4542Y16063D01*
X3833Y16772D01*
X3605Y16999D01*
X4940Y15707D02*
X4873Y15731D01*
X4940Y10394D02*
X4940Y11102D01*
X4940Y11811D01*
X4940Y12520D01*
X4940Y13228D01*
X4940Y13937D01*
X4940Y14646D01*
X4940Y15354D01*
X4940Y15707D01*
X4940Y8939D02*
X4940Y8976D01*
X4940Y9685D01*
X4940Y10394D01*
X5831Y8049D02*
X5612Y8268D01*
X4940Y8939D01*
X5831Y7416D02*
X5831Y7559D01*
X5831Y8049D01*
X6327Y6069D02*
X6300Y6142D01*
X6039Y6850D01*
X5831Y7416D01*
X7319Y5077D02*
X6963Y5433D01*
X6327Y6069D01*
X8666Y4581D02*
X8276Y4724D01*
X7319Y5077D01*
X8666Y4581D02*
X10083Y4581D01*
X10473Y4724D01*
X11430Y5077D01*
X11786Y5433D01*
X12422Y6069D01*
X12449Y6142D01*
X12710Y6850D01*
X12918Y7416D01*
X12918Y7559D01*
X12918Y8268D01*
X12918Y8400D01*
X19196Y8400D01*
X19773Y8976D01*
X20349Y9553D01*
X20349Y9685D01*
X20349Y10394D01*
X20349Y11102D01*
X20349Y11811D01*
X20349Y12520D01*
X20349Y13228D01*
X20349Y13937D01*
X20349Y14646D01*
X20349Y15354D01*
X20349Y16063D01*
X20349Y16696D01*
X20274Y16772D01*
X19565Y17480D01*
X19196Y17849D01*
X15844Y17849D01*
X16183Y18189D01*
X16892Y18898D01*
X17601Y19606D01*
X18184Y20189D01*
X18184Y20315D01*
X18184Y21024D01*
X18184Y21732D01*
X18184Y22441D01*
X18184Y23150D01*
X18184Y23858D01*
X18184Y24567D01*
X18184Y25275D01*
X18184Y25984D01*
X18184Y26693D01*
X18184Y27401D01*
X18184Y28110D01*
X18184Y28819D01*
X18184Y29527D01*
X18184Y30236D01*
X18184Y30945D01*
X18184Y31653D01*
X18184Y32362D01*
X18184Y33071D01*
X18184Y33690D01*
X25695Y33690D01*
X23659Y31653D02*
X24367Y32362D01*
X25076Y33071D01*
X25695Y33690D01*
X22424Y30418D02*
X22950Y30945D01*
X23659Y31653D01*
X22424Y30418D02*
X21791Y30418D01*
X20444Y29922D02*
X21297Y30236D01*
X21791Y30418D01*
X19452Y28930D02*
X20050Y29527D01*
X20444Y29922D01*
X18956Y27583D02*
X19150Y28110D01*
X19411Y28819D01*
X19452Y28930D01*
X18956Y26166D02*
X18956Y26693D01*
X18956Y27401D01*
X18956Y27583D01*
X19452Y24819D02*
X19284Y25275D01*
X19023Y25984D01*
X18956Y26166D01*
X20444Y23827D02*
X20413Y23858D01*
X19704Y24567D01*
X19452Y24819D01*
X21791Y23331D02*
X20444Y23827D01*
X21791Y23331D02*
X23208Y23331D01*
X24555Y23827D01*
X24586Y23858D01*
X25295Y24567D01*
X25547Y24819D01*
X25715Y25275D01*
X25976Y25984D01*
X26043Y26166D01*
X26043Y26693D01*
X26043Y26799D01*
X26646Y27401D01*
X27355Y28110D01*
X27935Y28690D01*
X62064Y28690D01*
X63065Y27689D02*
X62644Y28110D01*
X62064Y28690D01*
X63065Y17849D02*
X63065Y18189D01*
X63065Y18898D01*
X63065Y19606D01*
X63065Y20315D01*
X63065Y21024D01*
X63065Y21732D01*
X63065Y22441D01*
X63065Y23150D01*
X63065Y23858D01*
X63065Y24567D01*
X63065Y25275D01*
X63065Y25984D01*
X63065Y26693D01*
X63065Y27401D01*
X63065Y27689D01*
X63065Y17849D02*
X62053Y17849D01*
X60900Y16696D02*
X60975Y16772D01*
X61684Y17480D01*
X62053Y17849D01*
X60900Y9553D02*
X60900Y9685D01*
X60900Y10394D01*
X60900Y11102D01*
X60900Y11811D01*
X60900Y12520D01*
X60900Y13228D01*
X60900Y13937D01*
X60900Y14646D01*
X60900Y15354D01*
X60900Y16063D01*
X60900Y16696D01*
X61644Y8809D02*
X61476Y8976D01*
X60900Y9553D01*
X61644Y8809D02*
X59605Y8809D01*
X59773Y8976D01*
X60349Y9553D01*
X60349Y9685D01*
X60349Y10394D01*
X60349Y11102D01*
X60349Y11811D01*
X60349Y12520D01*
X60349Y13228D01*
X60349Y13937D01*
X60349Y14646D01*
X60349Y15354D01*
X60349Y16063D01*
X60349Y16696D01*
X60274Y16772D01*
X59565Y17480D01*
X59196Y17849D01*
X52053Y17849D01*
X50900Y16696D02*
X50975Y16772D01*
X51684Y17480D01*
X52053Y17849D01*
X50900Y9553D02*
X50900Y9685D01*
X50900Y10394D01*
X50900Y11102D01*
X50900Y11811D01*
X50900Y12520D01*
X50900Y13228D01*
X50900Y13937D01*
X50900Y14646D01*
X50900Y15354D01*
X50900Y16063D01*
X50900Y16696D01*
X52053Y8400D02*
X51476Y8976D01*
X50900Y9553D01*
X52053Y8400D02*
X53065Y8400D01*
X53065Y6439D02*
X53065Y6850D01*
X53065Y7559D01*
X53065Y8268D01*
X53065Y8400D01*
X54780Y4724D02*
X54071Y5433D01*
X53363Y6142D01*
X53065Y6439D01*
X55814Y3690D02*
X55489Y4016D01*
X54780Y4724D01*
X55814Y3690D02*
X202310Y3690D01*
X202635Y4016D01*
X203344Y4724D01*
X204053Y5433D01*
X204761Y6142D01*
X205470Y6850D01*
X206179Y7559D01*
X206887Y8268D01*
X207596Y8976D01*
X208305Y9685D01*
X209013Y10394D01*
X209119Y10499D01*
X209119Y11102D01*
X209119Y11811D01*
X209119Y12520D01*
X209119Y12554D01*
X209607Y13043D01*
X209676Y13228D01*
X209937Y13937D01*
X210103Y14389D01*
X210103Y14646D01*
X210103Y15354D01*
X210103Y15807D01*
X210009Y16063D01*
X209748Y16772D01*
X209607Y17153D01*
X209280Y17480D01*
X208615Y18146D01*
X208497Y18189D01*
X207268Y18642D01*
X205851Y18642D01*
X204504Y18146D02*
X204622Y18189D01*
X205851Y18642D01*
X203512Y17153D02*
X203839Y17480D01*
X204504Y18146D01*
X203016Y15807D02*
X203110Y16063D01*
X203371Y16772D01*
X203512Y17153D01*
X203016Y14389D02*
X203016Y14646D01*
X203016Y15354D01*
X203016Y15807D01*
X203512Y13043D02*
X203444Y13228D01*
X203182Y13937D01*
X203016Y14389D01*
X203967Y12587D02*
X203512Y13043D01*
X200189Y8809D02*
X200357Y8976D01*
X201065Y9685D01*
X201774Y10394D01*
X202483Y11102D01*
X203191Y11811D01*
X203900Y12520D01*
X203967Y12587D01*
X200189Y8809D02*
X190554Y8809D01*
X190721Y8976D01*
X191430Y9685D01*
X192138Y10394D01*
X192847Y11102D01*
X193371Y11626D01*
X193371Y11811D01*
X193371Y12520D01*
X193371Y12554D01*
X193859Y13043D01*
X193927Y13228D01*
X194189Y13937D01*
X194355Y14389D01*
X194355Y14646D01*
X194355Y15354D01*
X194355Y15807D01*
X194261Y16063D01*
X194000Y16772D01*
X193859Y17153D01*
X193532Y17480D01*
X192867Y18146D01*
X192749Y18189D01*
X191520Y18642D01*
X190103Y18642D01*
X188756Y18146D02*
X188874Y18189D01*
X190103Y18642D01*
X187764Y17153D02*
X188091Y17480D01*
X188756Y18146D01*
X187268Y15807D02*
X187362Y16063D01*
X187623Y16772D01*
X187764Y17153D01*
X187268Y14389D02*
X187268Y14646D01*
X187268Y15354D01*
X187268Y15807D01*
X187482Y13809D02*
X187434Y13937D01*
X187268Y14389D01*
X187482Y13809D02*
X186267Y13809D01*
X186315Y13937D01*
X186481Y14389D01*
X186481Y14646D01*
X186481Y15354D01*
X186481Y15807D01*
X186387Y16063D01*
X186126Y16772D01*
X185985Y17153D01*
X185658Y17480D01*
X185497Y17641D01*
X185497Y18189D01*
X185497Y18898D01*
X185497Y19372D01*
X185262Y19606D01*
X184554Y20315D01*
X184304Y20565D01*
X208939Y20565D01*
X211869Y17636D02*
X211316Y18189D01*
X210607Y18898D01*
X209898Y19606D01*
X209190Y20315D01*
X208939Y20565D01*
X211386Y17153D02*
X211713Y17480D01*
X211869Y17636D01*
X210890Y15807D02*
X210984Y16063D01*
X211245Y16772D01*
X211386Y17153D01*
X210890Y14389D02*
X210890Y14646D01*
X210890Y15354D01*
X210890Y15807D01*
X211386Y13043D02*
X211318Y13228D01*
X211056Y13937D01*
X210890Y14389D01*
X212378Y12050D02*
X211909Y12520D01*
X211386Y13043D01*
X213725Y11554D02*
X213028Y11811D01*
X212378Y12050D01*
X213725Y11554D02*
X215142Y11554D01*
X215839Y11811D01*
X216489Y12050D01*
X216958Y12520D01*
X217481Y13043D01*
X217550Y13228D01*
X217811Y13937D01*
X217977Y14389D01*
X217977Y14646D01*
X217977Y15354D01*
X217977Y15807D01*
X217883Y16063D01*
X217622Y16772D01*
X217481Y17153D01*
X217154Y17480D01*
X216993Y17641D01*
X216993Y18189D01*
X216993Y18898D01*
X216993Y19606D01*
X216993Y19751D01*
X216429Y20315D01*
X215720Y21024D01*
X215011Y21732D01*
X214303Y22441D01*
X213594Y23150D01*
X212885Y23858D01*
X212177Y24567D01*
X211468Y25275D01*
X211060Y25684D01*
X157935Y25684D01*
X157634Y25984D01*
X156926Y26693D01*
X156217Y27401D01*
X155508Y28110D01*
X154800Y28819D01*
X154091Y29527D01*
X153382Y30236D01*
X152674Y30945D01*
X151965Y31653D01*
X151257Y32362D01*
X150548Y33071D01*
X149839Y33779D01*
X149131Y34488D01*
X148422Y35197D01*
X147713Y35905D01*
X147005Y36614D01*
X146296Y37323D01*
X145587Y38031D01*
X144879Y38740D01*
X144170Y39449D01*
X143461Y40157D01*
X142753Y40866D01*
X142044Y41575D01*
X141335Y42283D01*
X140627Y42992D01*
X139918Y43701D01*
X139434Y44185D01*
X139434Y44409D01*
X139434Y45118D01*
X139434Y45827D01*
X139434Y46535D01*
X139434Y47244D01*
X139434Y47953D01*
X139434Y48661D01*
X139434Y49370D01*
X139434Y50079D01*
X139434Y50787D01*
X139434Y51496D01*
X139434Y52205D01*
X139434Y52913D01*
X139434Y53622D01*
X139434Y54331D01*
X139434Y55039D01*
X139434Y55748D01*
X139434Y56457D01*
X139434Y57165D01*
X139434Y57874D01*
X139434Y58560D01*
X139411Y58583D01*
X138702Y59291D01*
X137994Y60000D01*
X137285Y60709D01*
X136576Y61417D01*
X135868Y62126D01*
X135159Y62835D01*
X134450Y63543D01*
X133742Y64252D01*
X133033Y64961D01*
X132324Y65669D01*
X131616Y66378D01*
X130907Y67087D01*
X130198Y67795D01*
X129490Y68504D01*
X129395Y68599D01*
X130009Y69212D01*
X130349Y69553D01*
X130349Y69921D01*
X130349Y70630D01*
X130349Y70797D01*
X131069Y70077D02*
X130516Y70630D01*
X130349Y70797D01*
X132416Y69581D02*
X131492Y69921D01*
X131069Y70077D01*
X132416Y69581D02*
X133833Y69581D01*
X134757Y69921D01*
X135180Y70077D01*
X135668Y70565D01*
X137310Y70565D01*
X137374Y70630D01*
X138083Y71338D01*
X138792Y72047D01*
X139500Y72756D01*
X140059Y73314D01*
X140059Y73464D01*
X140059Y74173D01*
X140059Y74882D01*
X140059Y75590D01*
X140059Y76299D01*
X140059Y77008D01*
X140059Y77689D01*
X140086Y77716D01*
X140795Y78425D01*
X141503Y79134D01*
X142212Y79842D01*
X142921Y80551D01*
X143629Y81260D01*
X144338Y81968D01*
X145047Y82677D01*
X145755Y83386D01*
X146464Y84094D01*
X147173Y84803D01*
X147881Y85512D01*
X148590Y86220D01*
X149299Y86929D01*
X150007Y87638D01*
X150716Y88346D01*
X151425Y89055D01*
X152133Y89764D01*
X152842Y90472D01*
X153551Y91181D01*
X154259Y91890D01*
X154968Y92598D01*
X155677Y93307D01*
X155684Y93314D01*
X155684Y94016D01*
X155684Y94724D01*
X155684Y95433D01*
X155684Y96142D01*
X155684Y96815D01*
X159564Y96815D01*
X160238Y96142D02*
X159564Y96815D01*
X161498Y94881D02*
X160946Y95433D01*
X160238Y96142D01*
X161498Y94881D02*
X167500Y94881D01*
X167988Y94393D02*
X167657Y94724D01*
X167500Y94881D01*
X169335Y93897D02*
X169012Y94016D01*
X167988Y94393D01*
X169335Y93897D02*
X170753Y93897D01*
X171075Y94016D01*
X172099Y94393D01*
X172431Y94724D01*
X173091Y95385D01*
X173109Y95433D01*
X173370Y96142D01*
X173587Y96732D01*
X173587Y96850D01*
X173587Y97559D01*
X173587Y98149D01*
X173544Y98268D01*
X173283Y98976D01*
X173091Y99496D01*
X172902Y99685D01*
X172268Y100319D01*
X172268Y100394D01*
X172268Y101102D01*
X172268Y101190D01*
X175435Y101190D01*
X176056Y101811D01*
X176764Y102520D01*
X177473Y103228D01*
X178182Y103937D01*
X178890Y104646D01*
X179599Y105354D01*
X180307Y106063D01*
X181016Y106772D01*
X181725Y107480D01*
X181978Y107734D01*
X181978Y108189D01*
X181978Y108898D01*
X181978Y109606D01*
X181978Y110315D01*
X181978Y110522D01*
X182466Y111010D01*
X182471Y111024D01*
X182732Y111732D01*
X182962Y112357D01*
X182962Y112441D01*
X182962Y113150D01*
X182962Y113774D01*
X182932Y113858D01*
X182671Y114566D01*
X220078Y114566D01*
X216718Y100651D02*
X215495Y101102D01*
X214773Y101368D01*
X212726Y101368D01*
X210781Y100651D02*
X212004Y101102D01*
X212726Y101368D01*
X209348Y99218D02*
X209814Y99685D01*
X210523Y100394D01*
X210781Y100651D01*
X208631Y97273D02*
X208736Y97559D01*
X208997Y98268D01*
X209258Y98976D01*
X209348Y99218D01*
X208631Y95226D02*
X208631Y95433D01*
X208631Y96142D01*
X208631Y96850D01*
X208631Y97273D01*
X209348Y93281D02*
X209338Y93307D01*
X209077Y94016D01*
X208816Y94724D01*
X208631Y95226D01*
X210781Y91848D02*
X210739Y91890D01*
X210030Y92598D01*
X209348Y93281D01*
X212726Y91131D02*
X212590Y91181D01*
X210781Y91848D01*
X212726Y91131D02*
X214773Y91131D01*
X214909Y91181D01*
X216718Y91848D01*
X216760Y91890D01*
X217469Y92598D01*
X218151Y93281D01*
X218161Y93307D01*
X218422Y94016D01*
X218683Y94724D01*
X218868Y95226D01*
X218868Y95433D01*
X218868Y96142D01*
X218868Y96850D01*
X218868Y97273D01*
X218763Y97559D01*
X218502Y98268D01*
X218241Y98976D01*
X218151Y99218D01*
X217685Y99685D01*
X216976Y100394D01*
X216718Y100651D01*
X28065Y77849D02*
X28065Y78425D01*
X28065Y78980D01*
X28065Y77849D02*
X22053Y77849D01*
X20900Y76696D02*
X21212Y77008D01*
X21920Y77716D01*
X22053Y77849D01*
X20900Y69553D02*
X20900Y69921D01*
X20900Y70630D01*
X20900Y71338D01*
X20900Y72047D01*
X20900Y72756D01*
X20900Y73125D02*
X20900Y73464D01*
X20900Y74173D01*
X20900Y74882D01*
X20900Y75590D01*
X20900Y76299D01*
X20900Y76696D01*
X22053Y68400D02*
X21949Y68504D01*
X21240Y69212D01*
X20900Y69553D01*
X25625Y68400D02*
X28065Y68400D01*
X28065Y67935D02*
X28065Y68400D01*
X13065Y52935D02*
X13752Y53622D01*
X14461Y54331D01*
X15170Y55039D01*
X15878Y55748D01*
X16587Y56457D01*
X17296Y57165D01*
X18004Y57874D01*
X18713Y58583D01*
X19422Y59291D01*
X20130Y60000D01*
X20839Y60709D01*
X21548Y61417D01*
X22256Y62126D01*
X22965Y62835D01*
X23674Y63543D01*
X24382Y64252D01*
X25091Y64961D01*
X25800Y65669D01*
X26508Y66378D01*
X27217Y67087D01*
X27926Y67795D01*
X28065Y67935D01*
X13065Y50787D02*
X13065Y51496D01*
X13065Y52205D01*
X13065Y52913D01*
X13065Y52935D01*
X13065Y50043D02*
X13065Y50079D01*
X13065Y50787D01*
X12577Y49555D02*
X13065Y50043D01*
X12081Y48208D02*
X12248Y48661D01*
X12509Y49370D01*
X12577Y49555D01*
X12081Y46791D02*
X12081Y47244D01*
X12081Y47953D01*
X12081Y48208D01*
X12577Y45444D02*
X12436Y45827D01*
X12175Y46535D01*
X12081Y46791D01*
X13065Y44956D02*
X12903Y45118D01*
X12577Y45444D01*
X13065Y36614D02*
X13065Y37323D01*
X13065Y38031D01*
X13065Y38740D01*
X13065Y39449D01*
X13065Y40157D01*
X13065Y40866D01*
X13065Y41575D01*
X13065Y42283D01*
X13065Y42992D01*
X13065Y43701D01*
X13065Y44409D01*
X13065Y44956D01*
X13065Y34488D02*
X13065Y35197D01*
X13065Y35905D01*
X13065Y36614D01*
X13065Y22310D02*
X13065Y22441D01*
X13065Y23150D01*
X13065Y23858D01*
X13065Y24567D01*
X13065Y25275D01*
X13065Y25984D01*
X13065Y26693D01*
X13065Y27401D01*
X13065Y28110D01*
X13065Y28819D01*
X13065Y29527D01*
X13065Y30236D01*
X13065Y30945D01*
X13065Y31653D01*
X13065Y32362D01*
X13065Y33071D01*
X13065Y33779D01*
X13065Y34488D01*
X12940Y22185D02*
X13065Y22310D01*
X12940Y22185D02*
X11418Y22185D01*
X11394Y22252D01*
X11204Y22441D01*
X10496Y23150D01*
X10126Y23520D01*
X10009Y23562D01*
X10126Y23605D01*
X10378Y23858D01*
X11087Y24567D01*
X11394Y24873D01*
X11542Y25275D01*
X11803Y25984D01*
X12027Y26594D01*
X12027Y26693D01*
X12027Y27401D01*
X12027Y28110D01*
X12027Y28405D01*
X11875Y28819D01*
X11614Y29527D01*
X11394Y30126D01*
X11283Y30236D01*
X10574Y30945D01*
X10126Y31394D01*
X10009Y31437D01*
X10126Y31479D01*
X10300Y31653D01*
X11008Y32362D01*
X11394Y32747D01*
X11513Y33071D01*
X11774Y33779D01*
X12027Y34468D01*
X12027Y34488D01*
X12027Y35197D01*
X12027Y35374D02*
X12027Y35905D01*
X12027Y36279D01*
X11904Y36614D01*
X11643Y37323D01*
X11394Y38000D01*
X11362Y38031D01*
X10653Y38740D01*
X10126Y39268D01*
X9760Y39402D01*
X9807Y39449D01*
X10512Y40153D01*
X10512Y40157D01*
X10512Y40866D01*
X10512Y41575D01*
X10512Y42283D01*
X10512Y42992D01*
X10512Y43701D01*
X10512Y44409D01*
X10512Y45118D01*
X10512Y45827D01*
X10512Y46535D01*
X10512Y47244D01*
X10512Y47953D01*
X10512Y48661D01*
X10512Y49370D01*
X10512Y50079D01*
X10512Y50787D01*
X10512Y51496D01*
X10512Y52205D01*
X10512Y52913D01*
X10512Y53596D01*
X10485Y53622D01*
X9777Y54331D01*
X9358Y54749D01*
X1181Y54749D01*
X1181Y55039D01*
X1181Y55748D01*
X1181Y56457D01*
X1181Y57165D01*
X1181Y57874D01*
X1181Y58583D01*
X1181Y59000D01*
X5000Y59000D02*
X9358Y59000D01*
X9649Y59291D01*
X10358Y60000D01*
X10512Y60153D01*
X10512Y60709D01*
X10512Y61417D01*
X10512Y62126D01*
X10512Y62835D01*
X10512Y63543D01*
X10512Y64252D01*
X10512Y64961D01*
X10512Y65669D01*
X10512Y66378D01*
X10512Y66875D02*
X10512Y67087D01*
X10512Y67795D01*
X10512Y68504D01*
X10512Y69212D01*
X10512Y69921D01*
X10512Y70630D01*
X10512Y71338D01*
X10512Y72047D01*
X10512Y72756D01*
X10512Y73464D01*
X10512Y73596D01*
X9934Y74173D01*
X9358Y74749D01*
X5000Y74749D02*
X1181Y74749D01*
X1181Y74882D01*
X1181Y75590D01*
X1181Y76299D01*
X1181Y77008D01*
X1181Y77716D01*
X1181Y78425D01*
X1181Y78980D01*
X13065Y78980D01*
X13065Y77849D02*
X13065Y78425D01*
X13065Y78980D01*
X13065Y77849D02*
X12053Y77849D01*
X10900Y76696D02*
X11212Y77008D01*
X11920Y77716D01*
X12053Y77849D01*
X10900Y69553D02*
X10900Y69921D01*
X10900Y70630D01*
X10900Y71338D01*
X10900Y72047D01*
X10900Y72756D01*
X10900Y73464D01*
X10900Y74173D01*
X10900Y74882D01*
X10900Y75590D01*
X10900Y76299D01*
X10900Y76696D01*
X12053Y68400D02*
X11949Y68504D01*
X11240Y69212D01*
X10900Y69553D01*
X12053Y68400D02*
X19196Y68400D01*
X19300Y68504D01*
X20009Y69212D01*
X20349Y69553D01*
X20349Y69921D01*
X20349Y70630D01*
X20349Y71338D01*
X20349Y72047D01*
X20349Y72756D01*
X20349Y73464D01*
X20349Y74173D01*
X20349Y74882D01*
X20349Y75590D01*
X20349Y76299D01*
X20349Y76696D01*
X20037Y77008D01*
X19329Y77716D01*
X19196Y77849D01*
X18184Y77849D01*
X18184Y78425D01*
X18184Y78980D01*
X28065Y78980D01*
X86730Y77849D02*
X87305Y78425D01*
X88014Y79134D01*
X88723Y79842D01*
X88820Y79940D01*
X86730Y77849D02*
X82053Y77849D01*
X80900Y76696D02*
X81212Y77008D01*
X81920Y77716D01*
X82053Y77849D01*
X80900Y69553D02*
X80900Y69921D01*
X80900Y70630D01*
X80900Y71338D01*
X80900Y72047D01*
X80900Y72756D01*
X80900Y73464D01*
X80900Y74173D01*
X80900Y74882D01*
X80900Y75590D01*
X80900Y76299D01*
X80900Y76696D01*
X82053Y68400D02*
X81949Y68504D01*
X81240Y69212D01*
X80900Y69553D01*
X82053Y68400D02*
X89196Y68400D01*
X89300Y68504D01*
X90009Y69212D01*
X90349Y69553D01*
X90349Y69921D01*
X90349Y70630D01*
X90349Y71338D01*
X90349Y72047D01*
X90349Y72756D01*
X90349Y73464D01*
X90349Y74173D01*
X90349Y74230D01*
X90900Y74780D01*
X90900Y69553D02*
X90900Y69921D01*
X90900Y70630D01*
X90900Y71338D01*
X90900Y72047D01*
X90900Y72756D01*
X90900Y73464D01*
X90900Y74173D01*
X90900Y74780D01*
X92053Y68400D02*
X91949Y68504D01*
X91240Y69212D01*
X90900Y69553D01*
X92053Y68400D02*
X96730Y68400D01*
X101586Y63543D02*
X100878Y64252D01*
X100169Y64961D01*
X99460Y65669D01*
X98752Y66378D01*
X98043Y67087D01*
X97334Y67795D01*
X96730Y68400D01*
X102689Y62440D02*
X102295Y62835D01*
X101586Y63543D01*
X102689Y62440D02*
X113314Y62440D01*
X124315Y51439D02*
X124258Y51496D01*
X123550Y52205D01*
X122841Y52913D01*
X122132Y53622D01*
X121424Y54331D01*
X120715Y55039D01*
X120006Y55748D01*
X119298Y56457D01*
X118589Y57165D01*
X117880Y57874D01*
X117172Y58583D01*
X116463Y59291D01*
X115755Y60000D01*
X115046Y60709D01*
X114337Y61417D01*
X113629Y62126D01*
X113314Y62440D01*
X124315Y47559D02*
X124315Y47953D01*
X124315Y48661D01*
X124315Y49370D01*
X124315Y50079D01*
X124315Y50787D01*
X124315Y51439D01*
X124315Y47559D02*
X108793Y47559D01*
X108399Y47953D01*
X108305Y48047D01*
X106958Y48543D01*
X105541Y48543D01*
X104194Y48047D02*
X105541Y48543D01*
X103202Y47055D02*
X103391Y47244D01*
X104100Y47953D01*
X104194Y48047D01*
X102706Y45708D02*
X102749Y45827D01*
X103011Y46535D01*
X103202Y47055D01*
X102706Y44291D02*
X102706Y44409D01*
X102706Y45118D01*
X102706Y45708D01*
X103202Y42944D02*
X103184Y42992D01*
X102923Y43701D01*
X102706Y44291D01*
X104194Y41952D02*
X103863Y42283D01*
X103202Y42944D01*
X105541Y41456D02*
X105218Y41575D01*
X104194Y41952D01*
X105541Y41456D02*
X106958Y41456D01*
X107281Y41575D01*
X108305Y41952D01*
X108636Y42283D01*
X108793Y42440D01*
X124315Y42440D01*
X124315Y30945D02*
X124315Y31653D01*
X124315Y32362D01*
X124315Y33071D01*
X124315Y33779D01*
X124315Y34488D01*
X124315Y35197D01*
X124315Y35905D01*
X124315Y36614D01*
X124315Y37323D01*
X124315Y38031D01*
X124315Y38740D01*
X124315Y39449D01*
X124315Y40157D01*
X124315Y40866D01*
X124315Y41575D01*
X124315Y42283D01*
X124315Y42440D01*
X124315Y28939D02*
X124315Y29527D01*
X124315Y30236D01*
X124315Y30945D01*
X125206Y28049D02*
X125144Y28110D01*
X124436Y28819D01*
X124315Y28939D01*
X125206Y27416D02*
X125206Y28049D01*
X125702Y26069D02*
X125472Y26693D01*
X125211Y27401D01*
X125206Y27416D01*
X126694Y25077D02*
X126496Y25275D01*
X125787Y25984D01*
X125702Y26069D01*
X128041Y24581D02*
X126694Y25077D01*
X128041Y24581D02*
X129458Y24581D01*
X130805Y25077D01*
X131003Y25275D01*
X131712Y25984D01*
X131797Y26069D01*
X132027Y26693D01*
X132070Y26810D01*
X149194Y9685D02*
X148486Y10394D01*
X147777Y11102D01*
X147068Y11811D01*
X146360Y12520D01*
X145651Y13228D01*
X144942Y13937D01*
X144234Y14646D01*
X143525Y15354D01*
X142817Y16063D01*
X142108Y16772D01*
X141399Y17480D01*
X140691Y18189D01*
X139982Y18898D01*
X139273Y19606D01*
X138565Y20315D01*
X137856Y21024D01*
X137147Y21732D01*
X136439Y22441D01*
X135730Y23150D01*
X135021Y23858D01*
X134313Y24567D01*
X133604Y25275D01*
X132895Y25984D01*
X132187Y26693D01*
X132070Y26810D01*
X150070Y8809D02*
X149903Y8976D01*
X149194Y9685D01*
X150070Y8809D02*
X129605Y8809D01*
X129773Y8976D01*
X130349Y9553D01*
X130349Y9685D01*
X130349Y10394D01*
X130349Y11102D01*
X130349Y11811D01*
X130349Y12520D01*
X130349Y13228D01*
X130349Y13937D01*
X130349Y14646D01*
X130349Y15354D01*
X130349Y16063D01*
X130349Y16696D01*
X130274Y16772D01*
X129565Y17480D01*
X129196Y17849D01*
X122053Y17849D01*
X120900Y16696D02*
X120975Y16772D01*
X121684Y17480D01*
X122053Y17849D01*
X120900Y9553D02*
X120900Y9685D01*
X120900Y10394D01*
X120900Y11102D01*
X120900Y11811D01*
X120900Y12520D01*
X120900Y13228D01*
X120900Y13937D01*
X120900Y14646D01*
X120900Y15354D01*
X120900Y16063D01*
X120900Y16696D01*
X121644Y8809D02*
X121476Y8976D01*
X120900Y9553D01*
X121644Y8809D02*
X119605Y8809D01*
X119773Y8976D01*
X120349Y9553D01*
X120349Y9685D01*
X120349Y10394D01*
X120349Y11102D01*
X120349Y11811D01*
X120349Y12520D01*
X120349Y13228D01*
X120349Y13937D01*
X120349Y14646D01*
X120349Y15354D01*
X120349Y16063D01*
X120349Y16696D01*
X120274Y16772D01*
X119565Y17480D01*
X119196Y17849D01*
X112053Y17849D01*
X110900Y16696D02*
X110975Y16772D01*
X111684Y17480D01*
X112053Y17849D01*
X110900Y9553D02*
X110900Y9685D01*
X110900Y10394D01*
X110900Y11102D01*
X110900Y11811D01*
X110900Y12520D01*
X110900Y13228D01*
X110900Y13937D01*
X110900Y14646D01*
X110900Y15354D01*
X110900Y16063D01*
X110900Y16696D01*
X111644Y8809D02*
X111476Y8976D01*
X110900Y9553D01*
X111644Y8809D02*
X109605Y8809D01*
X109773Y8976D01*
X110349Y9553D01*
X110349Y9685D01*
X110349Y10394D01*
X110349Y11102D01*
X110349Y11811D01*
X110349Y12520D01*
X110349Y13228D01*
X110349Y13937D01*
X110349Y14646D01*
X110349Y15354D01*
X110349Y16063D01*
X110349Y16696D01*
X110274Y16772D01*
X109565Y17480D01*
X109196Y17849D01*
X102053Y17849D01*
X100900Y16696D02*
X100975Y16772D01*
X101684Y17480D01*
X102053Y17849D01*
X100900Y9553D02*
X100900Y9685D01*
X100900Y10394D01*
X100900Y11102D01*
X100900Y11811D01*
X100900Y12520D01*
X100900Y13228D01*
X100900Y13937D01*
X100900Y14646D01*
X100900Y15354D01*
X100900Y16063D01*
X100900Y16696D01*
X101644Y8809D02*
X101476Y8976D01*
X100900Y9553D01*
X101644Y8809D02*
X99605Y8809D01*
X99773Y8976D01*
X100349Y9553D01*
X100349Y9685D01*
X100349Y10394D01*
X100349Y11102D01*
X100349Y11811D01*
X100349Y12520D01*
X100349Y13228D01*
X100349Y13937D01*
X100349Y14646D01*
X100349Y15354D01*
X100349Y16063D01*
X100349Y16696D01*
X100274Y16772D01*
X99565Y17480D01*
X99196Y17849D01*
X92053Y17849D01*
X90900Y16696D02*
X90975Y16772D01*
X91684Y17480D01*
X92053Y17849D01*
X90900Y9553D02*
X90900Y9685D01*
X90900Y10394D01*
X90900Y11102D01*
X90900Y11811D01*
X90900Y12520D01*
X90900Y13228D01*
X90900Y13937D01*
X90900Y14646D01*
X90900Y15354D01*
X90900Y16063D01*
X90900Y16696D01*
X91644Y8809D02*
X91476Y8976D01*
X90900Y9553D01*
X91644Y8809D02*
X89605Y8809D01*
X89773Y8976D01*
X90349Y9553D01*
X90349Y9685D01*
X90349Y10394D01*
X90349Y11102D01*
X90349Y11811D01*
X90349Y12520D01*
X90349Y13228D01*
X90349Y13937D01*
X90349Y14646D01*
X90349Y15354D01*
X90349Y16063D01*
X90349Y16696D01*
X90274Y16772D01*
X89565Y17480D01*
X89196Y17849D01*
X82053Y17849D01*
X80900Y16696D02*
X80975Y16772D01*
X81684Y17480D01*
X82053Y17849D01*
X80900Y9553D02*
X80900Y9685D01*
X80900Y10394D01*
X80900Y11102D01*
X80900Y11811D01*
X80900Y12520D01*
X80900Y13228D01*
X80900Y13937D01*
X80900Y14646D01*
X80900Y15354D01*
X80900Y16063D01*
X80900Y16696D01*
X81644Y8809D02*
X81476Y8976D01*
X80900Y9553D01*
X81644Y8809D02*
X79605Y8809D01*
X79773Y8976D01*
X80349Y9553D01*
X80349Y9685D01*
X80349Y10394D01*
X80349Y11102D01*
X80349Y11811D01*
X80349Y12520D01*
X80349Y13228D01*
X80349Y13937D01*
X80349Y14646D01*
X80349Y15354D01*
X80349Y16063D01*
X80349Y16696D01*
X80274Y16772D01*
X79565Y17480D01*
X79196Y17849D01*
X78184Y17849D01*
X78184Y18189D01*
X78184Y18898D01*
X78184Y19606D01*
X78184Y20315D01*
X78184Y21024D01*
X78184Y21732D01*
X78184Y22441D01*
X78184Y23150D01*
X78184Y23858D01*
X78184Y24567D01*
X78184Y25275D01*
X78184Y25984D01*
X78184Y26693D01*
X78184Y27401D01*
X78184Y28110D01*
X78184Y28819D01*
X78184Y29527D01*
X78184Y30236D01*
X78184Y30945D01*
X78184Y31653D01*
X78184Y32362D01*
X78184Y32368D01*
X78202Y32319D02*
X78186Y32362D01*
X78184Y32368D01*
X79194Y31327D02*
X78868Y31653D01*
X78202Y32319D01*
X80541Y30831D02*
X80231Y30945D01*
X79194Y31327D01*
X80541Y30831D02*
X81958Y30831D01*
X82268Y30945D01*
X83305Y31327D01*
X83631Y31653D01*
X84297Y32319D01*
X84313Y32362D01*
X84574Y33071D01*
X84793Y33666D01*
X84793Y33779D01*
X84793Y34488D01*
X84793Y35083D01*
X84751Y35197D01*
X84490Y35905D01*
X84297Y36430D01*
X84113Y36614D01*
X83404Y37323D01*
X83305Y37422D01*
X81958Y37918D01*
X81325Y37918D01*
X81212Y38031D01*
X80504Y38740D01*
X79795Y39449D01*
X79086Y40157D01*
X78378Y40866D01*
X77669Y41575D01*
X76960Y42283D01*
X76252Y42992D01*
X75543Y43701D01*
X74834Y44409D01*
X74126Y45118D01*
X73417Y45827D01*
X72708Y46535D01*
X72310Y46934D01*
X57064Y46934D01*
X55248Y45118D02*
X55957Y45827D01*
X56666Y46535D01*
X57064Y46934D01*
X51693Y41562D02*
X51705Y41575D01*
X52414Y42283D01*
X53122Y42992D01*
X53831Y43701D01*
X54540Y44409D01*
X55248Y45118D01*
X51693Y41562D02*
X50043Y41562D01*
X50031Y41575D01*
X49555Y42051D01*
X48923Y42283D01*
X48208Y42547D01*
X46791Y42547D01*
X45444Y42051D02*
X46076Y42283D01*
X46791Y42547D01*
X44452Y41058D02*
X44968Y41575D01*
X45444Y42051D01*
X43956Y39712D02*
X44120Y40157D01*
X44381Y40866D01*
X44452Y41058D01*
X43956Y39079D02*
X43956Y39449D01*
X43956Y39712D01*
X43686Y38809D02*
X43956Y39079D01*
X43686Y38809D02*
X28135Y38809D01*
X28371Y39449D01*
X28543Y39916D01*
X28543Y40157D01*
X28543Y40866D01*
X28543Y41333D01*
X28454Y41575D01*
X28193Y42283D01*
X28047Y42680D01*
X27735Y42992D01*
X27559Y43168D01*
X27559Y43701D01*
X27559Y44409D01*
X27559Y45118D01*
X27559Y45827D01*
X27559Y46535D01*
X27559Y47244D01*
X27559Y47953D01*
X27559Y48661D01*
X27559Y49370D01*
X27559Y49765D01*
X28706Y49765D01*
X29194Y49277D02*
X29101Y49370D01*
X28706Y49765D01*
X30541Y48781D02*
X29194Y49277D01*
X30541Y48781D02*
X31958Y48781D01*
X33305Y49277D01*
X33398Y49370D01*
X34107Y50079D01*
X34297Y50269D01*
X34488Y50787D01*
X34749Y51496D01*
X34793Y51616D01*
X34793Y52101D01*
X36232Y50663D02*
X36107Y50787D01*
X35398Y51496D01*
X34793Y52101D01*
X38700Y49753D02*
X37816Y50079D01*
X36232Y50663D01*
X38700Y49753D02*
X41299Y49753D01*
X42183Y50079D01*
X43767Y50663D01*
X43892Y50787D01*
X44601Y51496D01*
X45310Y52205D01*
X45586Y52482D01*
X45746Y52913D01*
X46007Y53622D01*
X46268Y54331D01*
X46496Y54950D01*
X46496Y55039D01*
X46496Y55748D01*
X46496Y56457D01*
X46496Y57165D01*
X46496Y57549D01*
X46376Y57874D01*
X46115Y58583D01*
X45854Y59291D01*
X45593Y60000D01*
X45586Y60017D01*
X44895Y60709D01*
X44187Y61417D01*
X43767Y61836D01*
X42982Y62126D01*
X41299Y62746D01*
X38700Y62746D01*
X36232Y61836D02*
X37017Y62126D01*
X38700Y62746D01*
X34413Y60017D02*
X35104Y60709D01*
X35812Y61417D01*
X36232Y61836D01*
X33503Y57549D02*
X33623Y57874D01*
X33884Y58583D01*
X34145Y59291D01*
X34406Y60000D01*
X34413Y60017D01*
X33503Y55174D02*
X33503Y55748D01*
X33503Y56457D01*
X33503Y57165D01*
X33503Y57549D01*
X33503Y55174D02*
X33305Y55372D01*
X32284Y55748D01*
X31958Y55868D01*
X30541Y55868D01*
X29194Y55372D02*
X30215Y55748D01*
X30541Y55868D01*
X28706Y54884D02*
X28862Y55039D01*
X29194Y55372D01*
X28706Y54884D02*
X27559Y54884D01*
X27559Y55039D01*
X27559Y55748D01*
X27559Y55814D01*
X28201Y56457D01*
X28910Y57165D01*
X29619Y57874D01*
X30327Y58583D01*
X31036Y59291D01*
X31745Y60000D01*
X32453Y60709D01*
X33162Y61417D01*
X33870Y62126D01*
X34579Y62835D01*
X35288Y63543D01*
X35996Y64252D01*
X36705Y64961D01*
X37414Y65669D01*
X38122Y66378D01*
X38184Y66439D01*
X38184Y67087D01*
X38184Y67795D01*
X38184Y68400D01*
X39196Y68400D01*
X39300Y68504D01*
X40009Y69212D01*
X40349Y69553D01*
X40349Y69921D01*
X40349Y70630D01*
X40349Y71338D01*
X40349Y72047D01*
X40349Y72756D01*
X40349Y73464D01*
X40349Y74173D01*
X40349Y74780D01*
X40900Y74230D02*
X40349Y74780D01*
X40900Y69553D02*
X40900Y69921D01*
X40900Y70630D01*
X40900Y71338D01*
X40900Y72047D01*
X40900Y72756D01*
X40900Y73464D01*
X40900Y74173D01*
X40900Y74230D01*
X42053Y68400D02*
X41949Y68504D01*
X41240Y69212D01*
X40900Y69553D01*
X42053Y68400D02*
X48065Y68400D01*
X48065Y67849D02*
X48065Y68400D01*
X48065Y67849D02*
X47053Y67849D01*
X45900Y66696D02*
X46290Y67087D01*
X46999Y67795D01*
X47053Y67849D01*
X45900Y59553D02*
X45900Y60000D01*
X45900Y60709D01*
X45900Y61417D01*
X45900Y62126D01*
X45900Y62835D01*
X45900Y63543D01*
X45900Y64252D01*
X45900Y64961D01*
X45900Y65669D01*
X45900Y66378D01*
X45900Y66696D01*
X47053Y58400D02*
X46870Y58583D01*
X46162Y59291D01*
X45900Y59553D01*
X47053Y58400D02*
X48065Y58400D01*
X48065Y57689D02*
X48065Y57874D01*
X48065Y58400D01*
X49940Y55814D02*
X49298Y56457D01*
X48589Y57165D01*
X48065Y57689D01*
X51439Y54315D02*
X51424Y54331D01*
X50715Y55039D01*
X50006Y55748D01*
X49940Y55814D01*
X51439Y54315D02*
X66685Y54315D01*
X66700Y54331D01*
X67409Y55039D01*
X68118Y55748D01*
X68826Y56457D01*
X69535Y57165D01*
X70244Y57874D01*
X70952Y58583D01*
X71661Y59291D01*
X72370Y60000D01*
X73078Y60709D01*
X73184Y60814D01*
X73184Y61417D01*
X73184Y62126D01*
X73184Y62835D01*
X73184Y63543D01*
X73184Y64252D01*
X73184Y64961D01*
X73184Y65669D01*
X73184Y66378D01*
X73184Y67087D01*
X73184Y67795D01*
X73184Y68400D01*
X79196Y68400D01*
X79300Y68504D01*
X80009Y69212D01*
X80349Y69553D01*
X80349Y69921D01*
X80349Y70630D01*
X80349Y71338D01*
X80349Y72047D01*
X80349Y72756D01*
X80349Y73464D01*
X80349Y74173D01*
X80349Y74882D01*
X80349Y75590D01*
X80349Y76299D01*
X80349Y76696D01*
X80037Y77008D01*
X79329Y77716D01*
X79196Y77849D01*
X73184Y77849D01*
X73184Y78425D01*
X73184Y78939D01*
X73378Y79134D01*
X74087Y79842D01*
X74185Y79940D01*
X88820Y79940D01*
X50349Y16696D02*
X50274Y16772D01*
X49565Y17480D01*
X49196Y17849D01*
X45625Y17849D02*
X42053Y17849D01*
X40900Y16696D02*
X40975Y16772D01*
X41684Y17480D01*
X42053Y17849D01*
X40900Y9553D02*
X40900Y9685D01*
X40900Y10394D01*
X40900Y11102D01*
X40900Y11811D01*
X40900Y12520D01*
X40900Y13228D01*
X40900Y13937D01*
X40900Y14646D01*
X40900Y15354D01*
X40900Y16063D01*
X40900Y16696D01*
X42053Y8400D02*
X41476Y8976D01*
X40900Y9553D01*
X45625Y8400D02*
X49196Y8400D01*
X49773Y8976D01*
X50349Y9553D01*
X50349Y9685D01*
X50349Y10394D01*
X50349Y11102D01*
X50349Y11811D01*
X50349Y12520D01*
X50349Y13228D01*
X50349Y13937D01*
X50349Y14646D01*
X50349Y15354D01*
X50349Y16063D01*
X50349Y16696D01*
X40349Y16696D02*
X40274Y16772D01*
X39565Y17480D01*
X39196Y17849D01*
X32053Y17849D01*
X30900Y16696D02*
X30975Y16772D01*
X31684Y17480D01*
X32053Y17849D01*
X30900Y9553D02*
X30900Y9685D01*
X30900Y10394D01*
X30900Y11102D01*
X30900Y11811D01*
X30900Y12520D01*
X30900Y13228D01*
X30900Y13937D01*
X30900Y14646D01*
X30900Y15354D01*
X30900Y16063D01*
X30900Y16696D01*
X32053Y8400D02*
X31476Y8976D01*
X30900Y9553D01*
X32053Y8400D02*
X39196Y8400D01*
X39773Y8976D01*
X40349Y9553D01*
X40349Y9685D01*
X40349Y10394D01*
X40349Y11102D01*
X40349Y11811D01*
X40349Y12520D01*
X40349Y13228D01*
X40349Y13937D01*
X40349Y14646D01*
X40349Y15354D01*
X40349Y16063D01*
X40349Y16696D01*
X30349Y16696D02*
X30274Y16772D01*
X29565Y17480D01*
X29196Y17849D01*
X22053Y17849D01*
X20900Y16696D02*
X20975Y16772D01*
X21684Y17480D01*
X22053Y17849D01*
X20900Y9553D02*
X20900Y9685D01*
X20900Y10394D01*
X20900Y11102D01*
X20900Y11811D01*
X20900Y12520D01*
X20900Y13228D01*
X20900Y13937D01*
X20900Y14646D01*
X20900Y15354D01*
X20900Y16063D01*
X20900Y16696D01*
X22053Y8400D02*
X21476Y8976D01*
X20900Y9553D01*
X22053Y8400D02*
X29196Y8400D01*
X29773Y8976D01*
X30349Y9553D01*
X30349Y9685D01*
X30349Y10394D01*
X30349Y11102D01*
X30349Y11811D01*
X30349Y12520D01*
X30349Y13228D01*
X30349Y13937D01*
X30349Y14646D01*
X30349Y15354D01*
X30349Y16063D01*
X30349Y16696D01*
X1181Y1890D02*
X220078Y1890D01*
X172500Y2598D02*
X220078Y2598D01*
X218750Y3307D02*
X220078Y3307D01*
X1875Y4016D02*
X55489Y4016D01*
X202635Y4016D02*
X220078Y4016D01*
X1181Y4724D02*
X8276Y4724D01*
X10473Y4724D02*
X54780Y4724D01*
X203344Y4724D02*
X220078Y4724D01*
X1181Y5433D02*
X6963Y5433D01*
X11786Y5433D02*
X54071Y5433D01*
X204053Y5433D02*
X220078Y5433D01*
X1181Y6142D02*
X6300Y6142D01*
X12449Y6142D02*
X53363Y6142D01*
X204761Y6142D02*
X220078Y6142D01*
X1181Y6850D02*
X6039Y6850D01*
X12710Y6850D02*
X53065Y6850D01*
X205470Y6850D02*
X220078Y6850D01*
X1181Y7559D02*
X5831Y7559D01*
X12918Y7559D02*
X53065Y7559D01*
X206179Y7559D02*
X220078Y7559D01*
X1181Y8268D02*
X5612Y8268D01*
X12918Y8268D02*
X53065Y8268D01*
X206887Y8268D02*
X220078Y8268D01*
X1181Y8976D02*
X4940Y8976D01*
X19773Y8976D02*
X21476Y8976D01*
X29773Y8976D02*
X31476Y8976D01*
X39773Y8976D02*
X41476Y8976D01*
X49773Y8976D02*
X51476Y8976D01*
X59773Y8976D02*
X61476Y8976D01*
X79773Y8976D02*
X81476Y8976D01*
X89773Y8976D02*
X91476Y8976D01*
X99773Y8976D02*
X101476Y8976D01*
X109773Y8976D02*
X111476Y8976D01*
X119773Y8976D02*
X121476Y8976D01*
X129773Y8976D02*
X149903Y8976D01*
X190721Y8976D02*
X200357Y8976D01*
X207596Y8976D02*
X220078Y8976D01*
X1181Y9685D02*
X4940Y9685D01*
X20349Y9685D02*
X20900Y9685D01*
X30349Y9685D02*
X30900Y9685D01*
X40349Y9685D02*
X40900Y9685D01*
X50349Y9685D02*
X50900Y9685D01*
X60349Y9685D02*
X60900Y9685D01*
X80349Y9685D02*
X80900Y9685D01*
X90349Y9685D02*
X90900Y9685D01*
X100349Y9685D02*
X100900Y9685D01*
X110349Y9685D02*
X110900Y9685D01*
X120349Y9685D02*
X120900Y9685D01*
X140000Y9685D02*
X149194Y9685D01*
X191430Y9685D02*
X201065Y9685D01*
X208305Y9685D02*
X220078Y9685D01*
X1181Y10394D02*
X4940Y10394D01*
X20349Y10394D02*
X20900Y10394D01*
X30349Y10394D02*
X30900Y10394D01*
X40349Y10394D02*
X40900Y10394D01*
X50349Y10394D02*
X50900Y10394D01*
X60349Y10394D02*
X60900Y10394D01*
X80349Y10394D02*
X80900Y10394D01*
X90349Y10394D02*
X90900Y10394D01*
X100349Y10394D02*
X100900Y10394D01*
X110349Y10394D02*
X110900Y10394D01*
X120349Y10394D02*
X120900Y10394D01*
X137500Y10394D02*
X148486Y10394D01*
X192138Y10394D02*
X201774Y10394D01*
X209013Y10394D02*
X220078Y10394D01*
X1181Y11102D02*
X4940Y11102D01*
X20349Y11102D02*
X20900Y11102D01*
X30349Y11102D02*
X30900Y11102D01*
X40349Y11102D02*
X40900Y11102D01*
X50349Y11102D02*
X50900Y11102D01*
X60349Y11102D02*
X60900Y11102D01*
X80349Y11102D02*
X80900Y11102D01*
X90349Y11102D02*
X90900Y11102D01*
X100349Y11102D02*
X100900Y11102D01*
X110349Y11102D02*
X110900Y11102D01*
X120349Y11102D02*
X120900Y11102D01*
X130349Y11102D02*
X147777Y11102D01*
X192847Y11102D02*
X202483Y11102D01*
X209119Y11102D02*
X220078Y11102D01*
X1181Y11811D02*
X4940Y11811D01*
X20349Y11811D02*
X20900Y11811D01*
X30349Y11811D02*
X30900Y11811D01*
X40349Y11811D02*
X40900Y11811D01*
X50349Y11811D02*
X50900Y11811D01*
X60349Y11811D02*
X60900Y11811D01*
X80349Y11811D02*
X80900Y11811D01*
X90349Y11811D02*
X90900Y11811D01*
X100349Y11811D02*
X100900Y11811D01*
X110349Y11811D02*
X110900Y11811D01*
X120349Y11811D02*
X120900Y11811D01*
X130349Y11811D02*
X147068Y11811D01*
X193371Y11811D02*
X203191Y11811D01*
X209119Y11811D02*
X213028Y11811D01*
X215839Y11811D02*
X220078Y11811D01*
X1181Y12520D02*
X4940Y12520D01*
X20349Y12520D02*
X20900Y12520D01*
X30349Y12520D02*
X30900Y12520D01*
X40349Y12520D02*
X40900Y12520D01*
X50349Y12520D02*
X50900Y12520D01*
X60349Y12520D02*
X60900Y12520D01*
X80349Y12520D02*
X80900Y12520D01*
X90349Y12520D02*
X90900Y12520D01*
X100349Y12520D02*
X100900Y12520D01*
X110349Y12520D02*
X110900Y12520D01*
X120349Y12520D02*
X120900Y12520D01*
X130349Y12520D02*
X146360Y12520D01*
X193371Y12520D02*
X203900Y12520D01*
X209119Y12520D02*
X211909Y12520D01*
X216958Y12520D02*
X220078Y12520D01*
X1181Y13228D02*
X4940Y13228D01*
X20349Y13228D02*
X20900Y13228D01*
X30349Y13228D02*
X30900Y13228D01*
X40349Y13228D02*
X40900Y13228D01*
X50349Y13228D02*
X50900Y13228D01*
X60349Y13228D02*
X60900Y13228D01*
X80349Y13228D02*
X80900Y13228D01*
X90349Y13228D02*
X90900Y13228D01*
X100349Y13228D02*
X100900Y13228D01*
X110349Y13228D02*
X110900Y13228D01*
X120349Y13228D02*
X120900Y13228D01*
X130349Y13228D02*
X145651Y13228D01*
X193927Y13228D02*
X203444Y13228D01*
X209676Y13228D02*
X211318Y13228D01*
X217550Y13228D02*
X220078Y13228D01*
X1181Y13937D02*
X4940Y13937D01*
X20349Y13937D02*
X20900Y13937D01*
X30349Y13937D02*
X30900Y13937D01*
X40349Y13937D02*
X40900Y13937D01*
X50349Y13937D02*
X50900Y13937D01*
X60349Y13937D02*
X60900Y13937D01*
X80349Y13937D02*
X80900Y13937D01*
X90349Y13937D02*
X90900Y13937D01*
X100349Y13937D02*
X100900Y13937D01*
X110349Y13937D02*
X110900Y13937D01*
X120349Y13937D02*
X120900Y13937D01*
X130349Y13937D02*
X144942Y13937D01*
X186315Y13937D02*
X187434Y13937D01*
X194189Y13937D02*
X203182Y13937D01*
X209937Y13937D02*
X211056Y13937D01*
X217811Y13937D02*
X220078Y13937D01*
X1181Y14646D02*
X4940Y14646D01*
X20349Y14646D02*
X20900Y14646D01*
X30349Y14646D02*
X30900Y14646D01*
X40349Y14646D02*
X40900Y14646D01*
X50349Y14646D02*
X50900Y14646D01*
X60349Y14646D02*
X60900Y14646D01*
X80349Y14646D02*
X80900Y14646D01*
X90349Y14646D02*
X90900Y14646D01*
X100349Y14646D02*
X100900Y14646D01*
X110349Y14646D02*
X110900Y14646D01*
X120349Y14646D02*
X120900Y14646D01*
X130349Y14646D02*
X144234Y14646D01*
X186481Y14646D02*
X187268Y14646D01*
X194355Y14646D02*
X203016Y14646D01*
X210103Y14646D02*
X210890Y14646D01*
X217977Y14646D02*
X220078Y14646D01*
X1181Y15354D02*
X4940Y15354D01*
X20349Y15354D02*
X20900Y15354D01*
X30349Y15354D02*
X30900Y15354D01*
X40349Y15354D02*
X40900Y15354D01*
X50349Y15354D02*
X50900Y15354D01*
X60349Y15354D02*
X60900Y15354D01*
X80349Y15354D02*
X80900Y15354D01*
X90349Y15354D02*
X90900Y15354D01*
X100349Y15354D02*
X100900Y15354D01*
X110349Y15354D02*
X110900Y15354D01*
X120349Y15354D02*
X120900Y15354D01*
X130349Y15354D02*
X143525Y15354D01*
X186481Y15354D02*
X187268Y15354D01*
X194355Y15354D02*
X203016Y15354D01*
X210103Y15354D02*
X210890Y15354D01*
X217977Y15354D02*
X220078Y15354D01*
X1181Y16063D02*
X4542Y16063D01*
X20349Y16063D02*
X20900Y16063D01*
X30349Y16063D02*
X30900Y16063D01*
X40349Y16063D02*
X40900Y16063D01*
X50349Y16063D02*
X50900Y16063D01*
X60349Y16063D02*
X60900Y16063D01*
X80349Y16063D02*
X80900Y16063D01*
X90349Y16063D02*
X90900Y16063D01*
X100349Y16063D02*
X100900Y16063D01*
X110349Y16063D02*
X110900Y16063D01*
X120349Y16063D02*
X120900Y16063D01*
X137500Y16063D02*
X142817Y16063D01*
X186387Y16063D02*
X187362Y16063D01*
X194261Y16063D02*
X203110Y16063D01*
X210009Y16063D02*
X210984Y16063D01*
X217883Y16063D02*
X220078Y16063D01*
X1181Y16772D02*
X3833Y16772D01*
X20274Y16772D02*
X20975Y16772D01*
X30274Y16772D02*
X30975Y16772D01*
X40274Y16772D02*
X40975Y16772D01*
X50274Y16772D02*
X50975Y16772D01*
X60274Y16772D02*
X60975Y16772D01*
X80274Y16772D02*
X80975Y16772D01*
X90274Y16772D02*
X90975Y16772D01*
X100274Y16772D02*
X100975Y16772D01*
X110274Y16772D02*
X110975Y16772D01*
X120274Y16772D02*
X120975Y16772D01*
X132602Y16772D02*
X142108Y16772D01*
X186126Y16772D02*
X187623Y16772D01*
X194000Y16772D02*
X203371Y16772D01*
X209748Y16772D02*
X211245Y16772D01*
X217622Y16772D02*
X220078Y16772D01*
X1181Y17480D02*
X3428Y17480D01*
X19565Y17480D02*
X21684Y17480D01*
X29565Y17480D02*
X31684Y17480D01*
X39565Y17480D02*
X41684Y17480D01*
X49565Y17480D02*
X51684Y17480D01*
X59565Y17480D02*
X61684Y17480D01*
X79565Y17480D02*
X81684Y17480D01*
X89565Y17480D02*
X91684Y17480D01*
X99565Y17480D02*
X101684Y17480D01*
X109565Y17480D02*
X111684Y17480D01*
X119565Y17480D02*
X121684Y17480D01*
X129565Y17480D02*
X141399Y17480D01*
X185658Y17480D02*
X188091Y17480D01*
X193532Y17480D02*
X203839Y17480D01*
X209280Y17480D02*
X211713Y17480D01*
X217154Y17480D02*
X220078Y17480D01*
X1181Y18189D02*
X3167Y18189D01*
X16183Y18189D02*
X63065Y18189D01*
X78184Y18189D02*
X140691Y18189D01*
X185497Y18189D02*
X188874Y18189D01*
X192749Y18189D02*
X204622Y18189D01*
X208497Y18189D02*
X211316Y18189D01*
X216993Y18189D02*
X220078Y18189D01*
X1181Y18898D02*
X2972Y18898D01*
X16892Y18898D02*
X63065Y18898D01*
X78184Y18898D02*
X139982Y18898D01*
X185497Y18898D02*
X210607Y18898D01*
X216993Y18898D02*
X220078Y18898D01*
X1181Y19606D02*
X2972Y19606D01*
X17601Y19606D02*
X63065Y19606D01*
X78184Y19606D02*
X139273Y19606D01*
X185262Y19606D02*
X209898Y19606D01*
X216993Y19606D02*
X220078Y19606D01*
X1181Y20315D02*
X2972Y20315D01*
X18184Y20315D02*
X63065Y20315D01*
X100000Y20315D02*
X138565Y20315D01*
X184554Y20315D02*
X209190Y20315D01*
X216429Y20315D02*
X220078Y20315D01*
X1181Y21024D02*
X3153Y21024D01*
X45225Y21024D02*
X63065Y21024D01*
X78184Y21024D02*
X137856Y21024D01*
X215720Y21024D02*
X220078Y21024D01*
X1181Y21732D02*
X3414Y21732D01*
X18184Y21732D02*
X63065Y21732D01*
X78184Y21732D02*
X137147Y21732D01*
X215011Y21732D02*
X220078Y21732D01*
X1181Y22441D02*
X3795Y22441D01*
X11204Y22441D02*
X13065Y22441D01*
X44375Y22441D02*
X63065Y22441D01*
X78184Y22441D02*
X136439Y22441D01*
X214303Y22441D02*
X220078Y22441D01*
X1181Y23150D02*
X4503Y23150D01*
X10496Y23150D02*
X13065Y23150D01*
X56250Y23150D02*
X63065Y23150D01*
X78184Y23150D02*
X135730Y23150D01*
X213594Y23150D02*
X220078Y23150D01*
X1181Y23858D02*
X4621Y23858D01*
X10378Y23858D02*
X13065Y23858D01*
X18184Y23858D02*
X20413Y23858D01*
X24586Y23858D02*
X63065Y23858D01*
X78184Y23858D02*
X135021Y23858D01*
X212885Y23858D02*
X220078Y23858D01*
X1181Y24567D02*
X3912Y24567D01*
X11087Y24567D02*
X13065Y24567D01*
X18184Y24567D02*
X19704Y24567D01*
X25295Y24567D02*
X63065Y24567D01*
X78184Y24567D02*
X134313Y24567D01*
X212177Y24567D02*
X220078Y24567D01*
X1181Y25275D02*
X3457Y25275D01*
X11542Y25275D02*
X13065Y25275D01*
X18184Y25275D02*
X19284Y25275D01*
X56250Y25275D02*
X63065Y25275D01*
X78184Y25275D02*
X126496Y25275D01*
X131003Y25275D02*
X133604Y25275D01*
X211468Y25275D02*
X220078Y25275D01*
X1181Y25984D02*
X3196Y25984D01*
X11803Y25984D02*
X13065Y25984D01*
X18184Y25984D02*
X19023Y25984D01*
X32500Y25984D02*
X63065Y25984D01*
X78184Y25984D02*
X125787Y25984D01*
X131712Y25984D02*
X132895Y25984D01*
X157634Y25984D02*
X220078Y25984D01*
X1181Y26693D02*
X2972Y26693D01*
X12027Y26693D02*
X13065Y26693D01*
X18184Y26693D02*
X18956Y26693D01*
X26043Y26693D02*
X63065Y26693D01*
X78184Y26693D02*
X125472Y26693D01*
X132027Y26693D02*
X132187Y26693D01*
X156926Y26693D02*
X220078Y26693D01*
X1181Y27401D02*
X2972Y27401D01*
X12027Y27401D02*
X13065Y27401D01*
X18184Y27401D02*
X18956Y27401D01*
X26646Y27401D02*
X63065Y27401D01*
X78184Y27401D02*
X125211Y27401D01*
X156217Y27401D02*
X220078Y27401D01*
X1181Y28110D02*
X2972Y28110D01*
X12027Y28110D02*
X13065Y28110D01*
X18184Y28110D02*
X19150Y28110D01*
X27355Y28110D02*
X62644Y28110D01*
X78184Y28110D02*
X125144Y28110D01*
X155508Y28110D02*
X220078Y28110D01*
X1181Y28819D02*
X3124Y28819D01*
X11875Y28819D02*
X13065Y28819D01*
X18184Y28819D02*
X19411Y28819D01*
X78184Y28819D02*
X124436Y28819D01*
X154800Y28819D02*
X220078Y28819D01*
X1181Y29527D02*
X3385Y29527D01*
X11614Y29527D02*
X13065Y29527D01*
X18184Y29527D02*
X20050Y29527D01*
X78184Y29527D02*
X124315Y29527D01*
X154091Y29527D02*
X220078Y29527D01*
X1181Y30236D02*
X3716Y30236D01*
X11283Y30236D02*
X13065Y30236D01*
X18184Y30236D02*
X21297Y30236D01*
X78184Y30236D02*
X124315Y30236D01*
X153382Y30236D02*
X220078Y30236D01*
X1181Y30945D02*
X4425Y30945D01*
X10574Y30945D02*
X13065Y30945D01*
X18184Y30945D02*
X22950Y30945D01*
X78184Y30945D02*
X80231Y30945D01*
X82268Y30945D02*
X124315Y30945D01*
X152674Y30945D02*
X220078Y30945D01*
X1181Y31653D02*
X4699Y31653D01*
X10300Y31653D02*
X13065Y31653D01*
X18184Y31653D02*
X23659Y31653D01*
X78184Y31653D02*
X78868Y31653D01*
X83631Y31653D02*
X124315Y31653D01*
X151965Y31653D02*
X220078Y31653D01*
X1181Y32362D02*
X3991Y32362D01*
X11008Y32362D02*
X13065Y32362D01*
X18184Y32362D02*
X24367Y32362D01*
X78184Y32362D02*
X78186Y32362D01*
X84313Y32362D02*
X124315Y32362D01*
X151257Y32362D02*
X220078Y32362D01*
X1181Y33071D02*
X3486Y33071D01*
X11513Y33071D02*
X13065Y33071D01*
X18184Y33071D02*
X25076Y33071D01*
X84574Y33071D02*
X124315Y33071D01*
X150548Y33071D02*
X220078Y33071D01*
X1181Y33779D02*
X3225Y33779D01*
X11774Y33779D02*
X13065Y33779D01*
X84793Y33779D02*
X124315Y33779D01*
X149839Y33779D02*
X220078Y33779D01*
X1181Y34488D02*
X2972Y34488D01*
X12027Y34488D02*
X13065Y34488D01*
X114750Y34488D02*
X124315Y34488D01*
X149131Y34488D02*
X220078Y34488D01*
X1181Y35197D02*
X2972Y35197D01*
X12027Y35197D02*
X13065Y35197D01*
X100000Y35197D02*
X124315Y35197D01*
X148422Y35197D02*
X220078Y35197D01*
X1181Y35905D02*
X2972Y35905D01*
X12500Y35905D02*
X13065Y35905D01*
X84490Y35905D02*
X124315Y35905D01*
X147713Y35905D02*
X220078Y35905D01*
X1181Y36614D02*
X3095Y36614D01*
X11904Y36614D02*
X13065Y36614D01*
X84113Y36614D02*
X124315Y36614D01*
X147005Y36614D02*
X220078Y36614D01*
X1181Y37323D02*
X3356Y37323D01*
X11643Y37323D02*
X13065Y37323D01*
X83404Y37323D02*
X124315Y37323D01*
X146296Y37323D02*
X220078Y37323D01*
X1181Y38031D02*
X3637Y38031D01*
X11362Y38031D02*
X13065Y38031D01*
X81212Y38031D02*
X124315Y38031D01*
X145587Y38031D02*
X220078Y38031D01*
X1181Y38740D02*
X4346Y38740D01*
X10653Y38740D02*
X13065Y38740D01*
X80504Y38740D02*
X124315Y38740D01*
X144879Y38740D02*
X220078Y38740D01*
X9807Y39449D02*
X13065Y39449D01*
X28371Y39449D02*
X43956Y39449D01*
X79795Y39449D02*
X124315Y39449D01*
X144170Y39449D02*
X220078Y39449D01*
X10512Y40157D02*
X13065Y40157D01*
X28543Y40157D02*
X44120Y40157D01*
X79086Y40157D02*
X124315Y40157D01*
X143461Y40157D02*
X220078Y40157D01*
X10512Y40866D02*
X13065Y40866D01*
X30866Y40866D02*
X44381Y40866D01*
X78378Y40866D02*
X124315Y40866D01*
X142753Y40866D02*
X220078Y40866D01*
X10512Y41575D02*
X13065Y41575D01*
X28454Y41575D02*
X44968Y41575D01*
X50031Y41575D02*
X51705Y41575D01*
X77669Y41575D02*
X105218Y41575D01*
X107281Y41575D02*
X124315Y41575D01*
X142044Y41575D02*
X220078Y41575D01*
X10512Y42283D02*
X13065Y42283D01*
X28193Y42283D02*
X46076Y42283D01*
X48923Y42283D02*
X52414Y42283D01*
X76960Y42283D02*
X103863Y42283D01*
X108636Y42283D02*
X124315Y42283D01*
X141335Y42283D02*
X220078Y42283D01*
X12007Y42992D02*
X13065Y42992D01*
X27735Y42992D02*
X53122Y42992D01*
X76252Y42992D02*
X103184Y42992D01*
X140627Y42992D02*
X220078Y42992D01*
X11875Y43701D02*
X13065Y43701D01*
X27559Y43701D02*
X53831Y43701D01*
X78864Y43701D02*
X102923Y43701D01*
X139918Y43701D02*
X220078Y43701D01*
X10512Y44409D02*
X13065Y44409D01*
X27559Y44409D02*
X54540Y44409D01*
X74834Y44409D02*
X102706Y44409D01*
X139434Y44409D02*
X220078Y44409D01*
X10512Y45118D02*
X12903Y45118D01*
X27559Y45118D02*
X55248Y45118D01*
X74126Y45118D02*
X102706Y45118D01*
X139434Y45118D02*
X220078Y45118D01*
X10512Y45827D02*
X12436Y45827D01*
X27559Y45827D02*
X55957Y45827D01*
X73417Y45827D02*
X102749Y45827D01*
X139434Y45827D02*
X220078Y45827D01*
X10512Y46535D02*
X12175Y46535D01*
X52500Y46535D02*
X56666Y46535D01*
X72708Y46535D02*
X103011Y46535D01*
X139434Y46535D02*
X220078Y46535D01*
X10512Y47244D02*
X12081Y47244D01*
X27559Y47244D02*
X103391Y47244D01*
X139434Y47244D02*
X220078Y47244D01*
X10512Y47953D02*
X12081Y47953D01*
X27559Y47953D02*
X104100Y47953D01*
X108399Y47953D02*
X124315Y47953D01*
X139434Y47953D02*
X220078Y47953D01*
X10512Y48661D02*
X12248Y48661D01*
X27559Y48661D02*
X124315Y48661D01*
X139434Y48661D02*
X220078Y48661D01*
X10512Y49370D02*
X12509Y49370D01*
X27559Y49370D02*
X29101Y49370D01*
X33398Y49370D02*
X124315Y49370D01*
X139434Y49370D02*
X220078Y49370D01*
X10512Y50079D02*
X13065Y50079D01*
X34107Y50079D02*
X37816Y50079D01*
X100000Y50079D02*
X124315Y50079D01*
X139434Y50079D02*
X220078Y50079D01*
X10512Y50787D02*
X13065Y50787D01*
X34488Y50787D02*
X36107Y50787D01*
X52500Y50787D02*
X124315Y50787D01*
X139434Y50787D02*
X220078Y50787D01*
X10512Y51496D02*
X13065Y51496D01*
X34749Y51496D02*
X35398Y51496D01*
X44601Y51496D02*
X124258Y51496D01*
X139434Y51496D02*
X220078Y51496D01*
X10512Y52205D02*
X13065Y52205D01*
X45310Y52205D02*
X123550Y52205D01*
X139434Y52205D02*
X220078Y52205D01*
X10512Y52913D02*
X13065Y52913D01*
X45746Y52913D02*
X122841Y52913D01*
X139434Y52913D02*
X220078Y52913D01*
X10485Y53622D02*
X13752Y53622D01*
X118750Y53622D02*
X122132Y53622D01*
X139434Y53622D02*
X220078Y53622D01*
X9777Y54331D02*
X14461Y54331D01*
X46268Y54331D02*
X51424Y54331D01*
X66700Y54331D02*
X121424Y54331D01*
X139434Y54331D02*
X220078Y54331D01*
X1181Y55039D02*
X15170Y55039D01*
X27559Y55039D02*
X28862Y55039D01*
X46496Y55039D02*
X50715Y55039D01*
X67409Y55039D02*
X120715Y55039D01*
X139434Y55039D02*
X220078Y55039D01*
X1181Y55748D02*
X15878Y55748D01*
X27559Y55748D02*
X30215Y55748D01*
X32284Y55748D02*
X33503Y55748D01*
X46496Y55748D02*
X50006Y55748D01*
X68118Y55748D02*
X120006Y55748D01*
X139434Y55748D02*
X220078Y55748D01*
X1181Y56457D02*
X16587Y56457D01*
X28201Y56457D02*
X33503Y56457D01*
X46496Y56457D02*
X49298Y56457D01*
X68826Y56457D02*
X119298Y56457D01*
X139434Y56457D02*
X220078Y56457D01*
X1181Y57165D02*
X17296Y57165D01*
X28910Y57165D02*
X33503Y57165D01*
X46496Y57165D02*
X48589Y57165D01*
X69535Y57165D02*
X118589Y57165D01*
X139434Y57165D02*
X220078Y57165D01*
X11875Y57874D02*
X18004Y57874D01*
X29619Y57874D02*
X33623Y57874D01*
X46376Y57874D02*
X48065Y57874D01*
X70244Y57874D02*
X117880Y57874D01*
X139434Y57874D02*
X220078Y57874D01*
X12333Y58583D02*
X18713Y58583D01*
X30327Y58583D02*
X33884Y58583D01*
X46115Y58583D02*
X46870Y58583D01*
X70952Y58583D02*
X117172Y58583D01*
X139411Y58583D02*
X220078Y58583D01*
X11875Y59291D02*
X19422Y59291D01*
X31036Y59291D02*
X34145Y59291D01*
X45854Y59291D02*
X46162Y59291D01*
X71661Y59291D02*
X116463Y59291D01*
X138702Y59291D02*
X220078Y59291D01*
X10358Y60000D02*
X20130Y60000D01*
X31745Y60000D02*
X34406Y60000D01*
X45593Y60000D02*
X45900Y60000D01*
X72370Y60000D02*
X115755Y60000D01*
X137994Y60000D02*
X220078Y60000D01*
X10512Y60709D02*
X20839Y60709D01*
X32453Y60709D02*
X35104Y60709D01*
X44895Y60709D02*
X45900Y60709D01*
X73078Y60709D02*
X115046Y60709D01*
X137285Y60709D02*
X220078Y60709D01*
X10512Y61417D02*
X21548Y61417D01*
X33162Y61417D02*
X35812Y61417D01*
X44187Y61417D02*
X45900Y61417D01*
X73184Y61417D02*
X114337Y61417D01*
X136576Y61417D02*
X220078Y61417D01*
X10512Y62126D02*
X22256Y62126D01*
X33870Y62126D02*
X37017Y62126D01*
X42982Y62126D02*
X45900Y62126D01*
X73184Y62126D02*
X113629Y62126D01*
X135868Y62126D02*
X220078Y62126D01*
X10512Y62835D02*
X22965Y62835D01*
X34579Y62835D02*
X45900Y62835D01*
X73184Y62835D02*
X102295Y62835D01*
X135159Y62835D02*
X220078Y62835D01*
X10512Y63543D02*
X23674Y63543D01*
X35288Y63543D02*
X45900Y63543D01*
X73184Y63543D02*
X101586Y63543D01*
X134450Y63543D02*
X220078Y63543D01*
X10512Y64252D02*
X24382Y64252D01*
X35996Y64252D02*
X45900Y64252D01*
X73184Y64252D02*
X100878Y64252D01*
X133742Y64252D02*
X220078Y64252D01*
X10512Y64961D02*
X25091Y64961D01*
X36705Y64961D02*
X45900Y64961D01*
X73184Y64961D02*
X100169Y64961D01*
X133033Y64961D02*
X220078Y64961D01*
X10512Y65669D02*
X25800Y65669D01*
X37414Y65669D02*
X45900Y65669D01*
X73184Y65669D02*
X99460Y65669D01*
X132324Y65669D02*
X220078Y65669D01*
X10512Y66378D02*
X26508Y66378D01*
X38122Y66378D02*
X45900Y66378D01*
X73184Y66378D02*
X98752Y66378D01*
X131616Y66378D02*
X220078Y66378D01*
X25625Y67087D02*
X27217Y67087D01*
X38184Y67087D02*
X46290Y67087D01*
X73184Y67087D02*
X98043Y67087D01*
X130907Y67087D02*
X220078Y67087D01*
X20625Y67795D02*
X27926Y67795D01*
X38184Y67795D02*
X46999Y67795D01*
X73184Y67795D02*
X97334Y67795D01*
X218750Y67795D02*
X220078Y67795D01*
X10512Y68504D02*
X11949Y68504D01*
X19300Y68504D02*
X21949Y68504D01*
X39300Y68504D02*
X41949Y68504D01*
X79300Y68504D02*
X81949Y68504D01*
X89300Y68504D02*
X91949Y68504D01*
X191250Y68504D02*
X220078Y68504D01*
X10512Y69212D02*
X11240Y69212D01*
X20009Y69212D02*
X21240Y69212D01*
X40009Y69212D02*
X41240Y69212D01*
X80009Y69212D02*
X81240Y69212D01*
X90009Y69212D02*
X91240Y69212D01*
X130009Y69212D02*
X220078Y69212D01*
X10512Y69921D02*
X10900Y69921D01*
X20349Y69921D02*
X20900Y69921D01*
X40349Y69921D02*
X40900Y69921D01*
X80349Y69921D02*
X80900Y69921D01*
X90349Y69921D02*
X90900Y69921D01*
X130349Y69921D02*
X131492Y69921D01*
X134757Y69921D02*
X220078Y69921D01*
X10512Y70630D02*
X10900Y70630D01*
X20349Y70630D02*
X20900Y70630D01*
X40349Y70630D02*
X40900Y70630D01*
X80349Y70630D02*
X80900Y70630D01*
X90349Y70630D02*
X90900Y70630D01*
X130349Y70630D02*
X130516Y70630D01*
X137374Y70630D02*
X220078Y70630D01*
X10512Y71338D02*
X10900Y71338D01*
X20349Y71338D02*
X20900Y71338D01*
X40349Y71338D02*
X40900Y71338D01*
X80349Y71338D02*
X80900Y71338D01*
X90349Y71338D02*
X90900Y71338D01*
X138083Y71338D02*
X220078Y71338D01*
X10512Y72047D02*
X10900Y72047D01*
X20349Y72047D02*
X20900Y72047D01*
X40349Y72047D02*
X40900Y72047D01*
X80349Y72047D02*
X80900Y72047D01*
X90349Y72047D02*
X90900Y72047D01*
X138792Y72047D02*
X220078Y72047D01*
X10512Y72756D02*
X10900Y72756D01*
X20349Y72756D02*
X20900Y72756D01*
X40349Y72756D02*
X40900Y72756D01*
X80349Y72756D02*
X80900Y72756D01*
X90349Y72756D02*
X90900Y72756D01*
X139500Y72756D02*
X220078Y72756D01*
X10512Y73464D02*
X10900Y73464D01*
X20349Y73464D02*
X20900Y73464D01*
X40349Y73464D02*
X40900Y73464D01*
X80349Y73464D02*
X80900Y73464D01*
X90349Y73464D02*
X90900Y73464D01*
X140059Y73464D02*
X220078Y73464D01*
X9934Y74173D02*
X10900Y74173D01*
X20349Y74173D02*
X20900Y74173D01*
X40349Y74173D02*
X40900Y74173D01*
X80349Y74173D02*
X80900Y74173D01*
X90349Y74173D02*
X90900Y74173D01*
X140059Y74173D02*
X220078Y74173D01*
X1181Y74882D02*
X10900Y74882D01*
X20349Y74882D02*
X20900Y74882D01*
X80349Y74882D02*
X80900Y74882D01*
X140059Y74882D02*
X220078Y74882D01*
X1181Y75590D02*
X10900Y75590D01*
X20349Y75590D02*
X20900Y75590D01*
X80349Y75590D02*
X80900Y75590D01*
X140059Y75590D02*
X220078Y75590D01*
X1181Y76299D02*
X10900Y76299D01*
X20349Y76299D02*
X20900Y76299D01*
X80349Y76299D02*
X80900Y76299D01*
X140059Y76299D02*
X220078Y76299D01*
X1181Y77008D02*
X11212Y77008D01*
X20037Y77008D02*
X21212Y77008D01*
X80037Y77008D02*
X81212Y77008D01*
X140059Y77008D02*
X220078Y77008D01*
X1181Y77716D02*
X11920Y77716D01*
X19329Y77716D02*
X21920Y77716D01*
X79329Y77716D02*
X81920Y77716D01*
X140086Y77716D02*
X220078Y77716D01*
X1181Y78425D02*
X13065Y78425D01*
X18184Y78425D02*
X28065Y78425D01*
X73184Y78425D02*
X87305Y78425D01*
X140795Y78425D02*
X220078Y78425D01*
X73378Y79134D02*
X88014Y79134D01*
X141503Y79134D02*
X220078Y79134D01*
X74087Y79842D02*
X88723Y79842D01*
X142212Y79842D02*
X220078Y79842D01*
X142921Y80551D02*
X220078Y80551D01*
X143629Y81260D02*
X220078Y81260D01*
X144338Y81968D02*
X220078Y81968D01*
X145047Y82677D02*
X220078Y82677D01*
X70349Y83386D02*
X70391Y83386D01*
X145755Y83386D02*
X220078Y83386D01*
X70349Y84094D02*
X71100Y84094D01*
X146464Y84094D02*
X220078Y84094D01*
X70349Y84803D02*
X71808Y84803D01*
X147173Y84803D02*
X220078Y84803D01*
X108750Y85512D02*
X126267Y85512D01*
X147881Y85512D02*
X220078Y85512D01*
X95625Y86220D02*
X98233Y86220D01*
X123125Y86220D02*
X126976Y86220D01*
X148590Y86220D02*
X220078Y86220D01*
X93125Y86929D02*
X97342Y86929D01*
X123125Y86929D02*
X127684Y86929D01*
X149299Y86929D02*
X220078Y86929D01*
X70349Y87638D02*
X96835Y87638D01*
X103164Y87638D02*
X131029Y87638D01*
X133970Y87638D02*
X134643Y87638D01*
X150007Y87638D02*
X220078Y87638D01*
X70349Y88346D02*
X96573Y88346D01*
X103426Y88346D02*
X135352Y88346D01*
X150716Y88346D02*
X220078Y88346D01*
X71250Y89055D02*
X96456Y89055D01*
X133750Y89055D02*
X136060Y89055D01*
X151425Y89055D02*
X220078Y89055D01*
X68184Y89764D02*
X96456Y89764D01*
X103543Y89764D02*
X136769Y89764D01*
X200812Y89764D02*
X220078Y89764D01*
X68184Y90472D02*
X96599Y90472D01*
X103400Y90472D02*
X137478Y90472D01*
X152842Y90472D02*
X220078Y90472D01*
X68184Y91181D02*
X96860Y91181D01*
X133750Y91181D02*
X138186Y91181D01*
X153551Y91181D02*
X212590Y91181D01*
X214909Y91181D02*
X220078Y91181D01*
X95625Y91890D02*
X97412Y91890D01*
X133750Y91890D02*
X138895Y91890D01*
X154259Y91890D02*
X210739Y91890D01*
X216760Y91890D02*
X220078Y91890D01*
X68184Y92598D02*
X97440Y92598D01*
X127500Y92598D02*
X139604Y92598D01*
X154968Y92598D02*
X210030Y92598D01*
X217469Y92598D02*
X220078Y92598D01*
X68184Y93307D02*
X97440Y93307D01*
X102559Y93307D02*
X140312Y93307D01*
X155677Y93307D02*
X209338Y93307D01*
X218161Y93307D02*
X220078Y93307D01*
X68184Y94016D02*
X97440Y94016D01*
X102559Y94016D02*
X141021Y94016D01*
X156884Y94016D02*
X169012Y94016D01*
X171075Y94016D02*
X209077Y94016D01*
X218422Y94016D02*
X220078Y94016D01*
X68184Y94724D02*
X97440Y94724D01*
X102559Y94724D02*
X141730Y94724D01*
X155684Y94724D02*
X167657Y94724D01*
X172431Y94724D02*
X208816Y94724D01*
X218683Y94724D02*
X220078Y94724D01*
X68184Y95433D02*
X97440Y95433D01*
X102559Y95433D02*
X142438Y95433D01*
X155684Y95433D02*
X160946Y95433D01*
X173109Y95433D02*
X208631Y95433D01*
X218868Y95433D02*
X220078Y95433D01*
X95625Y96142D02*
X97440Y96142D01*
X127500Y96142D02*
X143147Y96142D01*
X155684Y96142D02*
X160238Y96142D01*
X173370Y96142D02*
X208631Y96142D01*
X218868Y96142D02*
X220078Y96142D01*
X68184Y96850D02*
X97440Y96850D01*
X102559Y96850D02*
X103845Y96850D01*
X107404Y96850D02*
X142345Y96850D01*
X173587Y96850D02*
X208631Y96850D01*
X218868Y96850D02*
X220078Y96850D01*
X173587Y97559D02*
X208736Y97559D01*
X218763Y97559D02*
X220078Y97559D01*
X173544Y98268D02*
X208997Y98268D01*
X218502Y98268D02*
X220078Y98268D01*
X173283Y98976D02*
X209258Y98976D01*
X218241Y98976D02*
X220078Y98976D01*
X172902Y99685D02*
X209814Y99685D01*
X217685Y99685D02*
X220078Y99685D01*
X172268Y100394D02*
X210523Y100394D01*
X216976Y100394D02*
X220078Y100394D01*
X172268Y101102D02*
X212004Y101102D01*
X215495Y101102D02*
X220078Y101102D01*
X176056Y101811D02*
X220078Y101811D01*
X176764Y102520D02*
X220078Y102520D01*
X177473Y103228D02*
X186437Y103228D01*
X195437Y103228D02*
X220078Y103228D01*
X178182Y103937D02*
X185818Y103937D01*
X196056Y103937D02*
X220078Y103937D01*
X178890Y104646D02*
X185818Y104646D01*
X196056Y104646D02*
X206668Y104646D01*
X210831Y104646D02*
X220078Y104646D01*
X179599Y105354D02*
X185818Y105354D01*
X196056Y105354D02*
X205399Y105354D01*
X212100Y105354D02*
X220078Y105354D01*
X180307Y106063D02*
X185818Y106063D01*
X196056Y106063D02*
X204690Y106063D01*
X212809Y106063D02*
X220078Y106063D01*
X181016Y106772D02*
X185818Y106772D01*
X196056Y106772D02*
X204213Y106772D01*
X213286Y106772D02*
X220078Y106772D01*
X181725Y107480D02*
X185818Y107480D01*
X196056Y107480D02*
X203952Y107480D01*
X213547Y107480D02*
X220078Y107480D01*
X181978Y108189D02*
X185818Y108189D01*
X196056Y108189D02*
X203691Y108189D01*
X213808Y108189D02*
X220078Y108189D01*
X181978Y108898D02*
X185818Y108898D01*
X196056Y108898D02*
X203631Y108898D01*
X213868Y108898D02*
X220078Y108898D01*
X181978Y109606D02*
X185818Y109606D01*
X196056Y109606D02*
X203631Y109606D01*
X213868Y109606D02*
X220078Y109606D01*
X181978Y110315D02*
X185818Y110315D01*
X196056Y110315D02*
X203631Y110315D01*
X213868Y110315D02*
X220078Y110315D01*
X182471Y111024D02*
X185818Y111024D01*
X196056Y111024D02*
X203861Y111024D01*
X213638Y111024D02*
X220078Y111024D01*
X182732Y111732D02*
X185818Y111732D01*
X196056Y111732D02*
X204122Y111732D01*
X213377Y111732D02*
X220078Y111732D01*
X182962Y112441D02*
X186482Y112441D01*
X195392Y112441D02*
X204445Y112441D01*
X213054Y112441D02*
X220078Y112441D01*
X182962Y113150D02*
X205154Y113150D01*
X212345Y113150D02*
X220078Y113150D01*
X182932Y113858D02*
X206003Y113858D01*
X211496Y113858D02*
X220078Y113858D01*
X100000Y34488D02*
X114750Y34488D01*
X114750Y34625D01*
X84793Y34488D02*
X100000Y34488D01*
X100000Y34625D01*
X1181Y3307D02*
X218750Y3307D01*
X45625Y2598D02*
X172500Y2598D01*
X172500Y2790D01*
X36250Y46535D02*
X52500Y46535D01*
X130274Y16772D02*
X132602Y16772D01*
X130349Y10394D02*
X137500Y10394D01*
X1181Y4016D02*
X1875Y4016D01*
X130349Y9685D02*
X137500Y9685D01*
X137500Y10000D01*
X137500Y9685D02*
X140000Y9685D01*
X140000Y10000D01*
X46007Y53622D02*
X52500Y53622D01*
X52500Y53750D01*
X52500Y53622D02*
X55000Y53622D01*
X55000Y53750D01*
X191250Y67795D02*
X218750Y67795D01*
X218750Y67500D01*
X130198Y67795D02*
X191250Y67795D01*
X191250Y67500D01*
X155684Y94016D02*
X156884Y94016D01*
X156884Y93690D01*
X42183Y50079D02*
X52500Y50079D01*
X52500Y50000D01*
X52500Y50079D02*
X78864Y50079D01*
X78864Y50000D01*
X43892Y50787D02*
X52500Y50787D01*
X25715Y25275D02*
X44375Y25275D01*
X44375Y25000D01*
X18184Y22441D02*
X44375Y22441D01*
X18184Y21024D02*
X45225Y21024D01*
X49196Y17849D02*
X45625Y17849D01*
X75543Y43701D02*
X78864Y43701D01*
X78864Y43635D01*
X97500Y20315D02*
X100000Y20315D01*
X100000Y20000D01*
X78184Y20315D02*
X97500Y20315D01*
X97500Y20000D01*
X28543Y40866D02*
X30625Y40866D01*
X30625Y40625D01*
X52500Y46535D02*
X52500Y46250D01*
X27559Y46535D02*
X36250Y46535D01*
X36250Y46250D01*
X30625Y40866D02*
X30866Y40866D01*
X25976Y25984D02*
X32500Y25984D01*
X18184Y23150D02*
X32500Y23150D01*
X44375Y25275D02*
X56250Y25275D01*
X32500Y23150D02*
X56250Y23150D01*
X55000Y53622D02*
X118750Y53622D01*
X118750Y53750D01*
X84751Y35197D02*
X100000Y35197D01*
X85114Y50079D02*
X100000Y50079D01*
X78864Y50079D02*
X85114Y50079D01*
X85114Y50000D02*
X85114Y49885D01*
X85114Y50079D02*
X85114Y50000D01*
X22053Y68400D02*
X25625Y68400D01*
X12027Y35905D02*
X12500Y35905D01*
X10512Y42992D02*
X12007Y42992D01*
X10512Y43701D02*
X11875Y43701D01*
X68184Y91890D02*
X71250Y91890D01*
X69865Y89055D02*
X71250Y89055D01*
X95625Y85512D02*
X108750Y85512D01*
X108750Y85625D01*
X70349Y85512D02*
X95625Y85512D01*
X95625Y85625D01*
X103543Y89055D02*
X133750Y89055D01*
X1181Y59000D02*
X5000Y59000D01*
X5000Y57874D02*
X11875Y57874D01*
X11875Y58125D01*
X1181Y57874D02*
X5000Y57874D01*
X5000Y58125D01*
X9358Y74749D02*
X5000Y74749D01*
X101766Y86220D02*
X108750Y86220D01*
X103139Y91181D02*
X108750Y91181D01*
X108750Y91250D01*
X108750Y91181D02*
X113750Y91181D01*
X113750Y91250D01*
X102587Y91890D02*
X133750Y91890D01*
X70349Y86220D02*
X93125Y86220D01*
X93125Y86250D01*
X70349Y86929D02*
X93125Y86929D01*
X71250Y91890D02*
X93125Y91890D01*
X93125Y91875D01*
X71250Y91875D02*
X71250Y91890D01*
X68184Y96142D02*
X95625Y96142D01*
X95625Y96250D01*
X93125Y86220D02*
X95625Y86220D01*
X102559Y96142D02*
X127500Y96142D01*
X127500Y96250D01*
X108750Y86220D02*
X123125Y86220D01*
X123125Y86250D01*
X102559Y92598D02*
X127500Y92598D01*
X113750Y91181D02*
X127500Y91181D01*
X127500Y91250D01*
X127500Y91181D02*
X133750Y91181D01*
X133750Y91250D01*
X102657Y86929D02*
X123125Y86929D01*
X93125Y91890D02*
X95625Y91890D01*
X42053Y8400D02*
X45625Y8400D01*
X12027Y35197D02*
X12027Y35374D01*
X2972Y35197D02*
X2972Y35625D01*
X180812Y89764D02*
X200812Y89764D01*
X200812Y89901D01*
X152133Y89764D02*
X180812Y89764D01*
X180812Y89901D01*
X133125Y16063D02*
X137500Y16063D01*
X137500Y16250D01*
X130349Y16063D02*
X133125Y16063D01*
X133125Y16250D01*
X129490Y68504D02*
X156884Y68504D01*
X191250Y68504D01*
X1181Y58583D02*
X12333Y58583D01*
X10512Y67087D02*
X20625Y67087D01*
X20625Y66875D01*
X20625Y67087D02*
X25625Y67087D01*
X25625Y66875D01*
X1181Y2598D02*
X45625Y2598D01*
X45625Y2790D01*
X1181Y2598D02*
X1875Y2790D01*
X20900Y72756D02*
X20900Y73125D01*
X10512Y67795D02*
X20625Y67795D01*
X10512Y66378D02*
X10512Y66875D01*
X9649Y59291D02*
X11875Y59291D01*
G54D28*
X114750Y34625D02*
X100000Y34625D01*
X218750Y3307D02*
X218750Y2790D01*
X52500Y46535D02*
X52500Y50000D01*
X132602Y16772D02*
X133125Y16250D01*
X137500Y10394D02*
X137500Y10000D01*
X1875Y4016D02*
X1875Y35625D01*
X137500Y10000D02*
X140000Y10000D01*
X137500Y10000D02*
X135000Y10000D01*
X52500Y53750D02*
X55000Y53750D01*
X52500Y53750D02*
X50000Y53750D01*
X218750Y67500D02*
X191250Y67500D01*
X52500Y50000D02*
X78864Y50000D01*
X52500Y50787D02*
X52500Y50000D01*
X44375Y22441D02*
X44375Y21875D01*
X45225Y21024D02*
X45625Y20625D01*
X45625Y17849D02*
X45625Y13125D01*
X78864Y43635D02*
X78864Y43635D01*
X100000Y20315D02*
X100000Y20000D01*
X97500Y20000D01*
X100000Y20000D02*
X102500Y20000D01*
X52500Y46250D02*
X36250Y46250D01*
X30866Y40866D02*
X30625Y40625D01*
X44375Y25000D02*
X32500Y25000D01*
X32500Y25984D02*
X32500Y27500D01*
X32500Y23150D02*
X32500Y22500D01*
X44375Y25000D02*
X56250Y25000D01*
X56250Y25275D02*
X56250Y27500D01*
X56250Y23150D02*
X56250Y22500D01*
X100000Y35197D02*
X100000Y50000D01*
X100000Y53750D02*
X118750Y53750D01*
X100000Y50079D02*
X100000Y53750D01*
X78864Y43701D02*
X78864Y50000D01*
X85114Y50000D01*
X100000Y50000D01*
X85114Y49885D02*
X85114Y50000D01*
X25625Y68400D02*
X25625Y73125D01*
X12500Y35905D02*
X12500Y42500D01*
X12007Y42992D02*
X11875Y43125D01*
X11875Y43701D02*
X11875Y43125D01*
X71250Y91890D02*
X71250Y95000D01*
X71250Y89055D02*
X71250Y88750D01*
X108750Y85625D02*
X95625Y85625D01*
X133750Y89055D02*
X133750Y91250D01*
X5000Y59000D02*
X5000Y66875D01*
X11875Y58125D02*
X5000Y58125D01*
X5000Y74749D02*
X5000Y66875D01*
X108750Y86220D02*
X108750Y85625D01*
X108750Y91250D02*
X113750Y91250D01*
X133750Y91890D02*
X133750Y93750D01*
X93125Y86929D02*
X93125Y91875D01*
X71250Y91875D01*
X95625Y86220D02*
X95625Y91875D01*
X93125Y91875D01*
X127500Y92598D02*
X127500Y96250D01*
X127500Y91250D02*
X133750Y91250D01*
X123125Y86929D02*
X123125Y91250D01*
X127500Y91250D02*
X123125Y91250D01*
X95625Y91890D02*
X95625Y91875D01*
X45625Y8400D02*
X45625Y2790D01*
X12027Y35374D02*
X7500Y35374D01*
X2972Y35625D02*
X1875Y35625D01*
X7500Y35625D02*
X7500Y35374D01*
X137500Y16250D02*
X133125Y16250D01*
X156884Y68504D02*
X156884Y67500D01*
X191250Y67500D01*
X180812Y89901D02*
X191250Y89901D01*
X200812Y89901D02*
X204375Y89901D01*
X180812Y89901D02*
X176875Y89901D01*
X191250Y68504D02*
X191250Y67500D01*
X191250Y89901D02*
X200812Y89901D01*
X113750Y91250D02*
X123125Y91250D01*
X12333Y58583D02*
X20625Y66875D01*
X25625Y66875D01*
X218750Y2790D02*
X172500Y2790D01*
X45625Y2790D01*
X1875Y2790D01*
X20900Y73125D02*
X20625Y73125D01*
X20625Y67795D02*
X20625Y66875D01*
X10512Y66875D02*
X11875Y66875D01*
X11875Y59291D02*
X11875Y58125D01*
X218750Y67500D02*
X218750Y3307D01*
X52500Y46250D02*
X52500Y46535D01*
X114750Y34625D02*
X132602Y16772D01*
X137500Y16250D02*
X137500Y10394D01*
X1875Y2790D02*
X1875Y4016D01*
X52500Y53750D02*
X52500Y50787D01*
X44375Y25000D02*
X44375Y22441D01*
X44375Y21875D02*
X45225Y21024D01*
X45625Y20625D02*
X45625Y17849D01*
X100000Y34625D02*
X100000Y20315D01*
X36250Y46250D02*
X30866Y40866D01*
X32500Y25000D02*
X32500Y25984D01*
X32500Y25000D02*
X32500Y23150D01*
X56250Y25000D02*
X56250Y25275D01*
X56250Y25000D02*
X56250Y23150D01*
X100000Y34625D02*
X100000Y35197D01*
X100000Y50000D02*
X100000Y50079D01*
X78864Y43635D02*
X78864Y43701D01*
X25625Y66875D02*
X25625Y68400D01*
X12500Y35374D02*
X12500Y35905D01*
X12500Y42500D02*
X12007Y42992D01*
X11875Y58125D02*
X11875Y43701D01*
X71250Y91875D02*
X71250Y91890D01*
X71250Y91875D02*
X71250Y89055D01*
X133750Y88750D02*
X133750Y89055D01*
X5000Y58125D02*
X5000Y59000D01*
X5000Y76250D02*
X5000Y74749D01*
X108750Y91250D02*
X108750Y86220D01*
X133750Y91250D02*
X133750Y91890D01*
X93125Y86250D02*
X93125Y86929D01*
X95625Y85625D02*
X95625Y86220D01*
X127500Y91250D02*
X127500Y92598D01*
X123125Y86250D02*
X123125Y86929D01*
X95625Y96250D02*
X95625Y91890D01*
X45625Y13125D02*
X45625Y8400D01*
X12500Y35374D02*
X12027Y35374D01*
X7500Y35625D02*
X2972Y35625D01*
X156884Y93690D02*
X156884Y68504D01*
X191250Y89901D02*
X191250Y68504D01*
X11875Y58125D02*
X12333Y58583D01*
X25625Y73125D02*
X20900Y73125D01*
X20625Y73125D02*
X20625Y67795D01*
X5000Y66875D02*
X10512Y66875D01*
X11875Y66875D02*
X11875Y59291D01*
X133125Y55625D02*
X133125Y34375D01*
X133125Y55625D02*
X115625Y73125D01*
X152401Y15098D02*
X133125Y34375D01*
X152401Y15098D02*
X175063Y15098D01*
X175312Y15625D01*
X130000Y53125D02*
X130000Y32500D01*
X115000Y68125D02*
X130000Y53125D01*
X115000Y68125D02*
X110625Y68125D01*
X105625Y73125D01*
X151250Y11250D02*
X130000Y32500D01*
X190812Y15098D02*
X190937Y15625D01*
X151250Y11250D02*
X189375Y11250D01*
X190812Y12687D01*
X190812Y15098D01*
X103750Y65000D02*
X95625Y73125D01*
X126875Y52500D02*
X126875Y45000D01*
X103750Y65000D02*
X114375Y65000D01*
X126875Y52500D01*
X106250Y45000D02*
X126875Y45000D01*
X126875Y30000D01*
X128750Y28125D01*
X142500Y31250D02*
X154375Y19375D01*
X181875Y19375D02*
X154375Y19375D01*
X182937Y15098D02*
X183125Y15625D01*
X181875Y19375D02*
X182937Y18312D01*
X182937Y15098D01*
X56875Y6250D02*
X55625Y7500D01*
X55625Y13125D01*
X56875Y6250D02*
X201250Y6250D01*
X206560Y11560D01*
X206560Y15098D01*
X206562Y15625D01*
X25000Y56875D02*
X35625Y67500D01*
X35625Y73125D01*
X25000Y56875D02*
X25000Y52324D01*
X31250Y52324D02*
X25000Y52324D01*
X25000Y40625D01*
X136875Y43125D02*
X136875Y57500D01*
X125625Y68750D01*
X125625Y73125D01*
X136875Y43125D02*
X156875Y23125D01*
X210000Y23125D01*
X214434Y18690D01*
X214434Y15098D01*
X214375Y15625D01*
X190812Y107812D02*
X190937Y107812D01*
X66875Y40625D02*
X75625Y31875D01*
X75625Y13125D01*
X60625Y90500D02*
X41125Y90500D01*
X35625Y85000D01*
X60625Y63125D02*
X60625Y90500D01*
X70625Y61875D02*
X70625Y80000D01*
X50625Y63125D02*
X50625Y58750D01*
X52500Y56875D01*
X65625Y56875D01*
X70625Y61875D02*
X65625Y56875D01*
X50625Y63125D02*
X50625Y80000D01*
X45625Y85000D01*
X148125Y97500D02*
X135000Y84375D01*
X73125Y82500D02*
X70625Y80000D01*
X126875Y82500D02*
X73125Y82500D01*
X126875Y82500D02*
X128750Y84375D01*
X135000Y84375D02*
X132500Y84375D01*
X128750Y84375D01*
X80625Y103750D02*
X85625Y103750D01*
X148125Y101875D02*
X146250Y103750D01*
X148125Y101875D02*
X148125Y97500D01*
X137500Y106250D02*
X137500Y103750D01*
X146250Y103750D01*
X85625Y108750D02*
X85625Y103750D01*
X137500Y103750D01*
X85625Y73125D02*
X92500Y80000D01*
X135000Y80000D02*
X92500Y80000D01*
X150625Y95625D02*
X135000Y80000D01*
X160375Y109940D02*
X154315Y109940D01*
X150625Y106250D02*
X154315Y109940D01*
X150625Y106250D02*
X150625Y95625D01*
X133125Y73125D02*
X136250Y73125D01*
X137500Y74375D01*
X137500Y78750D01*
X160625Y104375D02*
X160625Y99375D01*
X160625Y104375D02*
X162000Y103750D01*
X137500Y78750D02*
X153125Y94375D01*
X160625Y99375D02*
X162559Y97440D01*
X170044Y97440D01*
X153125Y94375D02*
X153125Y98125D01*
X154375Y99375D01*
X160625Y99375D01*
X15625Y73125D02*
X15625Y97500D01*
X31875Y113750D02*
X15625Y97500D01*
X31875Y113750D02*
X138750Y113750D01*
X139375Y113125D01*
X142875Y113125D01*
X144125Y100000D02*
X105625Y100000D01*
X30625Y66875D02*
X30625Y79375D01*
X9375Y8125D02*
X7500Y10000D01*
X15625Y47500D02*
X15625Y36250D01*
X65625Y85000D02*
X65625Y100000D01*
X100000Y100000D01*
X30625Y79375D02*
X30625Y95625D01*
X100000Y89375D02*
X100000Y100000D01*
X105625Y100000D01*
X65625Y100000D02*
X64375Y100000D01*
X45000Y95000D02*
X45000Y100000D01*
X35000Y100000D01*
X35000Y106250D02*
X35000Y100000D01*
X30625Y95625D01*
X64375Y108125D02*
X64375Y100000D01*
X45000Y100000D01*
X58125Y44375D02*
X52753Y39003D01*
X58125Y44375D02*
X71250Y44375D01*
X81250Y34375D01*
X47500Y39003D02*
X48750Y39003D01*
X47500Y39003D02*
X52753Y39003D01*
X30625Y66875D02*
X15625Y51875D01*
X15625Y47500D01*
X47500Y39003D02*
X44746Y36250D01*
X15625Y36250D01*
X45625Y73125D02*
X39375Y79375D01*
X30625Y79375D01*
X7500Y10000D02*
X7500Y19625D01*
X15625Y36250D02*
X15625Y21250D01*
X7500Y19625D02*
X14000Y19625D01*
X15625Y21250D01*
X63125Y31250D02*
X65625Y28750D01*
X65625Y13125D01*
X54375Y34375D02*
X54375Y31250D01*
X63125Y31250D01*
X54375Y31250D02*
X26875Y31250D01*
X22500Y26875D01*
X168000Y103750D02*
X174375Y103750D01*
X179419Y108794D01*
X179419Y113065D01*
G54D32*
X172500Y2790D03*
X156884Y93690D03*
X44375Y25000D03*
X78864Y43635D03*
X30625Y40625D03*
X118750Y53750D03*
X85114Y49885D03*
X93125Y86250D03*
X95625Y96250D03*
X127500Y96250D03*
X123125Y86250D03*
X200812Y89901D03*
X180812Y89901D03*
X113750Y91250D03*
X175063Y15098D03*
X190812Y15098D03*
X106250Y45000D03*
X182937Y15098D03*
X128750Y28125D03*
X142500Y31250D03*
X206560Y15098D03*
X25000Y40625D03*
X31250Y52324D03*
X214434Y15098D03*
X66875Y40625D03*
X60625Y90500D03*
X80625Y103750D03*
X132500Y84375D03*
X137500Y106250D03*
X160375Y109940D03*
X133125Y73125D03*
X170044Y97440D03*
X142875Y113125D03*
X144125Y100000D03*
X100000Y89375D03*
X9375Y8125D03*
X35000Y106250D03*
X45000Y95000D03*
X64375Y108125D03*
X81250Y34375D03*
X47500Y39003D03*
X15625Y47500D03*
X105625Y100000D03*
X22500Y26875D03*
X54375Y34375D03*
X179419Y113065D03*
G54D34*
X7500Y19625D03*
X7500Y35374D03*
X7500Y27500D03*
G54D63*
X168000Y103750D03*
X162000Y103750D03*
G54D76*
X15625Y73125D03*
X25625Y73125D03*
X35625Y73125D03*
X45625Y73125D03*
X55625Y73125D03*
X65625Y73125D03*
X75625Y73125D03*
X85625Y73125D03*
X95625Y73125D03*
X105625Y73125D03*
X115625Y73125D03*
X125625Y73125D03*
G54D77*
X65625Y85000D03*
X55625Y85000D03*
X45625Y85000D03*
X35625Y85000D03*
X105625Y108750D03*
X95625Y108750D03*
X85625Y108750D03*
X75625Y108750D03*
G54D78*
X125625Y13125D03*
X115625Y13125D03*
X105625Y13125D03*
X95625Y13125D03*
X85625Y13125D03*
X75625Y13125D03*
X65625Y13125D03*
X55625Y13125D03*
X45625Y13125D03*
X35625Y13125D03*
X25625Y13125D03*
X15625Y13125D03*
X60625Y63125D03*
X50625Y63125D03*
G54D83*
X190937Y107812D03*
G54D87*
X5000Y46875D03*
X5000Y66875D03*
M02*
