%FSLAX35Y35*%
%MOIN*%
%IN29=Bauteilnamenunten(extrainDatei:X.NamesBot)*%
%ADD10C,0.00591*%
%ADD11C,0.00004*%
%ADD12C,0.00154*%
%ADD13C,0.00192*%
%ADD14C,0.00197*%
%ADD15C,0.00200*%
%ADD16C,0.00240*%
%ADD17C,0.00288*%
%ADD18C,0.00300*%
%ADD19C,0.00394*%
%ADD20C,0.00400*%
%ADD21C,0.00450*%
%ADD22C,0.00500*%
%ADD23C,0.00600*%
%ADD24C,0.00787*%
%ADD25C,0.00800*%
%ADD26C,0.01000*%
%ADD27C,0.01024*%
%ADD28C,0.01181*%
%ADD29C,0.01575*%
%ADD30C,0.01969*%
%ADD31C,0.02362*%
%ADD32C,0.03150*%
%ADD33C,0.05000*%
%ADD34C,0.05118*%
%ADD35C,0.07087*%
%ADD36C,0.09843*%
%AMR_37*21,1,0.00591,0.01181,0,0,0.000*%
%ADD37R_37*%
%AMR_38*21,1,0.00600,0.07200,0,0,0.000*%
%ADD38R_38*%
%AMR_39*21,1,0.00787,0.04724,0,0,0.000*%
%ADD39R_39*%
%AMR_40*21,1,0.00788,0.03150,0,0,0.000*%
%ADD40R_40*%
%AMR_41*21,1,0.01181,0.01181,0,0,0.000*%
%ADD41R_41*%
%AMR_42*21,1,0.01250,0.04375,0,0,0.000*%
%ADD42R_42*%
%AMR_43*21,1,0.01400,0.05600,0,0,0.000*%
%ADD43R_43*%
%AMR_44*21,1,0.01574,0.03150,0,0,0.000*%
%ADD44R_44*%
%AMR_45*21,1,0.01574,0.04724,0,0,0.000*%
%ADD45R_45*%
%AMR_46*21,1,0.01800,0.02300,0,0,0.000*%
%ADD46R_46*%
%AMR_47*21,1,0.01969,0.02559,0,0,0.000*%
%ADD47R_47*%
%AMR_48*21,1,0.01969,0.05118,0,0,45.000*%
%ADD48R_48*%
%AMR_49*21,1,0.02000,0.02000,0,0,0.000*%
%ADD49R_49*%
%AMR_50*21,1,0.02165,0.04724,0,0,0.000*%
%ADD50R_50*%
%AMR_51*21,1,0.02500,0.02500,0,0,0.000*%
%ADD51R_51*%
%AMR_52*21,1,0.02500,0.05000,0,0,0.000*%
%ADD52R_52*%
%AMR_53*21,1,0.02559,0.05906,0,0,0.000*%
%ADD53R_53*%
%AMR_54*21,1,0.02756,0.09843,0,0,270.000*%
%ADD54R_54*%
%AMR_55*21,1,0.02953,0.05709,0,0,0.000*%
%ADD55R_55*%
%AMR_56*21,1,0.02953,0.06693,0,0,0.000*%
%ADD56R_56*%
%AMR_57*21,1,0.03150,0.00788,0,0,0.000*%
%ADD57R_57*%
%AMR_58*21,1,0.03150,0.01574,0,0,0.000*%
%ADD58R_58*%
%AMR_59*21,1,0.03750,0.01875,0,0,0.000*%
%ADD59R_59*%
%AMR_60*21,1,0.03937,0.01575,0,0,180.000*%
%ADD60R_60*%
%AMR_61*21,1,0.03937,0.05512,0,0,0.000*%
%ADD61R_61*%
%AMR_62*21,1,0.04600,0.05512,0,0,90.000*%
%ADD62R_62*%
%AMR_63*21,1,0.04600,0.05512,0,0,180.000*%
%ADD63R_63*%
%AMR_64*21,1,0.04724,0.01574,0,0,0.000*%
%ADD64R_64*%
%AMR_65*21,1,0.04724,0.04724,0,0,0.000*%
%ADD65R_65*%
%AMR_66*21,1,0.05118,0.01969,0,0,45.000*%
%ADD66R_66*%
%AMR_67*21,1,0.05118,0.05906,0,0,0.000*%
%ADD67R_67*%
%AMR_68*21,1,0.05118,0.05906,0,0,90.000*%
%ADD68R_68*%
%AMR_69*21,1,0.05118,0.05906,0,0,180.000*%
%ADD69R_69*%
%AMR_70*21,1,0.05118,0.05906,0,0,270.000*%
%ADD70R_70*%
%AMR_71*21,1,0.05118,0.06299,0,0,0.000*%
%ADD71R_71*%
%AMR_72*21,1,0.05118,0.06299,0,0,90.000*%
%ADD72R_72*%
%AMR_73*21,1,0.05118,0.06299,0,0,180.000*%
%ADD73R_73*%
%AMR_74*21,1,0.05315,0.02362,0,0,0.000*%
%ADD74R_74*%
%AMR_75*21,1,0.05512,0.02795,0,0,90.000*%
%ADD75R_75*%
%AMR_76*21,1,0.05512,0.05512,0,0,90.000*%
%ADD76R_76*%
%AMR_77*21,1,0.05512,0.05512,0,0,180.000*%
%ADD77R_77*%
%AMR_78*21,1,0.05512,0.05512,0,0,270.000*%
%ADD78R_78*%
%AMR_79*21,1,0.05600,0.01400,0,0,0.000*%
%ADD79R_79*%
%AMR_80*21,1,0.05709,0.02953,0,0,0.000*%
%ADD80R_80*%
%AMR_81*21,1,0.06299,0.05512,0,0,0.000*%
%ADD81R_81*%
%AMR_82*21,1,0.06299,0.05512,0,0,180.000*%
%ADD82R_82*%
%AMR_83*21,1,0.06299,0.06299,0,0,0.000*%
%ADD83R_83*%
%AMR_84*21,1,0.06299,0.07087,0,0,180.000*%
%ADD84R_84*%
%AMR_85*21,1,0.06299,0.07087,0,0,270.000*%
%ADD85R_85*%
%AMR_86*21,1,0.06693,0.02953,0,0,0.000*%
%ADD86R_86*%
%AMR_87*21,1,0.07087,0.11811,0,0,0.000*%
%ADD87R_87*%
%AMR_88*21,1,0.07087,0.14173,0,0,90.000*%
%ADD88R_88*%
%AMR_89*21,1,0.07200,0.00600,0,0,0.000*%
%ADD89R_89*%
%AMR_90*21,1,0.07874,0.06299,0,0,90.000*%
%ADD90R_90*%
%AMR_91*21,1,0.08661,0.04724,0,0,90.000*%
%ADD91R_91*%
%AMR_92*21,1,0.10625,0.01875,0,0,0.000*%
%ADD92R_92*%
%AMR_93*21,1,0.19685,0.19685,0,0,0.000*%
%ADD93R_93*%
%AMRR_94*21,1,0.03937,0.01260,0,0,0.000*21,1,0.03622,0.01575,0,0,0.000*1,1,0.00315,0.01811,0.00630*1,1,0.00315,-0.01811,-0.00630*1,1,0.00315,0.01811,-0.00630*1,1,0.00315,-0.01811,0.00630*%
%ADD94RR_94*%
G36*
X156173Y100302D02*
X156487Y100262D01*
X156487Y100695D01*
X156251Y100735D01*
X156094Y100813D01*
X155936Y100932D01*
X155818Y101089D01*
X155779Y101286D01*
X155739Y101522D01*
X155739Y101719D01*
X155818Y101916D01*
X155897Y102034D01*
X156015Y102152D01*
X156133Y102231D01*
X156291Y102231D01*
X156527Y102152D01*
X156606Y102073D01*
X156684Y101916D01*
X156763Y101719D01*
X156842Y101404D01*
X156921Y101050D01*
X157039Y100853D01*
X157157Y100617D01*
X157314Y100499D01*
X157472Y100420D01*
X157708Y100380D01*
X157905Y100420D01*
X158141Y100499D01*
X158299Y100656D01*
X158417Y100892D01*
X158495Y101168D01*
X158535Y101443D01*
X158495Y101758D01*
X158417Y102034D01*
X158299Y102270D01*
X158102Y102428D01*
X157865Y102546D01*
X157629Y102585D01*
X157629Y102152D01*
X157865Y102073D01*
X158023Y101955D01*
X158141Y101758D01*
X158180Y101483D01*
X158141Y101168D01*
X158023Y100971D01*
X157905Y100853D01*
X157708Y100813D01*
X157550Y100853D01*
X157432Y100932D01*
X157393Y101010D01*
X157354Y101128D01*
X157275Y101286D01*
X157236Y101483D01*
X157117Y101876D01*
X157039Y102113D01*
X156881Y102388D01*
X156724Y102546D01*
X156527Y102625D01*
X156291Y102664D01*
X156054Y102625D01*
X155818Y102546D01*
X155661Y102349D01*
X155503Y102113D01*
X155425Y101837D01*
X155385Y101562D01*
X155425Y101168D01*
X155503Y100853D01*
X155661Y100617D01*
X155897Y100420D01*
X156173Y100302D01*
D02*G37*
G36*
X155897Y103058D02*
X156291Y103018D01*
X156330Y103451D01*
X156054Y103491D01*
X155858Y103569D01*
X155779Y103687D01*
X155739Y103845D01*
X155739Y103963D01*
X155818Y104081D01*
X156015Y104199D01*
X156133Y104239D01*
X156369Y104239D01*
X158495Y104239D01*
X158495Y104672D01*
X156409Y104672D01*
X156054Y104632D01*
X155818Y104593D01*
X155621Y104475D01*
X155503Y104278D01*
X155425Y104081D01*
X155385Y103845D01*
X155425Y103491D01*
X155621Y103215D01*
X155897Y103058D01*
D02*G37*
G36*
X155818Y105656D02*
X155818Y107152D01*
X155425Y107152D01*
X155425Y105144D01*
X155700Y105184D01*
X155897Y105262D01*
X156133Y105420D01*
X156330Y105617D01*
X156566Y105892D01*
X156763Y106128D01*
X156921Y106286D01*
X157078Y106443D01*
X157196Y106562D01*
X157432Y106680D01*
X157629Y106719D01*
X157826Y106680D01*
X157984Y106562D01*
X158102Y106404D01*
X158141Y106168D01*
X158102Y105932D01*
X157984Y105735D01*
X157826Y105617D01*
X157590Y105577D01*
X157629Y105184D01*
X157984Y105262D01*
X158259Y105499D01*
X158456Y105774D01*
X158495Y106168D01*
X158417Y106562D01*
X158259Y106876D01*
X157984Y107034D01*
X157629Y107113D01*
X157275Y107034D01*
X157117Y106955D01*
X156921Y106798D01*
X156684Y106601D01*
X156369Y106247D01*
X156133Y105971D01*
X156015Y105813D01*
X155818Y105656D01*
D02*G37*
M02*
