%FSLAX35Y35*%
%MOIN*%
%IN16=KupferobenL2(X.Top)*%
%ADD10C,0.00591*%
%ADD11C,0.00004*%
%ADD12C,0.00154*%
%ADD13C,0.00192*%
%ADD14C,0.00197*%
%ADD15C,0.00200*%
%ADD16C,0.00240*%
%ADD17C,0.00288*%
%ADD18C,0.00300*%
%ADD19C,0.00394*%
%ADD20C,0.00400*%
%ADD21C,0.00450*%
%ADD22C,0.00500*%
%ADD23C,0.00600*%
%ADD24C,0.00787*%
%ADD25C,0.00800*%
%ADD26C,0.01000*%
%ADD27C,0.01024*%
%ADD28C,0.01181*%
%ADD29C,0.01575*%
%ADD30C,0.01969*%
%ADD31C,0.02362*%
%ADD32C,0.03150*%
%ADD33C,0.05000*%
%ADD34C,0.05118*%
%ADD35C,0.07087*%
%ADD36C,0.09843*%
%AMR_37*21,1,0.00591,0.01181,0,0,0.000*%
%ADD37R_37*%
%AMR_38*21,1,0.00600,0.07200,0,0,0.000*%
%ADD38R_38*%
%AMR_39*21,1,0.00787,0.04724,0,0,0.000*%
%ADD39R_39*%
%AMR_40*21,1,0.00788,0.03150,0,0,0.000*%
%ADD40R_40*%
%AMR_41*21,1,0.01181,0.01181,0,0,0.000*%
%ADD41R_41*%
%AMR_42*21,1,0.01250,0.04375,0,0,0.000*%
%ADD42R_42*%
%AMR_43*21,1,0.01400,0.05600,0,0,0.000*%
%ADD43R_43*%
%AMR_44*21,1,0.01574,0.03150,0,0,0.000*%
%ADD44R_44*%
%AMR_45*21,1,0.01574,0.04724,0,0,0.000*%
%ADD45R_45*%
%AMR_46*21,1,0.01800,0.02300,0,0,0.000*%
%ADD46R_46*%
%AMR_47*21,1,0.01969,0.02559,0,0,0.000*%
%ADD47R_47*%
%AMR_48*21,1,0.01969,0.05118,0,0,45.000*%
%ADD48R_48*%
%AMR_49*21,1,0.02000,0.02000,0,0,0.000*%
%ADD49R_49*%
%AMR_50*21,1,0.02165,0.04724,0,0,0.000*%
%ADD50R_50*%
%AMR_51*21,1,0.02500,0.02500,0,0,0.000*%
%ADD51R_51*%
%AMR_52*21,1,0.02500,0.05000,0,0,0.000*%
%ADD52R_52*%
%AMR_53*21,1,0.02559,0.05906,0,0,0.000*%
%ADD53R_53*%
%AMR_54*21,1,0.02756,0.09843,0,0,270.000*%
%ADD54R_54*%
%AMR_55*21,1,0.02953,0.05709,0,0,0.000*%
%ADD55R_55*%
%AMR_56*21,1,0.02953,0.06693,0,0,0.000*%
%ADD56R_56*%
%AMR_57*21,1,0.03150,0.00788,0,0,0.000*%
%ADD57R_57*%
%AMR_58*21,1,0.03150,0.01574,0,0,0.000*%
%ADD58R_58*%
%AMR_59*21,1,0.03750,0.01875,0,0,0.000*%
%ADD59R_59*%
%AMR_60*21,1,0.03937,0.01575,0,0,180.000*%
%ADD60R_60*%
%AMR_61*21,1,0.03937,0.05512,0,0,0.000*%
%ADD61R_61*%
%AMR_62*21,1,0.04600,0.05512,0,0,90.000*%
%ADD62R_62*%
%AMR_63*21,1,0.04600,0.05512,0,0,180.000*%
%ADD63R_63*%
%AMR_64*21,1,0.04724,0.01574,0,0,0.000*%
%ADD64R_64*%
%AMR_65*21,1,0.04724,0.04724,0,0,0.000*%
%ADD65R_65*%
%AMR_66*21,1,0.05118,0.01969,0,0,45.000*%
%ADD66R_66*%
%AMR_67*21,1,0.05118,0.05906,0,0,0.000*%
%ADD67R_67*%
%AMR_68*21,1,0.05118,0.05906,0,0,90.000*%
%ADD68R_68*%
%AMR_69*21,1,0.05118,0.05906,0,0,180.000*%
%ADD69R_69*%
%AMR_70*21,1,0.05118,0.05906,0,0,270.000*%
%ADD70R_70*%
%AMR_71*21,1,0.05118,0.06299,0,0,0.000*%
%ADD71R_71*%
%AMR_72*21,1,0.05118,0.06299,0,0,90.000*%
%ADD72R_72*%
%AMR_73*21,1,0.05118,0.06299,0,0,180.000*%
%ADD73R_73*%
%AMR_74*21,1,0.05315,0.02362,0,0,0.000*%
%ADD74R_74*%
%AMR_75*21,1,0.05512,0.02795,0,0,90.000*%
%ADD75R_75*%
%AMR_76*21,1,0.05512,0.05512,0,0,90.000*%
%ADD76R_76*%
%AMR_77*21,1,0.05512,0.05512,0,0,180.000*%
%ADD77R_77*%
%AMR_78*21,1,0.05512,0.05512,0,0,270.000*%
%ADD78R_78*%
%AMR_79*21,1,0.05600,0.01400,0,0,0.000*%
%ADD79R_79*%
%AMR_80*21,1,0.05709,0.02953,0,0,0.000*%
%ADD80R_80*%
%AMR_81*21,1,0.06299,0.05512,0,0,0.000*%
%ADD81R_81*%
%AMR_82*21,1,0.06299,0.05512,0,0,180.000*%
%ADD82R_82*%
%AMR_83*21,1,0.06299,0.06299,0,0,0.000*%
%ADD83R_83*%
%AMR_84*21,1,0.06299,0.07087,0,0,180.000*%
%ADD84R_84*%
%AMR_85*21,1,0.06299,0.07087,0,0,270.000*%
%ADD85R_85*%
%AMR_86*21,1,0.06693,0.02953,0,0,0.000*%
%ADD86R_86*%
%AMR_87*21,1,0.07087,0.11811,0,0,0.000*%
%ADD87R_87*%
%AMR_88*21,1,0.07087,0.14173,0,0,90.000*%
%ADD88R_88*%
%AMR_89*21,1,0.07200,0.00600,0,0,0.000*%
%ADD89R_89*%
%AMR_90*21,1,0.07874,0.06299,0,0,90.000*%
%ADD90R_90*%
%AMR_91*21,1,0.08661,0.04724,0,0,90.000*%
%ADD91R_91*%
%AMR_92*21,1,0.10625,0.01875,0,0,0.000*%
%ADD92R_92*%
%AMR_93*21,1,0.19685,0.19685,0,0,0.000*%
%ADD93R_93*%
%AMRR_94*21,1,0.03937,0.01260,0,0,0.000*21,1,0.03622,0.01575,0,0,0.000*1,1,0.00315,0.01811,0.00630*1,1,0.00315,-0.01811,-0.00630*1,1,0.00315,0.01811,-0.00630*1,1,0.00315,-0.01811,0.00630*%
%ADD94RR_94*%
G54D28*
X63611Y32836D02*
X67725Y36950D01*
X69986Y36950D01*
X71312Y35625D01*
X72196Y34741D01*
X72196Y32514D01*
X68065Y28382D02*
X72196Y32514D01*
X89738Y54509D02*
X85114Y49885D01*
X78864Y43635D02*
X74801Y39573D01*
X71312Y36084D02*
X71312Y35625D01*
X24375Y83006D02*
X24375Y74375D01*
X25625Y73125D01*
X138125Y74758D02*
X144375Y74758D01*
X58125Y111875D02*
X58125Y103838D01*
X58125Y101279D01*
X63611Y32836D02*
X63611Y32836D01*
X31875Y79375D02*
X55625Y79375D01*
X6594Y108125D02*
X6594Y112219D01*
X8125Y113750D01*
X31875Y79375D02*
X25625Y73125D01*
X74801Y39573D02*
X71312Y36084D01*
X55625Y79375D02*
X90625Y79375D01*
X8125Y113750D02*
X27500Y113750D01*
X27500Y111761D01*
X45000Y113750D02*
X27500Y113750D01*
X56250Y113750D02*
X58125Y111875D01*
X45000Y108115D02*
X45000Y113750D01*
X56250Y113750D01*
X55625Y85000D02*
X55625Y79375D01*
X64394Y103838D02*
X58125Y103838D01*
X54355Y96161D02*
X58125Y96161D01*
X54355Y101279D02*
X58125Y101279D01*
X58125Y96161D01*
X58125Y94375D01*
X55625Y91875D01*
X55625Y85000D01*
X44375Y25000D02*
X51875Y25000D01*
X35237Y40625D02*
X30625Y40625D01*
X35237Y40625D02*
X35237Y39003D01*
X122834Y106250D02*
X127500Y106250D01*
X127500Y103690D01*
X89738Y54509D02*
X93125Y57896D01*
X89738Y54509D02*
X89738Y54509D01*
X93125Y65625D02*
X93125Y57896D01*
X93125Y65625D02*
X90625Y68125D01*
X90625Y79375D01*
X115000Y60000D02*
X115000Y53750D01*
X113740Y53750D01*
X115000Y60000D02*
X113125Y61875D01*
X108740Y61875D01*
X113740Y53750D02*
X115000Y53750D01*
X118750Y53750D01*
X127500Y101250D02*
X127500Y96250D01*
X127500Y106250D02*
X127500Y103690D01*
X95625Y108750D02*
X95625Y96250D01*
X123125Y86250D02*
X123125Y83750D01*
X128750Y78125D01*
X122834Y103690D02*
X127500Y103690D01*
X127500Y101250D01*
X127500Y103690D02*
X127500Y101250D01*
X183750Y95000D02*
X183750Y99419D01*
X183115Y99419D01*
X156884Y93690D02*
X156884Y99062D01*
X156259Y99062D01*
X183750Y95000D02*
X180625Y91875D01*
X180812Y91687D02*
X180812Y89901D01*
X180812Y91687D02*
X180625Y91875D01*
X93125Y86250D02*
X90625Y83750D01*
X90625Y79375D01*
X113750Y91250D02*
X113750Y95634D01*
X128750Y78125D02*
X134758Y78125D01*
X138125Y74758D01*
X138125Y43129D01*
X139375Y43129D01*
X27500Y62500D02*
X27500Y73125D01*
X27500Y62500D02*
X26761Y62500D01*
X27500Y73125D02*
X25625Y73125D01*
X172500Y2790D02*
X166993Y2790D01*
X166993Y4375D01*
X167189Y15098D02*
X167189Y4375D01*
X166993Y4375D01*
X96419Y35063D02*
X103108Y28375D01*
X115250Y28375D01*
X122250Y35375D02*
X115250Y28375D01*
X122250Y46625D02*
X122250Y35375D01*
X122250Y46625D02*
X125000Y49375D01*
X125000Y63750D02*
X125000Y49375D01*
X125000Y63750D02*
X115625Y73125D01*
X98646Y37290D02*
X104687Y31250D01*
X114375Y31250D01*
X120000Y36875D01*
X120000Y48125D02*
X120000Y36875D01*
X120000Y48125D02*
X122500Y50625D01*
X122500Y61250D02*
X122500Y50625D01*
X116875Y66875D02*
X122500Y61250D01*
X116875Y66875D02*
X113750Y66875D01*
X112500Y68125D01*
X110625Y68125D01*
X105625Y73125D01*
X98646Y45601D02*
X101170Y48125D01*
X103125Y48125D01*
X106250Y45000D01*
X128750Y28125D02*
X139375Y28125D01*
X142500Y31250D01*
X40625Y30625D02*
X40625Y8750D01*
X42500Y6875D02*
X40625Y8750D01*
X42500Y6875D02*
X53750Y6875D01*
X55625Y8750D01*
X55625Y13125D01*
X40625Y30625D02*
X43750Y33750D01*
X48750Y33750D02*
X43750Y33750D01*
X48750Y33750D02*
X53125Y38125D01*
X59156Y45601D02*
X56633Y48125D01*
X54375Y48125D02*
X56633Y48125D01*
X54375Y48125D02*
X53125Y46875D01*
X53125Y38125D01*
X91965Y52282D02*
X101259Y61577D01*
X101259Y61875D01*
X65838Y52282D02*
X62495Y55625D01*
X44375Y65000D02*
X38125Y65000D01*
X35625Y67500D01*
X35625Y73125D01*
X35625Y29365D02*
X33759Y29365D01*
X25000Y38125D01*
X25000Y40625D01*
X31250Y52324D02*
X26638Y52324D01*
X44375Y65000D02*
X45625Y63750D01*
X45625Y60000D01*
X50000Y55625D01*
X62495Y55625D01*
X21250Y36875D02*
X30625Y27500D01*
X30625Y9375D01*
X28125Y6875D02*
X30625Y9375D01*
X50625Y50625D02*
X58587Y50625D01*
X61383Y47828D01*
X28125Y6875D02*
X21875Y6875D01*
X15625Y13125D01*
X21250Y36875D02*
X21250Y42500D01*
X23125Y44375D01*
X44375Y44375D01*
X50625Y50625D01*
X18750Y35625D02*
X27500Y26875D01*
X49375Y53125D02*
X60541Y53125D01*
X63611Y50055D01*
X25625Y13125D02*
X25625Y20000D01*
X27500Y21875D01*
X27500Y26875D01*
X18750Y35625D02*
X18750Y43125D01*
X22500Y46875D01*
X43125Y46875D01*
X49375Y53125D01*
X101404Y25625D02*
X94192Y32836D01*
X116250Y25625D02*
X101404Y25625D01*
X116250Y25625D02*
X124500Y33875D01*
X124500Y44500D01*
X127500Y47500D01*
X127500Y66875D01*
X125625Y68750D01*
X125625Y73125D01*
X120625Y78125D01*
X120625Y81250D01*
X118750Y83125D01*
X114365Y83125D01*
X116875Y7500D02*
X115625Y8750D01*
X115625Y13125D01*
X97495Y20625D02*
X89738Y28382D01*
X97495Y20625D02*
X108125Y20625D01*
X115625Y13125D01*
X116875Y7500D02*
X137500Y7500D01*
X139375Y9375D01*
X139375Y15620D01*
X144375Y59990D02*
X144375Y66491D01*
X61383Y35063D02*
X62633Y36383D01*
X66875Y40625D01*
X146875Y9375D02*
X142500Y5000D01*
X77500Y5000D01*
X75625Y6875D01*
X75625Y13125D01*
X146875Y9375D02*
X146875Y52509D01*
X144375Y52509D01*
X60625Y63125D02*
X63904Y63125D01*
X70292Y56736D01*
X60625Y98125D02*
X61220Y98720D01*
X75625Y103750D02*
X75625Y108750D01*
X80625Y113750D01*
X134375Y113750D01*
X60625Y98125D02*
X60625Y90500D01*
X61220Y98720D02*
X64394Y98720D01*
X136875Y92500D02*
X138134Y92500D01*
X132165Y108809D02*
X135059Y108809D01*
X136250Y110000D01*
X136250Y111875D01*
X141250Y108750D02*
X141250Y103750D01*
X136250Y98750D01*
X136250Y92500D02*
X136250Y98750D01*
X136250Y92500D02*
X136875Y92500D01*
X140000Y110000D02*
X136250Y110000D01*
X140000Y110000D02*
X141250Y108750D01*
X136250Y111875D02*
X134375Y113750D01*
X136875Y92500D02*
X138134Y92500D01*
X70595Y98720D02*
X75625Y103750D01*
X64394Y98720D02*
X70595Y98720D01*
X64394Y98720D02*
X70595Y98720D01*
X64450Y58125D02*
X68065Y54509D01*
X64450Y58125D02*
X55625Y58125D01*
X50625Y63125D01*
X138134Y84375D02*
X132500Y84375D01*
X138134Y84375D02*
X138134Y83750D01*
X132165Y106250D02*
X137500Y106250D01*
X64394Y96161D02*
X73036Y96161D01*
X80625Y103750D01*
X160375Y109940D02*
X165009Y109940D01*
X165009Y111250D01*
X160375Y109940D02*
X155615Y109940D01*
X155615Y111250D01*
X85861Y59541D02*
X89375Y63054D01*
X89375Y65000D02*
X89375Y63054D01*
X89375Y65000D02*
X85625Y68750D01*
X85625Y73125D01*
X83057Y21701D02*
X85625Y19133D01*
X85625Y13125D01*
X85284Y23928D02*
X95625Y13587D01*
X95625Y13125D01*
X99450Y23125D02*
X91965Y30609D01*
X130000Y46250D02*
X126875Y43125D01*
X130000Y46250D02*
X130000Y65625D01*
X133125Y68750D01*
X133125Y73125D01*
X163740Y97440D02*
X170044Y97440D01*
X163740Y97440D02*
X163740Y99062D01*
X170044Y97440D02*
X176259Y97440D01*
X175634Y99419D01*
X99450Y23125D02*
X117500Y23125D01*
X126875Y32500D01*
X126875Y43125D01*
X125625Y13125D02*
X117500Y21250D01*
X117500Y23125D01*
X95541Y18125D02*
X87511Y26155D01*
X95541Y18125D02*
X100625Y18125D01*
X105625Y13125D01*
X87511Y26155D02*
X87511Y26488D01*
X87511Y26155D02*
X87511Y26155D01*
X83057Y61191D02*
X84375Y62509D01*
X84375Y65000D01*
X83125Y66250D01*
X76875Y66250D01*
X75625Y67500D01*
X75625Y73125D01*
X74746Y61191D02*
X74746Y60878D01*
X69375Y66562D02*
X74746Y61191D01*
X69375Y66562D02*
X69375Y69375D01*
X65625Y73125D01*
X65625Y68125D02*
X60625Y68125D01*
X55625Y73125D01*
X71942Y59541D02*
X66875Y64608D01*
X66875Y66875D01*
X65625Y68125D01*
X9375Y99124D02*
X19625Y99124D01*
X20634Y98115D01*
X20634Y93243D01*
X20634Y83006D02*
X15000Y83006D01*
X14375Y83006D01*
X11619Y83006D01*
X9375Y83375D01*
X21250Y87500D02*
X28125Y87500D01*
X28125Y83016D02*
X28115Y83006D01*
X28115Y87490D01*
X28125Y87500D01*
X15625Y82381D02*
X15000Y83006D01*
X15625Y73125D02*
X15625Y81756D01*
X14375Y83006D01*
X20634Y83006D02*
X20634Y86884D01*
X21250Y87500D01*
X36375Y94500D02*
X29375Y87500D01*
X36375Y94500D02*
X36875Y94500D01*
X28125Y87500D02*
X29375Y87500D01*
X142875Y113125D02*
X148134Y113125D01*
X148134Y111250D01*
X13750Y62500D02*
X13750Y73125D01*
X13750Y62500D02*
X15738Y62500D01*
X13750Y73125D02*
X15625Y73125D01*
X13750Y62500D02*
X13750Y58125D01*
X5625Y50000D01*
X5000Y50000D01*
X5000Y46875D01*
X9375Y8125D02*
X15000Y2500D01*
X89841Y41250D02*
X96997Y48405D01*
X78750Y31875D02*
X81250Y34375D01*
X88125Y41250D02*
X89841Y41250D01*
X28115Y100123D02*
X28115Y93243D01*
X36636Y100738D02*
X35000Y100738D01*
X36636Y100738D02*
X36875Y100500D01*
X35000Y106250D02*
X35000Y100738D01*
X27500Y100738D01*
X35000Y100500D02*
X36875Y100500D01*
X35000Y100500D02*
X35000Y100738D01*
X19375Y108125D02*
X24375Y103125D01*
X19375Y108125D02*
X18405Y108125D01*
X24375Y103125D02*
X27500Y103125D01*
X27500Y100738D01*
X76011Y31875D02*
X78750Y31875D01*
X68750Y102500D02*
X67529Y101279D01*
X68750Y106875D02*
X68750Y102500D01*
X68750Y106875D02*
X67500Y108125D01*
X64375Y108125D01*
X67261Y23125D02*
X69714Y25578D01*
X67529Y101279D02*
X64394Y101279D01*
X45000Y95000D02*
X45000Y100000D01*
X54355Y98720D02*
X51279Y98720D01*
X50000Y100000D01*
X50000Y102500D01*
X51338Y103838D01*
X54355Y103838D01*
X50000Y100000D02*
X45000Y100000D01*
X45000Y100634D01*
X146875Y83750D02*
X146875Y92500D01*
X146875Y83750D02*
X145615Y83750D01*
X146875Y92500D02*
X145615Y92500D01*
X67261Y23125D02*
X65625Y23125D01*
X88125Y41250D02*
X81250Y34375D01*
X42717Y39003D02*
X47500Y39003D01*
X65838Y30609D02*
X62812Y27584D01*
X62812Y25937D01*
X65625Y23125D01*
X102341Y53750D02*
X106259Y53750D01*
X106884Y83125D02*
X101875Y83125D01*
X100000Y85000D01*
X100000Y89375D01*
X105625Y108809D02*
X113750Y108809D01*
X105625Y108809D02*
X105625Y108750D01*
X105625Y100000D02*
X105625Y108750D01*
X89841Y41250D02*
X96997Y48405D01*
X102341Y53750D01*
X96997Y48405D02*
X96997Y48405D01*
X69714Y25578D02*
X67261Y23125D01*
X69714Y25578D02*
X76011Y31875D01*
X69714Y25578D02*
X69714Y25578D01*
X159315Y15098D02*
X159687Y15625D01*
X146875Y92500D02*
X146875Y97250D01*
X144125Y100000D01*
X113750Y103115D02*
X113750Y108750D01*
X113750Y108809D02*
X122834Y108809D01*
X113750Y108750D02*
X105625Y108750D01*
X113750Y108750D02*
X113750Y108809D01*
X113750Y108750D02*
X113750Y108809D01*
X7500Y19625D02*
X16250Y19625D01*
X16250Y20634D01*
X15625Y47500D02*
X19157Y51032D01*
X19157Y52324D01*
X15000Y2500D02*
X159512Y2500D01*
X159512Y4375D01*
X159315Y15098D02*
X159315Y4375D01*
X159512Y4375D01*
X54375Y34375D02*
X56240Y34375D01*
X59156Y37290D01*
X7500Y27500D02*
X16250Y27500D01*
X16250Y28115D01*
X22500Y26875D02*
X16250Y26875D01*
X16250Y27500D01*
X16250Y28115D01*
X173740Y110000D02*
X179375Y110000D01*
X173740Y110000D02*
X172490Y111250D01*
X179375Y110000D02*
X179375Y108080D01*
X179419Y113065D02*
X179419Y108080D01*
X179375Y108080D01*
X35625Y21884D02*
X35625Y13125D01*
X51875Y20275D02*
X59099Y20275D01*
X61250Y18125D01*
X71170Y18125D01*
X74746Y21701D01*
X51875Y29724D02*
X58400Y29724D01*
X60000Y28125D01*
X60000Y24375D01*
X63750Y20625D01*
X69216Y20625D01*
X72519Y23928D01*
G54D30*
X190812Y89901D02*
X190812Y107812D01*
G54D32*
X172500Y2790D03*
X156884Y93690D03*
X44375Y25000D03*
X78864Y43635D03*
X30625Y40625D03*
X118750Y53750D03*
X85114Y49885D03*
X93125Y86250D03*
X95625Y96250D03*
X127500Y96250D03*
X123125Y86250D03*
X200812Y89901D03*
X180812Y89901D03*
X113750Y91250D03*
X175063Y15098D03*
X190812Y15098D03*
X106250Y45000D03*
X182937Y15098D03*
X128750Y28125D03*
X142500Y31250D03*
X206560Y15098D03*
X25000Y40625D03*
X31250Y52324D03*
X214434Y15098D03*
X66875Y40625D03*
X60625Y90500D03*
X80625Y103750D03*
X132500Y84375D03*
X137500Y106250D03*
X160375Y109940D03*
X133125Y73125D03*
X170044Y97440D03*
X142875Y113125D03*
X144125Y100000D03*
X100000Y89375D03*
X9375Y8125D03*
X35000Y106250D03*
X45000Y95000D03*
X64375Y108125D03*
X81250Y34375D03*
X47500Y39003D03*
X15625Y47500D03*
X105625Y100000D03*
X22500Y26875D03*
X54375Y34375D03*
X179419Y113065D03*
G54D34*
X7500Y19625D03*
X7500Y35374D03*
X7500Y27500D03*
G54D48*
X83634Y21123D03*
X85861Y23350D03*
X88088Y25578D03*
X90315Y27805D03*
X92542Y30032D03*
X94769Y32259D03*
X96997Y34486D03*
X99224Y36713D03*
X74169Y61768D03*
X71942Y59541D03*
X69714Y57314D03*
X67487Y55087D03*
X65260Y52860D03*
X63033Y50633D03*
X60806Y48405D03*
X58579Y46178D03*
G54D50*
X20634Y83006D03*
X24375Y83006D03*
X28115Y83006D03*
X28115Y93243D03*
X20634Y93243D03*
G54D54*
X51875Y29724D03*
X51875Y25000D03*
X51875Y20275D03*
G54D60*
X122834Y108809D03*
X122834Y106250D03*
X122834Y103690D03*
X132165Y103690D03*
X132165Y106250D03*
X132165Y108809D03*
G54D61*
X179375Y108080D03*
X183115Y99419D03*
X175634Y99419D03*
G54D62*
X36875Y94500D03*
X36875Y100500D03*
G54D65*
X144375Y74758D03*
X144375Y66491D03*
G54D66*
X58579Y36713D03*
X60806Y34486D03*
X63033Y32259D03*
X65260Y30032D03*
X67487Y27805D03*
X69714Y25578D03*
X71942Y23350D03*
X74169Y21123D03*
X99224Y46178D03*
X96997Y48405D03*
X94769Y50633D03*
X92542Y52860D03*
X90315Y55087D03*
X88088Y57314D03*
X85861Y59541D03*
X83634Y61768D03*
G54D67*
X35237Y39003D03*
X42717Y39003D03*
X159512Y4375D03*
X166993Y4375D03*
G54D68*
X45000Y100634D03*
X45000Y108115D03*
X113750Y95634D03*
X113750Y103115D03*
G54D69*
X108740Y61875D03*
X101259Y61875D03*
X113740Y53750D03*
X106259Y53750D03*
G54D70*
X35625Y29365D03*
X35625Y21884D03*
G54D71*
X19157Y52324D03*
X26638Y52324D03*
X138134Y92500D03*
X145615Y92500D03*
X138134Y83750D03*
X145615Y83750D03*
X148134Y111250D03*
X155615Y111250D03*
X165009Y111250D03*
X172490Y111250D03*
X106884Y83125D03*
X114365Y83125D03*
G54D72*
X144375Y52509D03*
X144375Y59990D03*
X16250Y20634D03*
X16250Y28115D03*
G54D73*
X163740Y99062D03*
X156259Y99062D03*
G54D75*
X127500Y106250D03*
G54D76*
X15625Y73125D03*
X25625Y73125D03*
X35625Y73125D03*
X45625Y73125D03*
X55625Y73125D03*
X65625Y73125D03*
X75625Y73125D03*
X85625Y73125D03*
X95625Y73125D03*
X105625Y73125D03*
X115625Y73125D03*
X125625Y73125D03*
G54D77*
X65625Y85000D03*
X55625Y85000D03*
X45625Y85000D03*
X35625Y85000D03*
X105625Y108750D03*
X95625Y108750D03*
X85625Y108750D03*
X75625Y108750D03*
G54D78*
X125625Y13125D03*
X115625Y13125D03*
X105625Y13125D03*
X95625Y13125D03*
X85625Y13125D03*
X75625Y13125D03*
X65625Y13125D03*
X55625Y13125D03*
X45625Y13125D03*
X35625Y13125D03*
X25625Y13125D03*
X15625Y13125D03*
X60625Y63125D03*
X50625Y63125D03*
G54D81*
X6594Y108125D03*
G54D82*
X18405Y108125D03*
G54D83*
X190937Y107812D03*
G54D84*
X26761Y62500D03*
X15738Y62500D03*
G54D85*
X27500Y111761D03*
X27500Y100738D03*
G54D87*
X5000Y46875D03*
X5000Y66875D03*
G54D88*
X9375Y99124D03*
X9375Y83375D03*
G54D90*
X139375Y15620D03*
X139375Y43129D03*
G54D91*
X159315Y15098D03*
X167189Y15098D03*
X175063Y15098D03*
X182937Y15098D03*
X190812Y15098D03*
X198686Y15098D03*
X206560Y15098D03*
X214434Y15098D03*
X200812Y89901D03*
X190812Y89901D03*
X180812Y89901D03*
G54D94*
X64394Y103838D03*
X64394Y101279D03*
X64394Y98720D03*
X64394Y96161D03*
X54355Y96161D03*
X54355Y98720D03*
X54355Y101279D03*
X54355Y103838D03*
G36*
X126250Y99375D02*
X126250Y104375D01*
X128750Y104375D01*
X128750Y99375D01*
X126250Y99375D01*
D02*G37*
M02*
