%FSLAX35Y35*%
%MOIN*%
%IN18=Loetstoppmaskeoben(X.StopTop)*%
%ADD10C,0.00591*%
%ADD11C,0.00004*%
%ADD12C,0.00154*%
%ADD13C,0.00192*%
%ADD14C,0.00197*%
%ADD15C,0.00200*%
%ADD16C,0.00240*%
%ADD17C,0.00288*%
%ADD18C,0.00300*%
%ADD19C,0.00394*%
%ADD20C,0.00400*%
%ADD21C,0.00450*%
%ADD22C,0.00500*%
%ADD23C,0.00600*%
%ADD24C,0.00787*%
%ADD25C,0.00800*%
%ADD26C,0.01000*%
%ADD27C,0.01024*%
%ADD28C,0.01181*%
%ADD29C,0.01575*%
%ADD30C,0.01969*%
%ADD31C,0.02362*%
%ADD32C,0.03150*%
%ADD33C,0.05000*%
%ADD34C,0.05118*%
%ADD35C,0.07087*%
%ADD36C,0.09843*%
%AMR_37*21,1,0.00591,0.01181,0,0,0.000*%
%ADD37R_37*%
%AMR_38*21,1,0.00600,0.07200,0,0,0.000*%
%ADD38R_38*%
%AMR_39*21,1,0.00787,0.04724,0,0,0.000*%
%ADD39R_39*%
%AMR_40*21,1,0.00788,0.03150,0,0,0.000*%
%ADD40R_40*%
%AMR_41*21,1,0.01181,0.01181,0,0,0.000*%
%ADD41R_41*%
%AMR_42*21,1,0.01250,0.04375,0,0,0.000*%
%ADD42R_42*%
%AMR_43*21,1,0.01400,0.05600,0,0,0.000*%
%ADD43R_43*%
%AMR_44*21,1,0.01574,0.03150,0,0,0.000*%
%ADD44R_44*%
%AMR_45*21,1,0.01574,0.04724,0,0,0.000*%
%ADD45R_45*%
%AMR_46*21,1,0.01800,0.02300,0,0,0.000*%
%ADD46R_46*%
%AMR_47*21,1,0.01969,0.02559,0,0,0.000*%
%ADD47R_47*%
%AMR_48*21,1,0.01969,0.05118,0,0,45.000*%
%ADD48R_48*%
%AMR_49*21,1,0.02000,0.02000,0,0,0.000*%
%ADD49R_49*%
%AMR_50*21,1,0.02165,0.04724,0,0,0.000*%
%ADD50R_50*%
%AMR_51*21,1,0.02500,0.02500,0,0,0.000*%
%ADD51R_51*%
%AMR_52*21,1,0.02500,0.05000,0,0,0.000*%
%ADD52R_52*%
%AMR_53*21,1,0.02559,0.05906,0,0,0.000*%
%ADD53R_53*%
%AMR_54*21,1,0.02756,0.09843,0,0,270.000*%
%ADD54R_54*%
%AMR_55*21,1,0.02953,0.05709,0,0,0.000*%
%ADD55R_55*%
%AMR_56*21,1,0.02953,0.06693,0,0,0.000*%
%ADD56R_56*%
%AMR_57*21,1,0.03150,0.00788,0,0,0.000*%
%ADD57R_57*%
%AMR_58*21,1,0.03150,0.01574,0,0,0.000*%
%ADD58R_58*%
%AMR_59*21,1,0.03750,0.01875,0,0,0.000*%
%ADD59R_59*%
%AMR_60*21,1,0.03937,0.01575,0,0,180.000*%
%ADD60R_60*%
%AMR_61*21,1,0.03937,0.05512,0,0,0.000*%
%ADD61R_61*%
%AMR_62*21,1,0.04600,0.05512,0,0,90.000*%
%ADD62R_62*%
%AMR_63*21,1,0.04600,0.05512,0,0,180.000*%
%ADD63R_63*%
%AMR_64*21,1,0.04724,0.01574,0,0,0.000*%
%ADD64R_64*%
%AMR_65*21,1,0.04724,0.04724,0,0,0.000*%
%ADD65R_65*%
%AMR_66*21,1,0.05118,0.01969,0,0,45.000*%
%ADD66R_66*%
%AMR_67*21,1,0.05118,0.05906,0,0,0.000*%
%ADD67R_67*%
%AMR_68*21,1,0.05118,0.05906,0,0,90.000*%
%ADD68R_68*%
%AMR_69*21,1,0.05118,0.05906,0,0,180.000*%
%ADD69R_69*%
%AMR_70*21,1,0.05118,0.05906,0,0,270.000*%
%ADD70R_70*%
%AMR_71*21,1,0.05118,0.06299,0,0,0.000*%
%ADD71R_71*%
%AMR_72*21,1,0.05118,0.06299,0,0,90.000*%
%ADD72R_72*%
%AMR_73*21,1,0.05118,0.06299,0,0,180.000*%
%ADD73R_73*%
%AMR_74*21,1,0.05315,0.02362,0,0,0.000*%
%ADD74R_74*%
%AMR_75*21,1,0.05512,0.02795,0,0,90.000*%
%ADD75R_75*%
%AMR_76*21,1,0.05512,0.05512,0,0,90.000*%
%ADD76R_76*%
%AMR_77*21,1,0.05512,0.05512,0,0,180.000*%
%ADD77R_77*%
%AMR_78*21,1,0.05512,0.05512,0,0,270.000*%
%ADD78R_78*%
%AMR_79*21,1,0.05600,0.01400,0,0,0.000*%
%ADD79R_79*%
%AMR_80*21,1,0.05709,0.02953,0,0,0.000*%
%ADD80R_80*%
%AMR_81*21,1,0.06299,0.05512,0,0,0.000*%
%ADD81R_81*%
%AMR_82*21,1,0.06299,0.05512,0,0,180.000*%
%ADD82R_82*%
%AMR_83*21,1,0.06299,0.06299,0,0,0.000*%
%ADD83R_83*%
%AMR_84*21,1,0.06299,0.07087,0,0,180.000*%
%ADD84R_84*%
%AMR_85*21,1,0.06299,0.07087,0,0,270.000*%
%ADD85R_85*%
%AMR_86*21,1,0.06693,0.02953,0,0,0.000*%
%ADD86R_86*%
%AMR_87*21,1,0.07087,0.11811,0,0,0.000*%
%ADD87R_87*%
%AMR_88*21,1,0.07087,0.14173,0,0,90.000*%
%ADD88R_88*%
%AMR_89*21,1,0.07200,0.00600,0,0,0.000*%
%ADD89R_89*%
%AMR_90*21,1,0.07874,0.06299,0,0,90.000*%
%ADD90R_90*%
%AMR_91*21,1,0.08661,0.04724,0,0,90.000*%
%ADD91R_91*%
%AMR_92*21,1,0.10625,0.01875,0,0,0.000*%
%ADD92R_92*%
%AMR_93*21,1,0.19685,0.19685,0,0,0.000*%
%ADD93R_93*%
%AMRR_94*21,1,0.03937,0.01260,0,0,0.000*21,1,0.03622,0.01575,0,0,0.000*1,1,0.00315,0.01811,0.00630*1,1,0.00315,-0.01811,-0.00630*1,1,0.00315,0.01811,-0.00630*1,1,0.00315,-0.01811,0.00630*%
%ADD94RR_94*%
G54D32*
X172500Y2790D03*
X156884Y93690D03*
X44375Y25000D03*
X78864Y43635D03*
X30625Y40625D03*
X118750Y53750D03*
X85114Y49885D03*
X93125Y86250D03*
X95625Y96250D03*
X127500Y96250D03*
X123125Y86250D03*
X200812Y89901D03*
X180812Y89901D03*
X113750Y91250D03*
X175063Y15098D03*
X190812Y15098D03*
X106250Y45000D03*
X182937Y15098D03*
X128750Y28125D03*
X142500Y31250D03*
X206560Y15098D03*
X25000Y40625D03*
X31250Y52324D03*
X214434Y15098D03*
X66875Y40625D03*
X60625Y90500D03*
X80625Y103750D03*
X132500Y84375D03*
X137500Y106250D03*
X160375Y109940D03*
X133125Y73125D03*
X170044Y97440D03*
X142875Y113125D03*
X144125Y100000D03*
X100000Y89375D03*
X9375Y8125D03*
X35000Y106250D03*
X45000Y95000D03*
X64375Y108125D03*
X81250Y34375D03*
X47500Y39003D03*
X15625Y47500D03*
X105625Y100000D03*
X22500Y26875D03*
X54375Y34375D03*
X179419Y113065D03*
G54D34*
X7500Y19625D03*
X7500Y35374D03*
X7500Y27500D03*
G54D35*
X213750Y96250D03*
X208750Y109375D03*
G54D36*
X40000Y56250D03*
G54D48*
X83634Y21123D03*
X85861Y23350D03*
X88088Y25578D03*
X90315Y27805D03*
X92542Y30032D03*
X94769Y32259D03*
X96997Y34486D03*
X99224Y36713D03*
X74169Y61768D03*
X71942Y59541D03*
X69714Y57314D03*
X67487Y55087D03*
X65260Y52860D03*
X63033Y50633D03*
X60806Y48405D03*
X58579Y46178D03*
G54D50*
X20634Y83006D03*
X24375Y83006D03*
X28115Y83006D03*
X28115Y93243D03*
X20634Y93243D03*
G54D54*
X51875Y29724D03*
X51875Y25000D03*
X51875Y20275D03*
G54D60*
X122834Y108809D03*
X122834Y106250D03*
X122834Y103690D03*
X132165Y103690D03*
X132165Y106250D03*
X132165Y108809D03*
G54D61*
X179375Y108080D03*
X183115Y99419D03*
X175634Y99419D03*
G54D62*
X36875Y94500D03*
X36875Y100500D03*
G54D65*
X144375Y74758D03*
X144375Y66491D03*
G54D66*
X58579Y36713D03*
X60806Y34486D03*
X63033Y32259D03*
X65260Y30032D03*
X67487Y27805D03*
X69714Y25578D03*
X71942Y23350D03*
X74169Y21123D03*
X99224Y46178D03*
X96997Y48405D03*
X94769Y50633D03*
X92542Y52860D03*
X90315Y55087D03*
X88088Y57314D03*
X85861Y59541D03*
X83634Y61768D03*
G54D67*
X35237Y39003D03*
X42717Y39003D03*
X159512Y4375D03*
X166993Y4375D03*
G54D68*
X45000Y100634D03*
X45000Y108115D03*
X113750Y95634D03*
X113750Y103115D03*
G54D69*
X108740Y61875D03*
X101259Y61875D03*
X113740Y53750D03*
X106259Y53750D03*
G54D70*
X35625Y29365D03*
X35625Y21884D03*
G54D71*
X19157Y52324D03*
X26638Y52324D03*
X138134Y92500D03*
X145615Y92500D03*
X138134Y83750D03*
X145615Y83750D03*
X148134Y111250D03*
X155615Y111250D03*
X165009Y111250D03*
X172490Y111250D03*
X106884Y83125D03*
X114365Y83125D03*
G54D72*
X144375Y52509D03*
X144375Y59990D03*
X16250Y20634D03*
X16250Y28115D03*
G54D73*
X163740Y99062D03*
X156259Y99062D03*
G54D75*
X127500Y106250D03*
G54D76*
X15625Y73125D03*
X25625Y73125D03*
X35625Y73125D03*
X45625Y73125D03*
X55625Y73125D03*
X65625Y73125D03*
X75625Y73125D03*
X85625Y73125D03*
X95625Y73125D03*
X105625Y73125D03*
X115625Y73125D03*
X125625Y73125D03*
G54D77*
X65625Y85000D03*
X55625Y85000D03*
X45625Y85000D03*
X35625Y85000D03*
X105625Y108750D03*
X95625Y108750D03*
X85625Y108750D03*
X75625Y108750D03*
G54D78*
X125625Y13125D03*
X115625Y13125D03*
X105625Y13125D03*
X95625Y13125D03*
X85625Y13125D03*
X75625Y13125D03*
X65625Y13125D03*
X55625Y13125D03*
X45625Y13125D03*
X35625Y13125D03*
X25625Y13125D03*
X15625Y13125D03*
X60625Y63125D03*
X50625Y63125D03*
G54D81*
X6594Y108125D03*
G54D82*
X18405Y108125D03*
G54D83*
X190937Y107812D03*
G54D84*
X26761Y62500D03*
X15738Y62500D03*
G54D85*
X27500Y111761D03*
X27500Y100738D03*
G54D87*
X5000Y46875D03*
X5000Y66875D03*
G54D88*
X9375Y99124D03*
X9375Y83375D03*
G54D90*
X139375Y15620D03*
X139375Y43129D03*
G54D91*
X159315Y15098D03*
X167189Y15098D03*
X175063Y15098D03*
X182937Y15098D03*
X190812Y15098D03*
X198686Y15098D03*
X206560Y15098D03*
X214434Y15098D03*
X200812Y89901D03*
X190812Y89901D03*
X180812Y89901D03*
G54D94*
X64394Y103838D03*
X64394Y101279D03*
X64394Y98720D03*
X64394Y96161D03*
X54355Y96161D03*
X54355Y98720D03*
X54355Y101279D03*
X54355Y103838D03*
G36*
X40475Y97200D02*
X33275Y97200D01*
X33275Y97800D01*
X40475Y97800D01*
X40475Y97200D01*
D02*G37*
G36*
X126250Y99375D02*
X126250Y101875D01*
X128750Y101875D01*
X128750Y99375D01*
X126250Y99375D01*
D02*G37*
M02*
