M48
METRIC
T1F00S00C0.400
T2F00S00C0.800
T3F00S00C0.900
T4F00S00C1.000
T5F00S00C1.800
T6F00S00C2.500
%
M71
T1
X44.4663Y3.8350
X46.4663Y3.8350
X48.4663Y3.8350
X52.4663Y3.8350
X54.4663Y3.8350
X43.8150Y0.7088
X39.8488Y23.7975
X11.2713Y6.3500
X20.0315Y11.0835
X7.7788Y10.3188
X30.1625Y13.6525
X21.6190Y12.6710
X23.6538Y21.9075
X24.2888Y24.4475
X32.3850Y24.4475
X31.2738Y21.9075
X51.0063Y22.8350
X45.9263Y22.8350
X28.8925Y23.1775
X44.4663Y3.8350
X48.4663Y3.8350
X26.9875Y11.4300
X46.4663Y3.8350
X32.7025Y7.1438
X36.1950Y7.9375
X52.4663Y3.8350
X6.3500Y10.3188
X7.9375Y13.2905
X54.4663Y3.8350
X16.9863Y10.3188
X15.3988Y22.9870
X20.4788Y26.3525
X33.6550Y21.4313
X34.9250Y26.9875
X40.7353Y27.9250
X33.8138Y18.5738
X43.1913Y24.7500
X36.2903Y28.7338
X36.6078Y25.4000
X25.4000Y22.7013
X2.3813Y2.0638
X8.8900Y26.9875
X11.4300Y24.1300
X16.3513Y27.4638
X20.6375Y8.7313
X12.0650Y9.9069
X3.9688Y12.0650
X26.8288Y25.4000
X5.7150Y6.8263
X13.8113Y8.7313
X45.5725Y28.7188
T2
X1.9050Y4.9850
X1.9050Y8.9850
X1.9050Y6.9850
T3
X31.9088Y3.3338
X29.3688Y3.3338
X26.8288Y3.3338
X24.2888Y3.3338
X21.7488Y3.3338
X19.2088Y3.3338
X16.6688Y3.3338
X14.1288Y3.3338
X11.5888Y3.3338
X9.0488Y3.3338
X6.5088Y3.3338
X3.9688Y3.3338
X3.9688Y18.5738
X6.5088Y18.5738
X9.0488Y18.5738
X11.5888Y18.5738
X14.1288Y18.5738
X16.6688Y18.5738
X19.2088Y18.5738
X21.7488Y18.5738
X24.2888Y18.5738
X26.8288Y18.5738
X29.3688Y18.5738
X31.9088Y18.5738
X16.6688Y21.5900
X14.1288Y21.5900
X11.5888Y21.5900
X9.0488Y21.5900
X26.8288Y27.6225
X24.2888Y27.6225
X21.7488Y27.6225
X19.2088Y27.6225
X15.3988Y16.0338
X12.8588Y16.0338
T4
X48.4981Y27.3844
X1.2700Y11.9063
X1.2700Y16.9863
T5
X54.2925Y24.4475
X53.0225Y27.7813
T6
X10.1600Y14.2875
M30
